<?xml version="1.0" encoding="UTF-8" standalone="no"?><svg xmlns="http://www.w3.org/2000/svg" xmlns:xlink="http://www.w3.org/1999/xlink" contentScriptType="application/ecmascript" contentStyleType="text/css" height="69px" preserveAspectRatio="none" style="width:240px;height:69px;" version="1.1" viewBox="0 0 240 69" width="240px" zoomAndPan="magnify"><defs><filter height="300%" id="f1ser0dyndo51v" width="300%" x="-1" y="-1"><feGaussianBlur result="blurOut" stdDeviation="2.0"/><feColorMatrix in="blurOut" result="blurOut2" type="matrix" values="0 0 0 0 0 0 0 0 0 0 0 0 0 0 0 0 0 0 .4 0"/><feOffset dx="4.0" dy="4.0" in="blurOut2" result="blurOut3"/><feBlend in="SourceGraphic" in2="blurOut3" mode="normal"/></filter></defs><g><ellipse cx="16" cy="33" fill="#000000" filter="url(#f1ser0dyndo51v)" rx="10" ry="10" style="stroke: none; stroke-width: 1.0;"/><rect fill="#FEFECE" filter="url(#f1ser0dyndo51v)" height="50" rx="12.5" ry="12.5" style="stroke: #A80036; stroke-width: 1.5;" width="52" x="61" y="8"/><line style="stroke: #A80036; stroke-width: 1.5;" x1="61" x2="113" y1="36.5938" y2="36.5938"/><text fill="#000000" font-family="Futura" font-size="14" lengthAdjust="spacingAndGlyphs" textLength="32" x="71" y="27.957">initial</text><rect fill="#FEFECE" filter="url(#f1ser0dyndo51v)" height="50" rx="12.5" ry="12.5" style="stroke: #A80036; stroke-width: 1.5;" width="80" x="148" y="8"/><line style="stroke: #A80036; stroke-width: 1.5;" x1="148" x2="228" y1="36.5938" y2="36.5938"/><text fill="#000000" font-family="Futura" font-size="14" lengthAdjust="spacingAndGlyphs" textLength="60" x="158" y="27.957">published</text><!--link *start to initial--><path d="M26.2617,33 C36.0944,33 45.927,33 55.7597,33 " fill="none" id="*start-initial" style="stroke: #A80036; stroke-width: 1.0;"/><polygon fill="#A80036" points="60.9015,33,51.9015,29,55.9015,33,51.9015,37,60.9015,33" style="stroke: #A80036; stroke-width: 1.0;"/><!--link initial to published--><path d="M113.0391,33 C122.93,33 132.8209,33 142.7119,33 " fill="none" id="initial-published" style="stroke: #A80036; stroke-width: 1.0;"/><polygon fill="#A80036" points="147.8842,33,138.8842,29,142.8842,33,138.8842,37,147.8842,33" style="stroke: #A80036; stroke-width: 1.0;"/><!--
@startuml



skinparam handwritten false
skinparam defaultFontName Futura

skinparam handwritten false

[*] -> initial
initial -> published

@enduml

PlantUML version 1.2019.00(Sun Jan 13 07:46:42 PST 2019)
(GPL source distribution)
Java Runtime: Java(TM) SE Runtime Environment
JVM: Java HotSpot(TM) 64-Bit Server VM
Java Version: 10.0.1+10
Operating System: Mac OS X
OS Version: 10.14.3
Default Encoding: UTF-8
Language: en
Country: US
--></g></svg>