<svg xmlns="http://www.w3.org/2000/svg" height="916.654" preserveAspectRatio="none" style="width:4087px;height:916px" viewBox="0 0 4087 916" width="4087.63"><defs><filter height="300%" id="a" width="300%" x="-1" y="-1"><feGaussianBlur result="blurOut" stdDeviation="1.843"/><feColorMatrix in="blurOut" result="blurOut2" values="0 0 0 0 0 0 0 0 0 0 0 0 0 0 0 0 0 0 .4 0"/><feOffset dx="3.685" dy="3.685" in="blurOut2" result="blurOut3"/><feBlend in="SourceGraphic" in2="blurOut3"/></filter></defs><path fill="#FFF" filter="url(#a)" stroke="#000" stroke-width="1.382" d="M1992.685 346.394h1719.992v81.071H1992.685z"/><path fill="#FFF" stroke="#000" stroke-width="1.382" d="M3697.016 351v12.898h11.055v-7.37l-5.528-5.528h-5.527z"/><path stroke="#000" stroke-width="1.382" d="M3702.543 351v5.528M3708.071 356.528h-5.528"/><text font-family="Futura" font-size="12.898" font-weight="bold" lengthAdjust="spacingAndGlyphs" textLength="81.071" x="2812.146" y="362.024">Project Plan</text><path fill="#FFF" filter="url(#a)" stroke="#000" stroke-width="1.382" d="M2596.11 545.386h186.095v81.071H2596.11z"/><path fill="#FFF" stroke="#000" stroke-width="1.382" d="M2766.543 549.992v12.898h11.055v-7.37l-5.527-5.528h-5.528z"/><path stroke="#000" stroke-width="1.382" d="M2772.071 549.992v5.528M2777.598 555.52h-5.527"/><text font-family="Futura" font-size="12.898" font-weight="bold" lengthAdjust="spacingAndGlyphs" textLength="52.512" x="2662.902" y="561.016">Product</text><path fill="#FFF" filter="url(#a)" stroke="#000" stroke-width="1.382" d="M2673.496 744.378h273.614v81.071h-273.614z"/><path fill="#FFF" stroke="#000" stroke-width="1.382" d="M2931.449 748.984v12.898h11.055v-7.37l-5.528-5.528h-5.527z"/><path stroke="#000" stroke-width="1.382" d="M2936.976 748.984v5.528M2942.504 754.512h-5.528"/><text font-family="Futura" font-size="12.898" font-weight="bold" lengthAdjust="spacingAndGlyphs" textLength="127.134" x="2746.736" y="760.008">Project Repository</text><path fill="#FFF" filter="url(#a)" stroke="#000" stroke-width="1.382" d="M2914.866 131.28h129.898v81.071h-129.898z"/><path fill="#FFF" stroke="#000" stroke-width="1.382" d="M3029.102 135.886v12.898h11.055v-7.37l-5.527-5.528h-5.528z"/><path stroke="#000" stroke-width="1.382" d="M3034.63 135.886v5.527M3040.157 141.413h-5.527"/><text font-family="Futura" font-size="12.898" font-weight="bold" lengthAdjust="spacingAndGlyphs" textLength="32.244" x="2963.693" y="146.91">SoW</text><path fill="#FFF" filter="url(#a)" stroke="#000" stroke-width="1.382" d="M1134.071 351.921h398.906v70.016h-398.906z"/><path fill="#FFF" stroke="#000" stroke-width="1.382" d="M1517.315 356.528v12.897h11.055v-7.37l-5.527-5.527h-5.528z"/><path stroke="#000" stroke-width="1.382" d="M1522.842 356.528v5.527M1528.37 362.055h-5.528"/><text font-family="Futura" font-size="12.898" font-weight="bold" lengthAdjust="spacingAndGlyphs" textLength="114.236" x="1276.406" y="367.551">System Elements</text><path fill="#FFF" filter="url(#a)" stroke="#000" stroke-width="1.382" d="M3021.732 545.386h234v81.071h-234z"/><path fill="#FFF" stroke="#000" stroke-width="1.382" d="M3240.07 549.992v12.898h11.056v-7.37l-5.528-5.528h-5.527z"/><path stroke="#000" stroke-width="1.382" d="M3245.598 549.992v5.528M3251.126 555.52h-5.528"/><text font-family="Futura" font-size="12.898" font-weight="bold" lengthAdjust="spacingAndGlyphs" textLength="17.504" x="3129.98" y="561.016">CR</text><path fill="#FFF" filter="url(#a)" stroke="#000" stroke-width="1.382" d="M3521.976 545.386h127.134v81.071h-127.134z"/><path fill="#FFF" stroke="#000" stroke-width="1.382" d="M3633.449 549.992v12.898h11.055v-7.37l-5.528-5.528h-5.527z"/><path stroke="#000" stroke-width="1.382" d="M3638.976 549.992v5.528M3644.504 555.52h-5.528"/><text font-family="Futura" font-size="12.898" font-weight="bold" lengthAdjust="spacingAndGlyphs" textLength="112.394" x="3529.347" y="561.016">Meeting Minutes</text><path fill="#FFF" filter="url(#a)" stroke="#000" stroke-width="1.382" d="M3825.992 346.394h175.039v81.071h-175.039z"/><path fill="#FFF" stroke="#000" stroke-width="1.382" d="M3985.37 351v12.898h11.055v-7.37l-5.527-5.528h-5.528z"/><path stroke="#000" stroke-width="1.382" d="M3990.898 351v5.528M3996.425 356.528h-5.527"/><text font-family="Futura" font-size="12.898" font-weight="bold" lengthAdjust="spacingAndGlyphs" textLength="160.299" x="3833.362" y="362.024">Progress Status Record</text><path fill="#FEFECE" filter="url(#a)" stroke="#a80036" stroke-width="1.382" d="M3320.681 378.638h39.614v35.555h-39.614z"/><path fill="#FEFECE" stroke="#a80036" stroke-width="1.382" d="M3316.075 383.244h9.213v4.606h-9.213zM3316.075 404.98h9.213v4.606h-9.213z"/><text font-family="Futura" font-size="12.898" lengthAdjust="spacingAndGlyphs" textLength="21.189" x="3329.894" y="401.63">CM</text><path fill="#FEFECE" filter="url(#a)" stroke="#a80036" stroke-width="1.382" d="M2165.882 378.638h44.221v35.555h-44.221z"/><path fill="#FEFECE" stroke="#a80036" stroke-width="1.382" d="M2161.276 383.244h9.213v4.606h-9.213zM2161.276 404.98h9.213v4.606h-9.213z"/><text font-family="Futura" font-size="12.898" lengthAdjust="spacingAndGlyphs" textLength="25.795" x="2175.095" y="401.63">Cost</text><path fill="#FEFECE" filter="url(#a)" stroke="#a80036" stroke-width="1.382" d="M2796.945 378.638h66.331v35.555h-66.331z"/><path fill="#FEFECE" stroke="#a80036" stroke-width="1.382" d="M2792.339 383.244h9.213v4.606h-9.213zM2792.339 404.98h9.213v4.606h-9.213z"/><text font-family="Futura" font-size="12.898" lengthAdjust="spacingAndGlyphs" textLength="47.906" x="2806.157" y="401.63">Delivery</text><path fill="#FEFECE" filter="url(#a)" stroke="#a80036" stroke-width="1.382" d="M2983.039 378.638h66.331v35.555h-66.331z"/><path fill="#FEFECE" stroke="#a80036" stroke-width="1.382" d="M2978.433 383.244h9.213v4.606h-9.213zM2978.433 404.98h9.213v4.606h-9.213z"/><text font-family="Futura" font-size="12.898" lengthAdjust="spacingAndGlyphs" textLength="47.906" x="2992.252" y="401.63">Disposal</text><path fill="#FEFECE" filter="url(#a)" stroke="#a80036" stroke-width="1.382" d="M2422.913 378.638h73.701v35.555h-73.701z"/><path fill="#FEFECE" stroke="#a80036" stroke-width="1.382" d="M2418.307 383.244h9.213v4.606h-9.213zM2418.307 404.98h9.213v4.606h-9.213z"/><text font-family="Futura" font-size="12.898" lengthAdjust="spacingAndGlyphs" textLength="55.276" x="2432.126" y="401.63">Estimated</text><path fill="#FEFECE" filter="url(#a)" stroke="#a80036" stroke-width="1.382" d="M2684.091 378.638h80.15v35.555h-80.15z"/><path fill="#FEFECE" stroke="#a80036" stroke-width="1.382" d="M2679.484 383.244h9.213v4.606h-9.213zM2679.484 404.98h9.213v4.606h-9.213z"/><text font-family="Futura" font-size="12.898" lengthAdjust="spacingAndGlyphs" textLength="61.724" x="2693.303" y="401.63">Milestones</text><path fill="#FEFECE" filter="url(#a)" stroke="#a80036" stroke-width="1.382" d="M2895.98 378.638h54.354v35.555h-54.354z"/><path fill="#FEFECE" stroke="#a80036" stroke-width="1.382" d="M2891.374 383.244h9.213v4.606h-9.213zM2891.374 404.98h9.213v4.606h-9.213z"/><text font-family="Futura" font-size="12.898" lengthAdjust="spacingAndGlyphs" textLength="35.929" x="2905.193" y="401.63">Scope</text><path fill="#FEFECE" filter="url(#a)" stroke="#a80036" stroke-width="1.382" d="M2242.347 378.638h77.386v35.555h-77.386z"/><path fill="#FEFECE" stroke="#a80036" stroke-width="1.382" d="M2237.74 383.244h9.213v4.606h-9.213zM2237.74 404.98h9.213v4.606h-9.213z"/><text font-family="Futura" font-size="12.898" lengthAdjust="spacingAndGlyphs" textLength="58.961" x="2251.559" y="401.63">Resources</text><path fill="#FEFECE" filter="url(#a)" stroke="#a80036" stroke-width="1.382" d="M3247.441 378.638h40.535v35.555h-40.535z"/><path fill="#FEFECE" stroke="#a80036" stroke-width="1.382" d="M3242.835 383.244h9.213v4.606h-9.213zM3242.835 404.98h9.213v4.606h-9.213z"/><text font-family="Futura" font-size="12.898" lengthAdjust="spacingAndGlyphs" textLength="22.11" x="3256.653" y="401.63">Risk</text><path fill="#FEFECE" filter="url(#a)" stroke="#a80036" stroke-width="1.382" d="M2610.85 378.638h40.535v35.555h-40.535z"/><path fill="#FEFECE" stroke="#a80036" stroke-width="1.382" d="M2606.244 383.244h9.213v4.606h-9.213zM2606.244 404.98h9.213v4.606h-9.213z"/><text font-family="Futura" font-size="12.898" lengthAdjust="spacingAndGlyphs" textLength="22.11" x="2620.063" y="401.63">SBS</text><path fill="#FEFECE" filter="url(#a)" stroke="#a80036" stroke-width="1.382" d="M2061.78 378.638h71.858v35.555h-71.858z"/><path fill="#FEFECE" stroke="#a80036" stroke-width="1.382" d="M2057.173 383.244h9.213v4.606h-9.213zM2057.173 404.98h9.213v4.606h-9.213z"/><text font-family="Futura" font-size="12.898" lengthAdjust="spacingAndGlyphs" textLength="53.433" x="2070.992" y="401.63">Schedule</text><path fill="#FEFECE" filter="url(#a)" stroke="#a80036" stroke-width="1.382" d="M2528.858 378.638h49.748v35.555h-49.748z"/><path fill="#FEFECE" stroke="#a80036" stroke-width="1.382" d="M2524.252 383.244h9.213v4.606h-9.213zM2524.252 404.98h9.213v4.606h-9.213z"/><text font-family="Futura" font-size="12.898" lengthAdjust="spacingAndGlyphs" textLength="31.323" x="2538.071" y="401.63">Tasks</text><path fill="#FEFECE" filter="url(#a)" stroke="#a80036" stroke-width="1.382" d="M2351.976 378.638h38.693v35.555h-38.693z"/><path fill="#FEFECE" stroke="#a80036" stroke-width="1.382" d="M2347.37 383.244h9.213v4.606h-9.213zM2347.37 404.98h9.213v4.606h-9.213z"/><text font-family="Futura" font-size="12.898" lengthAdjust="spacingAndGlyphs" textLength="20.268" x="2361.189" y="401.63">WT</text><circle cx="2014.795" cy="387.85" fill="#FEFECE" filter="url(#a)" stroke="#a80036" stroke-width="1.843" r="11.055"/><path fill="#A80036" stroke="#a80036" stroke-width=".921" d="M2011.11 376.795l5.528-4.606-1.843 4.606 1.843 4.607-5.528-4.607z"/><text font-family="Futura" font-size="12.898" lengthAdjust="spacingAndGlyphs" textLength="29.48" x="2000.055" y="416.37">initial</text><circle cx="3111.095" cy="387.85" fill="#FEFECE" filter="url(#a)" stroke="#a80036" stroke-width="1.843" r="11.055"/><path fill="#A80036" stroke="#a80036" stroke-width=".921" d="M3107.41 376.795l5.527-4.606-1.842 4.606 1.842 4.607-5.528-4.607z"/><text font-family="Futura" font-size="12.898" lengthAdjust="spacingAndGlyphs" textLength="58.961" x="3081.614" y="416.37">integrated</text><circle cx="3194.008" cy="387.85" fill="#FEFECE" filter="url(#a)" stroke="#a80036" stroke-width="1.843" r="11.055"/><path fill="#A80036" stroke="#a80036" stroke-width=".921" d="M3190.323 376.795l5.527-4.606-1.842 4.606 1.842 4.607-5.527-4.607z"/><text font-family="Futura" font-size="12.898" lengthAdjust="spacingAndGlyphs" textLength="42.378" x="3172.819" y="416.37">verified</text><circle cx="3678.591" cy="387.85" fill="#FEFECE" filter="url(#a)" stroke="#a80036" stroke-width="1.843" r="11.055"/><path fill="#A80036" stroke="#a80036" stroke-width=".921" d="M3674.905 376.795l5.528-4.606-1.842 4.606 1.842 4.607-5.528-4.607z"/><text font-family="Futura" font-size="12.898" lengthAdjust="spacingAndGlyphs" textLength="53.433" x="3651.874" y="416.37">accepted</text><circle cx="3465.78" cy="387.85" fill="#FEFECE" filter="url(#a)" stroke="#a80036" stroke-width="1.843" r="11.055"/><path fill="#A80036" stroke="#a80036" stroke-width=".921" d="M3462.095 376.795l5.527-4.606-1.842 4.606 1.842 4.607-5.527-4.607z"/><text font-family="Futura" font-size="12.898" lengthAdjust="spacingAndGlyphs" textLength="146.48" x="3392.539" y="416.37">accepted, Tasks assigned</text><circle cx="3595.677" cy="387.85" fill="#FEFECE" filter="url(#a)" stroke="#a80036" stroke-width="1.843" r="11.055"/><path fill="#A80036" stroke="#a80036" stroke-width=".921" d="M3591.992 376.795l5.528-4.606-1.843 4.606 1.843 4.607-5.528-4.607z"/><text font-family="Futura" font-size="12.898" lengthAdjust="spacingAndGlyphs" textLength="47.906" x="3571.724" y="416.37">updated</text><circle cx="2748.118" cy="586.842" fill="#FEFECE" filter="url(#a)" stroke="#a80036" stroke-width="1.843" r="11.055"/><path fill="#A80036" stroke="#a80036" stroke-width=".921" d="M2744.433 575.787l5.528-4.606-1.843 4.606 1.843 4.607-5.528-4.607z"/><text font-family="Futura" font-size="12.898" lengthAdjust="spacingAndGlyphs" textLength="53.433" x="2721.402" y="615.362">delivered</text><circle cx="2662.441" cy="586.842" fill="#FEFECE" filter="url(#a)" stroke="#a80036" stroke-width="1.843" r="11.055"/><path fill="#A80036" stroke="#a80036" stroke-width=".921" d="M2658.756 575.787l5.528-4.606-1.843 4.606 1.843 4.607-5.528-4.607z"/><text font-family="Futura" font-size="12.898" lengthAdjust="spacingAndGlyphs" textLength="53.433" x="2635.724" y="615.362">accepted</text><circle cx="2878.016" cy="785.835" fill="#FEFECE" filter="url(#a)" stroke="#a80036" stroke-width="1.843" r="11.055"/><path fill="#A80036" stroke="#a80036" stroke-width=".921" d="M2874.33 774.78l5.528-4.607-1.842 4.606 1.842 4.607-5.527-4.606z"/><text font-family="Futura" font-size="12.898" lengthAdjust="spacingAndGlyphs" textLength="58.961" x="2848.535" y="814.354">recovered</text><circle cx="2704.819" cy="785.835" fill="#FEFECE" filter="url(#a)" stroke="#a80036" stroke-width="1.843" r="11.055"/><path fill="#A80036" stroke="#a80036" stroke-width=".921" d="M2701.134 774.78l5.527-4.607-1.842 4.606 1.842 4.607-5.527-4.606z"/><text font-family="Futura" font-size="12.898" lengthAdjust="spacingAndGlyphs" textLength="47.906" x="2680.866" y="814.354">updated</text><circle cx="2788.653" cy="785.835" fill="#FEFECE" filter="url(#a)" stroke="#a80036" stroke-width="1.843" r="11.055"/><path fill="#A80036" stroke="#a80036" stroke-width=".921" d="M2784.968 774.78l5.528-4.607-1.843 4.606 1.843 4.607-5.528-4.606z"/><text font-family="Futura" font-size="12.898" lengthAdjust="spacingAndGlyphs" textLength="55.276" x="2761.016" y="814.354">baselined</text><circle cx="2936.976" cy="172.736" fill="#FEFECE" filter="url(#a)" stroke="#a80036" stroke-width="1.843" r="11.055"/><path fill="#A80036" stroke="#a80036" stroke-width=".921" d="M2933.291 161.681l5.528-4.606-1.843 4.606 1.843 4.606-5.528-4.606z"/><text font-family="Futura" font-size="12.898" lengthAdjust="spacingAndGlyphs" textLength="29.48" x="2922.236" y="201.256">initial</text><circle cx="3010.677" cy="172.736" fill="#FEFECE" filter="url(#a)" stroke="#a80036" stroke-width="1.843" r="11.055"/><path fill="#A80036" stroke="#a80036" stroke-width=".921" d="M3006.992 161.681l5.528-4.606-1.843 4.606 1.843 4.606-5.528-4.606z"/><text font-family="Futura" font-size="12.898" lengthAdjust="spacingAndGlyphs" textLength="53.433" x="2983.961" y="201.256">reviewed</text><path fill="#FEFECE" filter="url(#a)" stroke="#a80036" stroke-width="1.382" d="M1354.713 378.638h170.433v35.555h-170.433z"/><path fill="#FEFECE" stroke="#a80036" stroke-width="1.382" d="M1350.106 383.244h9.213v4.606h-9.213zM1350.106 404.98h9.213v4.606h-9.213z"/><text font-family="Futura" font-size="12.898" lengthAdjust="spacingAndGlyphs" textLength="152.008" x="1363.925" y="401.63">Software System Elements</text><path fill="#FEFECE" filter="url(#a)" stroke="#a80036" stroke-width="1.382" d="M1141.441 378.638h180.567v35.555h-180.567z"/><path fill="#FEFECE" stroke="#a80036" stroke-width="1.382" d="M1136.835 383.244h9.213v4.606h-9.213zM1136.835 404.98h9.213v4.606h-9.213z"/><text font-family="Futura" font-size="12.898" lengthAdjust="spacingAndGlyphs" textLength="162.142" x="1150.653" y="401.63">System Elements (HW+SW)</text><circle cx="3056.74" cy="586.842" fill="#FEFECE" filter="url(#a)" stroke="#a80036" stroke-width="1.843" r="11.055"/><path fill="#A80036" stroke="#a80036" stroke-width=".921" d="M3053.055 575.787l5.528-4.606-1.843 4.606 1.843 4.607-5.528-4.607z"/><text font-family="Futura" font-size="12.898" lengthAdjust="spacingAndGlyphs" textLength="55.276" x="3029.102" y="615.362">submitted</text><circle cx="3219.803" cy="586.842" fill="#FEFECE" filter="url(#a)" stroke="#a80036" stroke-width="1.843" r="11.055"/><path fill="#A80036" stroke="#a80036" stroke-width=".921" d="M3216.118 575.787l5.528-4.606-1.843 4.606 1.843 4.607-5.528-4.607z"/><text font-family="Futura" font-size="12.898" lengthAdjust="spacingAndGlyphs" textLength="57.118" x="3191.244" y="615.362">evaluated</text><circle cx="3137.811" cy="586.842" fill="#FEFECE" filter="url(#a)" stroke="#a80036" stroke-width="1.843" r="11.055"/><path fill="#A80036" stroke="#a80036" stroke-width=".921" d="M3134.126 575.787l5.527-4.606-1.842 4.606 1.842 4.607-5.527-4.607z"/><text font-family="Futura" font-size="12.898" lengthAdjust="spacingAndGlyphs" textLength="41.457" x="3117.083" y="615.362">agreed</text><circle cx="3626.079" cy="586.842" fill="#FEFECE" filter="url(#a)" stroke="#a80036" stroke-width="1.843" r="11.055"/><path fill="#A80036" stroke="#a80036" stroke-width=".921" d="M3622.394 575.787l5.527-4.606-1.842 4.606 1.842 4.607-5.527-4.607z"/><text font-family="Futura" font-size="12.898" lengthAdjust="spacingAndGlyphs" textLength="29.48" x="3611.339" y="615.362">initial</text><circle cx="3554.22" cy="586.842" fill="#FEFECE" filter="url(#a)" stroke="#a80036" stroke-width="1.843" r="11.055"/><path fill="#A80036" stroke="#a80036" stroke-width=".921" d="M3550.535 575.787l5.528-4.606-1.843 4.606 1.843 4.607-5.528-4.607z"/><text font-family="Futura" font-size="12.898" lengthAdjust="spacingAndGlyphs" textLength="47.906" x="3530.268" y="615.362">updated</text><circle cx="3978.921" cy="387.85" fill="#FEFECE" filter="url(#a)" stroke="#a80036" stroke-width="1.843" r="11.055"/><path fill="#A80036" stroke="#a80036" stroke-width=".921" d="M3975.236 376.795l5.528-4.606-1.843 4.606 1.843 4.607-5.528-4.607z"/><text font-family="Futura" font-size="12.898" lengthAdjust="spacingAndGlyphs" textLength="29.48" x="3964.181" y="416.37">initial</text><circle cx="3861.921" cy="387.85" fill="#FEFECE" filter="url(#a)" stroke="#a80036" stroke-width="1.843" r="11.055"/><path fill="#A80036" stroke="#a80036" stroke-width=".921" d="M3858.236 376.795l5.528-4.606-1.843 4.606 1.843 4.607-5.528-4.607z"/><text font-family="Futura" font-size="12.898" lengthAdjust="spacingAndGlyphs" textLength="57.118" x="3833.362" y="416.37">evaluated</text><circle cx="190.701" cy="16.583" fill="#FEFECE" filter="url(#a)" stroke="#a80036" stroke-width="1.843" r="7.37"/><path d="M190.7 23.953v24.874m-11.976-17.504h23.953m-11.976 17.504l-11.977 13.819m11.977-13.82l11.976 13.82" fill="none" filter="url(#a)" stroke="#a80036" stroke-width="1.843"/><text font-family="Futura" font-size="12.898" lengthAdjust="spacingAndGlyphs" textLength="24.874" x="178.264" y="82.874">PJM</text><circle cx="250.583" cy="16.583" fill="#FEFECE" filter="url(#a)" stroke="#a80036" stroke-width="1.843" r="7.37"/><path d="M250.583 23.953v24.874m-11.977-17.504h23.953m-11.976 17.504l-11.977 13.819m11.977-13.82l11.976 13.82" fill="none" filter="url(#a)" stroke="#a80036" stroke-width="1.843"/><text font-family="Futura" font-size="12.898" lengthAdjust="spacingAndGlyphs" textLength="20.268" x="240.449" y="82.874">WT</text><circle cx="310.465" cy="16.583" fill="#FEFECE" filter="url(#a)" stroke="#a80036" stroke-width="1.843" r="7.37"/><path d="M310.465 23.953v24.874m-11.977-17.504h23.953m-11.976 17.504l-11.977 13.819m11.977-13.82l11.976 13.82" fill="none" filter="url(#a)" stroke="#a80036" stroke-width="1.843"/><text font-family="Futura" font-size="12.898" lengthAdjust="spacingAndGlyphs" textLength="22.11" x="299.409" y="82.874">SYS</text><circle cx="190.701" cy="151.087" fill="#FEFECE" filter="url(#a)" stroke="#a80036" stroke-width="1.843" r="7.37"/><path d="M190.7 158.457v24.874m-11.976-17.504h23.953m-11.976 17.504l-11.977 13.819m11.977-13.82l11.976 13.82" fill="none" filter="url(#a)" stroke="#a80036" stroke-width="1.843"/><text font-family="Futura" font-size="12.898" lengthAdjust="spacingAndGlyphs" textLength="30.402" x="175.5" y="217.378">ACQ</text><circle cx="252.425" cy="151.087" fill="#FEFECE" filter="url(#a)" stroke="#a80036" stroke-width="1.843" r="7.37"/><path d="M252.425 158.457v24.874m-11.976-17.504h23.953m-11.977 17.504L240.45 197.15m11.976-13.82l11.977 13.82" fill="none" filter="url(#a)" stroke="#a80036" stroke-width="1.843"/><text font-family="Futura" font-size="12.898" lengthAdjust="spacingAndGlyphs" textLength="23.953" x="240.449" y="217.378">DES</text><circle cx="312.307" cy="151.087" fill="#FEFECE" filter="url(#a)" stroke="#a80036" stroke-width="1.843" r="7.37"/><path d="M312.307 158.457v24.874m-11.976-17.504h23.952m-11.976 17.504l-11.976 13.819m11.976-13.82l11.976 13.82" fill="none" filter="url(#a)" stroke="#a80036" stroke-width="1.843"/><text font-family="Futura" font-size="12.898" lengthAdjust="spacingAndGlyphs" textLength="22.11" x="301.252" y="217.378">STK</text><path fill="#FEFECE" filter="url(#a)" stroke="#000" stroke-width="1.382" d="M2807.539 576.248h188.858v38.319h-188.858z"/><path fill="#FEFECE" stroke="#000" stroke-width="1.382" d="M2980.736 580.854v12.898h11.055v-7.37l-5.527-5.528h-5.528z"/><path stroke="#000" stroke-width="1.382" d="M2986.264 580.854v5.528M2991.791 586.382h-5.527"/><text font-family="Futura" font-size="12.898" lengthAdjust="spacingAndGlyphs" textLength="161.22" x="2816.752" y="602.004">Product Acceptance Record</text><path fill="#FEFECE" filter="url(#a)" stroke="#000" stroke-width="1.382" d="M3280.606 576.248h125.291v38.319h-125.291z"/><path fill="#FEFECE" stroke="#000" stroke-width="1.382" d="M3390.236 580.854v12.898h11.055v-7.37l-5.527-5.528h-5.528z"/><path stroke="#000" stroke-width="1.382" d="M3395.764 580.854v5.528M3401.291 586.382h-5.527"/><text font-family="Futura" font-size="12.898" lengthAdjust="spacingAndGlyphs" textLength="97.653" x="3289.819" y="602.004">Disposed System</text><path fill="#FEFECE" filter="url(#a)" stroke="#000" stroke-width="1.382" d="M3779.929 576.248h143.716v38.319h-143.716z"/><path fill="#FEFECE" stroke="#000" stroke-width="1.382" d="M3907.984 580.854v12.898h11.055v-7.37l-5.527-5.528h-5.528z"/><path stroke="#000" stroke-width="1.382" d="M3913.512 580.854v5.528M3919.039 586.382h-5.527"/><text font-family="Futura" font-size="12.898" lengthAdjust="spacingAndGlyphs" textLength="116.079" x="3789.142" y="602.004">Corrections Register</text><path fill="#FEFECE" filter="url(#a)" stroke="#000" stroke-width="1.382" d="M1557.39 377.256h76.465v38.319h-76.465z"/><path fill="#FEFECE" stroke="#000" stroke-width="1.382" d="M1618.193 381.862v12.898h11.055v-7.37l-5.528-5.528h-5.527z"/><path stroke="#000" stroke-width="1.382" d="M1623.72 381.862v5.528M1629.248 387.39h-5.528"/><text font-family="Futura" font-size="12.898" lengthAdjust="spacingAndGlyphs" textLength="48.827" x="1566.602" y="403.012">IVV Plan</text><path fill="#FEFECE" filter="url(#a)" stroke="#000" stroke-width="1.382" d="M1666.098 377.256h117v38.319h-117z"/><path fill="#FEFECE" stroke="#000" stroke-width="1.382" d="M1767.437 381.862v12.898h11.055v-7.37l-5.527-5.528h-5.528z"/><path stroke="#000" stroke-width="1.382" d="M1772.965 381.862v5.528M1778.492 387.39h-5.527"/><text font-family="Futura" font-size="12.898" lengthAdjust="spacingAndGlyphs" textLength="89.362" x="1675.311" y="403.012">IVV Procedures</text><path fill="#FEFECE" filter="url(#a)" stroke="#000" stroke-width="1.382" d="M341.327 377.256h214.654v38.319H341.327z"/><path fill="#FEFECE" stroke="#000" stroke-width="1.382" d="M540.319 381.862v12.898h11.055v-7.37l-5.528-5.528h-5.527z"/><path stroke="#000" stroke-width="1.382" d="M545.846 381.862v5.528M551.374 387.39h-5.528"/><text font-family="Futura" font-size="12.898" lengthAdjust="spacingAndGlyphs" textLength="187.016" x="350.539" y="403.012">Justification Document (initiated)</text><path fill="#FEFECE" filter="url(#a)" stroke="#000" stroke-width="1.382" d="M1815.342 377.256h152.008v38.319h-152.008z"/><path fill="#FEFECE" stroke="#000" stroke-width="1.382" d="M1951.689 381.862v12.898h11.055v-7.37l-5.527-5.528h-5.528z"/><path stroke="#000" stroke-width="1.382" d="M1957.216 381.862v5.528M1962.744 387.39h-5.528"/><text font-family="Futura" font-size="12.898" lengthAdjust="spacingAndGlyphs" textLength="124.37" x="1824.555" y="403.012">Maintenance Manual</text><path fill="#FEFECE" filter="url(#a)" stroke="#000" stroke-width="1.382" d="M2470.358 775.24h177.803v38.319h-177.803z"/><path fill="#FEFECE" stroke="#000" stroke-width="1.382" d="M2632.5 779.846v12.898h11.055v-7.37l-5.527-5.528h-5.528z"/><path stroke="#000" stroke-width="1.382" d="M2638.028 779.846v5.528M2643.555 785.374h-5.527"/><text font-family="Futura" font-size="12.898" lengthAdjust="spacingAndGlyphs" textLength="150.165" x="2479.571" y="800.996">Project Repository Backup</text><path fill="#FEFECE" filter="url(#a)" stroke="#000" stroke-width="1.382" d="M358.37 162.142h53.433v38.319H358.37z"/><path fill="#FEFECE" stroke="#000" stroke-width="1.382" d="M396.142 166.748v12.898h11.055v-7.37l-5.528-5.528h-5.527z"/><path stroke="#000" stroke-width="1.382" d="M401.669 166.748v5.528M407.197 172.276h-5.528"/><text font-family="Futura" font-size="12.898" lengthAdjust="spacingAndGlyphs" textLength="25.795" x="367.583" y="187.897">SDD</text><path fill="#FEFECE" filter="url(#a)" stroke="#000" stroke-width="1.382" d="M160.299 377.256h53.433v38.319h-53.433z"/><path fill="#FEFECE" stroke="#000" stroke-width="1.382" d="M198.07 381.862v12.898h11.056v-7.37l-5.528-5.528h-5.527z"/><path stroke="#000" stroke-width="1.382" d="M203.598 381.862v5.528M209.126 387.39h-5.528"/><text font-family="Futura" font-size="12.898" lengthAdjust="spacingAndGlyphs" textLength="25.795" x="169.512" y="403.012">StRS</text><path fill="#FEFECE" filter="url(#a)" stroke="#000" stroke-width="1.382" d="M245.976 377.256h62.646v38.319h-62.646z"/><path fill="#FEFECE" stroke="#000" stroke-width="1.382" d="M292.96 381.862v12.898h11.056v-7.37l-5.528-5.528h-5.527z"/><path stroke="#000" stroke-width="1.382" d="M298.488 381.862v5.528M304.016 387.39h-5.528"/><text font-family="Futura" font-size="12.898" lengthAdjust="spacingAndGlyphs" textLength="35.008" x="255.189" y="403.012">SysRS</text><path fill="#FEFECE" filter="url(#a)" stroke="#000" stroke-width="1.382" d="M5.528 377.256h57.118v38.319H5.528z"/><path fill="#FEFECE" stroke="#000" stroke-width="1.382" d="M46.984 381.862v12.898H58.04v-7.37l-5.527-5.528h-5.528z"/><path stroke="#000" stroke-width="1.382" d="M52.512 381.862v5.528M58.039 387.39h-5.527"/><text font-family="Futura" font-size="12.898" lengthAdjust="spacingAndGlyphs" textLength="29.48" x="14.74" y="403.012">SERS</text><path fill="#FEFECE" filter="url(#a)" stroke="#000" stroke-width="1.382" d="M588.224 377.256h69.094v38.319h-69.094z"/><path fill="#FEFECE" stroke="#000" stroke-width="1.382" d="M641.658 381.862v12.898h11.055v-7.37l-5.528-5.528h-5.527z"/><path stroke="#000" stroke-width="1.382" d="M647.185 381.862v5.528M652.713 387.39h-5.528"/><text font-family="Futura" font-size="12.898" lengthAdjust="spacingAndGlyphs" textLength="41.457" x="597.437" y="403.012">System</text><path fill="#FEFECE" filter="url(#a)" stroke="#000" stroke-width="1.382" d="M689.563 377.256h177.803v38.319H689.563z"/><path fill="#FEFECE" stroke="#000" stroke-width="1.382" d="M851.705 381.862v12.898h11.055v-7.37l-5.528-5.528h-5.527z"/><path stroke="#000" stroke-width="1.382" d="M857.232 381.862v5.528M862.76 387.39h-5.528"/><text font-family="Futura" font-size="12.898" lengthAdjust="spacingAndGlyphs" textLength="150.165" x="698.776" y="403.012">System Operations Guide</text><path fill="#FEFECE" filter="url(#a)" stroke="#000" stroke-width="1.382" d="M900.071 377.256h73.701v38.319h-73.701z"/><path fill="#FEFECE" stroke="#000" stroke-width="1.382" d="M958.11 381.862v12.898h11.055v-7.37l-5.527-5.528h-5.528z"/><path stroke="#000" stroke-width="1.382" d="M963.638 381.862v5.528M969.165 387.39h-5.527"/><text font-family="Futura" font-size="12.898" lengthAdjust="spacingAndGlyphs" textLength="46.063" x="909.284" y="403.012">Training</text><path fill="#FEFECE" filter="url(#a)" stroke="#000" stroke-width="1.382" d="M1006.476 377.256h102.26v38.319h-102.26z"/><path fill="#FEFECE" stroke="#000" stroke-width="1.382" d="M1093.075 381.862v12.898h11.055v-7.37l-5.528-5.528h-5.527z"/><path stroke="#000" stroke-width="1.382" d="M1098.602 381.862v5.528M1104.13 387.39h-5.528"/><text font-family="Futura" font-size="12.898" lengthAdjust="spacingAndGlyphs" textLength="74.622" x="1015.689" y="403.012">User Manual</text><path fill="#FEFECE" filter="url(#a)" stroke="#000" stroke-width="1.382" d="M444.508 162.142h135.425v38.319H444.508z"/><path fill="#FEFECE" stroke="#000" stroke-width="1.382" d="M564.272 166.748v12.898h11.055v-7.37l-5.528-5.528h-5.527z"/><path stroke="#000" stroke-width="1.382" d="M569.799 166.748v5.528M575.327 172.276h-5.528"/><text font-family="Futura" font-size="12.898" lengthAdjust="spacingAndGlyphs" textLength="107.787" x="453.721" y="187.897">Traceability Matrix</text><ellipse cx="2973.89" cy="47.12" fill="#FEFECE" filter="url(#a)" rx="54.878" ry="14.876" stroke="#a80036" stroke-width="1.382"/><text font-family="Futura" font-size="12.898" lengthAdjust="spacingAndGlyphs" textLength="73.701" x="2937.039" y="52.461">Review SoW</text><ellipse cx="3010.455" cy="297.154" fill="#FEFECE" filter="url(#a)" rx="92.825" ry="20.776" stroke="#a80036" stroke-width="1.382"/><text font-family="Futura" font-size="12.898" lengthAdjust="spacingAndGlyphs" textLength="158.457" x="2931.227" y="302.494">Define Delivery Instructions</text><ellipse cx="2337.043" cy="297.242" fill="#FEFECE" filter="url(#a)" rx="47.712" ry="14.876" stroke="#a80036" stroke-width="1.382"/><text font-family="Futura" font-size="12.898" lengthAdjust="spacingAndGlyphs" textLength="63.567" x="2305.26" y="302.583">Define SBS</text><ellipse cx="2628.151" cy="297.158" fill="#FEFECE" filter="url(#a)" rx="69.812" ry="16.174" stroke="#a80036" stroke-width="1.382"/><text font-family="Futura" font-size="12.898" lengthAdjust="spacingAndGlyphs" textLength="103.181" x="2576.56" y="302.498">Define Milestones</text><ellipse cx="2471.613" cy="297.242" fill="#FEFECE" filter="url(#a)" rx="54.227" ry="14.876" stroke="#a80036" stroke-width="1.382"/><text font-family="Futura" font-size="12.898" lengthAdjust="spacingAndGlyphs" textLength="72.779" x="2435.223" y="302.583">Define Tasks</text><ellipse cx="2220.024" cy="297.242" fill="#FEFECE" filter="url(#a)" rx="36.638" ry="14.876" stroke="#a80036" stroke-width="1.382"/><text font-family="Futura" font-size="12.898" lengthAdjust="spacingAndGlyphs" textLength="47.906" x="2196.071" y="302.583">Estimate</text><ellipse cx="1953.936" cy="296.911" fill="#FEFECE" filter="url(#a)" rx="70.881" ry="16.387" stroke="#a80036" stroke-width="1.382"/><text font-family="Futura" font-size="12.898" lengthAdjust="spacingAndGlyphs" textLength="105.945" x="1900.964" y="302.251">Identify Resources</text><ellipse cx="2104.043" cy="297.242" fill="#FEFECE" filter="url(#a)" rx="46.41" ry="14.876" stroke="#a80036" stroke-width="1.382"/><text font-family="Futura" font-size="12.898" lengthAdjust="spacingAndGlyphs" textLength="61.724" x="2073.181" y="302.583">Define WT</text><ellipse cx="2283.637" cy="495.973" fill="#FEFECE" filter="url(#a)" rx="64.322" ry="15.075" stroke="#a80036" stroke-width="1.382"/><text font-family="Futura" font-size="12.898" lengthAdjust="spacingAndGlyphs" textLength="88.441" x="2239.416" y="501.313">Schedule Tasks</text><ellipse cx="2128.937" cy="496.235" fill="#FEFECE" filter="url(#a)" rx="57.484" ry="14.876" stroke="#a80036" stroke-width="1.382"/><text font-family="Futura" font-size="12.898" lengthAdjust="spacingAndGlyphs" textLength="77.386" x="2090.244" y="501.575">Estimate Cost</text><ellipse cx="2469.736" cy="495.882" fill="#FEFECE" filter="url(#a)" rx="89.201" ry="20.051" stroke="#a80036" stroke-width="1.382"/><text font-family="Futura" font-size="12.898" lengthAdjust="spacingAndGlyphs" textLength="150.165" x="2394.653" y="501.222">Identify Risk Management</text><ellipse cx="3375.443" cy="296.911" fill="#FEFECE" filter="url(#a)" rx="91.612" ry="20.533" stroke="#a80036" stroke-width="1.382"/><text font-family="Futura" font-size="12.898" lengthAdjust="spacingAndGlyphs" textLength="155.693" x="3297.596" y="302.252">Identify Disposal Approach</text><ellipse cx="2807.833" cy="297.165" fill="#FEFECE" filter="url(#a)" rx="76.758" ry="17.563" stroke="#a80036" stroke-width="1.382"/><text font-family="Futura" font-size="12.898" lengthAdjust="spacingAndGlyphs" textLength="120.685" x="2747.49" y="302.505">Identify CM Strategy</text><ellipse cx="3193.913" cy="297.242" fill="#FEFECE" filter="url(#a)" rx="57.484" ry="14.876" stroke="#a80036" stroke-width="1.382"/><text font-family="Futura" font-size="12.898" lengthAdjust="spacingAndGlyphs" textLength="77.386" x="3155.22" y="302.583">Define Scope</text><ellipse cx="2644.888" cy="496.235" fill="#FEFECE" filter="url(#a)" rx="52.924" ry="14.876" stroke="#a80036" stroke-width="1.382"/><text font-family="Futura" font-size="12.898" lengthAdjust="spacingAndGlyphs" textLength="70.937" x="2609.42" y="501.575">Integrate PP</text><ellipse cx="3539.301" cy="297.242" fill="#FEFECE" filter="url(#a)" rx="39.895" ry="14.876" stroke="#a80036" stroke-width="1.382"/><text font-family="Futura" font-size="12.898" lengthAdjust="spacingAndGlyphs" textLength="52.512" x="3513.045" y="302.583">Verify PP</text><ellipse cx="3675.791" cy="296.915" fill="#FEFECE" filter="url(#a)" rx="63.992" ry="15.009" stroke="#a80036" stroke-width="1.382"/><text font-family="Futura" font-size="12.898" lengthAdjust="spacingAndGlyphs" textLength="87.52" x="3632.031" y="302.255">PP Acceptance</text><ellipse cx="3209.503" cy="695.057" fill="#FEFECE" filter="url(#a)" rx="92.42" ry="20.695" stroke="#a80036" stroke-width="1.382"/><text font-family="Futura" font-size="12.898" lengthAdjust="spacingAndGlyphs" textLength="157.535" x="3130.735" y="700.398">Establish Project Repository</text><ellipse cx="3826.786" cy="297.242" fill="#FEFECE" filter="url(#a)" rx="54.227" ry="14.876" stroke="#a80036" stroke-width="1.382"/><text font-family="Futura" font-size="12.898" lengthAdjust="spacingAndGlyphs" textLength="72.779" x="3790.396" y="302.583">Assign Tasks</text><ellipse cx="3981.568" cy="297.267" fill="#FEFECE" filter="url(#a)" rx="68.057" ry="15.822" stroke="#a80036" stroke-width="1.382"/><text font-family="Futura" font-size="12.898" lengthAdjust="spacingAndGlyphs" textLength="98.575" x="3932.281" y="302.608">Monitor Progress</text><ellipse cx="3219.787" cy="496.235" fill="#FEFECE" filter="url(#a)" rx="56.181" ry="14.876" stroke="#a80036" stroke-width="1.382"/><text font-family="Futura" font-size="12.898" lengthAdjust="spacingAndGlyphs" textLength="75.543" x="3182.016" y="501.575">Evaluate CRs</text><ellipse cx="3684.068" cy="495.996" fill="#FEFECE" filter="url(#a)" rx="80.56" ry="18.323" stroke="#a80036" stroke-width="1.382"/><text font-family="Futura" font-size="12.898" lengthAdjust="spacingAndGlyphs" textLength="129.898" x="3619.119" y="501.337">Conduct WT Meetings</text><ellipse cx="3489.532" cy="496.15" fill="#FEFECE" filter="url(#a)" rx="81.331" ry="18.477" stroke="#a80036" stroke-width="1.382"/><text font-family="Futura" font-size="12.898" lengthAdjust="spacingAndGlyphs" textLength="131.74" x="3423.662" y="501.491">Conduct STK Meetings</text><ellipse cx="1336.01" cy="496.227" fill="#FEFECE" filter="url(#a)" rx="93.231" ry="20.857" stroke="#a80036" stroke-width="1.382"/><text font-family="Futura" font-size="12.898" lengthAdjust="spacingAndGlyphs" textLength="159.378" x="1256.321" y="501.568">Configuration Management</text><ellipse cx="2578.554" cy="695.08" fill="#FEFECE" filter="url(#a)" rx="85.625" ry="19.336" stroke="#a80036" stroke-width="1.382"/><text font-family="Futura" font-size="12.898" lengthAdjust="spacingAndGlyphs" textLength="141.874" x="2507.617" y="700.42">Repository Management</text><ellipse cx="2718.45" cy="890.176" fill="#FEFECE" filter="url(#a)" rx="73.052" ry="16.821" stroke="#a80036" stroke-width="1.382"/><text font-family="Futura" font-size="12.898" lengthAdjust="spacingAndGlyphs" textLength="111.472" x="2662.713" y="895.516">Recover Repository</text><ellipse cx="4008.198" cy="496.15" fill="#FEFECE" filter="url(#a)" rx="69.812" ry="16.174" stroke="#a80036" stroke-width="1.382"/><text font-family="Futura" font-size="12.898" lengthAdjust="spacingAndGlyphs" textLength="103.181" x="3956.608" y="501.49">Evaluate Progress</text><ellipse cx="3851.66" cy="496.235" fill="#FEFECE" filter="url(#a)" rx="54.227" ry="14.876" stroke="#a80036" stroke-width="1.382"/><text font-family="Futura" font-size="12.898" lengthAdjust="spacingAndGlyphs" textLength="72.779" x="3815.27" y="501.575">Address Risk</text><ellipse cx="448.725" cy="297.242" fill="#FEFECE" filter="url(#a)" rx="28.169" ry="14.876" stroke="#a80036" stroke-width="1.382"/><text font-family="Futura" font-size="12.898" lengthAdjust="spacingAndGlyphs" textLength="35.929" x="430.76" y="302.583">Justify</text><ellipse cx="2875.132" cy="496.075" fill="#FEFECE" filter="url(#a)" rx="78.648" ry="17.941" stroke="#a80036" stroke-width="1.382"/><text font-family="Futura" font-size="12.898" lengthAdjust="spacingAndGlyphs" textLength="125.291" x="2812.486" y="501.415">Formalize Completion</text><ellipse cx="2768.228" cy="694.967" fill="#FEFECE" filter="url(#a)" rx="71.24" ry="16.459" stroke="#a80036" stroke-width="1.382"/><text font-family="Futura" font-size="12.898" lengthAdjust="spacingAndGlyphs" textLength="106.866" x="2714.795" y="700.307">Update Repository</text><ellipse cx="2004.798" cy="496.235" fill="#FEFECE" filter="url(#a)" rx="34.684" ry="14.876" stroke="#a80036" stroke-width="1.382"/><text font-family="Futura" font-size="12.898" lengthAdjust="spacingAndGlyphs" textLength="45.142" x="1982.227" y="501.575">Dispose</text><path d="M2943.428 157.94l25.052-91.44" fill="none" stroke="#a80036" stroke-width="1.843"/><path fill="#A80036" stroke="#a80036" stroke-width=".921" d="M2969.742 61.892l-5.745 7.023 4.528-2.58 2.58 4.528-1.363-8.97z"/><path d="M2977.911 61.892l25.029 91.355" fill="none" stroke="#a80036" stroke-width="1.843"/><path fill="#A80036" stroke="#a80036" stroke-width=".921" d="M3004.225 157.94l1.363-8.971-2.58 4.528-4.528-2.58 5.745 7.022z"/><path d="M3010.677 205.164v66.4" fill="none" stroke="#a80036" stroke-width="1.843"/><path fill="#A80036" stroke="#a80036" stroke-width=".921" d="M3010.677 276.18l3.685-8.292-3.685 3.685-3.685-3.685 3.685 8.291z"/><path d="M2951.788 313.293c-23.463 7.944-50.037 18.908-71.93 33.1-12.013 7.789-23.41 18.907-32.256 28.702" fill="none" stroke="#a80036" stroke-width="1.843"/><path fill="#A80036" stroke="#a80036" stroke-width=".921" d="M2844.462 378.635l8.259-3.758-5.202.312-.312-5.202-2.745 8.648z"/><path d="M400.737 200.917c7.465 7.776 17.075 15.895 27.649 20.185 190.072 77.125 1643.207 20.051 1845.283 55.276 9.73 1.696 20.013 4.554 29.407 7.614" fill="none" stroke="#a80036" stroke-width="1.843"/><path fill="#A80036" stroke="#a80036" stroke-width=".921" d="M2307.61 285.507l-6.697-6.122 2.328 4.663-4.663 2.327 9.032-.868z"/><path d="M2368.762 308.383c10.396 3.41 22.081 6.918 32.962 9.452 84.652 19.711 119.282-16.732 193.465 28.559 10.807 6.597 19.29 17.796 25.294 27.946" fill="none" stroke="#a80036" stroke-width="1.843"/><path fill="#A80036" stroke="#a80036" stroke-width=".921" d="M2622.903 378.609l-.884-9.03-1.388 5.023-5.023-1.388 7.295 5.395z"/><path d="M2630.614 378.462l-1.669-60.093" fill="none" stroke="#a80036" stroke-width="1.843"/><path fill="#A80036" stroke="#a80036" stroke-width=".921" d="M2628.81 313.536l-3.453 8.39 3.582-3.785 3.786 3.58-3.914-8.185z"/><path d="M2922.09 187.065l-252.558 94.615" fill="none" stroke="#a80036" stroke-width="1.843"/><path fill="#A80036" stroke="#a80036" stroke-width=".921" d="M2665.05 283.359l9.057.542-4.743-2.158 2.158-4.744-6.472 6.36z"/><path d="M2643.748 313.092l59.858 62.16" fill="none" stroke="#a80036" stroke-width="1.843"/><path fill="#A80036" stroke="#a80036" stroke-width=".921" d="M2706.865 378.637l-3.097-8.529-.098 5.21-5.21-.098 8.405 3.417z"/><path d="M2990.672 204.982c-6.502 6.213-14.174 12.256-22.373 16.12-172.55 81.323-238.93 16.124-425.622 55.276-10.236 2.147-21.146 5.028-31.262 7.958" fill="none" stroke="#a80036" stroke-width="1.843"/><path fill="#A80036" stroke="#a80036" stroke-width=".921" d="M2506.828 285.684l8.994 1.198-4.575-2.497 2.497-4.574-6.916 5.873z"/><path d="M2621.69 378.576c-6.3-10.576-15.45-23.52-26.501-32.182-13.59-10.651-53.472-25.691-84.266-36.35" fill="none" stroke="#a80036" stroke-width="1.843"/><path fill="#A80036" stroke="#a80036" stroke-width=".921" d="M2506.45 308.505l6.64 6.183-2.285-4.684 4.684-2.285-9.04.786z"/><path d="M2484.153 311.707c8.277 9.775 19.373 22.952 29.044 34.687 7.605 9.229 15.916 19.491 23.022 28.32" fill="none" stroke="#a80036" stroke-width="1.843"/><path fill="#A80036" stroke="#a80036" stroke-width=".921" d="M2539.185 378.404l-2.323-8.771-.563 5.181-5.181-.563 8.067 4.153z"/><path d="M2543.996 378.46c-7.015-11.185-17.564-24.747-30.8-32.066-93.82-51.882-135.501-2.62-239.527-28.56-7.995-1.993-16.409-4.866-24.134-7.84" fill="none" stroke="#a80036" stroke-width="1.843"/><path fill="#A80036" stroke="#a80036" stroke-width=".921" d="M2244.824 308.135l6.36 6.47-2.075-4.78 4.78-2.075-9.065.385z"/><path d="M2245.496 307.857c8.81 3.494 18.83 7.186 28.173 9.978 58.171 17.38 79.924.158 133.583 28.559 13.205 6.989 25.433 18.26 34.76 28.354" fill="none" stroke="#a80036" stroke-width="1.843"/><path fill="#A80036" stroke="#a80036" stroke-width=".921" d="M2445.314 378.403l-2.823-8.623-.265 5.205-5.204-.265 8.292 3.683z"/><path d="M2990.835 205.345c-6.497 6.223-14.207 12.18-22.536 15.757-189.576 81.415-722.665 25.247-926.787 55.276-11.865 1.745-24.489 4.31-36.347 7.043" fill="none" stroke="#a80036" stroke-width="1.843"/><path fill="#A80036" stroke="#a80036" stroke-width=".921" d="M2000.486 284.518l8.914 1.696-4.429-2.747 2.747-4.429-7.232 5.48z"/><path d="M2002.45 309.309c12.67 2.99 26.342 6.042 39.062 8.526 81.73 15.954 110.169-7.617 185.173 28.559 14.034 6.769 26.971 18.394 36.7 28.754" fill="none" stroke="#a80036" stroke-width="1.843"/><path fill="#A80036" stroke="#a80036" stroke-width=".921" d="M2266.559 378.605l-2.894-8.6-.222 5.207-5.207-.222 8.323 3.615z"/><path d="M2264.756 378.575c-10.162-10.444-23.958-23.252-38.071-32.181-14.959-9.465-56.447-25.442-87.02-36.634" fill="none" stroke="#a80036" stroke-width="1.843"/><path fill="#A80036" stroke="#a80036" stroke-width=".921" d="M2135.237 308.146l6.526 6.303-2.198-4.725 4.724-2.199-9.052.62z"/><path d="M2135.255 308.26c10.248 3.403 21.762 6.937 32.47 9.575 73.79 18.176 104.399-12.122 168.59 28.559 10.524 6.67 18.752 17.762 24.579 27.827" fill="none" stroke="#a80036" stroke-width="1.843"/><path fill="#A80036" stroke="#a80036" stroke-width=".921" d="M2363.244 378.455l-.802-9.038-1.434 5.01-5.01-1.433 7.245 5.461z"/><path d="M2532.816 414.792c-6.04 4.608-12.84 9.223-19.62 12.673-31.62 16.09-123.065 41.24-180.494 56.211" fill="none" stroke="#a80036" stroke-width="1.843"/><path fill="#A80036" stroke="#a80036" stroke-width=".921" d="M2327.942 484.914l8.952 1.48-4.494-2.64 2.639-4.493-7.097 5.653z"/><path d="M2429.291 414.678a2320.868 2320.868 0 01-22.039 12.787c-31.796 18.178-68.512 38.508-93.583 52.29" fill="none" stroke="#a80036" stroke-width="1.843"/><path fill="#A80036" stroke="#a80036" stroke-width=".921" d="M2309.438 482.08l9.041-.763-5.004-1.455 1.455-5.005-5.492 7.222z"/><path d="M2355.474 414.62l-55.458 63.047" fill="none" stroke="#a80036" stroke-width="1.843"/><path fill="#A80036" stroke="#a80036" stroke-width=".921" d="M2296.963 481.137l8.243-3.792-5.2.334-.333-5.201-2.71 8.66z"/><path d="M2255.931 482.355c-27.192-13.543-69.617-35.032-105.71-54.89-5.947-3.272-12.213-6.844-18.265-10.359" fill="none" stroke="#a80036" stroke-width="1.843"/><path fill="#A80036" stroke="#a80036" stroke-width=".921" d="M2127.808 414.686l5.305 7.361-1.326-5.04 5.04-1.326-9.019-.995z"/><path d="M2103.381 414.62l19.418 61.68" fill="none" stroke="#a80036" stroke-width="1.843"/><path fill="#A80036" stroke="#a80036" stroke-width=".921" d="M2124.322 481.137l1.024-9.015-2.408 4.622-4.621-2.409 6.005 6.802z"/><path d="M2253.512 414.62l-99.36 65.036" fill="none" stroke="#a80036" stroke-width="1.843"/><path fill="#A80036" stroke="#a80036" stroke-width=".921" d="M2150.233 482.221l8.956-1.458-5.102-1.065 1.065-5.101-4.919 7.624z"/><path d="M2137.712 481.45l37.119-62.638" fill="none" stroke="#a80036" stroke-width="1.843"/><path fill="#A80036" stroke="#a80036" stroke-width=".921" d="M2177.315 414.62l-7.397 5.255 5.048-1.292 1.292 5.049 1.057-9.012z"/><path d="M2207.42 414.57c5.863 4.716 12.538 9.442 19.265 12.895 30.671 15.74 115.342 38.02 176.154 52.879" fill="none" stroke="#a80036" stroke-width="1.843"/><path fill="#A80036" stroke="#a80036" stroke-width=".921" d="M2407.542 481.49l-7.183-5.543 2.708 4.452-4.453 2.708 8.928-1.617z"/><path d="M2804.66 414.676c-7.546 4.718-16.013 9.418-24.298 12.789-21.955 8.932-154.196 36.773-238.858 54.129" fill="none" stroke="#a80036" stroke-width="1.843"/><path fill="#A80036" stroke="#a80036" stroke-width=".921" d="M2536.755 482.567l8.862 1.946-4.35-2.87 2.871-4.35-7.383 5.274z"/><path d="M2461.599 414.62l5.744 56.397" fill="none" stroke="#a80036" stroke-width="1.843"/><path fill="#A80036" stroke="#a80036" stroke-width=".921" d="M2467.832 475.816l2.825-8.622-3.292 4.04-4.04-3.293 4.507 7.875z"/><path d="M2693.428 414.699c-8.14 4.454-17.016 9.016-25.46 12.766-45.638 20.265-99.255 38.524-139.187 51.105" fill="none" stroke="#a80036" stroke-width="1.843"/><path fill="#A80036" stroke="#a80036" stroke-width=".921" d="M2524.226 479.999l9.015 1.034-4.62-2.413 2.413-4.62-6.808 5.999z"/><path d="M2312.796 414.58c7.672 4.275 15.866 8.784 23.519 12.885 30.759 16.482 65.868 34.49 92.371 47.923" fill="none" stroke="#a80036" stroke-width="1.843"/><path fill="#A80036" stroke="#a80036" stroke-width=".921" d="M2432.864 477.504l-5.732-7.034 1.622 4.952-4.952 1.623 9.062.459z"/><path d="M2611.57 414.675c-5.158 4.407-10.837 8.952-16.381 12.79-26.219 18.146-57.702 35.376-82.55 48.033" fill="none" stroke="#a80036" stroke-width="1.843"/><path fill="#A80036" stroke="#a80036" stroke-width=".921" d="M2508.395 477.648l9.062-.46-4.953-1.622 1.622-4.952-5.73 7.034z"/><path d="M2124.668 414.668c7.967 4.717 16.881 9.42 25.552 12.797 22.832 8.892 160.284 37.01 247.358 54.375" fill="none" stroke="#a80036" stroke-width="1.843"/><path fill="#A80036" stroke="#a80036" stroke-width=".921" d="M2402.202 482.762l-7.41-5.235 2.893 4.335-4.334 2.893 8.851-1.993z"/><path d="M2538.55 414.62l-48.564 57.637" fill="none" stroke="#a80036" stroke-width="1.843"/><path fill="#A80036" stroke="#a80036" stroke-width=".921" d="M2486.694 476.165l8.16-3.966-5.192.443-.444-5.192-2.524 8.715z"/><path d="M2389.174 414.62l57.544 58.082" fill="none" stroke="#a80036" stroke-width="1.843"/><path fill="#A80036" stroke="#a80036" stroke-width=".921" d="M2450.149 476.165l-3.218-8.484-.024 5.212-5.212-.025 8.454 3.297z"/><path d="M2534.97 482.088c13.463-2.538 27.59-4.94 40.873-6.718 144.86-19.39 520.831 7.835 655.937-47.905 5.572-2.3 10.9-5.813 15.666-9.656" fill="none" stroke="#a80036" stroke-width="1.843"/><path fill="#A80036" stroke="#a80036" stroke-width=".921" d="M3250.975 414.82l-8.708 2.546 5.193.43-.43 5.194 3.945-8.17z"/><path d="M3037.503 189.99l280.136 88.78" fill="none" stroke="#a80036" stroke-width="1.843"/><path fill="#A80036" stroke="#a80036" stroke-width=".921" d="M3322.113 280.188l-6.79-6.018 2.399 4.626-4.627 2.4 9.018-1.008z"/><path d="M3306.586 310.883c-12.9 2.43-26.284 4.85-38.877 6.952-89.329 14.902-120.822-12.077-201.756 28.559-13.186 6.62-24.96 18.097-33.739 28.408" fill="none" stroke="#a80036" stroke-width="1.843"/><path fill="#A80036" stroke="#a80036" stroke-width=".921" d="M3029.118 378.537l8.129-4.031-5.19.485-.484-5.189-2.455 8.735z"/><path d="M2640.758 378.415c6.45-10.635 15.833-23.585 27.21-32.021 22.996-17.051 52.398-28.585 78.319-36.178" fill="none" stroke="#a80036" stroke-width="1.843"/><path fill="#A80036" stroke="#a80036" stroke-width=".921" d="M2750.748 308.937l-8.985-1.258 4.557 2.527-2.527 4.558 6.955-5.827z"/><path d="M2860.186 310.04c13.535 2.962 28.142 5.817 41.782 7.795 88.762 12.867 324.326-15.245 402.591 28.559 11.23 6.285 19.83 17.718 25.795 28.089" fill="none" stroke="#a80036" stroke-width="1.843"/><path fill="#A80036" stroke="#a80036" stroke-width=".921" d="M3332.59 378.542l-.773-9.04-1.45 5.005-5.005-1.449 7.229 5.484z"/><path d="M3037.728 198.548l130.5 82.3" fill="none" stroke="#a80036" stroke-width="1.843"/><path fill="#A80036" stroke="#a80036" stroke-width=".921" d="M3172.3 283.416l-5.048-7.54 1.152 5.083-5.083 1.151 8.979 1.306z"/><path d="M3156.304 308.411c-11.5 3.259-24.218 6.673-35.997 9.424-67.332 15.722-92.811-5.598-152.929 28.559-11.947 6.788-22.296 18.023-29.971 28.147" fill="none" stroke="#a80036" stroke-width="1.843"/><path fill="#A80036" stroke="#a80036" stroke-width=".921" d="M2934.494 378.5l7.881-4.495-5.152.785-.784-5.152-1.945 8.863z"/><path d="M3323.738 414.78c-5.596 4.96-12.2 9.767-19.179 12.685-239.18 99.984-325.836 3.92-581.315 47.905-12.357 2.128-25.606 5.288-37.627 8.503" fill="none" stroke="#a80036" stroke-width="1.843"/><path fill="#A80036" stroke="#a80036" stroke-width=".921" d="M2680.9 485.154l8.968 1.383-4.522-2.59 2.59-4.522-7.035 5.729z"/><path d="M2206.734 414.861c5.95 4.84 12.843 9.558 19.951 12.604 143.975 61.69 196.092 14.655 349.158 47.905 9.976 2.167 20.604 5.056 30.458 7.987" fill="none" stroke="#a80036" stroke-width="1.843"/><path fill="#A80036" stroke="#a80036" stroke-width=".921" d="M2610.769 484.704l-6.874-5.922 2.464 4.592-4.592 2.464 9.002-1.134z"/><path d="M2801.95 414.656c-6.984 4.316-14.5 8.824-21.588 12.809-35.113 19.74-76.565 40.371-104.274 53.794" fill="none" stroke="#a80036" stroke-width="1.843"/><path fill="#A80036" stroke="#a80036" stroke-width=".921" d="M2671.762 483.35l9.068-.29-4.921-1.714 1.714-4.922-5.861 6.926z"/><path d="M2991.06 414.64c-7.608 4.773-16.186 9.512-24.603 12.825-102.52 40.34-135.859 23.15-243.213 47.905-11.735 2.706-24.38 5.92-36.015 9.002" fill="none" stroke="#a80036" stroke-width="1.843"/><path fill="#A80036" stroke="#a80036" stroke-width=".921" d="M2682.653 485.59l8.96 1.427-4.509-2.612 2.613-4.51-7.064 5.695z"/><path d="M2490.433 414.621c7.417 4.273 15.345 8.771 22.764 12.844 34.656 19.024 75.047 39.875 101.877 53.544" fill="none" stroke="#a80036" stroke-width="1.843"/><path fill="#A80036" stroke="#a80036" stroke-width=".921" d="M2619.26 483.14l-5.717-7.046 1.613 4.956-4.956 1.613 9.06.476z"/><path d="M2709.818 414.62l-50.097 62.912" fill="none" stroke="#a80036" stroke-width="1.843"/><path fill="#A80036" stroke="#a80036" stroke-width=".921" d="M2656.601 481.45l8.048-4.19-5.178.587-.587-5.179-2.283 8.782z"/><path d="M2900.684 414.771c-6.453 4.608-13.683 9.228-20.826 12.694-17.44 8.462-129.4 39.738-192.254 57" fill="none" stroke="#a80036" stroke-width="1.843"/><path fill="#A80036" stroke="#a80036" stroke-width=".921" d="M2682.794 485.786l8.97 1.36-4.528-2.58 2.578-4.528-7.02 5.748z"/><path d="M2309.486 414.708c8.387 4.717 17.754 9.41 26.829 12.757 101.86 37.563 134.19 21.632 239.528 47.905 9.607 2.396 19.87 5.29 29.468 8.144" fill="none" stroke="#a80036" stroke-width="1.843"/><path fill="#A80036" stroke="#a80036" stroke-width=".921" d="M2609.963 484.91l-6.882-5.912 2.47 4.588-4.588 2.47 9-1.146z"/><path d="M3250.938 414.73c-5.597 4.958-12.196 9.776-19.159 12.735-208.936 88.78-285.04 8.078-508.535 47.905-12.345 2.2-25.59 5.382-37.61 8.595" fill="none" stroke="#a80036" stroke-width="1.843"/><path fill="#A80036" stroke="#a80036" stroke-width=".921" d="M2680.916 485.244l8.967 1.387-4.52-2.592 2.592-4.521-7.039 5.726z"/><path d="M2633.62 414.62l8.567 61.68" fill="none" stroke="#a80036" stroke-width="1.843"/><path fill="#A80036" stroke="#a80036" stroke-width=".921" d="M2642.86 481.137l2.508-8.72-3.143 4.158-4.157-3.143 4.791 7.705z"/><path d="M2123.386 414.584c8.227 4.954 17.605 9.805 26.834 12.88 180.594 60.19 239.124 9.757 425.623 47.906 10.108 2.068 20.865 4.951 30.808 7.911" fill="none" stroke="#a80036" stroke-width="1.843"/><path fill="#A80036" stroke="#a80036" stroke-width=".921" d="M2611.157 484.644l-6.87-5.928 2.46 4.594-4.593 2.46 9.003-1.126z"/><path d="M2570.249 414.62l58.371 63.678" fill="none" stroke="#a80036" stroke-width="1.843"/><path fill="#A80036" stroke="#a80036" stroke-width=".921" d="M2631.794 481.76l-2.887-8.602-.226 5.207-5.206-.227 8.319 3.622z"/><path d="M2389.2 414.604c5.441 4.717 11.678 9.434 18.052 12.86 68.61 36.885 93.819 26.068 168.59 47.906a4479.987 4479.987 0 0128.695 8.5" fill="none" stroke="#a80036" stroke-width="1.843"/><path fill="#A80036" stroke="#a80036" stroke-width=".921" d="M2609.105 485.24l-6.883-5.911 2.47 4.588-4.587 2.471 9-1.147z"/><path d="M2681.77 485.375c13.023-3.532 27.826-7.255 41.474-10.005 150.766-30.378 199.28 7.607 342.709-47.905 3.9-1.51 7.796-3.415 11.573-5.533" fill="none" stroke="#a80036" stroke-width="1.843"/><path fill="#A80036" stroke="#a80036" stroke-width=".921" d="M3081.571 419.558l-9.016 1.018 5.044 1.313-1.314 5.043 5.286-7.374z"/><path d="M3126.724 372.898c7.88-9.934 18.337-20.543 30.433-26.504 65.256-32.16 255.136-12.658 326.126-28.56 8.477-1.898 17.405-4.765 25.587-7.765" fill="none" stroke="#a80036" stroke-width="1.843"/><path fill="#A80036" stroke="#a80036" stroke-width=".921" d="M3513.332 308.393l-9.058-.534 4.745 2.154-2.154 4.745 6.467-6.365z"/><path d="M3513.015 308.356c-9.257 3.534-19.816 7.123-29.731 9.479-109.453 26-153.846-27.285-251.505 28.559-9.36 5.353-17.125 14.059-23.129 22.73" fill="none" stroke="#a80036" stroke-width="1.843"/><path fill="#A80036" stroke="#a80036" stroke-width=".921" d="M3206.016 373.094l7.655-4.871-5.108 1.032-1.033-5.108-1.514 8.947z"/><path d="M3205.918 372.92c6.279-9.93 14.961-20.542 25.861-26.526 71.105-39.036 283.894-15.18 363.898-28.56 11.514-1.925 23.789-4.715 35.184-7.627" fill="none" stroke="#a80036" stroke-width="1.843"/><path fill="#A80036" stroke="#a80036" stroke-width=".921" d="M3635.348 309.042l-8.951-1.484 4.493 2.641-2.642 4.493 7.1-5.65z"/><path d="M3037.662 184.962c83.446 10.935 344.543 46.598 558.015 91.416 10.954 2.3 22.66 5.118 33.648 7.928" fill="none" stroke="#a80036" stroke-width="1.843"/><path fill="#A80036" stroke="#a80036" stroke-width=".921" d="M3633.985 285.507l-7.108-5.638 2.648 4.488-4.488 2.648 8.948-1.498z"/><path d="M3676.259 312.653l1.545 55.648" fill="none" stroke="#a80036" stroke-width="1.843"/><path fill="#A80036" stroke="#a80036" stroke-width=".921" d="M3677.936 373.023l3.453-8.39-3.582 3.786-3.786-3.582 3.914 8.186z"/><path d="M3345.735 414.894c7.626 24.644 23.41 69.19 46.344 101.933 10.635 15.184 23.04 11.544 30.401 28.559 14.307 33.07 21.21 51.944 0 81.07-16.642 22.855-83.239 41.921-137.557 54.111" fill="none" stroke="#a80036" stroke-width="1.843"/><path fill="#A80036" stroke="#a80036" stroke-width=".921" d="M3280.373 681.579l8.893 1.797-4.397-2.797 2.797-4.397-7.293 5.397z"/><path d="M3161.411 712.878l-135.638 49.997-58.028 21.389-18.72 6.9-1.694.625" fill="none" stroke="#a80036" stroke-width="1.843"/><path fill="#A80036" stroke="#a80036" stroke-width=".921" d="M2947.331 791.789l9.054.59-4.732-2.183 2.183-4.733-6.505 6.326z"/><path d="M3705.569 378.505l96.575-64.783" fill="none" stroke="#a80036" stroke-width="1.843"/><path fill="#A80036" stroke="#a80036" stroke-width=".921" d="M3806.29 310.94l-8.939 1.56 5.113 1.007-1.007 5.113 4.833-7.68z"/><path d="M3791.807 308.439c-11.347 3.373-24.043 6.845-35.83 9.396-87.723 18.981-114.852-.076-199.914 28.559-17.401 5.858-35.323 15.06-50.567 23.995" fill="none" stroke="#a80036" stroke-width="1.843"/><path fill="#A80036" stroke="#a80036" stroke-width=".921" d="M3501.27 372.899l9.011-1.066-5.05-1.287 1.286-5.05-5.246 7.403z"/><path d="M3705.556 386.474c28.095-10.444 73.46-27.003 113.066-40.08 38.678-12.77 82.936-26.066 115.574-35.625" fill="none" stroke="#a80036" stroke-width="1.843"/><path fill="#A80036" stroke="#a80036" stroke-width=".921" d="M3938.926 309.386l-8.993-1.21 4.571 2.503-2.503 4.571 6.925-5.864z"/><path d="M3981.241 313.092l-1.524 54.866" fill="none" stroke="#a80036" stroke-width="1.843"/><path fill="#A80036" stroke="#a80036" stroke-width=".921" d="M3979.58 372.86l3.915-8.186-3.786 3.581-3.581-3.786 3.453 8.39z"/><path d="M3073.76 571.972c7.533-9.211 16.997-19.288 27.2-26.586 23.09-16.516 52.543-28.78 76.351-36.944" fill="none" stroke="#a80036" stroke-width="1.843"/><path fill="#A80036" stroke="#a80036" stroke-width=".921" d="M3181.689 506.965l-9.035-.841 4.67 2.313-2.314 4.67 6.679-6.142z"/><path d="M3651.668 419.002c-4.914 3.255-10.166 6.249-15.455 8.463-32.883 13.763-256.406 46.263-361.724 61.06" fill="none" stroke="#a80036" stroke-width="1.843"/><path fill="#A80036" stroke="#a80036" stroke-width=".921" d="M3269.871 489.173l8.723 2.496-4.161-3.137 3.137-4.161-7.699 4.802z"/><path d="M3219.803 511.21v55.833" fill="none" stroke="#a80036" stroke-width="1.843"/><path fill="#A80036" stroke="#a80036" stroke-width=".921" d="M3219.803 571.802l3.685-8.291-3.685 3.685-3.685-3.685 3.685 8.291z"/><path d="M3639.88 571.936l30.932-53.028" fill="none" stroke="#a80036" stroke-width="1.843"/><path fill="#A80036" stroke="#a80036" stroke-width=".921" d="M3673.337 514.58l-7.36 5.305 5.04-1.327 1.326 5.04.994-9.018z"/><path d="M3679.9 420.182l2.93 52.732" fill="none" stroke="#a80036" stroke-width="1.843"/><path fill="#A80036" stroke="#a80036" stroke-width=".921" d="M3683.094 477.659l3.219-8.483-3.475 3.884-3.884-3.475 4.14 8.074z"/><path d="M3647.32 512.71c-16.686 8.478-36.11 19.739-51.643 32.676-7.912 6.59-15.443 14.848-21.861 22.752" fill="none" stroke="#a80036" stroke-width="1.843"/><path fill="#A80036" stroke="#a80036" stroke-width=".921" d="M3570.757 571.98l8.047-4.192-5.178.588-.589-5.178-2.28 8.782z"/><path d="M3615.097 572.04c-5.171-9.202-12.043-19.289-20.341-26.654-15.55-13.801-35.635-24.486-54.07-32.324" fill="none" stroke="#a80036" stroke-width="1.843"/><path fill="#A80036" stroke="#a80036" stroke-width=".921" d="M3536.287 511.232l6.24 6.587-1.987-4.817 4.818-1.987-9.07.217z"/><path d="M3651.756 417.317c-5.05 3.56-10.372 7.091-15.543 10.148-33.068 19.544-72.613 37.795-102.276 50.557" fill="none" stroke="#a80036" stroke-width="1.843"/><path fill="#A80036" stroke="#a80036" stroke-width=".921" d="M3529.634 479.864l9.073.124-4.838-1.937 1.937-4.838-6.172 6.651z"/><path d="M3963.919 404.397c-14.257 7.079-36.484 17.271-56.856 23.068-138.18 39.316-178.306 22.333-319.677 47.905-11.292 2.043-23.276 4.415-34.837 6.81" fill="none" stroke="#a80036" stroke-width="1.843"/><path fill="#A80036" stroke="#a80036" stroke-width=".921" d="M3547.97 483.135l8.868 1.916-4.36-2.856 2.857-4.36-7.365 5.3z"/><path d="M3235.814 572.077c7.726-9.65 17.785-20.086 29.13-26.691 25.525-14.858 96.54-28.993 151.99-38.285" fill="none" stroke="#a80036" stroke-width="1.843"/><path fill="#A80036" stroke="#a80036" stroke-width=".921" d="M3421.572 506.329l-8.784-2.274 4.24 3.03-3.03 4.24 7.574-4.996z"/><path d="M3417.033 504.589c-86.282 10.528-221.098 28.577-241.45 40.797-9.164 5.502-16.847 14.149-22.84 22.726" fill="none" stroke="#a80036" stroke-width="1.843"/><path fill="#A80036" stroke="#a80036" stroke-width=".921" d="M3150.11 572.037l7.68-4.831-5.114 1.006-1.006-5.113-1.56 8.938z"/><path d="M3509.081 477.927l58.927-55.34" fill="none" stroke="#a80036" stroke-width="1.843"/><path fill="#A80036" stroke="#a80036" stroke-width=".921" d="M3571.637 419.18l-8.567 2.99 5.209.163-.164 5.209 3.522-8.362z"/><path d="M3501.56 514.348l34.508 53.24" fill="none" stroke="#a80036" stroke-width="1.843"/><path fill="#A80036" stroke="#a80036" stroke-width=".921" d="M3538.815 571.826l-1.418-8.962-1.088 5.097-5.096-1.088 7.602 4.953z"/><path d="M1999.878 415.32c-4.733 4.728-10.332 9.272-16.406 12.145-95.094 44.976-394.104 60.83-550.36 66.136" fill="none" stroke="#a80036" stroke-width="1.843"/><path fill="#A80036" stroke="#a80036" stroke-width=".921" d="M1428.3 493.762l8.411 3.405-3.806-3.56 3.559-3.806-8.163 3.961z"/><path d="M209.49 416.168c6.342 4.493 13.516 8.706 20.825 11.297 93.596 33.174 755.863 57.496 1008.196 65.654" fill="none" stroke="#a80036" stroke-width="1.843"/><path fill="#A80036" stroke="#a80036" stroke-width=".921" d="M1243.297 493.273l-8.168-3.95 3.564 3.802-3.802 3.564 8.406-3.416z"/><path d="M302.183 415.975c7.077 4.553 15.04 8.844 23.022 11.49 85.225 28.248 677.612 55.104 913.768 64.813" fill="none" stroke="#a80036" stroke-width="1.843"/><path fill="#A80036" stroke="#a80036" stroke-width=".921" d="M1243.798 492.476l-8.133-4.023 3.53 3.834-3.833 3.53 8.436-3.341z"/><path d="M62.077 416.039c7.893 4.552 16.715 8.827 25.443 11.426 109.025 32.457 876.607 57.782 1151.044 65.89" fill="none" stroke="#a80036" stroke-width="1.843"/><path fill="#A80036" stroke="#a80036" stroke-width=".921" d="M1243.365 493.496l-8.18-3.928 3.575 3.792-3.792 3.575 8.397-3.439z"/><path d="M365.51 201.235c-6.95 6.613-14.991 13.833-22.801 19.867-82.426 63.69-147.822 34.048-198.071 125.292-17.382 31.562-24.735 54.87 0 81.07 37.34 39.555 815.531 60.41 1093.54 66.62" fill="none" stroke="#a80036" stroke-width="1.843"/><path fill="#A80036" stroke="#a80036" stroke-width=".921" d="M1243.04 494.192l-8.206-3.87 3.602 3.767-3.766 3.602 8.37-3.5z"/><path d="M649.817 416.094c7.349 4.435 15.523 8.64 23.624 11.37 102.518 34.563 409.163 55.272 566.679 63.912" fill="none" stroke="#a80036" stroke-width="1.843"/><path fill="#A80036" stroke="#a80036" stroke-width=".921" d="M1244.736 491.628l-8.078-4.132 3.479 3.88-3.88 3.48 8.48-3.228z"/><path d="M1250.576 414.62l60.41 57.737" fill="none" stroke="#a80036" stroke-width="1.843"/><path fill="#A80036" stroke="#a80036" stroke-width=".921" d="M1314.605 475.816l-3.448-8.393.118 5.21-5.21.118 8.54 3.065z"/><path d="M1421.077 414.62l-60.41 57.737" fill="none" stroke="#a80036" stroke-width="1.843"/><path fill="#A80036" stroke="#a80036" stroke-width=".921" d="M1357.048 475.816l8.54-3.065-5.21-.118.118-5.21-3.448 8.393z"/><path d="M1563.105 416.069c-7.354 4.03-15.22 8.06-22.758 11.396-46.432 20.54-101.037 38.572-142.141 50.992" fill="none" stroke="#a80036" stroke-width="1.843"/><path fill="#A80036" stroke="#a80036" stroke-width=".921" d="M1393.768 479.793l9.001 1.14-4.59-2.467 2.467-4.59-6.878 5.917z"/><path d="M1681.277 416.034c-10.144 4.125-21 8.203-31.3 11.43-78.557 24.613-170.848 43.644-234.985 55.357" fill="none" stroke="#a80036" stroke-width="1.843"/><path fill="#A80036" stroke="#a80036" stroke-width=".921" d="M1410.423 483.651l8.817 2.143-4.285-2.967 2.966-4.284-7.498 5.108z"/><path d="M840.013 416.026c14.468 4.149 29.898 8.24 44.396 11.439 125.035 27.589 271.997 47.686 363.44 58.762" fill="none" stroke="#a80036" stroke-width="1.843"/><path fill="#A80036" stroke="#a80036" stroke-width=".921" d="M1252.432 486.78l-7.79-4.651 3.217 4.1-4.1 3.217 8.673-2.665z"/><path d="M1099.335 416.07c8.957 3.945 18.42 7.939 27.366 11.395 49.353 19.062 106.493 37.581 148.56 50.568" fill="none" stroke="#a80036" stroke-width="1.843"/><path fill="#A80036" stroke="#a80036" stroke-width=".921" d="M1279.799 479.43l-6.84-5.962 2.437 4.607-4.606 2.437 9.009-1.081z"/><path d="M1838.71 416.009c-12.797 4.223-26.53 8.35-39.49 11.456-127.748 30.605-278.767 49.913-372.835 59.995" fill="none" stroke="#a80036" stroke-width="1.843"/><path fill="#A80036" stroke="#a80036" stroke-width=".921" d="M1421.67 487.963l8.636 2.785-4.055-3.274 3.273-4.055-7.854 4.544z"/><path d="M966.588 416.026c7.52 4.274 15.745 8.42 23.766 11.439 84.143 31.666 185.584 49.597 256.702 59.125" fill="none" stroke="#a80036" stroke-width="1.843"/><path fill="#A80036" stroke="#a80036" stroke-width=".921" d="M1251.697 487.206l-7.735-4.744 3.168 4.138-4.137 3.168 8.704-2.562z"/><path d="M3126.62 571.917c-6.082-10.059-14.637-20.775-25.66-26.531-56.5-29.506-1083.255-26.698-1146.968-28.56-184.524-5.39-399.99-12.888-521.625-17.233" fill="none" stroke="#a80036" stroke-width="1.843"/><path fill="#A80036" stroke="#a80036" stroke-width=".921" d="M1427.722 499.427l8.154 3.98-3.551-3.815 3.814-3.55-8.417 3.385z"/><path d="M3833.118 404.53c-28.474 7.44-73.408 18.126-113.07 22.935-389.747 47.255-1373.635 36.004-1766.056 47.905-184.518 5.596-399.985 13.024-521.623 17.3" fill="none" stroke="#a80036" stroke-width="1.843"/><path fill="#A80036" stroke="#a80036" stroke-width=".921" d="M1427.724 492.833l8.415 3.391-3.812-3.553 3.553-3.812-8.157 3.974z"/><path d="M1423.708 502.996l688.468 54.037 337.936 26.524 108.09 8.484 31.413 2.465 5.137.403c.38.03.749.06 1.105.087" fill="none" stroke="#a80036" stroke-width="1.843"/><path fill="#A80036" stroke="#a80036" stroke-width=".921" d="M2595.857 594.996l-7.977-4.322 3.385 3.962-3.962 3.385 8.554-3.025z"/><path d="M1427.723 499.368c120.737 4.252 339.378 11.804 526.27 17.459 58.8 1.779 1005.248 3.616 1058.527 28.559 10.677 4.999 19.84 13.926 27.01 22.882" fill="none" stroke="#a80036" stroke-width="1.843"/><path fill="#A80036" stroke="#a80036" stroke-width=".921" d="M3042.479 572.096l-2.142-8.817-.67 5.168-5.168-.67 7.98 4.319z"/><path d="M3571.323 418.695c-5.042 3.511-10.544 6.672-16.181 8.77-323.343 120.322-446.24-57.4-774.78 47.905-33.106 10.611-34.194 28.196-66.33 41.457-52.796 21.785-88.188-14.86-125.292 28.559-29.921 35.014-23.346 93.07-16.415 125.64" fill="none" stroke="#a80036" stroke-width="1.843"/><path fill="#A80036" stroke="#a80036" stroke-width=".921" d="M2573.346 675.641l1.807-8.891-2.802 4.394-4.394-2.802 5.39 7.3z"/><path d="M2596.09 625.154l-.085.341-11.4 45.602" fill="none" stroke="#a80036" stroke-width="1.843"/><path fill="#A80036" stroke="#a80036" stroke-width=".921" d="M2583.454 675.7l5.586-7.15-4.469 2.681-2.681-4.468 1.564 8.937z"/><path d="M2923.583 743.973a43.796 43.796 0 00-1.544-1.188 50.161 50.161 0 00-2.19-1.522 60.121 60.121 0 00-4.813-2.838c-3.394-1.803-7.153-3.43-11.227-4.9-8.149-2.938-17.56-5.245-27.843-7.063-20.566-3.635-44.62-5.314-69.046-6.175-48.852-1.723-99.185-.175-126.054-4.468-11.528-1.842-23.732-4.07-35.541-6.373" fill="none" stroke="#a80036" stroke-width="1.843"/><path fill="#A80036" stroke="#a80036" stroke-width=".921" d="M2640.645 708.525l7.424 5.216-2.904-4.327 4.327-2.904-8.847 2.015z"/><path d="M2615.988 712.71c15.78 8.389 33.811 19.298 48.296 31.668 7.76 6.627 15.13 14.896 21.405 22.798" fill="none" stroke="#a80036" stroke-width="1.843"/><path fill="#A80036" stroke="#a80036" stroke-width=".921" d="M2688.678 771.017l-2.184-8.807-.645 5.172-5.171-.645 8 4.28z"/><path d="M2574.83 714.51l-10.892 56.02" fill="none" stroke="#a80036" stroke-width="1.843"/><path fill="#A80036" stroke="#a80036" stroke-width=".921" d="M2563.026 775.216l5.2-7.436-4.32 2.914-2.914-4.32 2.034 8.842z"/><path d="M2591.512 813.975l96.48 58" fill="none" stroke="#a80036" stroke-width="1.843"/><path fill="#A80036" stroke="#a80036" stroke-width=".921" d="M2691.981 874.373l-5.207-7.43 1.26 5.057-5.058 1.26 9.005 1.113z"/><path d="M2747.9 874.633c23.313-12.767 56.627-31.478 84.974-49.184a520.061 520.061 0 0011.635-7.506" fill="none" stroke="#a80036" stroke-width="1.843"/><path fill="#A80036" stroke="#a80036" stroke-width=".921" d="M2848.38 815.359l-8.942 1.538 5.11 1.02-1.019 5.11 4.85-7.668z"/><path d="M3619.778 417.912c5.146 3.674 10.752 7.095 16.435 9.553 118.498 51.25 160.018 22.063 286.511 47.905 11.021 2.252 22.776 4.919 33.935 7.578" fill="none" stroke="#a80036" stroke-width="1.843"/><path fill="#A80036" stroke="#a80036" stroke-width=".921" d="M3961.401 484.085l-7.203-5.517 2.724 4.443-4.443 2.723 8.922-1.649z"/><path d="M3985.908 420.182l16.259 54.875" fill="none" stroke="#a80036" stroke-width="1.843"/><path fill="#A80036" stroke="#a80036" stroke-width=".921" d="M4003.583 479.836l1.177-8.997-2.486 4.58-4.58-2.486 5.889 6.903z"/><path d="M3985.876 480.798l-91.353-62.05" fill="none" stroke="#a80036" stroke-width="1.843"/><path fill="#A80036" stroke="#a80036" stroke-width=".921" d="M3890.512 416.022l4.788 7.708-.978-5.12 5.12-.977-8.93-1.61z"/><path d="M3284.991 414.702c5.744 4.958 12.493 9.782 19.568 12.763 196.065 82.598 267.459 7.251 476.291 47.905 10.376 2.02 21.42 4.886 31.627 7.845" fill="none" stroke="#a80036" stroke-width="1.843"/><path fill="#A80036" stroke="#a80036" stroke-width=".921" d="M3817.103 484.579l-6.911-5.88 2.493 4.577-4.577 2.493 8.995-1.19z"/><path d="M3859.52 420.182l-5.741 56.363" fill="none" stroke="#a80036" stroke-width="1.843"/><path fill="#A80036" stroke="#a80036" stroke-width=".921" d="M3853.292 481.329l4.506-7.875-4.04 3.292-3.292-4.04 2.826 8.623z"/><path d="M3851.787 511.21v60.401" fill="none" stroke="#a80036" stroke-width="1.843"/><path fill="#A80036" stroke="#a80036" stroke-width=".921" d="M3851.787 576.234l3.685-8.292-3.685 3.685-3.685-3.685 3.685 8.292z"/><path d="M395.726 200.84c11.929 21.696 31.13 56.618 42.831 77.903" fill="none" stroke="#a80036" stroke-width="1.843"/><path fill="#A80036" stroke="#a80036" stroke-width=".921" d="M440.793 282.81l-.765-9.041-1.454 5.004-5.005-1.454 7.224 5.49z"/><path d="M501.58 200.84l-42.83 77.903" fill="none" stroke="#a80036" stroke-width="1.843"/><path fill="#A80036" stroke="#a80036" stroke-width=".921" d="M456.514 282.81l7.224-5.49-5.005 1.453-1.454-5.004-.765 9.04z"/><path d="M448.654 312.218v60.401" fill="none" stroke="#a80036" stroke-width="1.843"/><path fill="#A80036" stroke="#a80036" stroke-width=".921" d="M448.654 377.241l3.685-8.29-3.685 3.684-3.685-3.685 3.685 8.291z"/><path d="M2838.285 414.62l26.865 59.213" fill="none" stroke="#a80036" stroke-width="1.843"/><path fill="#A80036" stroke="#a80036" stroke-width=".921" d="M2867.138 478.214l-.07-9.073-1.833 4.879-4.879-1.833 6.782 6.027z"/><path d="M2765.854 571.878c7.331-8.912 16.283-18.75 25.563-26.492 13.983-11.666 31.065-22.251 46.153-30.595" fill="none" stroke="#a80036" stroke-width="1.843"/><path fill="#A80036" stroke="#a80036" stroke-width=".921" d="M2841.768 512.498l-9.043.74 5 1.468-1.467 5 5.51-7.208z"/><path d="M2880.09 514.116l15.327 57.079" fill="none" stroke="#a80036" stroke-width="1.843"/><path fill="#A80036" stroke="#a80036" stroke-width=".921" d="M2896.71 576.008l1.408-8.964-2.603 4.515-4.515-2.603 5.71 7.052z"/><path d="M2819.11 508.776c-41.7 10.088-94.482 24.475-113.37 36.61-9.154 5.881-17.452 14.265-24.277 22.502" fill="none" stroke="#a80036" stroke-width="1.843"/><path fill="#A80036" stroke="#a80036" stroke-width=".921" d="M2678.233 571.908l8.066-4.156-5.181.565-.565-5.181-2.32 8.772z"/><path d="M2687.548 619.174l59.747 56.11" fill="none" stroke="#a80036" stroke-width="1.843"/><path fill="#A80036" stroke="#a80036" stroke-width=".921" d="M2751.069 678.828l-3.521-8.362.163 5.208-5.209.164 8.567 2.99z"/><path d="M2719.85 771.059l35.512-55.582" fill="none" stroke="#a80036" stroke-width="1.843"/><path fill="#A80036" stroke="#a80036" stroke-width=".921" d="M2757.89 711.52l-7.57 5.003 5.09-1.121 1.12 5.09 1.36-8.972z"/><path d="M2771.824 711.969l11.024 54.12" fill="none" stroke="#a80036" stroke-width="1.843"/><path fill="#A80036" stroke="#a80036" stroke-width=".921" d="M2783.829 770.9l1.955-8.86-2.875 4.347-4.346-2.875 5.266 7.389z"/><path d="M2012.394 420.182l-5.741 56.363" fill="none" stroke="#a80036" stroke-width="1.843"/><path fill="#A80036" stroke="#a80036" stroke-width=".921" d="M2006.166 481.329l4.506-7.875-4.04 3.292-3.292-4.04 2.826 8.623z"/><path d="M2027.307 507.424c8.563 3.727 18.534 7.42 28.024 9.403 131.396 27.454 1079.205-10.036 1207.771 28.559 18.975 5.696 37.868 17.176 52.541 27.723" fill="none" stroke="#a80036" stroke-width="1.843"/><path fill="#A80036" stroke="#a80036" stroke-width=".921" d="M3319.666 576.053l-4.515-7.87.798 5.15-5.15.797 8.867 1.923z"/></svg>