<svg xmlns="http://www.w3.org/2000/svg" height="311" preserveAspectRatio="none" style="width:253px;height:311px" width="253"><defs><filter height="300%" id="a" width="300%" x="-1" y="-1"><feGaussianBlur result="blurOut" stdDeviation="2"/><feColorMatrix in="blurOut" result="blurOut2" values="0 0 0 0 0 0 0 0 0 0 0 0 0 0 0 0 0 0 .4 0"/><feOffset dx="4" dy="4" in="blurOut2" result="blurOut3"/><feBlend in="SourceGraphic" in2="blurOut3"/></filter></defs><circle cx="21" cy="18" fill="#FEFECE" filter="url(#a)" stroke="#a80036" stroke-width="2" r="8"/><path d="M21 26v27M8 34h26M21 53L8 68m13-15l13 15" fill="none" filter="url(#a)" stroke="#a80036" stroke-width="2"/><text font-family="Futura" font-size="14" lengthAdjust="spacingAndGlyphs" textLength="27" x="7.5" y="89.957">PJM</text><path fill="#FEFECE" filter="url(#a)" stroke="#000" stroke-width="1.5" d="M70.5 259h143v41.594h-143z"/><path fill="#FEFECE" stroke="#000" stroke-width="1.5" d="M196.5 264v14h12v-8l-6-6h-6z"/><path stroke="#000" stroke-width="1.5" d="M202.5 264v6M208.5 270h-6"/><text font-family="Futura" font-size="14" lengthAdjust="spacingAndGlyphs" textLength="113" x="80.5" y="286.957">Project Repository</text><path fill="#FEFECE" filter="url(#a)" stroke="#000" stroke-width="1.5" d="M71.5 30h141v41.594h-141z"/><path fill="#FEFECE" stroke="#000" stroke-width="1.5" d="M195.5 35v14h12v-8l-6-6h-6z"/><path stroke="#000" stroke-width="1.5" d="M201.5 35v6M207.5 41h-6"/><text font-family="Futura" font-size="14" lengthAdjust="spacingAndGlyphs" textLength="111" x="81.5" y="57.957">Project Plan (CM)</text><ellipse cx="141.819" cy="176.464" fill="#FEFECE" filter="url(#a)" rx="100.319" ry="22.464" stroke="#a80036" stroke-width="1.5"/><text font-family="Futura" font-size="14" lengthAdjust="spacingAndGlyphs" textLength="171" x="56.319" y="182.261">Establish Project Repository</text><path d="M142 72.006v76.633" fill="none" stroke="#a80036" stroke-width="2"/><path fill="#A80036" stroke="#a80036" d="M142 153.725l4-9-4 4-4-4 4 9z"/><path d="M142 199.214v54.483" fill="none" stroke="#a80036" stroke-width="2"/><path fill="#A80036" stroke="#a80036" d="M142 258.752l4-9-4 4-4-4 4 9z"/></svg>