<svg xmlns="http://www.w3.org/2000/svg" height="673" preserveAspectRatio="none" style="width:2185px;height:673px" width="2185"><defs><filter height="300%" id="a" width="300%" x="-1" y="-1"><feGaussianBlur result="blurOut" stdDeviation="2"/><feColorMatrix in="blurOut" result="blurOut2" values="0 0 0 0 0 0 0 0 0 0 0 0 0 0 0 0 0 0 .4 0"/><feOffset dx="4" dy="4" in="blurOut2" result="blurOut3"/><feBlend in="SourceGraphic" in2="blurOut3"/></filter></defs><path fill="#FFF" filter="url(#a)" stroke="#000" stroke-width="1.5" d="M1126 142.5h141v88h-141z"/><path fill="#FFF" stroke="#000" stroke-width="1.5" d="M1250 147.5v14h12v-8l-6-6h-6z"/><path stroke="#000" stroke-width="1.5" d="M1256 147.5v6M1262 153.5h-6"/><text font-family="Futura" font-size="14" font-weight="bold" lengthAdjust="spacingAndGlyphs" textLength="35" x="1179" y="159.466">SoW</text><path fill="#FFF" filter="url(#a)" stroke="#000" stroke-width="1.5" d="M189 376h1714v88H189z"/><path fill="#FFF" stroke="#000" stroke-width="1.5" d="M1886 381v14h12v-8l-6-6h-6z"/><path stroke="#000" stroke-width="1.5" d="M1892 381v6M1898 387h-6"/><text font-family="Futura" font-size="14" font-weight="bold" lengthAdjust="spacingAndGlyphs" textLength="88" x="1002" y="392.966">Project Plan</text><circle cx="1150" cy="187.5" fill="#FEFECE" filter="url(#a)" stroke="#a80036" stroke-width="2" r="12"/><path fill="#A80036" stroke="#a80036" d="M1146 175.5l6-5-2 5 2 5-6-5z"/><text font-family="Futura" font-size="14" lengthAdjust="spacingAndGlyphs" textLength="32" x="1134" y="218.457">initial</text><circle cx="1230" cy="187.5" fill="#FEFECE" filter="url(#a)" stroke="#a80036" stroke-width="2" r="12"/><path fill="#A80036" stroke="#a80036" d="M1226 175.5l6-5-2 5 2 5-6-5z"/><text font-family="Futura" font-size="14" lengthAdjust="spacingAndGlyphs" textLength="58" x="1201" y="218.457">reviewed</text><path fill="#FEFECE" filter="url(#a)" stroke="#a80036" stroke-width="1.5" d="M1383.5 411h43v38.594h-43z"/><path fill="#FEFECE" stroke="#a80036" stroke-width="1.5" d="M1378.5 416h10v5h-10zM1378.5 439.594h10v5h-10z"/><text font-family="Futura" font-size="14" lengthAdjust="spacingAndGlyphs" textLength="23" x="1393.5" y="435.957">CM</text><path fill="#FEFECE" filter="url(#a)" stroke="#a80036" stroke-width="1.5" d="M310 411h48v38.594h-48z"/><path fill="#FEFECE" stroke="#a80036" stroke-width="1.5" d="M305 416h10v5h-10zM305 439.594h10v5h-10z"/><text font-family="Futura" font-size="14" lengthAdjust="spacingAndGlyphs" textLength="28" x="320" y="435.957">Cost</text><path fill="#FEFECE" filter="url(#a)" stroke="#a80036" stroke-width="1.5" d="M1074 411h72v38.594h-72z"/><path fill="#FEFECE" stroke="#a80036" stroke-width="1.5" d="M1069 416h10v5h-10zM1069 439.594h10v5h-10z"/><text font-family="Futura" font-size="14" lengthAdjust="spacingAndGlyphs" textLength="52" x="1084" y="435.957">Delivery</text><path fill="#FEFECE" filter="url(#a)" stroke="#a80036" stroke-width="1.5" d="M1276 411h72v38.594h-72z"/><path fill="#FEFECE" stroke="#a80036" stroke-width="1.5" d="M1271 416h10v5h-10zM1271 439.594h10v5h-10z"/><text font-family="Futura" font-size="14" lengthAdjust="spacingAndGlyphs" textLength="52" x="1286" y="435.957">Disposal</text><path fill="#FEFECE" filter="url(#a)" stroke="#a80036" stroke-width="1.5" d="M589 411h80v38.594h-80z"/><path fill="#FEFECE" stroke="#a80036" stroke-width="1.5" d="M584 416h10v5h-10zM584 439.594h10v5h-10z"/><text font-family="Futura" font-size="14" lengthAdjust="spacingAndGlyphs" textLength="60" x="599" y="435.957">Estimated</text><path fill="#FEFECE" filter="url(#a)" stroke="#a80036" stroke-width="1.5" d="M951.5 411h87v38.594h-87z"/><path fill="#FEFECE" stroke="#a80036" stroke-width="1.5" d="M946.5 416h10v5h-10zM946.5 439.594h10v5h-10z"/><text font-family="Futura" font-size="14" lengthAdjust="spacingAndGlyphs" textLength="67" x="961.5" y="435.957">Milestones</text><path fill="#FEFECE" filter="url(#a)" stroke="#a80036" stroke-width="1.5" d="M1181.5 411h59v38.594h-59z"/><path fill="#FEFECE" stroke="#a80036" stroke-width="1.5" d="M1176.5 416h10v5h-10zM1176.5 439.594h10v5h-10z"/><text font-family="Futura" font-size="14" lengthAdjust="spacingAndGlyphs" textLength="39" x="1191.5" y="435.957">Scope</text><path fill="#FEFECE" filter="url(#a)" stroke="#a80036" stroke-width="1.5" d="M393 411h84v38.594h-84z"/><path fill="#FEFECE" stroke="#a80036" stroke-width="1.5" d="M388 416h10v5h-10zM388 439.594h10v5h-10z"/><text font-family="Futura" font-size="14" lengthAdjust="spacingAndGlyphs" textLength="64" x="403" y="435.957">Resources</text><path fill="#FEFECE" filter="url(#a)" stroke="#a80036" stroke-width="1.5" d="M872 411h44v38.594h-44z"/><path fill="#FEFECE" stroke="#a80036" stroke-width="1.5" d="M867 416h10v5h-10zM867 439.594h10v5h-10z"/><text font-family="Futura" font-size="14" lengthAdjust="spacingAndGlyphs" textLength="24" x="882" y="435.957">Risk</text><path fill="#FEFECE" filter="url(#a)" stroke="#a80036" stroke-width="1.5" d="M793 411h44v38.594h-44z"/><path fill="#FEFECE" stroke="#a80036" stroke-width="1.5" d="M788 416h10v5h-10zM788 439.594h10v5h-10z"/><text font-family="Futura" font-size="14" lengthAdjust="spacingAndGlyphs" textLength="24" x="803" y="435.957">SBS</text><path fill="#FEFECE" filter="url(#a)" stroke="#a80036" stroke-width="1.5" d="M197 411h78v38.594h-78z"/><path fill="#FEFECE" stroke="#a80036" stroke-width="1.5" d="M192 416h10v5h-10zM192 439.594h10v5h-10z"/><text font-family="Futura" font-size="14" lengthAdjust="spacingAndGlyphs" textLength="58" x="207" y="435.957">Schedule</text><path fill="#FEFECE" filter="url(#a)" stroke="#a80036" stroke-width="1.5" d="M704 411h54v38.594h-54z"/><path fill="#FEFECE" stroke="#a80036" stroke-width="1.5" d="M699 416h10v5h-10zM699 439.594h10v5h-10z"/><text font-family="Futura" font-size="14" lengthAdjust="spacingAndGlyphs" textLength="34" x="714" y="435.957">Tasks</text><path fill="#FEFECE" filter="url(#a)" stroke="#a80036" stroke-width="1.5" d="M512 411h42v38.594h-42z"/><path fill="#FEFECE" stroke="#a80036" stroke-width="1.5" d="M507 416h10v5h-10zM507 439.594h10v5h-10z"/><text font-family="Futura" font-size="14" lengthAdjust="spacingAndGlyphs" textLength="22" x="522" y="435.957">WT</text><circle cx="1494" cy="421" fill="#FEFECE" filter="url(#a)" stroke="#a80036" stroke-width="2" r="12"/><path fill="#A80036" stroke="#a80036" d="M1490 409l6-5-2 5 2 5-6-5z"/><text font-family="Futura" font-size="14" lengthAdjust="spacingAndGlyphs" textLength="64" x="1462" y="451.957">integrated</text><circle cx="1584" cy="421" fill="#FEFECE" filter="url(#a)" stroke="#a80036" stroke-width="2" r="12"/><path fill="#A80036" stroke="#a80036" d="M1580 409l6-5-2 5 2 5-6-5z"/><text font-family="Futura" font-size="14" lengthAdjust="spacingAndGlyphs" textLength="46" x="1561" y="451.957">verified</text><circle cx="1671" cy="421" fill="#FEFECE" filter="url(#a)" stroke="#a80036" stroke-width="2" r="12"/><path fill="#A80036" stroke="#a80036" d="M1667 409l6-5-2 5 2 5-6-5z"/><text font-family="Futura" font-size="14" lengthAdjust="spacingAndGlyphs" textLength="58" x="1642" y="451.957">accepted</text><circle cx="1815" cy="421" fill="#FEFECE" filter="url(#a)" stroke="#a80036" stroke-width="2" r="12"/><path fill="#A80036" stroke="#a80036" d="M1811 409l6-5-2 5 2 5-6-5z"/><text font-family="Futura" font-size="14" lengthAdjust="spacingAndGlyphs" textLength="159" x="1735.5" y="451.957">accepted, Tasks assigned</text><circle cx="288" cy="18" fill="#FEFECE" filter="url(#a)" stroke="#a80036" stroke-width="2" r="8"/><path d="M288 26v27m-13-19h26m-13 19l-13 15m13-15l13 15" fill="none" filter="url(#a)" stroke="#a80036" stroke-width="2"/><text font-family="Futura" font-size="14" lengthAdjust="spacingAndGlyphs" textLength="27" x="274.5" y="89.957">PJM</text><circle cx="353" cy="18" fill="#FEFECE" filter="url(#a)" stroke="#a80036" stroke-width="2" r="8"/><path d="M353 26v27m-13-19h26m-13 19l-13 15m13-15l13 15" fill="none" filter="url(#a)" stroke="#a80036" stroke-width="2"/><text font-family="Futura" font-size="14" lengthAdjust="spacingAndGlyphs" textLength="22" x="342" y="89.957">WT</text><circle cx="418" cy="18" fill="#FEFECE" filter="url(#a)" stroke="#a80036" stroke-width="2" r="8"/><path d="M418 26v27m-13-19h26m-13 19l-13 15m13-15l13 15" fill="none" filter="url(#a)" stroke="#a80036" stroke-width="2"/><text font-family="Futura" font-size="14" lengthAdjust="spacingAndGlyphs" textLength="24" x="406" y="89.957">SYS</text><circle cx="288" cy="164" fill="#FEFECE" filter="url(#a)" stroke="#a80036" stroke-width="2" r="8"/><path d="M288 172v27m-13-19h26m-13 19l-13 15m13-15l13 15" fill="none" filter="url(#a)" stroke="#a80036" stroke-width="2"/><text font-family="Futura" font-size="14" lengthAdjust="spacingAndGlyphs" textLength="33" x="271.5" y="235.957">ACQ</text><circle cx="355" cy="164" fill="#FEFECE" filter="url(#a)" stroke="#a80036" stroke-width="2" r="8"/><path d="M355 172v27m-13-19h26m-13 19l-13 15m13-15l13 15" fill="none" filter="url(#a)" stroke="#a80036" stroke-width="2"/><text font-family="Futura" font-size="14" lengthAdjust="spacingAndGlyphs" textLength="26" x="342" y="235.957">DES</text><circle cx="420" cy="164" fill="#FEFECE" filter="url(#a)" stroke="#a80036" stroke-width="2" r="8"/><path d="M420 172v27m-13-19h26m-13 19l-13 15m13-15l13 15" fill="none" filter="url(#a)" stroke="#a80036" stroke-width="2"/><text font-family="Futura" font-size="14" lengthAdjust="spacingAndGlyphs" textLength="24" x="408" y="235.957">STK</text><path fill="#FEFECE" filter="url(#a)" stroke="#000" stroke-width="1.5" d="M470 176h58v41.594h-58z"/><path fill="#FEFECE" stroke="#000" stroke-width="1.5" d="M511 181v14h12v-8l-6-6h-6z"/><path stroke="#000" stroke-width="1.5" d="M517 181v6M523 187h-6"/><text font-family="Futura" font-size="14" lengthAdjust="spacingAndGlyphs" textLength="28" x="480" y="203.957">SDD</text><path fill="#FEFECE" filter="url(#a)" stroke="#000" stroke-width="1.5" d="M1333.5 621h143v41.594h-143z"/><path fill="#FEFECE" stroke="#000" stroke-width="1.5" d="M1459.5 626v14h12v-8l-6-6h-6z"/><path stroke="#000" stroke-width="1.5" d="M1465.5 626v6M1471.5 632h-6"/><text font-family="Futura" font-size="14" lengthAdjust="spacingAndGlyphs" textLength="113" x="1343.5" y="648.957">Project Repository</text><ellipse cx="1190.069" cy="51.148" fill="#FEFECE" filter="url(#a)" rx="59.569" ry="16.148" stroke="#a80036" stroke-width="1.5"/><text font-family="Futura" font-size="14" lengthAdjust="spacingAndGlyphs" textLength="80" x="1150.069" y="56.945">Review SoW</text><ellipse cx="1229.759" cy="322.552" fill="#FEFECE" filter="url(#a)" rx="100.759" ry="22.552" stroke="#a80036" stroke-width="1.5"/><text font-family="Futura" font-size="14" lengthAdjust="spacingAndGlyphs" textLength="172" x="1143.759" y="328.349">Define Delivery Instructions</text><ellipse cx="498.79" cy="322.648" fill="#FEFECE" filter="url(#a)" rx="51.79" ry="16.148" stroke="#a80036" stroke-width="1.5"/><text font-family="Futura" font-size="14" lengthAdjust="spacingAndGlyphs" textLength="69" x="464.29" y="328.445">Define SBS</text><ellipse cx="814.779" cy="322.556" fill="#FEFECE" filter="url(#a)" rx="75.779" ry="17.556" stroke="#a80036" stroke-width="1.5"/><text font-family="Futura" font-size="14" lengthAdjust="spacingAndGlyphs" textLength="112" x="758.779" y="328.353">Define Milestones</text><ellipse cx="644.861" cy="322.648" fill="#FEFECE" filter="url(#a)" rx="58.861" ry="16.148" stroke="#a80036" stroke-width="1.5"/><text font-family="Futura" font-size="14" lengthAdjust="spacingAndGlyphs" textLength="79" x="605.361" y="328.445">Define Tasks</text><ellipse cx="371.77" cy="322.648" fill="#FEFECE" filter="url(#a)" rx="39.77" ry="16.148" stroke="#a80036" stroke-width="1.5"/><text font-family="Futura" font-size="14" lengthAdjust="spacingAndGlyphs" textLength="52" x="345.77" y="328.445">Estimate</text><ellipse cx="82.939" cy="322.288" fill="#FEFECE" filter="url(#a)" rx="76.939" ry="17.788" stroke="#a80036" stroke-width="1.5"/><text font-family="Futura" font-size="14" lengthAdjust="spacingAndGlyphs" textLength="115" x="25.439" y="328.085">Identify Resources</text><ellipse cx="245.876" cy="322.648" fill="#FEFECE" filter="url(#a)" rx="50.376" ry="16.148" stroke="#a80036" stroke-width="1.5"/><text font-family="Futura" font-size="14" lengthAdjust="spacingAndGlyphs" textLength="67" x="212.376" y="328.445">Define WT</text><ellipse cx="515.819" cy="538.364" fill="#FEFECE" filter="url(#a)" rx="69.819" ry="16.364" stroke="#a80036" stroke-width="1.5"/><text font-family="Futura" font-size="14" lengthAdjust="spacingAndGlyphs" textLength="96" x="467.819" y="544.161">Schedule Tasks</text><ellipse cx="333.897" cy="538.648" fill="#FEFECE" filter="url(#a)" rx="62.397" ry="16.148" stroke="#a80036" stroke-width="1.5"/><text font-family="Futura" font-size="14" lengthAdjust="spacingAndGlyphs" textLength="84" x="291.897" y="544.445">Estimate Cost</text><ellipse cx="717.825" cy="538.265" fill="#FEFECE" filter="url(#a)" rx="96.825" ry="21.765" stroke="#a80036" stroke-width="1.5"/><text font-family="Futura" font-size="14" lengthAdjust="spacingAndGlyphs" textLength="163" x="636.325" y="544.062">Identify Risk Management</text><ellipse cx="1625.942" cy="322.288" fill="#FEFECE" filter="url(#a)" rx="99.442" ry="22.288" stroke="#a80036" stroke-width="1.5"/><text font-family="Futura" font-size="14" lengthAdjust="spacingAndGlyphs" textLength="169" x="1541.442" y="328.085">Identify Disposal Approach</text><ellipse cx="1009.818" cy="322.564" fill="#FEFECE" filter="url(#a)" rx="83.318" ry="19.064" stroke="#a80036" stroke-width="1.5"/><text font-family="Futura" font-size="14" lengthAdjust="spacingAndGlyphs" textLength="131" x="944.318" y="328.361">Identify CM Strategy</text><ellipse cx="1428.897" cy="322.648" fill="#FEFECE" filter="url(#a)" rx="62.397" ry="16.148" stroke="#a80036" stroke-width="1.5"/><text font-family="Futura" font-size="14" lengthAdjust="spacingAndGlyphs" textLength="84" x="1386.897" y="328.445">Define Scope</text><ellipse cx="907.947" cy="538.648" fill="#FEFECE" filter="url(#a)" rx="57.447" ry="16.148" stroke="#a80036" stroke-width="1.5"/><text font-family="Futura" font-size="14" lengthAdjust="spacingAndGlyphs" textLength="77" x="869.447" y="544.445">Integrate PP</text><ellipse cx="1803.805" cy="322.648" fill="#FEFECE" filter="url(#a)" rx="43.305" ry="16.148" stroke="#a80036" stroke-width="1.5"/><text font-family="Futura" font-size="14" lengthAdjust="spacingAndGlyphs" textLength="57" x="1775.305" y="328.445">Verify PP</text><ellipse cx="1951.961" cy="322.292" fill="#FEFECE" filter="url(#a)" rx="69.461" ry="16.292" stroke="#a80036" stroke-width="1.5"/><text font-family="Futura" font-size="14" lengthAdjust="spacingAndGlyphs" textLength="95" x="1904.461" y="328.089">PP Acceptance</text><ellipse cx="1404.819" cy="538.464" fill="#FEFECE" filter="url(#a)" rx="100.319" ry="22.464" stroke="#a80036" stroke-width="1.5"/><text font-family="Futura" font-size="14" lengthAdjust="spacingAndGlyphs" textLength="171" x="1319.319" y="544.261">Establish Project Repository</text><ellipse cx="2115.861" cy="322.648" fill="#FEFECE" filter="url(#a)" rx="58.861" ry="16.148" stroke="#a80036" stroke-width="1.5"/><text font-family="Futura" font-size="14" lengthAdjust="spacingAndGlyphs" textLength="79" x="2076.361" y="328.445">Assign Tasks</text><path d="M1157.003 171.438l27.193-99.255" fill="none" stroke="#a80036" stroke-width="2"/><path fill="#A80036" stroke="#a80036" d="M1185.566 67.182l-6.236 7.623 4.915-2.8 2.801 4.915-1.48-9.738z"/><path d="M1194.434 67.182a45878845 45878845 0 0127.168 99.164" fill="none" stroke="#a80036" stroke-width="2"/><path fill="#A80036" stroke="#a80036" d="M1222.997 171.438l1.48-9.737-2.802 4.915-4.914-2.8 6.236 7.622z"/><path d="M1230 222.7v72.076" fill="none" stroke="#a80036" stroke-width="2"/><path fill="#A80036" stroke="#a80036" d="M1230 299.784l4-9-4 4-4-4 4 9z"/><path d="M1201.823 344.232c-11.916 9.472-25.793 20.88-37.823 31.768-10.81 9.784-22.25 21.166-31.803 30.99" fill="none" stroke="#a80036" stroke-width="2"/><path fill="#A80036" stroke="#a80036" d="M1128.498 410.813l9.133-3.686-5.656.093-.093-5.656-3.384 9.249z"/><path d="M499 218.006v83.203" fill="none" stroke="#a80036" stroke-width="2"/><path fill="#A80036" stroke="#a80036" d="M499 306.228l4-9-4 4-4-4 4 9z"/><path d="M533.224 334.726c11.284 3.7 23.968 7.511 35.776 10.274 90.58 21.192 127.653-17.557 207 31 11.723 7.174 20.93 19.331 27.449 30.345" fill="none" stroke="#a80036" stroke-width="2"/><path fill="#A80036" stroke="#a80036" d="M806.077 410.978l-.962-9.802-1.505 5.453-5.453-1.505 7.92 5.854z"/><path d="M815 410.809V345.58" fill="none" stroke="#a80036" stroke-width="2"/><path fill="#A80036" stroke="#a80036" d="M815 340.334l-4 9 4-4 4 4-4-9z"/><path d="M1133.842 203.053L859.697 305.755" fill="none" stroke="#a80036" stroke-width="2"/><path fill="#A80036" stroke="#a80036" d="M854.832 307.578l9.832.588-5.15-2.342 2.343-5.15-7.025 6.904z"/><path d="M855.984 337.298C879.7 346.732 909.587 360.15 934 376c13.805 8.963 27.613 20.98 38.591 31.45" fill="none" stroke="#a80036" stroke-width="2"/><path fill="#A80036" stroke="#a80036" d="M976.202 410.935l-3.698-9.128.1 5.656-5.656.1 9.254 3.372z"/><path d="M1208.285 222.502c-7.058 6.744-15.385 13.303-24.285 17.498-187.298 88.274-259.35 17.501-462 60-11.111 2.33-22.953 5.458-33.934 8.639" fill="none" stroke="#a80036" stroke-width="2"/><path fill="#A80036" stroke="#a80036" d="M683.086 310.101l9.763 1.301-4.965-2.71 2.71-4.965-7.508 6.374z"/><path d="M804.74 410.966C797.89 399.5 787.958 385.45 776 376c-24.316-19.213-56.477-32.482-82.847-41" fill="none" stroke="#a80036" stroke-width="2"/><path fill="#A80036" stroke="#a80036" d="M688.3 333.465l7.374 6.529-2.607-5.02 5.02-2.608-9.788 1.1z"/><path d="M657.69 338.436l54.443 68.37" fill="none" stroke="#a80036" stroke-width="2"/><path fill="#A80036" stroke="#a80036" d="M715.339 410.832l-2.478-9.532-.637 5.621-5.62-.637 8.735 4.548z"/><path d="M720.428 410.814C712.812 398.675 701.36 383.954 687 376c-100.643-55.745-145.387-3.088-257-31-8.677-2.17-17.81-5.29-26.195-8.52" fill="none" stroke="#a80036" stroke-width="2"/><path fill="#A80036" stroke="#a80036" d="M398.691 334.464l6.905 7.023-2.254-5.189 5.19-2.253-9.84.418z"/><path d="M399.72 334.261c9.492 3.756 20.248 7.718 30.28 10.739 61.854 18.626 84.972.658 142 31 14.317 7.618 27.589 19.854 37.717 30.804" fill="none" stroke="#a80036" stroke-width="2"/><path fill="#A80036" stroke="#a80036" d="M613.302 410.77l-3.07-9.36-.283 5.65-5.65-.283 9.003 3.992z"/><path d="M1208.462 222.896C1201.41 229.65 1193.04 236.118 1184 240c-205.78 88.373-784.432 27.405-1006 60-12.88 1.895-26.582 4.678-39.454 7.646" fill="none" stroke="#a80036" stroke-width="2"/><path fill="#A80036" stroke="#a80036" d="M133.468 308.836l9.675 1.84-4.807-2.981 2.982-4.807-7.85 5.948z"/><path d="M135.605 335.724c13.752 3.247 28.59 6.565 42.395 9.276 87.402 17.166 117.816-7.786 198 31 15.225 7.365 29.267 19.985 39.83 31.227" fill="none" stroke="#a80036" stroke-width="2"/><path fill="#A80036" stroke="#a80036" d="M419.275 410.977l-3.143-9.334-.24 5.652-5.651-.24 9.034 3.922z"/><path d="M417.296 410.977C406.256 399.655 391.28 385.753 376 376c-27.695-17.677-62.212-31.557-88.717-40.745" fill="none" stroke="#a80036" stroke-width="2"/><path fill="#A80036" stroke="#a80036" d="M282.43 333.594l7.22 6.699-2.489-5.08 5.08-2.489-9.81.87z"/><path d="M279.257 334.61c10.962 3.693 23.281 7.53 34.743 10.39 79.187 19.764 112.102-12.752 181 31 11.417 7.25 20.347 19.291 26.673 30.214" fill="none" stroke="#a80036" stroke-width="2"/><path fill="#A80036" stroke="#a80036" d="M524.225 410.81l-.872-9.81-1.555 5.439-5.439-1.556 7.866 5.927z"/><path d="M707.522 450.018c-6.439 4.89-13.567 9.9-20.522 13.982-41.427 24.317-92.26 45.468-127.688 58.956" fill="none" stroke="#a80036" stroke-width="2"/><path fill="#A80036" stroke="#a80036" d="M554.635 524.726l9.833.555-5.157-2.325 2.325-5.157-7 6.928z"/><path d="M608.537 450.058l-71.859 68.679" fill="none" stroke="#a80036" stroke-width="2"/><path fill="#A80036" stroke="#a80036" d="M532.992 522.26l9.27-3.327-5.656-.128.128-5.655-3.742 9.11z"/><path d="M529.921 450.058l-10.484 66.607" fill="none" stroke="#a80036" stroke-width="2"/><path fill="#A80036" stroke="#a80036" d="M518.61 521.918l5.351-8.269-4.573 3.33-3.33-4.574 2.552 9.513z"/><path d="M468.967 526.098C422.84 513.19 351.043 491.085 292 464c-7.028-3.224-14.289-7.11-21.159-11.076" fill="none" stroke="#a80036" stroke-width="2"/><path fill="#A80036" stroke="#a80036" d="M266.155 450.173l5.736 8.006-1.424-5.474 5.474-1.425-9.786-1.107z"/><path d="M253.747 450.058l62.41 68.779" fill="none" stroke="#a80036" stroke-width="2"/><path fill="#A80036" stroke="#a80036" d="M319.572 522.6l-3.086-9.353-.274 5.65-5.65-.275 9.01 3.978z"/><path d="M416.71 450.058l-64.64 69.12" fill="none" stroke="#a80036" stroke-width="2"/><path fill="#A80036" stroke="#a80036" d="M348.555 522.936l9.069-3.84-5.654.188-.19-5.653-3.225 9.305z"/><path d="M334 522.26v-67.158" fill="none" stroke="#a80036" stroke-width="2"/><path fill="#A80036" stroke="#a80036" d="M334 450.058l-4 9 4-4 4 4-4-9z"/><path d="M354.947 450.292c6.361 5.123 13.64 10.183 21.053 13.708 12.013 5.712 167.62 38.47 264.75 58.6" fill="none" stroke="#a80036" stroke-width="2"/><path fill="#A80036" stroke="#a80036" d="M645.907 523.668l-8.002-5.743 3.106 4.728-4.728 3.106 9.624-2.091z"/><path d="M1082.376 450.122c-8.19 5.12-17.382 10.222-26.376 13.878-23.902 9.716-167.872 39.929-260.042 58.762" fill="none" stroke="#a80036" stroke-width="2"/><path fill="#A80036" stroke="#a80036" d="M790.787 523.818l9.618 2.119-4.72-3.12 3.12-4.719-8.018 5.72z"/><path d="M645.117 450.058l51.556 62.563" fill="none" stroke="#a80036" stroke-width="2"/><path fill="#A80036" stroke="#a80036" d="M700.17 516.863l-2.638-9.49-.543 5.631-5.63-.543 8.81 4.402z"/><path d="M961.64 450.152c-8.836 4.835-18.472 9.785-27.64 13.848-49.761 22.053-108.232 41.868-151.781 55.51" fill="none" stroke="#a80036" stroke-width="2"/><path fill="#A80036" stroke="#a80036" d="M777.252 521.059l9.783 1.138-5.01-2.627 2.627-5.01-7.4 6.499z"/><path d="M467.444 450.064c8.777 4.89 18.388 9.888 27.556 13.936 51.34 22.67 111.856 42.478 156.884 55.96" fill="none" stroke="#a80036" stroke-width="2"/><path fill="#A80036" stroke="#a80036" d="M656.743 521.408l-7.482-6.404 2.69 4.976-4.975 2.69 9.767-1.262z"/><path d="M797.434 450.058l-56.624 63.046" fill="none" stroke="#a80036" stroke-width="2"/><path fill="#A80036" stroke="#a80036" d="M737.433 516.863l8.99-4.023-5.649.303-.303-5.649-3.038 9.369z"/><path d="M264.03 450.054c8.637 5.245 18.4 10.43 27.97 13.946 131.954 48.485 173.692 26.831 312 52a3263.232 3263.232 0 0136.216 6.828" fill="none" stroke="#a80036" stroke-width="2"/><path fill="#A80036" stroke="#a80036" d="M645.388 523.833l-8.07-5.644 3.162 4.69-4.69 3.163 9.598-2.209z"/><path d="M728.646 450.058l-7.369 61.217" fill="none" stroke="#a80036" stroke-width="2"/><path fill="#A80036" stroke="#a80036" d="M720.65 516.484l5.047-8.457-4.45 3.493-3.492-4.45 2.895 9.414z"/><path d="M554.135 450.24c5.6 4.781 11.786 9.683 17.865 13.76 30.51 20.461 67.375 39.231 96.428 52.812" fill="none" stroke="#a80036" stroke-width="2"/><path fill="#A80036" stroke="#a80036" d="M673.022 518.947l-6.476-7.42 1.942 5.313-5.314 1.942 9.848.165z"/><path d="M760.108 518.52C787.92 504.627 824.69 484.908 855 464c4.613-3.182 9.308-6.818 13.77-10.494" fill="none" stroke="#a80036" stroke-width="2"/><path fill="#A80036" stroke="#a80036" d="M872.79 450.13l-9.464 2.723 5.635.492-.492 5.636 4.322-8.85z"/><path d="M1259.119 206.228l304.08 96.369" fill="none" stroke="#a80036" stroke-width="2"/><path fill="#A80036" stroke="#a80036" d="M1568.054 304.136l-7.371-6.533 2.604 5.022-5.021 2.604 9.788-1.093z"/><path d="M1549.898 337.045C1476.143 351.31 1374.206 371.555 1366 376c-13.977 7.572-26.658 19.928-36.214 30.963" fill="none" stroke="#a80036" stroke-width="2"/><path fill="#A80036" stroke="#a80036" d="M1326.41 410.957l8.865-4.292-5.637.473-.473-5.637-2.755 9.456z"/><path d="M825.284 410.995C832.283 399.392 842.528 385.19 855 376c25.565-18.836 58.28-31.415 87.059-39.613" fill="none" stroke="#a80036" stroke-width="2"/><path fill="#A80036" stroke="#a80036" d="M947.012 335.008l-9.743-1.44 4.927 2.78-2.78 4.927 7.596-6.267z"/><path d="M1067.798 336.257c14.387 3.146 29.813 6.284 44.202 8.743 112.101 19.16 156.197-27.038 254 31 11.82 7.014 21.035 19.159 27.533 30.206" fill="none" stroke="#a80036" stroke-width="2"/><path fill="#A80036" stroke="#a80036" d="M1396.151 410.855l-.931-9.804-1.523 5.448-5.448-1.523 7.902 5.88z"/><path d="M1259.363 215.518l141.654 89.334" fill="none" stroke="#a80036" stroke-width="2"/><path fill="#A80036" stroke="#a80036" d="M1405.437 307.64l-5.48-8.185 1.25 5.518-5.517 1.25 9.747 1.417z"/><path d="M1386.824 334.487C1340.119 347.963 1269.925 368.892 1259 376c-12.315 8.013-23.365 20.023-31.749 30.732" fill="none" stroke="#a80036" stroke-width="2"/><path fill="#A80036" stroke="#a80036" d="M1224.056 410.915l8.642-4.725-5.607.752-.751-5.607-2.284 9.58z"/><path d="M1386.259 450.215c-5.993 5.25-12.976 10.396-20.259 13.785-69.832 32.49-290.867 58.008-398.268 68.843" fill="none" stroke="#a80036" stroke-width="2"/><path fill="#A80036" stroke="#a80036" d="M962.705 533.348l9.355 3.08-4.38-3.58 3.58-4.38-8.555 4.88z"/><path d="M353.868 450.081c6.553 5.38 14.206 10.63 22.132 13.919 188.815 78.34 256.75 10.911 457 52 10.97 2.251 22.648 5.383 33.44 8.597" fill="none" stroke="#a80036" stroke-width="2"/><path fill="#A80036" stroke="#a80036" d="M871.33 526.076l-7.456-6.435 2.67 4.987-4.986 2.67 9.773-1.222z"/><path d="M1079.442 450.112c-7.582 4.684-15.743 9.573-23.442 13.888-38.35 21.492-83.656 43.874-113.945 58.423" fill="none" stroke="#a80036" stroke-width="2"/><path fill="#A80036" stroke="#a80036" d="M937.326 524.69l9.844-.283-5.336-1.878 1.879-5.336-6.387 7.497z"/><path d="M1284.393 450.164c-8.19 5.122-17.386 10.212-26.393 13.836-97.936 39.4-220.061 59.319-291.116 68.26" fill="none" stroke="#a80036" stroke-width="2"/><path fill="#A80036" stroke="#a80036" d="M961.857 532.884l9.425 2.86-4.463-3.477 3.476-4.463-8.438 5.08z"/><path d="M660.31 450.099c8.485 4.889 17.789 9.878 26.69 13.901 32.144 14.527 122.912 43.792 177.61 61.002" fill="none" stroke="#a80036" stroke-width="2"/><path fill="#A80036" stroke="#a80036" d="M869.461 526.527l-7.386-6.514 2.616 5.015-5.015 2.617 9.785-1.118z"/><path d="M979.245 450.058l-55.01 68.289" fill="none" stroke="#a80036" stroke-width="2"/><path fill="#A80036" stroke="#a80036" d="M920.809 522.6l8.76-4.5-5.624.606-.606-5.625-2.53 9.519z"/><path d="M1186.608 450.227c-7.004 5.002-14.853 10.015-22.608 13.773-66.584 32.264-149.824 53.282-202.962 64.52" fill="none" stroke="#a80036" stroke-width="2"/><path fill="#A80036" stroke="#a80036" d="M955.991 529.576l9.63 2.07-4.736-3.095 3.095-4.735-7.989 5.76z"/><path d="M465.158 450.089c9.257 5.246 19.687 10.422 29.842 13.911 143.742 49.385 189.742 18.527 338 52 10.81 2.44 22.34 5.608 33.035 8.792" fill="none" stroke="#a80036" stroke-width="2"/><path fill="#A80036" stroke="#a80036" d="M870.885 526.254l-7.463-6.427 2.675 4.984-4.984 2.676 9.772-1.233z"/><path d="M896.535 450.058l8.68 66.952" fill="none" stroke="#a80036" stroke-width="2"/><path fill="#A80036" stroke="#a80036" d="M905.895 522.26l2.81-9.44-3.453 4.482-4.481-3.453 5.124 8.411z"/><path d="M831.842 450.058l59.098 68.63" fill="none" stroke="#a80036" stroke-width="2"/><path fill="#A80036" stroke="#a80036" d="M894.598 522.936l-2.842-9.43-.42 5.642-5.642-.421 8.904 4.21z"/><path d="M263.31 450.124c8.77 5.38 18.788 10.623 28.69 13.876 229.482 75.403 303.962 5.517 541 52 11.106 2.178 22.92 5.319 33.807 8.566" fill="none" stroke="#a80036" stroke-width="2"/><path fill="#A80036" stroke="#a80036" d="M871.738 526.062l-7.45-6.441 2.666 4.99-4.99 2.665 9.774-1.214z"/><path d="M756.303 450.204c6.323 4.681 13.166 9.546 19.697 13.796 33.151 21.572 72.878 43.495 100.03 57.92" fill="none" stroke="#a80036" stroke-width="2"/><path fill="#A80036" stroke="#a80036" d="M880.612 524.347l-6.081-7.747 1.663 5.407-5.407 1.663 9.825.677z"/><path d="M551.818 450.053c5.995 5.245 12.96 10.43 20.182 13.947 106.341 51.785 146.225 23.419 261 52 10.43 2.597 21.57 5.736 31.989 8.835" fill="none" stroke="#a80036" stroke-width="2"/><path fill="#A80036" stroke="#a80036" d="M870.039 526.35l-7.471-6.418 2.682 4.98-4.981 2.683 9.77-1.245z"/><path d="M963.34 533.979c118.57-10.2 393.421-36.722 480.66-69.979 4.54-1.73 9.08-3.938 13.471-6.392" fill="none" stroke="#a80036" stroke-width="2"/><path fill="#A80036" stroke="#a80036" d="M1461.807 455.081l-9.79 1.077 5.47 1.441-1.442 5.47 5.762-7.988z"/><path d="M1511.4 404.892c8.567-10.623 19.808-22.044 32.6-28.892 78.916-42.243 112.36-8.512 199-31 8.942-2.321 18.401-5.458 27.133-8.651" fill="none" stroke="#a80036" stroke-width="2"/><path fill="#A80036" stroke="#a80036" d="M1774.901 334.574l-9.83-.608 5.145 2.352-2.353 5.145 7.038-6.89z"/><path d="M1774.103 334.182c-9.838 3.667-20.875 7.596-31.103 10.818-51.72 16.29-72.984.77-118 31-9.377 6.297-17.458 15.468-23.908 24.497" fill="none" stroke="#a80036" stroke-width="2"/><path fill="#A80036" stroke="#a80036" d="M1598.059 404.905l8.397-5.146-5.562 1.027-1.028-5.563-1.807 9.682z"/><path d="M1597.263 404.782c6.83-10.644 16.174-22.051 27.737-28.782 92.952-54.106 134.398-10.607 240-31 12.063-2.33 24.937-5.355 36.982-8.428" fill="none" stroke="#a80036" stroke-width="2"/><path fill="#A80036" stroke="#a80036" d="M1907.088 335.254l-9.714-1.624 4.873 2.874-2.874 4.873 7.715-6.123z"/><path d="M1259.292 200.77c90.578 11.87 373.99 50.582 605.708 99.23 11.89 2.496 24.597 5.556 36.524 8.605" fill="none" stroke="#a80036" stroke-width="2"/><path fill="#A80036" stroke="#a80036" d="M1906.582 309.91l-7.716-6.121 2.875 4.872-4.872 2.875 9.714-1.626z"/><path d="M1905.59 334.917c-13.095 3.39-27.376 6.983-40.59 10.083-65.005 15.252-89.508-2.956-147 31-10.543 6.227-19.901 15.673-27.438 24.961" fill="none" stroke="#a80036" stroke-width="2"/><path fill="#A80036" stroke="#a80036" d="M1687.446 404.922l8.709-4.6-5.617.67-.67-5.616-2.422 9.546z"/><path d="M1405 450.058v60.47" fill="none" stroke="#a80036" stroke-width="2"/><path fill="#A80036" stroke="#a80036" d="M1405 515.72l4-9-4 4-4-4 4 9z"/><path d="M1405 561.213v54.484" fill="none" stroke="#a80036" stroke-width="2"/><path fill="#A80036" stroke="#a80036" d="M1405 620.752l4-9-4 4-4-4 4 9z"/><path d="M1686.665 404.842c7.982-10.77 18.686-22.293 31.335-28.842 63.642-32.948 250.628-17.445 321-31 11.385-2.193 23.508-5.339 34.686-8.586" fill="none" stroke="#a80036" stroke-width="2"/><path fill="#A80036" stroke="#a80036" d="M2078.749 334.918l-9.765-1.286 4.97 2.702-2.703 4.97 7.497-6.386z"/><path d="M2080.29 335.313l-189.092 67.847" fill="none" stroke="#a80036" stroke-width="2"/><path fill="#A80036" stroke="#a80036" d="M1886.136 404.976l9.822.725-5.116-2.414 2.414-5.115-7.12 6.804z"/></svg>