<svg xmlns="http://www.w3.org/2000/svg" height="298" preserveAspectRatio="none" style="width:481px;height:298px" width="481"><defs><filter height="300%" id="a" width="300%" x="-1" y="-1"><feGaussianBlur result="blurOut" stdDeviation="2"/><feColorMatrix in="blurOut" result="blurOut2" values="0 0 0 0 0 0 0 0 0 0 0 0 0 0 0 0 0 0 .4 0"/><feOffset dx="4" dy="4" in="blurOut2" result="blurOut3"/><feBlend in="SourceGraphic" in2="blurOut3"/></filter></defs><circle cx="21" cy="18" fill="#FEFECE" filter="url(#a)" stroke="#a80036" stroke-width="2" r="8"/><path d="M21 26v27M8 34h26M21 53L8 68m13-15l13 15" fill="none" filter="url(#a)" stroke="#a80036" stroke-width="2"/><text font-family="Futura" font-size="14" lengthAdjust="spacingAndGlyphs" textLength="27" x="7.5" y="89.957">PJM</text><path fill="#FEFECE" filter="url(#a)" stroke="#000" stroke-width="1.5" d="M196 246h146v41.594H196z"/><path fill="#FEFECE" stroke="#000" stroke-width="1.5" d="M325 251v14h12v-8l-6-6h-6z"/><path stroke="#000" stroke-width="1.5" d="M331 251v6M337 257h-6"/><text font-family="Futura" font-size="14" lengthAdjust="spacingAndGlyphs" textLength="116" x="206" y="273.957">Project Plan (Cost)</text><path fill="#FEFECE" filter="url(#a)" stroke="#000" stroke-width="1.5" d="M71 30h182v41.594H71z"/><path fill="#FEFECE" stroke="#000" stroke-width="1.5" d="M236 35v14h12v-8l-6-6h-6z"/><path stroke="#000" stroke-width="1.5" d="M242 35v6M248 41h-6"/><text font-family="Futura" font-size="14" lengthAdjust="spacingAndGlyphs" textLength="152" x="81" y="57.957">Project Plan (Resources)</text><path fill="#FEFECE" filter="url(#a)" stroke="#000" stroke-width="1.5" d="M288 30h176v41.594H288z"/><path fill="#FEFECE" stroke="#000" stroke-width="1.5" d="M447 35v14h12v-8l-6-6h-6z"/><path stroke="#000" stroke-width="1.5" d="M453 35v6M459 41h-6"/><text font-family="Futura" font-size="14" lengthAdjust="spacingAndGlyphs" textLength="146" x="298" y="57.957">Project Plan (Schedule)</text><ellipse cx="268.897" cy="170.148" fill="#FEFECE" filter="url(#a)" rx="62.397" ry="16.148" stroke="#a80036" stroke-width="1.5"/><text font-family="Futura" font-size="14" lengthAdjust="spacingAndGlyphs" textLength="84" x="226.897" y="175.945">Estimate Cost</text><path d="M357.117 72l-70.378 78.271" fill="none" stroke="#a80036" stroke-width="2"/><path fill="#A80036" stroke="#a80036" d="M283.25 154.152l8.992-4.018-5.649.3-.3-5.65-3.043 9.368z"/><path d="M180.883 72l70.378 78.271" fill="none" stroke="#a80036" stroke-width="2"/><path fill="#A80036" stroke="#a80036" d="M254.75 154.152l-3.043-9.367-.3 5.649-5.65-.3 8.993 4.018z"/><path d="M269 186.018v54.597" fill="none" stroke="#a80036" stroke-width="2"/><path fill="#A80036" stroke="#a80036" d="M269 245.863l4-9-4 4-4-4 4 9z"/></svg>