<svg xmlns="http://www.w3.org/2000/svg" height="302" preserveAspectRatio="none" style="width:246px;height:302px" width="246"><defs><filter height="300%" id="a" width="300%" x="-1" y="-1"><feGaussianBlur result="blurOut" stdDeviation="2"/><feColorMatrix in="blurOut" result="blurOut2" values="0 0 0 0 0 0 0 0 0 0 0 0 0 0 0 0 0 0 .4 0"/><feOffset dx="4" dy="4" in="blurOut2" result="blurOut3"/><feBlend in="SourceGraphic" in2="blurOut3"/></filter></defs><circle cx="21" cy="18" fill="#FEFECE" filter="url(#a)" stroke="#a80036" stroke-width="2" r="8"/><path d="M21 26v27M8 34h26M21 53L8 68m13-15l13 15" fill="none" filter="url(#a)" stroke="#a80036" stroke-width="2"/><text font-family="Futura" font-size="14" lengthAdjust="spacingAndGlyphs" textLength="27" x="7.5" y="89.957">PJM</text><path fill="#FEFECE" filter="url(#a)" stroke="#000" stroke-width="1.5" d="M71.5 30h133v41.594h-133z"/><path fill="#FEFECE" stroke="#000" stroke-width="1.5" d="M187.5 35v14h12v-8l-6-6h-6z"/><path stroke="#000" stroke-width="1.5" d="M193.5 35v6M199.5 41h-6"/><text font-family="Futura" font-size="14" lengthAdjust="spacingAndGlyphs" textLength="103" x="81.5" y="57.957">SoW (reviewed)</text><path fill="#FEFECE" filter="url(#a)" stroke="#000" stroke-width="1.5" d="M47 250h182v41.594H47z"/><path fill="#FEFECE" stroke="#000" stroke-width="1.5" d="M212 255v14h12v-8l-6-6h-6z"/><path stroke="#000" stroke-width="1.5" d="M218 255v6M224 261h-6"/><text font-family="Futura" font-size="14" lengthAdjust="spacingAndGlyphs" textLength="152" x="57" y="277.957">Project Plan (Resources)</text><ellipse cx="137.94" cy="171.788" fill="#FEFECE" filter="url(#a)" rx="76.939" ry="17.788" stroke="#a80036" stroke-width="1.5"/><text font-family="Futura" font-size="14" lengthAdjust="spacingAndGlyphs" textLength="115" x="80.439" y="177.585">Identify Resources</text><path d="M138 72.077v76.74" fill="none" stroke="#a80036" stroke-width="2"/><path fill="#A80036" stroke="#a80036" d="M138 153.926l4-9-4 4-4-4 4 9z"/><path d="M138 190.158v54.533" fill="none" stroke="#a80036" stroke-width="2"/><path fill="#A80036" stroke="#a80036" d="M138 249.864l4-9-4 4-4-4 4 9z"/></svg>