<?xml version="1.0" encoding="UTF-8" standalone="no"?><svg xmlns="http://www.w3.org/2000/svg" xmlns:xlink="http://www.w3.org/1999/xlink" contentScriptType="application/ecmascript" contentStyleType="text/css" height="298px" preserveAspectRatio="none" style="width:2591px;height:298px;" version="1.1" viewBox="0 0 2591 298" width="2591px" zoomAndPan="magnify"><defs><filter height="300%" id="finbsn8af9w4e" width="300%" x="-1" y="-1"><feGaussianBlur result="blurOut" stdDeviation="2.0"/><feColorMatrix in="blurOut" result="blurOut2" type="matrix" values="0 0 0 0 0 0 0 0 0 0 0 0 0 0 0 0 0 0 .4 0"/><feOffset dx="4.0" dy="4.0" in="blurOut2" result="blurOut3"/><feBlend in="SourceGraphic" in2="blurOut3" mode="normal"/></filter></defs><g><!--entity PJM--><ellipse cx="21" cy="18" fill="#FEFECE" filter="url(#finbsn8af9w4e)" rx="8" ry="8" style="stroke: #A80036; stroke-width: 2.0;"/><path d="M21,26 L21,53 M8,34 L34,34 M21,53 L8,68 M21,53 L34,68 " fill="none" filter="url(#finbsn8af9w4e)" style="stroke: #A80036; stroke-width: 2.0;"/><text fill="#000000" font-family="Futura" font-size="14" lengthAdjust="spacingAndGlyphs" textLength="27" x="7.5" y="89.957">PJM</text><!--entity PROD_PP_CM--><rect fill="#FEFECE" filter="url(#finbsn8af9w4e)" height="41.5938" style="stroke: #000000; stroke-width: 1.5;" width="141" x="71.5" y="30"/><polygon fill="#FEFECE" points="195.5,35,195.5,49,207.5,49,207.5,41,201.5,35,195.5,35" style="stroke: #000000; stroke-width: 1.5;"/><line style="stroke: #000000; stroke-width: 1.5;" x1="201.5" x2="201.5" y1="35" y2="41"/><line style="stroke: #000000; stroke-width: 1.5;" x1="207.5" x2="201.5" y1="41" y2="41"/><text fill="#000000" font-family="Futura" font-size="14" lengthAdjust="spacingAndGlyphs" textLength="111" x="81.5" y="57.957">Project Plan (CM)</text><!--entity PROD_PP_COST--><rect fill="#FEFECE" filter="url(#finbsn8af9w4e)" height="41.5938" style="stroke: #000000; stroke-width: 1.5;" width="146" x="248" y="30"/><polygon fill="#FEFECE" points="377,35,377,49,389,49,389,41,383,35,377,35" style="stroke: #000000; stroke-width: 1.5;"/><line style="stroke: #000000; stroke-width: 1.5;" x1="383" x2="383" y1="35" y2="41"/><line style="stroke: #000000; stroke-width: 1.5;" x1="389" x2="383" y1="41" y2="41"/><text fill="#000000" font-family="Futura" font-size="14" lengthAdjust="spacingAndGlyphs" textLength="116" x="258" y="57.957">Project Plan (Cost)</text><!--entity PROD_PP_DI--><rect fill="#FEFECE" filter="url(#finbsn8af9w4e)" height="41.5938" style="stroke: #000000; stroke-width: 1.5;" width="170" x="429" y="30"/><polygon fill="#FEFECE" points="582,35,582,49,594,49,594,41,588,35,582,35" style="stroke: #000000; stroke-width: 1.5;"/><line style="stroke: #000000; stroke-width: 1.5;" x1="588" x2="588" y1="35" y2="41"/><line style="stroke: #000000; stroke-width: 1.5;" x1="594" x2="588" y1="41" y2="41"/><text fill="#000000" font-family="Futura" font-size="14" lengthAdjust="spacingAndGlyphs" textLength="140" x="439" y="57.957">Project Plan (Delivery)</text><!--entity PROD_PP_DISPOSAL--><rect fill="#FEFECE" filter="url(#finbsn8af9w4e)" height="41.5938" style="stroke: #000000; stroke-width: 1.5;" width="170" x="634" y="30"/><polygon fill="#FEFECE" points="787,35,787,49,799,49,799,41,793,35,787,35" style="stroke: #000000; stroke-width: 1.5;"/><line style="stroke: #000000; stroke-width: 1.5;" x1="793" x2="793" y1="35" y2="41"/><line style="stroke: #000000; stroke-width: 1.5;" x1="799" x2="793" y1="41" y2="41"/><text fill="#000000" font-family="Futura" font-size="14" lengthAdjust="spacingAndGlyphs" textLength="140" x="644" y="57.957">Project Plan (Disposal)</text><!--entity PROD_PP_ESTIMATED--><rect fill="#FEFECE" filter="url(#finbsn8af9w4e)" height="41.5938" style="stroke: #000000; stroke-width: 1.5;" width="178" x="839" y="30"/><polygon fill="#FEFECE" points="1000,35,1000,49,1012,49,1012,41,1006,35,1000,35" style="stroke: #000000; stroke-width: 1.5;"/><line style="stroke: #000000; stroke-width: 1.5;" x1="1006" x2="1006" y1="35" y2="41"/><line style="stroke: #000000; stroke-width: 1.5;" x1="1012" x2="1006" y1="41" y2="41"/><text fill="#000000" font-family="Futura" font-size="14" lengthAdjust="spacingAndGlyphs" textLength="148" x="849" y="57.957">Project Plan (Estimated)</text><!--entity PROD_PP_MILESTONES--><rect fill="#FEFECE" filter="url(#finbsn8af9w4e)" height="41.5938" style="stroke: #000000; stroke-width: 1.5;" width="185" x="1052.5" y="30"/><polygon fill="#FEFECE" points="1220.5,35,1220.5,49,1232.5,49,1232.5,41,1226.5,35,1220.5,35" style="stroke: #000000; stroke-width: 1.5;"/><line style="stroke: #000000; stroke-width: 1.5;" x1="1226.5" x2="1226.5" y1="35" y2="41"/><line style="stroke: #000000; stroke-width: 1.5;" x1="1232.5" x2="1226.5" y1="41" y2="41"/><text fill="#000000" font-family="Futura" font-size="14" lengthAdjust="spacingAndGlyphs" textLength="155" x="1062.5" y="57.957">Project Plan (Milestones)</text><!--entity PROD_PP_SCOPE--><rect fill="#FEFECE" filter="url(#finbsn8af9w4e)" height="41.5938" style="stroke: #000000; stroke-width: 1.5;" width="157" x="1272.5" y="30"/><polygon fill="#FEFECE" points="1412.5,35,1412.5,49,1424.5,49,1424.5,41,1418.5,35,1412.5,35" style="stroke: #000000; stroke-width: 1.5;"/><line style="stroke: #000000; stroke-width: 1.5;" x1="1418.5" x2="1418.5" y1="35" y2="41"/><line style="stroke: #000000; stroke-width: 1.5;" x1="1424.5" x2="1418.5" y1="41" y2="41"/><text fill="#000000" font-family="Futura" font-size="14" lengthAdjust="spacingAndGlyphs" textLength="127" x="1282.5" y="57.957">Project Plan (Scope)</text><!--entity PROD_PP_RESOURCES--><rect fill="#FEFECE" filter="url(#finbsn8af9w4e)" height="41.5938" style="stroke: #000000; stroke-width: 1.5;" width="182" x="1465" y="30"/><polygon fill="#FEFECE" points="1630,35,1630,49,1642,49,1642,41,1636,35,1630,35" style="stroke: #000000; stroke-width: 1.5;"/><line style="stroke: #000000; stroke-width: 1.5;" x1="1636" x2="1636" y1="35" y2="41"/><line style="stroke: #000000; stroke-width: 1.5;" x1="1642" x2="1636" y1="41" y2="41"/><text fill="#000000" font-family="Futura" font-size="14" lengthAdjust="spacingAndGlyphs" textLength="152" x="1475" y="57.957">Project Plan (Resources)</text><!--entity PROD_PP_RISK--><rect fill="#FEFECE" filter="url(#finbsn8af9w4e)" height="41.5938" style="stroke: #000000; stroke-width: 1.5;" width="142" x="1682" y="30"/><polygon fill="#FEFECE" points="1807,35,1807,49,1819,49,1819,41,1813,35,1807,35" style="stroke: #000000; stroke-width: 1.5;"/><line style="stroke: #000000; stroke-width: 1.5;" x1="1813" x2="1813" y1="35" y2="41"/><line style="stroke: #000000; stroke-width: 1.5;" x1="1819" x2="1813" y1="41" y2="41"/><text fill="#000000" font-family="Futura" font-size="14" lengthAdjust="spacingAndGlyphs" textLength="112" x="1692" y="57.957">Project Plan (Risk)</text><!--entity PROD_PP_SBS--><rect fill="#FEFECE" filter="url(#finbsn8af9w4e)" height="41.5938" style="stroke: #000000; stroke-width: 1.5;" width="142" x="1859" y="30"/><polygon fill="#FEFECE" points="1984,35,1984,49,1996,49,1996,41,1990,35,1984,35" style="stroke: #000000; stroke-width: 1.5;"/><line style="stroke: #000000; stroke-width: 1.5;" x1="1990" x2="1990" y1="35" y2="41"/><line style="stroke: #000000; stroke-width: 1.5;" x1="1996" x2="1990" y1="41" y2="41"/><text fill="#000000" font-family="Futura" font-size="14" lengthAdjust="spacingAndGlyphs" textLength="112" x="1869" y="57.957">Project Plan (SBS)</text><!--entity PROD_PP_SCHEDULE--><rect fill="#FEFECE" filter="url(#finbsn8af9w4e)" height="41.5938" style="stroke: #000000; stroke-width: 1.5;" width="176" x="2036" y="30"/><polygon fill="#FEFECE" points="2195,35,2195,49,2207,49,2207,41,2201,35,2195,35" style="stroke: #000000; stroke-width: 1.5;"/><line style="stroke: #000000; stroke-width: 1.5;" x1="2201" x2="2201" y1="35" y2="41"/><line style="stroke: #000000; stroke-width: 1.5;" x1="2207" x2="2201" y1="41" y2="41"/><text fill="#000000" font-family="Futura" font-size="14" lengthAdjust="spacingAndGlyphs" textLength="146" x="2046" y="57.957">Project Plan (Schedule)</text><!--entity PROD_PP_TASKS--><rect fill="#FEFECE" filter="url(#finbsn8af9w4e)" height="41.5938" style="stroke: #000000; stroke-width: 1.5;" width="152" x="2247" y="30"/><polygon fill="#FEFECE" points="2382,35,2382,49,2394,49,2394,41,2388,35,2382,35" style="stroke: #000000; stroke-width: 1.5;"/><line style="stroke: #000000; stroke-width: 1.5;" x1="2388" x2="2388" y1="35" y2="41"/><line style="stroke: #000000; stroke-width: 1.5;" x1="2394" x2="2388" y1="41" y2="41"/><text fill="#000000" font-family="Futura" font-size="14" lengthAdjust="spacingAndGlyphs" textLength="122" x="2257" y="57.957">Project Plan (Tasks)</text><!--entity PROD_PP_WT--><rect fill="#FEFECE" filter="url(#finbsn8af9w4e)" height="41.5938" style="stroke: #000000; stroke-width: 1.5;" width="140" x="2434" y="30"/><polygon fill="#FEFECE" points="2557,35,2557,49,2569,49,2569,41,2563,35,2557,35" style="stroke: #000000; stroke-width: 1.5;"/><line style="stroke: #000000; stroke-width: 1.5;" x1="2563" x2="2563" y1="35" y2="41"/><line style="stroke: #000000; stroke-width: 1.5;" x1="2569" x2="2563" y1="41" y2="41"/><text fill="#000000" font-family="Futura" font-size="14" lengthAdjust="spacingAndGlyphs" textLength="110" x="2444" y="57.957">Project Plan (WT)</text><!--entity PROD_PP_INTEGRATED--><rect fill="#FEFECE" filter="url(#finbsn8af9w4e)" height="41.5938" style="stroke: #000000; stroke-width: 1.5;" width="182" x="1260" y="246"/><polygon fill="#FEFECE" points="1425,251,1425,265,1437,265,1437,257,1431,251,1425,251" style="stroke: #000000; stroke-width: 1.5;"/><line style="stroke: #000000; stroke-width: 1.5;" x1="1431" x2="1431" y1="251" y2="257"/><line style="stroke: #000000; stroke-width: 1.5;" x1="1437" x2="1431" y1="257" y2="257"/><text fill="#000000" font-family="Futura" font-size="14" lengthAdjust="spacingAndGlyphs" textLength="152" x="1270" y="273.957">Project Plan (integrated)</text><ellipse cx="1350.9472" cy="170.1478" fill="#FEFECE" filter="url(#finbsn8af9w4e)" rx="57.4472" ry="16.1478" style="stroke: #A80036; stroke-width: 1.5;"/><text fill="#000000" font-family="Futura" font-size="14" lengthAdjust="spacingAndGlyphs" textLength="77" x="1312.4472" y="175.9446">Integrate PP</text><!--link PROD_PP_CM to PM1_15--><path d="M177.164,72.0686 C192.799,80.3963 211.7651,89.1276 230,94 C432.1904,148.0261 1083.0185,164.8789 1288.3347,168.9181 " fill="none" id="PROD_PP_CM-PM1_15" style="stroke: #A80036; stroke-width: 2.0;"/><polygon fill="#A80036" points="1293.3962,169.0168,1284.4761,164.8417,1288.3972,168.9191,1284.3197,172.8401,1293.3962,169.0168" style="stroke: #A80036; stroke-width: 1.0;"/><!--link PROD_PP_COST to PM1_15--><path d="M357.4828,72.1696 C373.4042,80.4082 392.6075,89.0442 411,94 C577.509,138.8649 1106.4646,161.3543 1288.6373,167.914 " fill="none" id="PROD_PP_COST-PM1_15" style="stroke: #A80036; stroke-width: 2.0;"/><polygon fill="#A80036" points="1293.6632,168.0941,1284.8123,163.7742,1288.6664,167.915,1284.5257,171.7691,1293.6632,168.0941" style="stroke: #A80036; stroke-width: 1.0;"/><!--link PROD_PP_DI to PM1_15--><path d="M556.2008,72.1056 C574.2058,80.2296 595.7092,88.7973 616,94 C743.1836,126.6105 1136.9054,155.6617 1289.601,165.9957 " fill="none" id="PROD_PP_DI-PM1_15" style="stroke: #A80036; stroke-width: 2.0;"/><polygon fill="#A80036" points="1294.9304,166.3554,1286.2203,161.7582,1289.9418,166.0185,1285.6814,169.74,1294.9304,166.3554" style="stroke: #A80036; stroke-width: 1.0;"/><!--link PROD_PP_DISPOSAL to PM1_15--><path d="M762.052,72.0444 C779.9191,80.0087 801.0934,88.4758 821,94 C986.652,139.9691 1189.5678,159.184 1289.4532,166.3093 " fill="none" id="PROD_PP_DISPOSAL-PM1_15" style="stroke: #A80036; stroke-width: 2.0;"/><polygon fill="#A80036" points="1294.7151,166.6803,1286.0188,162.0571,1289.7275,166.3286,1285.456,170.0373,1294.7151,166.6803" style="stroke: #A80036; stroke-width: 1.0;"/><!--link PROD_PP_ESTIMATED to PM1_15--><path d="M976.1909,72.1074 C994.4037,79.6212 1015.4515,87.7581 1035,94 C1126.1015,123.089 1235.0821,146.9729 1298.3369,159.7937 " fill="none" id="PROD_PP_ESTIMATED-PM1_15" style="stroke: #A80036; stroke-width: 2.0;"/><polygon fill="#A80036" points="1303.5619,160.8486,1295.5316,155.1465,1298.6608,159.859,1293.9483,162.9883,1303.5619,160.8486" style="stroke: #A80036; stroke-width: 1.0;"/><!--link PROD_PP_MILESTONES to PM1_15--><path d="M1181.3545,72.0009 C1221.312,95.0831 1284.7199,131.712 1321.6481,153.0443 " fill="none" id="PROD_PP_MILESTONES-PM1_15" style="stroke: #A80036; stroke-width: 2.0;"/><polygon fill="#A80036" points="1326.0169,155.568,1320.2247,147.6024,1321.6874,153.0669,1316.2229,154.5296,1326.0169,155.568" style="stroke: #A80036; stroke-width: 1.0;"/><!--link PROD_PP_SCOPE to PM1_15--><path d="M1351,72.0009 C1351,93.5297 1351,126.8432 1351,148.5383 " fill="none" id="PROD_PP_SCOPE-PM1_15" style="stroke: #A80036; stroke-width: 2.0;"/><polygon fill="#A80036" points="1351,153.7895,1355,144.7895,1351,148.7895,1347,144.7895,1351,153.7895" style="stroke: #A80036; stroke-width: 1.0;"/><!--link PROD_PP_RESOURCES to PM1_15--><path d="M1519.822,72.0009 C1480.0585,95.0831 1416.9583,131.712 1380.2094,153.0443 " fill="none" id="PROD_PP_RESOURCES-PM1_15" style="stroke: #A80036; stroke-width: 2.0;"/><polygon fill="#A80036" points="1375.8618,155.568,1385.6536,154.5092,1380.1861,153.0579,1381.6374,147.5904,1375.8618,155.568" style="stroke: #A80036; stroke-width: 1.0;"/><!--link PROD_PP_RISK to PM1_15--><path d="M1714.3649,72.1332 C1699.2791,79.7815 1681.6363,88.0027 1665,94 C1576.3424,125.9606 1468.7952,148.7071 1405.3485,160.5663 " fill="none" id="PROD_PP_RISK-PM1_15" style="stroke: #A80036; stroke-width: 2.0;"/><polygon fill="#A80036" points="1400.1035,161.5406,1409.6827,163.8294,1405.0194,160.6273,1408.2215,155.964,1400.1035,161.5406" style="stroke: #A80036; stroke-width: 1.0;"/><!--link PROD_PP_SBS to PM1_15--><path d="M1892.9116,72.2078 C1877.5815,80.1473 1859.3599,88.553 1842,94 C1692.1627,141.0144 1507.1177,159.5962 1412.7228,166.4082 " fill="none" id="PROD_PP_SBS-PM1_15" style="stroke: #A80036; stroke-width: 2.0;"/><polygon fill="#A80036" points="1407.4672,166.782,1416.7284,170.1332,1412.4546,166.4271,1416.1606,162.1533,1407.4672,166.782" style="stroke: #A80036; stroke-width: 1.0;"/><!--link PROD_PP_SCHEDULE to PM1_15--><path d="M2080.2146,72.0885 C2061.7185,80.159 2039.7033,88.6918 2019,94 C1801.4777,149.7714 1533.6238,164.6396 1413.9428,168.5851 " fill="none" id="PROD_PP_SCHEDULE-PM1_15" style="stroke: #A80036; stroke-width: 2.0;"/><polygon fill="#A80036" points="1408.7041,168.7539,1417.8283,172.4618,1413.7015,168.5928,1417.5705,164.4659,1408.7041,168.7539" style="stroke: #A80036; stroke-width: 1.0;"/><!--link PROD_PP_TASKS to PM1_15--><path d="M2285.2088,72.103 C2268.7411,80.3303 2248.911,88.976 2230,94 C2075.2531,135.1111 1587.0304,159.7613 1413.2043,167.4184 " fill="none" id="PROD_PP_TASKS-PM1_15" style="stroke: #A80036; stroke-width: 2.0;"/><polygon fill="#A80036" points="1408.1539,167.6399,1417.3207,171.2413,1413.1491,167.4206,1416.9698,163.249,1408.1539,167.6399" style="stroke: #A80036; stroke-width: 1.0;"/><!--link PROD_PP_WT to PM1_15--><path d="M2469.2555,72.042 C2453.8016,80.365 2435.0483,89.0999 2417,94 C2225.8724,145.8906 1612.2026,164.088 1413.6312,168.7012 " fill="none" id="PROD_PP_WT-PM1_15" style="stroke: #A80036; stroke-width: 2.0;"/><polygon fill="#A80036" points="1408.4474,168.8208,1417.5373,172.612,1413.4461,168.7054,1417.3527,164.6141,1408.4474,168.8208" style="stroke: #A80036; stroke-width: 1.0;"/><!--link PM1_15 to PROD_PP_INTEGRATED--><path d="M1351,186.0176 C1351,200.8422 1351,223.1604 1351,240.6154 " fill="none" id="PM1_15-PROD_PP_INTEGRATED" style="stroke: #A80036; stroke-width: 2.0;"/><polygon fill="#A80036" points="1351,245.8627,1355,236.8627,1351,240.8627,1347,236.8627,1351,245.8627" style="stroke: #A80036; stroke-width: 1.0;"/><!--
@startuml



skinparam handwritten false
skinparam defaultFontName Futura


actor PJM

artifact "Project Plan (CM)" as PROD_PP_CM
artifact "Project Plan (Cost)" as PROD_PP_COST
artifact "Project Plan (Delivery)" as PROD_PP_DI
artifact "Project Plan (Disposal)" as PROD_PP_DISPOSAL
artifact "Project Plan (Estimated)" as PROD_PP_ESTIMATED
artifact "Project Plan (Milestones)" as PROD_PP_MILESTONES
artifact "Project Plan (Scope)" as PROD_PP_SCOPE
artifact "Project Plan (Resources)" as PROD_PP_RESOURCES
artifact "Project Plan (Risk)" as PROD_PP_RISK
artifact "Project Plan (SBS)" as PROD_PP_SBS
artifact "Project Plan (Schedule)" as PROD_PP_SCHEDULE
artifact "Project Plan (Tasks)" as PROD_PP_TASKS
artifact "Project Plan (WT)" as PROD_PP_WT
artifact "Project Plan (integrated)" as PROD_PP_INTEGRATED

usecase "Integrate PP" as PM1_15
PROD_PP_CM ==> PM1_15
PROD_PP_COST ==> PM1_15
PROD_PP_DI ==> PM1_15
PROD_PP_DISPOSAL ==> PM1_15
PROD_PP_ESTIMATED ==> PM1_15
PROD_PP_MILESTONES ==> PM1_15
PROD_PP_SCOPE ==> PM1_15
PROD_PP_RESOURCES ==> PM1_15
PROD_PP_RISK ==> PM1_15
PROD_PP_SBS ==> PM1_15
PROD_PP_SCHEDULE ==> PM1_15
PROD_PP_TASKS ==> PM1_15
PROD_PP_WT ==> PM1_15
PM1_15 ==> PROD_PP_INTEGRATED

@enduml

PlantUML version 1.2019.00(Sun Jan 13 07:46:42 PST 2019)
(GPL source distribution)
Java Runtime: Java(TM) SE Runtime Environment
JVM: Java HotSpot(TM) 64-Bit Server VM
Java Version: 10.0.1+10
Operating System: Mac OS X
OS Version: 10.14.3
Default Encoding: UTF-8
Language: en
Country: US
--></g></svg>