<?xml version="1.0" encoding="UTF-8" standalone="no"?><svg xmlns="http://www.w3.org/2000/svg" xmlns:xlink="http://www.w3.org/1999/xlink" contentScriptType="application/ecmascript" contentStyleType="text/css" height="224px" preserveAspectRatio="none" style="width:277px;height:224px;" version="1.1" viewBox="0 0 277 224" width="277px" zoomAndPan="magnify"><defs><filter height="300%" id="f1v08036btupc8" width="300%" x="-1" y="-1"><feGaussianBlur result="blurOut" stdDeviation="2.0"/><feColorMatrix in="blurOut" result="blurOut2" type="matrix" values="0 0 0 0 0 0 0 0 0 0 0 0 0 0 0 0 0 0 .4 0"/><feOffset dx="4.0" dy="4.0" in="blurOut2" result="blurOut3"/><feBlend in="SourceGraphic" in2="blurOut3" mode="normal"/></filter></defs><g><!--cluster SoW--><rect fill="#FFFFFF" filter="url(#f1v08036btupc8)" height="88" style="stroke: #000000; stroke-width: 1.5;" width="141" x="119" y="125"/><polygon fill="#FFFFFF" points="243,130,243,144,255,144,255,136,249,130,243,130" style="stroke: #000000; stroke-width: 1.5;"/><line style="stroke: #000000; stroke-width: 1.5;" x1="249" x2="249" y1="130" y2="136"/><line style="stroke: #000000; stroke-width: 1.5;" x1="255" x2="249" y1="136" y2="136"/><text fill="#000000" font-family="Futura" font-size="14" font-weight="bold" lengthAdjust="spacingAndGlyphs" textLength="35" x="172" y="141.966">SoW</text><!--entity PROD_SOW--><ellipse cx="236" cy="170" fill="#FEFECE" filter="url(#f1v08036btupc8)" rx="12" ry="12" style="stroke: #A80036; stroke-width: 2.0;"/><polygon fill="#A80036" points="232,158,238,153,236,158,238,163,232,158" style="stroke: #A80036; stroke-width: 1.0;"/><text fill="#000000" font-family="Futura" font-size="14" lengthAdjust="spacingAndGlyphs" textLength="32" x="220" y="200.957">initial</text><!--entity PROD_SOW_REVIEWED--><ellipse cx="156" cy="170" fill="#FEFECE" filter="url(#f1v08036btupc8)" rx="12" ry="12" style="stroke: #A80036; stroke-width: 2.0;"/><polygon fill="#A80036" points="152,158,158,153,156,158,158,163,152,158" style="stroke: #A80036; stroke-width: 1.0;"/><text fill="#000000" font-family="Futura" font-size="14" lengthAdjust="spacingAndGlyphs" textLength="58" x="127" y="200.957">reviewed</text><!--entity PJM--><ellipse cx="21" cy="18" fill="#FEFECE" filter="url(#f1v08036btupc8)" rx="8" ry="8" style="stroke: #A80036; stroke-width: 2.0;"/><path d="M21,26 L21,53 M8,34 L34,34 M21,53 L8,68 M21,53 L34,68 " fill="none" filter="url(#f1v08036btupc8)" style="stroke: #A80036; stroke-width: 2.0;"/><text fill="#000000" font-family="Futura" font-size="14" lengthAdjust="spacingAndGlyphs" textLength="27" x="7.5" y="89.957">PJM</text><!--entity SYS--><ellipse cx="86" cy="18" fill="#FEFECE" filter="url(#f1v08036btupc8)" rx="8" ry="8" style="stroke: #A80036; stroke-width: 2.0;"/><path d="M86,26 L86,53 M73,34 L99,34 M86,53 L73,68 M86,53 L99,68 " fill="none" filter="url(#f1v08036btupc8)" style="stroke: #A80036; stroke-width: 2.0;"/><text fill="#000000" font-family="Futura" font-size="14" lengthAdjust="spacingAndGlyphs" textLength="24" x="74" y="89.957">SYS</text><ellipse cx="196.0685" cy="51.1478" fill="#FEFECE" filter="url(#f1v08036btupc8)" rx="59.5685" ry="16.1478" style="stroke: #A80036; stroke-width: 1.5;"/><text fill="#000000" font-family="Futura" font-size="14" lengthAdjust="spacingAndGlyphs" textLength="80" x="156.0685" y="56.9446">Review SoW</text><!--link PROD_SOW to PM1_1--><path d="M228.0487,153.9565 C220.5566,129.8881 209.4684,94.2672 202.4937,71.8611 " fill="none" id="PROD_SOW-PM1_1" style="stroke: #A80036; stroke-width: 2.0;"/><polygon fill="#A80036" points="200.9852,67.0148,199.8411,76.797,202.4714,71.7888,207.4795,74.4191,200.9852,67.0148" style="stroke: #A80036; stroke-width: 1.0;"/><!--link PM1_1 to PROD_SOW_REVIEWED--><path d="M191.0148,67.0148 C184.6535,87.4507 173.5162,123.2292 165.5087,148.9533 " fill="none" id="PM1_1-PROD_SOW_REVIEWED" style="stroke: #A80036; stroke-width: 2.0;"/><polygon fill="#A80036" points="163.9513,153.9565,170.4455,146.5521,165.4374,149.1825,162.8071,144.1743,163.9513,153.9565" style="stroke: #A80036; stroke-width: 1.0;"/><!--
@startuml



skinparam handwritten false
skinparam defaultFontName Futura


actor PJM
actor SYS

artifact "SoW" {
control "initial" as PROD_SOW
control "reviewed" as PROD_SOW_REVIEWED
}

usecase "Review SoW" as PM1_1
PROD_SOW ==> PM1_1
PM1_1 ==> PROD_SOW_REVIEWED

@enduml

PlantUML version 1.2019.00(Sun Jan 13 07:46:42 PST 2019)
(GPL source distribution)
Java Runtime: Java(TM) SE Runtime Environment
JVM: Java HotSpot(TM) 64-Bit Server VM
Java Version: 10.0.1+10
Operating System: Mac OS X
OS Version: 10.14.3
Default Encoding: UTF-8
Language: en
Country: US
--></g></svg>