<?xml version="1.0" encoding="UTF-8" standalone="no"?><svg xmlns="http://www.w3.org/2000/svg" xmlns:xlink="http://www.w3.org/1999/xlink" contentScriptType="application/ecmascript" contentStyleType="text/css" height="304px" preserveAspectRatio="none" style="width:236px;height:304px;" version="1.1" viewBox="0 0 236 304" width="236px" zoomAndPan="magnify"><defs><filter height="300%" id="fc0v3u434px2k" width="300%" x="-1" y="-1"><feGaussianBlur result="blurOut" stdDeviation="2.0"/><feColorMatrix in="blurOut" result="blurOut2" type="matrix" values="0 0 0 0 0 0 0 0 0 0 0 0 0 0 0 0 0 0 .4 0"/><feOffset dx="4.0" dy="4.0" in="blurOut2" result="blurOut3"/><feBlend in="SourceGraphic" in2="blurOut3" mode="normal"/></filter></defs><g><!--entity PJM--><ellipse cx="21" cy="18" fill="#FEFECE" filter="url(#fc0v3u434px2k)" rx="8" ry="8" style="stroke: #A80036; stroke-width: 2.0;"/><path d="M21,26 L21,53 M8,34 L34,34 M21,53 L8,68 M21,53 L34,68 " fill="none" filter="url(#fc0v3u434px2k)" style="stroke: #A80036; stroke-width: 2.0;"/><text fill="#000000" font-family="Futura" font-size="14" lengthAdjust="spacingAndGlyphs" textLength="27" x="7.5" y="89.957">PJM</text><!--entity PROD_PP_CM--><rect fill="#FEFECE" filter="url(#fc0v3u434px2k)" height="41.5938" style="stroke: #000000; stroke-width: 1.5;" width="141" x="71.5" y="252"/><polygon fill="#FEFECE" points="195.5,257,195.5,271,207.5,271,207.5,263,201.5,257,195.5,257" style="stroke: #000000; stroke-width: 1.5;"/><line style="stroke: #000000; stroke-width: 1.5;" x1="201.5" x2="201.5" y1="257" y2="263"/><line style="stroke: #000000; stroke-width: 1.5;" x1="207.5" x2="201.5" y1="263" y2="263"/><text fill="#000000" font-family="Futura" font-size="14" lengthAdjust="spacingAndGlyphs" textLength="111" x="81.5" y="279.957">Project Plan (CM)</text><!--entity PROD_PP_SBS--><rect fill="#FEFECE" filter="url(#fc0v3u434px2k)" height="41.5938" style="stroke: #000000; stroke-width: 1.5;" width="142" x="71" y="30"/><polygon fill="#FEFECE" points="196,35,196,49,208,49,208,41,202,35,196,35" style="stroke: #000000; stroke-width: 1.5;"/><line style="stroke: #000000; stroke-width: 1.5;" x1="202" x2="202" y1="35" y2="41"/><line style="stroke: #000000; stroke-width: 1.5;" x1="208" x2="202" y1="41" y2="41"/><text fill="#000000" font-family="Futura" font-size="14" lengthAdjust="spacingAndGlyphs" textLength="112" x="81" y="57.957">Project Plan (SBS)</text><ellipse cx="141.8184" cy="173.0637" fill="#FEFECE" filter="url(#fc0v3u434px2k)" rx="83.3184" ry="19.0637" style="stroke: #A80036; stroke-width: 1.5;"/><text fill="#000000" font-family="Futura" font-size="14" lengthAdjust="spacingAndGlyphs" textLength="131" x="76.3184" y="178.8606">Identify CM Strategy</text><!--link PROD_PP_SBS to PM1_13--><path d="M142,72.2508 C142,93.6132 142,126.4954 142,148.8373 " fill="none" id="PROD_PP_SBS-PM1_13" style="stroke: #A80036; stroke-width: 2.0;"/><polygon fill="#A80036" points="142,153.9961,146,144.9961,142,148.9961,138,144.9961,142,153.9961" style="stroke: #A80036; stroke-width: 1.0;"/><!--link PM1_13 to PROD_PP_CM--><path d="M142,192.281 C142,207.7114 142,229.5147 142,246.5718 " fill="none" id="PM1_13-PROD_PP_CM" style="stroke: #A80036; stroke-width: 2.0;"/><polygon fill="#A80036" points="142,251.7008,146,242.7008,142,246.7008,138,242.7008,142,251.7008" style="stroke: #A80036; stroke-width: 1.0;"/><!--
@startuml



skinparam handwritten false
skinparam defaultFontName Futura


actor PJM

artifact "Project Plan (CM)" as PROD_PP_CM
artifact "Project Plan (SBS)" as PROD_PP_SBS

usecase "Identify CM Strategy" as PM1_13
PROD_PP_SBS ==> PM1_13
PM1_13 ==> PROD_PP_CM

@enduml

PlantUML version 1.2019.00(Sun Jan 13 07:46:42 PST 2019)
(GPL source distribution)
Java Runtime: Java(TM) SE Runtime Environment
JVM: Java HotSpot(TM) 64-Bit Server VM
Java Version: 10.0.1+10
Operating System: Mac OS X
OS Version: 10.14.3
Default Encoding: UTF-8
Language: en
Country: US
--></g></svg>