<?xml version="1.0" encoding="UTF-8" standalone="no"?><svg xmlns="http://www.w3.org/2000/svg" xmlns:xlink="http://www.w3.org/1999/xlink" contentScriptType="application/ecmascript" contentStyleType="text/css" height="311px" preserveAspectRatio="none" style="width:253px;height:311px;" version="1.1" viewBox="0 0 253 311" width="253px" zoomAndPan="magnify"><defs><filter height="300%" id="fp78hq4am6a2c" width="300%" x="-1" y="-1"><feGaussianBlur result="blurOut" stdDeviation="2.0"/><feColorMatrix in="blurOut" result="blurOut2" type="matrix" values="0 0 0 0 0 0 0 0 0 0 0 0 0 0 0 0 0 0 .4 0"/><feOffset dx="4.0" dy="4.0" in="blurOut2" result="blurOut3"/><feBlend in="SourceGraphic" in2="blurOut3" mode="normal"/></filter></defs><g><!--entity PJM--><ellipse cx="21" cy="18" fill="#FEFECE" filter="url(#fp78hq4am6a2c)" rx="8" ry="8" style="stroke: #A80036; stroke-width: 2.0;"/><path d="M21,26 L21,53 M8,34 L34,34 M21,53 L8,68 M21,53 L34,68 " fill="none" filter="url(#fp78hq4am6a2c)" style="stroke: #A80036; stroke-width: 2.0;"/><text fill="#000000" font-family="Futura" font-size="14" lengthAdjust="spacingAndGlyphs" textLength="27" x="7.5" y="89.957">PJM</text><!--entity PROD_REPO--><rect fill="#FEFECE" filter="url(#fp78hq4am6a2c)" height="41.5938" style="stroke: #000000; stroke-width: 1.5;" width="143" x="70.5" y="259"/><polygon fill="#FEFECE" points="196.5,264,196.5,278,208.5,278,208.5,270,202.5,264,196.5,264" style="stroke: #000000; stroke-width: 1.5;"/><line style="stroke: #000000; stroke-width: 1.5;" x1="202.5" x2="202.5" y1="264" y2="270"/><line style="stroke: #000000; stroke-width: 1.5;" x1="208.5" x2="202.5" y1="270" y2="270"/><text fill="#000000" font-family="Futura" font-size="14" lengthAdjust="spacingAndGlyphs" textLength="113" x="80.5" y="286.957">Project Repository</text><!--entity PROD_PP_CM--><rect fill="#FEFECE" filter="url(#fp78hq4am6a2c)" height="41.5938" style="stroke: #000000; stroke-width: 1.5;" width="141" x="71.5" y="30"/><polygon fill="#FEFECE" points="195.5,35,195.5,49,207.5,49,207.5,41,201.5,35,195.5,35" style="stroke: #000000; stroke-width: 1.5;"/><line style="stroke: #000000; stroke-width: 1.5;" x1="201.5" x2="201.5" y1="35" y2="41"/><line style="stroke: #000000; stroke-width: 1.5;" x1="207.5" x2="201.5" y1="41" y2="41"/><text fill="#000000" font-family="Futura" font-size="14" lengthAdjust="spacingAndGlyphs" textLength="111" x="81.5" y="57.957">Project Plan (CM)</text><ellipse cx="141.8193" cy="176.4639" fill="#FEFECE" filter="url(#fp78hq4am6a2c)" rx="100.3193" ry="22.4639" style="stroke: #A80036; stroke-width: 1.5;"/><text fill="#000000" font-family="Futura" font-size="14" lengthAdjust="spacingAndGlyphs" textLength="171" x="56.3193" y="182.2607">Establish Project Repository</text><!--link PROD_PP_CM to PM1_18--><path d="M142,72.0059 C142,93.0246 142,125.4792 142,148.6389 " fill="none" id="PROD_PP_CM-PM1_18" style="stroke: #A80036; stroke-width: 2.0;"/><polygon fill="#A80036" points="142,153.7252,146,144.7252,142,148.7252,138,144.7252,142,153.7252" style="stroke: #A80036; stroke-width: 1.0;"/><!--link PM1_18 to PROD_REPO--><path d="M142,199.2135 C142,215.2838 142,236.8774 142,253.6966 " fill="none" id="PM1_18-PROD_REPO" style="stroke: #A80036; stroke-width: 2.0;"/><polygon fill="#A80036" points="142,258.7517,146,249.7517,142,253.7517,138,249.7517,142,258.7517" style="stroke: #A80036; stroke-width: 1.0;"/><!--
@startuml



skinparam handwritten false
skinparam defaultFontName Futura


actor PJM

artifact "Project Repository" as PROD_REPO
artifact "Project Plan (CM)" as PROD_PP_CM

usecase "Establish Project Repository" as PM1_18
PROD_PP_CM ==> PM1_18
PM1_18 ==> PROD_REPO

@enduml

PlantUML version 1.2019.00(Sun Jan 13 07:46:42 PST 2019)
(GPL source distribution)
Java Runtime: Java(TM) SE Runtime Environment
JVM: Java HotSpot(TM) 64-Bit Server VM
Java Version: 10.0.1+10
Operating System: Mac OS X
OS Version: 10.14.3
Default Encoding: UTF-8
Language: en
Country: US
--></g></svg>