<svg xmlns="http://www.w3.org/2000/svg" height="298" preserveAspectRatio="none" style="width:2591px;height:298px" width="2591"><defs><filter height="300%" id="a" width="300%" x="-1" y="-1"><feGaussianBlur result="blurOut" stdDeviation="2"/><feColorMatrix in="blurOut" result="blurOut2" values="0 0 0 0 0 0 0 0 0 0 0 0 0 0 0 0 0 0 .4 0"/><feOffset dx="4" dy="4" in="blurOut2" result="blurOut3"/><feBlend in="SourceGraphic" in2="blurOut3"/></filter></defs><circle cx="21" cy="18" fill="#FEFECE" filter="url(#a)" stroke="#a80036" stroke-width="2" r="8"/><path d="M21 26v27M8 34h26M21 53L8 68m13-15l13 15" fill="none" filter="url(#a)" stroke="#a80036" stroke-width="2"/><text font-family="Futura" font-size="14" lengthAdjust="spacingAndGlyphs" textLength="27" x="7.5" y="89.957">PJM</text><path fill="#FEFECE" filter="url(#a)" stroke="#000" stroke-width="1.5" d="M71.5 30h141v41.594h-141z"/><path fill="#FEFECE" stroke="#000" stroke-width="1.5" d="M195.5 35v14h12v-8l-6-6h-6z"/><path stroke="#000" stroke-width="1.5" d="M201.5 35v6M207.5 41h-6"/><text font-family="Futura" font-size="14" lengthAdjust="spacingAndGlyphs" textLength="111" x="81.5" y="57.957">Project Plan (CM)</text><path fill="#FEFECE" filter="url(#a)" stroke="#000" stroke-width="1.5" d="M248 30h146v41.594H248z"/><path fill="#FEFECE" stroke="#000" stroke-width="1.5" d="M377 35v14h12v-8l-6-6h-6z"/><path stroke="#000" stroke-width="1.5" d="M383 35v6M389 41h-6"/><text font-family="Futura" font-size="14" lengthAdjust="spacingAndGlyphs" textLength="116" x="258" y="57.957">Project Plan (Cost)</text><path fill="#FEFECE" filter="url(#a)" stroke="#000" stroke-width="1.5" d="M429 30h170v41.594H429z"/><path fill="#FEFECE" stroke="#000" stroke-width="1.5" d="M582 35v14h12v-8l-6-6h-6z"/><path stroke="#000" stroke-width="1.5" d="M588 35v6M594 41h-6"/><text font-family="Futura" font-size="14" lengthAdjust="spacingAndGlyphs" textLength="140" x="439" y="57.957">Project Plan (Delivery)</text><path fill="#FEFECE" filter="url(#a)" stroke="#000" stroke-width="1.5" d="M634 30h170v41.594H634z"/><path fill="#FEFECE" stroke="#000" stroke-width="1.5" d="M787 35v14h12v-8l-6-6h-6z"/><path stroke="#000" stroke-width="1.5" d="M793 35v6M799 41h-6"/><text font-family="Futura" font-size="14" lengthAdjust="spacingAndGlyphs" textLength="140" x="644" y="57.957">Project Plan (Disposal)</text><path fill="#FEFECE" filter="url(#a)" stroke="#000" stroke-width="1.5" d="M839 30h178v41.594H839z"/><path fill="#FEFECE" stroke="#000" stroke-width="1.5" d="M1000 35v14h12v-8l-6-6h-6z"/><path stroke="#000" stroke-width="1.5" d="M1006 35v6M1012 41h-6"/><text font-family="Futura" font-size="14" lengthAdjust="spacingAndGlyphs" textLength="148" x="849" y="57.957">Project Plan (Estimated)</text><path fill="#FEFECE" filter="url(#a)" stroke="#000" stroke-width="1.5" d="M1052.5 30h185v41.594h-185z"/><path fill="#FEFECE" stroke="#000" stroke-width="1.5" d="M1220.5 35v14h12v-8l-6-6h-6z"/><path stroke="#000" stroke-width="1.5" d="M1226.5 35v6M1232.5 41h-6"/><text font-family="Futura" font-size="14" lengthAdjust="spacingAndGlyphs" textLength="155" x="1062.5" y="57.957">Project Plan (Milestones)</text><path fill="#FEFECE" filter="url(#a)" stroke="#000" stroke-width="1.5" d="M1272.5 30h157v41.594h-157z"/><path fill="#FEFECE" stroke="#000" stroke-width="1.5" d="M1412.5 35v14h12v-8l-6-6h-6z"/><path stroke="#000" stroke-width="1.5" d="M1418.5 35v6M1424.5 41h-6"/><text font-family="Futura" font-size="14" lengthAdjust="spacingAndGlyphs" textLength="127" x="1282.5" y="57.957">Project Plan (Scope)</text><path fill="#FEFECE" filter="url(#a)" stroke="#000" stroke-width="1.5" d="M1465 30h182v41.594h-182z"/><path fill="#FEFECE" stroke="#000" stroke-width="1.5" d="M1630 35v14h12v-8l-6-6h-6z"/><path stroke="#000" stroke-width="1.5" d="M1636 35v6M1642 41h-6"/><text font-family="Futura" font-size="14" lengthAdjust="spacingAndGlyphs" textLength="152" x="1475" y="57.957">Project Plan (Resources)</text><path fill="#FEFECE" filter="url(#a)" stroke="#000" stroke-width="1.5" d="M1682 30h142v41.594h-142z"/><path fill="#FEFECE" stroke="#000" stroke-width="1.5" d="M1807 35v14h12v-8l-6-6h-6z"/><path stroke="#000" stroke-width="1.5" d="M1813 35v6M1819 41h-6"/><text font-family="Futura" font-size="14" lengthAdjust="spacingAndGlyphs" textLength="112" x="1692" y="57.957">Project Plan (Risk)</text><path fill="#FEFECE" filter="url(#a)" stroke="#000" stroke-width="1.5" d="M1859 30h142v41.594h-142z"/><path fill="#FEFECE" stroke="#000" stroke-width="1.5" d="M1984 35v14h12v-8l-6-6h-6z"/><path stroke="#000" stroke-width="1.5" d="M1990 35v6M1996 41h-6"/><text font-family="Futura" font-size="14" lengthAdjust="spacingAndGlyphs" textLength="112" x="1869" y="57.957">Project Plan (SBS)</text><path fill="#FEFECE" filter="url(#a)" stroke="#000" stroke-width="1.5" d="M2036 30h176v41.594h-176z"/><path fill="#FEFECE" stroke="#000" stroke-width="1.5" d="M2195 35v14h12v-8l-6-6h-6z"/><path stroke="#000" stroke-width="1.5" d="M2201 35v6M2207 41h-6"/><text font-family="Futura" font-size="14" lengthAdjust="spacingAndGlyphs" textLength="146" x="2046" y="57.957">Project Plan (Schedule)</text><path fill="#FEFECE" filter="url(#a)" stroke="#000" stroke-width="1.5" d="M2247 30h152v41.594h-152z"/><path fill="#FEFECE" stroke="#000" stroke-width="1.5" d="M2382 35v14h12v-8l-6-6h-6z"/><path stroke="#000" stroke-width="1.5" d="M2388 35v6M2394 41h-6"/><text font-family="Futura" font-size="14" lengthAdjust="spacingAndGlyphs" textLength="122" x="2257" y="57.957">Project Plan (Tasks)</text><path fill="#FEFECE" filter="url(#a)" stroke="#000" stroke-width="1.5" d="M2434 30h140v41.594h-140z"/><path fill="#FEFECE" stroke="#000" stroke-width="1.5" d="M2557 35v14h12v-8l-6-6h-6z"/><path stroke="#000" stroke-width="1.5" d="M2563 35v6M2569 41h-6"/><text font-family="Futura" font-size="14" lengthAdjust="spacingAndGlyphs" textLength="110" x="2444" y="57.957">Project Plan (WT)</text><path fill="#FEFECE" filter="url(#a)" stroke="#000" stroke-width="1.5" d="M1260 246h182v41.594h-182z"/><path fill="#FEFECE" stroke="#000" stroke-width="1.5" d="M1425 251v14h12v-8l-6-6h-6z"/><path stroke="#000" stroke-width="1.5" d="M1431 251v6M1437 257h-6"/><text font-family="Futura" font-size="14" lengthAdjust="spacingAndGlyphs" textLength="152" x="1270" y="273.957">Project Plan (integrated)</text><ellipse cx="1350.947" cy="170.148" fill="#FEFECE" filter="url(#a)" rx="57.447" ry="16.148" stroke="#a80036" stroke-width="1.5"/><text font-family="Futura" font-size="14" lengthAdjust="spacingAndGlyphs" textLength="77" x="1312.447" y="175.945">Integrate PP</text><path d="M177.164 72.069C192.799 80.396 211.765 89.128 230 94c202.19 54.026 853.018 70.879 1058.335 74.918" fill="none" stroke="#a80036" stroke-width="2"/><path fill="#A80036" stroke="#a80036" d="M1293.396 169.017l-8.92-4.175 3.921 4.077-4.077 3.921 9.076-3.823z"/><path d="M357.483 72.17C373.404 80.408 392.608 89.044 411 94c166.509 44.865 695.465 67.354 877.637 73.914" fill="none" stroke="#a80036" stroke-width="2"/><path fill="#A80036" stroke="#a80036" d="M1293.663 168.094l-8.85-4.32 3.853 4.141-4.14 3.854 9.137-3.675z"/><path d="M556.2 72.106C574.207 80.23 595.71 88.797 616 94c127.184 32.61 520.905 61.662 673.601 71.996" fill="none" stroke="#a80036" stroke-width="2"/><path fill="#A80036" stroke="#a80036" d="M1294.93 166.355l-8.71-4.597 3.722 4.26-4.26 3.722 9.248-3.385z"/><path d="M762.052 72.044C779.919 80.01 801.093 88.476 821 94c165.652 45.97 368.568 65.184 468.453 72.31" fill="none" stroke="#a80036" stroke-width="2"/><path fill="#A80036" stroke="#a80036" d="M1294.715 166.68l-8.696-4.623 3.708 4.272-4.271 3.708 9.26-3.357z"/><path d="M976.19 72.107C994.405 79.621 1015.452 87.758 1035 94c91.101 29.089 200.082 52.973 263.337 65.794" fill="none" stroke="#a80036" stroke-width="2"/><path fill="#A80036" stroke="#a80036" d="M1303.562 160.849l-8.03-5.702 3.129 4.712-4.713 3.13 9.614-2.14z"/><path d="M1181.354 72l140.294 81.044" fill="none" stroke="#a80036" stroke-width="2"/><path fill="#A80036" stroke="#a80036" d="M1326.017 155.568l-5.792-7.966 1.462 5.465-5.464 1.463 9.794 1.038z"/><path d="M1351 72v76.538" fill="none" stroke="#a80036" stroke-width="2"/><path fill="#A80036" stroke="#a80036" d="M1351 153.79l4-9-4 4-4-4 4 9z"/><path d="M1519.822 72l-139.613 81.044" fill="none" stroke="#a80036" stroke-width="2"/><path fill="#A80036" stroke="#a80036" d="M1375.862 155.568l9.792-1.059-5.468-1.451 1.451-5.468-5.775 7.978z"/><path d="M1714.365 72.133C1699.279 79.781 1681.636 88.003 1665 94c-88.658 31.96-196.205 54.707-259.651 66.566" fill="none" stroke="#a80036" stroke-width="2"/><path fill="#A80036" stroke="#a80036" d="M1400.103 161.54l9.58 2.29-4.664-3.203 3.203-4.663-8.119 5.577z"/><path d="M1892.912 72.208C1877.582 80.148 1859.36 88.553 1842 94c-149.837 47.014-334.882 65.596-429.277 72.408" fill="none" stroke="#a80036" stroke-width="2"/><path fill="#A80036" stroke="#a80036" d="M1407.467 166.782l9.261 3.351-4.273-3.706 3.706-4.274-8.694 4.629z"/><path d="M2080.215 72.088C2061.718 80.16 2039.703 88.692 2019 94c-217.522 55.771-485.376 70.64-605.057 74.585" fill="none" stroke="#a80036" stroke-width="2"/><path fill="#A80036" stroke="#a80036" d="M1408.704 168.754l9.124 3.708-4.127-3.87 3.87-4.126-8.867 4.288z"/><path d="M2285.209 72.103C2268.74 80.33 2248.91 88.976 2230 94c-154.747 41.111-642.97 65.761-816.796 73.418" fill="none" stroke="#a80036" stroke-width="2"/><path fill="#A80036" stroke="#a80036" d="M1408.154 167.64l9.167 3.601-4.172-3.82 3.82-4.172-8.815 4.39z"/><path d="M2469.256 72.042C2453.802 80.365 2435.048 89.1 2417 94c-191.128 51.89-804.797 70.088-1003.369 74.701" fill="none" stroke="#a80036" stroke-width="2"/><path fill="#A80036" stroke="#a80036" d="M1408.447 168.82l9.09 3.792-4.09-3.907 3.906-4.09-8.906 4.206z"/><path d="M1351 186.018v54.597" fill="none" stroke="#a80036" stroke-width="2"/><path fill="#A80036" stroke="#a80036" d="M1351 245.863l4-9-4 4-4-4 4 9z"/></svg>