<?xml version="1.0" encoding="UTF-8" standalone="no"?><svg xmlns="http://www.w3.org/2000/svg" xmlns:xlink="http://www.w3.org/1999/xlink" contentScriptType="application/ecmascript" contentStyleType="text/css" height="224px" preserveAspectRatio="none" style="width:282px;height:224px;" version="1.1" viewBox="0 0 282 224" width="282px" zoomAndPan="magnify"><defs><filter height="300%" id="f1tkuud4ouzf7n" width="300%" x="-1" y="-1"><feGaussianBlur result="blurOut" stdDeviation="2.0"/><feColorMatrix in="blurOut" result="blurOut2" type="matrix" values="0 0 0 0 0 0 0 0 0 0 0 0 0 0 0 0 0 0 .4 0"/><feOffset dx="4.0" dy="4.0" in="blurOut2" result="blurOut3"/><feBlend in="SourceGraphic" in2="blurOut3" mode="normal"/></filter></defs><g><!--cluster Project Plan--><rect fill="#FFFFFF" filter="url(#f1tkuud4ouzf7n)" height="88" style="stroke: #000000; stroke-width: 1.5;" width="161" x="104" y="125"/><polygon fill="#FFFFFF" points="248,130,248,144,260,144,260,136,254,130,248,130" style="stroke: #000000; stroke-width: 1.5;"/><line style="stroke: #000000; stroke-width: 1.5;" x1="254" x2="254" y1="130" y2="136"/><line style="stroke: #000000; stroke-width: 1.5;" x1="260" x2="254" y1="136" y2="136"/><text fill="#000000" font-family="Futura" font-size="14" font-weight="bold" lengthAdjust="spacingAndGlyphs" textLength="88" x="140.5" y="141.966">Project Plan</text><!--entity PROD_PP_INTEGRATED--><ellipse cx="225" cy="170" fill="#FEFECE" filter="url(#f1tkuud4ouzf7n)" rx="12" ry="12" style="stroke: #A80036; stroke-width: 2.0;"/><polygon fill="#A80036" points="221,158,227,153,225,158,227,163,221,158" style="stroke: #A80036; stroke-width: 1.0;"/><text fill="#000000" font-family="Futura" font-size="14" lengthAdjust="spacingAndGlyphs" textLength="64" x="193" y="200.957">integrated</text><!--entity PROD_PP_VERIFIED--><ellipse cx="135" cy="170" fill="#FEFECE" filter="url(#f1tkuud4ouzf7n)" rx="12" ry="12" style="stroke: #A80036; stroke-width: 2.0;"/><polygon fill="#A80036" points="131,158,137,153,135,158,137,163,131,158" style="stroke: #A80036; stroke-width: 1.0;"/><text fill="#000000" font-family="Futura" font-size="14" lengthAdjust="spacingAndGlyphs" textLength="46" x="112" y="200.957">verified</text><!--entity PJM--><ellipse cx="21" cy="18" fill="#FEFECE" filter="url(#f1tkuud4ouzf7n)" rx="8" ry="8" style="stroke: #A80036; stroke-width: 2.0;"/><path d="M21,26 L21,53 M8,34 L34,34 M21,53 L8,68 M21,53 L34,68 " fill="none" filter="url(#f1tkuud4ouzf7n)" style="stroke: #A80036; stroke-width: 2.0;"/><text fill="#000000" font-family="Futura" font-size="14" lengthAdjust="spacingAndGlyphs" textLength="27" x="7.5" y="89.957">PJM</text><!--entity WT--><ellipse cx="86" cy="18" fill="#FEFECE" filter="url(#f1tkuud4ouzf7n)" rx="8" ry="8" style="stroke: #A80036; stroke-width: 2.0;"/><path d="M86,26 L86,53 M73,34 L99,34 M86,53 L73,68 M86,53 L99,68 " fill="none" filter="url(#f1tkuud4ouzf7n)" style="stroke: #A80036; stroke-width: 2.0;"/><text fill="#000000" font-family="Futura" font-size="14" lengthAdjust="spacingAndGlyphs" textLength="22" x="75" y="89.957">WT</text><ellipse cx="179.8051" cy="51.1478" fill="#FEFECE" filter="url(#f1tkuud4ouzf7n)" rx="43.3051" ry="16.1478" style="stroke: #A80036; stroke-width: 1.5;"/><text fill="#000000" font-family="Futura" font-size="14" lengthAdjust="spacingAndGlyphs" textLength="57" x="151.3051" y="56.9446">Verify PP</text><!--link PROD_PP_INTEGRATED to PM1_16--><path d="M216.0548,153.9565 C207.6262,129.8881 195.1519,94.2672 187.3054,71.8611 " fill="none" id="PROD_PP_INTEGRATED-PM1_16" style="stroke: #A80036; stroke-width: 2.0;"/><polygon fill="#A80036" points="185.6083,67.0148,184.8077,76.8311,187.2609,71.7338,192.3581,74.1869,185.6083,67.0148" style="stroke: #A80036; stroke-width: 1.0;"/><!--link PM1_16 to PROD_PP_VERIFIED--><path d="M174.3917,67.0148 C167.2352,87.4507 154.7057,123.2292 145.6973,148.9533 " fill="none" id="PM1_16-PROD_PP_VERIFIED" style="stroke: #A80036; stroke-width: 2.0;"/><polygon fill="#A80036" points="143.9452,153.9565,150.695,146.7844,145.5978,149.2375,143.1446,144.1402,143.9452,153.9565" style="stroke: #A80036; stroke-width: 1.0;"/><!--
@startuml



skinparam handwritten false
skinparam defaultFontName Futura


actor PJM
actor WT

artifact "Project Plan" {
control "integrated" as PROD_PP_INTEGRATED
control "verified" as PROD_PP_VERIFIED
}

usecase "Verify PP" as PM1_16
PROD_PP_INTEGRATED ==> PM1_16
PM1_16 ==> PROD_PP_VERIFIED

@enduml

PlantUML version 1.2019.00(Sun Jan 13 07:46:42 PST 2019)
(GPL source distribution)
Java Runtime: Java(TM) SE Runtime Environment
JVM: Java HotSpot(TM) 64-Bit Server VM
Java Version: 10.0.1+10
Operating System: Mac OS X
OS Version: 10.14.3
Default Encoding: UTF-8
Language: en
Country: US
--></g></svg>