<?xml version="1.0" encoding="UTF-8" standalone="no"?><svg xmlns="http://www.w3.org/2000/svg" xmlns:xlink="http://www.w3.org/1999/xlink" contentScriptType="application/ecmascript" contentStyleType="text/css" height="358px" preserveAspectRatio="none" style="width:287px;height:358px;" version="1.1" viewBox="0 0 287 358" width="287px" zoomAndPan="magnify"><defs><filter height="300%" id="f1o2nf1xjr8828" width="300%" x="-1" y="-1"><feGaussianBlur result="blurOut" stdDeviation="2.0"/><feColorMatrix in="blurOut" result="blurOut2" type="matrix" values="0 0 0 0 0 0 0 0 0 0 0 0 0 0 0 0 0 0 .4 0"/><feOffset dx="4.0" dy="4.0" in="blurOut2" result="blurOut3"/><feBlend in="SourceGraphic" in2="blurOut3" mode="normal"/></filter></defs><g><!--cluster Project Plan--><rect fill="#FFFFFF" filter="url(#f1o2nf1xjr8828)" height="76" style="stroke: #000000; stroke-width: 1.5;" width="183" x="87" y="271"/><polygon fill="#FFFFFF" points="253,276,253,290,265,290,265,282,259,276,253,276" style="stroke: #000000; stroke-width: 1.5;"/><line style="stroke: #000000; stroke-width: 1.5;" x1="259" x2="259" y1="276" y2="282"/><line style="stroke: #000000; stroke-width: 1.5;" x1="265" x2="259" y1="282" y2="282"/><text fill="#000000" font-family="Futura" font-size="14" font-weight="bold" lengthAdjust="spacingAndGlyphs" textLength="88" x="134.5" y="287.966">Project Plan</text><!--entity PROD_PP_MILESTONES--><rect fill="#FEFECE" filter="url(#f1o2nf1xjr8828)" height="38.5938" style="stroke: #A80036; stroke-width: 1.5;" width="87" x="174.5" y="300"/><rect fill="#FEFECE" height="5" style="stroke: #A80036; stroke-width: 1.5;" width="10" x="169.5" y="305"/><rect fill="#FEFECE" height="5" style="stroke: #A80036; stroke-width: 1.5;" width="10" x="169.5" y="328.5938"/><text fill="#000000" font-family="Futura" font-size="14" lengthAdjust="spacingAndGlyphs" textLength="67" x="184.5" y="324.957">Milestones</text><!--entity PROD_PP_SBS--><rect fill="#FEFECE" filter="url(#f1o2nf1xjr8828)" height="38.5938" style="stroke: #A80036; stroke-width: 1.5;" width="44" x="95" y="300"/><rect fill="#FEFECE" height="5" style="stroke: #A80036; stroke-width: 1.5;" width="10" x="90" y="305"/><rect fill="#FEFECE" height="5" style="stroke: #A80036; stroke-width: 1.5;" width="10" x="90" y="328.5938"/><text fill="#000000" font-family="Futura" font-size="14" lengthAdjust="spacingAndGlyphs" textLength="24" x="105" y="324.957">SBS</text><!--entity PJM--><ellipse cx="21" cy="18" fill="#FEFECE" filter="url(#f1o2nf1xjr8828)" rx="8" ry="8" style="stroke: #A80036; stroke-width: 2.0;"/><path d="M21,26 L21,53 M8,34 L34,34 M21,53 L8,68 M21,53 L34,68 " fill="none" filter="url(#f1o2nf1xjr8828)" style="stroke: #A80036; stroke-width: 2.0;"/><text fill="#000000" font-family="Futura" font-size="14" lengthAdjust="spacingAndGlyphs" textLength="27" x="7.5" y="89.957">PJM</text><!--entity WT--><ellipse cx="86" cy="18" fill="#FEFECE" filter="url(#f1o2nf1xjr8828)" rx="8" ry="8" style="stroke: #A80036; stroke-width: 2.0;"/><path d="M86,26 L86,53 M73,34 L99,34 M86,53 L73,68 M86,53 L99,68 " fill="none" filter="url(#f1o2nf1xjr8828)" style="stroke: #A80036; stroke-width: 2.0;"/><text fill="#000000" font-family="Futura" font-size="14" lengthAdjust="spacingAndGlyphs" textLength="22" x="75" y="89.957">WT</text><!--entity SYS--><ellipse cx="21" cy="164" fill="#FEFECE" filter="url(#f1o2nf1xjr8828)" rx="8" ry="8" style="stroke: #A80036; stroke-width: 2.0;"/><path d="M21,172 L21,199 M8,180 L34,180 M21,199 L8,214 M21,199 L34,214 " fill="none" filter="url(#f1o2nf1xjr8828)" style="stroke: #A80036; stroke-width: 2.0;"/><text fill="#000000" font-family="Futura" font-size="14" lengthAdjust="spacingAndGlyphs" textLength="24" x="9" y="235.957">SYS</text><!--entity PROD_SOW--><rect fill="#FEFECE" filter="url(#f1o2nf1xjr8828)" height="41.5938" style="stroke: #000000; stroke-width: 1.5;" width="61" x="136.5" y="30"/><polygon fill="#FEFECE" points="180.5,35,180.5,49,192.5,49,192.5,41,186.5,35,180.5,35" style="stroke: #000000; stroke-width: 1.5;"/><line style="stroke: #000000; stroke-width: 1.5;" x1="186.5" x2="186.5" y1="35" y2="41"/><line style="stroke: #000000; stroke-width: 1.5;" x1="192.5" x2="186.5" y1="41" y2="41"/><text fill="#000000" font-family="Futura" font-size="14" lengthAdjust="spacingAndGlyphs" textLength="31" x="146.5" y="57.957">SoW</text><ellipse cx="166.7791" cy="197.0558" fill="#FEFECE" filter="url(#f1o2nf1xjr8828)" rx="75.7791" ry="17.5558" style="stroke: #A80036; stroke-width: 1.5;"/><text fill="#000000" font-family="Futura" font-size="14" lengthAdjust="spacingAndGlyphs" textLength="112" x="110.7791" y="202.8527">Define Milestones</text><!--link PROD_PP_SBS to PM1_4--><path d="M124.9771,299.9562 C133.9524,277.9665 148.5031,242.3175 157.9107,219.2689 " fill="none" id="PROD_PP_SBS-PM1_4" style="stroke: #A80036; stroke-width: 2.0;"/><polygon fill="#A80036" points="159.8362,214.5513,152.7318,221.3724,157.9468,219.1806,160.1387,224.3955,159.8362,214.5513" style="stroke: #A80036; stroke-width: 1.0;"/><!--link PROD_SOW to PM1_4--><path d="M167,72.2297 C167,99.3665 167,146.1681 167,174.0894 " fill="none" id="PROD_SOW-PM1_4" style="stroke: #A80036; stroke-width: 2.0;"/><polygon fill="#A80036" points="167,179.4105,171,170.4105,167,174.4105,163,170.4105,167,179.4105" style="stroke: #A80036; stroke-width: 1.0;"/><!--link PM1_4 to PROD_PP_MILESTONES--><path d="M174.3071,214.5513 C183.1012,235.6744 197.9189,271.266 207.8275,295.0659 " fill="none" id="PM1_4-PROD_PP_MILESTONES" style="stroke: #A80036; stroke-width: 2.0;"/><polygon fill="#A80036" points="209.8634,299.9562,210.0969,290.1101,207.9416,295.3403,202.7114,293.185,209.8634,299.9562" style="stroke: #A80036; stroke-width: 1.0;"/><!--link PJM to WT--><!--link PJM to SYS--><!--
@startuml



skinparam handwritten false
skinparam defaultFontName Futura


actor PJM
actor WT
actor SYS

artifact "SoW" as PROD_SOW
artifact "Project Plan" {
component "Milestones" as PROD_PP_MILESTONES
component "SBS" as PROD_PP_SBS
}

usecase "Define Milestones" as PM1_4
PROD_PP_SBS ==> PM1_4
PROD_SOW ==> PM1_4
PM1_4 ==> PROD_PP_MILESTONES

@enduml

PlantUML version 1.2019.00(Sun Jan 13 07:46:42 PST 2019)
(GPL source distribution)
Java Runtime: Java(TM) SE Runtime Environment
JVM: Java HotSpot(TM) 64-Bit Server VM
Java Version: 10.0.1+10
Operating System: Mac OS X
OS Version: 10.14.3
Default Encoding: UTF-8
Language: en
Country: US
--></g></svg>