<svg xmlns="http://www.w3.org/2000/svg" height="222" preserveAspectRatio="none" style="width:1045px;height:222px" width="1045"><defs><filter height="300%" id="a" width="300%" x="-1" y="-1"><feGaussianBlur result="blurOut" stdDeviation="2"/><feColorMatrix in="blurOut" result="blurOut2" values="0 0 0 0 0 0 0 0 0 0 0 0 0 0 0 0 0 0 .4 0"/><feOffset dx="4" dy="4" in="blurOut2" result="blurOut3"/><feBlend in="SourceGraphic" in2="blurOut3"/></filter></defs><path fill="#FFF" filter="url(#a)" stroke="#000" stroke-width="1.5" d="M63 16.5h965v76H63z"/><path fill="#FFF" stroke="#000" stroke-width="1.5" d="M1011 21.5v14h12v-8l-6-6h-6z"/><path stroke="#000" stroke-width="1.5" d="M1017 21.5v6M1023 27.5h-6"/><text font-family="Futura" font-size="14" font-weight="bold" lengthAdjust="spacingAndGlyphs" textLength="88" x="501.5" y="33.466">Project Plan</text><path fill="#FEFECE" filter="url(#a)" stroke="#a80036" stroke-width="1.5" d="M972 45.5h48v38.594h-48z"/><path fill="#FEFECE" stroke="#a80036" stroke-width="1.5" d="M967 50.5h10v5h-10zM967 74.094h10v5h-10z"/><text font-family="Futura" font-size="14" lengthAdjust="spacingAndGlyphs" textLength="28" x="982" y="70.457">Cost</text><path fill="#FEFECE" filter="url(#a)" stroke="#a80036" stroke-width="1.5" d="M865 45.5h72v38.594h-72z"/><path fill="#FEFECE" stroke="#a80036" stroke-width="1.5" d="M860 50.5h10v5h-10zM860 74.094h10v5h-10z"/><text font-family="Futura" font-size="14" lengthAdjust="spacingAndGlyphs" textLength="52" x="875" y="70.457">Delivery</text><path fill="#FEFECE" filter="url(#a)" stroke="#a80036" stroke-width="1.5" d="M750 45.5h80v38.594h-80z"/><path fill="#FEFECE" stroke="#a80036" stroke-width="1.5" d="M745 50.5h10v5h-10zM745 74.094h10v5h-10z"/><text font-family="Futura" font-size="14" lengthAdjust="spacingAndGlyphs" textLength="60" x="760" y="70.457">Estimated</text><path fill="#FEFECE" filter="url(#a)" stroke="#a80036" stroke-width="1.5" d="M627.5 45.5h87v38.594h-87z"/><path fill="#FEFECE" stroke="#a80036" stroke-width="1.5" d="M622.5 50.5h10v5h-10zM622.5 74.094h10v5h-10z"/><text font-family="Futura" font-size="14" lengthAdjust="spacingAndGlyphs" textLength="67" x="637.5" y="70.457">Milestones</text><path fill="#FEFECE" filter="url(#a)" stroke="#a80036" stroke-width="1.5" d="M508 45.5h84v38.594h-84z"/><path fill="#FEFECE" stroke="#a80036" stroke-width="1.5" d="M503 50.5h10v5h-10zM503 74.094h10v5h-10z"/><text font-family="Futura" font-size="14" lengthAdjust="spacingAndGlyphs" textLength="64" x="518" y="70.457">Resources</text><path fill="#FEFECE" filter="url(#a)" stroke="#a80036" stroke-width="1.5" d="M429 45.5h44v38.594h-44z"/><path fill="#FEFECE" stroke="#a80036" stroke-width="1.5" d="M424 50.5h10v5h-10zM424 74.094h10v5h-10z"/><text font-family="Futura" font-size="14" lengthAdjust="spacingAndGlyphs" textLength="24" x="439" y="70.457">Risk</text><path fill="#FEFECE" filter="url(#a)" stroke="#a80036" stroke-width="1.5" d="M350 45.5h44v38.594h-44z"/><path fill="#FEFECE" stroke="#a80036" stroke-width="1.5" d="M345 50.5h10v5h-10zM345 74.094h10v5h-10z"/><text font-family="Futura" font-size="14" lengthAdjust="spacingAndGlyphs" textLength="24" x="360" y="70.457">SBS</text><path fill="#FEFECE" filter="url(#a)" stroke="#a80036" stroke-width="1.5" d="M237 45.5h78v38.594h-78z"/><path fill="#FEFECE" stroke="#a80036" stroke-width="1.5" d="M232 50.5h10v5h-10zM232 74.094h10v5h-10z"/><text font-family="Futura" font-size="14" lengthAdjust="spacingAndGlyphs" textLength="58" x="247" y="70.457">Schedule</text><path fill="#FEFECE" filter="url(#a)" stroke="#a80036" stroke-width="1.5" d="M148 45.5h54v38.594h-54z"/><path fill="#FEFECE" stroke="#a80036" stroke-width="1.5" d="M143 50.5h10v5h-10zM143 74.094h10v5h-10z"/><text font-family="Futura" font-size="14" lengthAdjust="spacingAndGlyphs" textLength="34" x="158" y="70.457">Tasks</text><path fill="#FEFECE" filter="url(#a)" stroke="#a80036" stroke-width="1.5" d="M71 45.5h42v38.594H71z"/><path fill="#FEFECE" stroke="#a80036" stroke-width="1.5" d="M66 50.5h10v5H66zM66 74.094h10v5H66z"/><text font-family="Futura" font-size="14" lengthAdjust="spacingAndGlyphs" textLength="22" x="81" y="70.457">WT</text><circle cx="21" cy="32" fill="#FEFECE" filter="url(#a)" stroke="#a80036" stroke-width="2" r="8"/><path d="M21 40v27M8 48h26M21 67L8 82m13-15l13 15" fill="none" filter="url(#a)" stroke="#a80036" stroke-width="2"/><text font-family="Futura" font-size="14" lengthAdjust="spacingAndGlyphs" textLength="27" x="7.5" y="103.957">PJM</text><ellipse cx="499.825" cy="189.765" fill="#FEFECE" filter="url(#a)" rx="96.825" ry="21.765" stroke="#a80036" stroke-width="1.5"/><text font-family="Futura" font-size="14" lengthAdjust="spacingAndGlyphs" textLength="163" x="418.325" y="195.562">Identify Risk Management</text><path d="M981.708 84.87c-7.09 8.42-16.353 17.557-26.708 23.13-61.112 32.892-247.28 58.764-361.667 72.09" fill="none" stroke="#a80036" stroke-width="2"/><path fill="#A80036" stroke="#a80036" d="M588.28 180.677l9.4 2.936-4.434-3.512 3.513-4.434-8.48 5.01z"/><path d="M881.361 84.517c-9.4 8.35-21.236 17.529-33.361 23.483-81.206 39.88-182.748 60.93-255.148 71.664" fill="none" stroke="#a80036" stroke-width="2"/><path fill="#A80036" stroke="#a80036" d="M587.69 180.42l9.485 2.654-4.537-3.379 3.379-4.537-8.326 5.261z"/><path d="M766.802 84.687C756.594 92.675 744.173 101.525 732 108c-52.508 27.93-116.518 49.733-163.992 63.813" fill="none" stroke="#a80036" stroke-width="2"/><path fill="#A80036" stroke="#a80036" d="M563.177 173.236l9.763 1.294-4.967-2.707 2.707-4.967-7.503 6.38z"/><path d="M644.281 84.531l-111.204 81.29" fill="none" stroke="#a80036" stroke-width="2"/><path fill="#A80036" stroke="#a80036" d="M528.814 168.937l9.627-2.082-5.59-.869.869-5.59-4.906 8.54z"/><path d="M542.188 84.531l-31.47 78.673" fill="none" stroke="#a80036" stroke-width="2"/><path fill="#A80036" stroke="#a80036" d="M508.767 168.084l7.056-6.871-5.2 2.228-2.228-5.2.372 9.843z"/><path d="M389.632 84.543C396.498 91.996 404.505 100.499 412 108c19.623 19.64 42.597 40.995 60.15 56.988" fill="none" stroke="#a80036" stroke-width="2"/><path fill="#A80036" stroke="#a80036" d="M476.036 168.522l-3.967-9.015.268 5.65-5.65.269 9.35 3.096z"/><path d="M299.969 84.682C309.89 92.4 321.702 101.052 333 108c37.63 23.142 82.72 44.963 116.558 60.268" fill="none" stroke="#a80036" stroke-width="2"/><path fill="#A80036" stroke="#a80036" d="M454.467 170.478l-6.564-7.343 2.005 5.29-5.29 2.005 9.849.048z"/><path d="M191.749 84.764C199.597 92.96 209.52 101.947 220 108c60.672 35.044 137.527 56.158 195.362 68.164" fill="none" stroke="#a80036" stroke-width="2"/><path fill="#A80036" stroke="#a80036" d="M420.546 177.226l-8.014-5.725 3.115 4.721-4.721 3.116 9.62-2.112z"/><path d="M105.517 84.685C112.246 93.069 121.066 102.227 131 108c47.312 27.493 189.572 53.964 283 69.078" fill="none" stroke="#a80036" stroke-width="2"/><path fill="#A80036" stroke="#a80036" d="M418.967 177.878l-8.25-5.38 3.313 4.585-4.585 3.312 9.522-2.517z"/><path d="M491.409 168.084l-30.91-78.854" fill="none" stroke="#a80036" stroke-width="2"/><path fill="#A80036" stroke="#a80036" d="M458.656 84.531l-.44 9.84 2.265-5.185 5.184 2.264-7.009-6.919z"/></svg>