<svg xmlns="http://www.w3.org/2000/svg" height="211" preserveAspectRatio="none" style="width:455px;height:211px" width="455"><defs><filter height="300%" id="a" width="300%" x="-1" y="-1"><feGaussianBlur result="blurOut" stdDeviation="2"/><feColorMatrix in="blurOut" result="blurOut2" values="0 0 0 0 0 0 0 0 0 0 0 0 0 0 0 0 0 0 .4 0"/><feOffset dx="4" dy="4" in="blurOut2" result="blurOut3"/><feBlend in="SourceGraphic" in2="blurOut3"/></filter></defs><path fill="#FFF" filter="url(#a)" stroke="#000" stroke-width="1.5" d="M63 16.5h375v76H63z"/><path fill="#FFF" stroke="#000" stroke-width="1.5" d="M421 21.5v14h12v-8l-6-6h-6z"/><path stroke="#000" stroke-width="1.5" d="M427 21.5v6M433 27.5h-6"/><text font-family="Futura" font-size="14" font-weight="bold" lengthAdjust="spacingAndGlyphs" textLength="88" x="206.5" y="33.466">Project Plan</text><path fill="#FEFECE" filter="url(#a)" stroke="#a80036" stroke-width="1.5" d="M376 45.5h54v38.594h-54z"/><path fill="#FEFECE" stroke="#a80036" stroke-width="1.5" d="M371 50.5h10v5h-10zM371 74.094h10v5h-10z"/><text font-family="Futura" font-size="14" lengthAdjust="spacingAndGlyphs" textLength="34" x="386" y="70.457">Tasks</text><path fill="#FEFECE" filter="url(#a)" stroke="#a80036" stroke-width="1.5" d="M261 45.5h80v38.594h-80z"/><path fill="#FEFECE" stroke="#a80036" stroke-width="1.5" d="M256 50.5h10v5h-10zM256 74.094h10v5h-10z"/><text font-family="Futura" font-size="14" lengthAdjust="spacingAndGlyphs" textLength="60" x="271" y="70.457">Estimated</text><path fill="#FEFECE" filter="url(#a)" stroke="#a80036" stroke-width="1.5" d="M184 45.5h42v38.594h-42z"/><path fill="#FEFECE" stroke="#a80036" stroke-width="1.5" d="M179 50.5h10v5h-10zM179 74.094h10v5h-10z"/><text font-family="Futura" font-size="14" lengthAdjust="spacingAndGlyphs" textLength="22" x="194" y="70.457">WT</text><path fill="#FEFECE" filter="url(#a)" stroke="#a80036" stroke-width="1.5" d="M71 45.5h78v38.594H71z"/><path fill="#FEFECE" stroke="#a80036" stroke-width="1.5" d="M66 50.5h10v5H66zM66 74.094h10v5H66z"/><text font-family="Futura" font-size="14" lengthAdjust="spacingAndGlyphs" textLength="58" x="81" y="70.457">Schedule</text><circle cx="21" cy="32" fill="#FEFECE" filter="url(#a)" stroke="#a80036" stroke-width="2" r="8"/><path d="M21 40v27M8 48h26M21 67L8 82m13-15l13 15" fill="none" filter="url(#a)" stroke="#a80036" stroke-width="2"/><text font-family="Futura" font-size="14" lengthAdjust="spacingAndGlyphs" textLength="27" x="7.5" y="103.957">PJM</text><ellipse cx="252.819" cy="184.364" fill="#FEFECE" filter="url(#a)" rx="69.819" ry="16.364" stroke="#a80036" stroke-width="1.5"/><text font-family="Futura" font-size="14" lengthAdjust="spacingAndGlyphs" textLength="96" x="204.819" y="190.161">Schedule Tasks</text><path d="M383.874 84.912C376.354 92.41 367.5 100.848 359 108c-25.233 21.233-55.974 43.01-77.839 57.871" fill="none" stroke="#a80036" stroke-width="2"/><path fill="#A80036" stroke="#a80036" d="M276.91 168.75l9.695-1.735-5.554-1.07 1.07-5.554-5.21 8.358z"/><path d="M293.074 84.733l-31.437 78.265" fill="none" stroke="#a80036" stroke-width="2"/><path fill="#A80036" stroke="#a80036" d="M259.698 167.825l7.066-6.86-5.202 2.22-2.221-5.202.357 9.842z"/><path d="M212.926 84.733l31.437 78.265" fill="none" stroke="#a80036" stroke-width="2"/><path fill="#A80036" stroke="#a80036" d="M246.302 167.825l.357-9.842-2.22 5.202-5.203-2.22 7.066 6.86z"/><path d="M233.932 168.566L137.68 88.13" fill="none" stroke="#a80036" stroke-width="2"/><path fill="#A80036" stroke="#a80036" d="M133.613 84.733l4.342 8.84-.505-5.634 5.635-.504-9.472-2.702z"/></svg>