<svg xmlns="http://www.w3.org/2000/svg" height="311" preserveAspectRatio="none" style="width:248px;height:311px" width="248"><defs><filter height="300%" id="a" width="300%" x="-1" y="-1"><feGaussianBlur result="blurOut" stdDeviation="2"/><feColorMatrix in="blurOut" result="blurOut2" values="0 0 0 0 0 0 0 0 0 0 0 0 0 0 0 0 0 0 .4 0"/><feOffset dx="4" dy="4" in="blurOut2" result="blurOut3"/><feBlend in="SourceGraphic" in2="blurOut3"/></filter></defs><circle cx="21" cy="18" fill="#FEFECE" filter="url(#a)" stroke="#a80036" stroke-width="2" r="8"/><path d="M21 26v27M8 34h26M21 53L8 68m13-15l13 15" fill="none" filter="url(#a)" stroke="#a80036" stroke-width="2"/><text font-family="Futura" font-size="14" lengthAdjust="spacingAndGlyphs" textLength="27" x="7.5" y="89.957">PJM</text><path fill="#FEFECE" filter="url(#a)" stroke="#000" stroke-width="1.5" d="M71.5 30h133v41.594h-133z"/><path fill="#FEFECE" stroke="#000" stroke-width="1.5" d="M187.5 35v14h12v-8l-6-6h-6z"/><path stroke="#000" stroke-width="1.5" d="M193.5 35v6M199.5 41h-6"/><text font-family="Futura" font-size="14" lengthAdjust="spacingAndGlyphs" textLength="103" x="81.5" y="57.957">SoW (reviewed)</text><path fill="#FEFECE" filter="url(#a)" stroke="#000" stroke-width="1.5" d="M53 259h170v41.594H53z"/><path fill="#FEFECE" stroke="#000" stroke-width="1.5" d="M206 264v14h12v-8l-6-6h-6z"/><path stroke="#000" stroke-width="1.5" d="M212 264v6M218 270h-6"/><text font-family="Futura" font-size="14" lengthAdjust="spacingAndGlyphs" textLength="140" x="63" y="286.957">Project Plan (Disposal)</text><ellipse cx="137.942" cy="176.288" fill="#FEFECE" filter="url(#a)" rx="99.442" ry="22.288" stroke="#a80036" stroke-width="1.5"/><text font-family="Futura" font-size="14" lengthAdjust="spacingAndGlyphs" textLength="169" x="53.442" y="182.085">Identify Disposal Approach</text><path d="M138 72.006v76.633" fill="none" stroke="#a80036" stroke-width="2"/><path fill="#A80036" stroke="#a80036" d="M138 153.725l4-9-4 4-4-4 4 9z"/><path d="M138 199.214v54.483" fill="none" stroke="#a80036" stroke-width="2"/><path fill="#A80036" stroke="#a80036" d="M138 258.752l4-9-4 4-4-4 4 9z"/></svg>