<?xml version="1.0" encoding="UTF-8" standalone="no"?><svg xmlns="http://www.w3.org/2000/svg" xmlns:xlink="http://www.w3.org/1999/xlink" contentScriptType="application/ecmascript" contentStyleType="text/css" height="212px" preserveAspectRatio="none" style="width:238px;height:212px;" version="1.1" viewBox="0 0 238 212" width="238px" zoomAndPan="magnify"><defs><filter height="300%" id="f14eaeohkps9ph" width="300%" x="-1" y="-1"><feGaussianBlur result="blurOut" stdDeviation="2.0"/><feColorMatrix in="blurOut" result="blurOut2" type="matrix" values="0 0 0 0 0 0 0 0 0 0 0 0 0 0 0 0 0 0 .4 0"/><feOffset dx="4.0" dy="4.0" in="blurOut2" result="blurOut3"/><feBlend in="SourceGraphic" in2="blurOut3" mode="normal"/></filter></defs><g><!--cluster Project Plan--><rect fill="#FFFFFF" filter="url(#f14eaeohkps9ph)" height="76" style="stroke: #000000; stroke-width: 1.5;" width="177" x="44" y="125"/><polygon fill="#FFFFFF" points="204,130,204,144,216,144,216,136,210,130,204,130" style="stroke: #000000; stroke-width: 1.5;"/><line style="stroke: #000000; stroke-width: 1.5;" x1="210" x2="210" y1="130" y2="136"/><line style="stroke: #000000; stroke-width: 1.5;" x1="216" x2="210" y1="136" y2="136"/><text fill="#000000" font-family="Futura" font-size="14" font-weight="bold" lengthAdjust="spacingAndGlyphs" textLength="88" x="88.5" y="141.966">Project Plan</text><!--entity PROD_PP_RESOURCES--><rect fill="#FEFECE" filter="url(#f14eaeohkps9ph)" height="38.5938" style="stroke: #A80036; stroke-width: 1.5;" width="84" x="129" y="154"/><rect fill="#FEFECE" height="5" style="stroke: #A80036; stroke-width: 1.5;" width="10" x="124" y="159"/><rect fill="#FEFECE" height="5" style="stroke: #A80036; stroke-width: 1.5;" width="10" x="124" y="182.5938"/><text fill="#000000" font-family="Futura" font-size="14" lengthAdjust="spacingAndGlyphs" textLength="64" x="139" y="178.957">Resources</text><!--entity PROD_PP_WT--><rect fill="#FEFECE" filter="url(#f14eaeohkps9ph)" height="38.5938" style="stroke: #A80036; stroke-width: 1.5;" width="42" x="52" y="154"/><rect fill="#FEFECE" height="5" style="stroke: #A80036; stroke-width: 1.5;" width="10" x="47" y="159"/><rect fill="#FEFECE" height="5" style="stroke: #A80036; stroke-width: 1.5;" width="10" x="47" y="182.5938"/><text fill="#000000" font-family="Futura" font-size="14" lengthAdjust="spacingAndGlyphs" textLength="22" x="62" y="178.957">WT</text><!--entity PJM--><ellipse cx="21" cy="18" fill="#FEFECE" filter="url(#f14eaeohkps9ph)" rx="8" ry="8" style="stroke: #A80036; stroke-width: 2.0;"/><path d="M21,26 L21,53 M8,34 L34,34 M21,53 L8,68 M21,53 L34,68 " fill="none" filter="url(#f14eaeohkps9ph)" style="stroke: #A80036; stroke-width: 2.0;"/><text fill="#000000" font-family="Futura" font-size="14" lengthAdjust="spacingAndGlyphs" textLength="27" x="7.5" y="89.957">PJM</text><ellipse cx="121.8762" cy="51.1478" fill="#FEFECE" filter="url(#f14eaeohkps9ph)" rx="50.3762" ry="16.1478" style="stroke: #A80036; stroke-width: 1.5;"/><text fill="#000000" font-family="Futura" font-size="14" lengthAdjust="spacingAndGlyphs" textLength="67" x="88.3762" y="56.9446">Define WT</text><!--link PROD_PP_RESOURCES to PM1_8--><path d="M163.1341,153.8352 C154.1303,131.3257 139.4473,94.6182 130.2754,71.6885 " fill="none" id="PROD_PP_RESOURCES-PM1_8" style="stroke: #A80036; stroke-width: 2.0;"/><polygon fill="#A80036" points="128.4059,67.0147,128.0347,76.8566,130.2629,71.6571,135.4624,73.8853,128.4059,67.0147" style="stroke: #A80036; stroke-width: 1.0;"/><!--link PM1_8 to PROD_PP_WT--><path d="M115.5941,67.0147 C107.228,87.93 92.5019,124.7452 82.7472,149.132 " fill="none" id="PM1_8-PROD_PP_WT" style="stroke: #A80036; stroke-width: 2.0;"/><polygon fill="#A80036" points="80.8659,153.8352,87.9224,146.9645,82.7229,149.1928,80.4946,143.9933,80.8659,153.8352" style="stroke: #A80036; stroke-width: 1.0;"/><!--
@startuml



skinparam handwritten false
skinparam defaultFontName Futura


actor PJM

artifact "Project Plan" {
component "Resources" as PROD_PP_RESOURCES
component "WT" as PROD_PP_WT
}

usecase "Define WT" as PM1_8
PROD_PP_RESOURCES ==> PM1_8
PM1_8 ==> PROD_PP_WT

@enduml

PlantUML version 1.2019.00(Sun Jan 13 07:46:42 PST 2019)
(GPL source distribution)
Java Runtime: Java(TM) SE Runtime Environment
JVM: Java HotSpot(TM) 64-Bit Server VM
Java Version: 10.0.1+10
Operating System: Mac OS X
OS Version: 10.14.3
Default Encoding: UTF-8
Language: en
Country: US
--></g></svg>