<?xml version="1.0" encoding="UTF-8" standalone="no"?><svg xmlns="http://www.w3.org/2000/svg" xmlns:xlink="http://www.w3.org/1999/xlink" contentScriptType="application/ecmascript" contentStyleType="text/css" height="212px" preserveAspectRatio="none" style="width:227px;height:212px;" version="1.1" viewBox="0 0 227 212" width="227px" zoomAndPan="magnify"><defs><filter height="300%" id="f1gjjsm2du7d2p" width="300%" x="-1" y="-1"><feGaussianBlur result="blurOut" stdDeviation="2.0"/><feColorMatrix in="blurOut" result="blurOut2" type="matrix" values="0 0 0 0 0 0 0 0 0 0 0 0 0 0 0 0 0 0 .4 0"/><feOffset dx="4.0" dy="4.0" in="blurOut2" result="blurOut3"/><feBlend in="SourceGraphic" in2="blurOut3" mode="normal"/></filter></defs><g><!--cluster Project Plan--><rect fill="#FFFFFF" filter="url(#f1gjjsm2du7d2p)" height="76" style="stroke: #000000; stroke-width: 1.5;" width="185" x="25" y="125"/><polygon fill="#FFFFFF" points="193,130,193,144,205,144,205,136,199,130,193,130" style="stroke: #000000; stroke-width: 1.5;"/><line style="stroke: #000000; stroke-width: 1.5;" x1="199" x2="199" y1="130" y2="136"/><line style="stroke: #000000; stroke-width: 1.5;" x1="205" x2="199" y1="136" y2="136"/><text fill="#000000" font-family="Futura" font-size="14" font-weight="bold" lengthAdjust="spacingAndGlyphs" textLength="88" x="73.5" y="141.966">Project Plan</text><!--entity PROD_PP_ESTIMATED--><rect fill="#FEFECE" filter="url(#f1gjjsm2du7d2p)" height="38.5938" style="stroke: #A80036; stroke-width: 1.5;" width="80" x="122" y="154"/><rect fill="#FEFECE" height="5" style="stroke: #A80036; stroke-width: 1.5;" width="10" x="117" y="159"/><rect fill="#FEFECE" height="5" style="stroke: #A80036; stroke-width: 1.5;" width="10" x="117" y="182.5938"/><text fill="#000000" font-family="Futura" font-size="14" lengthAdjust="spacingAndGlyphs" textLength="60" x="132" y="178.957">Estimated</text><!--entity PROD_PP_TASKS--><rect fill="#FEFECE" filter="url(#f1gjjsm2du7d2p)" height="38.5938" style="stroke: #A80036; stroke-width: 1.5;" width="54" x="33" y="154"/><rect fill="#FEFECE" height="5" style="stroke: #A80036; stroke-width: 1.5;" width="10" x="28" y="159"/><rect fill="#FEFECE" height="5" style="stroke: #A80036; stroke-width: 1.5;" width="10" x="28" y="182.5938"/><text fill="#000000" font-family="Futura" font-size="14" lengthAdjust="spacingAndGlyphs" textLength="34" x="43" y="178.957">Tasks</text><!--entity PJM--><ellipse cx="21" cy="18" fill="#FEFECE" filter="url(#f1gjjsm2du7d2p)" rx="8" ry="8" style="stroke: #A80036; stroke-width: 2.0;"/><path d="M21,26 L21,53 M8,34 L34,34 M21,53 L8,68 M21,53 L34,68 " fill="none" filter="url(#f1gjjsm2du7d2p)" style="stroke: #A80036; stroke-width: 2.0;"/><text fill="#000000" font-family="Futura" font-size="14" lengthAdjust="spacingAndGlyphs" textLength="27" x="7.5" y="89.957">PJM</text><ellipse cx="110.7696" cy="51.1478" fill="#FEFECE" filter="url(#f1gjjsm2du7d2p)" rx="39.7696" ry="16.1478" style="stroke: #A80036; stroke-width: 1.5;"/><text fill="#000000" font-family="Futura" font-size="14" lengthAdjust="spacingAndGlyphs" textLength="52" x="84.7696" y="56.9446">Estimate</text><!--link PROD_PP_TASKS to PM1_6--><path d="M68.187,153.8352 C77.5583,131.3257 92.8406,94.6182 102.3868,71.6885 " fill="none" id="PROD_PP_TASKS-PM1_6" style="stroke: #A80036; stroke-width: 2.0;"/><polygon fill="#A80036" points="104.3326,67.0147,97.1807,73.786,102.4109,71.6306,104.5662,76.8608,104.3326,67.0147" style="stroke: #A80036; stroke-width: 1.0;"/><!--link PM1_6 to PROD_PP_ESTIMATED--><path d="M117.6674,67.0147 C126.375,87.93 141.7021,124.7452 151.855,149.132 " fill="none" id="PM1_6-PROD_PP_ESTIMATED" style="stroke: #A80036; stroke-width: 2.0;"/><polygon fill="#A80036" points="153.813,153.8352,154.0466,143.9891,151.8913,149.2193,146.6611,147.0639,153.813,153.8352" style="stroke: #A80036; stroke-width: 1.0;"/><!--
@startuml



skinparam handwritten false
skinparam defaultFontName Futura


actor PJM

artifact "Project Plan" {
component "Estimated" as PROD_PP_ESTIMATED
component "Tasks" as PROD_PP_TASKS
}

usecase "Estimate" as PM1_6
PROD_PP_TASKS ==> PM1_6
PM1_6 ==> PROD_PP_ESTIMATED

@enduml

PlantUML version 1.2019.00(Sun Jan 13 07:46:42 PST 2019)
(GPL source distribution)
Java Runtime: Java(TM) SE Runtime Environment
JVM: Java HotSpot(TM) 64-Bit Server VM
Java Version: 10.0.1+10
Operating System: Mac OS X
OS Version: 10.14.3
Default Encoding: UTF-8
Language: en
Country: US
--></g></svg>