<?xml version="1.0" encoding="UTF-8" standalone="no"?><svg xmlns="http://www.w3.org/2000/svg" xmlns:xlink="http://www.w3.org/1999/xlink" contentScriptType="application/ecmascript" contentStyleType="text/css" height="298px" preserveAspectRatio="none" style="width:379px;height:298px;" version="1.1" viewBox="0 0 379 298" width="379px" zoomAndPan="magnify"><defs><filter height="300%" id="fzizplnd8l8c3" width="300%" x="-1" y="-1"><feGaussianBlur result="blurOut" stdDeviation="2.0"/><feColorMatrix in="blurOut" result="blurOut2" type="matrix" values="0 0 0 0 0 0 0 0 0 0 0 0 0 0 0 0 0 0 .4 0"/><feOffset dx="4.0" dy="4.0" in="blurOut2" result="blurOut3"/><feBlend in="SourceGraphic" in2="blurOut3" mode="normal"/></filter></defs><g><!--entity PJM--><ellipse cx="21" cy="18" fill="#FEFECE" filter="url(#fzizplnd8l8c3)" rx="8" ry="8" style="stroke: #A80036; stroke-width: 2.0;"/><path d="M21,26 L21,53 M8,34 L34,34 M21,53 L8,68 M21,53 L34,68 " fill="none" filter="url(#fzizplnd8l8c3)" style="stroke: #A80036; stroke-width: 2.0;"/><text fill="#000000" font-family="Futura" font-size="14" lengthAdjust="spacingAndGlyphs" textLength="27" x="7.5" y="89.957">PJM</text><!--entity WT--><ellipse cx="86" cy="18" fill="#FEFECE" filter="url(#fzizplnd8l8c3)" rx="8" ry="8" style="stroke: #A80036; stroke-width: 2.0;"/><path d="M86,26 L86,53 M73,34 L99,34 M86,53 L73,68 M86,53 L99,68 " fill="none" filter="url(#fzizplnd8l8c3)" style="stroke: #A80036; stroke-width: 2.0;"/><text fill="#000000" font-family="Futura" font-size="14" lengthAdjust="spacingAndGlyphs" textLength="22" x="75" y="89.957">WT</text><!--entity PROD_PP_ACCEPTED--><rect fill="#FEFECE" filter="url(#fzizplnd8l8c3)" height="41.5938" style="stroke: #000000; stroke-width: 1.5;" width="176" x="136" y="30"/><polygon fill="#FEFECE" points="295,35,295,49,307,49,307,41,301,35,295,35" style="stroke: #000000; stroke-width: 1.5;"/><line style="stroke: #000000; stroke-width: 1.5;" x1="301" x2="301" y1="35" y2="41"/><line style="stroke: #000000; stroke-width: 1.5;" x1="307" x2="301" y1="41" y2="41"/><text fill="#000000" font-family="Futura" font-size="14" lengthAdjust="spacingAndGlyphs" textLength="146" x="146" y="57.957">Project Plan (accepted)</text><!--entity PROD_PP_ACCEPTED_ASSIGNED--><rect fill="#FEFECE" filter="url(#fzizplnd8l8c3)" height="41.5938" style="stroke: #000000; stroke-width: 1.5;" width="277" x="85.5" y="246"/><polygon fill="#FEFECE" points="345.5,251,345.5,265,357.5,265,357.5,257,351.5,251,345.5,251" style="stroke: #000000; stroke-width: 1.5;"/><line style="stroke: #000000; stroke-width: 1.5;" x1="351.5" x2="351.5" y1="251" y2="257"/><line style="stroke: #000000; stroke-width: 1.5;" x1="357.5" x2="351.5" y1="257" y2="257"/><text fill="#000000" font-family="Futura" font-size="14" lengthAdjust="spacingAndGlyphs" textLength="247" x="95.5" y="273.957">Project Plan (accepted, Tasks assigned)</text><ellipse cx="223.8614" cy="170.1478" fill="#FEFECE" filter="url(#fzizplnd8l8c3)" rx="58.8614" ry="16.1478" style="stroke: #A80036; stroke-width: 1.5;"/><text fill="#000000" font-family="Futura" font-size="14" lengthAdjust="spacingAndGlyphs" textLength="79" x="184.3614" y="175.9446">Assign Tasks</text><!--link PROD_PP_ACCEPTED to PM1_19--><path d="M224,72.0009 C224,93.5297 224,126.8432 224,148.5383 " fill="none" id="PROD_PP_ACCEPTED-PM1_19" style="stroke: #A80036; stroke-width: 2.0;"/><polygon fill="#A80036" points="224,153.7895,228,144.7895,224,148.7895,220,144.7895,224,153.7895" style="stroke: #A80036; stroke-width: 1.0;"/><!--link PM1_19 to PROD_PP_ACCEPTED_ASSIGNED--><path d="M224,186.0176 C224,200.8422 224,223.1604 224,240.6154 " fill="none" id="PM1_19-PROD_PP_ACCEPTED_ASSIGNED" style="stroke: #A80036; stroke-width: 2.0;"/><polygon fill="#A80036" points="224,245.8627,228,236.8627,224,240.8627,220,236.8627,224,245.8627" style="stroke: #A80036; stroke-width: 1.0;"/><!--
@startuml



skinparam handwritten false
skinparam defaultFontName Futura


actor PJM
actor WT

artifact "Project Plan (accepted)" as PROD_PP_ACCEPTED
artifact "Project Plan (accepted, Tasks assigned)" as PROD_PP_ACCEPTED_ASSIGNED

usecase "Assign Tasks" as PM1_19
PROD_PP_ACCEPTED ==> PM1_19
PM1_19 ==> PROD_PP_ACCEPTED_ASSIGNED

@enduml

PlantUML version 1.2019.00(Sun Jan 13 07:46:42 PST 2019)
(GPL source distribution)
Java Runtime: Java(TM) SE Runtime Environment
JVM: Java HotSpot(TM) 64-Bit Server VM
Java Version: 10.0.1+10
Operating System: Mac OS X
OS Version: 10.14.3
Default Encoding: UTF-8
Language: en
Country: US
--></g></svg>