<svg xmlns="http://www.w3.org/2000/svg" height="311" preserveAspectRatio="none" style="width:317px;height:311px" width="317"><defs><filter height="300%" id="a" width="300%" x="-1" y="-1"><feGaussianBlur result="blurOut" stdDeviation="2"/><feColorMatrix in="blurOut" result="blurOut2" values="0 0 0 0 0 0 0 0 0 0 0 0 0 0 0 0 0 0 .4 0"/><feOffset dx="4" dy="4" in="blurOut2" result="blurOut3"/><feBlend in="SourceGraphic" in2="blurOut3"/></filter></defs><circle cx="21" cy="18" fill="#FEFECE" filter="url(#a)" stroke="#a80036" stroke-width="2" r="8"/><path d="M21 26v27M8 34h26M21 53L8 68m13-15l13 15" fill="none" filter="url(#a)" stroke="#a80036" stroke-width="2"/><text font-family="Futura" font-size="14" lengthAdjust="spacingAndGlyphs" textLength="27" x="7.5" y="89.957">PJM</text><circle cx="88" cy="18" fill="#FEFECE" filter="url(#a)" stroke="#a80036" stroke-width="2" r="8"/><path d="M88 26v27M75 34h26M88 53L75 68m13-15l13 15" fill="none" filter="url(#a)" stroke="#a80036" stroke-width="2"/><text font-family="Futura" font-size="14" lengthAdjust="spacingAndGlyphs" textLength="33" x="71.5" y="89.957">ACQ</text><path fill="#FEFECE" filter="url(#a)" stroke="#000" stroke-width="1.5" d="M139.5 30h133v41.594h-133z"/><path fill="#FEFECE" stroke="#000" stroke-width="1.5" d="M255.5 35v14h12v-8l-6-6h-6z"/><path stroke="#000" stroke-width="1.5" d="M261.5 35v6M267.5 41h-6"/><text font-family="Futura" font-size="14" lengthAdjust="spacingAndGlyphs" textLength="103" x="149.5" y="57.957">SoW (reviewed)</text><path fill="#FEFECE" filter="url(#a)" stroke="#000" stroke-width="1.5" d="M121 259h170v41.594H121z"/><path fill="#FEFECE" stroke="#000" stroke-width="1.5" d="M274 264v14h12v-8l-6-6h-6z"/><path stroke="#000" stroke-width="1.5" d="M280 264v6M286 270h-6"/><text font-family="Futura" font-size="14" lengthAdjust="spacingAndGlyphs" textLength="140" x="131" y="286.957">Project Plan (Delivery)</text><ellipse cx="205.759" cy="176.552" fill="#FEFECE" filter="url(#a)" rx="100.759" ry="22.552" stroke="#a80036" stroke-width="1.5"/><text font-family="Futura" font-size="14" lengthAdjust="spacingAndGlyphs" textLength="172" x="119.759" y="182.349">Define Delivery Instructions</text><path d="M206 72.006v76.633" fill="none" stroke="#a80036" stroke-width="2"/><path fill="#A80036" stroke="#a80036" d="M206 153.725l4-9-4 4-4-4 4 9z"/><path d="M206 199.214v54.483" fill="none" stroke="#a80036" stroke-width="2"/><path fill="#A80036" stroke="#a80036" d="M206 258.752l4-9-4 4-4-4 4 9z"/></svg>