<svg xmlns="http://www.w3.org/2000/svg" height="304" preserveAspectRatio="none" style="width:292px;height:304px" width="292"><defs><filter height="300%" id="a" width="300%" x="-1" y="-1"><feGaussianBlur result="blurOut" stdDeviation="2"/><feColorMatrix in="blurOut" result="blurOut2" values="0 0 0 0 0 0 0 0 0 0 0 0 0 0 0 0 0 0 .4 0"/><feOffset dx="4" dy="4" in="blurOut2" result="blurOut3"/><feBlend in="SourceGraphic" in2="blurOut3"/></filter></defs><path fill="#FFF" filter="url(#a)" stroke="#000" stroke-width="1.5" d="M126 217h149v76H126z"/><path fill="#FFF" stroke="#000" stroke-width="1.5" d="M258 222v14h12v-8l-6-6h-6z"/><path stroke="#000" stroke-width="1.5" d="M264 222v6M270 228h-6"/><text font-family="Futura" font-size="14" font-weight="bold" lengthAdjust="spacingAndGlyphs" textLength="88" x="156.5" y="233.966">Project Plan</text><path fill="#FEFECE" filter="url(#a)" stroke="#a80036" stroke-width="1.5" d="M223 246h44v38.594h-44z"/><path fill="#FEFECE" stroke="#a80036" stroke-width="1.5" d="M218 251h10v5h-10zM218 274.594h10v5h-10z"/><text font-family="Futura" font-size="14" lengthAdjust="spacingAndGlyphs" textLength="24" x="233" y="270.957">SBS</text><path fill="#FEFECE" filter="url(#a)" stroke="#a80036" stroke-width="1.5" d="M134 246h54v38.594h-54z"/><path fill="#FEFECE" stroke="#a80036" stroke-width="1.5" d="M129 251h10v5h-10zM129 274.594h10v5h-10z"/><text font-family="Futura" font-size="14" lengthAdjust="spacingAndGlyphs" textLength="34" x="144" y="270.957">Tasks</text><circle cx="21" cy="18" fill="#FEFECE" filter="url(#a)" stroke="#a80036" stroke-width="2" r="8"/><path d="M21 26v27M8 34h26M21 53L8 68m13-15l13 15" fill="none" filter="url(#a)" stroke="#a80036" stroke-width="2"/><text font-family="Futura" font-size="14" lengthAdjust="spacingAndGlyphs" textLength="27" x="7.5" y="89.957">PJM</text><circle cx="86" cy="18" fill="#FEFECE" filter="url(#a)" stroke="#a80036" stroke-width="2" r="8"/><path d="M86 26v27M73 34h26M86 53L73 68m13-15l13 15" fill="none" filter="url(#a)" stroke="#a80036" stroke-width="2"/><text font-family="Futura" font-size="14" lengthAdjust="spacingAndGlyphs" textLength="24" x="74" y="89.957">SYS</text><path fill="#FEFECE" filter="url(#a)" stroke="#000" stroke-width="1.5" d="M136.5 30h133v41.594h-133z"/><path fill="#FEFECE" stroke="#000" stroke-width="1.5" d="M252.5 35v14h12v-8l-6-6h-6z"/><path stroke="#000" stroke-width="1.5" d="M258.5 35v6M264.5 41h-6"/><text font-family="Futura" font-size="14" lengthAdjust="spacingAndGlyphs" textLength="103" x="146.5" y="57.957">SoW (reviewed)</text><ellipse cx="202.861" cy="170.148" fill="#FEFECE" filter="url(#a)" rx="58.861" ry="16.148" stroke="#a80036" stroke-width="1.5"/><text font-family="Futura" font-size="14" lengthAdjust="spacingAndGlyphs" textLength="79" x="163.361" y="175.945">Define Tasks</text><path d="M203 72v76.538" fill="none" stroke="#a80036" stroke-width="2"/><path fill="#A80036" stroke="#a80036" d="M203 153.79l4-9-4 4-4-4 4 9z"/><path d="M236.386 245.913l-24.121-54.847" fill="none" stroke="#a80036" stroke-width="2"/><path fill="#A80036" stroke="#a80036" d="M210.125 186.2l-.039 9.85 2.051-5.273 5.272 2.052-7.284-6.629z"/><path d="M195.875 186.2c-6.631 15.08-16.605 37.757-24.19 55.003" fill="none" stroke="#a80036" stroke-width="2"/><path fill="#A80036" stroke="#a80036" d="M169.614 245.913l7.285-6.628-5.272 2.051-2.051-5.272.038 9.849z"/></svg>