<svg xmlns="http://www.w3.org/2000/svg" height="212" preserveAspectRatio="none" style="width:238px;height:212px" width="238"><defs><filter height="300%" id="a" width="300%" x="-1" y="-1"><feGaussianBlur result="blurOut" stdDeviation="2"/><feColorMatrix in="blurOut" result="blurOut2" values="0 0 0 0 0 0 0 0 0 0 0 0 0 0 0 0 0 0 .4 0"/><feOffset dx="4" dy="4" in="blurOut2" result="blurOut3"/><feBlend in="SourceGraphic" in2="blurOut3"/></filter></defs><path fill="#FFF" filter="url(#a)" stroke="#000" stroke-width="1.5" d="M44 125h177v76H44z"/><path fill="#FFF" stroke="#000" stroke-width="1.5" d="M204 130v14h12v-8l-6-6h-6z"/><path stroke="#000" stroke-width="1.5" d="M210 130v6M216 136h-6"/><text font-family="Futura" font-size="14" font-weight="bold" lengthAdjust="spacingAndGlyphs" textLength="88" x="88.5" y="141.966">Project Plan</text><path fill="#FEFECE" filter="url(#a)" stroke="#a80036" stroke-width="1.5" d="M129 154h84v38.594h-84z"/><path fill="#FEFECE" stroke="#a80036" stroke-width="1.5" d="M124 159h10v5h-10zM124 182.594h10v5h-10z"/><text font-family="Futura" font-size="14" lengthAdjust="spacingAndGlyphs" textLength="64" x="139" y="178.957">Resources</text><path fill="#FEFECE" filter="url(#a)" stroke="#a80036" stroke-width="1.5" d="M52 154h42v38.594H52z"/><path fill="#FEFECE" stroke="#a80036" stroke-width="1.5" d="M47 159h10v5H47zM47 182.594h10v5H47z"/><text font-family="Futura" font-size="14" lengthAdjust="spacingAndGlyphs" textLength="22" x="62" y="178.957">WT</text><circle cx="21" cy="18" fill="#FEFECE" filter="url(#a)" stroke="#a80036" stroke-width="2" r="8"/><path d="M21 26v27M8 34h26M21 53L8 68m13-15l13 15" fill="none" filter="url(#a)" stroke="#a80036" stroke-width="2"/><text font-family="Futura" font-size="14" lengthAdjust="spacingAndGlyphs" textLength="27" x="7.5" y="89.957">PJM</text><ellipse cx="121.876" cy="51.148" fill="#FEFECE" filter="url(#a)" rx="50.376" ry="16.148" stroke="#a80036" stroke-width="1.5"/><text font-family="Futura" font-size="14" lengthAdjust="spacingAndGlyphs" textLength="67" x="88.376" y="56.945">Define WT</text><path d="M163.134 153.835l-32.859-82.147" fill="none" stroke="#a80036" stroke-width="2"/><path fill="#A80036" stroke="#a80036" d="M128.406 67.015l-.371 9.842 2.228-5.2 5.2 2.228-7.057-6.87z"/><path d="M115.594 67.015l-32.847 82.117" fill="none" stroke="#a80036" stroke-width="2"/><path fill="#A80036" stroke="#a80036" d="M80.866 153.835l7.056-6.87-5.2 2.228-2.227-5.2.37 9.842z"/></svg>