<svg xmlns="http://www.w3.org/2000/svg" height="298" preserveAspectRatio="none" style="width:233px;height:298px" width="233"><defs><filter height="300%" id="a" width="300%" x="-1" y="-1"><feGaussianBlur result="blurOut" stdDeviation="2"/><feColorMatrix in="blurOut" result="blurOut2" values="0 0 0 0 0 0 0 0 0 0 0 0 0 0 0 0 0 0 .4 0"/><feOffset dx="4" dy="4" in="blurOut2" result="blurOut3"/><feBlend in="SourceGraphic" in2="blurOut3"/></filter></defs><circle cx="21" cy="18" fill="#FEFECE" filter="url(#a)" stroke="#a80036" stroke-width="2" r="8"/><path d="M21 26v27M8 34h26M21 53L8 68m13-15l13 15" fill="none" filter="url(#a)" stroke="#a80036" stroke-width="2"/><text font-family="Futura" font-size="14" lengthAdjust="spacingAndGlyphs" textLength="27" x="7.5" y="89.957">PJM</text><path fill="#FEFECE" filter="url(#a)" stroke="#000" stroke-width="1.5" d="M71.5 30h133v41.594h-133z"/><path fill="#FEFECE" stroke="#000" stroke-width="1.5" d="M187.5 35v14h12v-8l-6-6h-6z"/><path stroke="#000" stroke-width="1.5" d="M193.5 35v6M199.5 41h-6"/><text font-family="Futura" font-size="14" lengthAdjust="spacingAndGlyphs" textLength="103" x="81.5" y="57.957">SoW (reviewed)</text><path fill="#FEFECE" filter="url(#a)" stroke="#000" stroke-width="1.5" d="M59.5 246h157v41.594h-157z"/><path fill="#FEFECE" stroke="#000" stroke-width="1.5" d="M199.5 251v14h12v-8l-6-6h-6z"/><path stroke="#000" stroke-width="1.5" d="M205.5 251v6M211.5 257h-6"/><text font-family="Futura" font-size="14" lengthAdjust="spacingAndGlyphs" textLength="127" x="69.5" y="273.957">Project Plan (Scope)</text><ellipse cx="137.897" cy="170.148" fill="#FEFECE" filter="url(#a)" rx="62.397" ry="16.148" stroke="#a80036" stroke-width="1.5"/><text font-family="Futura" font-size="14" lengthAdjust="spacingAndGlyphs" textLength="84" x="95.897" y="175.945">Define Scope</text><path d="M138 72v76.538" fill="none" stroke="#a80036" stroke-width="2"/><path fill="#A80036" stroke="#a80036" d="M138 153.79l4-9-4 4-4-4 4 9z"/><path d="M138 186.018v54.597" fill="none" stroke="#a80036" stroke-width="2"/><path fill="#A80036" stroke="#a80036" d="M138 245.863l4-9-4 4-4-4 4 9z"/></svg>