<?xml version="1.0" encoding="UTF-8" standalone="no"?><svg xmlns="http://www.w3.org/2000/svg" xmlns:xlink="http://www.w3.org/1999/xlink" contentScriptType="application/ecmascript" contentStyleType="text/css" height="311px" preserveAspectRatio="none" style="width:317px;height:311px;" version="1.1" viewBox="0 0 317 311" width="317px" zoomAndPan="magnify"><defs><filter height="300%" id="f3tbf2phntjhu" width="300%" x="-1" y="-1"><feGaussianBlur result="blurOut" stdDeviation="2.0"/><feColorMatrix in="blurOut" result="blurOut2" type="matrix" values="0 0 0 0 0 0 0 0 0 0 0 0 0 0 0 0 0 0 .4 0"/><feOffset dx="4.0" dy="4.0" in="blurOut2" result="blurOut3"/><feBlend in="SourceGraphic" in2="blurOut3" mode="normal"/></filter></defs><g><!--entity PJM--><ellipse cx="21" cy="18" fill="#FEFECE" filter="url(#f3tbf2phntjhu)" rx="8" ry="8" style="stroke: #A80036; stroke-width: 2.0;"/><path d="M21,26 L21,53 M8,34 L34,34 M21,53 L8,68 M21,53 L34,68 " fill="none" filter="url(#f3tbf2phntjhu)" style="stroke: #A80036; stroke-width: 2.0;"/><text fill="#000000" font-family="Futura" font-size="14" lengthAdjust="spacingAndGlyphs" textLength="27" x="7.5" y="89.957">PJM</text><!--entity ACQ--><ellipse cx="88" cy="18" fill="#FEFECE" filter="url(#f3tbf2phntjhu)" rx="8" ry="8" style="stroke: #A80036; stroke-width: 2.0;"/><path d="M88,26 L88,53 M75,34 L101,34 M88,53 L75,68 M88,53 L101,68 " fill="none" filter="url(#f3tbf2phntjhu)" style="stroke: #A80036; stroke-width: 2.0;"/><text fill="#000000" font-family="Futura" font-size="14" lengthAdjust="spacingAndGlyphs" textLength="33" x="71.5" y="89.957">ACQ</text><!--entity PROD_SOW_REVIEWED--><rect fill="#FEFECE" filter="url(#f3tbf2phntjhu)" height="41.5938" style="stroke: #000000; stroke-width: 1.5;" width="133" x="139.5" y="30"/><polygon fill="#FEFECE" points="255.5,35,255.5,49,267.5,49,267.5,41,261.5,35,255.5,35" style="stroke: #000000; stroke-width: 1.5;"/><line style="stroke: #000000; stroke-width: 1.5;" x1="261.5" x2="261.5" y1="35" y2="41"/><line style="stroke: #000000; stroke-width: 1.5;" x1="267.5" x2="261.5" y1="41" y2="41"/><text fill="#000000" font-family="Futura" font-size="14" lengthAdjust="spacingAndGlyphs" textLength="103" x="149.5" y="57.957">SoW (reviewed)</text><!--entity PROD_PP_DI--><rect fill="#FEFECE" filter="url(#f3tbf2phntjhu)" height="41.5938" style="stroke: #000000; stroke-width: 1.5;" width="170" x="121" y="259"/><polygon fill="#FEFECE" points="274,264,274,278,286,278,286,270,280,264,274,264" style="stroke: #000000; stroke-width: 1.5;"/><line style="stroke: #000000; stroke-width: 1.5;" x1="280" x2="280" y1="264" y2="270"/><line style="stroke: #000000; stroke-width: 1.5;" x1="286" x2="280" y1="270" y2="270"/><text fill="#000000" font-family="Futura" font-size="14" lengthAdjust="spacingAndGlyphs" textLength="140" x="131" y="286.957">Project Plan (Delivery)</text><ellipse cx="205.7589" cy="176.5518" fill="#FEFECE" filter="url(#f3tbf2phntjhu)" rx="100.7589" ry="22.5518" style="stroke: #A80036; stroke-width: 1.5;"/><text fill="#000000" font-family="Futura" font-size="14" lengthAdjust="spacingAndGlyphs" textLength="172" x="119.7589" y="182.3486">Define Delivery Instructions</text><!--link PROD_SOW_REVIEWED to PM1_2--><path d="M206,72.0059 C206,93.0246 206,125.4792 206,148.6389 " fill="none" id="PROD_SOW_REVIEWED-PM1_2" style="stroke: #A80036; stroke-width: 2.0;"/><polygon fill="#A80036" points="206,153.7252,210,144.7252,206,148.7252,202,144.7252,206,153.7252" style="stroke: #A80036; stroke-width: 1.0;"/><!--link PM1_2 to PROD_PP_DI--><path d="M206,199.2135 C206,215.2838 206,236.8774 206,253.6966 " fill="none" id="PM1_2-PROD_PP_DI" style="stroke: #A80036; stroke-width: 2.0;"/><polygon fill="#A80036" points="206,258.7517,210,249.7517,206,253.7517,202,249.7517,206,258.7517" style="stroke: #A80036; stroke-width: 1.0;"/><!--
@startuml



skinparam handwritten false
skinparam defaultFontName Futura


actor PJM
actor ACQ

artifact "SoW (reviewed)" as PROD_SOW_REVIEWED
artifact "Project Plan (Delivery)" as PROD_PP_DI

usecase "Define Delivery Instructions" as PM1_2
PROD_SOW_REVIEWED ==> PM1_2
PM1_2 ==> PROD_PP_DI

@enduml

PlantUML version 1.2019.00(Sun Jan 13 07:46:42 PST 2019)
(GPL source distribution)
Java Runtime: Java(TM) SE Runtime Environment
JVM: Java HotSpot(TM) 64-Bit Server VM
Java Version: 10.0.1+10
Operating System: Mac OS X
OS Version: 10.14.3
Default Encoding: UTF-8
Language: en
Country: US
--></g></svg>