<svg xmlns="http://www.w3.org/2000/svg" height="298" preserveAspectRatio="none" style="width:253px;height:298px" width="253"><defs><filter height="300%" id="a" width="300%" x="-1" y="-1"><feGaussianBlur result="blurOut" stdDeviation="2"/><feColorMatrix in="blurOut" result="blurOut2" values="0 0 0 0 0 0 0 0 0 0 0 0 0 0 0 0 0 0 .4 0"/><feOffset dx="4" dy="4" in="blurOut2" result="blurOut3"/><feBlend in="SourceGraphic" in2="blurOut3"/></filter></defs><circle cx="21" cy="18" fill="#FEFECE" filter="url(#a)" stroke="#a80036" stroke-width="2" r="8"/><path d="M21 26v27M8 34h26M21 53L8 68m13-15l13 15" fill="none" filter="url(#a)" stroke="#a80036" stroke-width="2"/><text font-family="Futura" font-size="14" lengthAdjust="spacingAndGlyphs" textLength="27" x="7.5" y="89.957">PJM</text><circle cx="86" cy="18" fill="#FEFECE" filter="url(#a)" stroke="#a80036" stroke-width="2" r="8"/><path d="M86 26v27M73 34h26M86 53L73 68m13-15l13 15" fill="none" filter="url(#a)" stroke="#a80036" stroke-width="2"/><text font-family="Futura" font-size="14" lengthAdjust="spacingAndGlyphs" textLength="26" x="73" y="89.957">DES</text><path fill="#FEFECE" filter="url(#a)" stroke="#000" stroke-width="1.5" d="M136 30h58v41.594h-58z"/><path fill="#FEFECE" stroke="#000" stroke-width="1.5" d="M177 35v14h12v-8l-6-6h-6z"/><path stroke="#000" stroke-width="1.5" d="M183 35v6M189 41h-6"/><text font-family="Futura" font-size="14" lengthAdjust="spacingAndGlyphs" textLength="28" x="146" y="57.957">SDD</text><path fill="#FEFECE" filter="url(#a)" stroke="#000" stroke-width="1.5" d="M94 246h142v41.594H94z"/><path fill="#FEFECE" stroke="#000" stroke-width="1.5" d="M219 251v14h12v-8l-6-6h-6z"/><path stroke="#000" stroke-width="1.5" d="M225 251v6M231 257h-6"/><text font-family="Futura" font-size="14" lengthAdjust="spacingAndGlyphs" textLength="112" x="104" y="273.957">Project Plan (SBS)</text><ellipse cx="164.79" cy="170.148" fill="#FEFECE" filter="url(#a)" rx="51.79" ry="16.148" stroke="#a80036" stroke-width="1.5"/><text font-family="Futura" font-size="14" lengthAdjust="spacingAndGlyphs" textLength="69" x="130.29" y="175.945">Define SBS</text><path d="M165 72v76.538" fill="none" stroke="#a80036" stroke-width="2"/><path fill="#A80036" stroke="#a80036" d="M165 153.79l4-9-4 4-4-4 4 9z"/><path d="M165 186.018v54.597" fill="none" stroke="#a80036" stroke-width="2"/><path fill="#A80036" stroke="#a80036" d="M165 245.863l4-9-4 4-4-4 4 9z"/></svg>