<?xml version="1.0" encoding="UTF-8" standalone="no"?><svg xmlns="http://www.w3.org/2000/svg" xmlns:xlink="http://www.w3.org/1999/xlink" contentScriptType="application/ecmascript" contentStyleType="text/css" height="211px" preserveAspectRatio="none" style="width:455px;height:211px;" version="1.1" viewBox="0 0 455 211" width="455px" zoomAndPan="magnify"><defs><filter height="300%" id="f8tnwe7frr33m" width="300%" x="-1" y="-1"><feGaussianBlur result="blurOut" stdDeviation="2.0"/><feColorMatrix in="blurOut" result="blurOut2" type="matrix" values="0 0 0 0 0 0 0 0 0 0 0 0 0 0 0 0 0 0 .4 0"/><feOffset dx="4.0" dy="4.0" in="blurOut2" result="blurOut3"/><feBlend in="SourceGraphic" in2="blurOut3" mode="normal"/></filter></defs><g><!--cluster Project Plan--><rect fill="#FFFFFF" filter="url(#f8tnwe7frr33m)" height="76" style="stroke: #000000; stroke-width: 1.5;" width="375" x="63" y="16.5"/><polygon fill="#FFFFFF" points="421,21.5,421,35.5,433,35.5,433,27.5,427,21.5,421,21.5" style="stroke: #000000; stroke-width: 1.5;"/><line style="stroke: #000000; stroke-width: 1.5;" x1="427" x2="427" y1="21.5" y2="27.5"/><line style="stroke: #000000; stroke-width: 1.5;" x1="433" x2="427" y1="27.5" y2="27.5"/><text fill="#000000" font-family="Futura" font-size="14" font-weight="bold" lengthAdjust="spacingAndGlyphs" textLength="88" x="206.5" y="33.466">Project Plan</text><!--entity PROD_PP_TASKS--><rect fill="#FEFECE" filter="url(#f8tnwe7frr33m)" height="38.5938" style="stroke: #A80036; stroke-width: 1.5;" width="54" x="376" y="45.5"/><rect fill="#FEFECE" height="5" style="stroke: #A80036; stroke-width: 1.5;" width="10" x="371" y="50.5"/><rect fill="#FEFECE" height="5" style="stroke: #A80036; stroke-width: 1.5;" width="10" x="371" y="74.0938"/><text fill="#000000" font-family="Futura" font-size="14" lengthAdjust="spacingAndGlyphs" textLength="34" x="386" y="70.457">Tasks</text><!--entity PROD_PP_ESTIMATED--><rect fill="#FEFECE" filter="url(#f8tnwe7frr33m)" height="38.5938" style="stroke: #A80036; stroke-width: 1.5;" width="80" x="261" y="45.5"/><rect fill="#FEFECE" height="5" style="stroke: #A80036; stroke-width: 1.5;" width="10" x="256" y="50.5"/><rect fill="#FEFECE" height="5" style="stroke: #A80036; stroke-width: 1.5;" width="10" x="256" y="74.0938"/><text fill="#000000" font-family="Futura" font-size="14" lengthAdjust="spacingAndGlyphs" textLength="60" x="271" y="70.457">Estimated</text><!--entity PROD_PP_WT--><rect fill="#FEFECE" filter="url(#f8tnwe7frr33m)" height="38.5938" style="stroke: #A80036; stroke-width: 1.5;" width="42" x="184" y="45.5"/><rect fill="#FEFECE" height="5" style="stroke: #A80036; stroke-width: 1.5;" width="10" x="179" y="50.5"/><rect fill="#FEFECE" height="5" style="stroke: #A80036; stroke-width: 1.5;" width="10" x="179" y="74.0938"/><text fill="#000000" font-family="Futura" font-size="14" lengthAdjust="spacingAndGlyphs" textLength="22" x="194" y="70.457">WT</text><!--entity PROD_PP_SCHEDULE--><rect fill="#FEFECE" filter="url(#f8tnwe7frr33m)" height="38.5938" style="stroke: #A80036; stroke-width: 1.5;" width="78" x="71" y="45.5"/><rect fill="#FEFECE" height="5" style="stroke: #A80036; stroke-width: 1.5;" width="10" x="66" y="50.5"/><rect fill="#FEFECE" height="5" style="stroke: #A80036; stroke-width: 1.5;" width="10" x="66" y="74.0938"/><text fill="#000000" font-family="Futura" font-size="14" lengthAdjust="spacingAndGlyphs" textLength="58" x="81" y="70.457">Schedule</text><!--entity PJM--><ellipse cx="21" cy="32" fill="#FEFECE" filter="url(#f8tnwe7frr33m)" rx="8" ry="8" style="stroke: #A80036; stroke-width: 2.0;"/><path d="M21,40 L21,67 M8,48 L34,48 M21,67 L8,82 M21,67 L34,82 " fill="none" filter="url(#f8tnwe7frr33m)" style="stroke: #A80036; stroke-width: 2.0;"/><text fill="#000000" font-family="Futura" font-size="14" lengthAdjust="spacingAndGlyphs" textLength="27" x="7.5" y="103.957">PJM</text><ellipse cx="252.8191" cy="184.3638" fill="#FEFECE" filter="url(#f8tnwe7frr33m)" rx="69.8191" ry="16.3638" style="stroke: #A80036; stroke-width: 1.5;"/><text fill="#000000" font-family="Futura" font-size="14" lengthAdjust="spacingAndGlyphs" textLength="96" x="204.8191" y="190.1607">Schedule Tasks</text><!--link PROD_PP_TASKS to PM1_9--><path d="M383.8742,84.9119 C376.3548,92.4103 367.4994,100.848 359,108 C333.7666,129.2332 303.0263,151.0097 281.161,165.8713 " fill="none" id="PROD_PP_TASKS-PM1_9" style="stroke: #A80036; stroke-width: 2.0;"/><polygon fill="#A80036" points="276.9105,168.7492,286.6055,167.0153,281.0507,165.9458,282.1201,160.391,276.9105,168.7492" style="stroke: #A80036; stroke-width: 1.0;"/><!--link PROD_PP_ESTIMATED to PM1_9--><path d="M293.0738,84.733 C284.4094,106.3037 270.5723,140.7524 261.6368,162.998 " fill="none" id="PROD_PP_ESTIMATED-PM1_9" style="stroke: #A80036; stroke-width: 2.0;"/><polygon fill="#A80036" points="259.6979,167.8251,266.7643,160.9646,261.5616,163.1854,259.3408,157.9827,259.6979,167.8251" style="stroke: #A80036; stroke-width: 1.0;"/><!--link PROD_PP_WT to PM1_9--><path d="M212.9262,84.733 C221.5906,106.3037 235.4277,140.7524 244.3632,162.998 " fill="none" id="PROD_PP_WT-PM1_9" style="stroke: #A80036; stroke-width: 2.0;"/><polygon fill="#A80036" points="246.3021,167.8251,246.6592,157.9827,244.4384,163.1854,239.2357,160.9646,246.3021,167.8251" style="stroke: #A80036; stroke-width: 1.0;"/><!--link PM1_9 to PROD_PP_SCHEDULE--><path d="M233.9322,168.5657 C209.2321,147.9247 165.9935,111.7918 137.6788,88.1302 " fill="none" id="PM1_9-PROD_PP_SCHEDULE" style="stroke: #A80036; stroke-width: 2.0;"/><polygon fill="#A80036" points="133.6135,84.733,137.9547,93.5735,137.4502,87.9392,143.0846,87.4347,133.6135,84.733" style="stroke: #A80036; stroke-width: 1.0;"/><!--
@startuml



skinparam handwritten false
skinparam defaultFontName Futura


actor PJM

artifact "Project Plan" {
component "Tasks" as PROD_PP_TASKS
component "Estimated" as PROD_PP_ESTIMATED
component "WT" as PROD_PP_WT
component "Schedule" as PROD_PP_SCHEDULE
}

usecase "Schedule Tasks" as PM1_9
PROD_PP_TASKS ==> PM1_9
PROD_PP_ESTIMATED ==> PM1_9
PROD_PP_WT ==> PM1_9
PM1_9 ==> PROD_PP_SCHEDULE


@enduml

PlantUML version 1.2019.00(Sun Jan 13 07:46:42 PST 2019)
(GPL source distribution)
Java Runtime: Java(TM) SE Runtime Environment
JVM: Java HotSpot(TM) 64-Bit Server VM
Java Version: 10.0.1+10
Operating System: Mac OS X
OS Version: 10.14.3
Default Encoding: UTF-8
Language: en
Country: US
--></g></svg>