<?xml version="1.0" encoding="UTF-8" standalone="no"?><svg xmlns="http://www.w3.org/2000/svg" xmlns:xlink="http://www.w3.org/1999/xlink" contentScriptType="application/ecmascript" contentStyleType="text/css" height="222px" preserveAspectRatio="none" style="width:1045px;height:222px;" version="1.1" viewBox="0 0 1045 222" width="1045px" zoomAndPan="magnify"><defs><filter height="300%" id="fcqy3yc0uu93n" width="300%" x="-1" y="-1"><feGaussianBlur result="blurOut" stdDeviation="2.0"/><feColorMatrix in="blurOut" result="blurOut2" type="matrix" values="0 0 0 0 0 0 0 0 0 0 0 0 0 0 0 0 0 0 .4 0"/><feOffset dx="4.0" dy="4.0" in="blurOut2" result="blurOut3"/><feBlend in="SourceGraphic" in2="blurOut3" mode="normal"/></filter></defs><g><!--cluster Project Plan--><rect fill="#FFFFFF" filter="url(#fcqy3yc0uu93n)" height="76" style="stroke: #000000; stroke-width: 1.5;" width="965" x="63" y="16.5"/><polygon fill="#FFFFFF" points="1011,21.5,1011,35.5,1023,35.5,1023,27.5,1017,21.5,1011,21.5" style="stroke: #000000; stroke-width: 1.5;"/><line style="stroke: #000000; stroke-width: 1.5;" x1="1017" x2="1017" y1="21.5" y2="27.5"/><line style="stroke: #000000; stroke-width: 1.5;" x1="1023" x2="1017" y1="27.5" y2="27.5"/><text fill="#000000" font-family="Futura" font-size="14" font-weight="bold" lengthAdjust="spacingAndGlyphs" textLength="88" x="501.5" y="33.466">Project Plan</text><!--entity PROD_PP_COST--><rect fill="#FEFECE" filter="url(#fcqy3yc0uu93n)" height="38.5938" style="stroke: #A80036; stroke-width: 1.5;" width="48" x="972" y="45.5"/><rect fill="#FEFECE" height="5" style="stroke: #A80036; stroke-width: 1.5;" width="10" x="967" y="50.5"/><rect fill="#FEFECE" height="5" style="stroke: #A80036; stroke-width: 1.5;" width="10" x="967" y="74.0938"/><text fill="#000000" font-family="Futura" font-size="14" lengthAdjust="spacingAndGlyphs" textLength="28" x="982" y="70.457">Cost</text><!--entity PROD_PP_DI--><rect fill="#FEFECE" filter="url(#fcqy3yc0uu93n)" height="38.5938" style="stroke: #A80036; stroke-width: 1.5;" width="72" x="865" y="45.5"/><rect fill="#FEFECE" height="5" style="stroke: #A80036; stroke-width: 1.5;" width="10" x="860" y="50.5"/><rect fill="#FEFECE" height="5" style="stroke: #A80036; stroke-width: 1.5;" width="10" x="860" y="74.0938"/><text fill="#000000" font-family="Futura" font-size="14" lengthAdjust="spacingAndGlyphs" textLength="52" x="875" y="70.457">Delivery</text><!--entity PROD_PP_ESTIMATED--><rect fill="#FEFECE" filter="url(#fcqy3yc0uu93n)" height="38.5938" style="stroke: #A80036; stroke-width: 1.5;" width="80" x="750" y="45.5"/><rect fill="#FEFECE" height="5" style="stroke: #A80036; stroke-width: 1.5;" width="10" x="745" y="50.5"/><rect fill="#FEFECE" height="5" style="stroke: #A80036; stroke-width: 1.5;" width="10" x="745" y="74.0938"/><text fill="#000000" font-family="Futura" font-size="14" lengthAdjust="spacingAndGlyphs" textLength="60" x="760" y="70.457">Estimated</text><!--entity PROD_PP_MILESTONES--><rect fill="#FEFECE" filter="url(#fcqy3yc0uu93n)" height="38.5938" style="stroke: #A80036; stroke-width: 1.5;" width="87" x="627.5" y="45.5"/><rect fill="#FEFECE" height="5" style="stroke: #A80036; stroke-width: 1.5;" width="10" x="622.5" y="50.5"/><rect fill="#FEFECE" height="5" style="stroke: #A80036; stroke-width: 1.5;" width="10" x="622.5" y="74.0938"/><text fill="#000000" font-family="Futura" font-size="14" lengthAdjust="spacingAndGlyphs" textLength="67" x="637.5" y="70.457">Milestones</text><!--entity PROD_PP_RESOURCES--><rect fill="#FEFECE" filter="url(#fcqy3yc0uu93n)" height="38.5938" style="stroke: #A80036; stroke-width: 1.5;" width="84" x="508" y="45.5"/><rect fill="#FEFECE" height="5" style="stroke: #A80036; stroke-width: 1.5;" width="10" x="503" y="50.5"/><rect fill="#FEFECE" height="5" style="stroke: #A80036; stroke-width: 1.5;" width="10" x="503" y="74.0938"/><text fill="#000000" font-family="Futura" font-size="14" lengthAdjust="spacingAndGlyphs" textLength="64" x="518" y="70.457">Resources</text><!--entity PROD_PP_RISK--><rect fill="#FEFECE" filter="url(#fcqy3yc0uu93n)" height="38.5938" style="stroke: #A80036; stroke-width: 1.5;" width="44" x="429" y="45.5"/><rect fill="#FEFECE" height="5" style="stroke: #A80036; stroke-width: 1.5;" width="10" x="424" y="50.5"/><rect fill="#FEFECE" height="5" style="stroke: #A80036; stroke-width: 1.5;" width="10" x="424" y="74.0938"/><text fill="#000000" font-family="Futura" font-size="14" lengthAdjust="spacingAndGlyphs" textLength="24" x="439" y="70.457">Risk</text><!--entity PROD_PP_SBS--><rect fill="#FEFECE" filter="url(#fcqy3yc0uu93n)" height="38.5938" style="stroke: #A80036; stroke-width: 1.5;" width="44" x="350" y="45.5"/><rect fill="#FEFECE" height="5" style="stroke: #A80036; stroke-width: 1.5;" width="10" x="345" y="50.5"/><rect fill="#FEFECE" height="5" style="stroke: #A80036; stroke-width: 1.5;" width="10" x="345" y="74.0938"/><text fill="#000000" font-family="Futura" font-size="14" lengthAdjust="spacingAndGlyphs" textLength="24" x="360" y="70.457">SBS</text><!--entity PROD_PP_SCHEDULE--><rect fill="#FEFECE" filter="url(#fcqy3yc0uu93n)" height="38.5938" style="stroke: #A80036; stroke-width: 1.5;" width="78" x="237" y="45.5"/><rect fill="#FEFECE" height="5" style="stroke: #A80036; stroke-width: 1.5;" width="10" x="232" y="50.5"/><rect fill="#FEFECE" height="5" style="stroke: #A80036; stroke-width: 1.5;" width="10" x="232" y="74.0938"/><text fill="#000000" font-family="Futura" font-size="14" lengthAdjust="spacingAndGlyphs" textLength="58" x="247" y="70.457">Schedule</text><!--entity PROD_PP_TASKS--><rect fill="#FEFECE" filter="url(#fcqy3yc0uu93n)" height="38.5938" style="stroke: #A80036; stroke-width: 1.5;" width="54" x="148" y="45.5"/><rect fill="#FEFECE" height="5" style="stroke: #A80036; stroke-width: 1.5;" width="10" x="143" y="50.5"/><rect fill="#FEFECE" height="5" style="stroke: #A80036; stroke-width: 1.5;" width="10" x="143" y="74.0938"/><text fill="#000000" font-family="Futura" font-size="14" lengthAdjust="spacingAndGlyphs" textLength="34" x="158" y="70.457">Tasks</text><!--entity PROD_PP_WT--><rect fill="#FEFECE" filter="url(#fcqy3yc0uu93n)" height="38.5938" style="stroke: #A80036; stroke-width: 1.5;" width="42" x="71" y="45.5"/><rect fill="#FEFECE" height="5" style="stroke: #A80036; stroke-width: 1.5;" width="10" x="66" y="50.5"/><rect fill="#FEFECE" height="5" style="stroke: #A80036; stroke-width: 1.5;" width="10" x="66" y="74.0938"/><text fill="#000000" font-family="Futura" font-size="14" lengthAdjust="spacingAndGlyphs" textLength="22" x="81" y="70.457">WT</text><!--entity PJM--><ellipse cx="21" cy="32" fill="#FEFECE" filter="url(#fcqy3yc0uu93n)" rx="8" ry="8" style="stroke: #A80036; stroke-width: 2.0;"/><path d="M21,40 L21,67 M8,48 L34,48 M21,67 L8,82 M21,67 L34,82 " fill="none" filter="url(#fcqy3yc0uu93n)" style="stroke: #A80036; stroke-width: 2.0;"/><text fill="#000000" font-family="Futura" font-size="14" lengthAdjust="spacingAndGlyphs" textLength="27" x="7.5" y="103.957">PJM</text><ellipse cx="499.8246" cy="189.7649" fill="#FEFECE" filter="url(#fcqy3yc0uu93n)" rx="96.8246" ry="21.7649" style="stroke: #A80036; stroke-width: 1.5;"/><text fill="#000000" font-family="Futura" font-size="14" lengthAdjust="spacingAndGlyphs" textLength="163" x="418.3246" y="195.5618">Identify Risk Management</text><!--link PROD_PP_COST to PM1_11--><path d="M981.7077,84.8692 C974.6174,93.2904 965.3545,102.427 955,108 C893.888,140.8917 707.7194,166.7636 593.3326,180.0907 " fill="none" id="PROD_PP_COST-PM1_11" style="stroke: #A80036; stroke-width: 2.0;"/><polygon fill="#A80036" points="588.2794,180.6768,597.6803,183.6134,593.2461,180.1008,596.7587,175.6666,588.2794,180.6768" style="stroke: #A80036; stroke-width: 1.0;"/><!--link PROD_PP_DI to PM1_11--><path d="M881.361,84.5171 C871.9607,92.8673 860.1245,102.0456 848,108 C766.7943,147.8807 665.2516,168.9302 592.8523,179.664 " fill="none" id="PROD_PP_DI-PM1_11" style="stroke: #A80036; stroke-width: 2.0;"/><polygon fill="#A80036" points="587.6906,180.4191,597.1749,183.074,592.6379,179.6953,596.0167,175.1583,587.6906,180.4191" style="stroke: #A80036; stroke-width: 1.0;"/><!--link PROD_PP_ESTIMATED to PM1_11--><path d="M766.8016,84.6869 C756.5939,92.6751 744.1734,101.5248 732,108 C679.4923,135.9296 615.4819,157.7327 568.0084,171.8127 " fill="none" id="PROD_PP_ESTIMATED-PM1_11" style="stroke: #A80036; stroke-width: 2.0;"/><polygon fill="#A80036" points="563.1769,173.236,572.9404,174.5299,567.9731,171.8232,570.6799,166.8559,563.1769,173.236" style="stroke: #A80036; stroke-width: 1.0;"/><!--link PROD_PP_MILESTONES to PM1_11--><path d="M644.2813,84.5312 C614.2557,106.4798 565.4847,142.131 533.0774,165.8206 " fill="none" id="PROD_PP_MILESTONES-PM1_11" style="stroke: #A80036; stroke-width: 2.0;"/><polygon fill="#A80036" points="528.8145,168.9368,538.4408,166.8548,532.851,165.9861,533.7197,160.3964,528.8145,168.9368" style="stroke: #A80036; stroke-width: 1.0;"/><!--link PROD_PP_RESOURCES to PM1_11--><path d="M542.1875,84.5312 C533.7257,105.6858 520.1721,139.5698 510.7183,163.2041 " fill="none" id="PROD_PP_RESOURCES-PM1_11" style="stroke: #A80036; stroke-width: 2.0;"/><polygon fill="#A80036" points="508.7666,168.0836,515.8231,161.2129,510.6236,163.4412,508.3953,158.2417,508.7666,168.0836" style="stroke: #A80036; stroke-width: 1.0;"/><!--link PROD_PP_SBS to PM1_11--><path d="M389.6325,84.5427 C396.4984,91.9957 404.5052,100.4989 412,108 C431.6225,127.6392 454.5972,148.9951 472.1503,164.9881 " fill="none" id="PROD_PP_SBS-PM1_11" style="stroke: #A80036; stroke-width: 2.0;"/><polygon fill="#A80036" points="476.0362,168.5217,472.0688,159.5073,472.337,165.1578,466.6865,165.426,476.0362,168.5217" style="stroke: #A80036; stroke-width: 1.0;"/><!--link PROD_PP_SCHEDULE to PM1_11--><path d="M299.9688,84.6822 C309.8906,92.3999 321.702,101.0518 333,108 C370.6306,131.1424 415.7207,152.9628 449.5581,168.2678 " fill="none" id="PROD_PP_SCHEDULE-PM1_11" style="stroke: #A80036; stroke-width: 2.0;"/><polygon fill="#A80036" points="454.4666,170.478,447.9027,163.1353,449.9075,168.425,444.6179,170.4298,454.4666,170.478" style="stroke: #A80036; stroke-width: 1.0;"/><!--link PROD_PP_TASKS to PM1_11--><path d="M191.749,84.7645 C199.5968,92.9597 209.52,101.9468 220,108 C280.6721,143.044 357.5267,164.1578 415.362,176.1639 " fill="none" id="PROD_PP_TASKS-PM1_11" style="stroke: #A80036; stroke-width: 2.0;"/><polygon fill="#A80036" points="420.5457,177.2262,412.5321,171.5007,415.6475,176.2223,410.9259,179.3378,420.5457,177.2262" style="stroke: #A80036; stroke-width: 1.0;"/><!--link PROD_PP_WT to PM1_11--><path d="M105.5171,84.685 C112.2457,93.069 121.066,102.2274 131,108 C178.3122,135.493 320.5725,161.9641 413.9993,177.0777 " fill="none" id="PROD_PP_WT-PM1_11" style="stroke: #A80036; stroke-width: 2.0;"/><polygon fill="#A80036" points="418.9666,177.878,410.7176,172.4972,414.0303,177.0826,409.4449,180.3953,418.9666,177.878" style="stroke: #A80036; stroke-width: 1.0;"/><!--link PM1_11 to PROD_PP_RISK--><path d="M491.4088,168.0836 C482.7613,146.0236 469.4552,112.0795 460.4983,89.2303 " fill="none" id="PM1_11-PROD_PP_RISK" style="stroke: #A80036; stroke-width: 2.0;"/><polygon fill="#A80036" points="458.6563,84.5312,458.2169,94.3703,460.4811,89.1863,465.6651,91.4505,458.6563,84.5312" style="stroke: #A80036; stroke-width: 1.0;"/><!--
@startuml



skinparam handwritten false
skinparam defaultFontName Futura


actor PJM

artifact "Project Plan" {
component "Cost" as PROD_PP_COST
component "Delivery" as PROD_PP_DI
component "Estimated" as PROD_PP_ESTIMATED
component "Milestones" as PROD_PP_MILESTONES
component "Resources" as PROD_PP_RESOURCES
component "Risk" as PROD_PP_RISK
component "SBS" as PROD_PP_SBS
component "Schedule" as PROD_PP_SCHEDULE
component "Tasks" as PROD_PP_TASKS
component "WT" as PROD_PP_WT
}

usecase "Identify Risk Management" as PM1_11
PROD_PP_COST ==> PM1_11
PROD_PP_DI ==> PM1_11
PROD_PP_ESTIMATED ==> PM1_11
PROD_PP_MILESTONES ==> PM1_11
PROD_PP_RESOURCES ==> PM1_11
PROD_PP_SBS ==> PM1_11
PROD_PP_SCHEDULE ==> PM1_11
PROD_PP_TASKS ==> PM1_11
PROD_PP_WT ==> PM1_11
PM1_11 ==> PROD_PP_RISK

@enduml

PlantUML version 1.2019.00(Sun Jan 13 07:46:42 PST 2019)
(GPL source distribution)
Java Runtime: Java(TM) SE Runtime Environment
JVM: Java HotSpot(TM) 64-Bit Server VM
Java Version: 10.0.1+10
Operating System: Mac OS X
OS Version: 10.14.3
Default Encoding: UTF-8
Language: en
Country: US
--></g></svg>