<svg xmlns="http://www.w3.org/2000/svg" height="212" preserveAspectRatio="none" style="width:227px;height:212px" width="227"><defs><filter height="300%" id="a" width="300%" x="-1" y="-1"><feGaussianBlur result="blurOut" stdDeviation="2"/><feColorMatrix in="blurOut" result="blurOut2" values="0 0 0 0 0 0 0 0 0 0 0 0 0 0 0 0 0 0 .4 0"/><feOffset dx="4" dy="4" in="blurOut2" result="blurOut3"/><feBlend in="SourceGraphic" in2="blurOut3"/></filter></defs><path fill="#FFF" filter="url(#a)" stroke="#000" stroke-width="1.5" d="M25 125h185v76H25z"/><path fill="#FFF" stroke="#000" stroke-width="1.5" d="M193 130v14h12v-8l-6-6h-6z"/><path stroke="#000" stroke-width="1.5" d="M199 130v6M205 136h-6"/><text font-family="Futura" font-size="14" font-weight="bold" lengthAdjust="spacingAndGlyphs" textLength="88" x="73.5" y="141.966">Project Plan</text><path fill="#FEFECE" filter="url(#a)" stroke="#a80036" stroke-width="1.5" d="M122 154h80v38.594h-80z"/><path fill="#FEFECE" stroke="#a80036" stroke-width="1.5" d="M117 159h10v5h-10zM117 182.594h10v5h-10z"/><text font-family="Futura" font-size="14" lengthAdjust="spacingAndGlyphs" textLength="60" x="132" y="178.957">Estimated</text><path fill="#FEFECE" filter="url(#a)" stroke="#a80036" stroke-width="1.5" d="M33 154h54v38.594H33z"/><path fill="#FEFECE" stroke="#a80036" stroke-width="1.5" d="M28 159h10v5H28zM28 182.594h10v5H28z"/><text font-family="Futura" font-size="14" lengthAdjust="spacingAndGlyphs" textLength="34" x="43" y="178.957">Tasks</text><circle cx="21" cy="18" fill="#FEFECE" filter="url(#a)" stroke="#a80036" stroke-width="2" r="8"/><path d="M21 26v27M8 34h26M21 53L8 68m13-15l13 15" fill="none" filter="url(#a)" stroke="#a80036" stroke-width="2"/><text font-family="Futura" font-size="14" lengthAdjust="spacingAndGlyphs" textLength="27" x="7.5" y="89.957">PJM</text><ellipse cx="110.77" cy="51.148" fill="#FEFECE" filter="url(#a)" rx="39.77" ry="16.148" stroke="#a80036" stroke-width="1.5"/><text font-family="Futura" font-size="14" lengthAdjust="spacingAndGlyphs" textLength="52" x="84.77" y="56.945">Estimate</text><path d="M68.187 153.835l34.2-82.147" fill="none" stroke="#a80036" stroke-width="2"/><path fill="#A80036" stroke="#a80036" d="M104.333 67.015l-7.152 6.771 5.23-2.155 2.155 5.23-.233-9.846z"/><path d="M117.667 67.015l34.188 82.117" fill="none" stroke="#a80036" stroke-width="2"/><path fill="#A80036" stroke="#a80036" d="M153.813 153.835l.234-9.846-2.156 5.23-5.23-2.155 7.152 6.771z"/></svg>