<?xml version="1.0" encoding="UTF-8" standalone="no"?><svg xmlns="http://www.w3.org/2000/svg" xmlns:xlink="http://www.w3.org/1999/xlink" contentScriptType="application/ecmascript" contentStyleType="text/css" height="298px" preserveAspectRatio="none" style="width:253px;height:298px;" version="1.1" viewBox="0 0 253 298" width="253px" zoomAndPan="magnify"><defs><filter height="300%" id="f3zp75a6idhz9" width="300%" x="-1" y="-1"><feGaussianBlur result="blurOut" stdDeviation="2.0"/><feColorMatrix in="blurOut" result="blurOut2" type="matrix" values="0 0 0 0 0 0 0 0 0 0 0 0 0 0 0 0 0 0 .4 0"/><feOffset dx="4.0" dy="4.0" in="blurOut2" result="blurOut3"/><feBlend in="SourceGraphic" in2="blurOut3" mode="normal"/></filter></defs><g><!--entity PJM--><ellipse cx="21" cy="18" fill="#FEFECE" filter="url(#f3zp75a6idhz9)" rx="8" ry="8" style="stroke: #A80036; stroke-width: 2.0;"/><path d="M21,26 L21,53 M8,34 L34,34 M21,53 L8,68 M21,53 L34,68 " fill="none" filter="url(#f3zp75a6idhz9)" style="stroke: #A80036; stroke-width: 2.0;"/><text fill="#000000" font-family="Futura" font-size="14" lengthAdjust="spacingAndGlyphs" textLength="27" x="7.5" y="89.957">PJM</text><!--entity DES--><ellipse cx="86" cy="18" fill="#FEFECE" filter="url(#f3zp75a6idhz9)" rx="8" ry="8" style="stroke: #A80036; stroke-width: 2.0;"/><path d="M86,26 L86,53 M73,34 L99,34 M86,53 L73,68 M86,53 L99,68 " fill="none" filter="url(#f3zp75a6idhz9)" style="stroke: #A80036; stroke-width: 2.0;"/><text fill="#000000" font-family="Futura" font-size="14" lengthAdjust="spacingAndGlyphs" textLength="26" x="73" y="89.957">DES</text><!--entity PROD_SDD--><rect fill="#FEFECE" filter="url(#f3zp75a6idhz9)" height="41.5938" style="stroke: #000000; stroke-width: 1.5;" width="58" x="136" y="30"/><polygon fill="#FEFECE" points="177,35,177,49,189,49,189,41,183,35,177,35" style="stroke: #000000; stroke-width: 1.5;"/><line style="stroke: #000000; stroke-width: 1.5;" x1="183" x2="183" y1="35" y2="41"/><line style="stroke: #000000; stroke-width: 1.5;" x1="189" x2="183" y1="41" y2="41"/><text fill="#000000" font-family="Futura" font-size="14" lengthAdjust="spacingAndGlyphs" textLength="28" x="146" y="57.957">SDD</text><!--entity PROD_PP_SBS--><rect fill="#FEFECE" filter="url(#f3zp75a6idhz9)" height="41.5938" style="stroke: #000000; stroke-width: 1.5;" width="142" x="94" y="246"/><polygon fill="#FEFECE" points="219,251,219,265,231,265,231,257,225,251,219,251" style="stroke: #000000; stroke-width: 1.5;"/><line style="stroke: #000000; stroke-width: 1.5;" x1="225" x2="225" y1="251" y2="257"/><line style="stroke: #000000; stroke-width: 1.5;" x1="231" x2="225" y1="257" y2="257"/><text fill="#000000" font-family="Futura" font-size="14" lengthAdjust="spacingAndGlyphs" textLength="112" x="104" y="273.957">Project Plan (SBS)</text><ellipse cx="164.7904" cy="170.1478" fill="#FEFECE" filter="url(#f3zp75a6idhz9)" rx="51.7904" ry="16.1478" style="stroke: #A80036; stroke-width: 1.5;"/><text fill="#000000" font-family="Futura" font-size="14" lengthAdjust="spacingAndGlyphs" textLength="69" x="130.2904" y="175.9446">Define SBS</text><!--link PROD_SDD to PM1_3--><path d="M165,72.0009 C165,93.5297 165,126.8432 165,148.5383 " fill="none" id="PROD_SDD-PM1_3" style="stroke: #A80036; stroke-width: 2.0;"/><polygon fill="#A80036" points="165,153.7895,169,144.7895,165,148.7895,161,144.7895,165,153.7895" style="stroke: #A80036; stroke-width: 1.0;"/><!--link PM1_3 to PROD_PP_SBS--><path d="M165,186.0176 C165,200.8422 165,223.1604 165,240.6154 " fill="none" id="PM1_3-PROD_PP_SBS" style="stroke: #A80036; stroke-width: 2.0;"/><polygon fill="#A80036" points="165,245.8627,169,236.8627,165,240.8627,161,236.8627,165,245.8627" style="stroke: #A80036; stroke-width: 1.0;"/><!--
@startuml



skinparam handwritten false
skinparam defaultFontName Futura


actor PJM
actor DES

artifact "SDD" as PROD_SDD
artifact "Project Plan (SBS)" as PROD_PP_SBS

usecase "Define SBS" as PM1_3
PROD_SDD ==> PM1_3
PM1_3 ==> PROD_PP_SBS

@enduml

PlantUML version 1.2019.00(Sun Jan 13 07:46:42 PST 2019)
(GPL source distribution)
Java Runtime: Java(TM) SE Runtime Environment
JVM: Java HotSpot(TM) 64-Bit Server VM
Java Version: 10.0.1+10
Operating System: Mac OS X
OS Version: 10.14.3
Default Encoding: UTF-8
Language: en
Country: US
--></g></svg>