<?xml version="1.0" encoding="UTF-8" standalone="no"?><svg xmlns="http://www.w3.org/2000/svg" xmlns:xlink="http://www.w3.org/1999/xlink" contentScriptType="application/ecmascript" contentStyleType="text/css" height="302px" preserveAspectRatio="none" style="width:246px;height:302px;" version="1.1" viewBox="0 0 246 302" width="246px" zoomAndPan="magnify"><defs><filter height="300%" id="f1i51h76zgzs62" width="300%" x="-1" y="-1"><feGaussianBlur result="blurOut" stdDeviation="2.0"/><feColorMatrix in="blurOut" result="blurOut2" type="matrix" values="0 0 0 0 0 0 0 0 0 0 0 0 0 0 0 0 0 0 .4 0"/><feOffset dx="4.0" dy="4.0" in="blurOut2" result="blurOut3"/><feBlend in="SourceGraphic" in2="blurOut3" mode="normal"/></filter></defs><g><!--entity PJM--><ellipse cx="21" cy="18" fill="#FEFECE" filter="url(#f1i51h76zgzs62)" rx="8" ry="8" style="stroke: #A80036; stroke-width: 2.0;"/><path d="M21,26 L21,53 M8,34 L34,34 M21,53 L8,68 M21,53 L34,68 " fill="none" filter="url(#f1i51h76zgzs62)" style="stroke: #A80036; stroke-width: 2.0;"/><text fill="#000000" font-family="Futura" font-size="14" lengthAdjust="spacingAndGlyphs" textLength="27" x="7.5" y="89.957">PJM</text><!--entity PROD_SOW_REVIEWED--><rect fill="#FEFECE" filter="url(#f1i51h76zgzs62)" height="41.5938" style="stroke: #000000; stroke-width: 1.5;" width="133" x="71.5" y="30"/><polygon fill="#FEFECE" points="187.5,35,187.5,49,199.5,49,199.5,41,193.5,35,187.5,35" style="stroke: #000000; stroke-width: 1.5;"/><line style="stroke: #000000; stroke-width: 1.5;" x1="193.5" x2="193.5" y1="35" y2="41"/><line style="stroke: #000000; stroke-width: 1.5;" x1="199.5" x2="193.5" y1="41" y2="41"/><text fill="#000000" font-family="Futura" font-size="14" lengthAdjust="spacingAndGlyphs" textLength="103" x="81.5" y="57.957">SoW (reviewed)</text><!--entity PROD_PP_RESOURCES--><rect fill="#FEFECE" filter="url(#f1i51h76zgzs62)" height="41.5938" style="stroke: #000000; stroke-width: 1.5;" width="182" x="47" y="250"/><polygon fill="#FEFECE" points="212,255,212,269,224,269,224,261,218,255,212,255" style="stroke: #000000; stroke-width: 1.5;"/><line style="stroke: #000000; stroke-width: 1.5;" x1="218" x2="218" y1="255" y2="261"/><line style="stroke: #000000; stroke-width: 1.5;" x1="224" x2="218" y1="261" y2="261"/><text fill="#000000" font-family="Futura" font-size="14" lengthAdjust="spacingAndGlyphs" textLength="152" x="57" y="277.957">Project Plan (Resources)</text><ellipse cx="137.9395" cy="171.7879" fill="#FEFECE" filter="url(#f1i51h76zgzs62)" rx="76.9395" ry="17.7879" style="stroke: #A80036; stroke-width: 1.5;"/><text fill="#000000" font-family="Futura" font-size="14" lengthAdjust="spacingAndGlyphs" textLength="115" x="80.4395" y="177.5848">Identify Resources</text><!--link PROD_SOW_REVIEWED to PM1_7--><path d="M138,72.0766 C138,93.5146 138,126.6501 138,148.8177 " fill="none" id="PROD_SOW_REVIEWED-PM1_7" style="stroke: #A80036; stroke-width: 2.0;"/><polygon fill="#A80036" points="138,153.9259,142,144.9259,138,148.9259,134,144.9259,138,153.9259" style="stroke: #A80036; stroke-width: 1.0;"/><!--link PM1_7 to PROD_PP_RESOURCES--><path d="M138,190.1581 C138,205.4357 138,227.4798 138,244.6911 " fill="none" id="PM1_7-PROD_PP_RESOURCES" style="stroke: #A80036; stroke-width: 2.0;"/><polygon fill="#A80036" points="138,249.8645,142,240.8645,138,244.8645,134,240.8645,138,249.8645" style="stroke: #A80036; stroke-width: 1.0;"/><!--
@startuml



skinparam handwritten false
skinparam defaultFontName Futura


actor PJM

artifact "SoW (reviewed)" as PROD_SOW_REVIEWED
artifact "Project Plan (Resources)" as PROD_PP_RESOURCES

usecase "Identify Resources" as PM1_7
PROD_SOW_REVIEWED ==> PM1_7
PM1_7 ==> PROD_PP_RESOURCES

@enduml

PlantUML version 1.2019.00(Sun Jan 13 07:46:42 PST 2019)
(GPL source distribution)
Java Runtime: Java(TM) SE Runtime Environment
JVM: Java HotSpot(TM) 64-Bit Server VM
Java Version: 10.0.1+10
Operating System: Mac OS X
OS Version: 10.14.3
Default Encoding: UTF-8
Language: en
Country: US
--></g></svg>