<svg xmlns="http://www.w3.org/2000/svg" height="304" preserveAspectRatio="none" style="width:236px;height:304px" width="236"><defs><filter height="300%" id="a" width="300%" x="-1" y="-1"><feGaussianBlur result="blurOut" stdDeviation="2"/><feColorMatrix in="blurOut" result="blurOut2" values="0 0 0 0 0 0 0 0 0 0 0 0 0 0 0 0 0 0 .4 0"/><feOffset dx="4" dy="4" in="blurOut2" result="blurOut3"/><feBlend in="SourceGraphic" in2="blurOut3"/></filter></defs><circle cx="21" cy="18" fill="#FEFECE" filter="url(#a)" stroke="#a80036" stroke-width="2" r="8"/><path d="M21 26v27M8 34h26M21 53L8 68m13-15l13 15" fill="none" filter="url(#a)" stroke="#a80036" stroke-width="2"/><text font-family="Futura" font-size="14" lengthAdjust="spacingAndGlyphs" textLength="27" x="7.5" y="89.957">PJM</text><path fill="#FEFECE" filter="url(#a)" stroke="#000" stroke-width="1.5" d="M71.5 252h141v41.594h-141z"/><path fill="#FEFECE" stroke="#000" stroke-width="1.5" d="M195.5 257v14h12v-8l-6-6h-6z"/><path stroke="#000" stroke-width="1.5" d="M201.5 257v6M207.5 263h-6"/><text font-family="Futura" font-size="14" lengthAdjust="spacingAndGlyphs" textLength="111" x="81.5" y="279.957">Project Plan (CM)</text><path fill="#FEFECE" filter="url(#a)" stroke="#000" stroke-width="1.5" d="M71 30h142v41.594H71z"/><path fill="#FEFECE" stroke="#000" stroke-width="1.5" d="M196 35v14h12v-8l-6-6h-6z"/><path stroke="#000" stroke-width="1.5" d="M202 35v6M208 41h-6"/><text font-family="Futura" font-size="14" lengthAdjust="spacingAndGlyphs" textLength="112" x="81" y="57.957">Project Plan (SBS)</text><ellipse cx="141.818" cy="173.064" fill="#FEFECE" filter="url(#a)" rx="83.318" ry="19.064" stroke="#a80036" stroke-width="1.5"/><text font-family="Futura" font-size="14" lengthAdjust="spacingAndGlyphs" textLength="131" x="76.318" y="178.861">Identify CM Strategy</text><path d="M142 72.25v76.587" fill="none" stroke="#a80036" stroke-width="2"/><path fill="#A80036" stroke="#a80036" d="M142 153.996l4-9-4 4-4-4 4 9z"/><path d="M142 192.281v54.29" fill="none" stroke="#a80036" stroke-width="2"/><path fill="#A80036" stroke="#a80036" d="M142 251.7l4-9-4 4-4-4 4 9z"/></svg>