<?xml version="1.0" encoding="UTF-8" standalone="no"?><svg xmlns="http://www.w3.org/2000/svg" xmlns:xlink="http://www.w3.org/1999/xlink" contentScriptType="application/ecmascript" contentStyleType="text/css" height="304px" preserveAspectRatio="none" style="width:292px;height:304px;" version="1.1" viewBox="0 0 292 304" width="292px" zoomAndPan="magnify"><defs><filter height="300%" id="f7k556ri0gnut" width="300%" x="-1" y="-1"><feGaussianBlur result="blurOut" stdDeviation="2.0"/><feColorMatrix in="blurOut" result="blurOut2" type="matrix" values="0 0 0 0 0 0 0 0 0 0 0 0 0 0 0 0 0 0 .4 0"/><feOffset dx="4.0" dy="4.0" in="blurOut2" result="blurOut3"/><feBlend in="SourceGraphic" in2="blurOut3" mode="normal"/></filter></defs><g><!--cluster Project Plan--><rect fill="#FFFFFF" filter="url(#f7k556ri0gnut)" height="76" style="stroke: #000000; stroke-width: 1.5;" width="149" x="126" y="217"/><polygon fill="#FFFFFF" points="258,222,258,236,270,236,270,228,264,222,258,222" style="stroke: #000000; stroke-width: 1.5;"/><line style="stroke: #000000; stroke-width: 1.5;" x1="264" x2="264" y1="222" y2="228"/><line style="stroke: #000000; stroke-width: 1.5;" x1="270" x2="264" y1="228" y2="228"/><text fill="#000000" font-family="Futura" font-size="14" font-weight="bold" lengthAdjust="spacingAndGlyphs" textLength="88" x="156.5" y="233.966">Project Plan</text><!--entity PROD_PP_SBS--><rect fill="#FEFECE" filter="url(#f7k556ri0gnut)" height="38.5938" style="stroke: #A80036; stroke-width: 1.5;" width="44" x="223" y="246"/><rect fill="#FEFECE" height="5" style="stroke: #A80036; stroke-width: 1.5;" width="10" x="218" y="251"/><rect fill="#FEFECE" height="5" style="stroke: #A80036; stroke-width: 1.5;" width="10" x="218" y="274.5938"/><text fill="#000000" font-family="Futura" font-size="14" lengthAdjust="spacingAndGlyphs" textLength="24" x="233" y="270.957">SBS</text><!--entity PROD_PP_TASKS--><rect fill="#FEFECE" filter="url(#f7k556ri0gnut)" height="38.5938" style="stroke: #A80036; stroke-width: 1.5;" width="54" x="134" y="246"/><rect fill="#FEFECE" height="5" style="stroke: #A80036; stroke-width: 1.5;" width="10" x="129" y="251"/><rect fill="#FEFECE" height="5" style="stroke: #A80036; stroke-width: 1.5;" width="10" x="129" y="274.5938"/><text fill="#000000" font-family="Futura" font-size="14" lengthAdjust="spacingAndGlyphs" textLength="34" x="144" y="270.957">Tasks</text><!--entity PJM--><ellipse cx="21" cy="18" fill="#FEFECE" filter="url(#f7k556ri0gnut)" rx="8" ry="8" style="stroke: #A80036; stroke-width: 2.0;"/><path d="M21,26 L21,53 M8,34 L34,34 M21,53 L8,68 M21,53 L34,68 " fill="none" filter="url(#f7k556ri0gnut)" style="stroke: #A80036; stroke-width: 2.0;"/><text fill="#000000" font-family="Futura" font-size="14" lengthAdjust="spacingAndGlyphs" textLength="27" x="7.5" y="89.957">PJM</text><!--entity SYS--><ellipse cx="86" cy="18" fill="#FEFECE" filter="url(#f7k556ri0gnut)" rx="8" ry="8" style="stroke: #A80036; stroke-width: 2.0;"/><path d="M86,26 L86,53 M73,34 L99,34 M86,53 L73,68 M86,53 L99,68 " fill="none" filter="url(#f7k556ri0gnut)" style="stroke: #A80036; stroke-width: 2.0;"/><text fill="#000000" font-family="Futura" font-size="14" lengthAdjust="spacingAndGlyphs" textLength="24" x="74" y="89.957">SYS</text><!--entity PROD_SOW_REVIEWED--><rect fill="#FEFECE" filter="url(#f7k556ri0gnut)" height="41.5938" style="stroke: #000000; stroke-width: 1.5;" width="133" x="136.5" y="30"/><polygon fill="#FEFECE" points="252.5,35,252.5,49,264.5,49,264.5,41,258.5,35,252.5,35" style="stroke: #000000; stroke-width: 1.5;"/><line style="stroke: #000000; stroke-width: 1.5;" x1="258.5" x2="258.5" y1="35" y2="41"/><line style="stroke: #000000; stroke-width: 1.5;" x1="264.5" x2="258.5" y1="41" y2="41"/><text fill="#000000" font-family="Futura" font-size="14" lengthAdjust="spacingAndGlyphs" textLength="103" x="146.5" y="57.957">SoW (reviewed)</text><ellipse cx="202.8614" cy="170.1478" fill="#FEFECE" filter="url(#f7k556ri0gnut)" rx="58.8614" ry="16.1478" style="stroke: #A80036; stroke-width: 1.5;"/><text fill="#000000" font-family="Futura" font-size="14" lengthAdjust="spacingAndGlyphs" textLength="79" x="163.3614" y="175.9446">Define Tasks</text><!--link PROD_SOW_REVIEWED to PM1_5--><path d="M203,72.0009 C203,93.5297 203,126.8432 203,148.5383 " fill="none" id="PROD_SOW_REVIEWED-PM1_5" style="stroke: #A80036; stroke-width: 2.0;"/><polygon fill="#A80036" points="203,153.7895,207,144.7895,203,148.7895,199,144.7895,203,153.7895" style="stroke: #A80036; stroke-width: 1.0;"/><!--link PROD_PP_SBS to PM1_5--><path d="M236.3858,245.913 C229.3612,229.9404 219.4594,207.4255 212.2645,191.0658 " fill="none" id="PROD_PP_SBS-PM1_5" style="stroke: #A80036; stroke-width: 2.0;"/><polygon fill="#A80036" points="210.1247,186.2003,210.0862,196.0491,212.1375,190.7773,217.4094,192.8285,210.1247,186.2003" style="stroke: #A80036; stroke-width: 1.0;"/><!--link PM1_5 to PROD_PP_TASKS--><path d="M195.8753,186.2003 C189.2436,201.2795 179.2703,223.9568 171.6854,241.2034 " fill="none" id="PM1_5-PROD_PP_TASKS" style="stroke: #A80036; stroke-width: 2.0;"/><polygon fill="#A80036" points="169.6142,245.913,176.8989,239.2848,171.6271,241.3361,169.5759,236.0642,169.6142,245.913" style="stroke: #A80036; stroke-width: 1.0;"/><!--
@startuml



skinparam handwritten false
skinparam defaultFontName Futura


actor PJM
actor SYS

artifact "SoW (reviewed)" as PROD_SOW_REVIEWED
artifact "Project Plan" {
component "SBS" as PROD_PP_SBS
component "Tasks" as PROD_PP_TASKS
}

usecase "Define Tasks" as PM1_5
PROD_SOW_REVIEWED ==> PM1_5
PROD_PP_SBS ==> PM1_5
PM1_5 ==> PROD_PP_TASKS

@enduml

PlantUML version 1.2019.00(Sun Jan 13 07:46:42 PST 2019)
(GPL source distribution)
Java Runtime: Java(TM) SE Runtime Environment
JVM: Java HotSpot(TM) 64-Bit Server VM
Java Version: 10.0.1+10
Operating System: Mac OS X
OS Version: 10.14.3
Default Encoding: UTF-8
Language: en
Country: US
--></g></svg>