<?xml version="1.0" encoding="UTF-8" standalone="no"?><svg xmlns="http://www.w3.org/2000/svg" xmlns:xlink="http://www.w3.org/1999/xlink" contentScriptType="application/ecmascript" contentStyleType="text/css" height="298px" preserveAspectRatio="none" style="width:233px;height:298px;" version="1.1" viewBox="0 0 233 298" width="233px" zoomAndPan="magnify"><defs><filter height="300%" id="f1vpoo03kuba5h" width="300%" x="-1" y="-1"><feGaussianBlur result="blurOut" stdDeviation="2.0"/><feColorMatrix in="blurOut" result="blurOut2" type="matrix" values="0 0 0 0 0 0 0 0 0 0 0 0 0 0 0 0 0 0 .4 0"/><feOffset dx="4.0" dy="4.0" in="blurOut2" result="blurOut3"/><feBlend in="SourceGraphic" in2="blurOut3" mode="normal"/></filter></defs><g><!--entity PJM--><ellipse cx="21" cy="18" fill="#FEFECE" filter="url(#f1vpoo03kuba5h)" rx="8" ry="8" style="stroke: #A80036; stroke-width: 2.0;"/><path d="M21,26 L21,53 M8,34 L34,34 M21,53 L8,68 M21,53 L34,68 " fill="none" filter="url(#f1vpoo03kuba5h)" style="stroke: #A80036; stroke-width: 2.0;"/><text fill="#000000" font-family="Futura" font-size="14" lengthAdjust="spacingAndGlyphs" textLength="27" x="7.5" y="89.957">PJM</text><!--entity PROD_SOW_REVIEWED--><rect fill="#FEFECE" filter="url(#f1vpoo03kuba5h)" height="41.5938" style="stroke: #000000; stroke-width: 1.5;" width="133" x="71.5" y="30"/><polygon fill="#FEFECE" points="187.5,35,187.5,49,199.5,49,199.5,41,193.5,35,187.5,35" style="stroke: #000000; stroke-width: 1.5;"/><line style="stroke: #000000; stroke-width: 1.5;" x1="193.5" x2="193.5" y1="35" y2="41"/><line style="stroke: #000000; stroke-width: 1.5;" x1="199.5" x2="193.5" y1="41" y2="41"/><text fill="#000000" font-family="Futura" font-size="14" lengthAdjust="spacingAndGlyphs" textLength="103" x="81.5" y="57.957">SoW (reviewed)</text><!--entity PROD_PP_SCOPE--><rect fill="#FEFECE" filter="url(#f1vpoo03kuba5h)" height="41.5938" style="stroke: #000000; stroke-width: 1.5;" width="157" x="59.5" y="246"/><polygon fill="#FEFECE" points="199.5,251,199.5,265,211.5,265,211.5,257,205.5,251,199.5,251" style="stroke: #000000; stroke-width: 1.5;"/><line style="stroke: #000000; stroke-width: 1.5;" x1="205.5" x2="205.5" y1="251" y2="257"/><line style="stroke: #000000; stroke-width: 1.5;" x1="211.5" x2="205.5" y1="257" y2="257"/><text fill="#000000" font-family="Futura" font-size="14" lengthAdjust="spacingAndGlyphs" textLength="127" x="69.5" y="273.957">Project Plan (Scope)</text><ellipse cx="137.897" cy="170.1478" fill="#FEFECE" filter="url(#f1vpoo03kuba5h)" rx="62.397" ry="16.1478" style="stroke: #A80036; stroke-width: 1.5;"/><text fill="#000000" font-family="Futura" font-size="14" lengthAdjust="spacingAndGlyphs" textLength="84" x="95.897" y="175.9446">Define Scope</text><!--link PROD_SOW_REVIEWED to PM1_14--><path d="M138,72.0009 C138,93.5297 138,126.8432 138,148.5383 " fill="none" id="PROD_SOW_REVIEWED-PM1_14" style="stroke: #A80036; stroke-width: 2.0;"/><polygon fill="#A80036" points="138,153.7895,142,144.7895,138,148.7895,134,144.7895,138,153.7895" style="stroke: #A80036; stroke-width: 1.0;"/><!--link PM1_14 to PROD_PP_SCOPE--><path d="M138,186.0176 C138,200.8422 138,223.1604 138,240.6154 " fill="none" id="PM1_14-PROD_PP_SCOPE" style="stroke: #A80036; stroke-width: 2.0;"/><polygon fill="#A80036" points="138,245.8627,142,236.8627,138,240.8627,134,236.8627,138,245.8627" style="stroke: #A80036; stroke-width: 1.0;"/><!--
@startuml



skinparam handwritten false
skinparam defaultFontName Futura


actor PJM

artifact "SoW (reviewed)" as PROD_SOW_REVIEWED
artifact "Project Plan (Scope)" as PROD_PP_SCOPE

usecase "Define Scope" as PM1_14
PROD_SOW_REVIEWED ==> PM1_14
PM1_14 ==> PROD_PP_SCOPE

@enduml

PlantUML version 1.2019.00(Sun Jan 13 07:46:42 PST 2019)
(GPL source distribution)
Java Runtime: Java(TM) SE Runtime Environment
JVM: Java HotSpot(TM) 64-Bit Server VM
Java Version: 10.0.1+10
Operating System: Mac OS X
OS Version: 10.14.3
Default Encoding: UTF-8
Language: en
Country: US
--></g></svg>