<svg xmlns="http://www.w3.org/2000/svg" height="358" preserveAspectRatio="none" style="width:287px;height:358px" width="287"><defs><filter height="300%" id="a" width="300%" x="-1" y="-1"><feGaussianBlur result="blurOut" stdDeviation="2"/><feColorMatrix in="blurOut" result="blurOut2" values="0 0 0 0 0 0 0 0 0 0 0 0 0 0 0 0 0 0 .4 0"/><feOffset dx="4" dy="4" in="blurOut2" result="blurOut3"/><feBlend in="SourceGraphic" in2="blurOut3"/></filter></defs><path fill="#FFF" filter="url(#a)" stroke="#000" stroke-width="1.5" d="M87 271h183v76H87z"/><path fill="#FFF" stroke="#000" stroke-width="1.5" d="M253 276v14h12v-8l-6-6h-6z"/><path stroke="#000" stroke-width="1.5" d="M259 276v6M265 282h-6"/><text font-family="Futura" font-size="14" font-weight="bold" lengthAdjust="spacingAndGlyphs" textLength="88" x="134.5" y="287.966">Project Plan</text><path fill="#FEFECE" filter="url(#a)" stroke="#a80036" stroke-width="1.5" d="M174.5 300h87v38.594h-87z"/><path fill="#FEFECE" stroke="#a80036" stroke-width="1.5" d="M169.5 305h10v5h-10zM169.5 328.594h10v5h-10z"/><text font-family="Futura" font-size="14" lengthAdjust="spacingAndGlyphs" textLength="67" x="184.5" y="324.957">Milestones</text><path fill="#FEFECE" filter="url(#a)" stroke="#a80036" stroke-width="1.5" d="M95 300h44v38.594H95z"/><path fill="#FEFECE" stroke="#a80036" stroke-width="1.5" d="M90 305h10v5H90zM90 328.594h10v5H90z"/><text font-family="Futura" font-size="14" lengthAdjust="spacingAndGlyphs" textLength="24" x="105" y="324.957">SBS</text><circle cx="21" cy="18" fill="#FEFECE" filter="url(#a)" stroke="#a80036" stroke-width="2" r="8"/><path d="M21 26v27M8 34h26M21 53L8 68m13-15l13 15" fill="none" filter="url(#a)" stroke="#a80036" stroke-width="2"/><text font-family="Futura" font-size="14" lengthAdjust="spacingAndGlyphs" textLength="27" x="7.5" y="89.957">PJM</text><circle cx="86" cy="18" fill="#FEFECE" filter="url(#a)" stroke="#a80036" stroke-width="2" r="8"/><path d="M86 26v27M73 34h26M86 53L73 68m13-15l13 15" fill="none" filter="url(#a)" stroke="#a80036" stroke-width="2"/><text font-family="Futura" font-size="14" lengthAdjust="spacingAndGlyphs" textLength="22" x="75" y="89.957">WT</text><circle cx="21" cy="164" fill="#FEFECE" filter="url(#a)" stroke="#a80036" stroke-width="2" r="8"/><path d="M21 172v27M8 180h26m-13 19L8 214m13-15l13 15" fill="none" filter="url(#a)" stroke="#a80036" stroke-width="2"/><text font-family="Futura" font-size="14" lengthAdjust="spacingAndGlyphs" textLength="24" x="9" y="235.957">SYS</text><path fill="#FEFECE" filter="url(#a)" stroke="#000" stroke-width="1.5" d="M136.5 30h61v41.594h-61z"/><path fill="#FEFECE" stroke="#000" stroke-width="1.5" d="M180.5 35v14h12v-8l-6-6h-6z"/><path stroke="#000" stroke-width="1.5" d="M186.5 35v6M192.5 41h-6"/><text font-family="Futura" font-size="14" lengthAdjust="spacingAndGlyphs" textLength="31" x="146.5" y="57.957">SoW</text><ellipse cx="166.779" cy="197.056" fill="#FEFECE" filter="url(#a)" rx="75.779" ry="17.556" stroke="#a80036" stroke-width="1.5"/><text font-family="Futura" font-size="14" lengthAdjust="spacingAndGlyphs" textLength="112" x="110.779" y="202.853">Define Milestones</text><path d="M124.977 299.956l32.934-80.687" fill="none" stroke="#a80036" stroke-width="2"/><path fill="#A80036" stroke="#a80036" d="M159.836 214.551l-7.104 6.821 5.215-2.191 2.192 5.214-.303-9.844z"/><path d="M167 72.23v101.86" fill="none" stroke="#a80036" stroke-width="2"/><path fill="#A80036" stroke="#a80036" d="M167 179.41l4-9-4 4-4-4 4 9z"/><path d="M174.307 214.551l33.52 80.515" fill="none" stroke="#a80036" stroke-width="2"/><path fill="#A80036" stroke="#a80036" d="M209.863 299.956l.234-9.846-2.155 5.23-5.23-2.155 7.151 6.771z"/></svg>