<?xml version="1.0" encoding="UTF-8" standalone="no"?><svg xmlns="http://www.w3.org/2000/svg" xmlns:xlink="http://www.w3.org/1999/xlink" contentScriptType="application/ecmascript" contentStyleType="text/css" height="311px" preserveAspectRatio="none" style="width:248px;height:311px;" version="1.1" viewBox="0 0 248 311" width="248px" zoomAndPan="magnify"><defs><filter height="300%" id="f1vl3v4xmglb1g" width="300%" x="-1" y="-1"><feGaussianBlur result="blurOut" stdDeviation="2.0"/><feColorMatrix in="blurOut" result="blurOut2" type="matrix" values="0 0 0 0 0 0 0 0 0 0 0 0 0 0 0 0 0 0 .4 0"/><feOffset dx="4.0" dy="4.0" in="blurOut2" result="blurOut3"/><feBlend in="SourceGraphic" in2="blurOut3" mode="normal"/></filter></defs><g><!--entity PJM--><ellipse cx="21" cy="18" fill="#FEFECE" filter="url(#f1vl3v4xmglb1g)" rx="8" ry="8" style="stroke: #A80036; stroke-width: 2.0;"/><path d="M21,26 L21,53 M8,34 L34,34 M21,53 L8,68 M21,53 L34,68 " fill="none" filter="url(#f1vl3v4xmglb1g)" style="stroke: #A80036; stroke-width: 2.0;"/><text fill="#000000" font-family="Futura" font-size="14" lengthAdjust="spacingAndGlyphs" textLength="27" x="7.5" y="89.957">PJM</text><!--entity PROD_SOW_REVIEWED--><rect fill="#FEFECE" filter="url(#f1vl3v4xmglb1g)" height="41.5938" style="stroke: #000000; stroke-width: 1.5;" width="133" x="71.5" y="30"/><polygon fill="#FEFECE" points="187.5,35,187.5,49,199.5,49,199.5,41,193.5,35,187.5,35" style="stroke: #000000; stroke-width: 1.5;"/><line style="stroke: #000000; stroke-width: 1.5;" x1="193.5" x2="193.5" y1="35" y2="41"/><line style="stroke: #000000; stroke-width: 1.5;" x1="199.5" x2="193.5" y1="41" y2="41"/><text fill="#000000" font-family="Futura" font-size="14" lengthAdjust="spacingAndGlyphs" textLength="103" x="81.5" y="57.957">SoW (reviewed)</text><!--entity PROD_PP_DISPOSAL--><rect fill="#FEFECE" filter="url(#f1vl3v4xmglb1g)" height="41.5938" style="stroke: #000000; stroke-width: 1.5;" width="170" x="53" y="259"/><polygon fill="#FEFECE" points="206,264,206,278,218,278,218,270,212,264,206,264" style="stroke: #000000; stroke-width: 1.5;"/><line style="stroke: #000000; stroke-width: 1.5;" x1="212" x2="212" y1="264" y2="270"/><line style="stroke: #000000; stroke-width: 1.5;" x1="218" x2="212" y1="270" y2="270"/><text fill="#000000" font-family="Futura" font-size="14" lengthAdjust="spacingAndGlyphs" textLength="140" x="63" y="286.957">Project Plan (Disposal)</text><ellipse cx="137.9419" cy="176.2884" fill="#FEFECE" filter="url(#f1vl3v4xmglb1g)" rx="99.4419" ry="22.2884" style="stroke: #A80036; stroke-width: 1.5;"/><text fill="#000000" font-family="Futura" font-size="14" lengthAdjust="spacingAndGlyphs" textLength="169" x="53.4419" y="182.0853">Identify Disposal Approach</text><!--link PROD_SOW_REVIEWED to PM1_12--><path d="M138,72.0059 C138,93.0246 138,125.4792 138,148.6389 " fill="none" id="PROD_SOW_REVIEWED-PM1_12" style="stroke: #A80036; stroke-width: 2.0;"/><polygon fill="#A80036" points="138,153.7252,142,144.7252,138,148.7252,134,144.7252,138,153.7252" style="stroke: #A80036; stroke-width: 1.0;"/><!--link PM1_12 to PROD_PP_DISPOSAL--><path d="M138,199.2135 C138,215.2838 138,236.8774 138,253.6966 " fill="none" id="PM1_12-PROD_PP_DISPOSAL" style="stroke: #A80036; stroke-width: 2.0;"/><polygon fill="#A80036" points="138,258.7517,142,249.7517,138,253.7517,134,249.7517,138,258.7517" style="stroke: #A80036; stroke-width: 1.0;"/><!--
@startuml



skinparam handwritten false
skinparam defaultFontName Futura


actor PJM

artifact "SoW (reviewed)" as PROD_SOW_REVIEWED
artifact "Project Plan (Disposal)" as PROD_PP_DISPOSAL

usecase "Identify Disposal Approach" as PM1_12
PROD_SOW_REVIEWED ==> PM1_12
PM1_12 ==> PROD_PP_DISPOSAL

@enduml

PlantUML version 1.2019.00(Sun Jan 13 07:46:42 PST 2019)
(GPL source distribution)
Java Runtime: Java(TM) SE Runtime Environment
JVM: Java HotSpot(TM) 64-Bit Server VM
Java Version: 10.0.1+10
Operating System: Mac OS X
OS Version: 10.14.3
Default Encoding: UTF-8
Language: en
Country: US
--></g></svg>