<?xml version="1.0" encoding="UTF-8" standalone="no"?><svg xmlns="http://www.w3.org/2000/svg" xmlns:xlink="http://www.w3.org/1999/xlink" contentScriptType="application/ecmascript" contentStyleType="text/css" height="300px" preserveAspectRatio="none" style="width:351px;height:300px;" version="1.1" viewBox="0 0 351 300" width="351px" zoomAndPan="magnify"><defs><filter height="300%" id="f17m6a7itf57aw" width="300%" x="-1" y="-1"><feGaussianBlur result="blurOut" stdDeviation="2.0"/><feColorMatrix in="blurOut" result="blurOut2" type="matrix" values="0 0 0 0 0 0 0 0 0 0 0 0 0 0 0 0 0 0 .4 0"/><feOffset dx="4.0" dy="4.0" in="blurOut2" result="blurOut3"/><feBlend in="SourceGraphic" in2="blurOut3" mode="normal"/></filter></defs><g><!--entity PJM--><ellipse cx="21" cy="18" fill="#FEFECE" filter="url(#f17m6a7itf57aw)" rx="8" ry="8" style="stroke: #A80036; stroke-width: 2.0;"/><path d="M21,26 L21,53 M8,34 L34,34 M21,53 L8,68 M21,53 L34,68 " fill="none" filter="url(#f17m6a7itf57aw)" style="stroke: #A80036; stroke-width: 2.0;"/><text fill="#000000" font-family="Futura" font-size="14" lengthAdjust="spacingAndGlyphs" textLength="27" x="7.5" y="89.957">PJM</text><!--entity WT--><ellipse cx="86" cy="18" fill="#FEFECE" filter="url(#f17m6a7itf57aw)" rx="8" ry="8" style="stroke: #A80036; stroke-width: 2.0;"/><path d="M86,26 L86,53 M73,34 L99,34 M86,53 L73,68 M86,53 L99,68 " fill="none" filter="url(#f17m6a7itf57aw)" style="stroke: #A80036; stroke-width: 2.0;"/><text fill="#000000" font-family="Futura" font-size="14" lengthAdjust="spacingAndGlyphs" textLength="22" x="75" y="89.957">WT</text><!--entity PROD_PP_ACCEPTED--><rect fill="#FEFECE" filter="url(#f17m6a7itf57aw)" height="41.5938" style="stroke: #000000; stroke-width: 1.5;" width="176" x="136" y="30"/><polygon fill="#FEFECE" points="295,35,295,49,307,49,307,41,301,35,295,35" style="stroke: #000000; stroke-width: 1.5;"/><line style="stroke: #000000; stroke-width: 1.5;" x1="301" x2="301" y1="35" y2="41"/><line style="stroke: #000000; stroke-width: 1.5;" x1="307" x2="301" y1="41" y2="41"/><text fill="#000000" font-family="Futura" font-size="14" lengthAdjust="spacingAndGlyphs" textLength="146" x="146" y="57.957">Project Plan (accepted)</text><!--entity META_PROGRESS--><rect fill="#FEFECE" filter="url(#f17m6a7itf57aw)" height="41.5938" style="stroke: #000000; stroke-width: 1.5;" width="220" x="114" y="248"/><polygon fill="#FEFECE" points="317,253,317,267,329,267,329,259,323,253,317,253" style="stroke: #000000; stroke-width: 1.5;"/><line style="stroke: #000000; stroke-width: 1.5;" x1="323" x2="323" y1="253" y2="259"/><line style="stroke: #000000; stroke-width: 1.5;" x1="329" x2="323" y1="259" y2="259"/><text fill="#000000" font-family="Futura" font-size="14" lengthAdjust="spacingAndGlyphs" textLength="190" x="124" y="275.957">Progress Status Record (initial)</text><ellipse cx="223.8735" cy="171.1747" fill="#FEFECE" filter="url(#f17m6a7itf57aw)" rx="73.8735" ry="17.1747" style="stroke: #A80036; stroke-width: 1.5;"/><text fill="#000000" font-family="Futura" font-size="14" lengthAdjust="spacingAndGlyphs" textLength="107" x="170.3735" y="176.9716">Monitor Progress</text><!--link PROD_PP_ACCEPTED to PM2_1--><path d="M224,72.1774 C224,93.7299 224,126.9947 224,148.881 " fill="none" id="PROD_PP_ACCEPTED-PM2_1" style="stroke: #A80036; stroke-width: 2.0;"/><polygon fill="#A80036" points="224,153.9135,228,144.9135,224,148.9135,220,144.9135,224,153.9135" style="stroke: #A80036; stroke-width: 1.0;"/><!--link PM2_1 to META_PROGRESS--><path d="M224,188.0703 C224,203.0791 224,225.1669 224,242.477 " fill="none" id="PM2_1-META_PROGRESS" style="stroke: #A80036; stroke-width: 2.0;"/><polygon fill="#A80036" points="224,247.6826,228,238.6826,224,242.6826,220,238.6826,224,247.6826" style="stroke: #A80036; stroke-width: 1.0;"/><!--
@startuml



skinparam handwritten false
skinparam defaultFontName Futura


actor PJM
actor WT

artifact "Project Plan (accepted)" as PROD_PP_ACCEPTED
artifact "Progress Status Record (initial)" as META_PROGRESS

usecase "Monitor Progress" as PM2_1
PROD_PP_ACCEPTED ==> PM2_1
PM2_1 ==> META_PROGRESS

@enduml

PlantUML version 1.2019.00(Sun Jan 13 07:46:42 PST 2019)
(GPL source distribution)
Java Runtime: Java(TM) SE Runtime Environment
JVM: Java HotSpot(TM) 64-Bit Server VM
Java Version: 10.0.1+10
Operating System: Mac OS X
OS Version: 10.14.3
Default Encoding: UTF-8
Language: en
Country: US
--></g></svg>