<svg xmlns="http://www.w3.org/2000/svg" height="303" preserveAspectRatio="none" style="width:295px;height:303px" width="295"><defs><filter height="300%" id="a" width="300%" x="-1" y="-1"><feGaussianBlur result="blurOut" stdDeviation="2"/><feColorMatrix in="blurOut" result="blurOut2" values="0 0 0 0 0 0 0 0 0 0 0 0 0 0 0 0 0 0 .4 0"/><feOffset dx="4" dy="4" in="blurOut2" result="blurOut3"/><feBlend in="SourceGraphic" in2="blurOut3"/></filter></defs><circle cx="21" cy="18" fill="#FEFECE" filter="url(#a)" stroke="#a80036" stroke-width="2" r="8"/><path d="M21 26v27M8 34h26M21 53L8 68m13-15l13 15" fill="none" filter="url(#a)" stroke="#a80036" stroke-width="2"/><text font-family="Futura" font-size="14" lengthAdjust="spacingAndGlyphs" textLength="27" x="7.5" y="89.957">PJM</text><path fill="#FEFECE" filter="url(#a)" stroke="#000" stroke-width="1.5" d="M57.5 251h221v41.594h-221z"/><path fill="#FEFECE" stroke="#000" stroke-width="1.5" d="M261.5 256v14h12v-8l-6-6h-6z"/><path stroke="#000" stroke-width="1.5" d="M267.5 256v6M273.5 262h-6"/><text font-family="Futura" font-size="14" lengthAdjust="spacingAndGlyphs" textLength="191" x="67.5" y="278.957">Project Repository (recovered)</text><path fill="#FEFECE" filter="url(#a)" stroke="#000" stroke-width="1.5" d="M71.5 30h193v41.594h-193z"/><path fill="#FEFECE" stroke="#000" stroke-width="1.5" d="M247.5 35v14h12v-8l-6-6h-6z"/><path stroke="#000" stroke-width="1.5" d="M253.5 35v6M259.5 41h-6"/><text font-family="Futura" font-size="14" lengthAdjust="spacingAndGlyphs" textLength="163" x="81.5" y="57.957">Project Repository Backup</text><ellipse cx="167.796" cy="172.259" fill="#FEFECE" filter="url(#a)" rx="79.296" ry="18.259" stroke="#a80036" stroke-width="1.5"/><text font-family="Futura" font-size="14" lengthAdjust="spacingAndGlyphs" textLength="121" x="107.296" y="178.056">Recover Repository</text><path d="M168 72.164v76.666" fill="none" stroke="#a80036" stroke-width="2"/><path fill="#A80036" stroke="#a80036" d="M168 153.964l4-9-4 4-4-4 4 9z"/><path d="M168 191.215v54.586" fill="none" stroke="#a80036" stroke-width="2"/><path fill="#A80036" stroke="#a80036" d="M168 250.958l4-9-4 4-4-4 4 9z"/></svg>