<?xml version="1.0" encoding="UTF-8" standalone="no"?><svg xmlns="http://www.w3.org/2000/svg" xmlns:xlink="http://www.w3.org/1999/xlink" contentScriptType="application/ecmascript" contentStyleType="text/css" height="303px" preserveAspectRatio="none" style="width:295px;height:303px;" version="1.1" viewBox="0 0 295 303" width="295px" zoomAndPan="magnify"><defs><filter height="300%" id="fme7o3jicat2h" width="300%" x="-1" y="-1"><feGaussianBlur result="blurOut" stdDeviation="2.0"/><feColorMatrix in="blurOut" result="blurOut2" type="matrix" values="0 0 0 0 0 0 0 0 0 0 0 0 0 0 0 0 0 0 .4 0"/><feOffset dx="4.0" dy="4.0" in="blurOut2" result="blurOut3"/><feBlend in="SourceGraphic" in2="blurOut3" mode="normal"/></filter></defs><g><!--entity PJM--><ellipse cx="21" cy="18" fill="#FEFECE" filter="url(#fme7o3jicat2h)" rx="8" ry="8" style="stroke: #A80036; stroke-width: 2.0;"/><path d="M21,26 L21,53 M8,34 L34,34 M21,53 L8,68 M21,53 L34,68 " fill="none" filter="url(#fme7o3jicat2h)" style="stroke: #A80036; stroke-width: 2.0;"/><text fill="#000000" font-family="Futura" font-size="14" lengthAdjust="spacingAndGlyphs" textLength="27" x="7.5" y="89.957">PJM</text><!--entity PROD_REPO_RECOVERED--><rect fill="#FEFECE" filter="url(#fme7o3jicat2h)" height="41.5938" style="stroke: #000000; stroke-width: 1.5;" width="221" x="57.5" y="251"/><polygon fill="#FEFECE" points="261.5,256,261.5,270,273.5,270,273.5,262,267.5,256,261.5,256" style="stroke: #000000; stroke-width: 1.5;"/><line style="stroke: #000000; stroke-width: 1.5;" x1="267.5" x2="267.5" y1="256" y2="262"/><line style="stroke: #000000; stroke-width: 1.5;" x1="273.5" x2="267.5" y1="262" y2="262"/><text fill="#000000" font-family="Futura" font-size="14" lengthAdjust="spacingAndGlyphs" textLength="191" x="67.5" y="278.957">Project Repository (recovered)</text><!--entity PROD_REPO_BACKUP--><rect fill="#FEFECE" filter="url(#fme7o3jicat2h)" height="41.5938" style="stroke: #000000; stroke-width: 1.5;" width="193" x="71.5" y="30"/><polygon fill="#FEFECE" points="247.5,35,247.5,49,259.5,49,259.5,41,253.5,35,247.5,35" style="stroke: #000000; stroke-width: 1.5;"/><line style="stroke: #000000; stroke-width: 1.5;" x1="253.5" x2="253.5" y1="35" y2="41"/><line style="stroke: #000000; stroke-width: 1.5;" x1="259.5" x2="253.5" y1="41" y2="41"/><text fill="#000000" font-family="Futura" font-size="14" lengthAdjust="spacingAndGlyphs" textLength="163" x="81.5" y="57.957">Project Repository Backup</text><ellipse cx="167.7958" cy="172.2592" fill="#FEFECE" filter="url(#fme7o3jicat2h)" rx="79.2958" ry="18.2592" style="stroke: #A80036; stroke-width: 1.5;"/><text fill="#000000" font-family="Futura" font-size="14" lengthAdjust="spacingAndGlyphs" textLength="121" x="107.2958" y="178.056">Recover Repository</text><!--link PROD_REPO_BACKUP to PM2_7--><path d="M168,72.1637 C168,93.5644 168,126.5739 168,148.8302 " fill="none" id="PROD_REPO_BACKUP-PM2_7" style="stroke: #A80036; stroke-width: 2.0;"/><polygon fill="#A80036" points="168,153.9641,172,144.9641,168,148.9641,164,144.9641,168,153.9641" style="stroke: #A80036; stroke-width: 1.0;"/><!--link PM2_7 to PROD_REPO_RECOVERED--><path d="M168,191.2152 C168,206.6223 168,228.6412 168,245.8008 " fill="none" id="PM2_7-PROD_REPO_RECOVERED" style="stroke: #A80036; stroke-width: 2.0;"/><polygon fill="#A80036" points="168,250.9575,172,241.9575,168,245.9575,164,241.9575,168,250.9575" style="stroke: #A80036; stroke-width: 1.0;"/><!--
@startuml



skinparam handwritten false
skinparam defaultFontName Futura


actor PJM

artifact "Project Repository (recovered)" as PROD_REPO_RECOVERED
artifact "Project Repository Backup" as PROD_REPO_BACKUP

usecase "Recover Repository" as PM2_7
PROD_REPO_BACKUP ==> PM2_7
PM2_7 ==> PROD_REPO_RECOVERED

@enduml

PlantUML version 1.2019.00(Sun Jan 13 07:46:42 PST 2019)
(GPL source distribution)
Java Runtime: Java(TM) SE Runtime Environment
JVM: Java HotSpot(TM) 64-Bit Server VM
Java Version: 10.0.1+10
Operating System: Mac OS X
OS Version: 10.14.3
Default Encoding: UTF-8
Language: en
Country: US
--></g></svg>