<?xml version="1.0" encoding="UTF-8" standalone="no"?><svg xmlns="http://www.w3.org/2000/svg" xmlns:xlink="http://www.w3.org/1999/xlink" contentScriptType="application/ecmascript" contentStyleType="text/css" height="370px" preserveAspectRatio="none" style="width:525px;height:370px;" version="1.1" viewBox="0 0 525 370" width="525px" zoomAndPan="magnify"><defs><filter height="300%" id="f1avf10wmc7hr7" width="300%" x="-1" y="-1"><feGaussianBlur result="blurOut" stdDeviation="2.0"/><feColorMatrix in="blurOut" result="blurOut2" type="matrix" values="0 0 0 0 0 0 0 0 0 0 0 0 0 0 0 0 0 0 .4 0"/><feOffset dx="4.0" dy="4.0" in="blurOut2" result="blurOut3"/><feBlend in="SourceGraphic" in2="blurOut3" mode="normal"/></filter></defs><g><!--cluster Project Plan--><rect fill="#FFFFFF" filter="url(#f1avf10wmc7hr7)" height="88" style="stroke: #000000; stroke-width: 1.5;" width="161" x="14" y="271"/><polygon fill="#FFFFFF" points="158,276,158,290,170,290,170,282,164,276,158,276" style="stroke: #000000; stroke-width: 1.5;"/><line style="stroke: #000000; stroke-width: 1.5;" x1="164" x2="164" y1="276" y2="282"/><line style="stroke: #000000; stroke-width: 1.5;" x1="170" x2="164" y1="282" y2="282"/><text fill="#000000" font-family="Futura" font-size="14" font-weight="bold" lengthAdjust="spacingAndGlyphs" textLength="88" x="50.5" y="287.966">Project Plan</text><!--cluster CR--><rect fill="#FFFFFF" filter="url(#f1avf10wmc7hr7)" height="88" style="stroke: #000000; stroke-width: 1.5;" width="159" x="194" y="271"/><polygon fill="#FFFFFF" points="336,276,336,290,348,290,348,282,342,276,336,276" style="stroke: #000000; stroke-width: 1.5;"/><line style="stroke: #000000; stroke-width: 1.5;" x1="342" x2="342" y1="276" y2="282"/><line style="stroke: #000000; stroke-width: 1.5;" x1="348" x2="342" y1="282" y2="282"/><text fill="#000000" font-family="Futura" font-size="14" font-weight="bold" lengthAdjust="spacingAndGlyphs" textLength="19" x="264" y="287.966">CR</text><!--cluster Meeting Minutes--><rect fill="#FFFFFF" filter="url(#f1avf10wmc7hr7)" height="88" style="stroke: #000000; stroke-width: 1.5;" width="138" x="370" y="271"/><polygon fill="#FFFFFF" points="491,276,491,290,503,290,503,282,497,276,491,276" style="stroke: #000000; stroke-width: 1.5;"/><line style="stroke: #000000; stroke-width: 1.5;" x1="497" x2="497" y1="276" y2="282"/><line style="stroke: #000000; stroke-width: 1.5;" x1="503" x2="497" y1="282" y2="282"/><text fill="#000000" font-family="Futura" font-size="14" font-weight="bold" lengthAdjust="spacingAndGlyphs" textLength="122" x="378" y="287.966">Meeting Minutes</text><!--entity PROD_PP_ACCEPTED--><ellipse cx="138" cy="316" fill="#FEFECE" filter="url(#f1avf10wmc7hr7)" rx="12" ry="12" style="stroke: #A80036; stroke-width: 2.0;"/><polygon fill="#A80036" points="134,304,140,299,138,304,140,309,134,304" style="stroke: #A80036; stroke-width: 1.0;"/><text fill="#000000" font-family="Futura" font-size="14" lengthAdjust="spacingAndGlyphs" textLength="58" x="109" y="346.957">accepted</text><!--entity PROD_PP_UPDATED--><ellipse cx="48" cy="316" fill="#FEFECE" filter="url(#f1avf10wmc7hr7)" rx="12" ry="12" style="stroke: #A80036; stroke-width: 2.0;"/><polygon fill="#A80036" points="44,304,50,299,48,304,50,309,44,304" style="stroke: #A80036; stroke-width: 1.0;"/><text fill="#000000" font-family="Futura" font-size="14" lengthAdjust="spacingAndGlyphs" textLength="52" x="22" y="346.957">updated</text><!--entity META_CR_EVALUATED--><ellipse cx="314" cy="316" fill="#FEFECE" filter="url(#f1avf10wmc7hr7)" rx="12" ry="12" style="stroke: #A80036; stroke-width: 2.0;"/><polygon fill="#A80036" points="310,304,316,299,314,304,316,309,310,304" style="stroke: #A80036; stroke-width: 1.0;"/><text fill="#000000" font-family="Futura" font-size="14" lengthAdjust="spacingAndGlyphs" textLength="62" x="283" y="346.957">evaluated</text><!--entity META_CR_AGREED--><ellipse cx="225" cy="316" fill="#FEFECE" filter="url(#f1avf10wmc7hr7)" rx="12" ry="12" style="stroke: #A80036; stroke-width: 2.0;"/><polygon fill="#A80036" points="221,304,227,299,225,304,227,309,221,304" style="stroke: #A80036; stroke-width: 1.0;"/><text fill="#000000" font-family="Futura" font-size="14" lengthAdjust="spacingAndGlyphs" textLength="45" x="202.5" y="346.957">agreed</text><!--entity META_MINUTES--><ellipse cx="483" cy="316" fill="#FEFECE" filter="url(#f1avf10wmc7hr7)" rx="12" ry="12" style="stroke: #A80036; stroke-width: 2.0;"/><polygon fill="#A80036" points="479,304,485,299,483,304,485,309,479,304" style="stroke: #A80036; stroke-width: 1.0;"/><text fill="#000000" font-family="Futura" font-size="14" lengthAdjust="spacingAndGlyphs" textLength="32" x="467" y="346.957">initial</text><!--entity META_MINUTES_UPDATED--><ellipse cx="406" cy="316" fill="#FEFECE" filter="url(#f1avf10wmc7hr7)" rx="12" ry="12" style="stroke: #A80036; stroke-width: 2.0;"/><polygon fill="#A80036" points="402,304,408,299,406,304,408,309,402,304" style="stroke: #A80036; stroke-width: 1.0;"/><text fill="#000000" font-family="Futura" font-size="14" lengthAdjust="spacingAndGlyphs" textLength="52" x="380" y="346.957">updated</text><!--entity PJM--><ellipse cx="63" cy="18" fill="#FEFECE" filter="url(#f1avf10wmc7hr7)" rx="8" ry="8" style="stroke: #A80036; stroke-width: 2.0;"/><path d="M63,26 L63,53 M50,34 L76,34 M63,53 L50,68 M63,53 L76,68 " fill="none" filter="url(#f1avf10wmc7hr7)" style="stroke: #A80036; stroke-width: 2.0;"/><text fill="#000000" font-family="Futura" font-size="14" lengthAdjust="spacingAndGlyphs" textLength="27" x="49.5" y="89.957">PJM</text><!--entity WT--><ellipse cx="128" cy="18" fill="#FEFECE" filter="url(#f1avf10wmc7hr7)" rx="8" ry="8" style="stroke: #A80036; stroke-width: 2.0;"/><path d="M128,26 L128,53 M115,34 L141,34 M128,53 L115,68 M128,53 L141,68 " fill="none" filter="url(#f1avf10wmc7hr7)" style="stroke: #A80036; stroke-width: 2.0;"/><text fill="#000000" font-family="Futura" font-size="14" lengthAdjust="spacingAndGlyphs" textLength="22" x="117" y="89.957">WT</text><!--entity ACQ--><ellipse cx="63" cy="164" fill="#FEFECE" filter="url(#f1avf10wmc7hr7)" rx="8" ry="8" style="stroke: #A80036; stroke-width: 2.0;"/><path d="M63,172 L63,199 M50,180 L76,180 M63,199 L50,214 M63,199 L76,214 " fill="none" filter="url(#f1avf10wmc7hr7)" style="stroke: #A80036; stroke-width: 2.0;"/><text fill="#000000" font-family="Futura" font-size="14" lengthAdjust="spacingAndGlyphs" textLength="33" x="46.5" y="235.957">ACQ</text><!--entity STK--><ellipse cx="130" cy="164" fill="#FEFECE" filter="url(#f1avf10wmc7hr7)" rx="8" ry="8" style="stroke: #A80036; stroke-width: 2.0;"/><path d="M130,172 L130,199 M117,180 L143,180 M130,199 L117,214 M130,199 L143,214 " fill="none" filter="url(#f1avf10wmc7hr7)" style="stroke: #A80036; stroke-width: 2.0;"/><text fill="#000000" font-family="Futura" font-size="14" lengthAdjust="spacingAndGlyphs" textLength="24" x="118" y="235.957">STK</text><!--entity META_PROGRESS--><rect fill="#FEFECE" filter="url(#f1avf10wmc7hr7)" height="41.5938" style="stroke: #000000; stroke-width: 1.5;" width="174" x="182" y="30"/><polygon fill="#FEFECE" points="339,35,339,49,351,49,351,41,345,35,339,35" style="stroke: #000000; stroke-width: 1.5;"/><line style="stroke: #000000; stroke-width: 1.5;" x1="345" x2="345" y1="35" y2="41"/><line style="stroke: #000000; stroke-width: 1.5;" x1="351" x2="345" y1="41" y2="41"/><text fill="#000000" font-family="Futura" font-size="14" lengthAdjust="spacingAndGlyphs" textLength="144" x="192" y="57.957">Progress Status Record</text><ellipse cx="268.7822" cy="197.0564" fill="#FEFECE" filter="url(#f1avf10wmc7hr7)" rx="88.2822" ry="20.0564" style="stroke: #A80036; stroke-width: 1.5;"/><text fill="#000000" font-family="Futura" font-size="14" lengthAdjust="spacingAndGlyphs" textLength="143" x="197.2822" y="202.8533">Conduct STK Meetings</text><!--link META_MINUTES to PM2_4--><path d="M471.9191,299.9759 C466.5081,289.8766 459.1651,278.8335 450,271 C417.1521,242.9246 372.2226,224.4739 335.3462,213.0175 " fill="none" id="META_MINUTES-PM2_4" style="stroke: #A80036; stroke-width: 2.0;"/><polygon fill="#A80036" points="330.4297,211.5165,337.8693,217.9704,335.2118,212.9766,340.2055,210.3191,330.4297,211.5165" style="stroke: #A80036; stroke-width: 1.0;"/><!--link PROD_PP_ACCEPTED to PM2_4--><path d="M159.3695,299.9638 C167.4722,290.6261 176.9339,280.1213 186,271 C203.8155,253.0761 225.114,234.1334 241.6749,219.9006 " fill="none" id="PROD_PP_ACCEPTED-PM2_4" style="stroke: #A80036; stroke-width: 2.0;"/><polygon fill="#A80036" points="245.7783,216.3871,236.3404,219.2023,241.9803,219.6391,241.5435,225.279,245.7783,216.3871" style="stroke: #A80036; stroke-width: 1.0;"/><!--link META_PROGRESS to PM2_4--><path d="M269,72.2297 C269,98.5861 269,143.4927 269,171.6347 " fill="none" id="META_PROGRESS-PM2_4" style="stroke: #A80036; stroke-width: 2.0;"/><polygon fill="#A80036" points="269,176.6861,273,167.6861,269,171.6861,265,167.6861,269,176.6861" style="stroke: #A80036; stroke-width: 1.0;"/><!--link META_CR_EVALUATED to PM2_4--><path d="M305.0017,299.8049 C297.0744,277.168 285.5987,244.3984 277.7473,221.9785 " fill="none" id="META_CR_EVALUATED-PM2_4" style="stroke: #A80036; stroke-width: 2.0;"/><polygon fill="#A80036" points="276.0313,217.0781,275.231,226.8944,277.684,221.7971,282.7813,224.2501,276.0313,217.0781" style="stroke: #A80036; stroke-width: 1.0;"/><!--link PM2_4 to META_CR_AGREED--><path d="M262.125,217.0781 C254.9945,237.9024 243.7554,270.7258 235.5098,294.8065 " fill="none" id="PM2_4-META_CR_AGREED" style="stroke: #A80036; stroke-width: 2.0;"/><polygon fill="#A80036" points="233.7983,299.8049,240.4983,292.5862,235.4182,295.0746,232.9298,289.9944,233.7983,299.8049" style="stroke: #A80036; stroke-width: 1.0;"/><!--link PM2_4 to PROD_PP_UPDATED--><path d="M225.7441,214.464 C175.2068,234.9599 97.7108,266.7143 92,271 C82.9728,277.7745 74.7078,286.8005 67.8388,295.5548 " fill="none" id="PM2_4-PROD_PP_UPDATED" style="stroke: #A80036; stroke-width: 2.0;"/><polygon fill="#A80036" points="64.5817,299.8195,73.2234,295.0949,67.6166,295.8459,66.8656,290.2391,64.5817,299.8195" style="stroke: #A80036; stroke-width: 1.0;"/><!--link PM2_4 to META_MINUTES_UPDATED--><path d="M295.5649,216.09 C314.6123,230.3083 340.4326,250.6946 361,271 C368.7291,278.6306 376.4932,287.5001 383.344,295.8394 " fill="none" id="PM2_4-META_MINUTES_UPDATED" style="stroke: #A80036; stroke-width: 2.0;"/><polygon fill="#A80036" points="386.6296,299.8829,384.0583,290.3756,383.4765,296.0025,377.8496,295.4206,386.6296,299.8829" style="stroke: #A80036; stroke-width: 1.0;"/><!--link PJM to WT--><!--link PJM to ACQ--><!--link ACQ to STK--><!--
@startuml



skinparam handwritten false
skinparam defaultFontName Futura


actor PJM
actor WT
actor ACQ
actor STK

artifact "Project Plan" {
control "accepted" as PROD_PP_ACCEPTED
control "updated" as PROD_PP_UPDATED
}
artifact "CR" {
control "evaluated" as META_CR_EVALUATED
control "agreed" as META_CR_AGREED
}
artifact "Meeting Minutes" {
control "initial" as META_MINUTES
control "updated" as META_MINUTES_UPDATED
}
artifact "Progress Status Record" as META_PROGRESS

usecase "Conduct STK Meetings" as PM2_4
META_MINUTES ==> PM2_4
PROD_PP_ACCEPTED ==> PM2_4
META_PROGRESS ==> PM2_4
META_CR_EVALUATED ==> PM2_4
PM2_4 ==> META_CR_AGREED
PM2_4 ==> PROD_PP_UPDATED
PM2_4 ==> META_MINUTES_UPDATED

@enduml

PlantUML version 1.2019.00(Sun Jan 13 07:46:42 PST 2019)
(GPL source distribution)
Java Runtime: Java(TM) SE Runtime Environment
JVM: Java HotSpot(TM) 64-Bit Server VM
Java Version: 10.0.1+10
Operating System: Mac OS X
OS Version: 10.14.3
Default Encoding: UTF-8
Language: en
Country: US
--></g></svg>