<svg xmlns="http://www.w3.org/2000/svg" height="691" preserveAspectRatio="none" style="width:2540px;height:691px" width="2540"><defs><filter height="300%" id="a" width="300%" x="-1" y="-1"><feGaussianBlur result="blurOut" stdDeviation="2"/><feColorMatrix in="blurOut" result="blurOut2" values="0 0 0 0 0 0 0 0 0 0 0 0 0 0 0 0 0 0 .4 0"/><feOffset dx="4" dy="4" in="blurOut2" result="blurOut3"/><feBlend in="SourceGraphic" in2="blurOut3"/></filter></defs><path fill="#FFF" filter="url(#a)" stroke="#000" stroke-width="1.5" d="M1406.5 504h240v88h-240z"/><path fill="#FFF" stroke="#000" stroke-width="1.5" d="M1629.5 509v14h12v-8l-6-6h-6z"/><path stroke="#000" stroke-width="1.5" d="M1635.5 509v6M1641.5 515h-6"/><text font-family="Futura" font-size="14" font-weight="bold" lengthAdjust="spacingAndGlyphs" textLength="138" x="1457.5" y="520.966">Project Repository</text><path fill="#FFF" filter="url(#a)" stroke="#000" stroke-width="1.5" d="M2067.5 16.5h228v88h-228z"/><path fill="#FFF" stroke="#000" stroke-width="1.5" d="M2278.5 21.5v14h12v-8l-6-6h-6z"/><path stroke="#000" stroke-width="1.5" d="M2284.5 21.5v6M2290.5 27.5h-6"/><text font-family="Futura" font-size="14" font-weight="bold" lengthAdjust="spacingAndGlyphs" textLength="88" x="2137.5" y="33.466">Project Plan</text><path fill="#FFF" filter="url(#a)" stroke="#000" stroke-width="1.5" d="M1707.5 291h254v88h-254z"/><path fill="#FFF" stroke="#000" stroke-width="1.5" d="M1944.5 296v14h12v-8l-6-6h-6z"/><path stroke="#000" stroke-width="1.5" d="M1950.5 296v6M1956.5 302h-6"/><text font-family="Futura" font-size="14" font-weight="bold" lengthAdjust="spacingAndGlyphs" textLength="19" x="1825" y="307.966">CR</text><path fill="#FFF" filter="url(#a)" stroke="#000" stroke-width="1.5" d="M2025.5 291h138v88h-138z"/><path fill="#FFF" stroke="#000" stroke-width="1.5" d="M2146.5 296v14h12v-8l-6-6h-6z"/><path stroke="#000" stroke-width="1.5" d="M2152.5 296v6M2158.5 302h-6"/><text font-family="Futura" font-size="14" font-weight="bold" lengthAdjust="spacingAndGlyphs" textLength="122" x="2033.5" y="307.966">Meeting Minutes</text><path fill="#FFF" filter="url(#a)" stroke="#000" stroke-width="1.5" d="M2308.5 16.5h190v88h-190z"/><path fill="#FFF" stroke="#000" stroke-width="1.5" d="M2481.5 21.5v14h12v-8l-6-6h-6z"/><path stroke="#000" stroke-width="1.5" d="M2487.5 21.5v6M2493.5 27.5h-6"/><text font-family="Futura" font-size="14" font-weight="bold" lengthAdjust="spacingAndGlyphs" textLength="174" x="2316.5" y="33.466">Progress Status Record</text><path fill="#FFF" filter="url(#a)" stroke="#000" stroke-width="1.5" d="M2207.5 291h143v88h-143z"/><path fill="#FFF" stroke="#000" stroke-width="1.5" d="M2333.5 296v14h12v-8l-6-6h-6z"/><path stroke="#000" stroke-width="1.5" d="M2339.5 296v6M2345.5 302h-6"/><text font-family="Futura" font-size="14" font-weight="bold" lengthAdjust="spacingAndGlyphs" textLength="118" x="2220" y="307.966">Purchase Order</text><circle cx="1619.5" cy="549" fill="#FEFECE" filter="url(#a)" stroke="#a80036" stroke-width="2" r="12"/><path fill="#A80036" stroke="#a80036" d="M1615.5 537l6-5-2 5 2 5-6-5z"/><text font-family="Futura" font-size="14" lengthAdjust="spacingAndGlyphs" textLength="37" x="1601" y="579.957">active</text><circle cx="1533.5" cy="549" fill="#FEFECE" filter="url(#a)" stroke="#a80036" stroke-width="2" r="12"/><path fill="#A80036" stroke="#a80036" d="M1529.5 537l6-5-2 5 2 5-6-5z"/><text font-family="Futura" font-size="14" lengthAdjust="spacingAndGlyphs" textLength="64" x="1501.5" y="579.957">recovered</text><circle cx="1440.5" cy="549" fill="#FEFECE" filter="url(#a)" stroke="#a80036" stroke-width="2" r="12"/><path fill="#A80036" stroke="#a80036" d="M1436.5 537l6-5-2 5 2 5-6-5z"/><text font-family="Futura" font-size="14" lengthAdjust="spacingAndGlyphs" textLength="52" x="1414.5" y="579.957">updated</text><circle cx="2091.5" cy="61.5" fill="#FEFECE" filter="url(#a)" stroke="#a80036" stroke-width="2" r="12"/><path fill="#A80036" stroke="#a80036" d="M2087.5 49.5l6-5-2 5 2 5-6-5z"/><text font-family="Futura" font-size="14" lengthAdjust="spacingAndGlyphs" textLength="32" x="2075.5" y="92.457">initial</text><circle cx="2258.5" cy="61.5" fill="#FEFECE" filter="url(#a)" stroke="#a80036" stroke-width="2" r="12"/><path fill="#A80036" stroke="#a80036" d="M2254.5 49.5l6-5-2 5 2 5-6-5z"/><text font-family="Futura" font-size="14" lengthAdjust="spacingAndGlyphs" textLength="58" x="2229.5" y="92.457">accepted</text><circle cx="2168.5" cy="61.5" fill="#FEFECE" filter="url(#a)" stroke="#a80036" stroke-width="2" r="12"/><path fill="#A80036" stroke="#a80036" d="M2164.5 49.5l6-5-2 5 2 5-6-5z"/><text font-family="Futura" font-size="14" lengthAdjust="spacingAndGlyphs" textLength="52" x="2142.5" y="92.457">updated</text><circle cx="1745.5" cy="336" fill="#FEFECE" filter="url(#a)" stroke="#a80036" stroke-width="2" r="12"/><path fill="#A80036" stroke="#a80036" d="M1741.5 324l6-5-2 5 2 5-6-5z"/><text font-family="Futura" font-size="14" lengthAdjust="spacingAndGlyphs" textLength="60" x="1715.5" y="366.957">submitted</text><circle cx="1922.5" cy="336" fill="#FEFECE" filter="url(#a)" stroke="#a80036" stroke-width="2" r="12"/><path fill="#A80036" stroke="#a80036" d="M1918.5 324l6-5-2 5 2 5-6-5z"/><text font-family="Futura" font-size="14" lengthAdjust="spacingAndGlyphs" textLength="62" x="1891.5" y="366.957">evaluated</text><circle cx="1833.5" cy="336" fill="#FEFECE" filter="url(#a)" stroke="#a80036" stroke-width="2" r="12"/><path fill="#A80036" stroke="#a80036" d="M1829.5 324l6-5-2 5 2 5-6-5z"/><text font-family="Futura" font-size="14" lengthAdjust="spacingAndGlyphs" textLength="45" x="1811" y="366.957">agreed</text><circle cx="2138.5" cy="336" fill="#FEFECE" filter="url(#a)" stroke="#a80036" stroke-width="2" r="12"/><path fill="#A80036" stroke="#a80036" d="M2134.5 324l6-5-2 5 2 5-6-5z"/><text font-family="Futura" font-size="14" lengthAdjust="spacingAndGlyphs" textLength="32" x="2122.5" y="366.957">initial</text><circle cx="2060.5" cy="336" fill="#FEFECE" filter="url(#a)" stroke="#a80036" stroke-width="2" r="12"/><path fill="#A80036" stroke="#a80036" d="M2056.5 324l6-5-2 5 2 5-6-5z"/><text font-family="Futura" font-size="14" lengthAdjust="spacingAndGlyphs" textLength="52" x="2034.5" y="366.957">updated</text><circle cx="2445.5" cy="61.5" fill="#FEFECE" filter="url(#a)" stroke="#a80036" stroke-width="2" r="12"/><path fill="#A80036" stroke="#a80036" d="M2441.5 49.5l6-5-2 5 2 5-6-5z"/><text font-family="Futura" font-size="14" lengthAdjust="spacingAndGlyphs" textLength="32" x="2429.5" y="92.457">initial</text><circle cx="2353.5" cy="61.5" fill="#FEFECE" filter="url(#a)" stroke="#a80036" stroke-width="2" r="12"/><path fill="#A80036" stroke="#a80036" d="M2349.5 49.5l6-5-2 5 2 5-6-5z"/><text font-family="Futura" font-size="14" lengthAdjust="spacingAndGlyphs" textLength="62" x="2322.5" y="92.457">evaluated</text><circle cx="2326.5" cy="336" fill="#FEFECE" filter="url(#a)" stroke="#a80036" stroke-width="2" r="12"/><path fill="#A80036" stroke="#a80036" d="M2322.5 324l6-5-2 5 2 5-6-5z"/><text font-family="Futura" font-size="14" lengthAdjust="spacingAndGlyphs" textLength="32" x="2310.5" y="366.957">initial</text><circle cx="2245.5" cy="336" fill="#FEFECE" filter="url(#a)" stroke="#a80036" stroke-width="2" r="12"/><path fill="#A80036" stroke="#a80036" d="M2241.5 324l6-5-2 5 2 5-6-5z"/><text font-family="Futura" font-size="14" lengthAdjust="spacingAndGlyphs" textLength="60" x="2215.5" y="366.957">approved</text><circle cx="22.5" cy="38" fill="#FEFECE" filter="url(#a)" stroke="#a80036" stroke-width="2" r="8"/><path d="M22.5 46v27m-13-19h26m-13 19l-13 15m13-15l13 15" fill="none" filter="url(#a)" stroke="#a80036" stroke-width="2"/><text font-family="Futura" font-size="14" lengthAdjust="spacingAndGlyphs" textLength="27" x="9" y="109.957">PJM</text><circle cx="87.5" cy="38" fill="#FEFECE" filter="url(#a)" stroke="#a80036" stroke-width="2" r="8"/><path d="M87.5 46v27m-13-19h26m-13 19l-13 15m13-15l13 15" fill="none" filter="url(#a)" stroke="#a80036" stroke-width="2"/><text font-family="Futura" font-size="14" lengthAdjust="spacingAndGlyphs" textLength="22" x="76.5" y="109.957">WT</text><circle cx="22.5" cy="184" fill="#FEFECE" filter="url(#a)" stroke="#a80036" stroke-width="2" r="8"/><path d="M22.5 192v27m-13-19h26m-13 19l-13 15m13-15l13 15" fill="none" filter="url(#a)" stroke="#a80036" stroke-width="2"/><text font-family="Futura" font-size="14" lengthAdjust="spacingAndGlyphs" textLength="33" x="6" y="255.957">ACQ</text><circle cx="89.5" cy="184" fill="#FEFECE" filter="url(#a)" stroke="#a80036" stroke-width="2" r="8"/><path d="M89.5 192v27m-13-19h26m-13 19l-13 15m13-15l13 15" fill="none" filter="url(#a)" stroke="#a80036" stroke-width="2"/><text font-family="Futura" font-size="14" lengthAdjust="spacingAndGlyphs" textLength="24" x="77.5" y="255.957">STK</text><path fill="#FEFECE" filter="url(#a)" stroke="#000" stroke-width="1.5" d="M1186 537.5h193v41.594h-193z"/><path fill="#FEFECE" stroke="#000" stroke-width="1.5" d="M1362 542.5v14h12v-8l-6-6h-6z"/><path stroke="#000" stroke-width="1.5" d="M1368 542.5v6M1374 548.5h-6"/><text font-family="Futura" font-size="14" lengthAdjust="spacingAndGlyphs" textLength="163" x="1196" y="565.457">Project Repository Backup</text><path fill="#FEFECE" filter="url(#a)" stroke="#000" stroke-width="1.5" d="M1363.5 324.5h78v41.594h-78z"/><path fill="#FEFECE" stroke="#000" stroke-width="1.5" d="M1424.5 329.5v14h12v-8l-6-6h-6z"/><path stroke="#000" stroke-width="1.5" d="M1430.5 329.5v6M1436.5 335.5h-6"/><text font-family="Futura" font-size="14" lengthAdjust="spacingAndGlyphs" textLength="48" x="1373.5" y="352.457">Product</text><path fill="#FEFECE" filter="url(#a)" stroke="#000" stroke-width="1.5" d="M452.5 50h58v41.594h-58z"/><path fill="#FEFECE" stroke="#000" stroke-width="1.5" d="M493.5 55v14h12v-8l-6-6h-6z"/><path stroke="#000" stroke-width="1.5" d="M499.5 55v6M505.5 61h-6"/><text font-family="Futura" font-size="14" lengthAdjust="spacingAndGlyphs" textLength="28" x="462.5" y="77.957">StRS</text><path fill="#FEFECE" filter="url(#a)" stroke="#000" stroke-width="1.5" d="M137.5 50h68v41.594h-68z"/><path fill="#FEFECE" stroke="#000" stroke-width="1.5" d="M188.5 55v14h12v-8l-6-6h-6z"/><path stroke="#000" stroke-width="1.5" d="M194.5 55v6M200.5 61h-6"/><text font-family="Futura" font-size="14" lengthAdjust="spacingAndGlyphs" textLength="38" x="147.5" y="77.957">SysRS</text><path fill="#FEFECE" filter="url(#a)" stroke="#000" stroke-width="1.5" d="M240.5 50h80v41.594h-80z"/><path fill="#FEFECE" stroke="#000" stroke-width="1.5" d="M303.5 55v14h12v-8l-6-6h-6z"/><path stroke="#000" stroke-width="1.5" d="M309.5 55v6M315.5 61h-6"/><text font-family="Futura" font-size="14" lengthAdjust="spacingAndGlyphs" textLength="50" x="250.5" y="77.957">Training</text><path fill="#FEFECE" filter="url(#a)" stroke="#000" stroke-width="1.5" d="M355.5 50h62v41.594h-62z"/><path fill="#FEFECE" stroke="#000" stroke-width="1.5" d="M400.5 55v14h12v-8l-6-6h-6z"/><path stroke="#000" stroke-width="1.5" d="M406.5 55v6M412.5 61h-6"/><text font-family="Futura" font-size="14" lengthAdjust="spacingAndGlyphs" textLength="32" x="365.5" y="77.957">SERS</text><path fill="#FEFECE" filter="url(#a)" stroke="#000" stroke-width="1.5" d="M1400.5 50h58v41.594h-58z"/><path fill="#FEFECE" stroke="#000" stroke-width="1.5" d="M1441.5 55v14h12v-8l-6-6h-6z"/><path stroke="#000" stroke-width="1.5" d="M1447.5 55v6M1453.5 61h-6"/><text font-family="Futura" font-size="14" lengthAdjust="spacingAndGlyphs" textLength="28" x="1410.5" y="77.957">SDD</text><path fill="#FEFECE" filter="url(#a)" stroke="#000" stroke-width="1.5" d="M1494 50h75v41.594h-75z"/><path fill="#FEFECE" stroke="#000" stroke-width="1.5" d="M1552 55v14h12v-8l-6-6h-6z"/><path stroke="#000" stroke-width="1.5" d="M1558 55v6M1564 61h-6"/><text font-family="Futura" font-size="14" lengthAdjust="spacingAndGlyphs" textLength="45" x="1504" y="77.957">System</text><path fill="#FEFECE" filter="url(#a)" stroke="#000" stroke-width="1.5" d="M1604 50h195v41.594h-195z"/><path fill="#FEFECE" stroke="#000" stroke-width="1.5" d="M1782 55v14h12v-8l-6-6h-6z"/><path stroke="#000" stroke-width="1.5" d="M1788 55v6M1794 61h-6"/><text font-family="Futura" font-size="14" lengthAdjust="spacingAndGlyphs" textLength="165" x="1614" y="77.957">Software System Elements</text><path fill="#FEFECE" filter="url(#a)" stroke="#000" stroke-width="1.5" d="M1834.5 50h206v41.594h-206z"/><path fill="#FEFECE" stroke="#000" stroke-width="1.5" d="M2023.5 55v14h12v-8l-6-6h-6z"/><path stroke="#000" stroke-width="1.5" d="M2029.5 55v6M2035.5 61h-6"/><text font-family="Futura" font-size="14" lengthAdjust="spacingAndGlyphs" textLength="176" x="1844.5" y="77.957">System Elements (HW+SW)</text><path fill="#FEFECE" filter="url(#a)" stroke="#000" stroke-width="1.5" d="M664 50h193v41.594H664z"/><path fill="#FEFECE" stroke="#000" stroke-width="1.5" d="M840 55v14h12v-8l-6-6h-6z"/><path stroke="#000" stroke-width="1.5" d="M846 55v6M852 61h-6"/><text font-family="Futura" font-size="14" lengthAdjust="spacingAndGlyphs" textLength="163" x="674" y="77.957">System Operations Guide</text><path fill="#FEFECE" filter="url(#a)" stroke="#000" stroke-width="1.5" d="M1092 50h111v41.594h-111z"/><path fill="#FEFECE" stroke="#000" stroke-width="1.5" d="M1186 55v14h12v-8l-6-6h-6z"/><path stroke="#000" stroke-width="1.5" d="M1192 55v6M1198 61h-6"/><text font-family="Futura" font-size="14" lengthAdjust="spacingAndGlyphs" textLength="81" x="1102" y="77.957">User Manual</text><path fill="#FEFECE" filter="url(#a)" stroke="#000" stroke-width="1.5" d="M546 50h83v41.594h-83z"/><path fill="#FEFECE" stroke="#000" stroke-width="1.5" d="M612 55v14h12v-8l-6-6h-6z"/><path stroke="#000" stroke-width="1.5" d="M618 55v6M624 61h-6"/><text font-family="Futura" font-size="14" lengthAdjust="spacingAndGlyphs" textLength="53" x="556" y="77.957">IVV Plan</text><path fill="#FEFECE" filter="url(#a)" stroke="#000" stroke-width="1.5" d="M1238 50h127v41.594h-127z"/><path fill="#FEFECE" stroke="#000" stroke-width="1.5" d="M1348 55v14h12v-8l-6-6h-6z"/><path stroke="#000" stroke-width="1.5" d="M1354 55v6M1360 61h-6"/><text font-family="Futura" font-size="14" lengthAdjust="spacingAndGlyphs" textLength="97" x="1248" y="77.957">IVV Procedures</text><path fill="#FEFECE" filter="url(#a)" stroke="#000" stroke-width="1.5" d="M892 50h165v41.594H892z"/><path fill="#FEFECE" stroke="#000" stroke-width="1.5" d="M1040 55v14h12v-8l-6-6h-6z"/><path stroke="#000" stroke-width="1.5" d="M1046 55v6M1052 61h-6"/><text font-family="Futura" font-size="14" lengthAdjust="spacingAndGlyphs" textLength="135" x="902" y="77.957">Maintenance Manual</text><ellipse cx="2455.374" cy="217.175" fill="#FEFECE" filter="url(#a)" rx="73.874" ry="17.175" stroke="#a80036" stroke-width="1.5"/><text font-family="Futura" font-size="14" lengthAdjust="spacingAndGlyphs" textLength="107" x="2401.874" y="222.972">Monitor Progress</text><ellipse cx="1862.483" cy="217.148" fill="#FEFECE" filter="url(#a)" rx="60.983" ry="16.148" stroke="#a80036" stroke-width="1.5"/><text font-family="Futura" font-size="14" lengthAdjust="spacingAndGlyphs" textLength="82" x="1821.483" y="222.945">Evaluate CRs</text><ellipse cx="2258.445" cy="216.889" fill="#FEFECE" filter="url(#a)" rx="87.445" ry="19.889" stroke="#a80036" stroke-width="1.5"/><text font-family="Futura" font-size="14" lengthAdjust="spacingAndGlyphs" textLength="141" x="2187.945" y="222.686">Conduct WT Meetings</text><ellipse cx="2047.282" cy="217.056" fill="#FEFECE" filter="url(#a)" rx="88.282" ry="20.056" stroke="#a80036" stroke-width="1.5"/><text font-family="Futura" font-size="14" lengthAdjust="spacingAndGlyphs" textLength="143" x="1975.782" y="222.853">Conduct STK Meetings</text><ellipse cx="1339.699" cy="217.14" fill="#FEFECE" filter="url(#a)" rx="101.199" ry="22.64" stroke="#a80036" stroke-width="1.5"/><text font-family="Futura" font-size="14" lengthAdjust="spacingAndGlyphs" textLength="173" x="1253.199" y="222.937">Configuration Management</text><ellipse cx="1440.443" cy="451.989" fill="#FEFECE" filter="url(#a)" rx="92.943" ry="20.989" stroke="#a80036" stroke-width="1.5"/><text font-family="Futura" font-size="14" lengthAdjust="spacingAndGlyphs" textLength="154" x="1363.443" y="457.786">Repository Management</text><ellipse cx="1407.296" cy="662.259" fill="#FEFECE" filter="url(#a)" rx="79.296" ry="18.259" stroke="#a80036" stroke-width="1.5"/><text font-family="Futura" font-size="14" lengthAdjust="spacingAndGlyphs" textLength="121" x="1346.796" y="668.056">Recover Repository</text><path d="M2282.088 96.925c5.796 5.862 12.144 11.882 18.412 17.075 39.84 33.005 90.483 65.019 122.827 84.369" fill="none" stroke="#a80036" stroke-width="2"/><path fill="#A80036" stroke="#a80036" d="M2427.963 201.13l-5.685-8.042 1.39 5.483-5.484 1.39 9.78 1.17z"/><path d="M2454.316 199.718l-6.707-97.934" fill="none" stroke="#a80036" stroke-width="2"/><path fill="#A80036" stroke="#a80036" d="M2447.265 96.766l-3.376 9.252 3.717-4.264 4.264 3.717-4.605-8.705z"/><path d="M1767.817 319.859c8.04-9.157 17.216-19.516 25.683-28.859 16.82-18.56 36.31-39.403 50.277-54.227" fill="none" stroke="#a80036" stroke-width="2"/><path fill="#A80036" stroke="#a80036" d="M1847.563 232.758l-9.085 3.803 5.655-.165.165 5.654 3.265-9.292z"/><path d="M2235.59 96.906c-6.851 6.422-14.772 12.713-23.09 17.094-109.146 57.49-155.468 16.754-271 60-17.76 6.648-36.447 16.665-51.185 25.358" fill="none" stroke="#a80036" stroke-width="2"/><path fill="#A80036" stroke="#a80036" d="M1885.873 202.008l9.778-1.176-5.485-1.386 1.386-5.484-5.68 8.047z"/><path d="M1869.978 233.015l38.409 82.26" fill="none" stroke="#a80036" stroke-width="2"/><path fill="#A80036" stroke="#a80036" d="M1910.573 319.957l-.183-9.848-1.932 5.317-5.317-1.932 7.432 6.462z"/><path d="M2154.51 328.355l81.814-87.608" fill="none" stroke="#a80036" stroke-width="2"/><path fill="#A80036" stroke="#a80036" d="M2240.013 236.797l-9.066 3.847 5.653-.193.194 5.653 3.219-9.308z"/><path d="M2312.903 319.805l-41.334-78.109" fill="none" stroke="#a80036" stroke-width="2"/><path fill="#A80036" stroke="#a80036" d="M2269.125 237.078l.674 9.826 1.665-5.407 5.406 1.665-7.745-6.084z"/><path d="M2258.5 96.766v94.787" fill="none" stroke="#a80036" stroke-width="2"/><path fill="#A80036" stroke="#a80036" d="M2258.5 196.663l4-9-4 4-4-4 4 9z"/><path d="M2210.667 233.923c-31.788 12.678-73.37 32.116-105.167 57.077-8.875 6.967-17.18 15.96-24.18 24.626" fill="none" stroke="#a80036" stroke-width="2"/><path fill="#A80036" stroke="#a80036" d="M2077.992 319.843l8.715-4.587-5.617.662-.662-5.618-2.436 9.543z"/><path d="M2256.469 237.078l-7.864 77.729" fill="none" stroke="#a80036" stroke-width="2"/><path fill="#A80036" stroke="#a80036" d="M2248.1 319.805l4.885-8.552-4.382 3.577-3.577-4.382 3.073 9.357z"/><path d="M2123.267 319.93c-5.694-9.244-12.342-19.679-18.767-28.93-12.007-17.288-26.492-36.068-37.854-50.383" fill="none" stroke="#a80036" stroke-width="2"/><path fill="#A80036" stroke="#a80036" d="M2063.528 236.702l2.478 9.532.637-5.62 5.621.636-8.736-4.548z"/><path d="M2232.518 96.924c-6.343 5.862-13.255 11.882-20.018 17.076-41.14 31.592-92.313 62.355-126.669 81.91" fill="none" stroke="#a80036" stroke-width="2"/><path fill="#A80036" stroke="#a80036" d="M2081.308 198.475l9.802-.96-5.453-1.507 1.506-5.453-5.855 7.92z"/><path d="M2429.38 91.464c-7.386 8.12-16.75 16.857-26.88 22.536-99.297 55.663-140.624 25.175-249 60-20.48 6.581-42.607 15.292-61.32 23.15" fill="none" stroke="#a80036" stroke-width="2"/><path fill="#A80036" stroke="#a80036" d="M2087.5 199.129l9.846.181-5.241-2.127 2.127-5.242-6.733 7.188z"/><path d="M1947.61 319.687l76.965-79.12" fill="none" stroke="#a80036" stroke-width="2"/><path fill="#A80036" stroke="#a80036" d="M2028.243 236.797l-9.143 3.661 5.656-.077.078 5.656 3.409-9.24z"/><path d="M2004.765 234.632c-49.427 20.49-124.77 52.06-130.265 56.368-8.648 6.781-16.414 15.809-22.801 24.563" fill="none" stroke="#a80036" stroke-width="2"/><path fill="#A80036" stroke="#a80036" d="M1848.676 319.827l8.468-5.03-5.577.951-.95-5.576-1.941 9.655z"/><path d="M2063.983 197.112c20.56-24.81 55.905-67.456 79.734-96.209" fill="none" stroke="#a80036" stroke-width="2"/><path fill="#A80036" stroke="#a80036" d="M2147.146 96.766l-8.823 4.377 5.633-.528.527 5.633 2.663-9.482z"/><path d="M2049.531 237.078l7.864 77.729" fill="none" stroke="#a80036" stroke-width="2"/><path fill="#A80036" stroke="#a80036" d="M2057.9 319.805l3.074-9.357-3.577 4.382-4.382-3.577 4.886 8.552z"/><path d="M2077.162 96.525c-5.028 6.744-11.294 13.299-18.662 17.475-202.009 114.502-289.891 22.218-519 60-41.92 6.913-88.336 16.755-125.892 25.279" fill="none" stroke="#a80036" stroke-width="2"/><path fill="#A80036" stroke="#a80036" d="M1408.605 200.419l9.663 1.9-4.788-3.01 3.011-4.79-7.886 5.9z"/><path d="M499.152 92.017c8.079 8.213 18.309 16.871 29.348 21.983 123.59 57.23 517.692 86.54 707.236 97.628" fill="none" stroke="#a80036" stroke-width="2"/><path fill="#A80036" stroke="#a80036" d="M1240.73 211.918l-8.752-4.516 3.76 4.226-4.225 3.76 9.217-3.47z"/><path d="M190.876 92.208c8.803 8.245 19.872 16.875 31.624 21.792 180.906 75.682 768.45 96.032 1010.89 101.27" fill="none" stroke="#a80036" stroke-width="2"/><path fill="#A80036" stroke="#a80036" d="M1238.7 215.384l-8.912-4.192 3.913 4.085-4.084 3.913 9.083-3.806z"/><path d="M405.026 92.087c8.442 8.224 19.09 16.872 30.474 21.913 140.996 62.435 592.74 89.547 799.23 98.899" fill="none" stroke="#a80036" stroke-width="2"/><path fill="#A80036" stroke="#a80036" d="M1239.864 213.13l-8.81-4.4 3.815 4.175-4.176 3.816 9.171-3.59z"/><path d="M1416.413 92.23l-60.214 97.68" fill="none" stroke="#a80036" stroke-width="2"/><path fill="#A80036" stroke="#a80036" d="M1353.492 194.303l8.127-5.563-5.504 1.306-1.306-5.504-1.317 9.76z"/><path d="M1504.723 92.098c-8.946 7.005-18.99 14.822-28.223 21.902-35.225 27.007-75.913 57.511-103.739 78.267" fill="none" stroke="#a80036" stroke-width="2"/><path fill="#A80036" stroke="#a80036" d="M1368.751 195.257l9.606-2.173-5.598-.816.816-5.597-4.824 8.587z"/><path d="M1882.867 92.098c-20.61 7.513-44.387 15.651-66.367 21.902-4.837 1.376-265.062 57.406-399.056 86.235" fill="none" stroke="#a80036" stroke-width="2"/><path fill="#A80036" stroke="#a80036" d="M1412.339 201.334l9.64 2.017-4.752-3.069 3.069-4.752-7.957 5.804z"/><path d="M1649.249 92.074l-255.826 103.178" fill="none" stroke="#a80036" stroke-width="2"/><path fill="#A80036" stroke="#a80036" d="M1388.543 197.22l9.843.344-5.206-2.214 2.214-5.206-6.85 7.076z"/><path d="M610.873 92.073c10.248 8.119 22.842 16.691 35.627 21.927 105.576 43.234 428.53 78.413 593.6 94.127" fill="none" stroke="#a80036" stroke-width="2"/><path fill="#A80036" stroke="#a80036" d="M1245.42 208.632l-8.581-4.833 3.604 4.36-4.36 3.605 9.338-3.132z"/><path d="M1307.025 92.23l25.242 96.98" fill="none" stroke="#a80036" stroke-width="2"/><path fill="#A80036" stroke="#a80036" d="M1333.592 194.303l1.605-9.718-2.864 4.879-4.879-2.864 6.139 7.703z"/><path d="M811.61 92.057c19.475 7.552 42.008 15.727 62.89 21.943 130.992 38.995 286.684 70.574 380.57 88.057" fill="none" stroke="#a80036" stroke-width="2"/><path fill="#A80036" stroke="#a80036" d="M1260.05 202.982l-8.119-5.576 3.202 4.663-4.663 3.202 9.58-2.289z"/><path d="M1175.418 92.23l131.107 99.695" fill="none" stroke="#a80036" stroke-width="2"/><path fill="#A80036" stroke="#a80036" d="M1310.92 195.268l-4.742-8.632.763 5.606-5.605.762 9.585 2.264z"/><path d="M1022.422 92.014c16.456 7.108 35.025 15.008 52.078 21.986 71.617 29.305 154.897 61.344 208.7 81.78" fill="none" stroke="#a80036" stroke-width="2"/><path fill="#A80036" stroke="#a80036" d="M1287.99 197.597l-6.995-6.933 2.32 5.159-5.16 2.32 9.834-.546z"/><path d="M303.034 92.137C313.13 100.37 325.646 109.01 338.5 114c161.49 62.683 673.481 90.06 896.023 99.215" fill="none" stroke="#a80036" stroke-width="2"/><path fill="#A80036" stroke="#a80036" d="M1239.726 213.428l-8.829-4.364 3.833 4.16-4.16 3.833 9.156-3.629z"/><path d="M1820.587 319.967c-6.659-10.609-15.778-22.04-27.087-28.967-57.665-35.324-237.727-56.297-353.005-66.447" fill="none" stroke="#a80036" stroke-width="2"/><path fill="#A80036" stroke="#a80036" d="M1435.398 224.107l8.617 4.77-3.636-4.334 4.333-3.637-9.314 3.201z"/><path d="M2329.623 96.632c-7.679 6.747-16.666 13.276-26.123 17.368-19.779 8.558-625.244 69.38-866.34 93.337" fill="none" stroke="#a80036" stroke-width="2"/><path fill="#A80036" stroke="#a80036" d="M1431.882 207.861l9.352 3.09-4.376-3.584 3.585-4.376-8.56 4.87z"/><path d="M1350.474 239.383c10.973 22.38 27.83 56.767 39.364 80.29" fill="none" stroke="#a80036" stroke-width="2"/><path fill="#A80036" stroke="#a80036" d="M1392.07 324.227l-.37-9.842-1.83 5.352-5.353-1.83 7.553 6.32z"/><path d="M1397.67 235.41c85.65 27.11 243.072 76.934 312.896 99.033" fill="none" stroke="#a80036" stroke-width="2"/><path fill="#A80036" stroke="#a80036" d="M1715.44 335.986l-7.374-6.53 2.607 5.021-5.02 2.607 9.787-1.098z"/><path d="M2147.898 96.71c-6.5 6.58-14.156 13.002-22.398 17.29-136.51 71.03-200.928-3.72-341 60-139.925 63.653-271.375 197.76-322.035 253.203" fill="none" stroke="#a80036" stroke-width="2"/><path fill="#A80036" stroke="#a80036" d="M1458.958 431.057l9.016-3.964-5.65.266-.267-5.65-3.099 9.348z"/><path d="M1410.008 366.541l21.22 59.474" fill="none" stroke="#a80036" stroke-width="2"/><path fill="#A80036" stroke="#a80036" d="M1433.008 431.003l.743-9.821-2.423 5.111-5.112-2.423 6.792 7.133z"/><path d="M1607.12 532.8c-5.949-10.128-13.916-21.145-23.62-28.8-20.708-16.336-47.015-27.839-71.404-35.794" fill="none" stroke="#a80036" stroke-width="2"/><path fill="#A80036" stroke="#a80036" d="M1507.246 466.662l7.362 6.542-2.597-5.025 5.024-2.598-9.789 1.08z"/><path d="M1440.5 473.041v54.65" fill="none" stroke="#a80036" stroke-width="2"/><path fill="#A80036" stroke="#a80036" d="M1440.5 532.995l4-9-4 4-4-4 4 9z"/><path d="M1410.781 472.032l-92.684 62.474" fill="none" stroke="#a80036" stroke-width="2"/><path fill="#A80036" stroke="#a80036" d="M1313.707 537.465l9.698-1.714-5.552-1.08 1.081-5.553-5.227 8.347z"/><path d="M1307.796 579.546l74.26 61.785" fill="none" stroke="#a80036" stroke-width="2"/><path fill="#A80036" stroke="#a80036" d="M1385.99 644.603l-4.36-8.83.516 5.632-5.633.517 9.476 2.681z"/><path d="M1429.205 644.585l69.078-57.017" fill="none" stroke="#a80036" stroke-width="2"/><path fill="#A80036" stroke="#a80036" d="M1502.354 584.208l-9.487 2.644 5.63.539-.538 5.63 4.395-8.813z"/></svg>