<svg xmlns="http://www.w3.org/2000/svg" height="326" preserveAspectRatio="none" style="width:396px;height:326px" width="396"><defs><filter height="300%" id="a" width="300%" x="-1" y="-1"><feGaussianBlur result="blurOut" stdDeviation="2"/><feColorMatrix in="blurOut" result="blurOut2" values="0 0 0 0 0 0 0 0 0 0 0 0 0 0 0 0 0 0 .4 0"/><feOffset dx="4" dy="4" in="blurOut2" result="blurOut3"/><feBlend in="SourceGraphic" in2="blurOut3"/></filter></defs><path fill="#FFF" filter="url(#a)" stroke="#000" stroke-width="1.5" d="M219.5 227h154v88h-154z"/><path fill="#FFF" stroke="#000" stroke-width="1.5" d="M356.5 232v14h12v-8l-6-6h-6z"/><path stroke="#000" stroke-width="1.5" d="M362.5 232v6M368.5 238h-6"/><text font-family="Futura" font-size="14" font-weight="bold" lengthAdjust="spacingAndGlyphs" textLength="138" x="227.5" y="243.966">Project Repository</text><circle cx="340.5" cy="272" fill="#FEFECE" filter="url(#a)" stroke="#a80036" stroke-width="2" r="12"/><path fill="#A80036" stroke="#a80036" d="M336.5 260l6-5-2 5 2 5-6-5z"/><text font-family="Futura" font-size="14" lengthAdjust="spacingAndGlyphs" textLength="37" x="322" y="302.957">active</text><circle cx="260.5" cy="272" fill="#FEFECE" filter="url(#a)" stroke="#a80036" stroke-width="2" r="12"/><path fill="#A80036" stroke="#a80036" d="M256.5 260l6-5-2 5 2 5-6-5z"/><text font-family="Futura" font-size="14" lengthAdjust="spacingAndGlyphs" textLength="52" x="234.5" y="302.957">updated</text><circle cx="46.5" cy="18" fill="#FEFECE" filter="url(#a)" stroke="#a80036" stroke-width="2" r="8"/><path d="M46.5 26v27m-13-19h26m-13 19l-13 15m13-15l13 15" fill="none" filter="url(#a)" stroke="#a80036" stroke-width="2"/><text font-family="Futura" font-size="14" lengthAdjust="spacingAndGlyphs" textLength="27" x="33" y="89.957">PJM</text><path fill="#FEFECE" filter="url(#a)" stroke="#000" stroke-width="1.5" d="M6 260.5h193v41.594H6z"/><path fill="#FEFECE" stroke="#000" stroke-width="1.5" d="M182 265.5v14h12v-8l-6-6h-6z"/><path stroke="#000" stroke-width="1.5" d="M188 265.5v6M194 271.5h-6"/><text font-family="Futura" font-size="14" lengthAdjust="spacingAndGlyphs" textLength="163" x="16" y="288.457">Project Repository Backup</text><path fill="#FEFECE" filter="url(#a)" stroke="#000" stroke-width="1.5" d="M96.5 30h170v41.594h-170z"/><path fill="#FEFECE" stroke="#000" stroke-width="1.5" d="M249.5 35v14h12v-8l-6-6h-6z"/><path stroke="#000" stroke-width="1.5" d="M255.5 35v6M261.5 41h-6"/><text font-family="Futura" font-size="14" lengthAdjust="spacingAndGlyphs" textLength="140" x="106.5" y="57.957">Project Plan (updated)</text><path fill="#FEFECE" filter="url(#a)" stroke="#000" stroke-width="1.5" d="M301.5 30h78v41.594h-78z"/><path fill="#FEFECE" stroke="#000" stroke-width="1.5" d="M362.5 35v14h12v-8l-6-6h-6z"/><path stroke="#000" stroke-width="1.5" d="M368.5 35v6M374.5 41h-6"/><text font-family="Futura" font-size="14" lengthAdjust="spacingAndGlyphs" textLength="48" x="311.5" y="57.957">Product</text><ellipse cx="260.443" cy="174.989" fill="#FEFECE" filter="url(#a)" rx="92.943" ry="20.989" stroke="#a80036" stroke-width="1.5"/><text font-family="Futura" font-size="14" lengthAdjust="spacingAndGlyphs" textLength="154" x="183.443" y="180.786">Repository Management</text><path d="M194.901 72.035l49.308 77.394" fill="none" stroke="#a80036" stroke-width="2"/><path fill="#A80036" stroke="#a80036" d="M247.033 153.862l-1.462-9.74-1.225 5.523-5.522-1.224 8.209 5.44z"/><path d="M326.93 72.035l-49.933 77.394" fill="none" stroke="#a80036" stroke-width="2"/><path fill="#A80036" stroke="#a80036" d="M274.137 153.862l8.24-5.394-5.529 1.192-1.193-5.53-1.517 9.732z"/><path d="M324.442 255.836c-6.022-9.254-13.075-19.67-19.942-28.836-6.825-9.11-14.738-18.72-21.955-27.166" fill="none" stroke="#a80036" stroke-width="2"/><path fill="#A80036" stroke="#a80036" d="M279.065 195.788l2.836 9.432.424-5.641 5.641.424-8.901-4.215z"/><path d="M260.5 196.041v54.65" fill="none" stroke="#a80036" stroke-width="2"/><path fill="#A80036" stroke="#a80036" d="M260.5 255.995l4-9-4 4-4-4 4 9z"/><path d="M230.781 195.032l-92.684 62.474" fill="none" stroke="#a80036" stroke-width="2"/><path fill="#A80036" stroke="#a80036" d="M133.707 260.465l9.698-1.714-5.552-1.08 1.081-5.553-5.227 8.347z"/></svg>