<svg xmlns="http://www.w3.org/2000/svg" height="370" preserveAspectRatio="none" style="width:525px;height:370px" width="525"><defs><filter height="300%" id="a" width="300%" x="-1" y="-1"><feGaussianBlur result="blurOut" stdDeviation="2"/><feColorMatrix in="blurOut" result="blurOut2" values="0 0 0 0 0 0 0 0 0 0 0 0 0 0 0 0 0 0 .4 0"/><feOffset dx="4" dy="4" in="blurOut2" result="blurOut3"/><feBlend in="SourceGraphic" in2="blurOut3"/></filter></defs><path fill="#FFF" filter="url(#a)" stroke="#000" stroke-width="1.5" d="M14 271h161v88H14z"/><path fill="#FFF" stroke="#000" stroke-width="1.5" d="M158 276v14h12v-8l-6-6h-6z"/><path stroke="#000" stroke-width="1.5" d="M164 276v6M170 282h-6"/><text font-family="Futura" font-size="14" font-weight="bold" lengthAdjust="spacingAndGlyphs" textLength="88" x="50.5" y="287.966">Project Plan</text><path fill="#FFF" filter="url(#a)" stroke="#000" stroke-width="1.5" d="M194 271h159v88H194z"/><path fill="#FFF" stroke="#000" stroke-width="1.5" d="M336 276v14h12v-8l-6-6h-6z"/><path stroke="#000" stroke-width="1.5" d="M342 276v6M348 282h-6"/><text font-family="Futura" font-size="14" font-weight="bold" lengthAdjust="spacingAndGlyphs" textLength="19" x="264" y="287.966">CR</text><path fill="#FFF" filter="url(#a)" stroke="#000" stroke-width="1.5" d="M370 271h138v88H370z"/><path fill="#FFF" stroke="#000" stroke-width="1.5" d="M491 276v14h12v-8l-6-6h-6z"/><path stroke="#000" stroke-width="1.5" d="M497 276v6M503 282h-6"/><text font-family="Futura" font-size="14" font-weight="bold" lengthAdjust="spacingAndGlyphs" textLength="122" x="378" y="287.966">Meeting Minutes</text><circle cx="138" cy="316" fill="#FEFECE" filter="url(#a)" stroke="#a80036" stroke-width="2" r="12"/><path fill="#A80036" stroke="#a80036" d="M134 304l6-5-2 5 2 5-6-5z"/><text font-family="Futura" font-size="14" lengthAdjust="spacingAndGlyphs" textLength="58" x="109" y="346.957">accepted</text><circle cx="48" cy="316" fill="#FEFECE" filter="url(#a)" stroke="#a80036" stroke-width="2" r="12"/><path fill="#A80036" stroke="#a80036" d="M44 304l6-5-2 5 2 5-6-5z"/><text font-family="Futura" font-size="14" lengthAdjust="spacingAndGlyphs" textLength="52" x="22" y="346.957">updated</text><circle cx="314" cy="316" fill="#FEFECE" filter="url(#a)" stroke="#a80036" stroke-width="2" r="12"/><path fill="#A80036" stroke="#a80036" d="M310 304l6-5-2 5 2 5-6-5z"/><text font-family="Futura" font-size="14" lengthAdjust="spacingAndGlyphs" textLength="62" x="283" y="346.957">evaluated</text><circle cx="225" cy="316" fill="#FEFECE" filter="url(#a)" stroke="#a80036" stroke-width="2" r="12"/><path fill="#A80036" stroke="#a80036" d="M221 304l6-5-2 5 2 5-6-5z"/><text font-family="Futura" font-size="14" lengthAdjust="spacingAndGlyphs" textLength="45" x="202.5" y="346.957">agreed</text><circle cx="483" cy="316" fill="#FEFECE" filter="url(#a)" stroke="#a80036" stroke-width="2" r="12"/><path fill="#A80036" stroke="#a80036" d="M479 304l6-5-2 5 2 5-6-5z"/><text font-family="Futura" font-size="14" lengthAdjust="spacingAndGlyphs" textLength="32" x="467" y="346.957">initial</text><circle cx="406" cy="316" fill="#FEFECE" filter="url(#a)" stroke="#a80036" stroke-width="2" r="12"/><path fill="#A80036" stroke="#a80036" d="M402 304l6-5-2 5 2 5-6-5z"/><text font-family="Futura" font-size="14" lengthAdjust="spacingAndGlyphs" textLength="52" x="380" y="346.957">updated</text><circle cx="63" cy="18" fill="#FEFECE" filter="url(#a)" stroke="#a80036" stroke-width="2" r="8"/><path d="M63 26v27M50 34h26M63 53L50 68m13-15l13 15" fill="none" filter="url(#a)" stroke="#a80036" stroke-width="2"/><text font-family="Futura" font-size="14" lengthAdjust="spacingAndGlyphs" textLength="27" x="49.5" y="89.957">PJM</text><circle cx="128" cy="18" fill="#FEFECE" filter="url(#a)" stroke="#a80036" stroke-width="2" r="8"/><path d="M128 26v27m-13-19h26m-13 19l-13 15m13-15l13 15" fill="none" filter="url(#a)" stroke="#a80036" stroke-width="2"/><text font-family="Futura" font-size="14" lengthAdjust="spacingAndGlyphs" textLength="22" x="117" y="89.957">WT</text><circle cx="63" cy="164" fill="#FEFECE" filter="url(#a)" stroke="#a80036" stroke-width="2" r="8"/><path d="M63 172v27m-13-19h26m-13 19l-13 15m13-15l13 15" fill="none" filter="url(#a)" stroke="#a80036" stroke-width="2"/><text font-family="Futura" font-size="14" lengthAdjust="spacingAndGlyphs" textLength="33" x="46.5" y="235.957">ACQ</text><circle cx="130" cy="164" fill="#FEFECE" filter="url(#a)" stroke="#a80036" stroke-width="2" r="8"/><path d="M130 172v27m-13-19h26m-13 19l-13 15m13-15l13 15" fill="none" filter="url(#a)" stroke="#a80036" stroke-width="2"/><text font-family="Futura" font-size="14" lengthAdjust="spacingAndGlyphs" textLength="24" x="118" y="235.957">STK</text><path fill="#FEFECE" filter="url(#a)" stroke="#000" stroke-width="1.5" d="M182 30h174v41.594H182z"/><path fill="#FEFECE" stroke="#000" stroke-width="1.5" d="M339 35v14h12v-8l-6-6h-6z"/><path stroke="#000" stroke-width="1.5" d="M345 35v6M351 41h-6"/><text font-family="Futura" font-size="14" lengthAdjust="spacingAndGlyphs" textLength="144" x="192" y="57.957">Progress Status Record</text><ellipse cx="268.782" cy="197.056" fill="#FEFECE" filter="url(#a)" rx="88.282" ry="20.056" stroke="#a80036" stroke-width="1.5"/><text font-family="Futura" font-size="14" lengthAdjust="spacingAndGlyphs" textLength="143" x="197.282" y="202.853">Conduct STK Meetings</text><path d="M471.92 299.976c-5.412-10.1-12.755-21.142-21.92-28.976-32.848-28.075-77.777-46.526-114.654-57.982" fill="none" stroke="#a80036" stroke-width="2"/><path fill="#A80036" stroke="#a80036" d="M330.43 211.517l7.44 6.453-2.658-4.993 4.993-2.658-9.775 1.198z"/><path d="M159.37 299.964c8.102-9.338 17.564-19.843 26.63-28.964 17.815-17.924 39.114-36.867 55.675-51.1" fill="none" stroke="#a80036" stroke-width="2"/><path fill="#A80036" stroke="#a80036" d="M245.778 216.387l-9.438 2.815 5.64.437-.436 5.64 4.234-8.892z"/><path d="M269 72.23v99.405" fill="none" stroke="#a80036" stroke-width="2"/><path fill="#A80036" stroke="#a80036" d="M269 176.686l4-9-4 4-4-4 4 9z"/><path d="M305.002 299.805l-27.255-77.827" fill="none" stroke="#a80036" stroke-width="2"/><path fill="#A80036" stroke="#a80036" d="M276.031 217.078l-.8 9.816 2.453-5.097 5.097 2.453-6.75-7.172z"/><path d="M262.125 217.078l-26.615 77.729" fill="none" stroke="#a80036" stroke-width="2"/><path fill="#A80036" stroke="#a80036" d="M233.798 299.805l6.7-7.219-5.08 2.489-2.488-5.08.868 9.81z"/><path d="M225.744 214.464C175.207 234.96 97.711 266.714 92 271c-9.027 6.774-17.292 15.8-24.161 24.555" fill="none" stroke="#a80036" stroke-width="2"/><path fill="#A80036" stroke="#a80036" d="M64.582 299.82l8.641-4.725-5.606.75-.751-5.606-2.284 9.58z"/><path d="M295.565 216.09C314.612 230.308 340.433 250.695 361 271c7.73 7.63 15.493 16.5 22.344 24.84" fill="none" stroke="#a80036" stroke-width="2"/><path fill="#A80036" stroke="#a80036" d="M386.63 299.883l-2.572-9.507-.582 5.627-5.626-.582 8.78 4.462z"/></svg>