<?xml version="1.0" encoding="UTF-8" standalone="no"?><svg xmlns="http://www.w3.org/2000/svg" xmlns:xlink="http://www.w3.org/1999/xlink" contentScriptType="application/ecmascript" contentStyleType="text/css" height="329px" preserveAspectRatio="none" style="width:2404px;height:329px;" version="1.1" viewBox="0 0 2404 329" width="2404px" zoomAndPan="magnify"><defs><filter height="300%" id="f1vdthzkdrfpr5" width="300%" x="-1" y="-1"><feGaussianBlur result="blurOut" stdDeviation="2.0"/><feColorMatrix in="blurOut" result="blurOut2" type="matrix" values="0 0 0 0 0 0 0 0 0 0 0 0 0 0 0 0 0 0 .4 0"/><feOffset dx="4.0" dy="4.0" in="blurOut2" result="blurOut3"/><feBlend in="SourceGraphic" in2="blurOut3" mode="normal"/></filter></defs><g><!--cluster CR--><rect fill="#FFFFFF" filter="url(#f1vdthzkdrfpr5)" height="88" style="stroke: #000000; stroke-width: 1.5;" width="157" x="953" y="230"/><polygon fill="#FFFFFF" points="1093,235,1093,249,1105,249,1105,241,1099,235,1093,235" style="stroke: #000000; stroke-width: 1.5;"/><line style="stroke: #000000; stroke-width: 1.5;" x1="1099" x2="1099" y1="235" y2="241"/><line style="stroke: #000000; stroke-width: 1.5;" x1="1105" x2="1099" y1="241" y2="241"/><text fill="#000000" font-family="Futura" font-size="14" font-weight="bold" lengthAdjust="spacingAndGlyphs" textLength="19" x="1022" y="246.966">CR</text><!--entity META_CR_SUBMITTED--><ellipse cx="1072" cy="275" fill="#FEFECE" filter="url(#f1vdthzkdrfpr5)" rx="12" ry="12" style="stroke: #A80036; stroke-width: 2.0;"/><polygon fill="#A80036" points="1068,263,1074,258,1072,263,1074,268,1068,263" style="stroke: #A80036; stroke-width: 1.0;"/><text fill="#000000" font-family="Futura" font-size="14" lengthAdjust="spacingAndGlyphs" textLength="60" x="1042" y="305.957">submitted</text><!--entity META_CR_AGREED--><ellipse cx="984" cy="275" fill="#FEFECE" filter="url(#f1vdthzkdrfpr5)" rx="12" ry="12" style="stroke: #A80036; stroke-width: 2.0;"/><polygon fill="#A80036" points="980,263,986,258,984,263,986,268,980,263" style="stroke: #A80036; stroke-width: 1.0;"/><text fill="#000000" font-family="Futura" font-size="14" lengthAdjust="spacingAndGlyphs" textLength="45" x="961.5" y="305.957">agreed</text><!--entity PJM--><ellipse cx="21" cy="18" fill="#FEFECE" filter="url(#f1vdthzkdrfpr5)" rx="8" ry="8" style="stroke: #A80036; stroke-width: 2.0;"/><path d="M21,26 L21,53 M8,34 L34,34 M21,53 L8,68 M21,53 L34,68 " fill="none" filter="url(#f1vdthzkdrfpr5)" style="stroke: #A80036; stroke-width: 2.0;"/><text fill="#000000" font-family="Futura" font-size="14" lengthAdjust="spacingAndGlyphs" textLength="27" x="7.5" y="89.957">PJM</text><!--entity WT--><ellipse cx="86" cy="18" fill="#FEFECE" filter="url(#f1vdthzkdrfpr5)" rx="8" ry="8" style="stroke: #A80036; stroke-width: 2.0;"/><path d="M86,26 L86,53 M73,34 L99,34 M86,53 L73,68 M86,53 L99,68 " fill="none" filter="url(#f1vdthzkdrfpr5)" style="stroke: #A80036; stroke-width: 2.0;"/><text fill="#000000" font-family="Futura" font-size="14" lengthAdjust="spacingAndGlyphs" textLength="22" x="75" y="89.957">WT</text><!--entity PROD_PP--><rect fill="#FEFECE" filter="url(#f1vdthzkdrfpr5)" height="41.5938" style="stroke: #000000; stroke-width: 1.5;" width="104" x="136" y="30"/><polygon fill="#FEFECE" points="223,35,223,49,235,49,235,41,229,35,223,35" style="stroke: #000000; stroke-width: 1.5;"/><line style="stroke: #000000; stroke-width: 1.5;" x1="229" x2="229" y1="35" y2="41"/><line style="stroke: #000000; stroke-width: 1.5;" x1="235" x2="229" y1="41" y2="41"/><text fill="#000000" font-family="Futura" font-size="14" lengthAdjust="spacingAndGlyphs" textLength="74" x="146" y="57.957">Project Plan</text><!--entity PROD_PRODUCT--><rect fill="#FEFECE" filter="url(#f1vdthzkdrfpr5)" height="41.5938" style="stroke: #000000; stroke-width: 1.5;" width="78" x="848" y="263.5"/><polygon fill="#FEFECE" points="909,268.5,909,282.5,921,282.5,921,274.5,915,268.5,909,268.5" style="stroke: #000000; stroke-width: 1.5;"/><line style="stroke: #000000; stroke-width: 1.5;" x1="915" x2="915" y1="268.5" y2="274.5"/><line style="stroke: #000000; stroke-width: 1.5;" x1="921" x2="915" y1="274.5" y2="274.5"/><text fill="#000000" font-family="Futura" font-size="14" lengthAdjust="spacingAndGlyphs" textLength="48" x="858" y="291.457">Product</text><!--entity PROD_STRS--><rect fill="#FEFECE" filter="url(#f1vdthzkdrfpr5)" height="41.5938" style="stroke: #000000; stroke-width: 1.5;" width="58" x="275" y="30"/><polygon fill="#FEFECE" points="316,35,316,49,328,49,328,41,322,35,316,35" style="stroke: #000000; stroke-width: 1.5;"/><line style="stroke: #000000; stroke-width: 1.5;" x1="322" x2="322" y1="35" y2="41"/><line style="stroke: #000000; stroke-width: 1.5;" x1="328" x2="322" y1="41" y2="41"/><text fill="#000000" font-family="Futura" font-size="14" lengthAdjust="spacingAndGlyphs" textLength="28" x="285" y="57.957">StRS</text><!--entity PROD_SYSRS--><rect fill="#FEFECE" filter="url(#f1vdthzkdrfpr5)" height="41.5938" style="stroke: #000000; stroke-width: 1.5;" width="68" x="368" y="30"/><polygon fill="#FEFECE" points="419,35,419,49,431,49,431,41,425,35,419,35" style="stroke: #000000; stroke-width: 1.5;"/><line style="stroke: #000000; stroke-width: 1.5;" x1="425" x2="425" y1="35" y2="41"/><line style="stroke: #000000; stroke-width: 1.5;" x1="431" x2="425" y1="41" y2="41"/><text fill="#000000" font-family="Futura" font-size="14" lengthAdjust="spacingAndGlyphs" textLength="38" x="378" y="57.957">SysRS</text><!--entity PROD_TRAINING--><rect fill="#FEFECE" filter="url(#f1vdthzkdrfpr5)" height="41.5938" style="stroke: #000000; stroke-width: 1.5;" width="80" x="471" y="30"/><polygon fill="#FEFECE" points="534,35,534,49,546,49,546,41,540,35,534,35" style="stroke: #000000; stroke-width: 1.5;"/><line style="stroke: #000000; stroke-width: 1.5;" x1="540" x2="540" y1="35" y2="41"/><line style="stroke: #000000; stroke-width: 1.5;" x1="546" x2="540" y1="41" y2="41"/><text fill="#000000" font-family="Futura" font-size="14" lengthAdjust="spacingAndGlyphs" textLength="50" x="481" y="57.957">Training</text><!--entity PROD_SERS--><rect fill="#FEFECE" filter="url(#f1vdthzkdrfpr5)" height="41.5938" style="stroke: #000000; stroke-width: 1.5;" width="62" x="586" y="30"/><polygon fill="#FEFECE" points="631,35,631,49,643,49,643,41,637,35,631,35" style="stroke: #000000; stroke-width: 1.5;"/><line style="stroke: #000000; stroke-width: 1.5;" x1="637" x2="637" y1="35" y2="41"/><line style="stroke: #000000; stroke-width: 1.5;" x1="643" x2="637" y1="41" y2="41"/><text fill="#000000" font-family="Futura" font-size="14" lengthAdjust="spacingAndGlyphs" textLength="32" x="596" y="57.957">SERS</text><!--entity PROD_SDD--><rect fill="#FEFECE" filter="url(#f1vdthzkdrfpr5)" height="41.5938" style="stroke: #000000; stroke-width: 1.5;" width="58" x="683" y="30"/><polygon fill="#FEFECE" points="724,35,724,49,736,49,736,41,730,35,724,35" style="stroke: #000000; stroke-width: 1.5;"/><line style="stroke: #000000; stroke-width: 1.5;" x1="730" x2="730" y1="35" y2="41"/><line style="stroke: #000000; stroke-width: 1.5;" x1="736" x2="730" y1="41" y2="41"/><text fill="#000000" font-family="Futura" font-size="14" lengthAdjust="spacingAndGlyphs" textLength="28" x="693" y="57.957">SDD</text><!--entity PROD_SYSTEM--><rect fill="#FEFECE" filter="url(#f1vdthzkdrfpr5)" height="41.5938" style="stroke: #000000; stroke-width: 1.5;" width="75" x="776.5" y="30"/><polygon fill="#FEFECE" points="834.5,35,834.5,49,846.5,49,846.5,41,840.5,35,834.5,35" style="stroke: #000000; stroke-width: 1.5;"/><line style="stroke: #000000; stroke-width: 1.5;" x1="840.5" x2="840.5" y1="35" y2="41"/><line style="stroke: #000000; stroke-width: 1.5;" x1="846.5" x2="840.5" y1="41" y2="41"/><text fill="#000000" font-family="Futura" font-size="14" lengthAdjust="spacingAndGlyphs" textLength="45" x="786.5" y="57.957">System</text><!--entity PROD_SE_SW--><rect fill="#FEFECE" filter="url(#f1vdthzkdrfpr5)" height="41.5938" style="stroke: #000000; stroke-width: 1.5;" width="195" x="886.5" y="30"/><polygon fill="#FEFECE" points="1064.5,35,1064.5,49,1076.5,49,1076.5,41,1070.5,35,1064.5,35" style="stroke: #000000; stroke-width: 1.5;"/><line style="stroke: #000000; stroke-width: 1.5;" x1="1070.5" x2="1070.5" y1="35" y2="41"/><line style="stroke: #000000; stroke-width: 1.5;" x1="1076.5" x2="1070.5" y1="41" y2="41"/><text fill="#000000" font-family="Futura" font-size="14" lengthAdjust="spacingAndGlyphs" textLength="165" x="896.5" y="57.957">Software System Elements</text><!--entity PROD_SE_SWHW--><rect fill="#FEFECE" filter="url(#f1vdthzkdrfpr5)" height="41.5938" style="stroke: #000000; stroke-width: 1.5;" width="206" x="1117" y="30"/><polygon fill="#FEFECE" points="1306,35,1306,49,1318,49,1318,41,1312,35,1306,35" style="stroke: #000000; stroke-width: 1.5;"/><line style="stroke: #000000; stroke-width: 1.5;" x1="1312" x2="1312" y1="35" y2="41"/><line style="stroke: #000000; stroke-width: 1.5;" x1="1318" x2="1312" y1="41" y2="41"/><text fill="#000000" font-family="Futura" font-size="14" lengthAdjust="spacingAndGlyphs" textLength="176" x="1127" y="57.957">System Elements (HW+SW)</text><!--entity PROD_SYSOP_GUIDE--><rect fill="#FEFECE" filter="url(#f1vdthzkdrfpr5)" height="41.5938" style="stroke: #000000; stroke-width: 1.5;" width="193" x="1358.5" y="30"/><polygon fill="#FEFECE" points="1534.5,35,1534.5,49,1546.5,49,1546.5,41,1540.5,35,1534.5,35" style="stroke: #000000; stroke-width: 1.5;"/><line style="stroke: #000000; stroke-width: 1.5;" x1="1540.5" x2="1540.5" y1="35" y2="41"/><line style="stroke: #000000; stroke-width: 1.5;" x1="1546.5" x2="1540.5" y1="41" y2="41"/><text fill="#000000" font-family="Futura" font-size="14" lengthAdjust="spacingAndGlyphs" textLength="163" x="1368.5" y="57.957">System Operations Guide</text><!--entity PROD_USER_MANUAL--><rect fill="#FEFECE" filter="url(#f1vdthzkdrfpr5)" height="41.5938" style="stroke: #000000; stroke-width: 1.5;" width="111" x="1586.5" y="30"/><polygon fill="#FEFECE" points="1680.5,35,1680.5,49,1692.5,49,1692.5,41,1686.5,35,1680.5,35" style="stroke: #000000; stroke-width: 1.5;"/><line style="stroke: #000000; stroke-width: 1.5;" x1="1686.5" x2="1686.5" y1="35" y2="41"/><line style="stroke: #000000; stroke-width: 1.5;" x1="1692.5" x2="1686.5" y1="41" y2="41"/><text fill="#000000" font-family="Futura" font-size="14" lengthAdjust="spacingAndGlyphs" textLength="81" x="1596.5" y="57.957">User Manual</text><!--entity PROD_IVV_PLAN--><rect fill="#FEFECE" filter="url(#f1vdthzkdrfpr5)" height="41.5938" style="stroke: #000000; stroke-width: 1.5;" width="83" x="1732.5" y="30"/><polygon fill="#FEFECE" points="1798.5,35,1798.5,49,1810.5,49,1810.5,41,1804.5,35,1798.5,35" style="stroke: #000000; stroke-width: 1.5;"/><line style="stroke: #000000; stroke-width: 1.5;" x1="1804.5" x2="1804.5" y1="35" y2="41"/><line style="stroke: #000000; stroke-width: 1.5;" x1="1810.5" x2="1804.5" y1="41" y2="41"/><text fill="#000000" font-family="Futura" font-size="14" lengthAdjust="spacingAndGlyphs" textLength="53" x="1742.5" y="57.957">IVV Plan</text><!--entity PROD_IVV_PROCEDURES--><rect fill="#FEFECE" filter="url(#f1vdthzkdrfpr5)" height="41.5938" style="stroke: #000000; stroke-width: 1.5;" width="127" x="1850.5" y="30"/><polygon fill="#FEFECE" points="1960.5,35,1960.5,49,1972.5,49,1972.5,41,1966.5,35,1960.5,35" style="stroke: #000000; stroke-width: 1.5;"/><line style="stroke: #000000; stroke-width: 1.5;" x1="1966.5" x2="1966.5" y1="35" y2="41"/><line style="stroke: #000000; stroke-width: 1.5;" x1="1972.5" x2="1966.5" y1="41" y2="41"/><text fill="#000000" font-family="Futura" font-size="14" lengthAdjust="spacingAndGlyphs" textLength="97" x="1860.5" y="57.957">IVV Procedures</text><!--entity PROD_MAINT_MANUAL--><rect fill="#FEFECE" filter="url(#f1vdthzkdrfpr5)" height="41.5938" style="stroke: #000000; stroke-width: 1.5;" width="165" x="2012.5" y="30"/><polygon fill="#FEFECE" points="2160.5,35,2160.5,49,2172.5,49,2172.5,41,2166.5,35,2160.5,35" style="stroke: #000000; stroke-width: 1.5;"/><line style="stroke: #000000; stroke-width: 1.5;" x1="2166.5" x2="2166.5" y1="35" y2="41"/><line style="stroke: #000000; stroke-width: 1.5;" x1="2172.5" x2="2166.5" y1="41" y2="41"/><text fill="#000000" font-family="Futura" font-size="14" lengthAdjust="spacingAndGlyphs" textLength="135" x="2022.5" y="57.957">Maintenance Manual</text><!--entity META_PROGRESS_EVALUATED--><rect fill="#FEFECE" filter="url(#f1vdthzkdrfpr5)" height="41.5938" style="stroke: #000000; stroke-width: 1.5;" width="174" x="2213" y="30"/><polygon fill="#FEFECE" points="2370,35,2370,49,2382,49,2382,41,2376,35,2370,35" style="stroke: #000000; stroke-width: 1.5;"/><line style="stroke: #000000; stroke-width: 1.5;" x1="2376" x2="2376" y1="35" y2="41"/><line style="stroke: #000000; stroke-width: 1.5;" x1="2382" x2="2376" y1="41" y2="41"/><text fill="#000000" font-family="Futura" font-size="14" lengthAdjust="spacingAndGlyphs" textLength="144" x="2223" y="57.957">Progress Status Record</text><ellipse cx="984.199" cy="176.6398" fill="#FEFECE" filter="url(#f1vdthzkdrfpr5)" rx="101.199" ry="22.6398" style="stroke: #A80036; stroke-width: 1.5;"/><text fill="#000000" font-family="Futura" font-size="14" lengthAdjust="spacingAndGlyphs" textLength="173" x="897.699" y="182.4367">Configuration Management</text><!--link PROD_PP to PM2_5--><path d="M215.4221,72.0223 C227.536,80.236 242.3374,88.8933 257,94 C369.6987,133.2513 708.6082,159.3279 880.9509,170.4242 " fill="none" id="PROD_PP-PM2_5" style="stroke: #A80036; stroke-width: 2.0;"/><polygon fill="#A80036" points="886.0008,170.7481,877.2754,166.18,881.0111,170.428,876.7632,174.1636,886.0008,170.7481" style="stroke: #A80036; stroke-width: 1.0;"/><!--link PROD_STRS to PM2_5--><path d="M321.2062,72.0015 C329.1004,80.2117 339.123,88.872 350,94 C441.8094,137.2839 726.0219,160.8294 880.8701,170.7478 " fill="none" id="PROD_STRS-PM2_5" style="stroke: #A80036; stroke-width: 2.0;"/><polygon fill="#A80036" points="885.8683,171.0661,877.1408,166.502,880.8784,170.7482,876.6322,174.4859,885.8683,171.0661" style="stroke: #A80036; stroke-width: 1.0;"/><!--link PROD_SYSRS to PM2_5--><path d="M422.0142,72.3005 C430.7614,80.3534 441.6169,88.8164 453,94 C528.1822,128.2362 753.4652,154.5861 885.1931,167.5765 " fill="none" id="PROD_SYSRS-PM2_5" style="stroke: #A80036; stroke-width: 2.0;"/><polygon fill="#A80036" points="890.2277,168.071,881.6619,163.2102,885.2517,167.5821,880.8797,171.1719,890.2277,168.071" style="stroke: #A80036; stroke-width: 1.0;"/><!--link PROD_SERS to PM2_5--><path d="M636.3593,72.2205 C644.5198,80.0651 654.546,88.3999 665,94 C735.8908,131.9756 825.1258,153.1221 891.177,164.4705 " fill="none" id="PROD_SERS-PM2_5" style="stroke: #A80036; stroke-width: 2.0;"/><polygon fill="#A80036" points="896.2914,165.3377,888.0867,159.8895,891.3618,164.5019,886.7494,167.7769,896.2914,165.3377" style="stroke: #A80036; stroke-width: 1.0;"/><!--link PROD_SDD to PM2_5--><path d="M731.6374,72.1571 C739.5721,79.8084 749.1717,88.0253 759,94 C806.8513,123.0892 866.5819,144.3956 912.473,158.0619 " fill="none" id="PROD_SDD-PM2_5" style="stroke: #A80036; stroke-width: 2.0;"/><polygon fill="#A80036" points="917.433,159.5254,909.9329,153.142,912.6374,158.1104,907.6689,160.8149,917.433,159.5254" style="stroke: #A80036; stroke-width: 1.0;"/><!--link PROD_SYSTEM to PM2_5--><path d="M840.4055,72.0005 C849.4152,79.0706 859.5905,86.9513 869,94 C895.4741,113.8319 925.9059,135.62 948.812,151.8227 " fill="none" id="PROD_SYSTEM-PM2_5" style="stroke: #A80036; stroke-width: 2.0;"/><polygon fill="#A80036" points="952.9989,154.7814,947.9574,146.3207,948.9156,151.8958,943.3405,152.854,952.9989,154.7814" style="stroke: #A80036; stroke-width: 1.0;"/><!--link PROD_SE_SWHW to PM2_5--><path d="M1180.4989,72.0059 C1138.2543,94.4707 1071.4436,129.9993 1027.6638,153.2805 " fill="none" id="PROD_SE_SWHW-PM2_5" style="stroke: #A80036; stroke-width: 2.0;"/><polygon fill="#A80036" points="1023.2366,155.6348,1033.061,154.9407,1027.6512,153.2872,1029.3047,147.8774,1023.2366,155.6348" style="stroke: #A80036; stroke-width: 1.0;"/><!--link PROD_SE_SW to PM2_5--><path d="M984,72.0059 C984,93.0246 984,125.4792 984,148.6389 " fill="none" id="PROD_SE_SW-PM2_5" style="stroke: #A80036; stroke-width: 2.0;"/><polygon fill="#A80036" points="984,153.7252,988,144.7252,984,148.7252,980,144.7252,984,153.7252" style="stroke: #A80036; stroke-width: 1.0;"/><!--link PROD_IVV_PLAN to PM2_5--><path d="M1750.9968,72.0718 C1740.7137,80.2939 1727.9932,88.944 1715,94 C1603.1806,137.5113 1261.7048,161.5945 1087.9344,171.3287 " fill="none" id="PROD_IVV_PLAN-PM2_5" style="stroke: #A80036; stroke-width: 2.0;"/><polygon fill="#A80036" points="1082.8426,171.6125,1092.0514,175.1051,1087.8348,171.3341,1091.6059,167.1175,1082.8426,171.6125" style="stroke: #A80036; stroke-width: 1.0;"/><!--link PROD_IVV_PROCEDURES to PM2_5--><path d="M1881.3767,72.0785 C1867.0831,80.3017 1849.7697,88.9509 1833,94 C1696.1337,135.2083 1282.9353,161.1794 1087.9669,171.4616 " fill="none" id="PROD_IVV_PROCEDURES-PM2_5" style="stroke: #A80036; stroke-width: 2.0;"/><polygon fill="#A80036" points="1082.8323,171.7315,1092.0298,175.2536,1087.8254,171.4691,1091.61,167.2646,1082.8323,171.7315" style="stroke: #A80036; stroke-width: 1.0;"/><!--link PROD_SYSOP_GUIDE to PM2_5--><path d="M1403.5751,72.0653 C1384.1618,79.5744 1361.7519,87.7191 1341,94 C1248.0969,122.1184 1139.111,146.027 1066.2204,160.7545 " fill="none" id="PROD_SYSOP_GUIDE-PM2_5" style="stroke: #A80036; stroke-width: 2.0;"/><polygon fill="#A80036" points="1061.0353,161.799,1070.648,163.9429,1065.9368,160.8116,1069.0681,156.1004,1061.0353,161.799" style="stroke: #A80036; stroke-width: 1.0;"/><!--link PROD_USER_MANUAL to PM2_5--><path d="M1612.404,72.0198 C1599.6158,80.13 1584.135,88.7106 1569,94 C1481.3239,124.6411 1224.9286,153.2172 1082.4071,167.3153 " fill="none" id="PROD_USER_MANUAL-PM2_5" style="stroke: #A80036; stroke-width: 2.0;"/><polygon fill="#A80036" points="1077.3856,167.8107,1086.7349,170.9076,1082.3614,167.3197,1085.9493,162.9462,1077.3856,167.8107" style="stroke: #A80036; stroke-width: 1.0;"/><!--link PROD_MAINT_MANUAL to PM2_5--><path d="M2054.2072,72.1096 C2036.4734,80.3381 2015.1734,88.9828 1995,94 C1825.437,136.1713 1311.2849,162.535 1088.64,172.2588 " fill="none" id="PROD_MAINT_MANUAL-PM2_5" style="stroke: #A80036; stroke-width: 2.0;"/><polygon fill="#A80036" points="1083.4352,172.4854,1092.6007,176.09,1088.4305,172.2678,1092.2526,168.0976,1083.4352,172.4854" style="stroke: #A80036; stroke-width: 1.0;"/><!--link PROD_TRAINING to PM2_5--><path d="M533.8742,72.0117 C543.7278,80.0204 555.7817,88.5284 568,94 C669.2996,139.364 795.5459,159.9092 882.2332,169.1351 " fill="none" id="PROD_TRAINING-PM2_5" style="stroke: #A80036; stroke-width: 2.0;"/><polygon fill="#A80036" points="887.3661,169.673,878.8322,164.7565,882.3933,169.1517,877.9981,172.7129,887.3661,169.673" style="stroke: #A80036; stroke-width: 1.0;"/><!--link META_CR_AGREED to PM2_5--><path d="M984,258.8595 C984,242.4081 984,221.0537 984,204.2118 " fill="none" id="META_CR_AGREED-PM2_5" style="stroke: #A80036; stroke-width: 2.0;"/><polygon fill="#A80036" points="984,199.1403,980,208.1403,984,204.1403,988,208.1403,984,199.1403" style="stroke: #A80036; stroke-width: 1.0;"/><!--link META_PROGRESS_EVALUATED to PM2_5--><path d="M2257.3471,72.1065 C2238.6635,80.3873 2216.2018,89.0725 2195,94 C1986.1743,142.5329 1344.2672,166.0345 1089.6482,173.6354 " fill="none" id="META_PROGRESS_EVALUATED-PM2_5" style="stroke: #A80036; stroke-width: 2.0;"/><polygon fill="#A80036" points="1084.4459,173.7901,1093.5609,177.5206,1089.4437,173.6414,1093.3229,169.5242,1084.4459,173.7901" style="stroke: #A80036; stroke-width: 1.0;"/><!--link PM2_5 to PROD_PRODUCT--><path d="M964.1365,198.616 C948.3684,216.1723 926.3086,240.7337 909.817,259.0955 " fill="none" id="PM2_5-PROD_PRODUCT" style="stroke: #A80036; stroke-width: 2.0;"/><polygon fill="#A80036" points="906.1758,263.1496,915.1655,259.1265,909.5168,259.4297,909.2136,253.7809,906.1758,263.1496" style="stroke: #A80036; stroke-width: 1.0;"/><!--link PM2_5 to META_CR_SUBMITTED--><path d="M1002.2337,198.8777 C1015.4322,215.0759 1033.4068,237.1356 1047.8055,254.8067 " fill="none" id="PM2_5-META_CR_SUBMITTED" style="stroke: #A80036; stroke-width: 2.0;"/><polygon fill="#A80036" points="1051.0074,258.7364,1048.4232,249.2326,1047.849,254.8603,1042.2213,254.2861,1051.0074,258.7364" style="stroke: #A80036; stroke-width: 1.0;"/><!--
@startuml



skinparam handwritten false
skinparam defaultFontName Futura


actor PJM
actor WT

artifact "Project Plan" as PROD_PP
artifact "Product" as PROD_PRODUCT
artifact "CR" {
control "submitted" as META_CR_SUBMITTED
control "agreed" as META_CR_AGREED
}
artifact "StRS" as PROD_STRS
artifact "SysRS" as PROD_SYSRS
artifact "Training" as PROD_TRAINING
artifact "SERS" as PROD_SERS
artifact "SDD" as PROD_SDD
artifact "System" as PROD_SYSTEM
artifact "Software System Elements" as PROD_SE_SW
artifact "System Elements (HW+SW)" as PROD_SE_SWHW
artifact "System Operations Guide" as PROD_SYSOP_GUIDE
artifact "User Manual" as PROD_USER_MANUAL
artifact "IVV Plan" as PROD_IVV_PLAN
artifact "IVV Procedures" as PROD_IVV_PROCEDURES
artifact "Maintenance Manual" as PROD_MAINT_MANUAL
artifact "Progress Status Record" as META_PROGRESS_EVALUATED

usecase "Configuration Management" as PM2_5
PROD_PP ==> PM2_5
PROD_STRS ==> PM2_5
PROD_SYSRS ==> PM2_5
PROD_SERS ==> PM2_5
PROD_SDD ==> PM2_5
PROD_SYSTEM ==> PM2_5
PROD_SE_SWHW ==> PM2_5
PROD_SE_SW ==> PM2_5
PROD_IVV_PLAN ==> PM2_5
PROD_IVV_PROCEDURES ==> PM2_5
PROD_SYSOP_GUIDE ==> PM2_5
PROD_USER_MANUAL ==> PM2_5
PROD_MAINT_MANUAL ==> PM2_5
PROD_TRAINING ==> PM2_5
META_CR_AGREED ==> PM2_5
META_PROGRESS_EVALUATED ==> PM2_5
PM2_5 ==> PROD_PRODUCT
PM2_5 ==> META_CR_SUBMITTED

@enduml

PlantUML version 1.2019.00(Sun Jan 13 07:46:42 PST 2019)
(GPL source distribution)
Java Runtime: Java(TM) SE Runtime Environment
JVM: Java HotSpot(TM) 64-Bit Server VM
Java Version: 10.0.1+10
Operating System: Mac OS X
OS Version: 10.14.3
Default Encoding: UTF-8
Language: en
Country: US
--></g></svg>