<svg xmlns="http://www.w3.org/2000/svg" height="324" preserveAspectRatio="none" style="width:387px;height:324px" width="387"><defs><filter height="300%" id="a" width="300%" x="-1" y="-1"><feGaussianBlur result="blurOut" stdDeviation="2"/><feColorMatrix in="blurOut" result="blurOut2" values="0 0 0 0 0 0 0 0 0 0 0 0 0 0 0 0 0 0 .4 0"/><feOffset dx="4" dy="4" in="blurOut2" result="blurOut3"/><feBlend in="SourceGraphic" in2="blurOut3"/></filter></defs><path fill="#FFF" filter="url(#a)" stroke="#000" stroke-width="1.5" d="M72 225h138v88H72z"/><path fill="#FFF" stroke="#000" stroke-width="1.5" d="M193 230v14h12v-8l-6-6h-6z"/><path stroke="#000" stroke-width="1.5" d="M199 230v6M205 236h-6"/><text font-family="Futura" font-size="14" font-weight="bold" lengthAdjust="spacingAndGlyphs" textLength="122" x="80" y="241.966">Meeting Minutes</text><path fill="#FFF" filter="url(#a)" stroke="#000" stroke-width="1.5" d="M227 225h143v88H227z"/><path fill="#FFF" stroke="#000" stroke-width="1.5" d="M353 230v14h12v-8l-6-6h-6z"/><path stroke="#000" stroke-width="1.5" d="M359 230v6M365 236h-6"/><text font-family="Futura" font-size="14" font-weight="bold" lengthAdjust="spacingAndGlyphs" textLength="118" x="239.5" y="241.966">Purchase Order</text><circle cx="184" cy="270" fill="#FEFECE" filter="url(#a)" stroke="#a80036" stroke-width="2" r="12"/><path fill="#A80036" stroke="#a80036" d="M180 258l6-5-2 5 2 5-6-5z"/><text font-family="Futura" font-size="14" lengthAdjust="spacingAndGlyphs" textLength="32" x="168" y="300.957">initial</text><circle cx="107" cy="270" fill="#FEFECE" filter="url(#a)" stroke="#a80036" stroke-width="2" r="12"/><path fill="#A80036" stroke="#a80036" d="M103 258l6-5-2 5 2 5-6-5z"/><text font-family="Futura" font-size="14" lengthAdjust="spacingAndGlyphs" textLength="52" x="81" y="300.957">updated</text><circle cx="346" cy="270" fill="#FEFECE" filter="url(#a)" stroke="#a80036" stroke-width="2" r="12"/><path fill="#A80036" stroke="#a80036" d="M342 258l6-5-2 5 2 5-6-5z"/><text font-family="Futura" font-size="14" lengthAdjust="spacingAndGlyphs" textLength="32" x="330" y="300.957">initial</text><circle cx="265" cy="270" fill="#FEFECE" filter="url(#a)" stroke="#a80036" stroke-width="2" r="12"/><path fill="#A80036" stroke="#a80036" d="M261 258l6-5-2 5 2 5-6-5z"/><text font-family="Futura" font-size="14" lengthAdjust="spacingAndGlyphs" textLength="60" x="235" y="300.957">approved</text><circle cx="21" cy="18" fill="#FEFECE" filter="url(#a)" stroke="#a80036" stroke-width="2" r="8"/><path d="M21 26v27M8 34h26M21 53L8 68m13-15l13 15" fill="none" filter="url(#a)" stroke="#a80036" stroke-width="2"/><text font-family="Futura" font-size="14" lengthAdjust="spacingAndGlyphs" textLength="27" x="7.5" y="89.957">PJM</text><circle cx="86" cy="18" fill="#FEFECE" filter="url(#a)" stroke="#a80036" stroke-width="2" r="8"/><path d="M86 26v27M73 34h26M86 53L73 68m13-15l13 15" fill="none" filter="url(#a)" stroke="#a80036" stroke-width="2"/><text font-family="Futura" font-size="14" lengthAdjust="spacingAndGlyphs" textLength="22" x="75" y="89.957">WT</text><path fill="#FEFECE" filter="url(#a)" stroke="#000" stroke-width="1.5" d="M136 30h176v41.594H136z"/><path fill="#FEFECE" stroke="#000" stroke-width="1.5" d="M295 35v14h12v-8l-6-6h-6z"/><path stroke="#000" stroke-width="1.5" d="M301 35v6M307 41h-6"/><text font-family="Futura" font-size="14" lengthAdjust="spacingAndGlyphs" textLength="146" x="146" y="57.957">Project Plan (accepted)</text><ellipse cx="223.946" cy="173.889" fill="#FEFECE" filter="url(#a)" rx="87.445" ry="19.889" stroke="#a80036" stroke-width="1.5"/><text font-family="Futura" font-size="14" lengthAdjust="spacingAndGlyphs" textLength="141" x="153.446" y="179.686">Conduct WT Meetings</text><path d="M333.93 253.73c-5.44-9.788-12.54-20.54-20.93-28.73-12.588-12.288-28.713-22.687-43.77-30.824" fill="none" stroke="#a80036" stroke-width="2"/><path fill="#A80036" stroke="#a80036" d="M264.596 191.723l6.083 7.746-1.664-5.407 5.406-1.664-9.825-.675z"/><path d="M193.67 253.995l20.735-54.688" fill="none" stroke="#a80036" stroke-width="2"/><path fill="#A80036" stroke="#a80036" d="M216.288 194.341l-6.931 6.998 5.158-2.322 2.322 5.158-.55-9.834z"/><path d="M224 72.144v76.573" fill="none" stroke="#a80036" stroke-width="2"/><path fill="#A80036" stroke="#a80036" d="M224 153.946l4-9-4 4-4-4 4 9z"/><path d="M193.071 192.806C179.494 201.75 163.774 213.084 151 225c-7.947 7.414-15.708 16.294-22.445 24.713" fill="none" stroke="#a80036" stroke-width="2"/><path fill="#A80036" stroke="#a80036" d="M125.335 253.8l8.712-4.593-5.618.666-.666-5.618-2.428 9.545z"/><path d="M231.905 194.341l21.3 54.81" fill="none" stroke="#a80036" stroke-width="2"/><path fill="#A80036" stroke="#a80036" d="M255.088 253.995l.468-9.838-2.279 5.178-5.177-2.28 6.988 6.94z"/></svg>