<?xml version="1.0" encoding="UTF-8" standalone="no"?><svg xmlns="http://www.w3.org/2000/svg" xmlns:xlink="http://www.w3.org/1999/xlink" contentScriptType="application/ecmascript" contentStyleType="text/css" height="326px" preserveAspectRatio="none" style="width:396px;height:326px;" version="1.1" viewBox="0 0 396 326" width="396px" zoomAndPan="magnify"><defs><filter height="300%" id="f15obokswq43j5" width="300%" x="-1" y="-1"><feGaussianBlur result="blurOut" stdDeviation="2.0"/><feColorMatrix in="blurOut" result="blurOut2" type="matrix" values="0 0 0 0 0 0 0 0 0 0 0 0 0 0 0 0 0 0 .4 0"/><feOffset dx="4.0" dy="4.0" in="blurOut2" result="blurOut3"/><feBlend in="SourceGraphic" in2="blurOut3" mode="normal"/></filter></defs><g><!--cluster Project Repository--><rect fill="#FFFFFF" filter="url(#f15obokswq43j5)" height="88" style="stroke: #000000; stroke-width: 1.5;" width="154" x="219.5" y="227"/><polygon fill="#FFFFFF" points="356.5,232,356.5,246,368.5,246,368.5,238,362.5,232,356.5,232" style="stroke: #000000; stroke-width: 1.5;"/><line style="stroke: #000000; stroke-width: 1.5;" x1="362.5" x2="362.5" y1="232" y2="238"/><line style="stroke: #000000; stroke-width: 1.5;" x1="368.5" x2="362.5" y1="238" y2="238"/><text fill="#000000" font-family="Futura" font-size="14" font-weight="bold" lengthAdjust="spacingAndGlyphs" textLength="138" x="227.5" y="243.966">Project Repository</text><!--entity PROD_REPO--><ellipse cx="340.5" cy="272" fill="#FEFECE" filter="url(#f15obokswq43j5)" rx="12" ry="12" style="stroke: #A80036; stroke-width: 2.0;"/><polygon fill="#A80036" points="336.5,260,342.5,255,340.5,260,342.5,265,336.5,260" style="stroke: #A80036; stroke-width: 1.0;"/><text fill="#000000" font-family="Futura" font-size="14" lengthAdjust="spacingAndGlyphs" textLength="37" x="322" y="302.957">active</text><!--entity PROD_REPO_UPDATED--><ellipse cx="260.5" cy="272" fill="#FEFECE" filter="url(#f15obokswq43j5)" rx="12" ry="12" style="stroke: #A80036; stroke-width: 2.0;"/><polygon fill="#A80036" points="256.5,260,262.5,255,260.5,260,262.5,265,256.5,260" style="stroke: #A80036; stroke-width: 1.0;"/><text fill="#000000" font-family="Futura" font-size="14" lengthAdjust="spacingAndGlyphs" textLength="52" x="234.5" y="302.957">updated</text><!--entity PJM--><ellipse cx="46.5" cy="18" fill="#FEFECE" filter="url(#f15obokswq43j5)" rx="8" ry="8" style="stroke: #A80036; stroke-width: 2.0;"/><path d="M46.5,26 L46.5,53 M33.5,34 L59.5,34 M46.5,53 L33.5,68 M46.5,53 L59.5,68 " fill="none" filter="url(#f15obokswq43j5)" style="stroke: #A80036; stroke-width: 2.0;"/><text fill="#000000" font-family="Futura" font-size="14" lengthAdjust="spacingAndGlyphs" textLength="27" x="33" y="89.957">PJM</text><!--entity PROD_REPO_BACKUP--><rect fill="#FEFECE" filter="url(#f15obokswq43j5)" height="41.5938" style="stroke: #000000; stroke-width: 1.5;" width="193" x="6" y="260.5"/><polygon fill="#FEFECE" points="182,265.5,182,279.5,194,279.5,194,271.5,188,265.5,182,265.5" style="stroke: #000000; stroke-width: 1.5;"/><line style="stroke: #000000; stroke-width: 1.5;" x1="188" x2="188" y1="265.5" y2="271.5"/><line style="stroke: #000000; stroke-width: 1.5;" x1="194" x2="188" y1="271.5" y2="271.5"/><text fill="#000000" font-family="Futura" font-size="14" lengthAdjust="spacingAndGlyphs" textLength="163" x="16" y="288.457">Project Repository Backup</text><!--entity PROD_PP_UPDATED--><rect fill="#FEFECE" filter="url(#f15obokswq43j5)" height="41.5938" style="stroke: #000000; stroke-width: 1.5;" width="170" x="96.5" y="30"/><polygon fill="#FEFECE" points="249.5,35,249.5,49,261.5,49,261.5,41,255.5,35,249.5,35" style="stroke: #000000; stroke-width: 1.5;"/><line style="stroke: #000000; stroke-width: 1.5;" x1="255.5" x2="255.5" y1="35" y2="41"/><line style="stroke: #000000; stroke-width: 1.5;" x1="261.5" x2="255.5" y1="41" y2="41"/><text fill="#000000" font-family="Futura" font-size="14" lengthAdjust="spacingAndGlyphs" textLength="140" x="106.5" y="57.957">Project Plan (updated)</text><!--entity PROD_PRODUCT--><rect fill="#FEFECE" filter="url(#f15obokswq43j5)" height="41.5938" style="stroke: #000000; stroke-width: 1.5;" width="78" x="301.5" y="30"/><polygon fill="#FEFECE" points="362.5,35,362.5,49,374.5,49,374.5,41,368.5,35,362.5,35" style="stroke: #000000; stroke-width: 1.5;"/><line style="stroke: #000000; stroke-width: 1.5;" x1="368.5" x2="368.5" y1="35" y2="41"/><line style="stroke: #000000; stroke-width: 1.5;" x1="374.5" x2="368.5" y1="41" y2="41"/><text fill="#000000" font-family="Futura" font-size="14" lengthAdjust="spacingAndGlyphs" textLength="48" x="311.5" y="57.957">Product</text><ellipse cx="260.4433" cy="174.9887" fill="#FEFECE" filter="url(#f15obokswq43j5)" rx="92.9433" ry="20.9887" style="stroke: #A80036; stroke-width: 1.5;"/><text fill="#000000" font-family="Futura" font-size="14" lengthAdjust="spacingAndGlyphs" textLength="154" x="183.4433" y="180.7855">Repository Management</text><!--link PROD_PP_UPDATED to PM2_6--><path d="M194.9013,72.0349 C208.5204,93.4118 229.632,126.549 244.2089,149.4292 " fill="none" id="PROD_PP_UPDATED-PM2_6" style="stroke: #A80036; stroke-width: 2.0;"/><polygon fill="#A80036" points="247.033,153.8619,245.5708,144.1222,244.3465,149.645,238.8237,148.4206,247.033,153.8619" style="stroke: #A80036; stroke-width: 1.0;"/><!--link PROD_PRODUCT to PM2_6--><path d="M326.9291,72.0349 C313.1375,93.4118 291.7587,126.549 276.9973,149.4292 " fill="none" id="PROD_PRODUCT-PM2_6" style="stroke: #A80036; stroke-width: 2.0;"/><polygon fill="#A80036" points="274.1375,153.8619,282.3777,148.4676,276.848,149.6604,275.6553,144.1307,274.1375,153.8619" style="stroke: #A80036; stroke-width: 1.0;"/><!--link PROD_REPO to PM2_6--><path d="M324.4417,255.8362 C318.4195,246.5825 311.3673,236.1659 304.5,227 C297.675,217.8906 289.7623,208.2804 282.5446,199.8337 " fill="none" id="PROD_REPO-PM2_6" style="stroke: #A80036; stroke-width: 2.0;"/><polygon fill="#A80036" points="279.065,195.7879,281.901,205.2196,282.3254,199.5787,287.9663,200.003,279.065,195.7879" style="stroke: #A80036; stroke-width: 1.0;"/><!--link PM2_6 to PROD_REPO_UPDATED--><path d="M260.5,196.041 C260.5,211.643 260.5,233.1541 260.5,250.6909 " fill="none" id="PM2_6-PROD_REPO_UPDATED" style="stroke: #A80036; stroke-width: 2.0;"/><polygon fill="#A80036" points="260.5,255.9948,264.5,246.9948,260.5,250.9948,256.5,246.9948,260.5,255.9948" style="stroke: #A80036; stroke-width: 1.0;"/><!--link PM2_6 to PROD_REPO_BACKUP--><path d="M230.7814,195.0318 C204.4771,212.7623 166.036,238.6735 138.0972,257.5057 " fill="none" id="PM2_6-PROD_REPO_BACKUP" style="stroke: #A80036; stroke-width: 2.0;"/><polygon fill="#A80036" points="133.7069,260.465,143.4055,258.7513,137.8529,257.6703,138.934,252.1177,133.7069,260.465" style="stroke: #A80036; stroke-width: 1.0;"/><!--
@startuml



skinparam handwritten false
skinparam defaultFontName Futura


actor PJM

artifact "Project Repository" {
control "active" as PROD_REPO
control "updated" as PROD_REPO_UPDATED
}
artifact "Project Repository Backup" as PROD_REPO_BACKUP
artifact "Project Plan (updated)" as PROD_PP_UPDATED
artifact "Product" as PROD_PRODUCT

usecase "Repository Management" as PM2_6
PROD_PP_UPDATED ==> PM2_6
PROD_PRODUCT ==> PM2_6
PROD_REPO ==> PM2_6
PM2_6 ==> PROD_REPO_UPDATED
PM2_6 ==> PROD_REPO_BACKUP

@enduml

PlantUML version 1.2019.00(Sun Jan 13 07:46:42 PST 2019)
(GPL source distribution)
Java Runtime: Java(TM) SE Runtime Environment
JVM: Java HotSpot(TM) 64-Bit Server VM
Java Version: 10.0.1+10
Operating System: Mac OS X
OS Version: 10.14.3
Default Encoding: UTF-8
Language: en
Country: US
--></g></svg>