<?xml version="1.0" encoding="UTF-8" standalone="no"?><svg xmlns="http://www.w3.org/2000/svg" xmlns:xlink="http://www.w3.org/1999/xlink" contentScriptType="application/ecmascript" contentStyleType="text/css" height="324px" preserveAspectRatio="none" style="width:387px;height:324px;" version="1.1" viewBox="0 0 387 324" width="387px" zoomAndPan="magnify"><defs><filter height="300%" id="f9onz0kzyvwyp" width="300%" x="-1" y="-1"><feGaussianBlur result="blurOut" stdDeviation="2.0"/><feColorMatrix in="blurOut" result="blurOut2" type="matrix" values="0 0 0 0 0 0 0 0 0 0 0 0 0 0 0 0 0 0 .4 0"/><feOffset dx="4.0" dy="4.0" in="blurOut2" result="blurOut3"/><feBlend in="SourceGraphic" in2="blurOut3" mode="normal"/></filter></defs><g><!--cluster Meeting Minutes--><rect fill="#FFFFFF" filter="url(#f9onz0kzyvwyp)" height="88" style="stroke: #000000; stroke-width: 1.5;" width="138" x="72" y="225"/><polygon fill="#FFFFFF" points="193,230,193,244,205,244,205,236,199,230,193,230" style="stroke: #000000; stroke-width: 1.5;"/><line style="stroke: #000000; stroke-width: 1.5;" x1="199" x2="199" y1="230" y2="236"/><line style="stroke: #000000; stroke-width: 1.5;" x1="205" x2="199" y1="236" y2="236"/><text fill="#000000" font-family="Futura" font-size="14" font-weight="bold" lengthAdjust="spacingAndGlyphs" textLength="122" x="80" y="241.966">Meeting Minutes</text><!--cluster Purchase Order--><rect fill="#FFFFFF" filter="url(#f9onz0kzyvwyp)" height="88" style="stroke: #000000; stroke-width: 1.5;" width="143" x="227" y="225"/><polygon fill="#FFFFFF" points="353,230,353,244,365,244,365,236,359,230,353,230" style="stroke: #000000; stroke-width: 1.5;"/><line style="stroke: #000000; stroke-width: 1.5;" x1="359" x2="359" y1="230" y2="236"/><line style="stroke: #000000; stroke-width: 1.5;" x1="365" x2="359" y1="236" y2="236"/><text fill="#000000" font-family="Futura" font-size="14" font-weight="bold" lengthAdjust="spacingAndGlyphs" textLength="118" x="239.5" y="241.966">Purchase Order</text><!--entity META_MINUTES--><ellipse cx="184" cy="270" fill="#FEFECE" filter="url(#f9onz0kzyvwyp)" rx="12" ry="12" style="stroke: #A80036; stroke-width: 2.0;"/><polygon fill="#A80036" points="180,258,186,253,184,258,186,263,180,258" style="stroke: #A80036; stroke-width: 1.0;"/><text fill="#000000" font-family="Futura" font-size="14" lengthAdjust="spacingAndGlyphs" textLength="32" x="168" y="300.957">initial</text><!--entity META_MINUTES_UPDATED--><ellipse cx="107" cy="270" fill="#FEFECE" filter="url(#f9onz0kzyvwyp)" rx="12" ry="12" style="stroke: #A80036; stroke-width: 2.0;"/><polygon fill="#A80036" points="103,258,109,253,107,258,109,263,103,258" style="stroke: #A80036; stroke-width: 1.0;"/><text fill="#000000" font-family="Futura" font-size="14" lengthAdjust="spacingAndGlyphs" textLength="52" x="81" y="300.957">updated</text><!--entity PROD_PO_INITIAL--><ellipse cx="346" cy="270" fill="#FEFECE" filter="url(#f9onz0kzyvwyp)" rx="12" ry="12" style="stroke: #A80036; stroke-width: 2.0;"/><polygon fill="#A80036" points="342,258,348,253,346,258,348,263,342,258" style="stroke: #A80036; stroke-width: 1.0;"/><text fill="#000000" font-family="Futura" font-size="14" lengthAdjust="spacingAndGlyphs" textLength="32" x="330" y="300.957">initial</text><!--entity PROD_PO_APPROVED--><ellipse cx="265" cy="270" fill="#FEFECE" filter="url(#f9onz0kzyvwyp)" rx="12" ry="12" style="stroke: #A80036; stroke-width: 2.0;"/><polygon fill="#A80036" points="261,258,267,253,265,258,267,263,261,258" style="stroke: #A80036; stroke-width: 1.0;"/><text fill="#000000" font-family="Futura" font-size="14" lengthAdjust="spacingAndGlyphs" textLength="60" x="235" y="300.957">approved</text><!--entity PJM--><ellipse cx="21" cy="18" fill="#FEFECE" filter="url(#f9onz0kzyvwyp)" rx="8" ry="8" style="stroke: #A80036; stroke-width: 2.0;"/><path d="M21,26 L21,53 M8,34 L34,34 M21,53 L8,68 M21,53 L34,68 " fill="none" filter="url(#f9onz0kzyvwyp)" style="stroke: #A80036; stroke-width: 2.0;"/><text fill="#000000" font-family="Futura" font-size="14" lengthAdjust="spacingAndGlyphs" textLength="27" x="7.5" y="89.957">PJM</text><!--entity WT--><ellipse cx="86" cy="18" fill="#FEFECE" filter="url(#f9onz0kzyvwyp)" rx="8" ry="8" style="stroke: #A80036; stroke-width: 2.0;"/><path d="M86,26 L86,53 M73,34 L99,34 M86,53 L73,68 M86,53 L99,68 " fill="none" filter="url(#f9onz0kzyvwyp)" style="stroke: #A80036; stroke-width: 2.0;"/><text fill="#000000" font-family="Futura" font-size="14" lengthAdjust="spacingAndGlyphs" textLength="22" x="75" y="89.957">WT</text><!--entity PROD_PP_ACCEPTED--><rect fill="#FEFECE" filter="url(#f9onz0kzyvwyp)" height="41.5938" style="stroke: #000000; stroke-width: 1.5;" width="176" x="136" y="30"/><polygon fill="#FEFECE" points="295,35,295,49,307,49,307,41,301,35,295,35" style="stroke: #000000; stroke-width: 1.5;"/><line style="stroke: #000000; stroke-width: 1.5;" x1="301" x2="301" y1="35" y2="41"/><line style="stroke: #000000; stroke-width: 1.5;" x1="307" x2="301" y1="41" y2="41"/><text fill="#000000" font-family="Futura" font-size="14" lengthAdjust="spacingAndGlyphs" textLength="146" x="146" y="57.957">Project Plan (accepted)</text><ellipse cx="223.9455" cy="173.8891" fill="#FEFECE" filter="url(#f9onz0kzyvwyp)" rx="87.4455" ry="19.8891" style="stroke: #A80036; stroke-width: 1.5;"/><text fill="#000000" font-family="Futura" font-size="14" lengthAdjust="spacingAndGlyphs" textLength="141" x="153.4455" y="179.686">Conduct WT Meetings</text><!--link PROD_PO_INITIAL to PM2_3--><path d="M333.9294,253.7294 C328.4898,243.9418 321.39,233.1902 313,225 C300.412,212.7118 284.2872,202.3133 269.2293,194.1758 " fill="none" id="PROD_PO_INITIAL-PM2_3" style="stroke: #A80036; stroke-width: 2.0;"/><polygon fill="#A80036" points="264.5955,191.7233,270.6789,199.4688,269.0147,194.0623,274.4212,192.3981,264.5955,191.7233" style="stroke: #A80036; stroke-width: 1.0;"/><!--link META_MINUTES to PM2_3--><path d="M193.6701,253.995 C199.9604,237.4043 208.1298,215.8575 214.4051,199.3066 " fill="none" id="META_MINUTES-PM2_3" style="stroke: #A80036; stroke-width: 2.0;"/><polygon fill="#A80036" points="216.2876,194.3415,209.3568,201.3389,214.515,199.0168,216.8372,204.175,216.2876,194.3415" style="stroke: #A80036; stroke-width: 1.0;"/><!--link PROD_PP_ACCEPTED to PM2_3--><path d="M224,72.1445 C224,93.3831 224,126.1182 224,148.7173 " fill="none" id="PROD_PP_ACCEPTED-PM2_3" style="stroke: #A80036; stroke-width: 2.0;"/><polygon fill="#A80036" points="224,153.9459,228,144.9459,224,148.9459,220,144.9459,224,153.9459" style="stroke: #A80036; stroke-width: 1.0;"/><!--link PM2_3 to META_MINUTES_UPDATED--><path d="M193.0711,192.8065 C179.4945,201.7495 163.7742,213.0828 151,225 C143.0529,232.4139 135.2918,241.2939 128.5555,249.7126 " fill="none" id="PM2_3-META_MINUTES_UPDATED" style="stroke: #A80036; stroke-width: 2.0;"/><polygon fill="#A80036" points="125.3346,253.8,134.0468,249.2067,128.4293,249.8728,127.7632,244.2553,125.3346,253.8" style="stroke: #A80036; stroke-width: 1.0;"/><!--link PM2_3 to PROD_PO_APPROVED--><path d="M231.9052,194.3415 C237.9459,209.8852 246.3687,231.5585 253.2052,249.1501 " fill="none" id="PM2_3-PROD_PO_APPROVED" style="stroke: #A80036; stroke-width: 2.0;"/><polygon fill="#A80036" points="255.0881,253.995,255.5564,244.1573,253.277,249.3346,248.0997,247.0551,255.0881,253.995" style="stroke: #A80036; stroke-width: 1.0;"/><!--
@startuml



skinparam handwritten false
skinparam defaultFontName Futura


actor PJM
actor WT

artifact "Project Plan (accepted)" as PROD_PP_ACCEPTED
artifact "Meeting Minutes" {
control "initial" as META_MINUTES
control "updated" as META_MINUTES_UPDATED
}
artifact "Purchase Order" {
control "initial" as PROD_PO_INITIAL
control "approved" as PROD_PO_APPROVED
}

usecase "Conduct WT Meetings" as PM2_3
PROD_PO_INITIAL ==> PM2_3
META_MINUTES ==> PM2_3
PROD_PP_ACCEPTED ==> PM2_3
PM2_3 ==> META_MINUTES_UPDATED
PM2_3 ==> PROD_PO_APPROVED

@enduml

PlantUML version 1.2019.00(Sun Jan 13 07:46:42 PST 2019)
(GPL source distribution)
Java Runtime: Java(TM) SE Runtime Environment
JVM: Java HotSpot(TM) 64-Bit Server VM
Java Version: 10.0.1+10
Operating System: Mac OS X
OS Version: 10.14.3
Default Encoding: UTF-8
Language: en
Country: US
--></g></svg>