<svg xmlns="http://www.w3.org/2000/svg" height="329" preserveAspectRatio="none" style="width:2404px;height:329px" width="2404"><defs><filter height="300%" id="a" width="300%" x="-1" y="-1"><feGaussianBlur result="blurOut" stdDeviation="2"/><feColorMatrix in="blurOut" result="blurOut2" values="0 0 0 0 0 0 0 0 0 0 0 0 0 0 0 0 0 0 .4 0"/><feOffset dx="4" dy="4" in="blurOut2" result="blurOut3"/><feBlend in="SourceGraphic" in2="blurOut3"/></filter></defs><path fill="#FFF" filter="url(#a)" stroke="#000" stroke-width="1.5" d="M953 230h157v88H953z"/><path fill="#FFF" stroke="#000" stroke-width="1.5" d="M1093 235v14h12v-8l-6-6h-6z"/><path stroke="#000" stroke-width="1.5" d="M1099 235v6M1105 241h-6"/><text font-family="Futura" font-size="14" font-weight="bold" lengthAdjust="spacingAndGlyphs" textLength="19" x="1022" y="246.966">CR</text><circle cx="1072" cy="275" fill="#FEFECE" filter="url(#a)" stroke="#a80036" stroke-width="2" r="12"/><path fill="#A80036" stroke="#a80036" d="M1068 263l6-5-2 5 2 5-6-5z"/><text font-family="Futura" font-size="14" lengthAdjust="spacingAndGlyphs" textLength="60" x="1042" y="305.957">submitted</text><circle cx="984" cy="275" fill="#FEFECE" filter="url(#a)" stroke="#a80036" stroke-width="2" r="12"/><path fill="#A80036" stroke="#a80036" d="M980 263l6-5-2 5 2 5-6-5z"/><text font-family="Futura" font-size="14" lengthAdjust="spacingAndGlyphs" textLength="45" x="961.5" y="305.957">agreed</text><circle cx="21" cy="18" fill="#FEFECE" filter="url(#a)" stroke="#a80036" stroke-width="2" r="8"/><path d="M21 26v27M8 34h26M21 53L8 68m13-15l13 15" fill="none" filter="url(#a)" stroke="#a80036" stroke-width="2"/><text font-family="Futura" font-size="14" lengthAdjust="spacingAndGlyphs" textLength="27" x="7.5" y="89.957">PJM</text><circle cx="86" cy="18" fill="#FEFECE" filter="url(#a)" stroke="#a80036" stroke-width="2" r="8"/><path d="M86 26v27M73 34h26M86 53L73 68m13-15l13 15" fill="none" filter="url(#a)" stroke="#a80036" stroke-width="2"/><text font-family="Futura" font-size="14" lengthAdjust="spacingAndGlyphs" textLength="22" x="75" y="89.957">WT</text><path fill="#FEFECE" filter="url(#a)" stroke="#000" stroke-width="1.5" d="M136 30h104v41.594H136z"/><path fill="#FEFECE" stroke="#000" stroke-width="1.5" d="M223 35v14h12v-8l-6-6h-6z"/><path stroke="#000" stroke-width="1.5" d="M229 35v6M235 41h-6"/><text font-family="Futura" font-size="14" lengthAdjust="spacingAndGlyphs" textLength="74" x="146" y="57.957">Project Plan</text><path fill="#FEFECE" filter="url(#a)" stroke="#000" stroke-width="1.5" d="M848 263.5h78v41.594h-78z"/><path fill="#FEFECE" stroke="#000" stroke-width="1.5" d="M909 268.5v14h12v-8l-6-6h-6z"/><path stroke="#000" stroke-width="1.5" d="M915 268.5v6M921 274.5h-6"/><text font-family="Futura" font-size="14" lengthAdjust="spacingAndGlyphs" textLength="48" x="858" y="291.457">Product</text><path fill="#FEFECE" filter="url(#a)" stroke="#000" stroke-width="1.5" d="M275 30h58v41.594h-58z"/><path fill="#FEFECE" stroke="#000" stroke-width="1.5" d="M316 35v14h12v-8l-6-6h-6z"/><path stroke="#000" stroke-width="1.5" d="M322 35v6M328 41h-6"/><text font-family="Futura" font-size="14" lengthAdjust="spacingAndGlyphs" textLength="28" x="285" y="57.957">StRS</text><path fill="#FEFECE" filter="url(#a)" stroke="#000" stroke-width="1.5" d="M368 30h68v41.594h-68z"/><path fill="#FEFECE" stroke="#000" stroke-width="1.5" d="M419 35v14h12v-8l-6-6h-6z"/><path stroke="#000" stroke-width="1.5" d="M425 35v6M431 41h-6"/><text font-family="Futura" font-size="14" lengthAdjust="spacingAndGlyphs" textLength="38" x="378" y="57.957">SysRS</text><path fill="#FEFECE" filter="url(#a)" stroke="#000" stroke-width="1.5" d="M471 30h80v41.594h-80z"/><path fill="#FEFECE" stroke="#000" stroke-width="1.5" d="M534 35v14h12v-8l-6-6h-6z"/><path stroke="#000" stroke-width="1.5" d="M540 35v6M546 41h-6"/><text font-family="Futura" font-size="14" lengthAdjust="spacingAndGlyphs" textLength="50" x="481" y="57.957">Training</text><path fill="#FEFECE" filter="url(#a)" stroke="#000" stroke-width="1.5" d="M586 30h62v41.594h-62z"/><path fill="#FEFECE" stroke="#000" stroke-width="1.5" d="M631 35v14h12v-8l-6-6h-6z"/><path stroke="#000" stroke-width="1.5" d="M637 35v6M643 41h-6"/><text font-family="Futura" font-size="14" lengthAdjust="spacingAndGlyphs" textLength="32" x="596" y="57.957">SERS</text><path fill="#FEFECE" filter="url(#a)" stroke="#000" stroke-width="1.5" d="M683 30h58v41.594h-58z"/><path fill="#FEFECE" stroke="#000" stroke-width="1.5" d="M724 35v14h12v-8l-6-6h-6z"/><path stroke="#000" stroke-width="1.5" d="M730 35v6M736 41h-6"/><text font-family="Futura" font-size="14" lengthAdjust="spacingAndGlyphs" textLength="28" x="693" y="57.957">SDD</text><path fill="#FEFECE" filter="url(#a)" stroke="#000" stroke-width="1.5" d="M776.5 30h75v41.594h-75z"/><path fill="#FEFECE" stroke="#000" stroke-width="1.5" d="M834.5 35v14h12v-8l-6-6h-6z"/><path stroke="#000" stroke-width="1.5" d="M840.5 35v6M846.5 41h-6"/><text font-family="Futura" font-size="14" lengthAdjust="spacingAndGlyphs" textLength="45" x="786.5" y="57.957">System</text><path fill="#FEFECE" filter="url(#a)" stroke="#000" stroke-width="1.5" d="M886.5 30h195v41.594h-195z"/><path fill="#FEFECE" stroke="#000" stroke-width="1.5" d="M1064.5 35v14h12v-8l-6-6h-6z"/><path stroke="#000" stroke-width="1.5" d="M1070.5 35v6M1076.5 41h-6"/><text font-family="Futura" font-size="14" lengthAdjust="spacingAndGlyphs" textLength="165" x="896.5" y="57.957">Software System Elements</text><path fill="#FEFECE" filter="url(#a)" stroke="#000" stroke-width="1.5" d="M1117 30h206v41.594h-206z"/><path fill="#FEFECE" stroke="#000" stroke-width="1.5" d="M1306 35v14h12v-8l-6-6h-6z"/><path stroke="#000" stroke-width="1.5" d="M1312 35v6M1318 41h-6"/><text font-family="Futura" font-size="14" lengthAdjust="spacingAndGlyphs" textLength="176" x="1127" y="57.957">System Elements (HW+SW)</text><path fill="#FEFECE" filter="url(#a)" stroke="#000" stroke-width="1.5" d="M1358.5 30h193v41.594h-193z"/><path fill="#FEFECE" stroke="#000" stroke-width="1.5" d="M1534.5 35v14h12v-8l-6-6h-6z"/><path stroke="#000" stroke-width="1.5" d="M1540.5 35v6M1546.5 41h-6"/><text font-family="Futura" font-size="14" lengthAdjust="spacingAndGlyphs" textLength="163" x="1368.5" y="57.957">System Operations Guide</text><path fill="#FEFECE" filter="url(#a)" stroke="#000" stroke-width="1.5" d="M1586.5 30h111v41.594h-111z"/><path fill="#FEFECE" stroke="#000" stroke-width="1.5" d="M1680.5 35v14h12v-8l-6-6h-6z"/><path stroke="#000" stroke-width="1.5" d="M1686.5 35v6M1692.5 41h-6"/><text font-family="Futura" font-size="14" lengthAdjust="spacingAndGlyphs" textLength="81" x="1596.5" y="57.957">User Manual</text><path fill="#FEFECE" filter="url(#a)" stroke="#000" stroke-width="1.5" d="M1732.5 30h83v41.594h-83z"/><path fill="#FEFECE" stroke="#000" stroke-width="1.5" d="M1798.5 35v14h12v-8l-6-6h-6z"/><path stroke="#000" stroke-width="1.5" d="M1804.5 35v6M1810.5 41h-6"/><text font-family="Futura" font-size="14" lengthAdjust="spacingAndGlyphs" textLength="53" x="1742.5" y="57.957">IVV Plan</text><path fill="#FEFECE" filter="url(#a)" stroke="#000" stroke-width="1.5" d="M1850.5 30h127v41.594h-127z"/><path fill="#FEFECE" stroke="#000" stroke-width="1.5" d="M1960.5 35v14h12v-8l-6-6h-6z"/><path stroke="#000" stroke-width="1.5" d="M1966.5 35v6M1972.5 41h-6"/><text font-family="Futura" font-size="14" lengthAdjust="spacingAndGlyphs" textLength="97" x="1860.5" y="57.957">IVV Procedures</text><path fill="#FEFECE" filter="url(#a)" stroke="#000" stroke-width="1.5" d="M2012.5 30h165v41.594h-165z"/><path fill="#FEFECE" stroke="#000" stroke-width="1.5" d="M2160.5 35v14h12v-8l-6-6h-6z"/><path stroke="#000" stroke-width="1.5" d="M2166.5 35v6M2172.5 41h-6"/><text font-family="Futura" font-size="14" lengthAdjust="spacingAndGlyphs" textLength="135" x="2022.5" y="57.957">Maintenance Manual</text><path fill="#FEFECE" filter="url(#a)" stroke="#000" stroke-width="1.5" d="M2213 30h174v41.594h-174z"/><path fill="#FEFECE" stroke="#000" stroke-width="1.5" d="M2370 35v14h12v-8l-6-6h-6z"/><path stroke="#000" stroke-width="1.5" d="M2376 35v6M2382 41h-6"/><text font-family="Futura" font-size="14" lengthAdjust="spacingAndGlyphs" textLength="144" x="2223" y="57.957">Progress Status Record</text><ellipse cx="984.199" cy="176.64" fill="#FEFECE" filter="url(#a)" rx="101.199" ry="22.64" stroke="#a80036" stroke-width="1.5"/><text font-family="Futura" font-size="14" lengthAdjust="spacingAndGlyphs" textLength="173" x="897.699" y="182.437">Configuration Management</text><path d="M215.422 72.022C227.536 80.236 242.337 88.893 257 94c112.699 39.251 451.608 65.328 623.95 76.424" fill="none" stroke="#a80036" stroke-width="2"/><path fill="#A80036" stroke="#a80036" d="M886 170.748l-8.725-4.568 3.736 4.248-4.248 3.736 9.238-3.416z"/><path d="M321.206 72.001C329.1 80.212 339.123 88.872 350 94c91.81 43.284 376.022 66.83 530.87 76.748" fill="none" stroke="#a80036" stroke-width="2"/><path fill="#A80036" stroke="#a80036" d="M885.868 171.066l-8.727-4.564 3.737 4.246-4.246 3.738 9.236-3.42z"/><path d="M422.014 72.3C430.761 80.353 441.617 88.816 453 94c75.182 34.236 300.465 60.586 432.193 73.577" fill="none" stroke="#a80036" stroke-width="2"/><path fill="#A80036" stroke="#a80036" d="M890.228 168.071l-8.566-4.86 3.59 4.371-4.372 3.59 9.348-3.101z"/><path d="M636.36 72.22C644.52 80.066 654.545 88.4 665 94c70.89 37.976 160.126 59.122 226.177 70.47" fill="none" stroke="#a80036" stroke-width="2"/><path fill="#A80036" stroke="#a80036" d="M896.291 165.338l-8.204-5.448 3.275 4.612-4.613 3.275 9.542-2.44z"/><path d="M731.637 72.157C739.572 79.808 749.172 88.025 759 94c47.851 29.09 107.582 50.396 153.473 64.062" fill="none" stroke="#a80036" stroke-width="2"/><path fill="#A80036" stroke="#a80036" d="M917.433 159.525l-7.5-6.383 2.704 4.968-4.968 2.705 9.764-1.29z"/><path d="M840.405 72c9.01 7.07 19.186 14.951 28.595 22 26.474 19.832 56.906 41.62 79.812 57.823" fill="none" stroke="#a80036" stroke-width="2"/><path fill="#A80036" stroke="#a80036" d="M952.999 154.781l-5.042-8.46.959 5.575-5.576.958 9.659 1.927z"/><path d="M1180.499 72.006l-152.835 81.274" fill="none" stroke="#a80036" stroke-width="2"/><path fill="#A80036" stroke="#a80036" d="M1023.237 155.635l9.824-.694-5.41-1.654 1.654-5.41-6.068 7.758z"/><path d="M984 72.006v76.633" fill="none" stroke="#a80036" stroke-width="2"/><path fill="#A80036" stroke="#a80036" d="M984 153.725l4-9-4 4-4-4 4 9z"/><path d="M1750.997 72.072C1740.714 80.294 1727.993 88.944 1715 94c-111.82 43.511-453.295 67.595-627.066 77.329" fill="none" stroke="#a80036" stroke-width="2"/><path fill="#A80036" stroke="#a80036" d="M1082.843 171.613l9.208 3.492-4.216-3.77 3.77-4.218-8.762 4.496z"/><path d="M1881.377 72.079C1867.083 80.302 1849.77 88.95 1833 94c-136.866 41.208-550.065 67.18-745.033 77.462" fill="none" stroke="#a80036" stroke-width="2"/><path fill="#A80036" stroke="#a80036" d="M1082.832 171.732l9.198 3.522-4.205-3.785 3.785-4.204-8.778 4.467z"/><path d="M1403.575 72.065C1384.162 79.575 1361.752 87.72 1341 94c-92.903 28.118-201.889 52.027-274.78 66.755" fill="none" stroke="#a80036" stroke-width="2"/><path fill="#A80036" stroke="#a80036" d="M1061.035 161.799l9.613 2.144-4.711-3.131 3.131-4.712-8.033 5.699z"/><path d="M1612.404 72.02C1599.616 80.13 1584.135 88.71 1569 94c-87.676 30.641-344.071 59.217-486.593 73.315" fill="none" stroke="#a80036" stroke-width="2"/><path fill="#A80036" stroke="#a80036" d="M1077.386 167.81l9.349 3.098-4.374-3.588 3.588-4.374-8.563 4.865z"/><path d="M2054.207 72.11C2036.473 80.338 2015.173 88.983 1995 94c-169.563 42.171-683.715 68.535-906.36 78.259" fill="none" stroke="#a80036" stroke-width="2"/><path fill="#A80036" stroke="#a80036" d="M1083.435 172.485l9.166 3.605-4.17-3.822 3.822-4.17-8.818 4.387z"/><path d="M533.874 72.012C543.728 80.02 555.782 88.528 568 94c101.3 45.364 227.546 65.91 314.233 75.135" fill="none" stroke="#a80036" stroke-width="2"/><path fill="#A80036" stroke="#a80036" d="M887.366 169.673l-8.534-4.917 3.561 4.396-4.395 3.56 9.368-3.039z"/><path d="M984 258.86v-54.648" fill="none" stroke="#a80036" stroke-width="2"/><path fill="#A80036" stroke="#a80036" d="M984 199.14l-4 9 4-4 4 4-4-9z"/><path d="M2257.347 72.106C2238.663 80.388 2216.202 89.073 2195 94c-208.826 48.533-850.733 72.035-1105.352 79.635" fill="none" stroke="#a80036" stroke-width="2"/><path fill="#A80036" stroke="#a80036" d="M1084.446 173.79l9.115 3.73-4.117-3.879 3.879-4.117-8.877 4.266z"/><path d="M964.136 198.616l-54.319 60.48" fill="none" stroke="#a80036" stroke-width="2"/><path fill="#A80036" stroke="#a80036" d="M906.176 263.15l8.99-4.023-5.65.303-.302-5.65-3.038 9.37z"/><path d="M1002.234 198.878l45.571 55.929" fill="none" stroke="#a80036" stroke-width="2"/><path fill="#A80036" stroke="#a80036" d="M1051.007 258.736l-2.584-9.503-.574 5.627-5.628-.574 8.786 4.45z"/></svg>