<?xml version="1.0" encoding="UTF-8" standalone="no"?><svg xmlns="http://www.w3.org/2000/svg" xmlns:xlink="http://www.w3.org/1999/xlink" contentScriptType="application/ecmascript" contentStyleType="text/css" height="691px" preserveAspectRatio="none" style="width:2540px;height:691px;" version="1.1" viewBox="0 0 2540 691" width="2540px" zoomAndPan="magnify"><defs><filter height="300%" id="fxmnot4e43vc5" width="300%" x="-1" y="-1"><feGaussianBlur result="blurOut" stdDeviation="2.0"/><feColorMatrix in="blurOut" result="blurOut2" type="matrix" values="0 0 0 0 0 0 0 0 0 0 0 0 0 0 0 0 0 0 .4 0"/><feOffset dx="4.0" dy="4.0" in="blurOut2" result="blurOut3"/><feBlend in="SourceGraphic" in2="blurOut3" mode="normal"/></filter></defs><g><!--cluster Project Repository--><rect fill="#FFFFFF" filter="url(#fxmnot4e43vc5)" height="88" style="stroke: #000000; stroke-width: 1.5;" width="240" x="1406.5" y="504"/><polygon fill="#FFFFFF" points="1629.5,509,1629.5,523,1641.5,523,1641.5,515,1635.5,509,1629.5,509" style="stroke: #000000; stroke-width: 1.5;"/><line style="stroke: #000000; stroke-width: 1.5;" x1="1635.5" x2="1635.5" y1="509" y2="515"/><line style="stroke: #000000; stroke-width: 1.5;" x1="1641.5" x2="1635.5" y1="515" y2="515"/><text fill="#000000" font-family="Futura" font-size="14" font-weight="bold" lengthAdjust="spacingAndGlyphs" textLength="138" x="1457.5" y="520.966">Project Repository</text><!--cluster Project Plan--><rect fill="#FFFFFF" filter="url(#fxmnot4e43vc5)" height="88" style="stroke: #000000; stroke-width: 1.5;" width="228" x="2067.5" y="16.5"/><polygon fill="#FFFFFF" points="2278.5,21.5,2278.5,35.5,2290.5,35.5,2290.5,27.5,2284.5,21.5,2278.5,21.5" style="stroke: #000000; stroke-width: 1.5;"/><line style="stroke: #000000; stroke-width: 1.5;" x1="2284.5" x2="2284.5" y1="21.5" y2="27.5"/><line style="stroke: #000000; stroke-width: 1.5;" x1="2290.5" x2="2284.5" y1="27.5" y2="27.5"/><text fill="#000000" font-family="Futura" font-size="14" font-weight="bold" lengthAdjust="spacingAndGlyphs" textLength="88" x="2137.5" y="33.466">Project Plan</text><!--cluster CR--><rect fill="#FFFFFF" filter="url(#fxmnot4e43vc5)" height="88" style="stroke: #000000; stroke-width: 1.5;" width="254" x="1707.5" y="291"/><polygon fill="#FFFFFF" points="1944.5,296,1944.5,310,1956.5,310,1956.5,302,1950.5,296,1944.5,296" style="stroke: #000000; stroke-width: 1.5;"/><line style="stroke: #000000; stroke-width: 1.5;" x1="1950.5" x2="1950.5" y1="296" y2="302"/><line style="stroke: #000000; stroke-width: 1.5;" x1="1956.5" x2="1950.5" y1="302" y2="302"/><text fill="#000000" font-family="Futura" font-size="14" font-weight="bold" lengthAdjust="spacingAndGlyphs" textLength="19" x="1825" y="307.966">CR</text><!--cluster Meeting Minutes--><rect fill="#FFFFFF" filter="url(#fxmnot4e43vc5)" height="88" style="stroke: #000000; stroke-width: 1.5;" width="138" x="2025.5" y="291"/><polygon fill="#FFFFFF" points="2146.5,296,2146.5,310,2158.5,310,2158.5,302,2152.5,296,2146.5,296" style="stroke: #000000; stroke-width: 1.5;"/><line style="stroke: #000000; stroke-width: 1.5;" x1="2152.5" x2="2152.5" y1="296" y2="302"/><line style="stroke: #000000; stroke-width: 1.5;" x1="2158.5" x2="2152.5" y1="302" y2="302"/><text fill="#000000" font-family="Futura" font-size="14" font-weight="bold" lengthAdjust="spacingAndGlyphs" textLength="122" x="2033.5" y="307.966">Meeting Minutes</text><!--cluster Progress Status Record--><rect fill="#FFFFFF" filter="url(#fxmnot4e43vc5)" height="88" style="stroke: #000000; stroke-width: 1.5;" width="190" x="2308.5" y="16.5"/><polygon fill="#FFFFFF" points="2481.5,21.5,2481.5,35.5,2493.5,35.5,2493.5,27.5,2487.5,21.5,2481.5,21.5" style="stroke: #000000; stroke-width: 1.5;"/><line style="stroke: #000000; stroke-width: 1.5;" x1="2487.5" x2="2487.5" y1="21.5" y2="27.5"/><line style="stroke: #000000; stroke-width: 1.5;" x1="2493.5" x2="2487.5" y1="27.5" y2="27.5"/><text fill="#000000" font-family="Futura" font-size="14" font-weight="bold" lengthAdjust="spacingAndGlyphs" textLength="174" x="2316.5" y="33.466">Progress Status Record</text><!--cluster Purchase Order--><rect fill="#FFFFFF" filter="url(#fxmnot4e43vc5)" height="88" style="stroke: #000000; stroke-width: 1.5;" width="143" x="2207.5" y="291"/><polygon fill="#FFFFFF" points="2333.5,296,2333.5,310,2345.5,310,2345.5,302,2339.5,296,2333.5,296" style="stroke: #000000; stroke-width: 1.5;"/><line style="stroke: #000000; stroke-width: 1.5;" x1="2339.5" x2="2339.5" y1="296" y2="302"/><line style="stroke: #000000; stroke-width: 1.5;" x1="2345.5" x2="2339.5" y1="302" y2="302"/><text fill="#000000" font-family="Futura" font-size="14" font-weight="bold" lengthAdjust="spacingAndGlyphs" textLength="118" x="2220" y="307.966">Purchase Order</text><!--entity PROD_REPO--><ellipse cx="1619.5" cy="549" fill="#FEFECE" filter="url(#fxmnot4e43vc5)" rx="12" ry="12" style="stroke: #A80036; stroke-width: 2.0;"/><polygon fill="#A80036" points="1615.5,537,1621.5,532,1619.5,537,1621.5,542,1615.5,537" style="stroke: #A80036; stroke-width: 1.0;"/><text fill="#000000" font-family="Futura" font-size="14" lengthAdjust="spacingAndGlyphs" textLength="37" x="1601" y="579.957">active</text><!--entity PROD_REPO_RECOVERED--><ellipse cx="1533.5" cy="549" fill="#FEFECE" filter="url(#fxmnot4e43vc5)" rx="12" ry="12" style="stroke: #A80036; stroke-width: 2.0;"/><polygon fill="#A80036" points="1529.5,537,1535.5,532,1533.5,537,1535.5,542,1529.5,537" style="stroke: #A80036; stroke-width: 1.0;"/><text fill="#000000" font-family="Futura" font-size="14" lengthAdjust="spacingAndGlyphs" textLength="64" x="1501.5" y="579.957">recovered</text><!--entity PROD_REPO_UPDATED--><ellipse cx="1440.5" cy="549" fill="#FEFECE" filter="url(#fxmnot4e43vc5)" rx="12" ry="12" style="stroke: #A80036; stroke-width: 2.0;"/><polygon fill="#A80036" points="1436.5,537,1442.5,532,1440.5,537,1442.5,542,1436.5,537" style="stroke: #A80036; stroke-width: 1.0;"/><text fill="#000000" font-family="Futura" font-size="14" lengthAdjust="spacingAndGlyphs" textLength="52" x="1414.5" y="579.957">updated</text><!--entity PROD_PP--><ellipse cx="2091.5" cy="61.5" fill="#FEFECE" filter="url(#fxmnot4e43vc5)" rx="12" ry="12" style="stroke: #A80036; stroke-width: 2.0;"/><polygon fill="#A80036" points="2087.5,49.5,2093.5,44.5,2091.5,49.5,2093.5,54.5,2087.5,49.5" style="stroke: #A80036; stroke-width: 1.0;"/><text fill="#000000" font-family="Futura" font-size="14" lengthAdjust="spacingAndGlyphs" textLength="32" x="2075.5" y="92.457">initial</text><!--entity PROD_PP_ACCEPTED--><ellipse cx="2258.5" cy="61.5" fill="#FEFECE" filter="url(#fxmnot4e43vc5)" rx="12" ry="12" style="stroke: #A80036; stroke-width: 2.0;"/><polygon fill="#A80036" points="2254.5,49.5,2260.5,44.5,2258.5,49.5,2260.5,54.5,2254.5,49.5" style="stroke: #A80036; stroke-width: 1.0;"/><text fill="#000000" font-family="Futura" font-size="14" lengthAdjust="spacingAndGlyphs" textLength="58" x="2229.5" y="92.457">accepted</text><!--entity PROD_PP_UPDATED--><ellipse cx="2168.5" cy="61.5" fill="#FEFECE" filter="url(#fxmnot4e43vc5)" rx="12" ry="12" style="stroke: #A80036; stroke-width: 2.0;"/><polygon fill="#A80036" points="2164.5,49.5,2170.5,44.5,2168.5,49.5,2170.5,54.5,2164.5,49.5" style="stroke: #A80036; stroke-width: 1.0;"/><text fill="#000000" font-family="Futura" font-size="14" lengthAdjust="spacingAndGlyphs" textLength="52" x="2142.5" y="92.457">updated</text><!--entity META_CR_SUBMITTED--><ellipse cx="1745.5" cy="336" fill="#FEFECE" filter="url(#fxmnot4e43vc5)" rx="12" ry="12" style="stroke: #A80036; stroke-width: 2.0;"/><polygon fill="#A80036" points="1741.5,324,1747.5,319,1745.5,324,1747.5,329,1741.5,324" style="stroke: #A80036; stroke-width: 1.0;"/><text fill="#000000" font-family="Futura" font-size="14" lengthAdjust="spacingAndGlyphs" textLength="60" x="1715.5" y="366.957">submitted</text><!--entity META_CR_EVALUATED--><ellipse cx="1922.5" cy="336" fill="#FEFECE" filter="url(#fxmnot4e43vc5)" rx="12" ry="12" style="stroke: #A80036; stroke-width: 2.0;"/><polygon fill="#A80036" points="1918.5,324,1924.5,319,1922.5,324,1924.5,329,1918.5,324" style="stroke: #A80036; stroke-width: 1.0;"/><text fill="#000000" font-family="Futura" font-size="14" lengthAdjust="spacingAndGlyphs" textLength="62" x="1891.5" y="366.957">evaluated</text><!--entity META_CR_AGREED--><ellipse cx="1833.5" cy="336" fill="#FEFECE" filter="url(#fxmnot4e43vc5)" rx="12" ry="12" style="stroke: #A80036; stroke-width: 2.0;"/><polygon fill="#A80036" points="1829.5,324,1835.5,319,1833.5,324,1835.5,329,1829.5,324" style="stroke: #A80036; stroke-width: 1.0;"/><text fill="#000000" font-family="Futura" font-size="14" lengthAdjust="spacingAndGlyphs" textLength="45" x="1811" y="366.957">agreed</text><!--entity META_MINUTES--><ellipse cx="2138.5" cy="336" fill="#FEFECE" filter="url(#fxmnot4e43vc5)" rx="12" ry="12" style="stroke: #A80036; stroke-width: 2.0;"/><polygon fill="#A80036" points="2134.5,324,2140.5,319,2138.5,324,2140.5,329,2134.5,324" style="stroke: #A80036; stroke-width: 1.0;"/><text fill="#000000" font-family="Futura" font-size="14" lengthAdjust="spacingAndGlyphs" textLength="32" x="2122.5" y="366.957">initial</text><!--entity META_MINUTES_UPDATED--><ellipse cx="2060.5" cy="336" fill="#FEFECE" filter="url(#fxmnot4e43vc5)" rx="12" ry="12" style="stroke: #A80036; stroke-width: 2.0;"/><polygon fill="#A80036" points="2056.5,324,2062.5,319,2060.5,324,2062.5,329,2056.5,324" style="stroke: #A80036; stroke-width: 1.0;"/><text fill="#000000" font-family="Futura" font-size="14" lengthAdjust="spacingAndGlyphs" textLength="52" x="2034.5" y="366.957">updated</text><!--entity META_PROGRESS--><ellipse cx="2445.5" cy="61.5" fill="#FEFECE" filter="url(#fxmnot4e43vc5)" rx="12" ry="12" style="stroke: #A80036; stroke-width: 2.0;"/><polygon fill="#A80036" points="2441.5,49.5,2447.5,44.5,2445.5,49.5,2447.5,54.5,2441.5,49.5" style="stroke: #A80036; stroke-width: 1.0;"/><text fill="#000000" font-family="Futura" font-size="14" lengthAdjust="spacingAndGlyphs" textLength="32" x="2429.5" y="92.457">initial</text><!--entity META_PROGRESS_EVALUATED--><ellipse cx="2353.5" cy="61.5" fill="#FEFECE" filter="url(#fxmnot4e43vc5)" rx="12" ry="12" style="stroke: #A80036; stroke-width: 2.0;"/><polygon fill="#A80036" points="2349.5,49.5,2355.5,44.5,2353.5,49.5,2355.5,54.5,2349.5,49.5" style="stroke: #A80036; stroke-width: 1.0;"/><text fill="#000000" font-family="Futura" font-size="14" lengthAdjust="spacingAndGlyphs" textLength="62" x="2322.5" y="92.457">evaluated</text><!--entity PROD_PO_INITIAL--><ellipse cx="2326.5" cy="336" fill="#FEFECE" filter="url(#fxmnot4e43vc5)" rx="12" ry="12" style="stroke: #A80036; stroke-width: 2.0;"/><polygon fill="#A80036" points="2322.5,324,2328.5,319,2326.5,324,2328.5,329,2322.5,324" style="stroke: #A80036; stroke-width: 1.0;"/><text fill="#000000" font-family="Futura" font-size="14" lengthAdjust="spacingAndGlyphs" textLength="32" x="2310.5" y="366.957">initial</text><!--entity PROD_PO_APPROVED--><ellipse cx="2245.5" cy="336" fill="#FEFECE" filter="url(#fxmnot4e43vc5)" rx="12" ry="12" style="stroke: #A80036; stroke-width: 2.0;"/><polygon fill="#A80036" points="2241.5,324,2247.5,319,2245.5,324,2247.5,329,2241.5,324" style="stroke: #A80036; stroke-width: 1.0;"/><text fill="#000000" font-family="Futura" font-size="14" lengthAdjust="spacingAndGlyphs" textLength="60" x="2215.5" y="366.957">approved</text><!--entity PJM--><ellipse cx="22.5" cy="38" fill="#FEFECE" filter="url(#fxmnot4e43vc5)" rx="8" ry="8" style="stroke: #A80036; stroke-width: 2.0;"/><path d="M22.5,46 L22.5,73 M9.5,54 L35.5,54 M22.5,73 L9.5,88 M22.5,73 L35.5,88 " fill="none" filter="url(#fxmnot4e43vc5)" style="stroke: #A80036; stroke-width: 2.0;"/><text fill="#000000" font-family="Futura" font-size="14" lengthAdjust="spacingAndGlyphs" textLength="27" x="9" y="109.957">PJM</text><!--entity WT--><ellipse cx="87.5" cy="38" fill="#FEFECE" filter="url(#fxmnot4e43vc5)" rx="8" ry="8" style="stroke: #A80036; stroke-width: 2.0;"/><path d="M87.5,46 L87.5,73 M74.5,54 L100.5,54 M87.5,73 L74.5,88 M87.5,73 L100.5,88 " fill="none" filter="url(#fxmnot4e43vc5)" style="stroke: #A80036; stroke-width: 2.0;"/><text fill="#000000" font-family="Futura" font-size="14" lengthAdjust="spacingAndGlyphs" textLength="22" x="76.5" y="109.957">WT</text><!--entity ACQ--><ellipse cx="22.5" cy="184" fill="#FEFECE" filter="url(#fxmnot4e43vc5)" rx="8" ry="8" style="stroke: #A80036; stroke-width: 2.0;"/><path d="M22.5,192 L22.5,219 M9.5,200 L35.5,200 M22.5,219 L9.5,234 M22.5,219 L35.5,234 " fill="none" filter="url(#fxmnot4e43vc5)" style="stroke: #A80036; stroke-width: 2.0;"/><text fill="#000000" font-family="Futura" font-size="14" lengthAdjust="spacingAndGlyphs" textLength="33" x="6" y="255.957">ACQ</text><!--entity STK--><ellipse cx="89.5" cy="184" fill="#FEFECE" filter="url(#fxmnot4e43vc5)" rx="8" ry="8" style="stroke: #A80036; stroke-width: 2.0;"/><path d="M89.5,192 L89.5,219 M76.5,200 L102.5,200 M89.5,219 L76.5,234 M89.5,219 L102.5,234 " fill="none" filter="url(#fxmnot4e43vc5)" style="stroke: #A80036; stroke-width: 2.0;"/><text fill="#000000" font-family="Futura" font-size="14" lengthAdjust="spacingAndGlyphs" textLength="24" x="77.5" y="255.957">STK</text><!--entity PROD_REPO_BACKUP--><rect fill="#FEFECE" filter="url(#fxmnot4e43vc5)" height="41.5938" style="stroke: #000000; stroke-width: 1.5;" width="193" x="1186" y="537.5"/><polygon fill="#FEFECE" points="1362,542.5,1362,556.5,1374,556.5,1374,548.5,1368,542.5,1362,542.5" style="stroke: #000000; stroke-width: 1.5;"/><line style="stroke: #000000; stroke-width: 1.5;" x1="1368" x2="1368" y1="542.5" y2="548.5"/><line style="stroke: #000000; stroke-width: 1.5;" x1="1374" x2="1368" y1="548.5" y2="548.5"/><text fill="#000000" font-family="Futura" font-size="14" lengthAdjust="spacingAndGlyphs" textLength="163" x="1196" y="565.457">Project Repository Backup</text><!--entity PROD_PRODUCT--><rect fill="#FEFECE" filter="url(#fxmnot4e43vc5)" height="41.5938" style="stroke: #000000; stroke-width: 1.5;" width="78" x="1363.5" y="324.5"/><polygon fill="#FEFECE" points="1424.5,329.5,1424.5,343.5,1436.5,343.5,1436.5,335.5,1430.5,329.5,1424.5,329.5" style="stroke: #000000; stroke-width: 1.5;"/><line style="stroke: #000000; stroke-width: 1.5;" x1="1430.5" x2="1430.5" y1="329.5" y2="335.5"/><line style="stroke: #000000; stroke-width: 1.5;" x1="1436.5" x2="1430.5" y1="335.5" y2="335.5"/><text fill="#000000" font-family="Futura" font-size="14" lengthAdjust="spacingAndGlyphs" textLength="48" x="1373.5" y="352.457">Product</text><!--entity PROD_STRS--><rect fill="#FEFECE" filter="url(#fxmnot4e43vc5)" height="41.5938" style="stroke: #000000; stroke-width: 1.5;" width="58" x="452.5" y="50"/><polygon fill="#FEFECE" points="493.5,55,493.5,69,505.5,69,505.5,61,499.5,55,493.5,55" style="stroke: #000000; stroke-width: 1.5;"/><line style="stroke: #000000; stroke-width: 1.5;" x1="499.5" x2="499.5" y1="55" y2="61"/><line style="stroke: #000000; stroke-width: 1.5;" x1="505.5" x2="499.5" y1="61" y2="61"/><text fill="#000000" font-family="Futura" font-size="14" lengthAdjust="spacingAndGlyphs" textLength="28" x="462.5" y="77.957">StRS</text><!--entity PROD_SYSRS--><rect fill="#FEFECE" filter="url(#fxmnot4e43vc5)" height="41.5938" style="stroke: #000000; stroke-width: 1.5;" width="68" x="137.5" y="50"/><polygon fill="#FEFECE" points="188.5,55,188.5,69,200.5,69,200.5,61,194.5,55,188.5,55" style="stroke: #000000; stroke-width: 1.5;"/><line style="stroke: #000000; stroke-width: 1.5;" x1="194.5" x2="194.5" y1="55" y2="61"/><line style="stroke: #000000; stroke-width: 1.5;" x1="200.5" x2="194.5" y1="61" y2="61"/><text fill="#000000" font-family="Futura" font-size="14" lengthAdjust="spacingAndGlyphs" textLength="38" x="147.5" y="77.957">SysRS</text><!--entity PROD_TRAINING--><rect fill="#FEFECE" filter="url(#fxmnot4e43vc5)" height="41.5938" style="stroke: #000000; stroke-width: 1.5;" width="80" x="240.5" y="50"/><polygon fill="#FEFECE" points="303.5,55,303.5,69,315.5,69,315.5,61,309.5,55,303.5,55" style="stroke: #000000; stroke-width: 1.5;"/><line style="stroke: #000000; stroke-width: 1.5;" x1="309.5" x2="309.5" y1="55" y2="61"/><line style="stroke: #000000; stroke-width: 1.5;" x1="315.5" x2="309.5" y1="61" y2="61"/><text fill="#000000" font-family="Futura" font-size="14" lengthAdjust="spacingAndGlyphs" textLength="50" x="250.5" y="77.957">Training</text><!--entity PROD_SERS--><rect fill="#FEFECE" filter="url(#fxmnot4e43vc5)" height="41.5938" style="stroke: #000000; stroke-width: 1.5;" width="62" x="355.5" y="50"/><polygon fill="#FEFECE" points="400.5,55,400.5,69,412.5,69,412.5,61,406.5,55,400.5,55" style="stroke: #000000; stroke-width: 1.5;"/><line style="stroke: #000000; stroke-width: 1.5;" x1="406.5" x2="406.5" y1="55" y2="61"/><line style="stroke: #000000; stroke-width: 1.5;" x1="412.5" x2="406.5" y1="61" y2="61"/><text fill="#000000" font-family="Futura" font-size="14" lengthAdjust="spacingAndGlyphs" textLength="32" x="365.5" y="77.957">SERS</text><!--entity PROD_SDD--><rect fill="#FEFECE" filter="url(#fxmnot4e43vc5)" height="41.5938" style="stroke: #000000; stroke-width: 1.5;" width="58" x="1400.5" y="50"/><polygon fill="#FEFECE" points="1441.5,55,1441.5,69,1453.5,69,1453.5,61,1447.5,55,1441.5,55" style="stroke: #000000; stroke-width: 1.5;"/><line style="stroke: #000000; stroke-width: 1.5;" x1="1447.5" x2="1447.5" y1="55" y2="61"/><line style="stroke: #000000; stroke-width: 1.5;" x1="1453.5" x2="1447.5" y1="61" y2="61"/><text fill="#000000" font-family="Futura" font-size="14" lengthAdjust="spacingAndGlyphs" textLength="28" x="1410.5" y="77.957">SDD</text><!--entity PROD_SYSTEM--><rect fill="#FEFECE" filter="url(#fxmnot4e43vc5)" height="41.5938" style="stroke: #000000; stroke-width: 1.5;" width="75" x="1494" y="50"/><polygon fill="#FEFECE" points="1552,55,1552,69,1564,69,1564,61,1558,55,1552,55" style="stroke: #000000; stroke-width: 1.5;"/><line style="stroke: #000000; stroke-width: 1.5;" x1="1558" x2="1558" y1="55" y2="61"/><line style="stroke: #000000; stroke-width: 1.5;" x1="1564" x2="1558" y1="61" y2="61"/><text fill="#000000" font-family="Futura" font-size="14" lengthAdjust="spacingAndGlyphs" textLength="45" x="1504" y="77.957">System</text><!--entity PROD_SE_SW--><rect fill="#FEFECE" filter="url(#fxmnot4e43vc5)" height="41.5938" style="stroke: #000000; stroke-width: 1.5;" width="195" x="1604" y="50"/><polygon fill="#FEFECE" points="1782,55,1782,69,1794,69,1794,61,1788,55,1782,55" style="stroke: #000000; stroke-width: 1.5;"/><line style="stroke: #000000; stroke-width: 1.5;" x1="1788" x2="1788" y1="55" y2="61"/><line style="stroke: #000000; stroke-width: 1.5;" x1="1794" x2="1788" y1="61" y2="61"/><text fill="#000000" font-family="Futura" font-size="14" lengthAdjust="spacingAndGlyphs" textLength="165" x="1614" y="77.957">Software System Elements</text><!--entity PROD_SE_SWHW--><rect fill="#FEFECE" filter="url(#fxmnot4e43vc5)" height="41.5938" style="stroke: #000000; stroke-width: 1.5;" width="206" x="1834.5" y="50"/><polygon fill="#FEFECE" points="2023.5,55,2023.5,69,2035.5,69,2035.5,61,2029.5,55,2023.5,55" style="stroke: #000000; stroke-width: 1.5;"/><line style="stroke: #000000; stroke-width: 1.5;" x1="2029.5" x2="2029.5" y1="55" y2="61"/><line style="stroke: #000000; stroke-width: 1.5;" x1="2035.5" x2="2029.5" y1="61" y2="61"/><text fill="#000000" font-family="Futura" font-size="14" lengthAdjust="spacingAndGlyphs" textLength="176" x="1844.5" y="77.957">System Elements (HW+SW)</text><!--entity PROD_SYSOP_GUIDE--><rect fill="#FEFECE" filter="url(#fxmnot4e43vc5)" height="41.5938" style="stroke: #000000; stroke-width: 1.5;" width="193" x="664" y="50"/><polygon fill="#FEFECE" points="840,55,840,69,852,69,852,61,846,55,840,55" style="stroke: #000000; stroke-width: 1.5;"/><line style="stroke: #000000; stroke-width: 1.5;" x1="846" x2="846" y1="55" y2="61"/><line style="stroke: #000000; stroke-width: 1.5;" x1="852" x2="846" y1="61" y2="61"/><text fill="#000000" font-family="Futura" font-size="14" lengthAdjust="spacingAndGlyphs" textLength="163" x="674" y="77.957">System Operations Guide</text><!--entity PROD_USER_MANUAL--><rect fill="#FEFECE" filter="url(#fxmnot4e43vc5)" height="41.5938" style="stroke: #000000; stroke-width: 1.5;" width="111" x="1092" y="50"/><polygon fill="#FEFECE" points="1186,55,1186,69,1198,69,1198,61,1192,55,1186,55" style="stroke: #000000; stroke-width: 1.5;"/><line style="stroke: #000000; stroke-width: 1.5;" x1="1192" x2="1192" y1="55" y2="61"/><line style="stroke: #000000; stroke-width: 1.5;" x1="1198" x2="1192" y1="61" y2="61"/><text fill="#000000" font-family="Futura" font-size="14" lengthAdjust="spacingAndGlyphs" textLength="81" x="1102" y="77.957">User Manual</text><!--entity PROD_IVV_PLAN--><rect fill="#FEFECE" filter="url(#fxmnot4e43vc5)" height="41.5938" style="stroke: #000000; stroke-width: 1.5;" width="83" x="546" y="50"/><polygon fill="#FEFECE" points="612,55,612,69,624,69,624,61,618,55,612,55" style="stroke: #000000; stroke-width: 1.5;"/><line style="stroke: #000000; stroke-width: 1.5;" x1="618" x2="618" y1="55" y2="61"/><line style="stroke: #000000; stroke-width: 1.5;" x1="624" x2="618" y1="61" y2="61"/><text fill="#000000" font-family="Futura" font-size="14" lengthAdjust="spacingAndGlyphs" textLength="53" x="556" y="77.957">IVV Plan</text><!--entity PROD_IVV_PROCEDURES--><rect fill="#FEFECE" filter="url(#fxmnot4e43vc5)" height="41.5938" style="stroke: #000000; stroke-width: 1.5;" width="127" x="1238" y="50"/><polygon fill="#FEFECE" points="1348,55,1348,69,1360,69,1360,61,1354,55,1348,55" style="stroke: #000000; stroke-width: 1.5;"/><line style="stroke: #000000; stroke-width: 1.5;" x1="1354" x2="1354" y1="55" y2="61"/><line style="stroke: #000000; stroke-width: 1.5;" x1="1360" x2="1354" y1="61" y2="61"/><text fill="#000000" font-family="Futura" font-size="14" lengthAdjust="spacingAndGlyphs" textLength="97" x="1248" y="77.957">IVV Procedures</text><!--entity PROD_MAINT_MANUAL--><rect fill="#FEFECE" filter="url(#fxmnot4e43vc5)" height="41.5938" style="stroke: #000000; stroke-width: 1.5;" width="165" x="892" y="50"/><polygon fill="#FEFECE" points="1040,55,1040,69,1052,69,1052,61,1046,55,1040,55" style="stroke: #000000; stroke-width: 1.5;"/><line style="stroke: #000000; stroke-width: 1.5;" x1="1046" x2="1046" y1="55" y2="61"/><line style="stroke: #000000; stroke-width: 1.5;" x1="1052" x2="1046" y1="61" y2="61"/><text fill="#000000" font-family="Futura" font-size="14" lengthAdjust="spacingAndGlyphs" textLength="135" x="902" y="77.957">Maintenance Manual</text><ellipse cx="2455.3735" cy="217.1747" fill="#FEFECE" filter="url(#fxmnot4e43vc5)" rx="73.8735" ry="17.1747" style="stroke: #A80036; stroke-width: 1.5;"/><text fill="#000000" font-family="Futura" font-size="14" lengthAdjust="spacingAndGlyphs" textLength="107" x="2401.8735" y="222.9716">Monitor Progress</text><ellipse cx="1862.4828" cy="217.1478" fill="#FEFECE" filter="url(#fxmnot4e43vc5)" rx="60.9828" ry="16.1478" style="stroke: #A80036; stroke-width: 1.5;"/><text fill="#000000" font-family="Futura" font-size="14" lengthAdjust="spacingAndGlyphs" textLength="82" x="1821.4828" y="222.9446">Evaluate CRs</text><ellipse cx="2258.4455" cy="216.8891" fill="#FEFECE" filter="url(#fxmnot4e43vc5)" rx="87.4455" ry="19.8891" style="stroke: #A80036; stroke-width: 1.5;"/><text fill="#000000" font-family="Futura" font-size="14" lengthAdjust="spacingAndGlyphs" textLength="141" x="2187.9455" y="222.686">Conduct WT Meetings</text><ellipse cx="2047.2822" cy="217.0564" fill="#FEFECE" filter="url(#fxmnot4e43vc5)" rx="88.2822" ry="20.0564" style="stroke: #A80036; stroke-width: 1.5;"/><text fill="#000000" font-family="Futura" font-size="14" lengthAdjust="spacingAndGlyphs" textLength="143" x="1975.7822" y="222.8533">Conduct STK Meetings</text><ellipse cx="1339.699" cy="217.1398" fill="#FEFECE" filter="url(#fxmnot4e43vc5)" rx="101.199" ry="22.6398" style="stroke: #A80036; stroke-width: 1.5;"/><text fill="#000000" font-family="Futura" font-size="14" lengthAdjust="spacingAndGlyphs" textLength="173" x="1253.199" y="222.9367">Configuration Management</text><ellipse cx="1440.4433" cy="451.9887" fill="#FEFECE" filter="url(#fxmnot4e43vc5)" rx="92.9433" ry="20.9887" style="stroke: #A80036; stroke-width: 1.5;"/><text fill="#000000" font-family="Futura" font-size="14" lengthAdjust="spacingAndGlyphs" textLength="154" x="1363.4433" y="457.7855">Repository Management</text><ellipse cx="1407.2958" cy="662.2592" fill="#FEFECE" filter="url(#fxmnot4e43vc5)" rx="79.2958" ry="18.2592" style="stroke: #A80036; stroke-width: 1.5;"/><text fill="#000000" font-family="Futura" font-size="14" lengthAdjust="spacingAndGlyphs" textLength="121" x="1346.7958" y="668.056">Recover Repository</text><!--link PROD_PP_ACCEPTED to PM2_1--><path d="M2282.0877,96.9255 C2287.8843,102.787 2294.2319,108.8073 2300.5,114 C2340.3402,147.0048 2390.9827,179.0186 2423.3273,198.3685 " fill="none" id="PROD_PP_ACCEPTED-PM2_1" style="stroke: #A80036; stroke-width: 2.0;"/><polygon fill="#A80036" points="2427.9632,201.1301,2422.2783,193.0876,2423.6676,198.5712,2418.184,199.9605,2427.9632,201.1301" style="stroke: #A80036; stroke-width: 1.0;"/><!--link PM2_1 to META_PROGRESS--><path d="M2454.3163,199.718 C2452.6663,175.6276 2449.6483,131.5651 2447.6085,101.7843 " fill="none" id="PM2_1-META_PROGRESS" style="stroke: #A80036; stroke-width: 2.0;"/><polygon fill="#A80036" points="2447.2648,96.7658,2443.8892,106.0181,2447.6065,101.7541,2451.8705,105.4714,2447.2648,96.7658" style="stroke: #A80036; stroke-width: 1.0;"/><!--link META_CR_SUBMITTED to PM2_2--><path d="M1767.8173,319.859 C1775.8569,310.7023 1785.0333,300.3426 1793.5,291 C1810.3199,272.4401 1829.8099,251.5972 1843.777,236.7729 " fill="none" id="META_CR_SUBMITTED-PM2_2" style="stroke: #A80036; stroke-width: 2.0;"/><polygon fill="#A80036" points="1847.5632,232.7582,1838.4782,236.5613,1844.1327,236.3957,1844.2983,242.0501,1847.5632,232.7582" style="stroke: #A80036; stroke-width: 1.0;"/><!--link PROD_PP_ACCEPTED to PM2_2--><path d="M2235.5904,96.906 C2228.7389,103.3283 2220.8182,109.6186 2212.5,114 C2103.3537,171.4897 2057.0325,130.754 1941.5,174 C1923.7405,180.6477 1905.0532,190.6645 1890.3147,199.3581 " fill="none" id="PROD_PP_ACCEPTED-PM2_2" style="stroke: #A80036; stroke-width: 2.0;"/><polygon fill="#A80036" points="1885.8728,202.0085,1895.6511,200.8318,1890.1665,199.4464,1891.5518,193.9618,1885.8728,202.0085" style="stroke: #A80036; stroke-width: 1.0;"/><!--link PM2_2 to META_CR_EVALUATED--><path d="M1869.9777,233.0148 C1879.5595,253.5358 1896.365,289.5276 1908.3868,315.2743 " fill="none" id="PM2_2-META_CR_EVALUATED" style="stroke: #A80036; stroke-width: 2.0;"/><polygon fill="#A80036" points="1910.5731,319.9565,1910.3897,310.1094,1908.4577,315.4261,1903.141,313.494,1910.5731,319.9565" style="stroke: #A80036; stroke-width: 1.0;"/><!--link META_MINUTES to PM2_3--><path d="M2154.5107,328.3552 C2175.5478,305.828 2212.598,266.1533 2236.324,240.7468 " fill="none" id="META_MINUTES-PM2_3" style="stroke: #A80036; stroke-width: 2.0;"/><polygon fill="#A80036" points="2240.013,236.7965,2230.9468,240.6442,2236.6004,240.4508,2236.7938,246.1044,2240.013,236.7965" style="stroke: #A80036; stroke-width: 1.0;"/><!--link PROD_PO_INITIAL to PM2_3--><path d="M2312.9026,319.8049 C2300.8732,297.0728 2283.4366,264.1228 2271.5689,241.6965 " fill="none" id="PROD_PO_INITIAL-PM2_3" style="stroke: #A80036; stroke-width: 2.0;"/><polygon fill="#A80036" points="2269.125,237.0781,2269.7991,246.9039,2271.4637,241.4974,2276.8701,243.162,2269.125,237.0781" style="stroke: #A80036; stroke-width: 1.0;"/><!--link PROD_PP_ACCEPTED to PM2_3--><path d="M2258.5,96.7658 C2258.5,123.4735 2258.5,164.9636 2258.5,191.5529 " fill="none" id="PROD_PP_ACCEPTED-PM2_3" style="stroke: #A80036; stroke-width: 2.0;"/><polygon fill="#A80036" points="2258.5,196.6633,2262.5,187.6633,2258.5,191.6633,2254.5,187.6633,2258.5,196.6633" style="stroke: #A80036; stroke-width: 1.0;"/><!--link PM2_3 to META_MINUTES_UPDATED--><path d="M2210.6668,233.9235 C2178.8788,246.6012 2137.2965,266.0392 2105.5,291 C2096.625,297.967 2088.3198,306.9606 2081.3201,315.626 " fill="none" id="PM2_3-META_MINUTES_UPDATED" style="stroke: #A80036; stroke-width: 2.0;"/><polygon fill="#A80036" points="2077.992,319.8432,2086.7075,315.2563,2081.0895,315.9182,2080.4276,310.3003,2077.992,319.8432" style="stroke: #A80036; stroke-width: 1.0;"/><!--link PM2_3 to PROD_PO_APPROVED--><path d="M2256.4688,237.0781 C2254.362,257.9024 2251.0414,290.7258 2248.6052,314.8065 " fill="none" id="PM2_3-PROD_PO_APPROVED" style="stroke: #A80036; stroke-width: 2.0;"/><polygon fill="#A80036" points="2248.0995,319.8049,2252.9851,311.2532,2248.6028,314.8303,2245.0257,310.448,2248.0995,319.8049" style="stroke: #A80036; stroke-width: 1.0;"/><!--link META_MINUTES to PM2_4--><path d="M2123.2674,319.93 C2117.573,310.6857 2110.9254,300.2511 2104.5,291 C2092.4927,273.7121 2078.0083,254.9318 2066.6455,240.6165 " fill="none" id="META_MINUTES-PM2_4" style="stroke: #A80036; stroke-width: 2.0;"/><polygon fill="#A80036" points="2063.528,236.7022,2066.0063,246.2342,2066.6431,240.6133,2072.264,241.25,2063.528,236.7022" style="stroke: #A80036; stroke-width: 1.0;"/><!--link PROD_PP_ACCEPTED to PM2_4--><path d="M2232.5177,96.9244 C2226.1751,102.786 2219.2629,108.8065 2212.5,114 C2171.3604,145.5924 2120.1868,176.3547 2085.8311,195.9093 " fill="none" id="PROD_PP_ACCEPTED-PM2_4" style="stroke: #A80036; stroke-width: 2.0;"/><polygon fill="#A80036" points="2081.3077,198.4745,2091.1096,197.5143,2085.657,196.008,2087.1633,190.5554,2081.3077,198.4745" style="stroke: #A80036; stroke-width: 1.0;"/><!--link META_PROGRESS to PM2_4--><path d="M2429.3794,91.4641 C2421.9938,99.5836 2412.6301,108.3213 2402.5,114 C2303.2034,169.6633 2261.8763,139.1746 2153.5,174 C2133.0197,180.5811 2110.8931,189.2915 2092.1801,197.1509 " fill="none" id="META_PROGRESS-PM2_4" style="stroke: #A80036; stroke-width: 2.0;"/><polygon fill="#A80036" points="2087.4992,199.129,2097.3464,199.3103,2092.1049,197.1827,2094.2324,191.9412,2087.4992,199.129" style="stroke: #A80036; stroke-width: 1.0;"/><!--link META_CR_EVALUATED to PM2_4--><path d="M1947.6101,319.6869 C1970.0937,296.5736 2002.7853,262.9667 2024.5746,240.5673 " fill="none" id="META_CR_EVALUATED-PM2_4" style="stroke: #A80036; stroke-width: 2.0;"/><polygon fill="#A80036" points="2028.2427,236.7965,2019.1,240.4585,2024.7563,240.3805,2024.8343,246.0368,2028.2427,236.7965" style="stroke: #A80036; stroke-width: 1.0;"/><!--link PM2_4 to META_CR_AGREED--><path d="M2004.7655,234.6318 C1955.3383,255.1212 1879.9947,286.6913 1874.5,291 C1865.8524,297.7811 1858.0861,306.8088 1851.6987,315.5628 " fill="none" id="PM2_4-META_CR_AGREED" style="stroke: #A80036; stroke-width: 2.0;"/><polygon fill="#A80036" points="1848.6759,319.8272,1857.1438,314.7979,1851.5673,315.748,1850.6172,310.1716,1848.6759,319.8272" style="stroke: #A80036; stroke-width: 1.0;"/><!--link PM2_4 to PROD_PP_UPDATED--><path d="M2063.983,197.1115 C2084.5437,172.3027 2119.8881,129.6557 2143.7171,100.9033 " fill="none" id="PM2_4-PROD_PP_UPDATED" style="stroke: #A80036; stroke-width: 2.0;"/><polygon fill="#A80036" points="2147.1462,96.7658,2138.3234,101.1428,2143.9556,100.6155,2144.4829,106.2477,2147.1462,96.7658" style="stroke: #A80036; stroke-width: 1.0;"/><!--link PM2_4 to META_MINUTES_UPDATED--><path d="M2049.5313,237.0781 C2051.638,257.9024 2054.9586,290.7258 2057.3948,314.8065 " fill="none" id="PM2_4-META_MINUTES_UPDATED" style="stroke: #A80036; stroke-width: 2.0;"/><polygon fill="#A80036" points="2057.9005,319.8049,2060.9743,310.448,2057.3972,314.8303,2053.0149,311.2532,2057.9005,319.8049" style="stroke: #A80036; stroke-width: 1.0;"/><!--link PROD_PP to PM2_5--><path d="M2077.1623,96.5249 C2072.134,103.2693 2065.868,109.8237 2058.5,114 C1856.4911,228.5016 1768.6086,136.2184 1539.5,174 C1497.5792,180.913 1451.1636,190.755 1413.6084,199.279 " fill="none" id="PROD_PP-PM2_5" style="stroke: #A80036; stroke-width: 2.0;"/><polygon fill="#A80036" points="1408.6047,200.4188,1418.2683,202.3199,1413.4798,199.3082,1416.4914,194.5197,1408.6047,200.4188" style="stroke: #A80036; stroke-width: 1.0;"/><!--link PROD_STRS to PM2_5--><path d="M499.1525,92.0173 C507.2306,100.2302 517.4607,108.8882 528.5,114 C652.0909,171.2291 1046.1923,200.54 1235.7364,211.6277 " fill="none" id="PROD_STRS-PM2_5" style="stroke: #A80036; stroke-width: 2.0;"/><polygon fill="#A80036" points="1240.7299,211.9183,1231.9777,207.4018,1235.7384,211.6276,1231.5126,215.3883,1240.7299,211.9183" style="stroke: #A80036; stroke-width: 1.0;"/><!--link PROD_SYSRS to PM2_5--><path d="M190.8758,92.2078 C199.6787,100.4528 210.7476,109.0834 222.5,114 C403.4062,189.6819 990.9491,210.032 1233.3905,215.2703 " fill="none" id="PROD_SYSRS-PM2_5" style="stroke: #A80036; stroke-width: 2.0;"/><polygon fill="#A80036" points="1238.7002,215.3838,1229.7879,211.1921,1233.7013,215.2768,1229.6167,219.1903,1238.7002,215.3838" style="stroke: #A80036; stroke-width: 1.0;"/><!--link PROD_SERS to PM2_5--><path d="M405.026,92.0866 C413.4685,100.3111 424.1163,108.9591 435.5,114 C576.496,176.4348 1028.2391,203.5465 1234.7307,212.8989 " fill="none" id="PROD_SERS-PM2_5" style="stroke: #A80036; stroke-width: 2.0;"/><polygon fill="#A80036" points="1239.864,213.1301,1231.0531,208.7292,1234.8691,212.9051,1230.6931,216.7211,1239.864,213.1301" style="stroke: #A80036; stroke-width: 1.0;"/><!--link PROD_SDD to PM2_5--><path d="M1416.4132,92.2297 C1400.494,118.0542 1373.5968,161.6874 1356.199,189.9105 " fill="none" id="PROD_SDD-PM2_5" style="stroke: #A80036; stroke-width: 2.0;"/><polygon fill="#A80036" points="1353.4915,194.3027,1361.6192,188.7403,1356.1152,190.0464,1354.8092,184.5424,1353.4915,194.3027" style="stroke: #A80036; stroke-width: 1.0;"/><!--link PROD_SYSTEM to PM2_5--><path d="M1504.7234,92.0979 C1495.7768,99.1034 1485.7339,106.9202 1476.5,114 C1441.2752,141.0073 1400.587,171.511 1372.7612,192.2674 " fill="none" id="PROD_SYSTEM-PM2_5" style="stroke: #A80036; stroke-width: 2.0;"/><polygon fill="#A80036" points="1368.7512,195.2575,1378.3572,193.0839,1372.7594,192.2685,1373.5749,186.6708,1368.7512,195.2575" style="stroke: #A80036; stroke-width: 1.0;"/><!--link PROD_SE_SWHW to PM2_5--><path d="M1882.8674,92.0981 C1862.2565,99.6108 1838.4799,107.7495 1816.5,114 C1811.6632,115.3755 1551.4377,171.4065 1417.4444,200.2354 " fill="none" id="PROD_SE_SWHW-PM2_5" style="stroke: #A80036; stroke-width: 2.0;"/><polygon fill="#A80036" points="1412.3389,201.3338,1421.979,203.351,1417.227,200.282,1420.296,195.53,1412.3389,201.3338" style="stroke: #A80036; stroke-width: 1.0;"/><!--link PROD_SE_SW to PM2_5--><path d="M1649.2487,92.0737 C1581.0825,119.5662 1462.4031,167.4313 1393.4227,195.2522 " fill="none" id="PROD_SE_SW-PM2_5" style="stroke: #A80036; stroke-width: 2.0;"/><polygon fill="#A80036" points="1388.5434,197.2201,1398.3863,197.5636,1393.1805,195.35,1395.3941,190.1442,1388.5434,197.2201" style="stroke: #A80036; stroke-width: 1.0;"/><!--link PROD_IVV_PLAN to PM2_5--><path d="M610.8734,92.073 C621.1211,100.1918 633.7149,108.7644 646.5,114 C752.0761,157.2343 1075.0304,192.4128 1240.0997,208.127 " fill="none" id="PROD_IVV_PLAN-PM2_5" style="stroke: #A80036; stroke-width: 2.0;"/><polygon fill="#A80036" points="1245.4207,208.632,1236.839,203.7993,1240.4431,208.1594,1236.0829,211.7635,1245.4207,208.632" style="stroke: #A80036; stroke-width: 1.0;"/><!--link PROD_IVV_PROCEDURES to PM2_5--><path d="M1307.0255,92.2297 C1313.6917,117.8416 1324.9169,160.9704 1332.2671,189.2105 " fill="none" id="PROD_IVV_PROCEDURES-PM2_5" style="stroke: #A80036; stroke-width: 2.0;"/><polygon fill="#A80036" points="1333.5925,194.3027,1335.1966,184.5854,1332.3331,189.4639,1327.4545,186.6004,1333.5925,194.3027" style="stroke: #A80036; stroke-width: 1.0;"/><!--link PROD_SYSOP_GUIDE to PM2_5--><path d="M811.6105,92.0574 C831.0854,99.6087 853.6183,107.7837 874.5,114 C1005.4925,152.9955 1161.1841,184.5744 1255.0697,202.0571 " fill="none" id="PROD_SYSOP_GUIDE-PM2_5" style="stroke: #A80036; stroke-width: 2.0;"/><polygon fill="#A80036" points="1260.0494,202.982,1251.9313,197.4056,1255.1335,202.0689,1250.4703,205.2711,1260.0494,202.982" style="stroke: #A80036; stroke-width: 1.0;"/><!--link PROD_USER_MANUAL to PM2_5--><path d="M1175.4184,92.2297 C1210.1985,118.677 1269.5415,163.8024 1306.5248,191.9251 " fill="none" id="PROD_USER_MANUAL-PM2_5" style="stroke: #A80036; stroke-width: 2.0;"/><polygon fill="#A80036" points="1310.9209,195.268,1306.1782,186.6363,1306.9409,192.2415,1301.3357,193.0042,1310.9209,195.268" style="stroke: #A80036; stroke-width: 1.0;"/><!--link PROD_MAINT_MANUAL to PM2_5--><path d="M1022.4216,92.0144 C1038.8779,99.1219 1057.4468,107.022 1074.5,114 C1146.1171,143.305 1229.3974,175.3442 1283.1995,195.7793 " fill="none" id="PROD_MAINT_MANUAL-PM2_5" style="stroke: #A80036; stroke-width: 2.0;"/><polygon fill="#A80036" points="1287.9892,197.5974,1280.9946,190.6637,1283.3147,195.8229,1278.1555,198.143,1287.9892,197.5974" style="stroke: #A80036; stroke-width: 1.0;"/><!--link PROD_TRAINING to PM2_5--><path d="M303.0343,92.1369 C313.1297,100.3699 325.6459,109.0107 338.5,114 C499.9907,176.6825 1011.9813,204.0599 1234.5231,213.2154 " fill="none" id="PROD_TRAINING-PM2_5" style="stroke: #A80036; stroke-width: 2.0;"/><polygon fill="#A80036" points="1239.7259,213.4283,1230.897,209.0637,1234.7301,213.2239,1230.5699,217.057,1239.7259,213.4283" style="stroke: #A80036; stroke-width: 1.0;"/><!--link META_CR_AGREED to PM2_5--><path d="M1820.5869,319.9668 C1813.9282,309.3584 1804.8093,297.9278 1793.5,291 C1735.8352,255.6761 1555.7733,234.7032 1440.4955,224.553 " fill="none" id="META_CR_AGREED-PM2_5" style="stroke: #A80036; stroke-width: 2.0;"/><polygon fill="#A80036" points="1435.3979,224.1075,1444.0154,228.8761,1440.3789,224.5429,1444.7121,220.9065,1435.3979,224.1075" style="stroke: #A80036; stroke-width: 1.0;"/><!--link META_PROGRESS_EVALUATED to PM2_5--><path d="M2329.6234,96.6315 C2321.9443,103.3788 2312.9569,109.9082 2303.5,114 C2283.7212,122.5579 1678.2559,183.3798 1437.1591,207.3369 " fill="none" id="META_PROGRESS_EVALUATED-PM2_5" style="stroke: #A80036; stroke-width: 2.0;"/><polygon fill="#A80036" points="1431.8824,207.8611,1441.2338,210.9515,1436.8579,207.3667,1440.4428,202.9907,1431.8824,207.8611" style="stroke: #A80036; stroke-width: 1.0;"/><!--link PM2_5 to PROD_PRODUCT--><path d="M1350.4738,239.383 C1361.4465,261.7639 1378.3049,296.1497 1389.838,319.6736 " fill="none" id="PM2_5-PROD_PRODUCT" style="stroke: #A80036; stroke-width: 2.0;"/><polygon fill="#A80036" points="1392.0703,324.2268,1391.6998,314.3849,1389.8692,319.7374,1384.5167,317.9067,1392.0703,324.2268" style="stroke: #A80036; stroke-width: 1.0;"/><!--link PM2_5 to META_CR_SUBMITTED--><path d="M1397.6699,235.4109 C1483.3195,262.5192 1640.7419,312.3438 1710.5659,334.4433 " fill="none" id="PM2_5-META_CR_SUBMITTED" style="stroke: #A80036; stroke-width: 2.0;"/><polygon fill="#A80036" points="1715.4397,335.9858,1708.0661,329.4566,1710.6727,334.4771,1705.6522,337.0837,1715.4397,335.9858" style="stroke: #A80036; stroke-width: 1.0;"/><!--link PROD_PP_UPDATED to PM2_6--><path d="M2147.8981,96.7094 C2141.3982,103.2904 2133.7416,109.7116 2125.5,114 C1988.9906,185.0308 1924.5715,110.2805 1784.5,174 C1644.5751,237.6529 1513.1251,371.7603 1462.4654,427.203 " fill="none" id="PROD_PP_UPDATED-PM2_6" style="stroke: #A80036; stroke-width: 2.0;"/><polygon fill="#A80036" points="1458.9585,431.0569,1467.9743,427.0926,1462.3237,427.3589,1462.0574,421.7083,1458.9585,431.0569" style="stroke: #A80036; stroke-width: 1.0;"/><!--link PROD_PRODUCT to PM2_6--><path d="M1410.0076,366.541 C1416.097,383.6074 1424.7091,407.744 1431.2285,426.0155 " fill="none" id="PROD_PRODUCT-PM2_6" style="stroke: #A80036; stroke-width: 2.0;"/><polygon fill="#A80036" points="1433.008,431.0027,1433.7509,421.1819,1431.3277,426.2935,1426.2162,423.8703,1433.008,431.0027" style="stroke: #A80036; stroke-width: 1.0;"/><!--link PROD_REPO to PM2_6--><path d="M1607.1209,532.7996 C1601.1712,522.6718 1593.2043,511.6552 1583.5,504 C1562.792,487.6645 1536.4849,476.1613 1512.0961,468.206 " fill="none" id="PROD_REPO-PM2_6" style="stroke: #A80036; stroke-width: 2.0;"/><polygon fill="#A80036" points="1507.2461,466.6619,1514.6085,473.2037,1512.0105,468.1787,1517.0354,465.5807,1507.2461,466.6619" style="stroke: #A80036; stroke-width: 1.0;"/><!--link PM2_6 to PROD_REPO_UPDATED--><path d="M1440.5,473.041 C1440.5,488.643 1440.5,510.1541 1440.5,527.6909 " fill="none" id="PM2_6-PROD_REPO_UPDATED" style="stroke: #A80036; stroke-width: 2.0;"/><polygon fill="#A80036" points="1440.5,532.9948,1444.5,523.9948,1440.5,527.9948,1436.5,523.9948,1440.5,532.9948" style="stroke: #A80036; stroke-width: 1.0;"/><!--link PM2_6 to PROD_REPO_BACKUP--><path d="M1410.7814,472.0318 C1384.4771,489.7623 1346.036,515.6735 1318.0972,534.5057 " fill="none" id="PM2_6-PROD_REPO_BACKUP" style="stroke: #A80036; stroke-width: 2.0;"/><polygon fill="#A80036" points="1313.7069,537.465,1323.4055,535.7513,1317.8529,534.6703,1318.934,529.1177,1313.7069,537.465" style="stroke: #A80036; stroke-width: 1.0;"/><!--link PROD_REPO_BACKUP to PM2_7--><path d="M1307.7956,579.546 C1329.4207,597.538 1360.3887,623.3034 1382.0563,641.3308 " fill="none" id="PROD_REPO_BACKUP-PM2_7" style="stroke: #A80036; stroke-width: 2.0;"/><polygon fill="#A80036" points="1385.9895,644.6033,1381.6293,635.7722,1382.1459,641.4054,1376.5127,641.922,1385.9895,644.6033" style="stroke: #A80036; stroke-width: 1.0;"/><!--link PM2_7 to PROD_REPO_RECOVERED--><path d="M1429.205,644.5848 C1448.1863,628.9177 1476.1066,605.8723 1498.2833,587.5677 " fill="none" id="PM2_7-PROD_REPO_RECOVERED" style="stroke: #A80036; stroke-width: 2.0;"/><polygon fill="#A80036" points="1502.3539,584.2079,1492.8666,586.8521,1498.4978,587.3907,1497.9592,593.0219,1502.3539,584.2079" style="stroke: #A80036; stroke-width: 1.0;"/><!--link PJM to WT--><!--link PJM to ACQ--><!--link ACQ to STK--><!--
@startuml



skinparam handwritten false
skinparam defaultFontName Futura


actor PJM
actor WT
actor ACQ
actor STK

artifact "Project Repository" {
control "active" as PROD_REPO
control "recovered" as PROD_REPO_RECOVERED
control "updated" as PROD_REPO_UPDATED
}
artifact "Project Repository Backup" as PROD_REPO_BACKUP
artifact "Project Plan" {
control "initial" as PROD_PP
control "accepted" as PROD_PP_ACCEPTED
control "updated" as PROD_PP_UPDATED
}
artifact "Product" as PROD_PRODUCT
artifact "CR" {
control "submitted" as META_CR_SUBMITTED
control "evaluated" as META_CR_EVALUATED
control "agreed" as META_CR_AGREED
}
artifact "Meeting Minutes" {
control "initial" as META_MINUTES
control "updated" as META_MINUTES_UPDATED
}
artifact "StRS" as PROD_STRS
artifact "SysRS" as PROD_SYSRS
artifact "Training" as PROD_TRAINING
artifact "SERS" as PROD_SERS
artifact "SDD" as PROD_SDD
artifact "System" as PROD_SYSTEM
artifact "Software System Elements" as PROD_SE_SW
artifact "System Elements (HW+SW)" as PROD_SE_SWHW
artifact "System Operations Guide" as PROD_SYSOP_GUIDE
artifact "User Manual" as PROD_USER_MANUAL
artifact "IVV Plan" as PROD_IVV_PLAN
artifact "IVV Procedures" as PROD_IVV_PROCEDURES
artifact "Maintenance Manual" as PROD_MAINT_MANUAL
artifact "Progress Status Record" {
control "initial" as META_PROGRESS
control "evaluated" as META_PROGRESS_EVALUATED
}
artifact "Purchase Order" {
control "initial" as PROD_PO_INITIAL
control "approved" as PROD_PO_APPROVED
}

usecase "Monitor Progress" as PM2_1
PROD_PP_ACCEPTED ==> PM2_1
PM2_1 ==> META_PROGRESS

usecase "Evaluate CRs" as PM2_2
META_CR_SUBMITTED ==> PM2_2
PROD_PP_ACCEPTED ==> PM2_2
PM2_2 ==> META_CR_EVALUATED

usecase "Conduct WT Meetings" as PM2_3
META_MINUTES ==> PM2_3
PROD_PO_INITIAL ==> PM2_3
PROD_PP_ACCEPTED ==> PM2_3
PM2_3 ==> META_MINUTES_UPDATED
PM2_3 ==> PROD_PO_APPROVED

usecase "Conduct STK Meetings" as PM2_4
META_MINUTES ==> PM2_4
PROD_PP_ACCEPTED ==> PM2_4
META_PROGRESS ==> PM2_4
META_CR_EVALUATED ==> PM2_4
PM2_4 ==> META_CR_AGREED
PM2_4 ==> PROD_PP_UPDATED
PM2_4 ==> META_MINUTES_UPDATED

usecase "Configuration Management" as PM2_5
PROD_PP ==> PM2_5
PROD_STRS ==> PM2_5
PROD_SYSRS ==> PM2_5
PROD_SERS ==> PM2_5
PROD_SDD ==> PM2_5
PROD_SYSTEM ==> PM2_5
PROD_SE_SWHW ==> PM2_5
PROD_SE_SW ==> PM2_5
PROD_IVV_PLAN ==> PM2_5
PROD_IVV_PROCEDURES ==> PM2_5
PROD_SYSOP_GUIDE ==> PM2_5
PROD_USER_MANUAL ==> PM2_5
PROD_MAINT_MANUAL ==> PM2_5
PROD_TRAINING ==> PM2_5
META_CR_AGREED ==> PM2_5
META_PROGRESS_EVALUATED ==> PM2_5
PM2_5 ==> PROD_PRODUCT
PM2_5 ==> META_CR_SUBMITTED

usecase "Repository Management" as PM2_6
PROD_PP_UPDATED ==> PM2_6
PROD_PRODUCT ==> PM2_6
PROD_REPO ==> PM2_6
PM2_6 ==> PROD_REPO_UPDATED
PM2_6 ==> PROD_REPO_BACKUP

usecase "Recover Repository" as PM2_7
PROD_REPO_BACKUP ==> PM2_7
PM2_7 ==> PROD_REPO_RECOVERED

@enduml

PlantUML version 1.2019.00(Sun Jan 13 07:46:42 PST 2019)
(GPL source distribution)
Java Runtime: Java(TM) SE Runtime Environment
JVM: Java HotSpot(TM) 64-Bit Server VM
Java Version: 10.0.1+10
Operating System: Mac OS X
OS Version: 10.14.3
Default Encoding: UTF-8
Language: en
Country: US
--></g></svg>