<?xml version="1.0" encoding="UTF-8" standalone="no"?><svg xmlns="http://www.w3.org/2000/svg" xmlns:xlink="http://www.w3.org/1999/xlink" contentScriptType="application/ecmascript" contentStyleType="text/css" height="298px" preserveAspectRatio="none" style="width:393px;height:298px;" version="1.1" viewBox="0 0 393 298" width="393px" zoomAndPan="magnify"><defs><filter height="300%" id="f1e622poztkowt" width="300%" x="-1" y="-1"><feGaussianBlur result="blurOut" stdDeviation="2.0"/><feColorMatrix in="blurOut" result="blurOut2" type="matrix" values="0 0 0 0 0 0 0 0 0 0 0 0 0 0 0 0 0 0 .4 0"/><feOffset dx="4.0" dy="4.0" in="blurOut2" result="blurOut3"/><feBlend in="SourceGraphic" in2="blurOut3" mode="normal"/></filter></defs><g><!--entity PJM--><ellipse cx="21" cy="18" fill="#FEFECE" filter="url(#f1e622poztkowt)" rx="8" ry="8" style="stroke: #A80036; stroke-width: 2.0;"/><path d="M21,26 L21,53 M8,34 L34,34 M21,53 L8,68 M21,53 L34,68 " fill="none" filter="url(#f1e622poztkowt)" style="stroke: #A80036; stroke-width: 2.0;"/><text fill="#000000" font-family="Futura" font-size="14" lengthAdjust="spacingAndGlyphs" textLength="27" x="7.5" y="89.957">PJM</text><!--entity WT--><ellipse cx="86" cy="18" fill="#FEFECE" filter="url(#f1e622poztkowt)" rx="8" ry="8" style="stroke: #A80036; stroke-width: 2.0;"/><path d="M86,26 L86,53 M73,34 L99,34 M86,53 L73,68 M86,53 L99,68 " fill="none" filter="url(#f1e622poztkowt)" style="stroke: #A80036; stroke-width: 2.0;"/><text fill="#000000" font-family="Futura" font-size="14" lengthAdjust="spacingAndGlyphs" textLength="22" x="75" y="89.957">WT</text><!--entity PROD_SDD--><rect fill="#FEFECE" filter="url(#f1e622poztkowt)" height="41.5938" style="stroke: #000000; stroke-width: 1.5;" width="58" x="136" y="30"/><polygon fill="#FEFECE" points="177,35,177,49,189,49,189,41,183,35,177,35" style="stroke: #000000; stroke-width: 1.5;"/><line style="stroke: #000000; stroke-width: 1.5;" x1="183" x2="183" y1="35" y2="41"/><line style="stroke: #000000; stroke-width: 1.5;" x1="189" x2="183" y1="41" y2="41"/><text fill="#000000" font-family="Futura" font-size="14" lengthAdjust="spacingAndGlyphs" textLength="28" x="146" y="57.957">SDD</text><!--entity META_TRACE_MATRIX--><rect fill="#FEFECE" filter="url(#f1e622poztkowt)" height="41.5938" style="stroke: #000000; stroke-width: 1.5;" width="147" x="229.5" y="30"/><polygon fill="#FEFECE" points="359.5,35,359.5,49,371.5,49,371.5,41,365.5,35,359.5,35" style="stroke: #000000; stroke-width: 1.5;"/><line style="stroke: #000000; stroke-width: 1.5;" x1="365.5" x2="365.5" y1="35" y2="41"/><line style="stroke: #000000; stroke-width: 1.5;" x1="371.5" x2="365.5" y1="41" y2="41"/><text fill="#000000" font-family="Futura" font-size="14" lengthAdjust="spacingAndGlyphs" textLength="117" x="239.5" y="57.957">Traceability Matrix</text><!--entity PROD_JUSTIFICATION_INITIATED--><rect fill="#FEFECE" filter="url(#f1e622poztkowt)" height="41.5938" style="stroke: #000000; stroke-width: 1.5;" width="233" x="117.5" y="246"/><polygon fill="#FEFECE" points="333.5,251,333.5,265,345.5,265,345.5,257,339.5,251,333.5,251" style="stroke: #000000; stroke-width: 1.5;"/><line style="stroke: #000000; stroke-width: 1.5;" x1="339.5" x2="339.5" y1="251" y2="257"/><line style="stroke: #000000; stroke-width: 1.5;" x1="345.5" x2="339.5" y1="257" y2="257"/><text fill="#000000" font-family="Futura" font-size="14" lengthAdjust="spacingAndGlyphs" textLength="203" x="127.5" y="273.957">Justification Document (initiated)</text><ellipse cx="234.0772" cy="170.1478" fill="#FEFECE" filter="url(#f1e622poztkowt)" rx="30.5772" ry="16.1478" style="stroke: #A80036; stroke-width: 1.5;"/><text fill="#000000" font-family="Futura" font-size="14" lengthAdjust="spacingAndGlyphs" textLength="39" x="214.5772" y="175.9446">Justify</text><!--link PROD_SDD to PM3_3--><path d="M177.177,72.0009 C189.9632,94.0525 209.9185,128.4682 222.4602,150.0981 " fill="none" id="PROD_SDD-PM3_3" style="stroke: #A80036; stroke-width: 2.0;"/><polygon fill="#A80036" points="225.0187,154.5105,223.9644,144.7182,222.5106,150.1851,217.0437,148.7313,225.0187,154.5105" style="stroke: #A80036; stroke-width: 1.0;"/><!--link META_TRACE_MATRIX to PM3_3--><path d="M290.823,72.0009 C278.0368,94.0525 258.0815,128.4682 245.5398,150.0981 " fill="none" id="META_TRACE_MATRIX-PM3_3" style="stroke: #A80036; stroke-width: 2.0;"/><polygon fill="#A80036" points="242.9813,154.5105,250.9563,148.7313,245.4894,150.1851,244.0356,144.7182,242.9813,154.5105" style="stroke: #A80036; stroke-width: 1.0;"/><!--link PM3_3 to PROD_JUSTIFICATION_INITIATED--><path d="M234,186.0176 C234,200.8422 234,223.1604 234,240.6154 " fill="none" id="PM3_3-PROD_JUSTIFICATION_INITIATED" style="stroke: #A80036; stroke-width: 2.0;"/><polygon fill="#A80036" points="234,245.8627,238,236.8627,234,240.8627,230,236.8627,234,245.8627" style="stroke: #A80036; stroke-width: 1.0;"/><!--
@startuml



skinparam handwritten false
skinparam defaultFontName Futura


actor PJM
actor WT

artifact "SDD" as PROD_SDD
artifact "Traceability Matrix" as META_TRACE_MATRIX
artifact "Justification Document (initiated)" as PROD_JUSTIFICATION_INITIATED

usecase "Justify" as PM3_3
PROD_SDD ==> PM3_3
META_TRACE_MATRIX ==> PM3_3
PM3_3 ==> PROD_JUSTIFICATION_INITIATED

@enduml

PlantUML version 1.2019.00(Sun Jan 13 07:46:42 PST 2019)
(GPL source distribution)
Java Runtime: Java(TM) SE Runtime Environment
JVM: Java HotSpot(TM) 64-Bit Server VM
Java Version: 10.0.1+10
Operating System: Mac OS X
OS Version: 10.14.3
Default Encoding: UTF-8
Language: en
Country: US
--></g></svg>