<svg xmlns="http://www.w3.org/2000/svg" height="318" preserveAspectRatio="none" style="width:433px;height:318px" width="433"><defs><filter height="300%" id="a" width="300%" x="-1" y="-1"><feGaussianBlur result="blurOut" stdDeviation="2"/><feColorMatrix in="blurOut" result="blurOut2" values="0 0 0 0 0 0 0 0 0 0 0 0 0 0 0 0 0 0 .4 0"/><feOffset dx="4" dy="4" in="blurOut2" result="blurOut3"/><feBlend in="SourceGraphic" in2="blurOut3"/></filter></defs><path fill="#FFF" filter="url(#a)" stroke="#000" stroke-width="1.5" d="M109 16.5h190v88H109z"/><path fill="#FFF" stroke="#000" stroke-width="1.5" d="M282 21.5v14h12v-8l-6-6h-6z"/><path stroke="#000" stroke-width="1.5" d="M288 21.5v6M294 27.5h-6"/><text font-family="Futura" font-size="14" font-weight="bold" lengthAdjust="spacingAndGlyphs" textLength="174" x="117" y="33.466">Progress Status Record</text><path fill="#FFF" filter="url(#a)" stroke="#000" stroke-width="1.5" d="M312 22.5h104v76H312z"/><path fill="#FFF" stroke="#000" stroke-width="1.5" d="M399 27.5v14h12v-8l-6-6h-6z"/><path stroke="#000" stroke-width="1.5" d="M405 27.5v6M411 33.5h-6"/><text font-family="Futura" font-size="14" font-weight="bold" lengthAdjust="spacingAndGlyphs" textLength="88" x="320" y="39.466">Project Plan</text><circle cx="257" cy="61.5" fill="#FEFECE" filter="url(#a)" stroke="#a80036" stroke-width="2" r="12"/><path fill="#A80036" stroke="#a80036" d="M253 49.5l6-5-2 5 2 5-6-5z"/><text font-family="Futura" font-size="14" lengthAdjust="spacingAndGlyphs" textLength="62" x="226" y="92.457">evaluated</text><path fill="#FEFECE" filter="url(#a)" stroke="#a80036" stroke-width="1.5" d="M323 51.5h44v38.594h-44z"/><path fill="#FEFECE" stroke="#a80036" stroke-width="1.5" d="M318 56.5h10v5h-10zM318 80.094h10v5h-10z"/><text font-family="Futura" font-size="14" lengthAdjust="spacingAndGlyphs" textLength="24" x="333" y="76.457">Risk</text><circle cx="21" cy="38" fill="#FEFECE" filter="url(#a)" stroke="#a80036" stroke-width="2" r="8"/><path d="M21 46v27M8 54h26M21 73L8 88m13-15l13 15" fill="none" filter="url(#a)" stroke="#a80036" stroke-width="2"/><text font-family="Futura" font-size="14" lengthAdjust="spacingAndGlyphs" textLength="27" x="7.5" y="109.957">PJM</text><circle cx="86" cy="38" fill="#FEFECE" filter="url(#a)" stroke="#a80036" stroke-width="2" r="8"/><path d="M86 46v27M73 54h26M86 73L73 88m13-15l13 15" fill="none" filter="url(#a)" stroke="#a80036" stroke-width="2"/><text font-family="Futura" font-size="14" lengthAdjust="spacingAndGlyphs" textLength="22" x="75" y="109.957">WT</text><path fill="#FEFECE" filter="url(#a)" stroke="#000" stroke-width="1.5" d="M223 266h156v41.594H223z"/><path fill="#FEFECE" stroke="#000" stroke-width="1.5" d="M362 271v14h12v-8l-6-6h-6z"/><path stroke="#000" stroke-width="1.5" d="M368 271v6M374 277h-6"/><text font-family="Futura" font-size="14" lengthAdjust="spacingAndGlyphs" textLength="126" x="233" y="293.957">Corrections Register</text><ellipse cx="300.861" cy="190.148" fill="#FEFECE" filter="url(#a)" rx="58.861" ry="16.148" stroke="#a80036" stroke-width="1.5"/><text font-family="Futura" font-size="14" lengthAdjust="spacingAndGlyphs" textLength="79" x="261.361" y="195.945">Address Risk</text><path d="M337.734 90.65l-28.957 78.316" fill="none" stroke="#a80036" stroke-width="2"/><path fill="#A80036" stroke="#a80036" d="M307.003 173.765l6.873-7.054-5.14 2.364-2.364-5.138.63 9.828z"/><path d="M266.44 96.528l26.831 72.57" fill="none" stroke="#a80036" stroke-width="2"/><path fill="#A80036" stroke="#a80036" d="M295.084 174.001l.63-9.828-2.364 5.139-5.139-2.365 6.873 7.054z"/><path d="M301 206.018v54.597" fill="none" stroke="#a80036" stroke-width="2"/><path fill="#A80036" stroke="#a80036" d="M301 265.863l4-9-4 4-4-4 4 9z"/></svg>