<svg xmlns="http://www.w3.org/2000/svg" height="321" preserveAspectRatio="none" style="width:820px;height:321px" width="820"><defs><filter height="300%" id="a" width="300%" x="-1" y="-1"><feGaussianBlur result="blurOut" stdDeviation="2"/><feColorMatrix in="blurOut" result="blurOut2" values="0 0 0 0 0 0 0 0 0 0 0 0 0 0 0 0 0 0 .4 0"/><feOffset dx="4" dy="4" in="blurOut2" result="blurOut3"/><feBlend in="SourceGraphic" in2="blurOut3"/></filter></defs><path fill="#FFF" filter="url(#a)" stroke="#000" stroke-width="1.5" d="M613 16.5h190v88H613z"/><path fill="#FFF" stroke="#000" stroke-width="1.5" d="M786 21.5v14h12v-8l-6-6h-6z"/><path stroke="#000" stroke-width="1.5" d="M792 21.5v6M798 27.5h-6"/><text font-family="Futura" font-size="14" font-weight="bold" lengthAdjust="spacingAndGlyphs" textLength="174" x="621" y="33.466">Progress Status Record</text><path fill="#FFF" filter="url(#a)" stroke="#000" stroke-width="1.5" d="M453 16.5h147v88H453z"/><path fill="#FFF" stroke="#000" stroke-width="1.5" d="M583 21.5v14h12v-8l-6-6h-6z"/><path stroke="#000" stroke-width="1.5" d="M589 21.5v6M595 27.5h-6"/><text font-family="Futura" font-size="14" font-weight="bold" lengthAdjust="spacingAndGlyphs" textLength="88" x="482.5" y="33.466">Project Plan</text><circle cx="740" cy="61.5" fill="#FEFECE" filter="url(#a)" stroke="#a80036" stroke-width="2" r="12"/><path fill="#A80036" stroke="#a80036" d="M736 49.5l6-5-2 5 2 5-6-5z"/><text font-family="Futura" font-size="14" lengthAdjust="spacingAndGlyphs" textLength="32" x="724" y="92.457">initial</text><circle cx="658" cy="61.5" fill="#FEFECE" filter="url(#a)" stroke="#a80036" stroke-width="2" r="12"/><path fill="#A80036" stroke="#a80036" d="M654 49.5l6-5-2 5 2 5-6-5z"/><text font-family="Futura" font-size="14" lengthAdjust="spacingAndGlyphs" textLength="62" x="627" y="92.457">evaluated</text><path fill="#FEFECE" filter="url(#a)" stroke="#a80036" stroke-width="1.5" d="M461 51.5h44v38.594h-44z"/><path fill="#FEFECE" stroke="#a80036" stroke-width="1.5" d="M456 56.5h10v5h-10zM456 80.094h10v5h-10z"/><text font-family="Futura" font-size="14" lengthAdjust="spacingAndGlyphs" textLength="24" x="471" y="76.457">Risk</text><circle cx="566" cy="61.5" fill="#FEFECE" filter="url(#a)" stroke="#a80036" stroke-width="2" r="12"/><path fill="#A80036" stroke="#a80036" d="M562 49.5l6-5-2 5 2 5-6-5z"/><text font-family="Futura" font-size="14" lengthAdjust="spacingAndGlyphs" textLength="52" x="540" y="92.457">updated</text><circle cx="21" cy="38" fill="#FEFECE" filter="url(#a)" stroke="#a80036" stroke-width="2" r="8"/><path d="M21 46v27M8 54h26M21 73L8 88m13-15l13 15" fill="none" filter="url(#a)" stroke="#a80036" stroke-width="2"/><text font-family="Futura" font-size="14" lengthAdjust="spacingAndGlyphs" textLength="27" x="7.5" y="109.957">PJM</text><circle cx="86" cy="38" fill="#FEFECE" filter="url(#a)" stroke="#a80036" stroke-width="2" r="8"/><path d="M86 46v27M73 54h26M86 73L73 88m13-15l13 15" fill="none" filter="url(#a)" stroke="#a80036" stroke-width="2"/><text font-family="Futura" font-size="14" lengthAdjust="spacingAndGlyphs" textLength="22" x="75" y="109.957">WT</text><path fill="#FEFECE" filter="url(#a)" stroke="#000" stroke-width="1.5" d="M136 50h58v41.594h-58z"/><path fill="#FEFECE" stroke="#000" stroke-width="1.5" d="M177 55v14h12v-8l-6-6h-6z"/><path stroke="#000" stroke-width="1.5" d="M183 55v6M189 61h-6"/><text font-family="Futura" font-size="14" lengthAdjust="spacingAndGlyphs" textLength="28" x="146" y="77.957">SDD</text><path fill="#FEFECE" filter="url(#a)" stroke="#000" stroke-width="1.5" d="M229.5 50h147v41.594h-147z"/><path fill="#FEFECE" stroke="#000" stroke-width="1.5" d="M359.5 55v14h12v-8l-6-6h-6z"/><path stroke="#000" stroke-width="1.5" d="M365.5 55v6M371.5 61h-6"/><text font-family="Futura" font-size="14" lengthAdjust="spacingAndGlyphs" textLength="117" x="239.5" y="77.957">Traceability Matrix</text><path fill="#FEFECE" filter="url(#a)" stroke="#000" stroke-width="1.5" d="M94.5 269h233v41.594h-233z"/><path fill="#FEFECE" stroke="#000" stroke-width="1.5" d="M310.5 274v14h12v-8l-6-6h-6z"/><path stroke="#000" stroke-width="1.5" d="M316.5 274v6M322.5 280h-6"/><text font-family="Futura" font-size="14" lengthAdjust="spacingAndGlyphs" textLength="203" x="104.5" y="296.957">Justification Document (initiated)</text><path fill="#FEFECE" filter="url(#a)" stroke="#000" stroke-width="1.5" d="M407 269h156v41.594H407z"/><path fill="#FEFECE" stroke="#000" stroke-width="1.5" d="M546 274v14h12v-8l-6-6h-6z"/><path stroke="#000" stroke-width="1.5" d="M552 274v6M558 280h-6"/><text font-family="Futura" font-size="14" lengthAdjust="spacingAndGlyphs" textLength="126" x="417" y="296.957">Corrections Register</text><ellipse cx="657.779" cy="191.556" fill="#FEFECE" filter="url(#a)" rx="75.779" ry="17.556" stroke="#a80036" stroke-width="1.5"/><text font-family="Futura" font-size="14" lengthAdjust="spacingAndGlyphs" textLength="112" x="601.779" y="197.353">Evaluate Progress</text><ellipse cx="484.861" cy="191.648" fill="#FEFECE" filter="url(#a)" rx="58.861" ry="16.148" stroke="#a80036" stroke-width="1.5"/><text font-family="Futura" font-size="14" lengthAdjust="spacingAndGlyphs" textLength="79" x="445.361" y="197.445">Address Risk</text><ellipse cx="211.077" cy="191.648" fill="#FEFECE" filter="url(#a)" rx="30.577" ry="16.148" stroke="#a80036" stroke-width="1.5"/><text font-family="Futura" font-size="14" lengthAdjust="spacingAndGlyphs" textLength="39" x="191.577" y="197.445">Justify</text><path d="M585.51 96.555l56.016 73.367" fill="none" stroke="#a80036" stroke-width="2"/><path fill="#A80036" stroke="#a80036" d="M644.751 174.147l-2.282-9.58-.752 5.606-5.606-.752 8.64 4.726z"/><path d="M723.995 94.52l-51.055 75.026" fill="none" stroke="#a80036" stroke-width="2"/><path fill="#A80036" stroke="#a80036" d="M669.974 173.904l8.37-5.19-5.557 1.056-1.056-5.557-1.757 9.69z"/><path d="M658 173.785v-72.187" fill="none" stroke="#a80036" stroke-width="2"/><path fill="#A80036" stroke="#a80036" d="M658 96.555l-4 9 4-4 4 4-4-9z"/><path d="M483.326 90.629l1.32 79.57" fill="none" stroke="#a80036" stroke-width="2"/><path fill="#A80036" stroke="#a80036" d="M484.732 175.355l3.85-9.065-3.933 4.066-4.066-3.933 4.149 8.932z"/><path d="M629.779 96.535c-6.958 5.938-14.504 12.09-21.779 17.465-30.387 22.448-67.29 45.14-92.7 60.118" fill="none" stroke="#a80036" stroke-width="2"/><path fill="#A80036" stroke="#a80036" d="M510.692 176.822l9.787-1.107-5.475-1.424 1.424-5.475-5.736 8.006z"/><path d="M485 207.765v55.792" fill="none" stroke="#a80036" stroke-width="2"/><path fill="#A80036" stroke="#a80036" d="M485 268.896l4-9-4 4-4-4 4 9z"/><path d="M173.118 92.266l29.941 78.433" fill="none" stroke="#a80036" stroke-width="2"/><path fill="#A80036" stroke="#a80036" d="M204.874 175.452l.527-9.835-2.31 5.164-5.164-2.31 6.947 6.98z"/><path d="M286.764 92.266l-61.15 80.092" fill="none" stroke="#a80036" stroke-width="2"/><path fill="#A80036" stroke="#a80036" d="M222.428 176.532l8.64-4.726-5.606.752-.752-5.606-2.282 9.58z"/><path d="M211 207.765v55.792" fill="none" stroke="#a80036" stroke-width="2"/><path fill="#A80036" stroke="#a80036" d="M211 268.896l4-9-4 4-4-4 4 9z"/></svg>