<svg xmlns="http://www.w3.org/2000/svg" height="339" preserveAspectRatio="none" style="width:258px;height:339px" width="258"><defs><filter height="300%" id="a" width="300%" x="-1" y="-1"><feGaussianBlur result="blurOut" stdDeviation="2"/><feColorMatrix in="blurOut" result="blurOut2" values="0 0 0 0 0 0 0 0 0 0 0 0 0 0 0 0 0 0 .4 0"/><feOffset dx="4" dy="4" in="blurOut2" result="blurOut3"/><feBlend in="SourceGraphic" in2="blurOut3"/></filter></defs><path fill="#FFF" filter="url(#a)" stroke="#000" stroke-width="1.5" d="M51 240h190v88H51z"/><path fill="#FFF" stroke="#000" stroke-width="1.5" d="M224 245v14h12v-8l-6-6h-6z"/><path stroke="#000" stroke-width="1.5" d="M230 245v6M236 251h-6"/><text font-family="Futura" font-size="14" font-weight="bold" lengthAdjust="spacingAndGlyphs" textLength="174" x="59" y="256.966">Progress Status Record</text><path fill="#FFF" filter="url(#a)" stroke="#000" stroke-width="1.5" d="M122 16.5h104v88H122z"/><path fill="#FFF" stroke="#000" stroke-width="1.5" d="M209 21.5v14h12v-8l-6-6h-6z"/><path stroke="#000" stroke-width="1.5" d="M215 21.5v6M221 27.5h-6"/><text font-family="Futura" font-size="14" font-weight="bold" lengthAdjust="spacingAndGlyphs" textLength="88" x="130" y="33.466">Project Plan</text><circle cx="206" cy="285" fill="#FEFECE" filter="url(#a)" stroke="#a80036" stroke-width="2" r="12"/><path fill="#A80036" stroke="#a80036" d="M202 273l6-5-2 5 2 5-6-5z"/><text font-family="Futura" font-size="14" lengthAdjust="spacingAndGlyphs" textLength="32" x="190" y="315.957">initial</text><circle cx="124" cy="285" fill="#FEFECE" filter="url(#a)" stroke="#a80036" stroke-width="2" r="12"/><path fill="#A80036" stroke="#a80036" d="M120 273l6-5-2 5 2 5-6-5z"/><text font-family="Futura" font-size="14" lengthAdjust="spacingAndGlyphs" textLength="62" x="93" y="315.957">evaluated</text><circle cx="162" cy="61.5" fill="#FEFECE" filter="url(#a)" stroke="#a80036" stroke-width="2" r="12"/><path fill="#A80036" stroke="#a80036" d="M158 49.5l6-5-2 5 2 5-6-5z"/><text font-family="Futura" font-size="14" lengthAdjust="spacingAndGlyphs" textLength="52" x="136" y="92.457">updated</text><circle cx="21" cy="38" fill="#FEFECE" filter="url(#a)" stroke="#a80036" stroke-width="2" r="8"/><path d="M21 46v27M8 54h26M21 73L8 88m13-15l13 15" fill="none" filter="url(#a)" stroke="#a80036" stroke-width="2"/><text font-family="Futura" font-size="14" lengthAdjust="spacingAndGlyphs" textLength="27" x="7.5" y="109.957">PJM</text><circle cx="86" cy="38" fill="#FEFECE" filter="url(#a)" stroke="#a80036" stroke-width="2" r="8"/><path d="M86 46v27M73 54h26M86 73L73 88m13-15l13 15" fill="none" filter="url(#a)" stroke="#a80036" stroke-width="2"/><text font-family="Futura" font-size="14" lengthAdjust="spacingAndGlyphs" textLength="22" x="75" y="109.957">WT</text><ellipse cx="161.779" cy="191.556" fill="#FEFECE" filter="url(#a)" rx="75.779" ry="17.556" stroke="#a80036" stroke-width="1.5"/><text font-family="Futura" font-size="14" lengthAdjust="spacingAndGlyphs" textLength="112" x="105.779" y="197.353">Evaluate Progress</text><path d="M162 96.555v72.221" fill="none" stroke="#a80036" stroke-width="2"/><path fill="#A80036" stroke="#a80036" d="M162 173.785l4-9-4 4-4-4 4 9z"/><path d="M195.027 268.814l-23.502-55.017" fill="none" stroke="#a80036" stroke-width="2"/><path fill="#A80036" stroke="#a80036" d="M169.464 208.972l-.143 9.848 2.107-5.25 5.25 2.108-7.214-6.706z"/><path d="M155.554 208.972l-20.256 54.904" fill="none" stroke="#a80036" stroke-width="2"/><path fill="#A80036" stroke="#a80036" d="M133.476 268.814l6.869-7.06-5.138 2.369-2.368-5.137.637 9.828z"/></svg>