<svg xmlns="http://www.w3.org/2000/svg" height="298" preserveAspectRatio="none" style="width:393px;height:298px" width="393"><defs><filter height="300%" id="a" width="300%" x="-1" y="-1"><feGaussianBlur result="blurOut" stdDeviation="2"/><feColorMatrix in="blurOut" result="blurOut2" values="0 0 0 0 0 0 0 0 0 0 0 0 0 0 0 0 0 0 .4 0"/><feOffset dx="4" dy="4" in="blurOut2" result="blurOut3"/><feBlend in="SourceGraphic" in2="blurOut3"/></filter></defs><circle cx="21" cy="18" fill="#FEFECE" filter="url(#a)" stroke="#a80036" stroke-width="2" r="8"/><path d="M21 26v27M8 34h26M21 53L8 68m13-15l13 15" fill="none" filter="url(#a)" stroke="#a80036" stroke-width="2"/><text font-family="Futura" font-size="14" lengthAdjust="spacingAndGlyphs" textLength="27" x="7.5" y="89.957">PJM</text><circle cx="86" cy="18" fill="#FEFECE" filter="url(#a)" stroke="#a80036" stroke-width="2" r="8"/><path d="M86 26v27M73 34h26M86 53L73 68m13-15l13 15" fill="none" filter="url(#a)" stroke="#a80036" stroke-width="2"/><text font-family="Futura" font-size="14" lengthAdjust="spacingAndGlyphs" textLength="22" x="75" y="89.957">WT</text><path fill="#FEFECE" filter="url(#a)" stroke="#000" stroke-width="1.5" d="M136 30h58v41.594h-58z"/><path fill="#FEFECE" stroke="#000" stroke-width="1.5" d="M177 35v14h12v-8l-6-6h-6z"/><path stroke="#000" stroke-width="1.5" d="M183 35v6M189 41h-6"/><text font-family="Futura" font-size="14" lengthAdjust="spacingAndGlyphs" textLength="28" x="146" y="57.957">SDD</text><path fill="#FEFECE" filter="url(#a)" stroke="#000" stroke-width="1.5" d="M229.5 30h147v41.594h-147z"/><path fill="#FEFECE" stroke="#000" stroke-width="1.5" d="M359.5 35v14h12v-8l-6-6h-6z"/><path stroke="#000" stroke-width="1.5" d="M365.5 35v6M371.5 41h-6"/><text font-family="Futura" font-size="14" lengthAdjust="spacingAndGlyphs" textLength="117" x="239.5" y="57.957">Traceability Matrix</text><path fill="#FEFECE" filter="url(#a)" stroke="#000" stroke-width="1.5" d="M117.5 246h233v41.594h-233z"/><path fill="#FEFECE" stroke="#000" stroke-width="1.5" d="M333.5 251v14h12v-8l-6-6h-6z"/><path stroke="#000" stroke-width="1.5" d="M339.5 251v6M345.5 257h-6"/><text font-family="Futura" font-size="14" lengthAdjust="spacingAndGlyphs" textLength="203" x="127.5" y="273.957">Justification Document (initiated)</text><ellipse cx="234.077" cy="170.148" fill="#FEFECE" filter="url(#a)" rx="30.577" ry="16.148" stroke="#a80036" stroke-width="1.5"/><text font-family="Futura" font-size="14" lengthAdjust="spacingAndGlyphs" textLength="39" x="214.577" y="175.945">Justify</text><path d="M177.177 72l45.283 78.098" fill="none" stroke="#a80036" stroke-width="2"/><path fill="#A80036" stroke="#a80036" d="M225.019 154.51l-1.055-9.792-1.453 5.467-5.467-1.454 7.975 5.78z"/><path d="M290.823 72l-45.283 78.098" fill="none" stroke="#a80036" stroke-width="2"/><path fill="#A80036" stroke="#a80036" d="M242.981 154.51l7.975-5.779-5.467 1.454-1.453-5.467-1.055 9.793z"/><path d="M234 186.018v54.597" fill="none" stroke="#a80036" stroke-width="2"/><path fill="#A80036" stroke="#a80036" d="M234 245.863l4-9-4 4-4-4 4 9z"/></svg>