<?xml version="1.0" encoding="UTF-8" standalone="no"?><svg xmlns="http://www.w3.org/2000/svg" xmlns:xlink="http://www.w3.org/1999/xlink" contentScriptType="application/ecmascript" contentStyleType="text/css" height="339px" preserveAspectRatio="none" style="width:258px;height:339px;" version="1.1" viewBox="0 0 258 339" width="258px" zoomAndPan="magnify"><defs><filter height="300%" id="fhr1t5z8df4ja" width="300%" x="-1" y="-1"><feGaussianBlur result="blurOut" stdDeviation="2.0"/><feColorMatrix in="blurOut" result="blurOut2" type="matrix" values="0 0 0 0 0 0 0 0 0 0 0 0 0 0 0 0 0 0 .4 0"/><feOffset dx="4.0" dy="4.0" in="blurOut2" result="blurOut3"/><feBlend in="SourceGraphic" in2="blurOut3" mode="normal"/></filter></defs><g><!--cluster Progress Status Record--><rect fill="#FFFFFF" filter="url(#fhr1t5z8df4ja)" height="88" style="stroke: #000000; stroke-width: 1.5;" width="190" x="51" y="240"/><polygon fill="#FFFFFF" points="224,245,224,259,236,259,236,251,230,245,224,245" style="stroke: #000000; stroke-width: 1.5;"/><line style="stroke: #000000; stroke-width: 1.5;" x1="230" x2="230" y1="245" y2="251"/><line style="stroke: #000000; stroke-width: 1.5;" x1="236" x2="230" y1="251" y2="251"/><text fill="#000000" font-family="Futura" font-size="14" font-weight="bold" lengthAdjust="spacingAndGlyphs" textLength="174" x="59" y="256.966">Progress Status Record</text><!--cluster Project Plan--><rect fill="#FFFFFF" filter="url(#fhr1t5z8df4ja)" height="88" style="stroke: #000000; stroke-width: 1.5;" width="104" x="122" y="16.5"/><polygon fill="#FFFFFF" points="209,21.5,209,35.5,221,35.5,221,27.5,215,21.5,209,21.5" style="stroke: #000000; stroke-width: 1.5;"/><line style="stroke: #000000; stroke-width: 1.5;" x1="215" x2="215" y1="21.5" y2="27.5"/><line style="stroke: #000000; stroke-width: 1.5;" x1="221" x2="215" y1="27.5" y2="27.5"/><text fill="#000000" font-family="Futura" font-size="14" font-weight="bold" lengthAdjust="spacingAndGlyphs" textLength="88" x="130" y="33.466">Project Plan</text><!--entity META_PROGRESS--><ellipse cx="206" cy="285" fill="#FEFECE" filter="url(#fhr1t5z8df4ja)" rx="12" ry="12" style="stroke: #A80036; stroke-width: 2.0;"/><polygon fill="#A80036" points="202,273,208,268,206,273,208,278,202,273" style="stroke: #A80036; stroke-width: 1.0;"/><text fill="#000000" font-family="Futura" font-size="14" lengthAdjust="spacingAndGlyphs" textLength="32" x="190" y="315.957">initial</text><!--entity META_PROGRESS_EVALUATED--><ellipse cx="124" cy="285" fill="#FEFECE" filter="url(#fhr1t5z8df4ja)" rx="12" ry="12" style="stroke: #A80036; stroke-width: 2.0;"/><polygon fill="#A80036" points="120,273,126,268,124,273,126,278,120,273" style="stroke: #A80036; stroke-width: 1.0;"/><text fill="#000000" font-family="Futura" font-size="14" lengthAdjust="spacingAndGlyphs" textLength="62" x="93" y="315.957">evaluated</text><!--entity PROD_PP_UPDATED--><ellipse cx="162" cy="61.5" fill="#FEFECE" filter="url(#fhr1t5z8df4ja)" rx="12" ry="12" style="stroke: #A80036; stroke-width: 2.0;"/><polygon fill="#A80036" points="158,49.5,164,44.5,162,49.5,164,54.5,158,49.5" style="stroke: #A80036; stroke-width: 1.0;"/><text fill="#000000" font-family="Futura" font-size="14" lengthAdjust="spacingAndGlyphs" textLength="52" x="136" y="92.457">updated</text><!--entity PJM--><ellipse cx="21" cy="38" fill="#FEFECE" filter="url(#fhr1t5z8df4ja)" rx="8" ry="8" style="stroke: #A80036; stroke-width: 2.0;"/><path d="M21,46 L21,73 M8,54 L34,54 M21,73 L8,88 M21,73 L34,88 " fill="none" filter="url(#fhr1t5z8df4ja)" style="stroke: #A80036; stroke-width: 2.0;"/><text fill="#000000" font-family="Futura" font-size="14" lengthAdjust="spacingAndGlyphs" textLength="27" x="7.5" y="109.957">PJM</text><!--entity WT--><ellipse cx="86" cy="38" fill="#FEFECE" filter="url(#fhr1t5z8df4ja)" rx="8" ry="8" style="stroke: #A80036; stroke-width: 2.0;"/><path d="M86,46 L86,73 M73,54 L99,54 M86,73 L73,88 M86,73 L99,88 " fill="none" filter="url(#fhr1t5z8df4ja)" style="stroke: #A80036; stroke-width: 2.0;"/><text fill="#000000" font-family="Futura" font-size="14" lengthAdjust="spacingAndGlyphs" textLength="22" x="75" y="109.957">WT</text><ellipse cx="161.7791" cy="191.5558" fill="#FEFECE" filter="url(#fhr1t5z8df4ja)" rx="75.7791" ry="17.5558" style="stroke: #A80036; stroke-width: 1.5;"/><text fill="#000000" font-family="Futura" font-size="14" lengthAdjust="spacingAndGlyphs" textLength="112" x="105.7791" y="197.3527">Evaluate Progress</text><!--link PROD_PP_UPDATED to PM3_1--><path d="M162,96.555 C162,117.9541 162,148.2112 162,168.7763 " fill="none" id="PROD_PP_UPDATED-PM3_1" style="stroke: #A80036; stroke-width: 2.0;"/><polygon fill="#A80036" points="162,173.7846,166,164.7846,162,168.7846,158,164.7846,162,173.7846" style="stroke: #A80036; stroke-width: 1.0;"/><!--link META_PROGRESS to PM3_1--><path d="M195.0273,268.8138 C187.8021,251.9005 178.4368,229.9771 171.5251,213.7975 " fill="none" id="META_PROGRESS-PM3_1" style="stroke: #A80036; stroke-width: 2.0;"/><polygon fill="#A80036" points="169.464,208.9725,169.3213,218.8203,171.4283,213.5705,176.6781,215.6775,169.464,208.9725" style="stroke: #A80036; stroke-width: 1.0;"/><!--link PM3_1 to META_PROGRESS_EVALUATED--><path d="M155.5538,208.9725 C150.0182,223.9769 141.9093,245.9563 135.2981,263.8763 " fill="none" id="PM3_1-META_PROGRESS_EVALUATED" style="stroke: #A80036; stroke-width: 2.0;"/><polygon fill="#A80036" points="133.4765,268.8138,140.3445,261.7547,135.2072,264.1229,132.839,258.9856,133.4765,268.8138" style="stroke: #A80036; stroke-width: 1.0;"/><!--
@startuml



skinparam handwritten false
skinparam defaultFontName Futura


actor PJM
actor WT

artifact "Progress Status Record" {
control "initial" as META_PROGRESS
control "evaluated" as META_PROGRESS_EVALUATED
}
artifact "Project Plan" {
control "updated" as PROD_PP_UPDATED
}

usecase "Evaluate Progress" as PM3_1
PROD_PP_UPDATED ==> PM3_1
META_PROGRESS ==> PM3_1
PM3_1 ==> META_PROGRESS_EVALUATED

@enduml

PlantUML version 1.2019.00(Sun Jan 13 07:46:42 PST 2019)
(GPL source distribution)
Java Runtime: Java(TM) SE Runtime Environment
JVM: Java HotSpot(TM) 64-Bit Server VM
Java Version: 10.0.1+10
Operating System: Mac OS X
OS Version: 10.14.3
Default Encoding: UTF-8
Language: en
Country: US
--></g></svg>