<svg xmlns="http://www.w3.org/2000/svg" height="337" preserveAspectRatio="none" style="width:422px;height:337px" width="422"><defs><filter height="300%" id="a" width="300%" x="-1" y="-1"><feGaussianBlur result="blurOut" stdDeviation="2"/><feColorMatrix in="blurOut" result="blurOut2" values="0 0 0 0 0 0 0 0 0 0 0 0 0 0 0 0 0 0 .4 0"/><feOffset dx="4" dy="4" in="blurOut2" result="blurOut3"/><feBlend in="SourceGraphic" in2="blurOut3"/></filter></defs><path fill="#FFF" filter="url(#a)" stroke="#000" stroke-width="1.5" d="M223.5 16.5h104v76h-104z"/><path fill="#FFF" stroke="#000" stroke-width="1.5" d="M310.5 21.5v14h12v-8l-6-6h-6z"/><path stroke="#000" stroke-width="1.5" d="M316.5 21.5v6M322.5 27.5h-6"/><text font-family="Futura" font-size="14" font-weight="bold" lengthAdjust="spacingAndGlyphs" textLength="88" x="231.5" y="33.466">Project Plan</text><path fill="#FFF" filter="url(#a)" stroke="#000" stroke-width="1.5" d="M238.5 238h167v88h-167z"/><path fill="#FFF" stroke="#000" stroke-width="1.5" d="M388.5 243v14h12v-8l-6-6h-6z"/><path stroke="#000" stroke-width="1.5" d="M394.5 243v6M400.5 249h-6"/><text font-family="Futura" font-size="14" font-weight="bold" lengthAdjust="spacingAndGlyphs" textLength="57" x="293.5" y="254.966">Product</text><path fill="#FEFECE" filter="url(#a)" stroke="#a80036" stroke-width="1.5" d="M239.5 45.5h72v38.594h-72z"/><path fill="#FEFECE" stroke="#a80036" stroke-width="1.5" d="M234.5 50.5h10v5h-10zM234.5 74.094h10v5h-10z"/><text font-family="Futura" font-size="14" lengthAdjust="spacingAndGlyphs" textLength="52" x="249.5" y="70.457">Delivery</text><circle cx="368.5" cy="283" fill="#FEFECE" filter="url(#a)" stroke="#a80036" stroke-width="2" r="12"/><path fill="#A80036" stroke="#a80036" d="M364.5 271l6-5-2 5 2 5-6-5z"/><text font-family="Futura" font-size="14" lengthAdjust="spacingAndGlyphs" textLength="58" x="339.5" y="313.957">delivered</text><circle cx="275.5" cy="283" fill="#FEFECE" filter="url(#a)" stroke="#a80036" stroke-width="2" r="12"/><path fill="#A80036" stroke="#a80036" d="M271.5 271l6-5-2 5 2 5-6-5z"/><text font-family="Futura" font-size="14" lengthAdjust="spacingAndGlyphs" textLength="58" x="246.5" y="313.957">accepted</text><circle cx="120.5" cy="32" fill="#FEFECE" filter="url(#a)" stroke="#a80036" stroke-width="2" r="8"/><path d="M120.5 40v27m-13-19h26m-13 19l-13 15m13-15l13 15" fill="none" filter="url(#a)" stroke="#a80036" stroke-width="2"/><text font-family="Futura" font-size="14" lengthAdjust="spacingAndGlyphs" textLength="27" x="107" y="103.957">PJM</text><circle cx="187.5" cy="32" fill="#FEFECE" filter="url(#a)" stroke="#a80036" stroke-width="2" r="8"/><path d="M187.5 40v27m-13-19h26m-13 19l-13 15m13-15l13 15" fill="none" filter="url(#a)" stroke="#a80036" stroke-width="2"/><text font-family="Futura" font-size="14" lengthAdjust="spacingAndGlyphs" textLength="33" x="171" y="103.957">ACQ</text><path fill="#FEFECE" filter="url(#a)" stroke="#000" stroke-width="1.5" d="M6 271.5h205v41.594H6z"/><path fill="#FEFECE" stroke="#000" stroke-width="1.5" d="M194 276.5v14h12v-8l-6-6h-6z"/><path stroke="#000" stroke-width="1.5" d="M200 276.5v6M206 282.5h-6"/><text font-family="Futura" font-size="14" lengthAdjust="spacingAndGlyphs" textLength="175" x="16" y="299.457">Product Acceptance Record</text><ellipse cx="275.37" cy="187.474" fill="#FEFECE" filter="url(#a)" rx="85.37" ry="19.474" stroke="#a80036" stroke-width="1.5"/><text font-family="Futura" font-size="14" lengthAdjust="spacingAndGlyphs" textLength="136" x="207.37" y="193.271">Formalize Completion</text><path d="M275.5 84.682v78.16" fill="none" stroke="#a80036" stroke-width="2"/><path fill="#A80036" stroke="#a80036" d="M275.5 167.867l4-9-4 4-4-4 4 9z"/><path d="M347.223 266.773c-7.694-9.165-16.51-19.508-24.723-28.773-7.92-8.935-16.799-18.569-24.688-27.002" fill="none" stroke="#a80036" stroke-width="2"/><path fill="#A80036" stroke="#a80036" d="M294.026 206.962l3.24 9.301.181-5.654 5.654.181-9.075-3.828z"/><path d="M246.028 206.03l-99.677 62.672" fill="none" stroke="#a80036" stroke-width="2"/><path fill="#A80036" stroke="#a80036" d="M141.98 271.45l9.749-1.405-5.516-1.257 1.257-5.515-5.49 8.176z"/><path d="M275.5 207.25v54.313" fill="none" stroke="#a80036" stroke-width="2"/><path fill="#A80036" stroke="#a80036" d="M275.5 266.877l4-9-4 4-4-4 4 9z"/></svg>