<?xml version="1.0" encoding="UTF-8" standalone="no"?><svg xmlns="http://www.w3.org/2000/svg" xmlns:xlink="http://www.w3.org/1999/xlink" contentScriptType="application/ecmascript" contentStyleType="text/css" height="597px" preserveAspectRatio="none" style="width:585px;height:597px;" version="1.1" viewBox="0 0 585 597" width="585px" zoomAndPan="magnify"><defs><filter height="300%" id="f1slp8i2vxt3wc" width="300%" x="-1" y="-1"><feGaussianBlur result="blurOut" stdDeviation="2.0"/><feColorMatrix in="blurOut" result="blurOut2" type="matrix" values="0 0 0 0 0 0 0 0 0 0 0 0 0 0 0 0 0 0 .4 0"/><feOffset dx="4.0" dy="4.0" in="blurOut2" result="blurOut3"/><feBlend in="SourceGraphic" in2="blurOut3" mode="normal"/></filter></defs><g><!--cluster Project Repository--><rect fill="#FFFFFF" filter="url(#f1slp8i2vxt3wc)" height="88" style="stroke: #000000; stroke-width: 1.5;" width="163" x="236.5" y="498"/><polygon fill="#FFFFFF" points="382.5,503,382.5,517,394.5,517,394.5,509,388.5,503,382.5,503" style="stroke: #000000; stroke-width: 1.5;"/><line style="stroke: #000000; stroke-width: 1.5;" x1="388.5" x2="388.5" y1="503" y2="509"/><line style="stroke: #000000; stroke-width: 1.5;" x1="394.5" x2="388.5" y1="509" y2="509"/><text fill="#000000" font-family="Futura" font-size="14" font-weight="bold" lengthAdjust="spacingAndGlyphs" textLength="138" x="249" y="514.966">Project Repository</text><!--cluster Project Plan--><rect fill="#FFFFFF" filter="url(#f1slp8i2vxt3wc)" height="88" style="stroke: #000000; stroke-width: 1.5;" width="181" x="242.5" y="16.5"/><polygon fill="#FFFFFF" points="406.5,21.5,406.5,35.5,418.5,35.5,418.5,27.5,412.5,21.5,406.5,21.5" style="stroke: #000000; stroke-width: 1.5;"/><line style="stroke: #000000; stroke-width: 1.5;" x1="412.5" x2="412.5" y1="21.5" y2="27.5"/><line style="stroke: #000000; stroke-width: 1.5;" x1="418.5" x2="412.5" y1="27.5" y2="27.5"/><text fill="#000000" font-family="Futura" font-size="14" font-weight="bold" lengthAdjust="spacingAndGlyphs" textLength="88" x="289" y="33.466">Project Plan</text><!--cluster Product--><rect fill="#FFFFFF" filter="url(#f1slp8i2vxt3wc)" height="88" style="stroke: #000000; stroke-width: 1.5;" width="167" x="238.5" y="291"/><polygon fill="#FFFFFF" points="388.5,296,388.5,310,400.5,310,400.5,302,394.5,296,388.5,296" style="stroke: #000000; stroke-width: 1.5;"/><line style="stroke: #000000; stroke-width: 1.5;" x1="394.5" x2="394.5" y1="296" y2="302"/><line style="stroke: #000000; stroke-width: 1.5;" x1="400.5" x2="394.5" y1="302" y2="302"/><text fill="#000000" font-family="Futura" font-size="14" font-weight="bold" lengthAdjust="spacingAndGlyphs" textLength="57" x="293.5" y="307.966">Product</text><!--entity PROD_REPO_UPDATED--><ellipse cx="365.5" cy="543" fill="#FEFECE" filter="url(#f1slp8i2vxt3wc)" rx="12" ry="12" style="stroke: #A80036; stroke-width: 2.0;"/><polygon fill="#A80036" points="361.5,531,367.5,526,365.5,531,367.5,536,361.5,531" style="stroke: #A80036; stroke-width: 1.0;"/><text fill="#000000" font-family="Futura" font-size="14" lengthAdjust="spacingAndGlyphs" textLength="52" x="339.5" y="573.957">updated</text><!--entity PROD_REPO_BASELINED--><ellipse cx="274.5" cy="543" fill="#FEFECE" filter="url(#f1slp8i2vxt3wc)" rx="12" ry="12" style="stroke: #A80036; stroke-width: 2.0;"/><polygon fill="#A80036" points="270.5,531,276.5,526,274.5,531,276.5,536,270.5,531" style="stroke: #A80036; stroke-width: 1.0;"/><text fill="#000000" font-family="Futura" font-size="14" lengthAdjust="spacingAndGlyphs" textLength="60" x="244.5" y="573.957">baselined</text><!--entity PROD_PP_DI--><rect fill="#FEFECE" filter="url(#f1slp8i2vxt3wc)" height="38.5938" style="stroke: #A80036; stroke-width: 1.5;" width="72" x="250.5" y="51.5"/><rect fill="#FEFECE" height="5" style="stroke: #A80036; stroke-width: 1.5;" width="10" x="245.5" y="56.5"/><rect fill="#FEFECE" height="5" style="stroke: #A80036; stroke-width: 1.5;" width="10" x="245.5" y="80.0938"/><text fill="#000000" font-family="Futura" font-size="14" lengthAdjust="spacingAndGlyphs" textLength="52" x="260.5" y="76.457">Delivery</text><!--entity PROD_PP--><ellipse cx="386.5" cy="61.5" fill="#FEFECE" filter="url(#f1slp8i2vxt3wc)" rx="12" ry="12" style="stroke: #A80036; stroke-width: 2.0;"/><polygon fill="#A80036" points="382.5,49.5,388.5,44.5,386.5,49.5,388.5,54.5,382.5,49.5" style="stroke: #A80036; stroke-width: 1.0;"/><text fill="#000000" font-family="Futura" font-size="14" lengthAdjust="spacingAndGlyphs" textLength="58" x="357.5" y="92.457">accepted</text><!--entity PROD_PRODUCT_DELIVERED--><ellipse cx="368.5" cy="336" fill="#FEFECE" filter="url(#f1slp8i2vxt3wc)" rx="12" ry="12" style="stroke: #A80036; stroke-width: 2.0;"/><polygon fill="#A80036" points="364.5,324,370.5,319,368.5,324,370.5,329,364.5,324" style="stroke: #A80036; stroke-width: 1.0;"/><text fill="#000000" font-family="Futura" font-size="14" lengthAdjust="spacingAndGlyphs" textLength="58" x="339.5" y="366.957">delivered</text><!--entity PROD_PRODUCT_ACCEPTED--><ellipse cx="275.5" cy="336" fill="#FEFECE" filter="url(#f1slp8i2vxt3wc)" rx="12" ry="12" style="stroke: #A80036; stroke-width: 2.0;"/><polygon fill="#A80036" points="271.5,324,277.5,319,275.5,324,277.5,329,271.5,324" style="stroke: #A80036; stroke-width: 1.0;"/><text fill="#000000" font-family="Futura" font-size="14" lengthAdjust="spacingAndGlyphs" textLength="58" x="246.5" y="366.957">accepted</text><!--entity PJM--><ellipse cx="131.5" cy="38" fill="#FEFECE" filter="url(#f1slp8i2vxt3wc)" rx="8" ry="8" style="stroke: #A80036; stroke-width: 2.0;"/><path d="M131.5,46 L131.5,73 M118.5,54 L144.5,54 M131.5,73 L118.5,88 M131.5,73 L144.5,88 " fill="none" filter="url(#f1slp8i2vxt3wc)" style="stroke: #A80036; stroke-width: 2.0;"/><text fill="#000000" font-family="Futura" font-size="14" lengthAdjust="spacingAndGlyphs" textLength="27" x="118" y="109.957">PJM</text><!--entity ACQ--><ellipse cx="198.5" cy="38" fill="#FEFECE" filter="url(#f1slp8i2vxt3wc)" rx="8" ry="8" style="stroke: #A80036; stroke-width: 2.0;"/><path d="M198.5,46 L198.5,73 M185.5,54 L211.5,54 M198.5,73 L185.5,88 M198.5,73 L211.5,88 " fill="none" filter="url(#f1slp8i2vxt3wc)" style="stroke: #A80036; stroke-width: 2.0;"/><text fill="#000000" font-family="Futura" font-size="14" lengthAdjust="spacingAndGlyphs" textLength="33" x="182" y="109.957">ACQ</text><!--entity WT--><ellipse cx="131.5" cy="184" fill="#FEFECE" filter="url(#f1slp8i2vxt3wc)" rx="8" ry="8" style="stroke: #A80036; stroke-width: 2.0;"/><path d="M131.5,192 L131.5,219 M118.5,200 L144.5,200 M131.5,219 L118.5,234 M131.5,219 L144.5,234 " fill="none" filter="url(#f1slp8i2vxt3wc)" style="stroke: #A80036; stroke-width: 2.0;"/><text fill="#000000" font-family="Futura" font-size="14" lengthAdjust="spacingAndGlyphs" textLength="22" x="120.5" y="255.957">WT</text><!--entity PROD_DISPOSED--><rect fill="#FEFECE" filter="url(#f1slp8i2vxt3wc)" height="41.5938" style="stroke: #000000; stroke-width: 1.5;" width="136" x="432.5" y="324.5"/><polygon fill="#FEFECE" points="551.5,329.5,551.5,343.5,563.5,343.5,563.5,335.5,557.5,329.5,551.5,329.5" style="stroke: #000000; stroke-width: 1.5;"/><line style="stroke: #000000; stroke-width: 1.5;" x1="557.5" x2="557.5" y1="329.5" y2="335.5"/><line style="stroke: #000000; stroke-width: 1.5;" x1="563.5" x2="557.5" y1="335.5" y2="335.5"/><text fill="#000000" font-family="Futura" font-size="14" lengthAdjust="spacingAndGlyphs" textLength="106" x="442.5" y="352.457">Disposed System</text><!--entity PROD_ACCEPTANCE--><rect fill="#FEFECE" filter="url(#f1slp8i2vxt3wc)" height="41.5938" style="stroke: #000000; stroke-width: 1.5;" width="205" x="6" y="324.5"/><polygon fill="#FEFECE" points="194,329.5,194,343.5,206,343.5,206,335.5,200,329.5,194,329.5" style="stroke: #000000; stroke-width: 1.5;"/><line style="stroke: #000000; stroke-width: 1.5;" x1="200" x2="200" y1="329.5" y2="335.5"/><line style="stroke: #000000; stroke-width: 1.5;" x1="206" x2="200" y1="335.5" y2="335.5"/><text fill="#000000" font-family="Futura" font-size="14" lengthAdjust="spacingAndGlyphs" textLength="175" x="16" y="352.457">Product Acceptance Record</text><ellipse cx="276.3699" cy="216.974" fill="#FEFECE" filter="url(#f1slp8i2vxt3wc)" rx="85.3699" ry="19.474" style="stroke: #A80036; stroke-width: 1.5;"/><text fill="#000000" font-family="Futura" font-size="14" lengthAdjust="spacingAndGlyphs" textLength="136" x="208.3699" y="222.7709">Formalize Completion</text><ellipse cx="275.329" cy="448.8658" fill="#FEFECE" filter="url(#f1slp8i2vxt3wc)" rx="77.329" ry="17.8658" style="stroke: #A80036; stroke-width: 1.5;"/><text fill="#000000" font-family="Futura" font-size="14" lengthAdjust="spacingAndGlyphs" textLength="116" x="217.329" y="454.6627">Update Repository</text><ellipse cx="467.6482" cy="217.1478" fill="#FEFECE" filter="url(#f1slp8i2vxt3wc)" rx="37.6482" ry="16.1478" style="stroke: #A80036; stroke-width: 1.5;"/><text fill="#000000" font-family="Futura" font-size="14" lengthAdjust="spacingAndGlyphs" textLength="49" x="443.1482" y="222.9446">Dispose</text><!--link PROD_PP_DI to PM4_1--><path d="M285.1514,90.6902 C283.3546,116.9226 280.1747,163.3491 278.2111,192.0179 " fill="none" id="PROD_PP_DI-PM4_1" style="stroke: #A80036; stroke-width: 2.0;"/><polygon fill="#A80036" points="277.8592,197.1555,282.4652,188.45,278.2011,192.1672,274.4839,187.9031,277.8592,197.1555" style="stroke: #A80036; stroke-width: 1.0;"/><!--link PROD_PRODUCT_DELIVERED to PM4_1--><path d="M349.9343,319.5686 C333.4551,296.5514 309.5742,263.196 293.5651,240.8356 " fill="none" id="PROD_PRODUCT_DELIVERED-PM4_1" style="stroke: #A80036; stroke-width: 2.0;"/><polygon fill="#A80036" points="290.4728,236.5164,292.4596,246.1628,293.3834,240.5819,298.9644,241.5057,290.4728,236.5164" style="stroke: #A80036; stroke-width: 1.0;"/><!--link PM4_1 to PROD_ACCEPTANCE--><path d="M251.711,235.9606 C222.1862,258.5436 172.8044,296.3148 140.4416,321.0685 " fill="none" id="PM4_1-PROD_ACCEPTANCE" style="stroke: #A80036; stroke-width: 2.0;"/><polygon fill="#A80036" points="136.1888,324.3213,145.7676,322.0306,140.1602,321.2836,140.9072,315.6763,136.1888,324.3213" style="stroke: #A80036; stroke-width: 1.0;"/><!--link PM4_1 to PROD_PRODUCT_ACCEPTED--><path d="M276.3481,236.5164 C276.1869,257.2294 275.9299,290.2562 275.741,314.5294 " fill="none" id="PM4_1-PROD_PRODUCT_ACCEPTED" style="stroke: #A80036; stroke-width: 2.0;"/><polygon fill="#A80036" points="275.7018,319.5686,279.7719,310.6001,275.7408,314.5688,271.7721,310.5377,275.7018,319.5686" style="stroke: #A80036; stroke-width: 1.0;"/><!--link PROD_PRODUCT_ACCEPTED to PM4_2--><path d="M275.5,371.0843 C275.5,387.7568 275.5,409.3464 275.5,425.57 " fill="none" id="PROD_PRODUCT_ACCEPTED-PM4_2" style="stroke: #A80036; stroke-width: 2.0;"/><polygon fill="#A80036" points="275.5,430.8514,279.5,421.8514,275.5,425.8514,271.5,421.8514,275.5,430.8514" style="stroke: #A80036; stroke-width: 1.0;"/><!--link PROD_REPO_UPDATED to PM4_2--><path d="M346.088,526.8532 C338.8715,517.6012 330.4924,507.1813 322.5,498 C314.5186,488.8313 305.3406,479.098 297.2253,470.743 " fill="none" id="PROD_REPO_UPDATED-PM4_2" style="stroke: #A80036; stroke-width: 2.0;"/><polygon fill="#A80036" points="293.3367,466.7606,296.7624,475.9945,296.8298,470.338,302.4863,470.4055,293.3367,466.7606" style="stroke: #A80036; stroke-width: 1.0;"/><!--link PM4_2 to PROD_REPO_BASELINED--><path d="M275.3258,467.0283 C275.1808,482.0397 274.971,503.7561 274.7991,521.5422 " fill="none" id="PM4_2-PROD_REPO_BASELINED" style="stroke: #A80036; stroke-width: 2.0;"/><polygon fill="#A80036" points="274.7471,526.924,278.8341,517.9632,274.7955,521.9242,270.8345,517.8857,274.7471,526.924" style="stroke: #A80036; stroke-width: 1.0;"/><!--link PROD_PP to PM4_3--><path d="M400.7947,96.7658 C416.6144,125.2802 441.7823,170.6447 456.2573,196.7354 " fill="none" id="PROD_PP-PM4_3" style="stroke: #A80036; stroke-width: 2.0;"/><polygon fill="#A80036" points="458.831,201.3744,457.9622,191.5639,456.4052,197.0023,450.9668,195.4453,458.831,201.3744" style="stroke: #A80036; stroke-width: 1.0;"/><!--link PM4_3 to PROD_DISPOSED--><path d="M471.6127,233.0148 C477.1524,254.586 487.0822,293.2519 493.7313,319.1432 " fill="none" id="PM4_3-PROD_DISPOSED" style="stroke: #A80036; stroke-width: 2.0;"/><polygon fill="#A80036" points="495.0151,324.1422,496.6507,314.4301,493.7714,319.2994,488.9021,316.42,495.0151,324.1422" style="stroke: #A80036; stroke-width: 1.0;"/><!--link PJM to ACQ--><!--link PJM to WT--><!--
@startuml



skinparam handwritten false
skinparam defaultFontName Futura


actor PJM
actor ACQ
actor WT

artifact "Project Repository" {
control "updated" as PROD_REPO_UPDATED
control "baselined" as PROD_REPO_BASELINED
}
artifact "Project Plan" {
component "Delivery" as PROD_PP_DI
control "accepted" as PROD_PP
}
artifact "Product" {
control "delivered" as PROD_PRODUCT_DELIVERED
control "accepted" as PROD_PRODUCT_ACCEPTED
}
artifact "Disposed System" as PROD_DISPOSED
artifact "Product Acceptance Record" as PROD_ACCEPTANCE

usecase "Formalize Completion" as PM4_1
PROD_PP_DI ==> PM4_1
PROD_PRODUCT_DELIVERED ==> PM4_1
PM4_1 ==> PROD_ACCEPTANCE
PM4_1 ==> PROD_PRODUCT_ACCEPTED

usecase "Update Repository" as PM4_2
PROD_PRODUCT_ACCEPTED ==> PM4_2
PROD_REPO_UPDATED ==> PM4_2
PM4_2 ==> PROD_REPO_BASELINED

usecase "Dispose" as PM4_3
PROD_PP ==> PM4_3
PM4_3 ==> PROD_DISPOSED

@enduml

PlantUML version 1.2019.00(Sun Jan 13 07:46:42 PST 2019)
(GPL source distribution)
Java Runtime: Java(TM) SE Runtime Environment
JVM: Java HotSpot(TM) 64-Bit Server VM
Java Version: 10.0.1+10
Operating System: Mac OS X
OS Version: 10.14.3
Default Encoding: UTF-8
Language: en
Country: US
--></g></svg>