<svg xmlns="http://www.w3.org/2000/svg" height="597" preserveAspectRatio="none" style="width:585px;height:597px" width="585"><defs><filter height="300%" id="a" width="300%" x="-1" y="-1"><feGaussianBlur result="blurOut" stdDeviation="2"/><feColorMatrix in="blurOut" result="blurOut2" values="0 0 0 0 0 0 0 0 0 0 0 0 0 0 0 0 0 0 .4 0"/><feOffset dx="4" dy="4" in="blurOut2" result="blurOut3"/><feBlend in="SourceGraphic" in2="blurOut3"/></filter></defs><path fill="#FFF" filter="url(#a)" stroke="#000" stroke-width="1.5" d="M236.5 498h163v88h-163z"/><path fill="#FFF" stroke="#000" stroke-width="1.5" d="M382.5 503v14h12v-8l-6-6h-6z"/><path stroke="#000" stroke-width="1.5" d="M388.5 503v6M394.5 509h-6"/><text font-family="Futura" font-size="14" font-weight="bold" lengthAdjust="spacingAndGlyphs" textLength="138" x="249" y="514.966">Project Repository</text><path fill="#FFF" filter="url(#a)" stroke="#000" stroke-width="1.5" d="M242.5 16.5h181v88h-181z"/><path fill="#FFF" stroke="#000" stroke-width="1.5" d="M406.5 21.5v14h12v-8l-6-6h-6z"/><path stroke="#000" stroke-width="1.5" d="M412.5 21.5v6M418.5 27.5h-6"/><text font-family="Futura" font-size="14" font-weight="bold" lengthAdjust="spacingAndGlyphs" textLength="88" x="289" y="33.466">Project Plan</text><path fill="#FFF" filter="url(#a)" stroke="#000" stroke-width="1.5" d="M238.5 291h167v88h-167z"/><path fill="#FFF" stroke="#000" stroke-width="1.5" d="M388.5 296v14h12v-8l-6-6h-6z"/><path stroke="#000" stroke-width="1.5" d="M394.5 296v6M400.5 302h-6"/><text font-family="Futura" font-size="14" font-weight="bold" lengthAdjust="spacingAndGlyphs" textLength="57" x="293.5" y="307.966">Product</text><circle cx="365.5" cy="543" fill="#FEFECE" filter="url(#a)" stroke="#a80036" stroke-width="2" r="12"/><path fill="#A80036" stroke="#a80036" d="M361.5 531l6-5-2 5 2 5-6-5z"/><text font-family="Futura" font-size="14" lengthAdjust="spacingAndGlyphs" textLength="52" x="339.5" y="573.957">updated</text><circle cx="274.5" cy="543" fill="#FEFECE" filter="url(#a)" stroke="#a80036" stroke-width="2" r="12"/><path fill="#A80036" stroke="#a80036" d="M270.5 531l6-5-2 5 2 5-6-5z"/><text font-family="Futura" font-size="14" lengthAdjust="spacingAndGlyphs" textLength="60" x="244.5" y="573.957">baselined</text><path fill="#FEFECE" filter="url(#a)" stroke="#a80036" stroke-width="1.5" d="M250.5 51.5h72v38.594h-72z"/><path fill="#FEFECE" stroke="#a80036" stroke-width="1.5" d="M245.5 56.5h10v5h-10zM245.5 80.094h10v5h-10z"/><text font-family="Futura" font-size="14" lengthAdjust="spacingAndGlyphs" textLength="52" x="260.5" y="76.457">Delivery</text><circle cx="386.5" cy="61.5" fill="#FEFECE" filter="url(#a)" stroke="#a80036" stroke-width="2" r="12"/><path fill="#A80036" stroke="#a80036" d="M382.5 49.5l6-5-2 5 2 5-6-5z"/><text font-family="Futura" font-size="14" lengthAdjust="spacingAndGlyphs" textLength="58" x="357.5" y="92.457">accepted</text><circle cx="368.5" cy="336" fill="#FEFECE" filter="url(#a)" stroke="#a80036" stroke-width="2" r="12"/><path fill="#A80036" stroke="#a80036" d="M364.5 324l6-5-2 5 2 5-6-5z"/><text font-family="Futura" font-size="14" lengthAdjust="spacingAndGlyphs" textLength="58" x="339.5" y="366.957">delivered</text><circle cx="275.5" cy="336" fill="#FEFECE" filter="url(#a)" stroke="#a80036" stroke-width="2" r="12"/><path fill="#A80036" stroke="#a80036" d="M271.5 324l6-5-2 5 2 5-6-5z"/><text font-family="Futura" font-size="14" lengthAdjust="spacingAndGlyphs" textLength="58" x="246.5" y="366.957">accepted</text><circle cx="131.5" cy="38" fill="#FEFECE" filter="url(#a)" stroke="#a80036" stroke-width="2" r="8"/><path d="M131.5 46v27m-13-19h26m-13 19l-13 15m13-15l13 15" fill="none" filter="url(#a)" stroke="#a80036" stroke-width="2"/><text font-family="Futura" font-size="14" lengthAdjust="spacingAndGlyphs" textLength="27" x="118" y="109.957">PJM</text><circle cx="198.5" cy="38" fill="#FEFECE" filter="url(#a)" stroke="#a80036" stroke-width="2" r="8"/><path d="M198.5 46v27m-13-19h26m-13 19l-13 15m13-15l13 15" fill="none" filter="url(#a)" stroke="#a80036" stroke-width="2"/><text font-family="Futura" font-size="14" lengthAdjust="spacingAndGlyphs" textLength="33" x="182" y="109.957">ACQ</text><circle cx="131.5" cy="184" fill="#FEFECE" filter="url(#a)" stroke="#a80036" stroke-width="2" r="8"/><path d="M131.5 192v27m-13-19h26m-13 19l-13 15m13-15l13 15" fill="none" filter="url(#a)" stroke="#a80036" stroke-width="2"/><text font-family="Futura" font-size="14" lengthAdjust="spacingAndGlyphs" textLength="22" x="120.5" y="255.957">WT</text><path fill="#FEFECE" filter="url(#a)" stroke="#000" stroke-width="1.5" d="M432.5 324.5h136v41.594h-136z"/><path fill="#FEFECE" stroke="#000" stroke-width="1.5" d="M551.5 329.5v14h12v-8l-6-6h-6z"/><path stroke="#000" stroke-width="1.5" d="M557.5 329.5v6M563.5 335.5h-6"/><text font-family="Futura" font-size="14" lengthAdjust="spacingAndGlyphs" textLength="106" x="442.5" y="352.457">Disposed System</text><path fill="#FEFECE" filter="url(#a)" stroke="#000" stroke-width="1.5" d="M6 324.5h205v41.594H6z"/><path fill="#FEFECE" stroke="#000" stroke-width="1.5" d="M194 329.5v14h12v-8l-6-6h-6z"/><path stroke="#000" stroke-width="1.5" d="M200 329.5v6M206 335.5h-6"/><text font-family="Futura" font-size="14" lengthAdjust="spacingAndGlyphs" textLength="175" x="16" y="352.457">Product Acceptance Record</text><ellipse cx="276.37" cy="216.974" fill="#FEFECE" filter="url(#a)" rx="85.37" ry="19.474" stroke="#a80036" stroke-width="1.5"/><text font-family="Futura" font-size="14" lengthAdjust="spacingAndGlyphs" textLength="136" x="208.37" y="222.771">Formalize Completion</text><ellipse cx="275.329" cy="448.866" fill="#FEFECE" filter="url(#a)" rx="77.329" ry="17.866" stroke="#a80036" stroke-width="1.5"/><text font-family="Futura" font-size="14" lengthAdjust="spacingAndGlyphs" textLength="116" x="217.329" y="454.663">Update Repository</text><ellipse cx="467.648" cy="217.148" fill="#FEFECE" filter="url(#a)" rx="37.648" ry="16.148" stroke="#a80036" stroke-width="1.5"/><text font-family="Futura" font-size="14" lengthAdjust="spacingAndGlyphs" textLength="49" x="443.148" y="222.945">Dispose</text><path d="M285.151 90.69l-6.94 101.328" fill="none" stroke="#a80036" stroke-width="2"/><path fill="#A80036" stroke="#a80036" d="M277.86 197.155l4.605-8.705-4.264 3.717-3.717-4.264 3.375 9.252z"/><path d="M349.934 319.569l-56.369-78.733" fill="none" stroke="#a80036" stroke-width="2"/><path fill="#A80036" stroke="#a80036" d="M290.473 236.516l1.987 9.647.923-5.581 5.581.924-8.491-4.99z"/><path d="M251.711 235.96l-111.27 85.108" fill="none" stroke="#a80036" stroke-width="2"/><path fill="#A80036" stroke="#a80036" d="M136.189 324.321l9.579-2.29-5.608-.747.747-5.608-4.718 8.645z"/><path d="M276.348 236.516l-.607 78.013" fill="none" stroke="#a80036" stroke-width="2"/><path fill="#A80036" stroke="#a80036" d="M275.702 319.569l4.07-8.969-4.031 3.969-3.969-4.031 3.93 9.03z"/><path d="M275.5 371.084v54.486" fill="none" stroke="#a80036" stroke-width="2"/><path fill="#A80036" stroke="#a80036" d="M275.5 430.851l4-9-4 4-4-4 4 9z"/><path d="M346.088 526.853c-7.216-9.252-15.596-19.672-23.588-28.853-7.981-9.169-17.16-18.902-25.275-27.257" fill="none" stroke="#a80036" stroke-width="2"/><path fill="#A80036" stroke="#a80036" d="M293.337 466.76l3.425 9.235.068-5.657 5.656.067-9.15-3.644z"/><path d="M275.326 467.028l-.527 54.514" fill="none" stroke="#a80036" stroke-width="2"/><path fill="#A80036" stroke="#a80036" d="M274.747 526.924l4.087-8.96-4.038 3.96-3.962-4.038 3.913 9.038z"/><path d="M400.795 96.766l55.462 99.97" fill="none" stroke="#a80036" stroke-width="2"/><path fill="#A80036" stroke="#a80036" d="M458.831 201.374l-.869-9.81-1.557 5.438-5.438-1.557 7.864 5.93z"/><path d="M471.613 233.015l22.118 86.128" fill="none" stroke="#a80036" stroke-width="2"/><path fill="#A80036" stroke="#a80036" d="M495.015 324.142l1.636-9.712-2.88 4.87-4.869-2.88 6.113 7.722z"/></svg>