<svg xmlns="http://www.w3.org/2000/svg" height="340" preserveAspectRatio="none" style="width:263px;height:340px" width="263"><defs><filter height="300%" id="a" width="300%" x="-1" y="-1"><feGaussianBlur result="blurOut" stdDeviation="2"/><feColorMatrix in="blurOut" result="blurOut2" values="0 0 0 0 0 0 0 0 0 0 0 0 0 0 0 0 0 0 .4 0"/><feOffset dx="4" dy="4" in="blurOut2" result="blurOut3"/><feBlend in="SourceGraphic" in2="blurOut3"/></filter></defs><path fill="#FFF" filter="url(#a)" stroke="#000" stroke-width="1.5" d="M83 241h163v88H83z"/><path fill="#FFF" stroke="#000" stroke-width="1.5" d="M229 246v14h12v-8l-6-6h-6z"/><path stroke="#000" stroke-width="1.5" d="M235 246v6M241 252h-6"/><text font-family="Futura" font-size="14" font-weight="bold" lengthAdjust="spacingAndGlyphs" textLength="138" x="95.5" y="257.966">Project Repository</text><path fill="#FFF" filter="url(#a)" stroke="#000" stroke-width="1.5" d="M128 16.5h74v88h-74z"/><path fill="#FFF" stroke="#000" stroke-width="1.5" d="M185 21.5v14h12v-8l-6-6h-6z"/><path stroke="#000" stroke-width="1.5" d="M191 21.5v6M197 27.5h-6"/><text font-family="Futura" font-size="14" font-weight="bold" lengthAdjust="spacingAndGlyphs" textLength="57" x="136.5" y="33.466">Product</text><circle cx="212" cy="286" fill="#FEFECE" filter="url(#a)" stroke="#a80036" stroke-width="2" r="12"/><path fill="#A80036" stroke="#a80036" d="M208 274l6-5-2 5 2 5-6-5z"/><text font-family="Futura" font-size="14" lengthAdjust="spacingAndGlyphs" textLength="52" x="186" y="316.957">updated</text><circle cx="121" cy="286" fill="#FEFECE" filter="url(#a)" stroke="#a80036" stroke-width="2" r="12"/><path fill="#A80036" stroke="#a80036" d="M117 274l6-5-2 5 2 5-6-5z"/><text font-family="Futura" font-size="14" lengthAdjust="spacingAndGlyphs" textLength="60" x="91" y="316.957">baselined</text><circle cx="165" cy="61.5" fill="#FEFECE" filter="url(#a)" stroke="#a80036" stroke-width="2" r="12"/><path fill="#A80036" stroke="#a80036" d="M161 49.5l6-5-2 5 2 5-6-5z"/><text font-family="Futura" font-size="14" lengthAdjust="spacingAndGlyphs" textLength="58" x="136" y="92.457">accepted</text><circle cx="21" cy="38" fill="#FEFECE" filter="url(#a)" stroke="#a80036" stroke-width="2" r="8"/><path d="M21 46v27M8 54h26M21 73L8 88m13-15l13 15" fill="none" filter="url(#a)" stroke="#a80036" stroke-width="2"/><text font-family="Futura" font-size="14" lengthAdjust="spacingAndGlyphs" textLength="27" x="7.5" y="109.957">PJM</text><circle cx="86" cy="38" fill="#FEFECE" filter="url(#a)" stroke="#a80036" stroke-width="2" r="8"/><path d="M86 46v27M73 54h26M86 73L73 88m13-15l13 15" fill="none" filter="url(#a)" stroke="#a80036" stroke-width="2"/><text font-family="Futura" font-size="14" lengthAdjust="spacingAndGlyphs" textLength="22" x="75" y="109.957">WT</text><ellipse cx="164.829" cy="191.866" fill="#FEFECE" filter="url(#a)" rx="77.329" ry="17.866" stroke="#a80036" stroke-width="1.5"/><text font-family="Futura" font-size="14" lengthAdjust="spacingAndGlyphs" textLength="116" x="106.829" y="197.663">Update Repository</text><path d="M165 96.661v72.151" fill="none" stroke="#a80036" stroke-width="2"/><path fill="#A80036" stroke="#a80036" d="M165 173.844l4-9-4 4-4-4 4 9z"/><path d="M200.386 269.924l-24.991-55.033" fill="none" stroke="#a80036" stroke-width="2"/><path fill="#A80036" stroke="#a80036" d="M173.187 210.028l.08 9.849 1.987-5.296 5.296 1.988-7.363-6.54z"/><path d="M157.336 210.028l-23.37 54.973" fill="none" stroke="#a80036" stroke-width="2"/><path fill="#A80036" stroke="#a80036" d="M131.873 269.924l7.202-6.718-5.246 2.116-2.116-5.246.16 9.848z"/></svg>