<?xml version="1.0" encoding="UTF-8" standalone="no"?><svg xmlns="http://www.w3.org/2000/svg" xmlns:xlink="http://www.w3.org/1999/xlink" contentScriptType="application/ecmascript" contentStyleType="text/css" height="318px" preserveAspectRatio="none" style="width:260px;height:318px;" version="1.1" viewBox="0 0 260 318" width="260px" zoomAndPan="magnify"><defs><filter height="300%" id="fa8gr3dlak7bb" width="300%" x="-1" y="-1"><feGaussianBlur result="blurOut" stdDeviation="2.0"/><feColorMatrix in="blurOut" result="blurOut2" type="matrix" values="0 0 0 0 0 0 0 0 0 0 0 0 0 0 0 0 0 0 .4 0"/><feOffset dx="4.0" dy="4.0" in="blurOut2" result="blurOut3"/><feBlend in="SourceGraphic" in2="blurOut3" mode="normal"/></filter></defs><g><!--cluster Project Plan--><rect fill="#FFFFFF" filter="url(#fa8gr3dlak7bb)" height="88" style="stroke: #000000; stroke-width: 1.5;" width="104" x="118" y="16.5"/><polygon fill="#FFFFFF" points="205,21.5,205,35.5,217,35.5,217,27.5,211,21.5,205,21.5" style="stroke: #000000; stroke-width: 1.5;"/><line style="stroke: #000000; stroke-width: 1.5;" x1="211" x2="211" y1="21.5" y2="27.5"/><line style="stroke: #000000; stroke-width: 1.5;" x1="217" x2="211" y1="27.5" y2="27.5"/><text fill="#000000" font-family="Futura" font-size="14" font-weight="bold" lengthAdjust="spacingAndGlyphs" textLength="88" x="126" y="33.466">Project Plan</text><!--entity PROD_PP--><ellipse cx="175" cy="61.5" fill="#FEFECE" filter="url(#fa8gr3dlak7bb)" rx="12" ry="12" style="stroke: #A80036; stroke-width: 2.0;"/><polygon fill="#A80036" points="171,49.5,177,44.5,175,49.5,177,54.5,171,49.5" style="stroke: #A80036; stroke-width: 1.0;"/><text fill="#000000" font-family="Futura" font-size="14" lengthAdjust="spacingAndGlyphs" textLength="58" x="146" y="92.457">accepted</text><!--entity PJM--><ellipse cx="21" cy="38" fill="#FEFECE" filter="url(#fa8gr3dlak7bb)" rx="8" ry="8" style="stroke: #A80036; stroke-width: 2.0;"/><path d="M21,46 L21,73 M8,54 L34,54 M21,73 L8,88 M21,73 L34,88 " fill="none" filter="url(#fa8gr3dlak7bb)" style="stroke: #A80036; stroke-width: 2.0;"/><text fill="#000000" font-family="Futura" font-size="14" lengthAdjust="spacingAndGlyphs" textLength="27" x="7.5" y="109.957">PJM</text><!--entity WT--><ellipse cx="86" cy="38" fill="#FEFECE" filter="url(#fa8gr3dlak7bb)" rx="8" ry="8" style="stroke: #A80036; stroke-width: 2.0;"/><path d="M86,46 L86,73 M73,54 L99,54 M86,73 L73,88 M86,73 L99,88 " fill="none" filter="url(#fa8gr3dlak7bb)" style="stroke: #A80036; stroke-width: 2.0;"/><text fill="#000000" font-family="Futura" font-size="14" lengthAdjust="spacingAndGlyphs" textLength="22" x="75" y="109.957">WT</text><!--entity PROD_DISPOSED--><rect fill="#FEFECE" filter="url(#fa8gr3dlak7bb)" height="41.5938" style="stroke: #000000; stroke-width: 1.5;" width="136" x="107" y="266"/><polygon fill="#FEFECE" points="226,271,226,285,238,285,238,277,232,271,226,271" style="stroke: #000000; stroke-width: 1.5;"/><line style="stroke: #000000; stroke-width: 1.5;" x1="232" x2="232" y1="271" y2="277"/><line style="stroke: #000000; stroke-width: 1.5;" x1="238" x2="232" y1="277" y2="277"/><text fill="#000000" font-family="Futura" font-size="14" lengthAdjust="spacingAndGlyphs" textLength="106" x="117" y="293.957">Disposed System</text><ellipse cx="175.1482" cy="190.1478" fill="#FEFECE" filter="url(#fa8gr3dlak7bb)" rx="37.6482" ry="16.1478" style="stroke: #A80036; stroke-width: 1.5;"/><text fill="#000000" font-family="Futura" font-size="14" lengthAdjust="spacingAndGlyphs" textLength="49" x="150.6482" y="195.9446">Dispose</text><!--link PROD_PP to PM4_3--><path d="M175,96.5285 C175,117.9688 175,148.2595 175,168.4857 " fill="none" id="PROD_PP-PM4_3" style="stroke: #A80036; stroke-width: 2.0;"/><polygon fill="#A80036" points="175,173.6535,179,164.6535,175,168.6535,171,164.6535,175,173.6535" style="stroke: #A80036; stroke-width: 1.0;"/><!--link PM4_3 to PROD_DISPOSED--><path d="M175,206.0176 C175,220.8422 175,243.1604 175,260.6154 " fill="none" id="PM4_3-PROD_DISPOSED" style="stroke: #A80036; stroke-width: 2.0;"/><polygon fill="#A80036" points="175,265.8627,179,256.8627,175,260.8627,171,256.8627,175,265.8627" style="stroke: #A80036; stroke-width: 1.0;"/><!--
@startuml



skinparam handwritten false
skinparam defaultFontName Futura


actor PJM
actor WT

artifact "Project Plan" {
control "accepted" as PROD_PP
}
artifact "Disposed System" as PROD_DISPOSED

usecase "Dispose" as PM4_3
PROD_PP ==> PM4_3
PM4_3 ==> PROD_DISPOSED

@enduml

PlantUML version 1.2019.00(Sun Jan 13 07:46:42 PST 2019)
(GPL source distribution)
Java Runtime: Java(TM) SE Runtime Environment
JVM: Java HotSpot(TM) 64-Bit Server VM
Java Version: 10.0.1+10
Operating System: Mac OS X
OS Version: 10.14.3
Default Encoding: UTF-8
Language: en
Country: US
--></g></svg>