<?xml version="1.0" encoding="UTF-8" standalone="no"?><svg xmlns="http://www.w3.org/2000/svg" xmlns:xlink="http://www.w3.org/1999/xlink" contentScriptType="application/ecmascript" contentStyleType="text/css" height="340px" preserveAspectRatio="none" style="width:263px;height:340px;" version="1.1" viewBox="0 0 263 340" width="263px" zoomAndPan="magnify"><defs><filter height="300%" id="f1vks9au7k0r6g" width="300%" x="-1" y="-1"><feGaussianBlur result="blurOut" stdDeviation="2.0"/><feColorMatrix in="blurOut" result="blurOut2" type="matrix" values="0 0 0 0 0 0 0 0 0 0 0 0 0 0 0 0 0 0 .4 0"/><feOffset dx="4.0" dy="4.0" in="blurOut2" result="blurOut3"/><feBlend in="SourceGraphic" in2="blurOut3" mode="normal"/></filter></defs><g><!--cluster Project Repository--><rect fill="#FFFFFF" filter="url(#f1vks9au7k0r6g)" height="88" style="stroke: #000000; stroke-width: 1.5;" width="163" x="83" y="241"/><polygon fill="#FFFFFF" points="229,246,229,260,241,260,241,252,235,246,229,246" style="stroke: #000000; stroke-width: 1.5;"/><line style="stroke: #000000; stroke-width: 1.5;" x1="235" x2="235" y1="246" y2="252"/><line style="stroke: #000000; stroke-width: 1.5;" x1="241" x2="235" y1="252" y2="252"/><text fill="#000000" font-family="Futura" font-size="14" font-weight="bold" lengthAdjust="spacingAndGlyphs" textLength="138" x="95.5" y="257.966">Project Repository</text><!--cluster Product--><rect fill="#FFFFFF" filter="url(#f1vks9au7k0r6g)" height="88" style="stroke: #000000; stroke-width: 1.5;" width="74" x="128" y="16.5"/><polygon fill="#FFFFFF" points="185,21.5,185,35.5,197,35.5,197,27.5,191,21.5,185,21.5" style="stroke: #000000; stroke-width: 1.5;"/><line style="stroke: #000000; stroke-width: 1.5;" x1="191" x2="191" y1="21.5" y2="27.5"/><line style="stroke: #000000; stroke-width: 1.5;" x1="197" x2="191" y1="27.5" y2="27.5"/><text fill="#000000" font-family="Futura" font-size="14" font-weight="bold" lengthAdjust="spacingAndGlyphs" textLength="57" x="136.5" y="33.466">Product</text><!--entity PROD_REPO_UPDATED--><ellipse cx="212" cy="286" fill="#FEFECE" filter="url(#f1vks9au7k0r6g)" rx="12" ry="12" style="stroke: #A80036; stroke-width: 2.0;"/><polygon fill="#A80036" points="208,274,214,269,212,274,214,279,208,274" style="stroke: #A80036; stroke-width: 1.0;"/><text fill="#000000" font-family="Futura" font-size="14" lengthAdjust="spacingAndGlyphs" textLength="52" x="186" y="316.957">updated</text><!--entity PROD_REPO_BASELINED--><ellipse cx="121" cy="286" fill="#FEFECE" filter="url(#f1vks9au7k0r6g)" rx="12" ry="12" style="stroke: #A80036; stroke-width: 2.0;"/><polygon fill="#A80036" points="117,274,123,269,121,274,123,279,117,274" style="stroke: #A80036; stroke-width: 1.0;"/><text fill="#000000" font-family="Futura" font-size="14" lengthAdjust="spacingAndGlyphs" textLength="60" x="91" y="316.957">baselined</text><!--entity PROD_PRODUCT_ACCEPTED--><ellipse cx="165" cy="61.5" fill="#FEFECE" filter="url(#f1vks9au7k0r6g)" rx="12" ry="12" style="stroke: #A80036; stroke-width: 2.0;"/><polygon fill="#A80036" points="161,49.5,167,44.5,165,49.5,167,54.5,161,49.5" style="stroke: #A80036; stroke-width: 1.0;"/><text fill="#000000" font-family="Futura" font-size="14" lengthAdjust="spacingAndGlyphs" textLength="58" x="136" y="92.457">accepted</text><!--entity PJM--><ellipse cx="21" cy="38" fill="#FEFECE" filter="url(#f1vks9au7k0r6g)" rx="8" ry="8" style="stroke: #A80036; stroke-width: 2.0;"/><path d="M21,46 L21,73 M8,54 L34,54 M21,73 L8,88 M21,73 L34,88 " fill="none" filter="url(#f1vks9au7k0r6g)" style="stroke: #A80036; stroke-width: 2.0;"/><text fill="#000000" font-family="Futura" font-size="14" lengthAdjust="spacingAndGlyphs" textLength="27" x="7.5" y="109.957">PJM</text><!--entity WT--><ellipse cx="86" cy="38" fill="#FEFECE" filter="url(#f1vks9au7k0r6g)" rx="8" ry="8" style="stroke: #A80036; stroke-width: 2.0;"/><path d="M86,46 L86,73 M73,54 L99,54 M86,73 L73,88 M86,73 L99,88 " fill="none" filter="url(#f1vks9au7k0r6g)" style="stroke: #A80036; stroke-width: 2.0;"/><text fill="#000000" font-family="Futura" font-size="14" lengthAdjust="spacingAndGlyphs" textLength="22" x="75" y="109.957">WT</text><ellipse cx="164.829" cy="191.8658" fill="#FEFECE" filter="url(#f1vks9au7k0r6g)" rx="77.329" ry="17.8658" style="stroke: #A80036; stroke-width: 1.5;"/><text fill="#000000" font-family="Futura" font-size="14" lengthAdjust="spacingAndGlyphs" textLength="116" x="106.829" y="197.6627">Update Repository</text><!--link PROD_PRODUCT_ACCEPTED to PM4_2--><path d="M165,96.661 C165,118.0211 165,148.1702 165,168.8122 " fill="none" id="PROD_PRODUCT_ACCEPTED-PM4_2" style="stroke: #A80036; stroke-width: 2.0;"/><polygon fill="#A80036" points="165,173.8442,169,164.8442,165,168.8442,161,164.8442,165,173.8442" style="stroke: #A80036; stroke-width: 1.0;"/><!--link PROD_REPO_UPDATED to PM4_2--><path d="M200.3858,269.924 C192.73,253.0649 182.7897,231.1753 175.3947,214.8905 " fill="none" id="PROD_REPO_UPDATED-PM4_2" style="stroke: #A80036; stroke-width: 2.0;"/><polygon fill="#A80036" points="173.1868,210.0283,173.2661,219.8768,175.2542,214.5809,180.5502,216.569,173.1868,210.0283" style="stroke: #A80036; stroke-width: 1.0;"/><!--link PM4_2 to PROD_REPO_BASELINED--><path d="M157.3358,210.0283 C150.8991,225.1691 141.5627,247.131 133.9656,265.0013 " fill="none" id="PM4_2-PROD_REPO_BASELINED" style="stroke: #A80036; stroke-width: 2.0;"/><polygon fill="#A80036" points="131.8729,269.924,139.0752,263.2063,133.8291,265.3225,131.7128,260.0764,131.8729,269.924" style="stroke: #A80036; stroke-width: 1.0;"/><!--
@startuml



skinparam handwritten false
skinparam defaultFontName Futura


actor PJM
actor WT

artifact "Project Repository" {
control "updated" as PROD_REPO_UPDATED
control "baselined" as PROD_REPO_BASELINED
}
artifact "Product" {
control "accepted" as PROD_PRODUCT_ACCEPTED
}

usecase "Update Repository" as PM4_2
PROD_PRODUCT_ACCEPTED ==> PM4_2
PROD_REPO_UPDATED ==> PM4_2
PM4_2 ==> PROD_REPO_BASELINED

@enduml

PlantUML version 1.2019.00(Sun Jan 13 07:46:42 PST 2019)
(GPL source distribution)
Java Runtime: Java(TM) SE Runtime Environment
JVM: Java HotSpot(TM) 64-Bit Server VM
Java Version: 10.0.1+10
Operating System: Mac OS X
OS Version: 10.14.3
Default Encoding: UTF-8
Language: en
Country: US
--></g></svg>