<svg xmlns="http://www.w3.org/2000/svg" height="318" preserveAspectRatio="none" style="width:260px;height:318px" width="260"><defs><filter height="300%" id="a" width="300%" x="-1" y="-1"><feGaussianBlur result="blurOut" stdDeviation="2"/><feColorMatrix in="blurOut" result="blurOut2" values="0 0 0 0 0 0 0 0 0 0 0 0 0 0 0 0 0 0 .4 0"/><feOffset dx="4" dy="4" in="blurOut2" result="blurOut3"/><feBlend in="SourceGraphic" in2="blurOut3"/></filter></defs><path fill="#FFF" filter="url(#a)" stroke="#000" stroke-width="1.5" d="M118 16.5h104v88H118z"/><path fill="#FFF" stroke="#000" stroke-width="1.5" d="M205 21.5v14h12v-8l-6-6h-6z"/><path stroke="#000" stroke-width="1.5" d="M211 21.5v6M217 27.5h-6"/><text font-family="Futura" font-size="14" font-weight="bold" lengthAdjust="spacingAndGlyphs" textLength="88" x="126" y="33.466">Project Plan</text><circle cx="175" cy="61.5" fill="#FEFECE" filter="url(#a)" stroke="#a80036" stroke-width="2" r="12"/><path fill="#A80036" stroke="#a80036" d="M171 49.5l6-5-2 5 2 5-6-5z"/><text font-family="Futura" font-size="14" lengthAdjust="spacingAndGlyphs" textLength="58" x="146" y="92.457">accepted</text><circle cx="21" cy="38" fill="#FEFECE" filter="url(#a)" stroke="#a80036" stroke-width="2" r="8"/><path d="M21 46v27M8 54h26M21 73L8 88m13-15l13 15" fill="none" filter="url(#a)" stroke="#a80036" stroke-width="2"/><text font-family="Futura" font-size="14" lengthAdjust="spacingAndGlyphs" textLength="27" x="7.5" y="109.957">PJM</text><circle cx="86" cy="38" fill="#FEFECE" filter="url(#a)" stroke="#a80036" stroke-width="2" r="8"/><path d="M86 46v27M73 54h26M86 73L73 88m13-15l13 15" fill="none" filter="url(#a)" stroke="#a80036" stroke-width="2"/><text font-family="Futura" font-size="14" lengthAdjust="spacingAndGlyphs" textLength="22" x="75" y="109.957">WT</text><path fill="#FEFECE" filter="url(#a)" stroke="#000" stroke-width="1.5" d="M107 266h136v41.594H107z"/><path fill="#FEFECE" stroke="#000" stroke-width="1.5" d="M226 271v14h12v-8l-6-6h-6z"/><path stroke="#000" stroke-width="1.5" d="M232 271v6M238 277h-6"/><text font-family="Futura" font-size="14" lengthAdjust="spacingAndGlyphs" textLength="106" x="117" y="293.957">Disposed System</text><ellipse cx="175.148" cy="190.148" fill="#FEFECE" filter="url(#a)" rx="37.648" ry="16.148" stroke="#a80036" stroke-width="1.5"/><text font-family="Futura" font-size="14" lengthAdjust="spacingAndGlyphs" textLength="49" x="150.648" y="195.945">Dispose</text><path d="M175 96.528v71.958" fill="none" stroke="#a80036" stroke-width="2"/><path fill="#A80036" stroke="#a80036" d="M175 173.654l4-9-4 4-4-4 4 9z"/><path d="M175 206.018v54.597" fill="none" stroke="#a80036" stroke-width="2"/><path fill="#A80036" stroke="#a80036" d="M175 265.863l4-9-4 4-4-4 4 9z"/></svg>