<?xml version="1.0" encoding="UTF-8" standalone="no"?><svg xmlns="http://www.w3.org/2000/svg" xmlns:xlink="http://www.w3.org/1999/xlink" contentScriptType="application/ecmascript" contentStyleType="text/css" height="89px" preserveAspectRatio="none" style="width:655px;height:89px;" version="1.1" viewBox="0 0 655 89" width="655px" zoomAndPan="magnify"><defs><filter height="300%" id="fqhkcxv8789m" width="300%" x="-1" y="-1"><feGaussianBlur result="blurOut" stdDeviation="2.0"/><feColorMatrix in="blurOut" result="blurOut2" type="matrix" values="0 0 0 0 0 0 0 0 0 0 0 0 0 0 0 0 0 0 .4 0"/><feOffset dx="4.0" dy="4.0" in="blurOut2" result="blurOut3"/><feBlend in="SourceGraphic" in2="blurOut3" mode="normal"/></filter></defs><g><ellipse cx="16" cy="43" fill="#000000" filter="url(#fqhkcxv8789m)" rx="10" ry="10" style="stroke: none; stroke-width: 1.0;"/><rect fill="#FEFECE" filter="url(#fqhkcxv8789m)" height="54.5313" rx="12.5" ry="12.5" style="stroke: #A80036; stroke-width: 1.5;" width="90" x="113" y="15.5"/><line style="stroke: #A80036; stroke-width: 1.5;" x1="113" x2="203" y1="44.0938" y2="44.0938"/><text fill="#000000" font-family="Futura" font-size="14" lengthAdjust="spacingAndGlyphs" textLength="70" x="123" y="35.457">established</text><text fill="#000000" font-family="Futura" font-size="12" lengthAdjust="spacingAndGlyphs" textLength="23" x="118" y="61.9141">PJM</text><rect fill="#FEFECE" filter="url(#fqhkcxv8789m)" height="54.5313" rx="12.5" ry="12.5" style="stroke: #A80036; stroke-width: 1.5;" width="72" x="290" y="15.5"/><line style="stroke: #A80036; stroke-width: 1.5;" x1="290" x2="362" y1="44.0938" y2="44.0938"/><text fill="#000000" font-family="Futura" font-size="14" lengthAdjust="spacingAndGlyphs" textLength="52" x="300" y="35.457">updated</text><text fill="#000000" font-family="Futura" font-size="12" lengthAdjust="spacingAndGlyphs" textLength="23" x="295" y="61.9141">PJM</text><rect fill="#FEFECE" filter="url(#fqhkcxv8789m)" height="70.4688" rx="12.5" ry="12.5" style="stroke: #A80036; stroke-width: 1.5;" width="80" x="444" y="8"/><line style="stroke: #A80036; stroke-width: 1.5;" x1="444" x2="524" y1="36.5938" y2="36.5938"/><text fill="#000000" font-family="Futura" font-size="14" lengthAdjust="spacingAndGlyphs" textLength="60" x="454" y="27.957">baselined</text><text fill="#000000" font-family="Futura" font-size="12" lengthAdjust="spacingAndGlyphs" textLength="23" x="449" y="54.4141">PJM</text><text fill="#000000" font-family="Futura" font-size="12" lengthAdjust="spacingAndGlyphs" textLength="19" x="449" y="70.3516">WT</text><rect fill="#FEFECE" filter="url(#fqhkcxv8789m)" height="54.5313" rx="12.5" ry="12.5" style="stroke: #A80036; stroke-width: 1.5;" width="84" x="559" y="15.5"/><line style="stroke: #A80036; stroke-width: 1.5;" x1="559" x2="643" y1="44.0938" y2="44.0938"/><text fill="#000000" font-family="Futura" font-size="14" lengthAdjust="spacingAndGlyphs" textLength="64" x="569" y="35.457">recovered</text><text fill="#000000" font-family="Futura" font-size="12" lengthAdjust="spacingAndGlyphs" textLength="23" x="564" y="61.9141">PJM</text><!--link *start to established--><path d="M26.2123,43 C43.1646,43 78.1901,43 107.8732,43 " fill="none" id="*start-established" style="stroke: #A80036; stroke-width: 1.0;"/><polygon fill="#A80036" points="112.9667,43,103.9667,39,107.9667,43,103.9667,47,112.9667,43" style="stroke: #A80036; stroke-width: 1.0;"/><text fill="#000000" font-family="Futura" font-size="13" lengthAdjust="spacingAndGlyphs" textLength="50" x="44.5" y="35.8887">Establish</text><!--link established to updated--><path d="M203.0209,43 C228.4282,43 259.9487,43 284.7171,43 " fill="none" id="established-updated" style="stroke: #A80036; stroke-width: 1.0;"/><polygon fill="#A80036" points="289.8953,43,280.8953,39,284.8953,43,280.8953,47,289.8953,43" style="stroke: #A80036; stroke-width: 1.0;"/><text fill="#000000" font-family="Futura" font-size="13" lengthAdjust="spacingAndGlyphs" textLength="50" x="221.5" y="35.8887">Manage</text><!--link updated to baselined--><path d="M362.2484,43 C384.9587,43 414.4142,43 438.6641,43 " fill="none" id="updated-baselined" style="stroke: #A80036; stroke-width: 1.0;"/><polygon fill="#A80036" points="443.7555,43,434.7555,39,438.7555,43,434.7555,47,443.7555,43" style="stroke: #A80036; stroke-width: 1.0;"/><text fill="#000000" font-family="Futura" font-size="13" lengthAdjust="spacingAndGlyphs" textLength="45" x="380.5" y="35.8887">Update</text><!--
@startuml



skinparam handwritten false
skinparam defaultFontName Futura

skinparam handwritten false

[*] -> established : Establish
established : PJM
established -> updated : Manage
updated: PJM
updated -> baselined : Update
baselined: PJM
baselined: WT
state recovered
recovered: PJM

@enduml

PlantUML version 1.2019.00(Sun Jan 13 07:46:42 PST 2019)
(GPL source distribution)
Java Runtime: Java(TM) SE Runtime Environment
JVM: Java HotSpot(TM) 64-Bit Server VM
Java Version: 10.0.1+10
Operating System: Mac OS X
OS Version: 10.14.3
Default Encoding: UTF-8
Language: en
Country: US
--></g></svg>