<svg xmlns="http://www.w3.org/2000/svg" height="89" preserveAspectRatio="none" style="width:489px;height:89px" width="489"><defs><filter height="300%" id="a" width="300%" x="-1" y="-1"><feGaussianBlur result="blurOut" stdDeviation="2"/><feColorMatrix in="blurOut" result="blurOut2" values="0 0 0 0 0 0 0 0 0 0 0 0 0 0 0 0 0 0 .4 0"/><feOffset dx="4" dy="4" in="blurOut2" result="blurOut3"/><feBlend in="SourceGraphic" in2="blurOut3"/></filter></defs><circle cx="16" cy="43" filter="url(#a)" r="10"/><rect fill="#FEFECE" filter="url(#a)" height="70.469" rx="12.5" ry="12.5" width="52" x="121" y="8" stroke="#a80036" stroke-width="1.5"/><path stroke="#a80036" stroke-width="1.5" d="M121 36.594h52"/><text font-family="Futura" font-size="14" lengthAdjust="spacingAndGlyphs" textLength="32" x="131" y="27.957">initial</text><text font-family="Futura" font-size="12" lengthAdjust="spacingAndGlyphs" textLength="24" x="126" y="54.414">DEV</text><text font-family="Futura" font-size="12" lengthAdjust="spacingAndGlyphs" textLength="21" x="126" y="70.352">SYS</text><rect fill="#FEFECE" filter="url(#a)" height="70.469" rx="12.5" ry="12.5" width="77" x="284.5" y="8" stroke="#a80036" stroke-width="1.5"/><path stroke="#a80036" stroke-width="1.5" d="M284.5 36.594h77"/><text font-family="Futura" font-size="14" lengthAdjust="spacingAndGlyphs" textLength="57" x="294.5" y="27.957">validated</text><text font-family="Futura" font-size="12" lengthAdjust="spacingAndGlyphs" textLength="23" x="289.5" y="54.414">PJM</text><text font-family="Futura" font-size="12" lengthAdjust="spacingAndGlyphs" textLength="19" x="289.5" y="70.352">WT</text><rect fill="#FEFECE" filter="url(#a)" height="50" rx="12.5" ry="12.5" width="80" x="397" y="18" stroke="#a80036" stroke-width="1.5"/><path stroke="#a80036" stroke-width="1.5" d="M397 46.594h80"/><text font-family="Futura" font-size="14" lengthAdjust="spacingAndGlyphs" textLength="60" x="407" y="37.957">baselined</text><path d="M26.28 43h89.398" fill="none" stroke="#a80036"/><path fill="#A80036" stroke="#a80036" d="M120.938 43l-9-4 4 4-4 4 9-4z"/><text font-family="Futura" font-size="13" lengthAdjust="spacingAndGlyphs" textLength="58" x="44.5" y="35.889">Elaborate</text><path d="M173.349 43h105.813" fill="none" stroke="#a80036"/><path fill="#A80036" stroke="#a80036" d="M284.397 43l-9-4 4 4-4 4 9-4z"/><text font-family="Futura" font-size="13" lengthAdjust="spacingAndGlyphs" textLength="75" x="191.25" y="35.889">Verify SysRS</text><path d="M361.742 43h29.79" fill="none" stroke="#a80036"/><path fill="#A80036" stroke="#a80036" d="M396.725 43l-9-4 4 4-4 4 9-4z"/></svg>