<svg xmlns="http://www.w3.org/2000/svg" height="370" preserveAspectRatio="none" style="width:906px;height:370px" width="906"><defs><filter height="300%" id="a" width="300%" x="-1" y="-1"><feGaussianBlur result="blurOut" stdDeviation="2"/><feColorMatrix in="blurOut" result="blurOut2" values="0 0 0 0 0 0 0 0 0 0 0 0 0 0 0 0 0 0 .4 0"/><feOffset dx="4" dy="4" in="blurOut2" result="blurOut3"/><feBlend in="SourceGraphic" in2="blurOut3"/></filter></defs><path fill="#FFF" filter="url(#a)" stroke="#000" stroke-width="1.5" d="M731 271h158v88H731z"/><path fill="#FFF" stroke="#000" stroke-width="1.5" d="M872 276v14h12v-8l-6-6h-6z"/><path stroke="#000" stroke-width="1.5" d="M878 276v6M884 282h-6"/><text font-family="Futura" font-size="14" font-weight="bold" lengthAdjust="spacingAndGlyphs" textLength="36" x="792" y="287.966">SERS</text><path fill="#FFF" filter="url(#a)" stroke="#000" stroke-width="1.5" d="M390 271h239v88H390z"/><path fill="#FFF" stroke="#000" stroke-width="1.5" d="M612 276v14h12v-8l-6-6h-6z"/><path stroke="#000" stroke-width="1.5" d="M618 276v6M624 282h-6"/><text font-family="Futura" font-size="14" font-weight="bold" lengthAdjust="spacingAndGlyphs" textLength="45" x="487" y="287.966">SysRS</text><circle cx="856" cy="316" fill="#FEFECE" filter="url(#a)" stroke="#a80036" stroke-width="2" r="12"/><path fill="#A80036" stroke="#a80036" d="M852 304l6-5-2 5 2 5-6-5z"/><text font-family="Futura" font-size="14" lengthAdjust="spacingAndGlyphs" textLength="49" x="831.5" y="346.957">initiated</text><circle cx="768" cy="316" fill="#FEFECE" filter="url(#a)" stroke="#a80036" stroke-width="2" r="12"/><path fill="#A80036" stroke="#a80036" d="M764 304l6-5-2 5 2 5-6-5z"/><text font-family="Futura" font-size="14" lengthAdjust="spacingAndGlyphs" textLength="57" x="739.5" y="346.957">validated</text><circle cx="515" cy="316" fill="#FEFECE" filter="url(#a)" stroke="#a80036" stroke-width="2" r="12"/><path fill="#A80036" stroke="#a80036" d="M511 304l6-5-2 5 2 5-6-5z"/><text font-family="Futura" font-size="14" lengthAdjust="spacingAndGlyphs" textLength="49" x="490.5" y="346.957">initiated</text><circle cx="598" cy="316" fill="#FEFECE" filter="url(#a)" stroke="#a80036" stroke-width="2" r="12"/><path fill="#A80036" stroke="#a80036" d="M594 304l6-5-2 5 2 5-6-5z"/><text font-family="Futura" font-size="14" lengthAdjust="spacingAndGlyphs" textLength="46" x="575" y="346.957">verified</text><circle cx="427" cy="316" fill="#FEFECE" filter="url(#a)" stroke="#a80036" stroke-width="2" r="12"/><path fill="#A80036" stroke="#a80036" d="M423 304l6-5-2 5 2 5-6-5z"/><text font-family="Futura" font-size="14" lengthAdjust="spacingAndGlyphs" textLength="57" x="398.5" y="346.957">validated</text><circle cx="21" cy="18" fill="#FEFECE" filter="url(#a)" stroke="#a80036" stroke-width="2" r="8"/><path d="M21 26v27M8 34h26M21 53L8 68m13-15l13 15" fill="none" filter="url(#a)" stroke="#a80036" stroke-width="2"/><text font-family="Futura" font-size="14" lengthAdjust="spacingAndGlyphs" textLength="24" x="9" y="89.957">SYS</text><circle cx="86" cy="18" fill="#FEFECE" filter="url(#a)" stroke="#a80036" stroke-width="2" r="8"/><path d="M86 26v27M73 34h26M86 53L73 68m13-15l13 15" fill="none" filter="url(#a)" stroke="#a80036" stroke-width="2"/><text font-family="Futura" font-size="14" lengthAdjust="spacingAndGlyphs" textLength="26" x="73" y="89.957">DES</text><circle cx="151" cy="18" fill="#FEFECE" filter="url(#a)" stroke="#a80036" stroke-width="2" r="8"/><path d="M151 26v27m-13-19h26m-13 19l-13 15m13-15l13 15" fill="none" filter="url(#a)" stroke="#a80036" stroke-width="2"/><text font-family="Futura" font-size="14" lengthAdjust="spacingAndGlyphs" textLength="27" x="137.5" y="89.957">PJM</text><circle cx="21" cy="164" fill="#FEFECE" filter="url(#a)" stroke="#a80036" stroke-width="2" r="8"/><path d="M21 172v27M8 180h26m-13 19L8 214m13-15l13 15" fill="none" filter="url(#a)" stroke="#a80036" stroke-width="2"/><text font-family="Futura" font-size="14" lengthAdjust="spacingAndGlyphs" textLength="22" x="10" y="235.957">WT</text><circle cx="88" cy="164" fill="#FEFECE" filter="url(#a)" stroke="#a80036" stroke-width="2" r="8"/><path d="M88 172v27m-13-19h26m-13 19l-13 15m13-15l13 15" fill="none" filter="url(#a)" stroke="#a80036" stroke-width="2"/><text font-family="Futura" font-size="14" lengthAdjust="spacingAndGlyphs" textLength="33" x="71.5" y="235.957">ACQ</text><circle cx="155" cy="164" fill="#FEFECE" filter="url(#a)" stroke="#a80036" stroke-width="2" r="8"/><path d="M155 172v27m-13-19h26m-13 19l-13 15m13-15l13 15" fill="none" filter="url(#a)" stroke="#a80036" stroke-width="2"/><text font-family="Futura" font-size="14" lengthAdjust="spacingAndGlyphs" textLength="24" x="143" y="235.957">STK</text><path fill="#FEFECE" filter="url(#a)" stroke="#000" stroke-width="1.5" d="M359.5 30h129v41.594h-129z"/><path fill="#FEFECE" stroke="#000" stroke-width="1.5" d="M471.5 35v14h12v-8l-6-6h-6z"/><path stroke="#000" stroke-width="1.5" d="M477.5 35v6M483.5 41h-6"/><text font-family="Futura" font-size="14" lengthAdjust="spacingAndGlyphs" textLength="99" x="369.5" y="57.957">StRS (validated)</text><path fill="#FEFECE" filter="url(#a)" stroke="#000" stroke-width="1.5" d="M656 304.5h48v41.594h-48z"/><path fill="#FEFECE" stroke="#000" stroke-width="1.5" d="M687 309.5v14h12v-8l-6-6h-6z"/><path stroke="#000" stroke-width="1.5" d="M693 309.5v6M699 315.5h-6"/><text font-family="Futura" font-size="14" lengthAdjust="spacingAndGlyphs" textLength="18" x="666" y="332.457">CR</text><ellipse cx="316.966" cy="197.193" fill="#FEFECE" filter="url(#a)" rx="111.466" ry="24.693" stroke="#a80036" stroke-width="1.5"/><text font-family="Futura" font-size="14" lengthAdjust="spacingAndGlyphs" textLength="196" x="218.966" y="202.99">Elaborate SysRS and Interfaces</text><ellipse cx="723.782" cy="197.056" fill="#FEFECE" filter="url(#a)" rx="88.282" ry="20.056" stroke="#a80036" stroke-width="1.5"/><text font-family="Futura" font-size="14" lengthAdjust="spacingAndGlyphs" textLength="143" x="652.282" y="202.853">Verify SysRS and SERS</text><ellipse cx="532.25" cy="197.15" fill="#FEFECE" filter="url(#a)" rx="68.75" ry="16.15" stroke="#a80036" stroke-width="1.5"/><text font-family="Futura" font-size="14" lengthAdjust="spacingAndGlyphs" textLength="93" x="485.75" y="202.947">Validate SysRS</text><path d="M408.441 72.23l-70.382 96.035" fill="none" stroke="#a80036" stroke-width="2"/><path fill="#A80036" stroke="#a80036" d="M335.083 172.326l8.546-4.895-5.59.862-.862-5.59-2.094 9.623z"/><path d="M377.08 217.732C407.767 230.163 444.53 248.045 473 271c8.55 6.895 16.378 15.868 22.897 24.537" fill="none" stroke="#a80036" stroke-width="2"/><path fill="#A80036" stroke="#a80036" d="M498.99 299.757l-2.093-9.623-.862 5.59-5.59-.862 8.546 4.895z"/><path d="M530.708 299.904c7.085-9.992 16.145-20.937 26.292-28.904 10.067-7.905 73.862-35.273 119.61-54.41" fill="none" stroke="#a80036" stroke-width="2"/><path fill="#A80036" stroke="#a80036" d="M681.257 214.648l-9.846-.22 5.232 2.148-2.148 5.233 6.762-7.16z"/><path d="M838.1 299.837c-7.067-9.452-15.538-20-24.1-28.837-18.321-18.909-41.277-37.719-59.419-51.643" fill="none" stroke="#a80036" stroke-width="2"/><path fill="#A80036" stroke="#a80036" d="M750.552 216.284l4.73 8.639-.755-5.607 5.607-.754-9.582-2.278z"/><path d="M698.957 216.463C681.337 230.7 657.666 250.953 639 271c-7.142 7.67-14.246 16.552-20.486 24.89" fill="none" stroke="#a80036" stroke-width="2"/><path fill="#A80036" stroke="#a80036" d="M615.524 299.933l8.568-4.857-5.594.837-.838-5.595-2.136 9.615z"/><path d="M730.875 217.078l26.615 77.729" fill="none" stroke="#a80036" stroke-width="2"/><path fill="#A80036" stroke="#a80036" d="M759.202 299.805l.868-9.81-2.488 5.08-5.08-2.489 6.7 7.219z"/><path d="M717.125 217.078l-28.143 82.19" fill="none" stroke="#a80036" stroke-width="2"/><path fill="#A80036" stroke="#a80036" d="M687.266 304.28l6.7-7.218-5.08 2.488-2.489-5.08.869 9.81z"/><path d="M584.88 299.957l-42.31-82.378" fill="none" stroke="#a80036" stroke-width="2"/><path fill="#A80036" stroke="#a80036" d="M540.226 213.015l.553 9.833 1.731-5.386 5.386 1.73-7.67-6.177z"/><path d="M439.704 72.23l77.443 104.69" fill="none" stroke="#a80036" stroke-width="2"/><path fill="#A80036" stroke="#a80036" d="M520.268 181.14l-2.137-9.614-.837 5.594-5.594-.837 8.568 4.857z"/><path d="M519.125 212.757l-67.844 83.027" fill="none" stroke="#a80036" stroke-width="2"/><path fill="#A80036" stroke="#a80036" d="M447.964 299.844l8.793-4.439-5.629.567-.566-5.629-2.598 9.5z"/></svg>