<svg xmlns="http://www.w3.org/2000/svg" height="105" preserveAspectRatio="none" style="width:476px;height:105px" width="476"><defs><filter height="300%" id="a" width="300%" x="-1" y="-1"><feGaussianBlur result="blurOut" stdDeviation="2"/><feColorMatrix in="blurOut" result="blurOut2" values="0 0 0 0 0 0 0 0 0 0 0 0 0 0 0 0 0 0 .4 0"/><feOffset dx="4" dy="4" in="blurOut2" result="blurOut3"/><feBlend in="SourceGraphic" in2="blurOut3"/></filter></defs><circle cx="16" cy="51" filter="url(#a)" r="10"/><rect fill="#FEFECE" filter="url(#a)" height="70.469" rx="12.5" ry="12.5" width="90" x="121" y="16" stroke="#a80036" stroke-width="1.5"/><path stroke="#a80036" stroke-width="1.5" d="M121 44.594h90"/><text font-family="Futura" font-size="14" lengthAdjust="spacingAndGlyphs" textLength="70" x="131" y="35.957">preliminary</text><text font-family="Futura" font-size="12" lengthAdjust="spacingAndGlyphs" textLength="21" x="126" y="62.414">SYS</text><text font-family="Futura" font-size="12" lengthAdjust="spacingAndGlyphs" textLength="23" x="126" y="78.352">DES</text><rect fill="#FEFECE" filter="url(#a)" height="86.406" rx="12.5" ry="12.5" width="66" x="283" y="8" stroke="#a80036" stroke-width="1.5"/><path stroke="#a80036" stroke-width="1.5" d="M283 36.594h66"/><text font-family="Futura" font-size="14" lengthAdjust="spacingAndGlyphs" textLength="46" x="293" y="27.957">verified</text><text font-family="Futura" font-size="12" lengthAdjust="spacingAndGlyphs" textLength="21" x="288" y="54.414">SYS</text><text font-family="Futura" font-size="12" lengthAdjust="spacingAndGlyphs" textLength="28" x="288" y="70.352">ACQ</text><text font-family="Futura" font-size="12" lengthAdjust="spacingAndGlyphs" textLength="21" x="288" y="86.289">STK</text><rect fill="#FEFECE" filter="url(#a)" height="86.406" rx="12.5" ry="12.5" width="80" x="384" y="8" stroke="#a80036" stroke-width="1.5"/><path stroke="#a80036" stroke-width="1.5" d="M384 36.594h80"/><text font-family="Futura" font-size="14" lengthAdjust="spacingAndGlyphs" textLength="60" x="394" y="27.957">baselined</text><text font-family="Futura" font-size="12" lengthAdjust="spacingAndGlyphs" textLength="21" x="389" y="54.414">SYS</text><text font-family="Futura" font-size="12" lengthAdjust="spacingAndGlyphs" textLength="28" x="389" y="70.352">ACQ</text><text font-family="Futura" font-size="12" lengthAdjust="spacingAndGlyphs" textLength="21" x="389" y="86.289">STK</text><path d="M26.31 51h89.403" fill="none" stroke="#a80036"/><path fill="#A80036" stroke="#a80036" d="M120.814 51l-9-4 4 4-4 4 9-4z"/><text font-family="Futura" font-size="13" lengthAdjust="spacingAndGlyphs" textLength="58" x="44.5" y="43.889">Document</text><path d="M211.005 51h66.876" fill="none" stroke="#a80036"/><path fill="#A80036" stroke="#a80036" d="M282.948 51l-9-4 4 4-4 4 9-4z"/><text font-family="Futura" font-size="13" lengthAdjust="spacingAndGlyphs" textLength="35" x="229.5" y="43.889">Verify</text><path d="M349.328 51h29.31" fill="none" stroke="#a80036"/><path fill="#A80036" stroke="#a80036" d="M383.747 51l-9-4 4 4-4 4 9-4z"/></svg>