<?xml version="1.0" encoding="UTF-8" standalone="no"?><svg xmlns="http://www.w3.org/2000/svg" xmlns:xlink="http://www.w3.org/1999/xlink" contentScriptType="application/ecmascript" contentStyleType="text/css" height="89px" preserveAspectRatio="none" style="width:489px;height:89px;" version="1.1" viewBox="0 0 489 89" width="489px" zoomAndPan="magnify"><defs><filter height="300%" id="f1e2rlqtzhnzlp" width="300%" x="-1" y="-1"><feGaussianBlur result="blurOut" stdDeviation="2.0"/><feColorMatrix in="blurOut" result="blurOut2" type="matrix" values="0 0 0 0 0 0 0 0 0 0 0 0 0 0 0 0 0 0 .4 0"/><feOffset dx="4.0" dy="4.0" in="blurOut2" result="blurOut3"/><feBlend in="SourceGraphic" in2="blurOut3" mode="normal"/></filter></defs><g><ellipse cx="16" cy="43" fill="#000000" filter="url(#f1e2rlqtzhnzlp)" rx="10" ry="10" style="stroke: none; stroke-width: 1.0;"/><rect fill="#FEFECE" filter="url(#f1e2rlqtzhnzlp)" height="70.4688" rx="12.5" ry="12.5" style="stroke: #A80036; stroke-width: 1.5;" width="52" x="121" y="8"/><line style="stroke: #A80036; stroke-width: 1.5;" x1="121" x2="173" y1="36.5938" y2="36.5938"/><text fill="#000000" font-family="Futura" font-size="14" lengthAdjust="spacingAndGlyphs" textLength="32" x="131" y="27.957">initial</text><text fill="#000000" font-family="Futura" font-size="12" lengthAdjust="spacingAndGlyphs" textLength="24" x="126" y="54.4141">DEV</text><text fill="#000000" font-family="Futura" font-size="12" lengthAdjust="spacingAndGlyphs" textLength="21" x="126" y="70.3516">SYS</text><rect fill="#FEFECE" filter="url(#f1e2rlqtzhnzlp)" height="70.4688" rx="12.5" ry="12.5" style="stroke: #A80036; stroke-width: 1.5;" width="77" x="284.5" y="8"/><line style="stroke: #A80036; stroke-width: 1.5;" x1="284.5" x2="361.5" y1="36.5938" y2="36.5938"/><text fill="#000000" font-family="Futura" font-size="14" lengthAdjust="spacingAndGlyphs" textLength="57" x="294.5" y="27.957">validated</text><text fill="#000000" font-family="Futura" font-size="12" lengthAdjust="spacingAndGlyphs" textLength="23" x="289.5" y="54.4141">PJM</text><text fill="#000000" font-family="Futura" font-size="12" lengthAdjust="spacingAndGlyphs" textLength="19" x="289.5" y="70.3516">WT</text><rect fill="#FEFECE" filter="url(#f1e2rlqtzhnzlp)" height="50" rx="12.5" ry="12.5" style="stroke: #A80036; stroke-width: 1.5;" width="80" x="397" y="18"/><line style="stroke: #A80036; stroke-width: 1.5;" x1="397" x2="477" y1="46.5938" y2="46.5938"/><text fill="#000000" font-family="Futura" font-size="14" lengthAdjust="spacingAndGlyphs" textLength="60" x="407" y="37.957">baselined</text><!--link *start to initial--><path d="M26.2794,43 C45.3014,43 86.692,43 115.6778,43 " fill="none" id="*start-initial" style="stroke: #A80036; stroke-width: 1.0;"/><polygon fill="#A80036" points="120.9375,43,111.9375,39,115.9375,43,111.9375,47,120.9375,43" style="stroke: #A80036; stroke-width: 1.0;"/><text fill="#000000" font-family="Futura" font-size="13" lengthAdjust="spacingAndGlyphs" textLength="58" x="44.5" y="35.8887">Elaborate</text><!--link initial to validated--><path d="M173.349,43 C201.2937,43 245.9068,43 279.1619,43 " fill="none" id="initial-validated" style="stroke: #A80036; stroke-width: 1.0;"/><polygon fill="#A80036" points="284.3973,43,275.3973,39,279.3973,43,275.3973,47,284.3973,43" style="stroke: #A80036; stroke-width: 1.0;"/><text fill="#000000" font-family="Futura" font-size="13" lengthAdjust="spacingAndGlyphs" textLength="75" x="191.25" y="35.8887">Verify SysRS</text><!--link validated to baselined--><path d="M361.7422,43 C371.6723,43 381.6024,43 391.5325,43 " fill="none" id="validated-baselined" style="stroke: #A80036; stroke-width: 1.0;"/><polygon fill="#A80036" points="396.7253,43,387.7253,39,391.7253,43,387.7253,47,396.7253,43" style="stroke: #A80036; stroke-width: 1.0;"/><!--
@startuml




skinparam handwritten false
skinparam defaultFontName Futura

skinparam handwritten false

[*] -> initial : Elaborate
initial: DEV
initial: SYS
initial -> validated : Verify SysRS
validated: PJM
validated: WT
validated -> baselined

@enduml

PlantUML version 1.2019.00(Sun Jan 13 07:46:42 PST 2019)
(GPL source distribution)
Java Runtime: Java(TM) SE Runtime Environment
JVM: Java HotSpot(TM) 64-Bit Server VM
Java Version: 10.0.1+10
Operating System: Mac OS X
OS Version: 10.14.3
Default Encoding: UTF-8
Language: en
Country: US
--></g></svg>