<?xml version="1.0" encoding="UTF-8" standalone="no"?><svg xmlns="http://www.w3.org/2000/svg" xmlns:xlink="http://www.w3.org/1999/xlink" contentScriptType="application/ecmascript" contentStyleType="text/css" height="456px" preserveAspectRatio="none" style="width:778px;height:456px;" version="1.1" viewBox="0 0 778 456" width="778px" zoomAndPan="magnify"><defs><filter height="300%" id="fhy6uw4szxeli" width="300%" x="-1" y="-1"><feGaussianBlur result="blurOut" stdDeviation="2.0"/><feColorMatrix in="blurOut" result="blurOut2" type="matrix" values="0 0 0 0 0 0 0 0 0 0 0 0 0 0 0 0 0 0 .4 0"/><feOffset dx="4.0" dy="4.0" in="blurOut2" result="blurOut3"/><feBlend in="SourceGraphic" in2="blurOut3" mode="normal"/></filter></defs><g><!--cluster SDD--><rect fill="#FFFFFF" filter="url(#fhy6uw4szxeli)" height="88" style="stroke: #000000; stroke-width: 1.5;" width="296" x="208" y="271"/><polygon fill="#FFFFFF" points="487,276,487,290,499,290,499,282,493,276,487,276" style="stroke: #000000; stroke-width: 1.5;"/><line style="stroke: #000000; stroke-width: 1.5;" x1="493" x2="493" y1="276" y2="282"/><line style="stroke: #000000; stroke-width: 1.5;" x1="499" x2="493" y1="282" y2="282"/><text fill="#000000" font-family="Futura" font-size="14" font-weight="bold" lengthAdjust="spacingAndGlyphs" textLength="31" x="340.5" y="287.966">SDD</text><!--entity PROD_SDD_FUNC--><rect fill="#FEFECE" filter="url(#fhy6uw4szxeli)" height="38.5938" style="stroke: #A80036; stroke-width: 1.5;" width="81" x="216.5" y="306"/><rect fill="#FEFECE" height="5" style="stroke: #A80036; stroke-width: 1.5;" width="10" x="211.5" y="311"/><rect fill="#FEFECE" height="5" style="stroke: #A80036; stroke-width: 1.5;" width="10" x="211.5" y="334.5938"/><text fill="#000000" font-family="Futura" font-size="14" lengthAdjust="spacingAndGlyphs" textLength="61" x="226.5" y="330.957">functional</text><!--entity PROD_SDD_PHYS--><rect fill="#FEFECE" filter="url(#fhy6uw4szxeli)" height="38.5938" style="stroke: #A80036; stroke-width: 1.5;" width="71" x="332.5" y="306"/><rect fill="#FEFECE" height="5" style="stroke: #A80036; stroke-width: 1.5;" width="10" x="327.5" y="311"/><rect fill="#FEFECE" height="5" style="stroke: #A80036; stroke-width: 1.5;" width="10" x="327.5" y="334.5938"/><text fill="#000000" font-family="Futura" font-size="14" lengthAdjust="spacingAndGlyphs" textLength="51" x="342.5" y="330.957">physical</text><!--entity PROD_SDD_VALIDATED--><ellipse cx="467" cy="316" fill="#FEFECE" filter="url(#fhy6uw4szxeli)" rx="12" ry="12" style="stroke: #A80036; stroke-width: 2.0;"/><polygon fill="#A80036" points="463,304,469,299,467,304,469,309,463,304" style="stroke: #A80036; stroke-width: 1.0;"/><text fill="#000000" font-family="Futura" font-size="14" lengthAdjust="spacingAndGlyphs" textLength="57" x="438.5" y="346.957">validated</text><!--entity DES--><ellipse cx="95" cy="18" fill="#FEFECE" filter="url(#fhy6uw4szxeli)" rx="8" ry="8" style="stroke: #A80036; stroke-width: 2.0;"/><path d="M95,26 L95,53 M82,34 L108,34 M95,53 L82,68 M95,53 L108,68 " fill="none" filter="url(#fhy6uw4szxeli)" style="stroke: #A80036; stroke-width: 2.0;"/><text fill="#000000" font-family="Futura" font-size="14" lengthAdjust="spacingAndGlyphs" textLength="26" x="82" y="89.957">DES</text><!--entity SYS--><ellipse cx="160" cy="18" fill="#FEFECE" filter="url(#fhy6uw4szxeli)" rx="8" ry="8" style="stroke: #A80036; stroke-width: 2.0;"/><path d="M160,26 L160,53 M147,34 L173,34 M160,53 L147,68 M160,53 L173,68 " fill="none" filter="url(#fhy6uw4szxeli)" style="stroke: #A80036; stroke-width: 2.0;"/><text fill="#000000" font-family="Futura" font-size="14" lengthAdjust="spacingAndGlyphs" textLength="24" x="148" y="89.957">SYS</text><!--entity DEV--><ellipse cx="95" cy="164" fill="#FEFECE" filter="url(#fhy6uw4szxeli)" rx="8" ry="8" style="stroke: #A80036; stroke-width: 2.0;"/><path d="M95,172 L95,199 M82,180 L108,180 M95,199 L82,214 M95,199 L108,214 " fill="none" filter="url(#fhy6uw4szxeli)" style="stroke: #A80036; stroke-width: 2.0;"/><text fill="#000000" font-family="Futura" font-size="14" lengthAdjust="spacingAndGlyphs" textLength="27" x="81.5" y="235.957">DEV</text><!--entity PROD_PP--><rect fill="#FEFECE" filter="url(#fhy6uw4szxeli)" height="41.5938" style="stroke: #000000; stroke-width: 1.5;" width="104" x="6" y="304.5"/><polygon fill="#FEFECE" points="93,309.5,93,323.5,105,323.5,105,315.5,99,309.5,93,309.5" style="stroke: #000000; stroke-width: 1.5;"/><line style="stroke: #000000; stroke-width: 1.5;" x1="99" x2="99" y1="309.5" y2="315.5"/><line style="stroke: #000000; stroke-width: 1.5;" x1="105" x2="99" y1="315.5" y2="315.5"/><text fill="#000000" font-family="Futura" font-size="14" lengthAdjust="spacingAndGlyphs" textLength="74" x="16" y="332.457">Project Plan</text><!--entity PROD_SYSRS_VALIDATED--><rect fill="#FEFECE" filter="url(#fhy6uw4szxeli)" height="41.5938" style="stroke: #000000; stroke-width: 1.5;" width="139" x="217.5" y="30"/><polygon fill="#FEFECE" points="339.5,35,339.5,49,351.5,49,351.5,41,345.5,35,339.5,35" style="stroke: #000000; stroke-width: 1.5;"/><line style="stroke: #000000; stroke-width: 1.5;" x1="345.5" x2="345.5" y1="35" y2="41"/><line style="stroke: #000000; stroke-width: 1.5;" x1="351.5" x2="345.5" y1="41" y2="41"/><text fill="#000000" font-family="Futura" font-size="14" lengthAdjust="spacingAndGlyphs" textLength="109" x="227.5" y="57.957">SysRS (validated)</text><!--entity META_TRACE_MATRIX--><rect fill="#FEFECE" filter="url(#fhy6uw4szxeli)" height="41.5938" style="stroke: #000000; stroke-width: 1.5;" width="147" x="614.5" y="304.5"/><polygon fill="#FEFECE" points="744.5,309.5,744.5,323.5,756.5,323.5,756.5,315.5,750.5,309.5,744.5,309.5" style="stroke: #000000; stroke-width: 1.5;"/><line style="stroke: #000000; stroke-width: 1.5;" x1="750.5" x2="750.5" y1="309.5" y2="315.5"/><line style="stroke: #000000; stroke-width: 1.5;" x1="756.5" x2="750.5" y1="315.5" y2="315.5"/><text fill="#000000" font-family="Futura" font-size="14" lengthAdjust="spacingAndGlyphs" textLength="117" x="624.5" y="332.457">Traceability Matrix</text><!--entity META_CR--><rect fill="#FEFECE" filter="url(#fhy6uw4szxeli)" height="41.5938" style="stroke: #000000; stroke-width: 1.5;" width="48" x="531" y="304.5"/><polygon fill="#FEFECE" points="562,309.5,562,323.5,574,323.5,574,315.5,568,309.5,562,309.5" style="stroke: #000000; stroke-width: 1.5;"/><line style="stroke: #000000; stroke-width: 1.5;" x1="568" x2="568" y1="309.5" y2="315.5"/><line style="stroke: #000000; stroke-width: 1.5;" x1="574" x2="568" y1="315.5" y2="315.5"/><text fill="#000000" font-family="Futura" font-size="14" lengthAdjust="spacingAndGlyphs" textLength="18" x="541" y="332.457">CR</text><ellipse cx="209.8951" cy="428.479" fill="#FEFECE" filter="url(#fhy6uw4szxeli)" rx="75.3951" ry="17.479" style="stroke: #A80036; stroke-width: 1.5;"/><text fill="#000000" font-family="Futura" font-size="14" lengthAdjust="spacingAndGlyphs" textLength="111" x="154.3951" y="434.2759">Functional Design</text><ellipse cx="287.0411" cy="197.0082" fill="#FEFECE" filter="url(#fhy6uw4szxeli)" rx="70.5411" ry="16.5082" style="stroke: #A80036; stroke-width: 1.5;"/><text fill="#000000" font-family="Futura" font-size="14" lengthAdjust="spacingAndGlyphs" textLength="98" x="238.0411" y="202.8051">Physical Design</text><ellipse cx="477.136" cy="197.2272" fill="#FEFECE" filter="url(#fhy6uw4szxeli)" rx="84.136" ry="19.2272" style="stroke: #A80036; stroke-width: 1.5;"/><text fill="#000000" font-family="Futura" font-size="14" lengthAdjust="spacingAndGlyphs" textLength="133" x="410.636" y="203.0241">Verify System Design</text><!--link PROD_PP to SR3_1--><path d="M89.1263,346.5921 C116.0566,364.841 154.6987,391.0261 180.991,408.8426 " fill="none" id="PROD_PP-SR3_1" style="stroke: #A80036; stroke-width: 2.0;"/><polygon fill="#A80036" points="185.4255,411.8475,180.2188,403.4875,181.2863,409.0427,175.7311,410.1102,185.4255,411.8475" style="stroke: #A80036; stroke-width: 1.0;"/><!--link PROD_SYSRS_VALIDATED to SR3_1--><path d="M260.514,72.3297 C239.3268,91.2286 211.2136,120.9021 199,154 C166.4209,242.287 190.5966,357.5464 203.3938,405.754 " fill="none" id="PROD_SYSRS_VALIDATED-SR3_1" style="stroke: #A80036; stroke-width: 2.0;"/><polygon fill="#A80036" points="204.744,410.752,206.258,401.0202,203.4398,405.9251,198.535,403.1069,204.744,410.752" style="stroke: #A80036; stroke-width: 1.0;"/><!--link META_TRACE_MATRIX to SR3_1--><path d="M635.5755,346.5731 C623.0703,351.1036 609.6723,355.5581 597,359 C488.7066,388.4138 359.9122,408.7103 281.6018,419.4698 " fill="none" id="META_TRACE_MATRIX-SR3_1" style="stroke: #A80036; stroke-width: 2.0;"/><polygon fill="#A80036" points="276.5174,420.1647,285.9763,422.9087,281.4713,419.4874,284.8926,414.9824,276.5174,420.1647" style="stroke: #A80036; stroke-width: 1.0;"/><!--link SR3_1 to PROD_SDD_FUNC--><path d="M218.093,410.7644 C225.7497,393.9846 237.3081,368.6545 245.8386,349.9601 " fill="none" id="SR3_1-PROD_SDD_FUNC" style="stroke: #A80036; stroke-width: 2.0;"/><polygon fill="#A80036" points="247.9379,345.3594,240.5625,351.8865,245.8621,349.9081,247.8404,355.2078,247.9379,345.3594" style="stroke: #A80036; stroke-width: 1.0;"/><!--link PROD_SYSRS_VALIDATED to SR3_3--><path d="M287,72.2297 C287,99.6631 287,147.1935 287,174.9981 " fill="none" id="PROD_SYSRS_VALIDATED-SR3_3" style="stroke: #A80036; stroke-width: 2.0;"/><polygon fill="#A80036" points="287,180.2842,291,171.2842,287,175.2842,283,171.2842,287,180.2842" style="stroke: #A80036; stroke-width: 1.0;"/><!--link PROD_SDD_FUNC to SR3_3--><path d="M261.6325,305.6574 C267.1436,282.0515 276.3098,242.7897 281.9842,218.4845 " fill="none" id="PROD_SDD_FUNC-SR3_3" style="stroke: #A80036; stroke-width: 2.0;"/><polygon fill="#A80036" points="283.1394,213.5361,277.1979,221.3909,282.0026,218.4051,284.9883,223.2099,283.1394,213.5361" style="stroke: #A80036; stroke-width: 1.0;"/><!--link SR3_3 to PROD_SDD_PHYS--><path d="M297.4235,213.5361 C311.4797,235.8351 336.6092,275.701 352.7796,301.3541 " fill="none" id="SR3_3-PROD_SDD_PHYS" style="stroke: #A80036; stroke-width: 2.0;"/><polygon fill="#A80036" points="355.4922,305.6574,354.0766,295.9108,352.8259,301.4276,347.309,300.1769,355.4922,305.6574" style="stroke: #A80036; stroke-width: 1.0;"/><!--link PROD_SDD_FUNC to SR3_5--><path d="M274.735,305.9064 C285.591,294.6985 300.2028,280.9374 315,271 C335.0414,257.5408 390.9078,232.9683 431.4381,215.8478 " fill="none" id="PROD_SDD_FUNC-SR3_5" style="stroke: #A80036; stroke-width: 2.0;"/><polygon fill="#A80036" points="436.3014,213.7981,426.4544,213.6078,431.6939,215.7401,429.5616,220.9797,436.3014,213.7981" style="stroke: #A80036; stroke-width: 1.0;"/><!--link PROD_SDD_PHYS to SR3_5--><path d="M384.5835,305.9498 C404.2269,282.7922 436.8973,244.277 457.6696,219.7885 " fill="none" id="PROD_SDD_PHYS-SR3_5" style="stroke: #A80036; stroke-width: 2.0;"/><polygon fill="#A80036" points="461.1505,215.685,452.2782,219.9608,457.9161,219.498,458.379,225.1358,461.1505,215.685" style="stroke: #A80036; stroke-width: 1.0;"/><!--link META_TRACE_MATRIX to SR3_5--><path d="M663.5224,304.3028 C627.8313,279.9328 562.5819,240.2558 519.1926,216.5859 " fill="none" id="META_TRACE_MATRIX-SR3_5" style="stroke: #A80036; stroke-width: 2.0;"/><polygon fill="#A80036" points="514.5392,214.0638,520.5457,221.8691,518.935,216.4464,524.3578,214.8357,514.5392,214.0638" style="stroke: #A80036; stroke-width: 1.0;"/><!--link SR3_5 to META_TRACE_MATRIX--><path d="M497.9745,215.4109 C530.9827,238.1555 594.291,276.8914 638.9788,301.826 " fill="none" id="SR3_5-META_TRACE_MATRIX" style="stroke: #A80036; stroke-width: 2.0;"/><polygon fill="#A80036" points="643.5151,304.345,637.5888,296.4787,639.1439,301.9176,633.705,303.4727,643.5151,304.345" style="stroke: #A80036; stroke-width: 1.0;"/><!--link PROD_SYSRS_VALIDATED to SR3_5--><path d="M314.6276,72.2297 C350.5289,99.8169 412.8779,147.7272 448.9737,175.464 " fill="none" id="PROD_SYSRS_VALIDATED-SR3_5" style="stroke: #A80036; stroke-width: 2.0;"/><polygon fill="#A80036" points="453.2419,178.7438,448.5427,170.0883,449.2772,175.6973,443.6683,176.4318,453.2419,178.7438" style="stroke: #A80036; stroke-width: 1.0;"/><!--link SR3_5 to PROD_SDD_VALIDATED--><path d="M475.5029,216.2377 C473.8853,237.0237 471.2848,270.4409 469.385,294.8522 " fill="none" id="SR3_5-PROD_SDD_VALIDATED" style="stroke: #A80036; stroke-width: 2.0;"/><polygon fill="#A80036" points="468.9909,299.9168,473.6772,291.2543,469.3789,294.9319,465.7014,290.6335,468.9909,299.9168" style="stroke: #A80036; stroke-width: 1.0;"/><!--link SR3_5 to META_CR--><path d="M488.5092,215.9606 C501.9933,238.1749 524.3982,275.0855 539.4278,299.8457 " fill="none" id="SR3_5-META_CR" style="stroke: #A80036; stroke-width: 2.0;"/><polygon fill="#A80036" points="542.1445,304.3213,540.8938,294.5522,539.55,300.0471,534.0551,298.7033,542.1445,304.3213" style="stroke: #A80036; stroke-width: 1.0;"/><!--link DES to SYS--><!--link DES to DEV--><!--
@startuml



skinparam handwritten false
skinparam defaultFontName Futura


actor DES
actor SYS
actor DEV

artifact "Project Plan" as PROD_PP
artifact "SysRS (validated)" as PROD_SYSRS_VALIDATED
artifact "Traceability Matrix" as META_TRACE_MATRIX
artifact "CR" as META_CR
artifact "SDD" {
component "functional" as PROD_SDD_FUNC
component "physical" as PROD_SDD_PHYS
control "validated" as PROD_SDD_VALIDATED
}

usecase "Functional Design" as SR3_1
PROD_PP ==> SR3_1
PROD_SYSRS_VALIDATED ==> SR3_1
META_TRACE_MATRIX ==> SR3_1
SR3_1 ==> PROD_SDD_FUNC

usecase "Physical Design" as SR3_3
PROD_SYSRS_VALIDATED ==> SR3_3
PROD_SDD_FUNC ==> SR3_3
SR3_3 ==> PROD_SDD_PHYS

usecase "Verify System Design" as SR3_5
PROD_SDD_FUNC ==> SR3_5
PROD_SDD_PHYS ==> SR3_5
META_TRACE_MATRIX ==> SR3_5
PROD_SYSRS_VALIDATED ==> SR3_5
SR3_5 ==> PROD_SDD_VALIDATED
SR3_5 ==> META_CR
SR3_5 ==> META_TRACE_MATRIX

@enduml

PlantUML version 1.2019.00(Sun Jan 13 07:46:42 PST 2019)
(GPL source distribution)
Java Runtime: Java(TM) SE Runtime Environment
JVM: Java HotSpot(TM) 64-Bit Server VM
Java Version: 10.0.1+10
Operating System: Mac OS X
OS Version: 10.14.3
Default Encoding: UTF-8
Language: en
Country: US
--></g></svg>