<svg xmlns="http://www.w3.org/2000/svg" height="390" preserveAspectRatio="none" style="width:648px;height:390px" width="648"><defs><filter height="300%" id="a" width="300%" x="-1" y="-1"><feGaussianBlur result="blurOut" stdDeviation="2"/><feColorMatrix in="blurOut" result="blurOut2" values="0 0 0 0 0 0 0 0 0 0 0 0 0 0 0 0 0 0 .4 0"/><feOffset dx="4" dy="4" in="blurOut2" result="blurOut3"/><feBlend in="SourceGraphic" in2="blurOut3"/></filter></defs><path fill="#FFF" filter="url(#a)" stroke="#000" stroke-width="1.5" d="M398 291h158v88H398z"/><path fill="#FFF" stroke="#000" stroke-width="1.5" d="M539 296v14h12v-8l-6-6h-6z"/><path stroke="#000" stroke-width="1.5" d="M545 296v6M551 302h-6"/><text font-family="Futura" font-size="14" font-weight="bold" lengthAdjust="spacingAndGlyphs" textLength="36" x="459" y="307.966">SERS</text><path fill="#FFF" filter="url(#a)" stroke="#000" stroke-width="1.5" d="M406 16.5h147v88H406z"/><path fill="#FFF" stroke="#000" stroke-width="1.5" d="M536 21.5v14h12v-8l-6-6h-6z"/><path stroke="#000" stroke-width="1.5" d="M542 21.5v6M548 27.5h-6"/><text font-family="Futura" font-size="14" font-weight="bold" lengthAdjust="spacingAndGlyphs" textLength="45" x="457" y="33.466">SysRS</text><circle cx="431" cy="336" fill="#FEFECE" filter="url(#a)" stroke="#a80036" stroke-width="2" r="12"/><path fill="#A80036" stroke="#a80036" d="M427 324l6-5-2 5 2 5-6-5z"/><text font-family="Futura" font-size="14" lengthAdjust="spacingAndGlyphs" textLength="49" x="406.5" y="366.957">initiated</text><circle cx="519" cy="336" fill="#FEFECE" filter="url(#a)" stroke="#a80036" stroke-width="2" r="12"/><path fill="#A80036" stroke="#a80036" d="M515 324l6-5-2 5 2 5-6-5z"/><text font-family="Futura" font-size="14" lengthAdjust="spacingAndGlyphs" textLength="57" x="490.5" y="366.957">validated</text><circle cx="439" cy="61.5" fill="#FEFECE" filter="url(#a)" stroke="#a80036" stroke-width="2" r="12"/><path fill="#A80036" stroke="#a80036" d="M435 49.5l6-5-2 5 2 5-6-5z"/><text font-family="Futura" font-size="14" lengthAdjust="spacingAndGlyphs" textLength="49" x="414.5" y="92.457">initiated</text><circle cx="522" cy="61.5" fill="#FEFECE" filter="url(#a)" stroke="#a80036" stroke-width="2" r="12"/><path fill="#A80036" stroke="#a80036" d="M518 49.5l6-5-2 5 2 5-6-5z"/><text font-family="Futura" font-size="14" lengthAdjust="spacingAndGlyphs" textLength="46" x="499" y="92.457">verified</text><circle cx="21" cy="38" fill="#FEFECE" filter="url(#a)" stroke="#a80036" stroke-width="2" r="8"/><path d="M21 46v27M8 54h26M21 73L8 88m13-15l13 15" fill="none" filter="url(#a)" stroke="#a80036" stroke-width="2"/><text font-family="Futura" font-size="14" lengthAdjust="spacingAndGlyphs" textLength="24" x="9" y="109.957">SYS</text><circle cx="86" cy="38" fill="#FEFECE" filter="url(#a)" stroke="#a80036" stroke-width="2" r="8"/><path d="M86 46v27M73 54h26M86 73L73 88m13-15l13 15" fill="none" filter="url(#a)" stroke="#a80036" stroke-width="2"/><text font-family="Futura" font-size="14" lengthAdjust="spacingAndGlyphs" textLength="26" x="73" y="109.957">DES</text><circle cx="21" cy="184" fill="#FEFECE" filter="url(#a)" stroke="#a80036" stroke-width="2" r="8"/><path d="M21 192v27M8 200h26m-13 19L8 234m13-15l13 15" fill="none" filter="url(#a)" stroke="#a80036" stroke-width="2"/><text font-family="Futura" font-size="14" lengthAdjust="spacingAndGlyphs" textLength="27" x="7.5" y="255.957">PJM</text><circle cx="86" cy="184" fill="#FEFECE" filter="url(#a)" stroke="#a80036" stroke-width="2" r="8"/><path d="M86 192v27m-13-19h26m-13 19l-13 15m13-15l13 15" fill="none" filter="url(#a)" stroke="#a80036" stroke-width="2"/><text font-family="Futura" font-size="14" lengthAdjust="spacingAndGlyphs" textLength="22" x="75" y="255.957">WT</text><path fill="#FEFECE" filter="url(#a)" stroke="#000" stroke-width="1.5" d="M238 50h58v41.594h-58z"/><path fill="#FEFECE" stroke="#000" stroke-width="1.5" d="M279 55v14h12v-8l-6-6h-6z"/><path stroke="#000" stroke-width="1.5" d="M285 55v6M291 61h-6"/><text font-family="Futura" font-size="14" lengthAdjust="spacingAndGlyphs" textLength="28" x="248" y="77.957">SDD</text><path fill="#FEFECE" filter="url(#a)" stroke="#000" stroke-width="1.5" d="M583 324.5h48v41.594h-48z"/><path fill="#FEFECE" stroke="#000" stroke-width="1.5" d="M614 329.5v14h12v-8l-6-6h-6z"/><path stroke="#000" stroke-width="1.5" d="M620 329.5v6M626 335.5h-6"/><text font-family="Futura" font-size="14" lengthAdjust="spacingAndGlyphs" textLength="18" x="593" y="352.457">CR</text><ellipse cx="267.223" cy="217.144" fill="#FEFECE" filter="url(#a)" rx="131.223" ry="28.645" stroke="#a80036" stroke-width="1.5"/><text font-family="Futura" font-size="14" lengthAdjust="spacingAndGlyphs" textLength="239" x="147.723" y="222.941">Elaborate SERS and System Interfaces</text><ellipse cx="521.782" cy="217.056" fill="#FEFECE" filter="url(#a)" rx="88.282" ry="20.056" stroke="#a80036" stroke-width="1.5"/><text font-family="Futura" font-size="14" lengthAdjust="spacingAndGlyphs" textLength="143" x="450.282" y="222.853">Verify SysRS and SERS</text><path d="M414.357 91.918l-110.833 94.08" fill="none" stroke="#a80036" stroke-width="2"/><path fill="#A80036" stroke="#a80036" d="M299.53 189.387l9.45-2.775-5.638-.46.461-5.639-4.273 8.874z"/><path d="M267 97.506v85.872" fill="none" stroke="#a80036" stroke-width="2"/><path fill="#A80036" stroke="#a80036" d="M267 188.463l4-9-4 4-4-4 4 9zM267 92.23l-4 9 4-4 4 4-4-9z"/><path d="M302.182 244.566l99.83 78.22" fill="none" stroke="#a80036" stroke-width="2"/><path fill="#A80036" stroke="#a80036" d="M406.017 325.925l-4.618-8.7.682 5.616-5.616.681 9.552 2.403z"/><path d="M453.648 96.766l54.521 95.905" fill="none" stroke="#a80036" stroke-width="2"/><path fill="#A80036" stroke="#a80036" d="M510.693 197.112l-.97-9.801-1.5 5.454-5.455-1.5 7.925 5.847z"/><path d="M449.28 319.687l55.635-78.562" fill="none" stroke="#a80036" stroke-width="2"/><path fill="#A80036" stroke="#a80036" d="M507.98 236.797l-8.465 5.033 5.576-.953.953 5.576 1.937-9.656z"/><path d="M522 196.663V101.94" fill="none" stroke="#a80036" stroke-width="2"/><path fill="#A80036" stroke="#a80036" d="M522 96.766l-4 9 4-4 4 4-4-9z"/><path d="M521.531 237.078l-1.807 77.426" fill="none" stroke="#a80036" stroke-width="2"/><path fill="#A80036" stroke="#a80036" d="M519.6 319.805l4.21-8.904-4.093 3.905-3.906-4.092 3.789 9.09z"/><path d="M535.095 236.797l54.878 82.962" fill="none" stroke="#a80036" stroke-width="2"/><path fill="#A80036" stroke="#a80036" d="M592.898 324.182l-1.629-9.714-1.13 5.543-5.542-1.129 8.301 5.3z"/></svg>