<svg xmlns="http://www.w3.org/2000/svg" height="105" preserveAspectRatio="none" style="width:343px;height:105px" width="343"><defs><filter height="300%" id="a" width="300%" x="-1" y="-1"><feGaussianBlur result="blurOut" stdDeviation="2"/><feColorMatrix in="blurOut" result="blurOut2" values="0 0 0 0 0 0 0 0 0 0 0 0 0 0 0 0 0 0 .4 0"/><feOffset dx="4" dy="4" in="blurOut2" result="blurOut3"/><feBlend in="SourceGraphic" in2="blurOut3"/></filter></defs><circle cx="16" cy="51" filter="url(#a)" r="10"/><rect fill="#FEFECE" filter="url(#a)" height="86.406" rx="12.5" ry="12.5" width="80" x="113" y="8" stroke="#a80036" stroke-width="1.5"/><path stroke="#a80036" stroke-width="1.5" d="M113 36.594h80"/><text font-family="Futura" font-size="14" lengthAdjust="spacingAndGlyphs" textLength="60" x="123" y="27.957">published</text><text font-family="Futura" font-size="12" lengthAdjust="spacingAndGlyphs" textLength="21" x="118" y="54.414">SYS</text><text font-family="Futura" font-size="12" lengthAdjust="spacingAndGlyphs" textLength="23" x="118" y="70.352">DES</text><text font-family="Futura" font-size="12" lengthAdjust="spacingAndGlyphs" textLength="20" x="118" y="86.289">IVV</text><rect fill="#FEFECE" filter="url(#a)" height="50" rx="12.5" ry="12.5" width="66" x="265" y="26" stroke="#a80036" stroke-width="1.5"/><path stroke="#a80036" stroke-width="1.5" d="M265 54.594h66"/><text font-family="Futura" font-size="14" lengthAdjust="spacingAndGlyphs" textLength="46" x="275" y="45.957">verified</text><path d="M26.297 51h81.357" fill="none" stroke="#a80036"/><path fill="#A80036" stroke="#a80036" d="M112.988 51l-9-4 4 4-4 4 9-4z"/><text font-family="Futura" font-size="13" lengthAdjust="spacingAndGlyphs" textLength="50" x="44.5" y="43.889">Establish</text><path d="M193.006 51h66.843" fill="none" stroke="#a80036"/><path fill="#A80036" stroke="#a80036" d="M264.974 51l-9-4 4 4-4 4 9-4z"/><text font-family="Futura" font-size="13" lengthAdjust="spacingAndGlyphs" textLength="35" x="211.5" y="43.889">Verify</text></svg>