<?xml version="1.0" encoding="UTF-8" standalone="no"?><svg xmlns="http://www.w3.org/2000/svg" xmlns:xlink="http://www.w3.org/1999/xlink" contentScriptType="application/ecmascript" contentStyleType="text/css" height="370px" preserveAspectRatio="none" style="width:1565px;height:370px;" version="1.1" viewBox="0 0 1565 370" width="1565px" zoomAndPan="magnify"><defs><filter height="300%" id="frbv2dr5mfhn8" width="300%" x="-1" y="-1"><feGaussianBlur result="blurOut" stdDeviation="2.0"/><feColorMatrix in="blurOut" result="blurOut2" type="matrix" values="0 0 0 0 0 0 0 0 0 0 0 0 0 0 0 0 0 0 .4 0"/><feOffset dx="4.0" dy="4.0" in="blurOut2" result="blurOut3"/><feBlend in="SourceGraphic" in2="blurOut3" mode="normal"/></filter></defs><g><!--cluster System--><rect fill="#FFFFFF" filter="url(#frbv2dr5mfhn8)" height="88" style="stroke: #000000; stroke-width: 1.5;" width="349" x="968" y="271"/><polygon fill="#FFFFFF" points="1300,276,1300,290,1312,290,1312,282,1306,276,1300,276" style="stroke: #000000; stroke-width: 1.5;"/><line style="stroke: #000000; stroke-width: 1.5;" x1="1306" x2="1306" y1="276" y2="282"/><line style="stroke: #000000; stroke-width: 1.5;" x1="1312" x2="1306" y1="282" y2="282"/><text fill="#000000" font-family="Futura" font-size="14" font-weight="bold" lengthAdjust="spacingAndGlyphs" textLength="54" x="1115.5" y="287.966">System</text><!--entity PROD_SYSTEM_INTEGRATED--><ellipse cx="1008" cy="316" fill="#FEFECE" filter="url(#frbv2dr5mfhn8)" rx="12" ry="12" style="stroke: #A80036; stroke-width: 2.0;"/><polygon fill="#A80036" points="1004,304,1010,299,1008,304,1010,309,1004,304" style="stroke: #A80036; stroke-width: 1.0;"/><text fill="#000000" font-family="Futura" font-size="14" lengthAdjust="spacingAndGlyphs" textLength="64" x="976" y="346.957">integrated</text><!--entity PROD_SYSTEM_VERIFIED--><ellipse cx="1098" cy="316" fill="#FEFECE" filter="url(#frbv2dr5mfhn8)" rx="12" ry="12" style="stroke: #A80036; stroke-width: 2.0;"/><polygon fill="#A80036" points="1094,304,1100,299,1098,304,1100,309,1094,304" style="stroke: #A80036; stroke-width: 1.0;"/><text fill="#000000" font-family="Futura" font-size="14" lengthAdjust="spacingAndGlyphs" textLength="46" x="1075" y="346.957">verified</text><!--entity PROD_SYSTEM_VALIDATED--><ellipse cx="1185" cy="316" fill="#FEFECE" filter="url(#frbv2dr5mfhn8)" rx="12" ry="12" style="stroke: #A80036; stroke-width: 2.0;"/><polygon fill="#A80036" points="1181,304,1187,299,1185,304,1187,309,1181,304" style="stroke: #A80036; stroke-width: 1.0;"/><text fill="#000000" font-family="Futura" font-size="14" lengthAdjust="spacingAndGlyphs" textLength="57" x="1156.5" y="346.957">validated</text><!--entity PROD_SYSTEM_CORRECTED--><ellipse cx="1279" cy="316" fill="#FEFECE" filter="url(#frbv2dr5mfhn8)" rx="12" ry="12" style="stroke: #A80036; stroke-width: 2.0;"/><polygon fill="#A80036" points="1275,304,1281,299,1279,304,1281,309,1275,304" style="stroke: #A80036; stroke-width: 1.0;"/><text fill="#000000" font-family="Futura" font-size="14" lengthAdjust="spacingAndGlyphs" textLength="60" x="1249" y="346.957">corrected</text><!--entity DES--><ellipse cx="21" cy="18" fill="#FEFECE" filter="url(#frbv2dr5mfhn8)" rx="8" ry="8" style="stroke: #A80036; stroke-width: 2.0;"/><path d="M21,26 L21,53 M8,34 L34,34 M21,53 L8,68 M21,53 L34,68 " fill="none" filter="url(#frbv2dr5mfhn8)" style="stroke: #A80036; stroke-width: 2.0;"/><text fill="#000000" font-family="Futura" font-size="14" lengthAdjust="spacingAndGlyphs" textLength="26" x="8" y="89.957">DES</text><!--entity DEV--><ellipse cx="86" cy="18" fill="#FEFECE" filter="url(#frbv2dr5mfhn8)" rx="8" ry="8" style="stroke: #A80036; stroke-width: 2.0;"/><path d="M86,26 L86,53 M73,34 L99,34 M86,53 L73,68 M86,53 L99,68 " fill="none" filter="url(#frbv2dr5mfhn8)" style="stroke: #A80036; stroke-width: 2.0;"/><text fill="#000000" font-family="Futura" font-size="14" lengthAdjust="spacingAndGlyphs" textLength="27" x="72.5" y="89.957">DEV</text><!--entity SYS--><ellipse cx="151" cy="18" fill="#FEFECE" filter="url(#frbv2dr5mfhn8)" rx="8" ry="8" style="stroke: #A80036; stroke-width: 2.0;"/><path d="M151,26 L151,53 M138,34 L164,34 M151,53 L138,68 M151,53 L164,68 " fill="none" filter="url(#frbv2dr5mfhn8)" style="stroke: #A80036; stroke-width: 2.0;"/><text fill="#000000" font-family="Futura" font-size="14" lengthAdjust="spacingAndGlyphs" textLength="24" x="139" y="89.957">SYS</text><!--entity IVV--><ellipse cx="21" cy="164" fill="#FEFECE" filter="url(#frbv2dr5mfhn8)" rx="8" ry="8" style="stroke: #A80036; stroke-width: 2.0;"/><path d="M21,172 L21,199 M8,180 L34,180 M21,199 L8,214 M21,199 L34,214 " fill="none" filter="url(#frbv2dr5mfhn8)" style="stroke: #A80036; stroke-width: 2.0;"/><text fill="#000000" font-family="Futura" font-size="14" lengthAdjust="spacingAndGlyphs" textLength="22" x="10" y="235.957">IVV</text><!--entity WT--><ellipse cx="86" cy="164" fill="#FEFECE" filter="url(#frbv2dr5mfhn8)" rx="8" ry="8" style="stroke: #A80036; stroke-width: 2.0;"/><path d="M86,172 L86,199 M73,180 L99,180 M86,199 L73,214 M86,199 L99,214 " fill="none" filter="url(#frbv2dr5mfhn8)" style="stroke: #A80036; stroke-width: 2.0;"/><text fill="#000000" font-family="Futura" font-size="14" lengthAdjust="spacingAndGlyphs" textLength="22" x="75" y="235.957">WT</text><!--entity ACQ--><ellipse cx="153" cy="164" fill="#FEFECE" filter="url(#frbv2dr5mfhn8)" rx="8" ry="8" style="stroke: #A80036; stroke-width: 2.0;"/><path d="M153,172 L153,199 M140,180 L166,180 M153,199 L140,214 M153,199 L166,214 " fill="none" filter="url(#frbv2dr5mfhn8)" style="stroke: #A80036; stroke-width: 2.0;"/><text fill="#000000" font-family="Futura" font-size="14" lengthAdjust="spacingAndGlyphs" textLength="33" x="136.5" y="235.957">ACQ</text><!--entity PROD_IVV_PROCEDURES_VERIFIED--><rect fill="#FEFECE" filter="url(#frbv2dr5mfhn8)" height="41.5938" style="stroke: #000000; stroke-width: 1.5;" width="187" x="365.5" y="30"/><polygon fill="#FEFECE" points="535.5,35,535.5,49,547.5,49,547.5,41,541.5,35,535.5,35" style="stroke: #000000; stroke-width: 1.5;"/><line style="stroke: #000000; stroke-width: 1.5;" x1="541.5" x2="541.5" y1="35" y2="41"/><line style="stroke: #000000; stroke-width: 1.5;" x1="547.5" x2="541.5" y1="41" y2="41"/><text fill="#000000" font-family="Futura" font-size="14" lengthAdjust="spacingAndGlyphs" textLength="157" x="375.5" y="57.957">IVV Procedures (verified)</text><!--entity PROD_STRS_VALIDATED--><rect fill="#FEFECE" filter="url(#frbv2dr5mfhn8)" height="41.5938" style="stroke: #000000; stroke-width: 1.5;" width="129" x="1245.5" y="30"/><polygon fill="#FEFECE" points="1357.5,35,1357.5,49,1369.5,49,1369.5,41,1363.5,35,1357.5,35" style="stroke: #000000; stroke-width: 1.5;"/><line style="stroke: #000000; stroke-width: 1.5;" x1="1363.5" x2="1363.5" y1="35" y2="41"/><line style="stroke: #000000; stroke-width: 1.5;" x1="1369.5" x2="1363.5" y1="41" y2="41"/><text fill="#000000" font-family="Futura" font-size="14" lengthAdjust="spacingAndGlyphs" textLength="99" x="1255.5" y="57.957">StRS (validated)</text><!--entity PROD_SDD_VALIDATED--><rect fill="#FEFECE" filter="url(#frbv2dr5mfhn8)" height="41.5938" style="stroke: #000000; stroke-width: 1.5;" width="129" x="201.5" y="30"/><polygon fill="#FEFECE" points="313.5,35,313.5,49,325.5,49,325.5,41,319.5,35,313.5,35" style="stroke: #000000; stroke-width: 1.5;"/><line style="stroke: #000000; stroke-width: 1.5;" x1="319.5" x2="319.5" y1="35" y2="41"/><line style="stroke: #000000; stroke-width: 1.5;" x1="325.5" x2="319.5" y1="41" y2="41"/><text fill="#000000" font-family="Futura" font-size="14" lengthAdjust="spacingAndGlyphs" textLength="99" x="211.5" y="57.957">SDD (validated)</text><!--entity PROD_SERS_VALIDATED--><rect fill="#FEFECE" filter="url(#frbv2dr5mfhn8)" height="41.5938" style="stroke: #000000; stroke-width: 1.5;" width="133" x="587.5" y="30"/><polygon fill="#FEFECE" points="703.5,35,703.5,49,715.5,49,715.5,41,709.5,35,703.5,35" style="stroke: #000000; stroke-width: 1.5;"/><line style="stroke: #000000; stroke-width: 1.5;" x1="709.5" x2="709.5" y1="35" y2="41"/><line style="stroke: #000000; stroke-width: 1.5;" x1="715.5" x2="709.5" y1="41" y2="41"/><text fill="#000000" font-family="Futura" font-size="14" lengthAdjust="spacingAndGlyphs" textLength="103" x="597.5" y="57.957">SERS (validated)</text><!--entity PROD_SE_SWHW_ACCEPTED--><rect fill="#FEFECE" filter="url(#frbv2dr5mfhn8)" height="41.5938" style="stroke: #000000; stroke-width: 1.5;" width="272" x="756" y="30"/><polygon fill="#FEFECE" points="1011,35,1011,49,1023,49,1023,41,1017,35,1011,35" style="stroke: #000000; stroke-width: 1.5;"/><line style="stroke: #000000; stroke-width: 1.5;" x1="1017" x2="1017" y1="35" y2="41"/><line style="stroke: #000000; stroke-width: 1.5;" x1="1023" x2="1017" y1="41" y2="41"/><text fill="#000000" font-family="Futura" font-size="14" lengthAdjust="spacingAndGlyphs" textLength="242" x="766" y="57.957">System Elements (SW+HW, accepted)</text><!--entity META_TRACE_MATRIX--><rect fill="#FEFECE" filter="url(#frbv2dr5mfhn8)" height="41.5938" style="stroke: #000000; stroke-width: 1.5;" width="147" x="1063.5" y="30"/><polygon fill="#FEFECE" points="1193.5,35,1193.5,49,1205.5,49,1205.5,41,1199.5,35,1193.5,35" style="stroke: #000000; stroke-width: 1.5;"/><line style="stroke: #000000; stroke-width: 1.5;" x1="1199.5" x2="1199.5" y1="35" y2="41"/><line style="stroke: #000000; stroke-width: 1.5;" x1="1205.5" x2="1199.5" y1="41" y2="41"/><text fill="#000000" font-family="Futura" font-size="14" lengthAdjust="spacingAndGlyphs" textLength="117" x="1073.5" y="57.957">Traceability Matrix</text><!--entity PROD_SYSRS_VALIDATED--><rect fill="#FEFECE" filter="url(#frbv2dr5mfhn8)" height="41.5938" style="stroke: #000000; stroke-width: 1.5;" width="139" x="1409.5" y="30"/><polygon fill="#FEFECE" points="1531.5,35,1531.5,49,1543.5,49,1543.5,41,1537.5,35,1531.5,35" style="stroke: #000000; stroke-width: 1.5;"/><line style="stroke: #000000; stroke-width: 1.5;" x1="1537.5" x2="1537.5" y1="35" y2="41"/><line style="stroke: #000000; stroke-width: 1.5;" x1="1543.5" x2="1537.5" y1="41" y2="41"/><text fill="#000000" font-family="Futura" font-size="14" lengthAdjust="spacingAndGlyphs" textLength="109" x="1419.5" y="57.957">SysRS (validated)</text><!--entity META_ACCEPTANCE_APPROVED--><rect fill="#FEFECE" filter="url(#frbv2dr5mfhn8)" height="41.5938" style="stroke: #000000; stroke-width: 1.5;" width="279" x="661.5" y="304.5"/><polygon fill="#FEFECE" points="923.5,309.5,923.5,323.5,935.5,323.5,935.5,315.5,929.5,309.5,923.5,309.5" style="stroke: #000000; stroke-width: 1.5;"/><line style="stroke: #000000; stroke-width: 1.5;" x1="929.5" x2="929.5" y1="309.5" y2="315.5"/><line style="stroke: #000000; stroke-width: 1.5;" x1="935.5" x2="929.5" y1="315.5" y2="315.5"/><text fill="#000000" font-family="Futura" font-size="14" lengthAdjust="spacingAndGlyphs" textLength="249" x="671.5" y="332.457">Product Acceptance Record (approved)</text><ellipse cx="686.9968" cy="197.0994" fill="#FEFECE" filter="url(#frbv2dr5mfhn8)" rx="73.4968" ry="17.0994" style="stroke: #A80036; stroke-width: 1.5;"/><text fill="#000000" font-family="Futura" font-size="14" lengthAdjust="spacingAndGlyphs" textLength="106" x="633.9968" y="202.8962">Integrate System</text><ellipse cx="1103.8112" cy="197.1478" fill="#FEFECE" filter="url(#frbv2dr5mfhn8)" rx="63.8112" ry="16.1478" style="stroke: #A80036; stroke-width: 1.5;"/><text fill="#000000" font-family="Futura" font-size="14" lengthAdjust="spacingAndGlyphs" textLength="86" x="1060.8112" y="202.9446">Verify System</text><ellipse cx="932.77" cy="197.154" fill="#FEFECE" filter="url(#frbv2dr5mfhn8)" rx="71.27" ry="16.654" style="stroke: #A80036; stroke-width: 1.5;"/><text fill="#000000" font-family="Futura" font-size="14" lengthAdjust="spacingAndGlyphs" textLength="100" x="882.77" y="202.9509">Validate System</text><ellipse cx="1274.0411" cy="197.0082" fill="#FEFECE" filter="url(#frbv2dr5mfhn8)" rx="70.5411" ry="16.5082" style="stroke: #A80036; stroke-width: 1.5;"/><text fill="#000000" font-family="Futura" font-size="14" lengthAdjust="spacingAndGlyphs" textLength="98" x="1225.0411" y="202.8051">Correct Defects</text><!--link PROD_SDD_VALIDATED to SR5_2--><path d="M302.8498,72.2102 C316.7292,79.6926 332.8286,87.782 348,94 C444.7966,133.6722 562.5966,166.0912 630.7734,183.3851 " fill="none" id="PROD_SDD_VALIDATED-SR5_2" style="stroke: #A80036; stroke-width: 2.0;"/><polygon fill="#A80036" points="635.9996,184.7058,628.2541,178.6225,631.152,183.4807,626.2938,186.3786,635.9996,184.7058" style="stroke: #A80036; stroke-width: 1.0;"/><!--link PROD_SERS_VALIDATED to SR5_2--><path d="M658.7985,72.2297 C664.9914,99.6285 675.7153,147.0736 682.0032,174.8928 " fill="none" id="PROD_SERS_VALIDATED-SR5_2" style="stroke: #A80036; stroke-width: 2.0;"/><polygon fill="#A80036" points="683.1235,179.8496,685.041,170.1892,682.0212,174.9726,677.2378,171.9529,683.1235,179.8496" style="stroke: #A80036; stroke-width: 1.0;"/><!--link META_TRACE_MATRIX to SR5_2--><path d="M1095.9335,72.1369 C1080.5121,79.6113 1062.6779,87.7145 1046,94 C1017.0527,104.9096 831.7677,156.7909 739.3151,182.4966 " fill="none" id="META_TRACE_MATRIX-SR5_2" style="stroke: #A80036; stroke-width: 2.0;"/><polygon fill="#A80036" points="734.443,183.8509,744.1855,185.2943,739.2603,182.5117,742.0429,177.5866,734.443,183.8509" style="stroke: #A80036; stroke-width: 1.0;"/><!--link PROD_SE_SWHW_ACCEPTED to SR5_2--><path d="M862.1912,72.2297 C822.4953,100.5009 752.8311,150.1154 714.3952,177.4893 " fill="none" id="PROD_SE_SWHW_ACCEPTED-SR5_2" style="stroke: #A80036; stroke-width: 2.0;"/><polygon fill="#A80036" points="709.8669,180.7143,719.5182,178.7515,713.9396,177.8137,714.8773,172.2352,709.8669,180.7143" style="stroke: #A80036; stroke-width: 1.0;"/><!--link PROD_IVV_PROCEDURES_VERIFIED to SR5_2--><path d="M492.1532,72.2297 C536.6914,100.7498 615.1496,150.9905 657.6519,178.2069 " fill="none" id="PROD_IVV_PROCEDURES_VERIFIED-SR5_2" style="stroke: #A80036; stroke-width: 2.0;"/><polygon fill="#A80036" points="661.9008,180.9277,656.4787,172.7057,657.6902,178.2313,652.1645,179.4427,661.9008,180.9277" style="stroke: #A80036; stroke-width: 1.0;"/><!--link SR5_2 to PROD_SYSTEM_INTEGRATED--><path d="M734.3991,210.0061 C765.5464,218.5467 807.194,229.9554 844,240 C894.6541,253.8239 913.154,243.6912 958,271 C968.6518,277.4864 978.4181,286.8957 986.4377,296.0764 " fill="none" id="SR5_2-PROD_SYSTEM_INTEGRATED" style="stroke: #A80036; stroke-width: 2.0;"/><polygon fill="#A80036" points="989.7652,299.9878,986.9801,290.5409,986.5253,296.1795,980.8868,295.7247,989.7652,299.9878" style="stroke: #A80036; stroke-width: 1.0;"/><!--link PROD_SYSTEM_INTEGRATED to SR5_3--><path d="M1027.1675,299.8435 C1045.3724,275.4755 1072.368,239.3407 1089.0379,217.0274 " fill="none" id="PROD_SYSTEM_INTEGRATED-SR5_3" style="stroke: #A80036; stroke-width: 2.0;"/><polygon fill="#A80036" points="1092.2285,212.7566,1083.6375,217.5728,1089.236,216.7622,1090.0466,222.3607,1092.2285,212.7566" style="stroke: #A80036; stroke-width: 1.0;"/><!--link PROD_SYSRS_VALIDATED to SR5_3--><path d="M1439.8144,72.1927 C1425.0791,79.6732 1408.0147,87.7658 1392,94 C1303.1358,128.593 1274.444,118.3463 1186,154 C1168.1652,161.1896 1149.0931,171.0493 1133.8344,179.5138 " fill="none" id="PROD_SYSRS_VALIDATED-SR5_3" style="stroke: #A80036; stroke-width: 2.0;"/><polygon fill="#A80036" points="1129.227,182.0914,1139.0343,181.1878,1133.5905,179.6501,1135.1282,174.2062,1129.227,182.0914" style="stroke: #A80036; stroke-width: 1.0;"/><!--link META_TRACE_MATRIX to SR5_3--><path d="M1132.2015,72.2297 C1125.9413,99.9263 1115.0511,148.1074 1108.7934,175.7929 " fill="none" id="META_TRACE_MATRIX-SR5_3" style="stroke: #A80036; stroke-width: 2.0;"/><polygon fill="#A80036" points="1107.681,180.7143,1113.5669,172.8177,1108.7834,175.8373,1105.7638,171.0538,1107.681,180.7143" style="stroke: #A80036; stroke-width: 1.0;"/><!--link PROD_IVV_PROCEDURES_VERIFIED to SR5_3--><path d="M505.9938,72.0555 C525.4588,80.0215 548.4787,88.4868 570,94 C766.312,144.2896 828.8528,92.6679 1022,154 C1040.883,159.9961 1060.5905,170.1856 1075.9517,179.1408 " fill="none" id="PROD_IVV_PROCEDURES_VERIFIED-SR5_3" style="stroke: #A80036; stroke-width: 2.0;"/><polygon fill="#A80036" points="1080.5737,181.8744,1074.8636,173.8498,1076.2701,179.329,1070.7909,180.7355,1080.5737,181.8744" style="stroke: #A80036; stroke-width: 1.0;"/><!--link SR5_3 to PROD_SYSTEM_VERIFIED--><path d="M1103.2522,213.0148 C1102.298,233.4507 1100.6274,269.2292 1099.4263,294.9533 " fill="none" id="SR5_3-PROD_SYSTEM_VERIFIED" style="stroke: #A80036; stroke-width: 2.0;"/><polygon fill="#A80036" points="1099.1927,299.9565,1103.6083,291.1529,1099.426,294.9619,1095.617,290.7797,1099.1927,299.9565" style="stroke: #A80036; stroke-width: 1.0;"/><!--link PROD_STRS_VALIDATED to SR5_4--><path d="M1273.592,72.0744 C1259.6248,79.6276 1243.3521,87.7995 1228,94 C1139.9749,129.5519 1111.672,120.094 1023,154 C1003.78,161.3493 983.0117,171.1405 966.2736,179.5233 " fill="none" id="PROD_STRS_VALIDATED-SR5_4" style="stroke: #A80036; stroke-width: 2.0;"/><polygon fill="#A80036" points="961.6641,181.8471,971.5013,181.3673,966.1288,179.5962,967.8999,174.2238,961.6641,181.8471" style="stroke: #A80036; stroke-width: 1.0;"/><!--link META_TRACE_MATRIX to SR5_4--><path d="M1107.3366,72.2297 C1067.6219,100.6529 997.7637,150.6495 959.6474,177.9288 " fill="none" id="META_TRACE_MATRIX-SR5_4" style="stroke: #A80036; stroke-width: 2.0;"/><polygon fill="#A80036" points="955.1606,181.14,964.8073,179.1548,959.2266,178.23,960.1514,172.6493,955.1606,181.14" style="stroke: #A80036; stroke-width: 1.0;"/><!--link PROD_IVV_PROCEDURES_VERIFIED to SR5_4--><path d="M510.3101,72.0242 C528.9662,79.3632 550.3046,87.4068 570,94 C599.8658,103.9978 789.7062,157.099 882.3194,182.9025 " fill="none" id="PROD_IVV_PROCEDURES_VERIFIED-SR5_4" style="stroke: #A80036; stroke-width: 2.0;"/><polygon fill="#A80036" points="887.1958,184.2609,879.5994,177.9924,882.3792,182.9191,877.4525,185.6989,887.1958,184.2609" style="stroke: #A80036; stroke-width: 1.0;"/><!--link PROD_SYSTEM_VERIFIED to SR5_4--><path d="M1082.3909,299.8968 C1075.6626,290.1323 1067.22,279.3527 1058,271 C1031.7837,247.2498 996.7686,227.3097 970.4676,214.1349 " fill="none" id="PROD_SYSTEM_VERIFIED-SR5_4" style="stroke: #A80036; stroke-width: 2.0;"/><polygon fill="#A80036" points="965.6622,211.7542,971.951,219.3338,970.1425,213.9739,975.5025,212.1653,965.6622,211.7542" style="stroke: #A80036; stroke-width: 1.0;"/><!--link SR5_4 to PROD_SYSTEM_VALIDATED--><path d="M961.5962,212.3336 C979.001,221.2415 1001.8796,232.2084 1023,240 C1073.0665,258.4703 1093.9417,242.4071 1139,271 C1148.9724,277.3283 1157.8999,286.5076 1165.1765,295.5345 " fill="none" id="SR5_4-PROD_SYSTEM_VALIDATED" style="stroke: #A80036; stroke-width: 2.0;"/><polygon fill="#A80036" points="1168.6134,299.9405,1166.2318,290.3839,1165.5381,295.9981,1159.924,295.3044,1168.6134,299.9405" style="stroke: #A80036; stroke-width: 1.0;"/><!--link SR5_4 to META_ACCEPTANCE_APPROVED--><path d="M916.2821,213.2746 C893.6684,235.2887 853.1215,274.7606 826.642,300.5379 " fill="none" id="SR5_4-META_ACCEPTANCE_APPROVED" style="stroke: #A80036; stroke-width: 2.0;"/><polygon fill="#A80036" points="822.8411,304.2381,832.0802,300.8266,826.4239,300.7505,826.5,295.0941,822.8411,304.2381" style="stroke: #A80036; stroke-width: 1.0;"/><!--link PROD_SYSTEM_VALIDATED to SR5_5--><path d="M1202.8658,299.705 C1219.5436,275.6252 1244.118,240.1442 1259.5809,217.8185 " fill="none" id="PROD_SYSTEM_VALIDATED-SR5_5" style="stroke: #A80036; stroke-width: 2.0;"/><polygon fill="#A80036" points="1262.547,213.5361,1254.1342,218.6572,1259.7001,217.6464,1260.7108,223.2123,1262.547,213.5361" style="stroke: #A80036; stroke-width: 1.0;"/><!--link PROD_IVV_PROCEDURES_VERIFIED to SR5_5--><path d="M505.088,72.0996 C524.708,80.2226 548.0842,88.7913 570,94 C837.6187,157.6051 921.3227,79.0913 1186,154 C1206.1898,159.7141 1227.3623,169.9105 1243.879,178.9404 " fill="none" id="PROD_IVV_PROCEDURES_VERIFIED-SR5_5" style="stroke: #A80036; stroke-width: 2.0;"/><polygon fill="#A80036" points="1248.4094,181.4516,1242.4772,173.5898,1244.0363,179.0275,1238.5986,180.5867,1248.4094,181.4516" style="stroke: #A80036; stroke-width: 1.0;"/><!--link SR5_5 to PROD_SYSTEM_CORRECTED--><path d="M1274.6434,213.5361 C1275.4363,233.9133 1276.8,268.96 1277.7909,294.4251 " fill="none" id="SR5_5-PROD_SYSTEM_CORRECTED" style="stroke: #A80036; stroke-width: 2.0;"/><polygon fill="#A80036" points="1277.9963,299.705,1281.6433,290.5563,1277.8019,294.7088,1273.6494,290.8673,1277.9963,299.705" style="stroke: #A80036; stroke-width: 1.0;"/><!--link DES to DEV--><!--link DEV to SYS--><!--link DES to IVV--><!--link IVV to WT--><!--link WT to ACQ--><!--
@startuml



skinparam handwritten false
skinparam defaultFontName Futura


actor DES
actor DEV
actor SYS
actor IVV
actor WT
actor ACQ

artifact "IVV Procedures (verified)" as PROD_IVV_PROCEDURES_VERIFIED
artifact "StRS (validated)" as PROD_STRS_VALIDATED
artifact "SDD (validated)" as PROD_SDD_VALIDATED
artifact "SERS (validated)" as PROD_SERS_VALIDATED
artifact "System Elements (SW+HW, accepted)" as PROD_SE_SWHW_ACCEPTED
artifact "Traceability Matrix" as META_TRACE_MATRIX
artifact "SysRS (validated)" as PROD_SYSRS_VALIDATED
artifact "Product Acceptance Record (approved)" as META_ACCEPTANCE_APPROVED
artifact "System" {
control "integrated" as PROD_SYSTEM_INTEGRATED
control "verified" as PROD_SYSTEM_VERIFIED
control "validated" as PROD_SYSTEM_VALIDATED
control "corrected" as PROD_SYSTEM_CORRECTED
}

usecase "Integrate System" as SR5_2
PROD_SDD_VALIDATED ==> SR5_2
PROD_SERS_VALIDATED ==> SR5_2
META_TRACE_MATRIX ==> SR5_2
PROD_SE_SWHW_ACCEPTED ==> SR5_2
PROD_IVV_PROCEDURES_VERIFIED ==> SR5_2
SR5_2 ==> PROD_SYSTEM_INTEGRATED

usecase "Verify System" as SR5_3
PROD_SYSTEM_INTEGRATED ==> SR5_3
PROD_SYSRS_VALIDATED ==> SR5_3
META_TRACE_MATRIX ==> SR5_3
PROD_IVV_PROCEDURES_VERIFIED ==> SR5_3
SR5_3 ==> PROD_SYSTEM_VERIFIED

usecase "Validate System" as SR5_4
PROD_STRS_VALIDATED ==> SR5_4
META_TRACE_MATRIX ==> SR5_4
PROD_IVV_PROCEDURES_VERIFIED ==> SR5_4
PROD_SYSTEM_VERIFIED ==> SR5_4
SR5_4 ==> PROD_SYSTEM_VALIDATED
SR5_4 ==> META_ACCEPTANCE_APPROVED

usecase "Correct Defects" as SR5_5
PROD_SYSTEM_VALIDATED ==> SR5_5
PROD_IVV_PROCEDURES_VERIFIED ==> SR5_5
SR5_5 ==> PROD_SYSTEM_CORRECTED

@enduml

PlantUML version 1.2019.00(Sun Jan 13 07:46:42 PST 2019)
(GPL source distribution)
Java Runtime: Java(TM) SE Runtime Environment
JVM: Java HotSpot(TM) 64-Bit Server VM
Java Version: 10.0.1+10
Operating System: Mac OS X
OS Version: 10.14.3
Default Encoding: UTF-8
Language: en
Country: US
--></g></svg>