<?xml version="1.0" encoding="UTF-8" standalone="no"?><svg xmlns="http://www.w3.org/2000/svg" xmlns:xlink="http://www.w3.org/1999/xlink" contentScriptType="application/ecmascript" contentStyleType="text/css" height="370px" preserveAspectRatio="none" style="width:906px;height:370px;" version="1.1" viewBox="0 0 906 370" width="906px" zoomAndPan="magnify"><defs><filter height="300%" id="f7d7h69sasug3" width="300%" x="-1" y="-1"><feGaussianBlur result="blurOut" stdDeviation="2.0"/><feColorMatrix in="blurOut" result="blurOut2" type="matrix" values="0 0 0 0 0 0 0 0 0 0 0 0 0 0 0 0 0 0 .4 0"/><feOffset dx="4.0" dy="4.0" in="blurOut2" result="blurOut3"/><feBlend in="SourceGraphic" in2="blurOut3" mode="normal"/></filter></defs><g><!--cluster SERS--><rect fill="#FFFFFF" filter="url(#f7d7h69sasug3)" height="88" style="stroke: #000000; stroke-width: 1.5;" width="158" x="731" y="271"/><polygon fill="#FFFFFF" points="872,276,872,290,884,290,884,282,878,276,872,276" style="stroke: #000000; stroke-width: 1.5;"/><line style="stroke: #000000; stroke-width: 1.5;" x1="878" x2="878" y1="276" y2="282"/><line style="stroke: #000000; stroke-width: 1.5;" x1="884" x2="878" y1="282" y2="282"/><text fill="#000000" font-family="Futura" font-size="14" font-weight="bold" lengthAdjust="spacingAndGlyphs" textLength="36" x="792" y="287.966">SERS</text><!--cluster SysRS--><rect fill="#FFFFFF" filter="url(#f7d7h69sasug3)" height="88" style="stroke: #000000; stroke-width: 1.5;" width="239" x="390" y="271"/><polygon fill="#FFFFFF" points="612,276,612,290,624,290,624,282,618,276,612,276" style="stroke: #000000; stroke-width: 1.5;"/><line style="stroke: #000000; stroke-width: 1.5;" x1="618" x2="618" y1="276" y2="282"/><line style="stroke: #000000; stroke-width: 1.5;" x1="624" x2="618" y1="282" y2="282"/><text fill="#000000" font-family="Futura" font-size="14" font-weight="bold" lengthAdjust="spacingAndGlyphs" textLength="45" x="487" y="287.966">SysRS</text><!--entity PROD_SERS_INITIATED--><ellipse cx="856" cy="316" fill="#FEFECE" filter="url(#f7d7h69sasug3)" rx="12" ry="12" style="stroke: #A80036; stroke-width: 2.0;"/><polygon fill="#A80036" points="852,304,858,299,856,304,858,309,852,304" style="stroke: #A80036; stroke-width: 1.0;"/><text fill="#000000" font-family="Futura" font-size="14" lengthAdjust="spacingAndGlyphs" textLength="49" x="831.5" y="346.957">initiated</text><!--entity PROD_SERS_VALIDATED--><ellipse cx="768" cy="316" fill="#FEFECE" filter="url(#f7d7h69sasug3)" rx="12" ry="12" style="stroke: #A80036; stroke-width: 2.0;"/><polygon fill="#A80036" points="764,304,770,299,768,304,770,309,764,304" style="stroke: #A80036; stroke-width: 1.0;"/><text fill="#000000" font-family="Futura" font-size="14" lengthAdjust="spacingAndGlyphs" textLength="57" x="739.5" y="346.957">validated</text><!--entity PROD_SYSRS_INITIATED--><ellipse cx="515" cy="316" fill="#FEFECE" filter="url(#f7d7h69sasug3)" rx="12" ry="12" style="stroke: #A80036; stroke-width: 2.0;"/><polygon fill="#A80036" points="511,304,517,299,515,304,517,309,511,304" style="stroke: #A80036; stroke-width: 1.0;"/><text fill="#000000" font-family="Futura" font-size="14" lengthAdjust="spacingAndGlyphs" textLength="49" x="490.5" y="346.957">initiated</text><!--entity PROD_SYSRS_VERIFIED--><ellipse cx="598" cy="316" fill="#FEFECE" filter="url(#f7d7h69sasug3)" rx="12" ry="12" style="stroke: #A80036; stroke-width: 2.0;"/><polygon fill="#A80036" points="594,304,600,299,598,304,600,309,594,304" style="stroke: #A80036; stroke-width: 1.0;"/><text fill="#000000" font-family="Futura" font-size="14" lengthAdjust="spacingAndGlyphs" textLength="46" x="575" y="346.957">verified</text><!--entity PROD_SYSRS_VALIDATED--><ellipse cx="427" cy="316" fill="#FEFECE" filter="url(#f7d7h69sasug3)" rx="12" ry="12" style="stroke: #A80036; stroke-width: 2.0;"/><polygon fill="#A80036" points="423,304,429,299,427,304,429,309,423,304" style="stroke: #A80036; stroke-width: 1.0;"/><text fill="#000000" font-family="Futura" font-size="14" lengthAdjust="spacingAndGlyphs" textLength="57" x="398.5" y="346.957">validated</text><!--entity SYS--><ellipse cx="21" cy="18" fill="#FEFECE" filter="url(#f7d7h69sasug3)" rx="8" ry="8" style="stroke: #A80036; stroke-width: 2.0;"/><path d="M21,26 L21,53 M8,34 L34,34 M21,53 L8,68 M21,53 L34,68 " fill="none" filter="url(#f7d7h69sasug3)" style="stroke: #A80036; stroke-width: 2.0;"/><text fill="#000000" font-family="Futura" font-size="14" lengthAdjust="spacingAndGlyphs" textLength="24" x="9" y="89.957">SYS</text><!--entity DES--><ellipse cx="86" cy="18" fill="#FEFECE" filter="url(#f7d7h69sasug3)" rx="8" ry="8" style="stroke: #A80036; stroke-width: 2.0;"/><path d="M86,26 L86,53 M73,34 L99,34 M86,53 L73,68 M86,53 L99,68 " fill="none" filter="url(#f7d7h69sasug3)" style="stroke: #A80036; stroke-width: 2.0;"/><text fill="#000000" font-family="Futura" font-size="14" lengthAdjust="spacingAndGlyphs" textLength="26" x="73" y="89.957">DES</text><!--entity PJM--><ellipse cx="151" cy="18" fill="#FEFECE" filter="url(#f7d7h69sasug3)" rx="8" ry="8" style="stroke: #A80036; stroke-width: 2.0;"/><path d="M151,26 L151,53 M138,34 L164,34 M151,53 L138,68 M151,53 L164,68 " fill="none" filter="url(#f7d7h69sasug3)" style="stroke: #A80036; stroke-width: 2.0;"/><text fill="#000000" font-family="Futura" font-size="14" lengthAdjust="spacingAndGlyphs" textLength="27" x="137.5" y="89.957">PJM</text><!--entity WT--><ellipse cx="21" cy="164" fill="#FEFECE" filter="url(#f7d7h69sasug3)" rx="8" ry="8" style="stroke: #A80036; stroke-width: 2.0;"/><path d="M21,172 L21,199 M8,180 L34,180 M21,199 L8,214 M21,199 L34,214 " fill="none" filter="url(#f7d7h69sasug3)" style="stroke: #A80036; stroke-width: 2.0;"/><text fill="#000000" font-family="Futura" font-size="14" lengthAdjust="spacingAndGlyphs" textLength="22" x="10" y="235.957">WT</text><!--entity ACQ--><ellipse cx="88" cy="164" fill="#FEFECE" filter="url(#f7d7h69sasug3)" rx="8" ry="8" style="stroke: #A80036; stroke-width: 2.0;"/><path d="M88,172 L88,199 M75,180 L101,180 M88,199 L75,214 M88,199 L101,214 " fill="none" filter="url(#f7d7h69sasug3)" style="stroke: #A80036; stroke-width: 2.0;"/><text fill="#000000" font-family="Futura" font-size="14" lengthAdjust="spacingAndGlyphs" textLength="33" x="71.5" y="235.957">ACQ</text><!--entity STK--><ellipse cx="155" cy="164" fill="#FEFECE" filter="url(#f7d7h69sasug3)" rx="8" ry="8" style="stroke: #A80036; stroke-width: 2.0;"/><path d="M155,172 L155,199 M142,180 L168,180 M155,199 L142,214 M155,199 L168,214 " fill="none" filter="url(#f7d7h69sasug3)" style="stroke: #A80036; stroke-width: 2.0;"/><text fill="#000000" font-family="Futura" font-size="14" lengthAdjust="spacingAndGlyphs" textLength="24" x="143" y="235.957">STK</text><!--entity PROD_STRS_VALIDATED--><rect fill="#FEFECE" filter="url(#f7d7h69sasug3)" height="41.5938" style="stroke: #000000; stroke-width: 1.5;" width="129" x="359.5" y="30"/><polygon fill="#FEFECE" points="471.5,35,471.5,49,483.5,49,483.5,41,477.5,35,471.5,35" style="stroke: #000000; stroke-width: 1.5;"/><line style="stroke: #000000; stroke-width: 1.5;" x1="477.5" x2="477.5" y1="35" y2="41"/><line style="stroke: #000000; stroke-width: 1.5;" x1="483.5" x2="477.5" y1="41" y2="41"/><text fill="#000000" font-family="Futura" font-size="14" lengthAdjust="spacingAndGlyphs" textLength="99" x="369.5" y="57.957">StRS (validated)</text><!--entity META_CR--><rect fill="#FEFECE" filter="url(#f7d7h69sasug3)" height="41.5938" style="stroke: #000000; stroke-width: 1.5;" width="48" x="656" y="304.5"/><polygon fill="#FEFECE" points="687,309.5,687,323.5,699,323.5,699,315.5,693,309.5,687,309.5" style="stroke: #000000; stroke-width: 1.5;"/><line style="stroke: #000000; stroke-width: 1.5;" x1="693" x2="693" y1="309.5" y2="315.5"/><line style="stroke: #000000; stroke-width: 1.5;" x1="699" x2="693" y1="315.5" y2="315.5"/><text fill="#000000" font-family="Futura" font-size="14" lengthAdjust="spacingAndGlyphs" textLength="18" x="666" y="332.457">CR</text><ellipse cx="316.9656" cy="197.1931" fill="#FEFECE" filter="url(#f7d7h69sasug3)" rx="111.4656" ry="24.6931" style="stroke: #A80036; stroke-width: 1.5;"/><text fill="#000000" font-family="Futura" font-size="14" lengthAdjust="spacingAndGlyphs" textLength="196" x="218.9656" y="202.99">Elaborate SysRS and Interfaces</text><ellipse cx="723.7822" cy="197.0564" fill="#FEFECE" filter="url(#f7d7h69sasug3)" rx="88.2822" ry="20.0564" style="stroke: #A80036; stroke-width: 1.5;"/><text fill="#000000" font-family="Futura" font-size="14" lengthAdjust="spacingAndGlyphs" textLength="143" x="652.2822" y="202.8533">Verify SysRS and SERS</text><ellipse cx="532.2499" cy="197.15" fill="#FEFECE" filter="url(#f7d7h69sasug3)" rx="68.7499" ry="16.15" style="stroke: #A80036; stroke-width: 1.5;"/><text fill="#000000" font-family="Futura" font-size="14" lengthAdjust="spacingAndGlyphs" textLength="93" x="485.7499" y="202.9469">Validate SysRS</text><!--link PROD_STRS_VALIDATED to SR2_4--><path d="M408.4413,72.2297 C389.8792,97.5574 358.7627,140.0153 338.0593,168.2649 " fill="none" id="PROD_STRS_VALIDATED-SR2_4" style="stroke: #A80036; stroke-width: 2.0;"/><polygon fill="#A80036" points="335.083,172.326,343.6295,167.4313,338.0386,168.2931,337.1768,162.7023,335.083,172.326" style="stroke: #A80036; stroke-width: 1.0;"/><!--link SR2_4 to PROD_SYSRS_INITIATED--><path d="M377.0798,217.7318 C407.7669,230.163 444.5308,248.0453 473,271 C481.5509,277.8946 489.3778,286.8677 495.8975,295.5367 " fill="none" id="SR2_4-PROD_SYSRS_INITIATED" style="stroke: #A80036; stroke-width: 2.0;"/><polygon fill="#A80036" points="498.9905,299.7575,496.8971,290.1337,496.0351,295.7245,490.4443,294.8624,498.9905,299.7575" style="stroke: #A80036; stroke-width: 1.0;"/><!--link PROD_SYSRS_INITIATED to SR2_6--><path d="M530.7078,299.9041 C537.7927,289.9122 546.8532,278.9675 557,271 C567.0674,263.0949 630.8624,235.7266 676.6103,216.5898 " fill="none" id="PROD_SYSRS_INITIATED-SR2_6" style="stroke: #A80036; stroke-width: 2.0;"/><polygon fill="#A80036" points="681.2569,214.6483,671.4105,214.4271,676.6434,216.5758,674.4946,221.8087,681.2569,214.6483" style="stroke: #A80036; stroke-width: 1.0;"/><!--link PROD_SERS_INITIATED to SR2_6--><path d="M838.1005,299.8369 C831.0329,290.3847 822.5617,279.8363 814,271 C795.679,252.0914 772.7231,233.2813 754.5813,219.3574 " fill="none" id="PROD_SERS_INITIATED-SR2_6" style="stroke: #A80036; stroke-width: 2.0;"/><polygon fill="#A80036" points="750.5518,216.2842,755.2822,224.9227,754.5274,219.3164,760.1337,218.5617,750.5518,216.2842" style="stroke: #A80036; stroke-width: 1.0;"/><!--link SR2_6 to PROD_SYSRS_VERIFIED--><path d="M698.9566,216.4634 C681.3371,230.7004 657.6658,250.9523 639,271 C631.8582,278.6705 624.7535,287.5522 618.5141,295.8906 " fill="none" id="SR2_6-PROD_SYSRS_VERIFIED" style="stroke: #A80036; stroke-width: 2.0;"/><polygon fill="#A80036" points="615.5242,299.9327,624.0922,295.0758,618.4976,295.9129,617.6605,290.3183,615.5242,299.9327" style="stroke: #A80036; stroke-width: 1.0;"/><!--link SR2_6 to PROD_SERS_VALIDATED--><path d="M730.875,217.0781 C738.0055,237.9024 749.2446,270.7258 757.4902,294.8065 " fill="none" id="SR2_6-PROD_SERS_VALIDATED" style="stroke: #A80036; stroke-width: 2.0;"/><polygon fill="#A80036" points="759.2017,299.8049,760.0702,289.9944,757.5818,295.0746,752.5017,292.5862,759.2017,299.8049" style="stroke: #A80036; stroke-width: 1.0;"/><!--link SR2_6 to META_CR--><path d="M717.125,217.0781 C709.5432,239.2204 697.3162,274.9287 688.982,299.2685 " fill="none" id="SR2_6-META_CR" style="stroke: #A80036; stroke-width: 2.0;"/><polygon fill="#A80036" points="687.2657,304.2808,693.9657,297.0621,688.8856,299.5505,686.3972,294.4703,687.2657,304.2808" style="stroke: #A80036; stroke-width: 1.0;"/><!--link PROD_SYSRS_VERIFIED to SR2_7--><path d="M584.8804,299.9565 C572.4665,275.787 554.069,239.9677 542.5699,217.5793 " fill="none" id="PROD_SYSRS_VERIFIED-SR2_7" style="stroke: #A80036; stroke-width: 2.0;"/><polygon fill="#A80036" points="540.2255,213.0148,540.7794,222.8481,542.51,217.4624,547.8956,219.1929,540.2255,213.0148" style="stroke: #A80036; stroke-width: 1.0;"/><!--link PROD_STRS_VALIDATED to SR2_7--><path d="M439.7041,72.2297 C460.4732,100.3063 496.8137,149.4333 517.1469,176.9208 " fill="none" id="PROD_STRS_VALIDATED-SR2_7" style="stroke: #A80036; stroke-width: 2.0;"/><polygon fill="#A80036" points="520.2679,181.14,518.1313,171.5257,517.2943,177.1203,511.6997,176.2834,520.2679,181.14" style="stroke: #A80036; stroke-width: 1.0;"/><!--link SR2_7 to PROD_SYSRS_VALIDATED--><path d="M519.1249,212.7566 C502.2831,233.3678 472.4344,269.897 451.2814,295.7842 " fill="none" id="SR2_7-PROD_SYSRS_VALIDATED" style="stroke: #A80036; stroke-width: 2.0;"/><polygon fill="#A80036" points="447.9645,299.8435,456.7567,295.4054,451.1283,295.9717,450.5619,290.3433,447.9645,299.8435" style="stroke: #A80036; stroke-width: 1.0;"/><!--link SYS to DES--><!--link DES to PJM--><!--link SYS to WT--><!--link WT to ACQ--><!--link ACQ to STK--><!--
@startuml



skinparam handwritten false
skinparam defaultFontName Futura


actor SYS
actor DES
actor PJM
actor WT
actor ACQ
actor STK

artifact "StRS (validated)" as PROD_STRS_VALIDATED
artifact "CR" as META_CR
artifact "SERS" {
control "initiated" as PROD_SERS_INITIATED
control "validated" as PROD_SERS_VALIDATED
}
artifact "SysRS" {
control "initiated" as PROD_SYSRS_INITIATED
control "verified" as PROD_SYSRS_VERIFIED
control "validated" as PROD_SYSRS_VALIDATED
}

usecase "Elaborate SysRS and Interfaces" as SR2_4
PROD_STRS_VALIDATED ==> SR2_4
SR2_4 ==> PROD_SYSRS_INITIATED

usecase "Verify SysRS and SERS" as SR2_6
PROD_SYSRS_INITIATED ==> SR2_6
PROD_SERS_INITIATED ==> SR2_6
SR2_6 ==> PROD_SYSRS_VERIFIED
SR2_6 ==> PROD_SERS_VALIDATED
SR2_6 ==> META_CR

usecase "Validate SysRS" as SR2_7
PROD_SYSRS_VERIFIED ==> SR2_7
PROD_STRS_VALIDATED ==> SR2_7
SR2_7 ==> PROD_SYSRS_VALIDATED

@enduml

PlantUML version 1.2019.00(Sun Jan 13 07:46:42 PST 2019)
(GPL source distribution)
Java Runtime: Java(TM) SE Runtime Environment
JVM: Java HotSpot(TM) 64-Bit Server VM
Java Version: 10.0.1+10
Operating System: Mac OS X
OS Version: 10.14.3
Default Encoding: UTF-8
Language: en
Country: US
--></g></svg>