<?xml version="1.0" encoding="UTF-8" standalone="no"?><svg xmlns="http://www.w3.org/2000/svg" xmlns:xlink="http://www.w3.org/1999/xlink" contentScriptType="application/ecmascript" contentStyleType="text/css" height="390px" preserveAspectRatio="none" style="width:701px;height:390px;" version="1.1" viewBox="0 0 701 390" width="701px" zoomAndPan="magnify"><defs><filter height="300%" id="f1sptzlr2ffvy3" width="300%" x="-1" y="-1"><feGaussianBlur result="blurOut" stdDeviation="2.0"/><feColorMatrix in="blurOut" result="blurOut2" type="matrix" values="0 0 0 0 0 0 0 0 0 0 0 0 0 0 0 0 0 0 .4 0"/><feOffset dx="4.0" dy="4.0" in="blurOut2" result="blurOut3"/><feBlend in="SourceGraphic" in2="blurOut3" mode="normal"/></filter></defs><g><!--cluster PROD_PP--><rect fill="#FFFFFF" filter="url(#f1sptzlr2ffvy3)" height="88" style="stroke: #000000; stroke-width: 1.5;" width="109" x="499" y="16.5"/><polygon fill="#FFFFFF" points="591,21.5,591,35.5,603,35.5,603,27.5,597,21.5,591,21.5" style="stroke: #000000; stroke-width: 1.5;"/><line style="stroke: #000000; stroke-width: 1.5;" x1="597" x2="597" y1="21.5" y2="27.5"/><line style="stroke: #000000; stroke-width: 1.5;" x1="603" x2="597" y1="27.5" y2="27.5"/><text fill="#000000" font-family="Futura" font-size="14" font-weight="bold" lengthAdjust="spacingAndGlyphs" textLength="88" x="509.5" y="33.466">Project Plan</text><!--cluster SDD--><rect fill="#FFFFFF" filter="url(#f1sptzlr2ffvy3)" height="76" style="stroke: #000000; stroke-width: 1.5;" width="207" x="160" y="297"/><polygon fill="#FFFFFF" points="350,302,350,316,362,316,362,308,356,302,350,302" style="stroke: #000000; stroke-width: 1.5;"/><line style="stroke: #000000; stroke-width: 1.5;" x1="356" x2="356" y1="302" y2="308"/><line style="stroke: #000000; stroke-width: 1.5;" x1="362" x2="356" y1="308" y2="308"/><text fill="#000000" font-family="Futura" font-size="14" font-weight="bold" lengthAdjust="spacingAndGlyphs" textLength="31" x="248" y="313.966">SDD</text><!--cluster Meeting Minutes--><rect fill="#FFFFFF" filter="url(#f1sptzlr2ffvy3)" height="88" style="stroke: #000000; stroke-width: 1.5;" width="138" x="546" y="291"/><polygon fill="#FFFFFF" points="667,296,667,310,679,310,679,302,673,296,667,296" style="stroke: #000000; stroke-width: 1.5;"/><line style="stroke: #000000; stroke-width: 1.5;" x1="673" x2="673" y1="296" y2="302"/><line style="stroke: #000000; stroke-width: 1.5;" x1="679" x2="673" y1="302" y2="302"/><text fill="#000000" font-family="Futura" font-size="14" font-weight="bold" lengthAdjust="spacingAndGlyphs" textLength="122" x="554" y="307.966">Meeting Minutes</text><!--cluster Purchase Order--><rect fill="#FFFFFF" filter="url(#f1sptzlr2ffvy3)" height="88" style="stroke: #000000; stroke-width: 1.5;" width="143" x="386" y="291"/><polygon fill="#FFFFFF" points="512,296,512,310,524,310,524,302,518,296,512,296" style="stroke: #000000; stroke-width: 1.5;"/><line style="stroke: #000000; stroke-width: 1.5;" x1="518" x2="518" y1="296" y2="302"/><line style="stroke: #000000; stroke-width: 1.5;" x1="524" x2="518" y1="302" y2="302"/><text fill="#000000" font-family="Futura" font-size="14" font-weight="bold" lengthAdjust="spacingAndGlyphs" textLength="118" x="398.5" y="307.966">Purchase Order</text><!--entity PROD_PP_ACCEPTED--><ellipse cx="571" cy="61.5" fill="#FEFECE" filter="url(#f1sptzlr2ffvy3)" rx="12" ry="12" style="stroke: #A80036; stroke-width: 2.0;"/><polygon fill="#A80036" points="567,49.5,573,44.5,571,49.5,573,54.5,567,49.5" style="stroke: #A80036; stroke-width: 1.0;"/><text fill="#000000" font-family="Futura" font-size="14" lengthAdjust="spacingAndGlyphs" textLength="58" x="542" y="92.457">accepted</text><!--entity PROD_SDD_FUNC--><rect fill="#FEFECE" filter="url(#f1sptzlr2ffvy3)" height="38.5938" style="stroke: #A80036; stroke-width: 1.5;" width="84" x="275" y="326"/><rect fill="#FEFECE" height="5" style="stroke: #A80036; stroke-width: 1.5;" width="10" x="270" y="331"/><rect fill="#FEFECE" height="5" style="stroke: #A80036; stroke-width: 1.5;" width="10" x="270" y="354.5938"/><text fill="#000000" font-family="Futura" font-size="14" lengthAdjust="spacingAndGlyphs" textLength="64" x="285" y="350.957">Functional</text><!--entity PROD_SDD_PHYS--><rect fill="#FEFECE" filter="url(#f1sptzlr2ffvy3)" height="38.5938" style="stroke: #A80036; stroke-width: 1.5;" width="71" x="168.5" y="326"/><rect fill="#FEFECE" height="5" style="stroke: #A80036; stroke-width: 1.5;" width="10" x="163.5" y="331"/><rect fill="#FEFECE" height="5" style="stroke: #A80036; stroke-width: 1.5;" width="10" x="163.5" y="354.5938"/><text fill="#000000" font-family="Futura" font-size="14" lengthAdjust="spacingAndGlyphs" textLength="51" x="178.5" y="350.957">Physical</text><!--entity META_MINUTES--><ellipse cx="659" cy="336" fill="#FEFECE" filter="url(#f1sptzlr2ffvy3)" rx="12" ry="12" style="stroke: #A80036; stroke-width: 2.0;"/><polygon fill="#A80036" points="655,324,661,319,659,324,661,329,655,324" style="stroke: #A80036; stroke-width: 1.0;"/><text fill="#000000" font-family="Futura" font-size="14" lengthAdjust="spacingAndGlyphs" textLength="32" x="643" y="366.957">initial</text><!--entity META_MINUTES_UPDATED--><ellipse cx="582" cy="336" fill="#FEFECE" filter="url(#f1sptzlr2ffvy3)" rx="12" ry="12" style="stroke: #A80036; stroke-width: 2.0;"/><polygon fill="#A80036" points="578,324,584,319,582,324,584,329,578,324" style="stroke: #A80036; stroke-width: 1.0;"/><text fill="#000000" font-family="Futura" font-size="14" lengthAdjust="spacingAndGlyphs" textLength="52" x="556" y="366.957">updated</text><!--entity PROD_PO_INITIAL--><ellipse cx="410" cy="336" fill="#FEFECE" filter="url(#f1sptzlr2ffvy3)" rx="12" ry="12" style="stroke: #A80036; stroke-width: 2.0;"/><polygon fill="#A80036" points="406,324,412,319,410,324,412,329,406,324" style="stroke: #A80036; stroke-width: 1.0;"/><text fill="#000000" font-family="Futura" font-size="14" lengthAdjust="spacingAndGlyphs" textLength="32" x="394" y="366.957">initial</text><!--entity PROD_PO_APPROVED--><ellipse cx="491" cy="336" fill="#FEFECE" filter="url(#f1sptzlr2ffvy3)" rx="12" ry="12" style="stroke: #A80036; stroke-width: 2.0;"/><polygon fill="#A80036" points="487,324,493,319,491,324,493,329,487,324" style="stroke: #A80036; stroke-width: 1.0;"/><text fill="#000000" font-family="Futura" font-size="14" lengthAdjust="spacingAndGlyphs" textLength="60" x="461" y="366.957">approved</text><!--entity DES--><ellipse cx="21" cy="38" fill="#FEFECE" filter="url(#f1sptzlr2ffvy3)" rx="8" ry="8" style="stroke: #A80036; stroke-width: 2.0;"/><path d="M21,46 L21,73 M8,54 L34,54 M21,73 L8,88 M21,73 L34,88 " fill="none" filter="url(#f1sptzlr2ffvy3)" style="stroke: #A80036; stroke-width: 2.0;"/><text fill="#000000" font-family="Futura" font-size="14" lengthAdjust="spacingAndGlyphs" textLength="26" x="8" y="109.957">DES</text><!--entity PJM--><ellipse cx="86" cy="38" fill="#FEFECE" filter="url(#f1sptzlr2ffvy3)" rx="8" ry="8" style="stroke: #A80036; stroke-width: 2.0;"/><path d="M86,46 L86,73 M73,54 L99,54 M86,73 L73,88 M86,73 L99,88 " fill="none" filter="url(#f1sptzlr2ffvy3)" style="stroke: #A80036; stroke-width: 2.0;"/><text fill="#000000" font-family="Futura" font-size="14" lengthAdjust="spacingAndGlyphs" textLength="27" x="72.5" y="109.957">PJM</text><!--entity WT--><ellipse cx="21" cy="184" fill="#FEFECE" filter="url(#f1sptzlr2ffvy3)" rx="8" ry="8" style="stroke: #A80036; stroke-width: 2.0;"/><path d="M21,192 L21,219 M8,200 L34,200 M21,219 L8,234 M21,219 L34,234 " fill="none" filter="url(#f1sptzlr2ffvy3)" style="stroke: #A80036; stroke-width: 2.0;"/><text fill="#000000" font-family="Futura" font-size="14" lengthAdjust="spacingAndGlyphs" textLength="22" x="10" y="255.957">WT</text><!--entity PROD_SYSRS_VALIDATED--><rect fill="#FEFECE" filter="url(#f1sptzlr2ffvy3)" height="41.5938" style="stroke: #000000; stroke-width: 1.5;" width="139" x="136.5" y="50"/><polygon fill="#FEFECE" points="258.5,55,258.5,69,270.5,69,270.5,61,264.5,55,258.5,55" style="stroke: #000000; stroke-width: 1.5;"/><line style="stroke: #000000; stroke-width: 1.5;" x1="264.5" x2="264.5" y1="55" y2="61"/><line style="stroke: #000000; stroke-width: 1.5;" x1="270.5" x2="264.5" y1="61" y2="61"/><text fill="#000000" font-family="Futura" font-size="14" lengthAdjust="spacingAndGlyphs" textLength="109" x="146.5" y="77.957">SysRS (validated)</text><!--entity META_TRACE_MATRIX--><rect fill="#FEFECE" filter="url(#f1sptzlr2ffvy3)" height="41.5938" style="stroke: #000000; stroke-width: 1.5;" width="147" x="311.5" y="50"/><polygon fill="#FEFECE" points="441.5,55,441.5,69,453.5,69,453.5,61,447.5,55,441.5,55" style="stroke: #000000; stroke-width: 1.5;"/><line style="stroke: #000000; stroke-width: 1.5;" x1="447.5" x2="447.5" y1="55" y2="61"/><line style="stroke: #000000; stroke-width: 1.5;" x1="453.5" x2="447.5" y1="61" y2="61"/><text fill="#000000" font-family="Futura" font-size="14" lengthAdjust="spacingAndGlyphs" textLength="117" x="321.5" y="77.957">Traceability Matrix</text><ellipse cx="384.8951" cy="216.979" fill="#FEFECE" filter="url(#f1sptzlr2ffvy3)" rx="75.3951" ry="17.479" style="stroke: #A80036; stroke-width: 1.5;"/><text fill="#000000" font-family="Futura" font-size="14" lengthAdjust="spacingAndGlyphs" textLength="111" x="329.3951" y="222.7759">Functional Design</text><ellipse cx="204.0411" cy="217.0082" fill="#FEFECE" filter="url(#f1sptzlr2ffvy3)" rx="70.5411" ry="16.5082" style="stroke: #A80036; stroke-width: 1.5;"/><text fill="#000000" font-family="Futura" font-size="14" lengthAdjust="spacingAndGlyphs" textLength="98" x="155.0411" y="222.8051">Physical Design</text><ellipse cx="582.9455" cy="216.8891" fill="#FEFECE" filter="url(#f1sptzlr2ffvy3)" rx="87.4455" ry="19.8891" style="stroke: #A80036; stroke-width: 1.5;"/><text fill="#000000" font-family="Futura" font-size="14" lengthAdjust="spacingAndGlyphs" textLength="141" x="512.4455" y="222.686">Conduct WT Meetings</text><!--link PROD_PP to SR3_1--><path d="M498.9219,82.8609 C498.8831,82.9167 498.8443,82.9727 498.8053,83.0288 C498.6495,83.2533 498.492,83.48 498.3328,83.7087 C498.0146,84.1662 497.6899,84.6319 497.3592,85.1053 C496.6977,86.0521 496.0121,87.0294 495.3056,88.0316 C489.6536,96.049 482.6639,105.6598 476,114 C452.5835,143.3074 423.608,175.4641 404.7327,195.9173 " fill="none" id="PROD_PP-SR3_1" style="stroke: #A80036; stroke-width: 2.0;"/><polygon fill="#A80036" points="401.3294,199.5969,410.377,195.7058,404.7245,195.9263,404.504,190.2737,401.3294,199.5969" style="stroke: #A80036; stroke-width: 1.0;"/><!--link PROD_SYSRS_VALIDATED to SR3_1--><path d="M232.0281,92.2297 C266.41,120.2729 326.5388,169.3166 360.262,196.8227 " fill="none" id="PROD_SYSRS_VALIDATED-SR3_1" style="stroke: #A80036; stroke-width: 2.0;"/><polygon fill="#A80036" points="364.2402,200.0674,359.7942,191.2792,360.3656,196.9071,354.7377,197.4785,364.2402,200.0674" style="stroke: #A80036; stroke-width: 1.0;"/><!--link META_TRACE_MATRIX to SR3_1--><path d="M385,92.2297 C385,119.3665 385,166.1681 385,194.0894 " fill="none" id="META_TRACE_MATRIX-SR3_1" style="stroke: #A80036; stroke-width: 2.0;"/><polygon fill="#A80036" points="385,199.4105,389,190.4105,385,194.4105,381,190.4105,385,199.4105" style="stroke: #A80036; stroke-width: 1.0;"/><!--link SR3_1 to PROD_SDD_FUNC--><path d="M375.6875,234.5979 C363.8395,256.9871 343.3139,295.7745 329.947,321.0339 " fill="none" id="SR3_1-PROD_SDD_FUNC" style="stroke: #A80036; stroke-width: 2.0;"/><polygon fill="#A80036" points="327.5382,325.586,335.2834,319.5022,329.8769,321.1667,328.2125,315.7602,327.5382,325.586" style="stroke: #A80036; stroke-width: 1.0;"/><!--link SR3_1 to PROD_PO_INITIAL--><path d="M388.4237,234.5979 C392.4188,255.1329 399.0977,289.4623 403.9682,314.4966 " fill="none" id="SR3_1-PROD_PO_INITIAL" style="stroke: #A80036; stroke-width: 2.0;"/><polygon fill="#A80036" points="404.9785,319.6893,407.1861,310.0911,404.0236,314.7813,399.3334,311.6188,404.9785,319.6893" style="stroke: #A80036; stroke-width: 1.0;"/><!--link PROD_SYSRS_VALIDATED to SR3_3--><path d="M205.7092,92.2297 C205.3334,119.6631 204.6823,167.1935 204.3014,194.9981 " fill="none" id="PROD_SYSRS_VALIDATED-SR3_3" style="stroke: #A80036; stroke-width: 2.0;"/><polygon fill="#A80036" points="204.229,200.2842,208.3521,191.3399,204.2976,195.2847,200.3528,191.2302,204.229,200.2842" style="stroke: #A80036; stroke-width: 1.0;"/><!--link PROD_SDD_FUNC to SR3_3--><path d="M299.4716,325.5673 C278.3641,301.5645 243.1055,261.4695 221.8538,237.3027 " fill="none" id="PROD_SDD_FUNC-SR3_3" style="stroke: #A80036; stroke-width: 2.0;"/><polygon fill="#A80036" points="218.3115,233.2746,221.2511,242.6745,221.6133,237.0293,227.2586,237.3916,218.3115,233.2746" style="stroke: #A80036; stroke-width: 1.0;"/><!--link SR3_3 to PROD_SDD_PHYS--><path d="M204,233.5361 C204,255.5587 204,294.7153 204,320.3935 " fill="none" id="SR3_3-PROD_SDD_PHYS" style="stroke: #A80036; stroke-width: 2.0;"/><polygon fill="#A80036" points="204,325.6574,208,316.6574,204,320.6574,200,316.6574,204,325.6574" style="stroke: #A80036; stroke-width: 1.0;"/><!--link SR3_3 to PROD_PO_INITIAL--><path d="M233.0029,232.0533 C250.0039,240.6544 272.0039,251.4044 292,260 C328.177,275.5512 344.3483,266.2797 375,291 C383.1991,297.6125 390.0841,306.6828 395.5188,315.5268 " fill="none" id="SR3_3-PROD_PO_INITIAL" style="stroke: #A80036; stroke-width: 2.0;"/><polygon fill="#A80036" points="398.0697,319.8385,396.9295,310.0559,395.5237,315.5352,390.0443,314.1294,398.0697,319.8385" style="stroke: #A80036; stroke-width: 1.0;"/><!--link PROD_PO_INITIAL to PM2_3--><path d="M422.2821,319.8802 C427.9074,310.0006 435.2781,299.1435 444,291 C469.5012,267.19 504.1199,248.7292 532.4287,236.2015 " fill="none" id="PROD_PO_INITIAL-PM2_3" style="stroke: #A80036; stroke-width: 2.0;"/><polygon fill="#A80036" points="537.2754,234.0869,527.4268,234.0196,532.6926,236.0863,530.6258,241.3521,537.2754,234.0869" style="stroke: #A80036; stroke-width: 1.0;"/><!--link META_MINUTES to PM2_3--><path d="M643.8029,319.8049 C630.302,296.9777 610.7071,263.8469 597.4403,241.4155 " fill="none" id="META_MINUTES-PM2_3" style="stroke: #A80036; stroke-width: 2.0;"/><polygon fill="#A80036" points="594.875,237.0781,596.0138,246.8609,597.4204,241.3817,602.8996,242.7883,594.875,237.0781" style="stroke: #A80036; stroke-width: 1.0;"/><!--link PROD_PP_ACCEPTED to PM2_3--><path d="M573.1177,96.7658 C575.3129,123.4735 578.723,164.9636 580.9085,191.5529 " fill="none" id="PROD_PP_ACCEPTED-PM2_3" style="stroke: #A80036; stroke-width: 2.0;"/><polygon fill="#A80036" points="581.3285,196.6633,584.5778,187.3659,580.9189,191.6801,576.6047,188.0212,581.3285,196.6633" style="stroke: #A80036; stroke-width: 1.0;"/><!--link PM2_3 to META_MINUTES_UPDATED--><path d="M582.8438,237.0781 C582.6824,257.8153 582.4284,290.4513 582.2412,314.5038 " fill="none" id="PM2_3-META_MINUTES_UPDATED" style="stroke: #A80036; stroke-width: 2.0;"/><polygon fill="#A80036" points="582.2,319.8049,586.2701,310.8364,582.239,314.8051,578.2703,310.774,582.2,319.8049" style="stroke: #A80036; stroke-width: 1.0;"/><!--link PM2_3 to PROD_PO_APPROVED--><path d="M568.8266,236.7965 C553.7701,257.8266 529.7906,291.3196 512.4254,315.5743 " fill="none" id="PM2_3-PROD_PO_APPROVED" style="stroke: #A80036; stroke-width: 2.0;"/><polygon fill="#A80036" points="509.481,319.6869,517.9726,314.6977,512.3917,315.6215,511.4679,310.0406,509.481,319.6869" style="stroke: #A80036; stroke-width: 1.0;"/><!--link DES to PJM--><!--link DES to WT--><!--
@startuml



skinparam handwritten false
skinparam defaultFontName Futura


actor DES
actor PJM
actor WT

artifact "Project Plan" as PROD_PP {
control "accepted" as PROD_PP_ACCEPTED
}
artifact "SysRS (validated)" as PROD_SYSRS_VALIDATED
artifact "Traceability Matrix" as META_TRACE_MATRIX
artifact "SDD" {
component "Functional" as PROD_SDD_FUNC
component "Physical" as PROD_SDD_PHYS
}
artifact "Meeting Minutes" {
control "initial" as META_MINUTES
control "updated" as META_MINUTES_UPDATED
}
artifact "Purchase Order" {
control "initial" as PROD_PO_INITIAL
control "approved" as PROD_PO_APPROVED
}

usecase "Functional Design" as SR3_1
PROD_PP ==> SR3_1
PROD_SYSRS_VALIDATED ==> SR3_1
META_TRACE_MATRIX ==> SR3_1
SR3_1 ==> PROD_SDD_FUNC
SR3_1 ==> PROD_PO_INITIAL

usecase "Physical Design" as SR3_3
PROD_SYSRS_VALIDATED ==> SR3_3
PROD_SDD_FUNC ==> SR3_3
SR3_3 ==> PROD_SDD_PHYS
SR3_3 ==> PROD_PO_INITIAL

usecase "Conduct WT Meetings" as PM2_3
PROD_PO_INITIAL ==> PM2_3
META_MINUTES ==> PM2_3
PROD_PP_ACCEPTED ==> PM2_3
PM2_3 ==> META_MINUTES_UPDATED
PM2_3 ==> PROD_PO_APPROVED

@enduml

PlantUML version 1.2019.00(Sun Jan 13 07:46:42 PST 2019)
(GPL source distribution)
Java Runtime: Java(TM) SE Runtime Environment
JVM: Java HotSpot(TM) 64-Bit Server VM
Java Version: 10.0.1+10
Operating System: Mac OS X
OS Version: 10.14.3
Default Encoding: UTF-8
Language: en
Country: US
--></g></svg>