<svg xmlns="http://www.w3.org/2000/svg" height="390" preserveAspectRatio="none" style="width:701px;height:390px" width="701"><defs><filter height="300%" id="a" width="300%" x="-1" y="-1"><feGaussianBlur result="blurOut" stdDeviation="2"/><feColorMatrix in="blurOut" result="blurOut2" values="0 0 0 0 0 0 0 0 0 0 0 0 0 0 0 0 0 0 .4 0"/><feOffset dx="4" dy="4" in="blurOut2" result="blurOut3"/><feBlend in="SourceGraphic" in2="blurOut3"/></filter></defs><path fill="#FFF" filter="url(#a)" stroke="#000" stroke-width="1.5" d="M499 16.5h109v88H499z"/><path fill="#FFF" stroke="#000" stroke-width="1.5" d="M591 21.5v14h12v-8l-6-6h-6z"/><path stroke="#000" stroke-width="1.5" d="M597 21.5v6M603 27.5h-6"/><text font-family="Futura" font-size="14" font-weight="bold" lengthAdjust="spacingAndGlyphs" textLength="88" x="509.5" y="33.466">Project Plan</text><path fill="#FFF" filter="url(#a)" stroke="#000" stroke-width="1.5" d="M160 297h207v76H160z"/><path fill="#FFF" stroke="#000" stroke-width="1.5" d="M350 302v14h12v-8l-6-6h-6z"/><path stroke="#000" stroke-width="1.5" d="M356 302v6M362 308h-6"/><text font-family="Futura" font-size="14" font-weight="bold" lengthAdjust="spacingAndGlyphs" textLength="31" x="248" y="313.966">SDD</text><path fill="#FFF" filter="url(#a)" stroke="#000" stroke-width="1.5" d="M546 291h138v88H546z"/><path fill="#FFF" stroke="#000" stroke-width="1.5" d="M667 296v14h12v-8l-6-6h-6z"/><path stroke="#000" stroke-width="1.5" d="M673 296v6M679 302h-6"/><text font-family="Futura" font-size="14" font-weight="bold" lengthAdjust="spacingAndGlyphs" textLength="122" x="554" y="307.966">Meeting Minutes</text><path fill="#FFF" filter="url(#a)" stroke="#000" stroke-width="1.5" d="M386 291h143v88H386z"/><path fill="#FFF" stroke="#000" stroke-width="1.5" d="M512 296v14h12v-8l-6-6h-6z"/><path stroke="#000" stroke-width="1.5" d="M518 296v6M524 302h-6"/><text font-family="Futura" font-size="14" font-weight="bold" lengthAdjust="spacingAndGlyphs" textLength="118" x="398.5" y="307.966">Purchase Order</text><circle cx="571" cy="61.5" fill="#FEFECE" filter="url(#a)" stroke="#a80036" stroke-width="2" r="12"/><path fill="#A80036" stroke="#a80036" d="M567 49.5l6-5-2 5 2 5-6-5z"/><text font-family="Futura" font-size="14" lengthAdjust="spacingAndGlyphs" textLength="58" x="542" y="92.457">accepted</text><path fill="#FEFECE" filter="url(#a)" stroke="#a80036" stroke-width="1.5" d="M275 326h84v38.594h-84z"/><path fill="#FEFECE" stroke="#a80036" stroke-width="1.5" d="M270 331h10v5h-10zM270 354.594h10v5h-10z"/><text font-family="Futura" font-size="14" lengthAdjust="spacingAndGlyphs" textLength="64" x="285" y="350.957">Functional</text><path fill="#FEFECE" filter="url(#a)" stroke="#a80036" stroke-width="1.5" d="M168.5 326h71v38.594h-71z"/><path fill="#FEFECE" stroke="#a80036" stroke-width="1.5" d="M163.5 331h10v5h-10zM163.5 354.594h10v5h-10z"/><text font-family="Futura" font-size="14" lengthAdjust="spacingAndGlyphs" textLength="51" x="178.5" y="350.957">Physical</text><circle cx="659" cy="336" fill="#FEFECE" filter="url(#a)" stroke="#a80036" stroke-width="2" r="12"/><path fill="#A80036" stroke="#a80036" d="M655 324l6-5-2 5 2 5-6-5z"/><text font-family="Futura" font-size="14" lengthAdjust="spacingAndGlyphs" textLength="32" x="643" y="366.957">initial</text><circle cx="582" cy="336" fill="#FEFECE" filter="url(#a)" stroke="#a80036" stroke-width="2" r="12"/><path fill="#A80036" stroke="#a80036" d="M578 324l6-5-2 5 2 5-6-5z"/><text font-family="Futura" font-size="14" lengthAdjust="spacingAndGlyphs" textLength="52" x="556" y="366.957">updated</text><circle cx="410" cy="336" fill="#FEFECE" filter="url(#a)" stroke="#a80036" stroke-width="2" r="12"/><path fill="#A80036" stroke="#a80036" d="M406 324l6-5-2 5 2 5-6-5z"/><text font-family="Futura" font-size="14" lengthAdjust="spacingAndGlyphs" textLength="32" x="394" y="366.957">initial</text><circle cx="491" cy="336" fill="#FEFECE" filter="url(#a)" stroke="#a80036" stroke-width="2" r="12"/><path fill="#A80036" stroke="#a80036" d="M487 324l6-5-2 5 2 5-6-5z"/><text font-family="Futura" font-size="14" lengthAdjust="spacingAndGlyphs" textLength="60" x="461" y="366.957">approved</text><circle cx="21" cy="38" fill="#FEFECE" filter="url(#a)" stroke="#a80036" stroke-width="2" r="8"/><path d="M21 46v27M8 54h26M21 73L8 88m13-15l13 15" fill="none" filter="url(#a)" stroke="#a80036" stroke-width="2"/><text font-family="Futura" font-size="14" lengthAdjust="spacingAndGlyphs" textLength="26" x="8" y="109.957">DES</text><circle cx="86" cy="38" fill="#FEFECE" filter="url(#a)" stroke="#a80036" stroke-width="2" r="8"/><path d="M86 46v27M73 54h26M86 73L73 88m13-15l13 15" fill="none" filter="url(#a)" stroke="#a80036" stroke-width="2"/><text font-family="Futura" font-size="14" lengthAdjust="spacingAndGlyphs" textLength="27" x="72.5" y="109.957">PJM</text><circle cx="21" cy="184" fill="#FEFECE" filter="url(#a)" stroke="#a80036" stroke-width="2" r="8"/><path d="M21 192v27M8 200h26m-13 19L8 234m13-15l13 15" fill="none" filter="url(#a)" stroke="#a80036" stroke-width="2"/><text font-family="Futura" font-size="14" lengthAdjust="spacingAndGlyphs" textLength="22" x="10" y="255.957">WT</text><path fill="#FEFECE" filter="url(#a)" stroke="#000" stroke-width="1.5" d="M136.5 50h139v41.594h-139z"/><path fill="#FEFECE" stroke="#000" stroke-width="1.5" d="M258.5 55v14h12v-8l-6-6h-6z"/><path stroke="#000" stroke-width="1.5" d="M264.5 55v6M270.5 61h-6"/><text font-family="Futura" font-size="14" lengthAdjust="spacingAndGlyphs" textLength="109" x="146.5" y="77.957">SysRS (validated)</text><path fill="#FEFECE" filter="url(#a)" stroke="#000" stroke-width="1.5" d="M311.5 50h147v41.594h-147z"/><path fill="#FEFECE" stroke="#000" stroke-width="1.5" d="M441.5 55v14h12v-8l-6-6h-6z"/><path stroke="#000" stroke-width="1.5" d="M447.5 55v6M453.5 61h-6"/><text font-family="Futura" font-size="14" lengthAdjust="spacingAndGlyphs" textLength="117" x="321.5" y="77.957">Traceability Matrix</text><ellipse cx="384.895" cy="216.979" fill="#FEFECE" filter="url(#a)" rx="75.395" ry="17.479" stroke="#a80036" stroke-width="1.5"/><text font-family="Futura" font-size="14" lengthAdjust="spacingAndGlyphs" textLength="111" x="329.395" y="222.776">Functional Design</text><ellipse cx="204.041" cy="217.008" fill="#FEFECE" filter="url(#a)" rx="70.541" ry="16.508" stroke="#a80036" stroke-width="1.5"/><text font-family="Futura" font-size="14" lengthAdjust="spacingAndGlyphs" textLength="98" x="155.041" y="222.805">Physical Design</text><ellipse cx="582.946" cy="216.889" fill="#FEFECE" filter="url(#a)" rx="87.445" ry="19.889" stroke="#a80036" stroke-width="1.5"/><text font-family="Futura" font-size="14" lengthAdjust="spacingAndGlyphs" textLength="141" x="512.446" y="222.686">Conduct WT Meetings</text><path d="M498.922 82.86l-.117.169a578.28 578.28 0 01-1.446 2.076c-.661.947-1.347 1.924-2.053 2.927C489.654 96.049 482.664 105.66 476 114c-23.416 29.307-52.392 61.464-71.267 81.917" fill="none" stroke="#a80036" stroke-width="2"/><path fill="#A80036" stroke="#a80036" d="M401.33 199.597l9.047-3.891-5.653.22-.22-5.652-3.175 9.323z"/><path d="M232.028 92.23l128.234 104.593" fill="none" stroke="#a80036" stroke-width="2"/><path fill="#A80036" stroke="#a80036" d="M364.24 200.067l-4.446-8.788.572 5.628-5.628.571 9.502 2.59z"/><path d="M385 92.23v101.86" fill="none" stroke="#a80036" stroke-width="2"/><path fill="#A80036" stroke="#a80036" d="M385 199.41l4-9-4 4-4-4 4 9z"/><path d="M375.688 234.598l-45.741 86.436" fill="none" stroke="#a80036" stroke-width="2"/><path fill="#A80036" stroke="#a80036" d="M327.538 325.586l7.745-6.084-5.406 1.665-1.665-5.407-.674 9.826z"/><path d="M388.424 234.598l15.544 79.899" fill="none" stroke="#a80036" stroke-width="2"/><path fill="#A80036" stroke="#a80036" d="M404.978 319.69l2.208-9.599-3.162 4.69-4.69-3.162 5.644 8.07z"/><path d="M205.71 92.23L204.3 194.998" fill="none" stroke="#a80036" stroke-width="2"/><path fill="#A80036" stroke="#a80036" d="M204.229 200.284l4.123-8.944-4.054 3.945-3.945-4.055 3.876 9.054z"/><path d="M299.472 325.567l-77.618-88.264" fill="none" stroke="#a80036" stroke-width="2"/><path fill="#A80036" stroke="#a80036" d="M218.311 233.275l2.94 9.4.362-5.646 5.646.363-8.947-4.117z"/><path d="M204 233.536v86.858" fill="none" stroke="#a80036" stroke-width="2"/><path fill="#A80036" stroke="#a80036" d="M204 325.657l4-9-4 4-4-4 4 9z"/><path d="M233.003 232.053c17 8.601 39 19.351 58.997 27.947 36.177 15.551 52.348 6.28 83 31 8.2 6.613 15.084 15.683 20.519 24.527" fill="none" stroke="#a80036" stroke-width="2"/><path fill="#A80036" stroke="#a80036" d="M398.07 319.839l-1.14-9.783-1.406 5.48-5.48-1.407 8.026 5.71z"/><path d="M422.282 319.88C427.907 310 435.278 299.144 444 291c25.501-23.81 60.12-42.27 88.429-54.798" fill="none" stroke="#a80036" stroke-width="2"/><path fill="#A80036" stroke="#a80036" d="M537.275 234.087l-9.848-.067 5.266 2.066-2.067 5.266 6.65-7.265z"/><path d="M643.803 319.805l-46.363-78.39" fill="none" stroke="#a80036" stroke-width="2"/><path fill="#A80036" stroke="#a80036" d="M594.875 237.078l1.139 9.783 1.406-5.48 5.48 1.407-8.025-5.71z"/><path d="M573.118 96.766l7.79 94.787" fill="none" stroke="#a80036" stroke-width="2"/><path fill="#A80036" stroke="#a80036" d="M581.328 196.663l3.25-9.297-3.66 4.314-4.313-3.659 4.723 8.642z"/><path d="M582.844 237.078l-.603 77.426" fill="none" stroke="#a80036" stroke-width="2"/><path fill="#A80036" stroke="#a80036" d="M582.2 319.805l4.07-8.969-4.031 3.97-3.969-4.032 3.93 9.03z"/><path d="M568.827 236.797l-56.402 78.777" fill="none" stroke="#a80036" stroke-width="2"/><path fill="#A80036" stroke="#a80036" d="M509.481 319.687l8.492-4.99-5.581.925-.924-5.581-1.987 9.646z"/></svg>