<svg xmlns="http://www.w3.org/2000/svg" height="89" preserveAspectRatio="none" style="width:655px;height:89px" width="655"><defs><filter height="300%" id="a" width="300%" x="-1" y="-1"><feGaussianBlur result="blurOut" stdDeviation="2"/><feColorMatrix in="blurOut" result="blurOut2" values="0 0 0 0 0 0 0 0 0 0 0 0 0 0 0 0 0 0 .4 0"/><feOffset dx="4" dy="4" in="blurOut2" result="blurOut3"/><feBlend in="SourceGraphic" in2="blurOut3"/></filter></defs><circle cx="16" cy="43" filter="url(#a)" r="10"/><rect fill="#FEFECE" filter="url(#a)" height="54.531" rx="12.5" ry="12.5" width="90" x="113" y="15.5" stroke="#a80036" stroke-width="1.5"/><path stroke="#a80036" stroke-width="1.5" d="M113 44.094h90"/><text font-family="Futura" font-size="14" lengthAdjust="spacingAndGlyphs" textLength="70" x="123" y="35.457">established</text><text font-family="Futura" font-size="12" lengthAdjust="spacingAndGlyphs" textLength="23" x="118" y="61.914">PJM</text><rect fill="#FEFECE" filter="url(#a)" height="54.531" rx="12.5" ry="12.5" width="72" x="290" y="15.5" stroke="#a80036" stroke-width="1.5"/><path stroke="#a80036" stroke-width="1.5" d="M290 44.094h72"/><text font-family="Futura" font-size="14" lengthAdjust="spacingAndGlyphs" textLength="52" x="300" y="35.457">updated</text><text font-family="Futura" font-size="12" lengthAdjust="spacingAndGlyphs" textLength="23" x="295" y="61.914">PJM</text><rect fill="#FEFECE" filter="url(#a)" height="70.469" rx="12.5" ry="12.5" width="80" x="444" y="8" stroke="#a80036" stroke-width="1.5"/><path stroke="#a80036" stroke-width="1.5" d="M444 36.594h80"/><text font-family="Futura" font-size="14" lengthAdjust="spacingAndGlyphs" textLength="60" x="454" y="27.957">baselined</text><text font-family="Futura" font-size="12" lengthAdjust="spacingAndGlyphs" textLength="23" x="449" y="54.414">PJM</text><text font-family="Futura" font-size="12" lengthAdjust="spacingAndGlyphs" textLength="19" x="449" y="70.352">WT</text><rect fill="#FEFECE" filter="url(#a)" height="54.531" rx="12.5" ry="12.5" width="84" x="559" y="15.5" stroke="#a80036" stroke-width="1.5"/><path stroke="#a80036" stroke-width="1.5" d="M559 44.094h84"/><text font-family="Futura" font-size="14" lengthAdjust="spacingAndGlyphs" textLength="64" x="569" y="35.457">recovered</text><text font-family="Futura" font-size="12" lengthAdjust="spacingAndGlyphs" textLength="23" x="564" y="61.914">PJM</text><path d="M26.212 43h81.661" fill="none" stroke="#a80036"/><path fill="#A80036" stroke="#a80036" d="M112.967 43l-9-4 4 4-4 4 9-4z"/><text font-family="Futura" font-size="13" lengthAdjust="spacingAndGlyphs" textLength="50" x="44.5" y="35.889">Establish</text><path d="M203.02 43h81.697" fill="none" stroke="#a80036"/><path fill="#A80036" stroke="#a80036" d="M289.895 43l-9-4 4 4-4 4 9-4z"/><text font-family="Futura" font-size="13" lengthAdjust="spacingAndGlyphs" textLength="50" x="221.5" y="35.889">Manage</text><path d="M362.248 43h76.416" fill="none" stroke="#a80036"/><path fill="#A80036" stroke="#a80036" d="M443.755 43l-9-4 4 4-4 4 9-4z"/><text font-family="Futura" font-size="13" lengthAdjust="spacingAndGlyphs" textLength="45" x="380.5" y="35.889">Update</text></svg>