<?xml version="1.0" encoding="UTF-8" standalone="no"?><svg xmlns="http://www.w3.org/2000/svg" xmlns:xlink="http://www.w3.org/1999/xlink" contentScriptType="application/ecmascript" contentStyleType="text/css" height="69px" preserveAspectRatio="none" style="width:525px;height:69px;" version="1.1" viewBox="0 0 525 69" width="525px" zoomAndPan="magnify"><defs><filter height="300%" id="f1nprdck022p5b" width="300%" x="-1" y="-1"><feGaussianBlur result="blurOut" stdDeviation="2.0"/><feColorMatrix in="blurOut" result="blurOut2" type="matrix" values="0 0 0 0 0 0 0 0 0 0 0 0 0 0 0 0 0 0 .4 0"/><feOffset dx="4.0" dy="4.0" in="blurOut2" result="blurOut3"/><feBlend in="SourceGraphic" in2="blurOut3" mode="normal"/></filter></defs><g><ellipse cx="16" cy="33" fill="#000000" filter="url(#f1nprdck022p5b)" rx="10" ry="10" style="stroke: none; stroke-width: 1.0;"/><rect fill="#FEFECE" filter="url(#f1nprdck022p5b)" height="50" rx="12.5" ry="12.5" style="stroke: #A80036; stroke-width: 1.5;" width="52" x="100" y="8"/><line style="stroke: #A80036; stroke-width: 1.5;" x1="100" x2="152" y1="36.5938" y2="36.5938"/><text fill="#000000" font-family="Futura" font-size="14" lengthAdjust="spacingAndGlyphs" textLength="32" x="110" y="27.957">initial</text><rect fill="#FEFECE" filter="url(#f1nprdck022p5b)" height="50" rx="12.5" ry="12.5" style="stroke: #A80036; stroke-width: 1.5;" width="80" x="318" y="8"/><line style="stroke: #A80036; stroke-width: 1.5;" x1="318" x2="398" y1="36.5938" y2="36.5938"/><text fill="#000000" font-family="Futura" font-size="14" lengthAdjust="spacingAndGlyphs" textLength="60" x="328" y="27.957">approved</text><rect fill="#FEFECE" filter="url(#f1nprdck022p5b)" height="50" rx="12.5" ry="12.5" style="stroke: #A80036; stroke-width: 1.5;" width="80" x="433" y="8"/><line style="stroke: #A80036; stroke-width: 1.5;" x1="433" x2="513" y1="36.5938" y2="36.5938"/><text fill="#000000" font-family="Futura" font-size="14" lengthAdjust="spacingAndGlyphs" textLength="60" x="443" y="27.957">published</text><!--link *start to initial--><path d="M26.1514,33 C41.5788,33 71.5729,33 94.6773,33 " fill="none" id="*start-initial" style="stroke: #A80036; stroke-width: 1.0;"/><polygon fill="#A80036" points="99.792,33,90.792,29,94.792,33,90.792,37,99.792,33" style="stroke: #A80036; stroke-width: 1.0;"/><text fill="#000000" font-family="Futura" font-size="13" lengthAdjust="spacingAndGlyphs" textLength="37" x="44.5" y="25.8887">Define</text><!--link initial to approved--><path d="M152.1624,33 C191.1515,33 265.0295,33 312.8571,33 " fill="none" id="initial-approved" style="stroke: #A80036; stroke-width: 1.0;"/><polygon fill="#A80036" points="317.9785,33,308.9785,29,312.9785,33,308.9785,37,317.9785,33" style="stroke: #A80036; stroke-width: 1.0;"/><text fill="#000000" font-family="Futura" font-size="13" lengthAdjust="spacingAndGlyphs" textLength="129" x="170.5" y="25.8887">Formalize Completion</text><!--link approved to published--><path d="M398.4297,33 C408.1864,33 417.9431,33 427.6998,33 " fill="none" id="approved-published" style="stroke: #A80036; stroke-width: 1.0;"/><polygon fill="#A80036" points="432.8019,33,423.8019,29,427.8019,33,423.8019,37,432.8019,33" style="stroke: #A80036; stroke-width: 1.0;"/><!--
@startuml



skinparam handwritten false
skinparam defaultFontName Futura

skinparam handwritten false

[*] -> initial : Define
initial -> approved: Formalize Completion
approved -> published

@enduml

PlantUML version 1.2019.00(Sun Jan 13 07:46:42 PST 2019)
(GPL source distribution)
Java Runtime: Java(TM) SE Runtime Environment
JVM: Java HotSpot(TM) 64-Bit Server VM
Java Version: 10.0.1+10
Operating System: Mac OS X
OS Version: 10.14.3
Default Encoding: UTF-8
Language: en
Country: US
--></g></svg>