<?xml version="1.0" encoding="UTF-8" standalone="no"?><svg xmlns="http://www.w3.org/2000/svg" xmlns:xlink="http://www.w3.org/1999/xlink" contentScriptType="application/ecmascript" contentStyleType="text/css" height="121px" preserveAspectRatio="none" style="width:649px;height:121px;" version="1.1" viewBox="0 0 649 121" width="649px" zoomAndPan="magnify"><defs><filter height="300%" id="f10tw9n1y8lqq7" width="300%" x="-1" y="-1"><feGaussianBlur result="blurOut" stdDeviation="2.0"/><feColorMatrix in="blurOut" result="blurOut2" type="matrix" values="0 0 0 0 0 0 0 0 0 0 0 0 0 0 0 0 0 0 .4 0"/><feOffset dx="4.0" dy="4.0" in="blurOut2" result="blurOut3"/><feBlend in="SourceGraphic" in2="blurOut3" mode="normal"/></filter></defs><g><ellipse cx="16" cy="59" fill="#000000" filter="url(#f10tw9n1y8lqq7)" rx="10" ry="10" style="stroke: none; stroke-width: 1.0;"/><rect fill="#FEFECE" filter="url(#f10tw9n1y8lqq7)" height="86.4063" rx="12.5" ry="12.5" style="stroke: #A80036; stroke-width: 1.5;" width="52" x="168" y="16"/><line style="stroke: #A80036; stroke-width: 1.5;" x1="168" x2="220" y1="44.5938" y2="44.5938"/><text fill="#000000" font-family="Futura" font-size="14" lengthAdjust="spacingAndGlyphs" textLength="32" x="178" y="35.957">initial</text><text fill="#000000" font-family="Futura" font-size="12" lengthAdjust="spacingAndGlyphs" textLength="21" x="173" y="62.4141">SYS</text><text fill="#000000" font-family="Futura" font-size="12" lengthAdjust="spacingAndGlyphs" textLength="28" x="173" y="78.3516">ACQ</text><text fill="#000000" font-family="Futura" font-size="12" lengthAdjust="spacingAndGlyphs" textLength="21" x="173" y="94.2891">STK</text><rect fill="#FEFECE" filter="url(#f10tw9n1y8lqq7)" height="70.4688" rx="12.5" ry="12.5" style="stroke: #A80036; stroke-width: 1.5;" width="66" x="292" y="24"/><line style="stroke: #A80036; stroke-width: 1.5;" x1="292" x2="358" y1="52.5938" y2="52.5938"/><text fill="#000000" font-family="Futura" font-size="14" lengthAdjust="spacingAndGlyphs" textLength="46" x="302" y="43.957">verified</text><text fill="#000000" font-family="Futura" font-size="12" lengthAdjust="spacingAndGlyphs" textLength="23" x="297" y="70.4141">PJM</text><text fill="#000000" font-family="Futura" font-size="12" lengthAdjust="spacingAndGlyphs" textLength="19" x="297" y="86.3516">WT</text><rect fill="#FEFECE" filter="url(#f10tw9n1y8lqq7)" height="102.3438" rx="12.5" ry="12.5" style="stroke: #A80036; stroke-width: 1.5;" width="77" x="444.5" y="8"/><line style="stroke: #A80036; stroke-width: 1.5;" x1="444.5" x2="521.5" y1="36.5938" y2="36.5938"/><text fill="#000000" font-family="Futura" font-size="14" lengthAdjust="spacingAndGlyphs" textLength="57" x="454.5" y="27.957">validated</text><text fill="#000000" font-family="Futura" font-size="12" lengthAdjust="spacingAndGlyphs" textLength="23" x="449.5" y="54.4141">PJM</text><text fill="#000000" font-family="Futura" font-size="12" lengthAdjust="spacingAndGlyphs" textLength="21" x="449.5" y="70.3516">SYS</text><text fill="#000000" font-family="Futura" font-size="12" lengthAdjust="spacingAndGlyphs" textLength="28" x="449.5" y="86.2891">ACQ</text><text fill="#000000" font-family="Futura" font-size="12" lengthAdjust="spacingAndGlyphs" textLength="21" x="449.5" y="102.2266">STK</text><rect fill="#FEFECE" filter="url(#f10tw9n1y8lqq7)" height="50" rx="12.5" ry="12.5" style="stroke: #A80036; stroke-width: 1.5;" width="80" x="557" y="34"/><line style="stroke: #A80036; stroke-width: 1.5;" x1="557" x2="637" y1="62.5938" y2="62.5938"/><text fill="#000000" font-family="Futura" font-size="14" lengthAdjust="spacingAndGlyphs" textLength="60" x="567" y="53.957">baselined</text><!--link *start to initial--><path d="M26.0801,59 C51.9638,59 121.6074,59 162.6196,59 " fill="none" id="*start-initial" style="stroke: #A80036; stroke-width: 1.0;"/><polygon fill="#A80036" points="167.719,59,158.719,55,162.719,59,158.719,63,167.719,59" style="stroke: #A80036; stroke-width: 1.0;"/><text fill="#000000" font-family="Futura" font-size="13" lengthAdjust="spacingAndGlyphs" textLength="105" x="44.5" y="51.8887">Elicit requirements</text><!--link initial to verified--><path d="M220.195,59 C239.2734,59 265.4117,59 286.8118,59 " fill="none" id="initial-verified" style="stroke: #A80036; stroke-width: 1.0;"/><polygon fill="#A80036" points="291.8612,59,282.8612,55,286.8612,59,282.8612,63,291.8612,59" style="stroke: #A80036; stroke-width: 1.0;"/><text fill="#000000" font-family="Futura" font-size="13" lengthAdjust="spacingAndGlyphs" textLength="35" x="238.5" y="51.8887">Verify</text><!--link verified to validated--><path d="M358.122,59 C381.7058,59 413.6375,59 439.3074,59 " fill="none" id="verified-validated" style="stroke: #A80036; stroke-width: 1.0;"/><polygon fill="#A80036" points="444.3536,59,435.3536,55,439.3536,59,435.3536,63,444.3536,59" style="stroke: #A80036; stroke-width: 1.0;"/><text fill="#000000" font-family="Futura" font-size="13" lengthAdjust="spacingAndGlyphs" textLength="50" x="376.25" y="51.8887">Validate</text><!--link validated to baselined--><path d="M521.7422,59 C531.6723,59 541.6024,59 551.5325,59 " fill="none" id="validated-baselined" style="stroke: #A80036; stroke-width: 1.0;"/><polygon fill="#A80036" points="556.7253,59,547.7253,55,551.7253,59,547.7253,63,556.7253,59" style="stroke: #A80036; stroke-width: 1.0;"/><!--
@startuml



skinparam handwritten false
skinparam defaultFontName Futura

skinparam handwritten false

[*] -> initial : Elicit requirements
initial: SYS
initial: ACQ
initial: STK
initial -> verified : Verify
verified : PJM
verified : WT
verified -> validated : Validate
validated : PJM
validated : SYS
validated : ACQ
validated : STK
validated -> baselined

@enduml

PlantUML version 1.2019.00(Sun Jan 13 07:46:42 PST 2019)
(GPL source distribution)
Java Runtime: Java(TM) SE Runtime Environment
JVM: Java HotSpot(TM) 64-Bit Server VM
Java Version: 10.0.1+10
Operating System: Mac OS X
OS Version: 10.14.3
Default Encoding: UTF-8
Language: en
Country: US
--></g></svg>