<?xml version="1.0" encoding="UTF-8" standalone="no"?><svg xmlns="http://www.w3.org/2000/svg" xmlns:xlink="http://www.w3.org/1999/xlink" contentScriptType="application/ecmascript" contentStyleType="text/css" height="664px" preserveAspectRatio="none" style="width:1453px;height:664px;" version="1.1" viewBox="0 0 1453 664" width="1453px" zoomAndPan="magnify"><defs><filter height="300%" id="f1s38yc0lakcay" width="300%" x="-1" y="-1"><feGaussianBlur result="blurOut" stdDeviation="2.0"/><feColorMatrix in="blurOut" result="blurOut2" type="matrix" values="0 0 0 0 0 0 0 0 0 0 0 0 0 0 0 0 0 0 .4 0"/><feOffset dx="4.0" dy="4.0" in="blurOut2" result="blurOut3"/><feBlend in="SourceGraphic" in2="blurOut3" mode="normal"/></filter></defs><g><!--cluster PROD_PP--><rect fill="#FFFFFF" filter="url(#f1s38yc0lakcay)" height="76" style="stroke: #000000; stroke-width: 1.5;" width="123" x="665" y="16.5"/><polygon fill="#FFFFFF" points="771,21.5,771,35.5,783,35.5,783,27.5,777,21.5,771,21.5" style="stroke: #000000; stroke-width: 1.5;"/><line style="stroke: #000000; stroke-width: 1.5;" x1="777" x2="777" y1="21.5" y2="27.5"/><line style="stroke: #000000; stroke-width: 1.5;" x1="783" x2="777" y1="27.5" y2="27.5"/><text fill="#000000" font-family="Futura" font-size="14" font-weight="bold" lengthAdjust="spacingAndGlyphs" textLength="88" x="682.5" y="33.466">Project Plan</text><!--cluster Product Acceptance Record--><rect fill="#FFFFFF" filter="url(#f1s38yc0lakcay)" height="125" style="stroke: #000000; stroke-width: 1.5;" width="394" x="484" y="528"/><polygon fill="#FFFFFF" points="861,533,861,547,873,547,873,539,867,533,861,533" style="stroke: #000000; stroke-width: 1.5;"/><line style="stroke: #000000; stroke-width: 1.5;" x1="867" x2="867" y1="533" y2="539"/><line style="stroke: #000000; stroke-width: 1.5;" x1="873" x2="867" y1="539" y2="539"/><text fill="#000000" font-family="Futura" font-size="14" font-weight="bold" lengthAdjust="spacingAndGlyphs" textLength="204" x="579" y="544.966">Product Acceptance Record</text><!--cluster PROD_ACCEPTANCE--><rect fill="#FFFFFF" filter="url(#f1s38yc0lakcay)" height="88" style="stroke: #000000; stroke-width: 1.5;" width="111" x="492" y="557"/><rect fill="#FFFFFF" height="10" style="stroke: #000000; stroke-width: 1.5;" width="15" x="583" y="562"/><rect fill="#FFFFFF" height="2" style="stroke: #000000; stroke-width: 1.5;" width="4" x="581" y="564"/><rect fill="#FFFFFF" height="2" style="stroke: #000000; stroke-width: 1.5;" width="4" x="581" y="568"/><text fill="#000000" font-family="Futura" font-size="14" font-weight="bold" lengthAdjust="spacingAndGlyphs" textLength="57" x="519" y="584.966">Product</text><!--cluster PROD_ACCEPTANCE_SYSTEM--><rect fill="#FFFFFF" filter="url(#f1s38yc0lakcay)" height="88" style="stroke: #000000; stroke-width: 1.5;" width="76" x="794" y="557"/><rect fill="#FFFFFF" height="10" style="stroke: #000000; stroke-width: 1.5;" width="15" x="850" y="562"/><rect fill="#FFFFFF" height="2" style="stroke: #000000; stroke-width: 1.5;" width="4" x="848" y="564"/><rect fill="#FFFFFF" height="2" style="stroke: #000000; stroke-width: 1.5;" width="4" x="848" y="568"/><text fill="#000000" font-family="Futura" font-size="14" font-weight="bold" lengthAdjust="spacingAndGlyphs" textLength="54" x="805" y="584.966">System</text><!--cluster System Maintenance Document--><rect fill="#FFFFFF" filter="url(#f1s38yc0lakcay)" height="88" style="stroke: #000000; stroke-width: 1.5;" width="249" x="14" y="557"/><polygon fill="#FFFFFF" points="246,562,246,576,258,576,258,568,252,562,246,562" style="stroke: #000000; stroke-width: 1.5;"/><line style="stroke: #000000; stroke-width: 1.5;" x1="252" x2="252" y1="562" y2="568"/><line style="stroke: #000000; stroke-width: 1.5;" x1="258" x2="252" y1="568" y2="568"/><text fill="#000000" font-family="Futura" font-size="14" font-weight="bold" lengthAdjust="spacingAndGlyphs" textLength="233" x="22" y="573.966">System Maintenance Document</text><!--cluster System Training Specs--><rect fill="#FFFFFF" filter="url(#f1s38yc0lakcay)" height="88" style="stroke: #000000; stroke-width: 1.5;" width="182" x="276" y="557"/><polygon fill="#FFFFFF" points="441,562,441,576,453,576,453,568,447,562,441,562" style="stroke: #000000; stroke-width: 1.5;"/><line style="stroke: #000000; stroke-width: 1.5;" x1="447" x2="447" y1="562" y2="568"/><line style="stroke: #000000; stroke-width: 1.5;" x1="453" x2="447" y1="568" y2="568"/><text fill="#000000" font-family="Futura" font-size="14" font-weight="bold" lengthAdjust="spacingAndGlyphs" textLength="166" x="284" y="573.966">System Training Specs</text><!--cluster System--><rect fill="#FFFFFF" filter="url(#f1s38yc0lakcay)" height="88" style="stroke: #000000; stroke-width: 1.5;" width="155" x="1014" y="557"/><polygon fill="#FFFFFF" points="1152,562,1152,576,1164,576,1164,568,1158,562,1152,562" style="stroke: #000000; stroke-width: 1.5;"/><line style="stroke: #000000; stroke-width: 1.5;" x1="1158" x2="1158" y1="562" y2="568"/><line style="stroke: #000000; stroke-width: 1.5;" x1="1164" x2="1158" y1="568" y2="568"/><text fill="#000000" font-family="Futura" font-size="14" font-weight="bold" lengthAdjust="spacingAndGlyphs" textLength="54" x="1064.5" y="573.966">System</text><!--cluster PROD_PRODUCT--><rect fill="#FFFFFF" filter="url(#f1s38yc0lakcay)" height="88" style="stroke: #000000; stroke-width: 1.5;" width="202" x="588" y="302.5"/><polygon fill="#FFFFFF" points="773,307.5,773,321.5,785,321.5,785,313.5,779,307.5,773,307.5" style="stroke: #000000; stroke-width: 1.5;"/><line style="stroke: #000000; stroke-width: 1.5;" x1="779" x2="779" y1="307.5" y2="313.5"/><line style="stroke: #000000; stroke-width: 1.5;" x1="785" x2="779" y1="313.5" y2="313.5"/><text fill="#000000" font-family="Futura" font-size="14" font-weight="bold" lengthAdjust="spacingAndGlyphs" textLength="57" x="660.5" y="319.466">Product</text><!--entity PROD_PP_DI--><rect fill="#FEFECE" filter="url(#f1s38yc0lakcay)" height="38.5938" style="stroke: #A80036; stroke-width: 1.5;" width="72" x="708" y="45.5"/><rect fill="#FEFECE" height="5" style="stroke: #A80036; stroke-width: 1.5;" width="10" x="703" y="50.5"/><rect fill="#FEFECE" height="5" style="stroke: #A80036; stroke-width: 1.5;" width="10" x="703" y="74.0938"/><text fill="#000000" font-family="Futura" font-size="14" lengthAdjust="spacingAndGlyphs" textLength="52" x="718" y="70.457">Delivery</text><!--entity PROD_ACCEPTANCE_PUBLISHED--><ellipse cx="660" cy="602" fill="#FEFECE" filter="url(#f1s38yc0lakcay)" rx="12" ry="12" style="stroke: #A80036; stroke-width: 2.0;"/><polygon fill="#A80036" points="656,590,662,585,660,590,662,595,656,590" style="stroke: #A80036; stroke-width: 1.0;"/><text fill="#000000" font-family="Futura" font-size="14" lengthAdjust="spacingAndGlyphs" textLength="60" x="630" y="632.957">published</text><!--entity PROD_ACCEPTANCE_SIGNED--><ellipse cx="746" cy="602" fill="#FEFECE" filter="url(#f1s38yc0lakcay)" rx="12" ry="12" style="stroke: #A80036; stroke-width: 2.0;"/><polygon fill="#A80036" points="742,590,748,585,746,590,748,595,742,590" style="stroke: #A80036; stroke-width: 1.0;"/><text fill="#000000" font-family="Futura" font-size="14" lengthAdjust="spacingAndGlyphs" textLength="41" x="725.5" y="632.957">signed</text><!--entity PROD_ACCEPTANCE_PRODUCT_APPROVED--><ellipse cx="530" cy="602" fill="#FEFECE" filter="url(#f1s38yc0lakcay)" rx="12" ry="12" style="stroke: #A80036; stroke-width: 2.0;"/><polygon fill="#A80036" points="526,590,532,585,530,590,532,595,526,590" style="stroke: #A80036; stroke-width: 1.0;"/><text fill="#000000" font-family="Futura" font-size="14" lengthAdjust="spacingAndGlyphs" textLength="60" x="500" y="632.957">approved</text><!--entity META_ACCEPTANCE_APPROVED--><ellipse cx="832" cy="602" fill="#FEFECE" filter="url(#f1s38yc0lakcay)" rx="12" ry="12" style="stroke: #A80036; stroke-width: 2.0;"/><polygon fill="#A80036" points="828,590,834,585,832,590,834,595,828,590" style="stroke: #A80036; stroke-width: 1.0;"/><text fill="#000000" font-family="Futura" font-size="14" lengthAdjust="spacingAndGlyphs" textLength="60" x="802" y="632.957">approved</text><!--entity PROD_MAINTENANCE--><ellipse cx="236" cy="602" fill="#FEFECE" filter="url(#f1s38yc0lakcay)" rx="12" ry="12" style="stroke: #A80036; stroke-width: 2.0;"/><polygon fill="#A80036" points="232,590,238,585,236,590,238,595,232,590" style="stroke: #A80036; stroke-width: 1.0;"/><text fill="#000000" font-family="Futura" font-size="14" lengthAdjust="spacingAndGlyphs" textLength="32" x="220" y="632.957">initial</text><!--entity PROD_MAINTENANCE_VALIDATED--><ellipse cx="156" cy="602" fill="#FEFECE" filter="url(#f1s38yc0lakcay)" rx="12" ry="12" style="stroke: #A80036; stroke-width: 2.0;"/><polygon fill="#A80036" points="152,590,158,585,156,590,158,595,152,590" style="stroke: #A80036; stroke-width: 1.0;"/><text fill="#000000" font-family="Futura" font-size="14" lengthAdjust="spacingAndGlyphs" textLength="57" x="127.5" y="632.957">validated</text><!--entity PROD_TRAINING--><ellipse cx="396" cy="602" fill="#FEFECE" filter="url(#f1s38yc0lakcay)" rx="12" ry="12" style="stroke: #A80036; stroke-width: 2.0;"/><polygon fill="#A80036" points="392,590,398,585,396,590,398,595,392,590" style="stroke: #A80036; stroke-width: 1.0;"/><text fill="#000000" font-family="Futura" font-size="14" lengthAdjust="spacingAndGlyphs" textLength="32" x="380" y="632.957">initial</text><!--entity PROD_TRAINING_VALIDATED--><ellipse cx="316" cy="602" fill="#FEFECE" filter="url(#f1s38yc0lakcay)" rx="12" ry="12" style="stroke: #A80036; stroke-width: 2.0;"/><polygon fill="#A80036" points="312,590,318,585,316,590,318,595,312,590" style="stroke: #A80036; stroke-width: 1.0;"/><text fill="#000000" font-family="Futura" font-size="14" lengthAdjust="spacingAndGlyphs" textLength="57" x="287.5" y="632.957">validated</text><!--entity PROD_SYSTEM_VERIFIED--><ellipse cx="1138" cy="602" fill="#FEFECE" filter="url(#f1s38yc0lakcay)" rx="12" ry="12" style="stroke: #A80036; stroke-width: 2.0;"/><polygon fill="#A80036" points="1134,590,1140,585,1138,590,1140,595,1134,590" style="stroke: #A80036; stroke-width: 1.0;"/><text fill="#000000" font-family="Futura" font-size="14" lengthAdjust="spacingAndGlyphs" textLength="46" x="1115" y="632.957">verified</text><!--entity PROD_SYSTEM_VALIDATED--><ellipse cx="1051" cy="602" fill="#FEFECE" filter="url(#f1s38yc0lakcay)" rx="12" ry="12" style="stroke: #A80036; stroke-width: 2.0;"/><polygon fill="#A80036" points="1047,590,1053,585,1051,590,1053,595,1047,590" style="stroke: #A80036; stroke-width: 1.0;"/><text fill="#000000" font-family="Futura" font-size="14" lengthAdjust="spacingAndGlyphs" textLength="57" x="1022.5" y="632.957">validated</text><!--entity PROD_PRODUCT_DELIVERED--><ellipse cx="660" cy="347.5" fill="#FEFECE" filter="url(#f1s38yc0lakcay)" rx="12" ry="12" style="stroke: #A80036; stroke-width: 2.0;"/><polygon fill="#A80036" points="656,335.5,662,330.5,660,335.5,662,340.5,656,335.5" style="stroke: #A80036; stroke-width: 1.0;"/><text fill="#000000" font-family="Futura" font-size="14" lengthAdjust="spacingAndGlyphs" textLength="58" x="631" y="378.457">delivered</text><!--entity PROD_PRODUCT_ACCEPTED--><ellipse cx="753" cy="347.5" fill="#FEFECE" filter="url(#f1s38yc0lakcay)" rx="12" ry="12" style="stroke: #A80036; stroke-width: 2.0;"/><polygon fill="#A80036" points="749,335.5,755,330.5,753,335.5,755,340.5,749,335.5" style="stroke: #A80036; stroke-width: 1.0;"/><text fill="#000000" font-family="Futura" font-size="14" lengthAdjust="spacingAndGlyphs" textLength="58" x="724" y="378.457">accepted</text><!--entity PJM--><ellipse cx="310" cy="32" fill="#FEFECE" filter="url(#f1s38yc0lakcay)" rx="8" ry="8" style="stroke: #A80036; stroke-width: 2.0;"/><path d="M310,40 L310,67 M297,48 L323,48 M310,67 L297,82 M310,67 L323,82 " fill="none" filter="url(#f1s38yc0lakcay)" style="stroke: #A80036; stroke-width: 2.0;"/><text fill="#000000" font-family="Futura" font-size="14" lengthAdjust="spacingAndGlyphs" textLength="27" x="296.5" y="103.957">PJM</text><!--entity WT--><ellipse cx="375" cy="32" fill="#FEFECE" filter="url(#f1s38yc0lakcay)" rx="8" ry="8" style="stroke: #A80036; stroke-width: 2.0;"/><path d="M375,40 L375,67 M362,48 L388,48 M375,67 L362,82 M375,67 L388,82 " fill="none" filter="url(#f1s38yc0lakcay)" style="stroke: #A80036; stroke-width: 2.0;"/><text fill="#000000" font-family="Futura" font-size="14" lengthAdjust="spacingAndGlyphs" textLength="22" x="364" y="103.957">WT</text><!--entity STK--><ellipse cx="440" cy="32" fill="#FEFECE" filter="url(#f1s38yc0lakcay)" rx="8" ry="8" style="stroke: #A80036; stroke-width: 2.0;"/><path d="M440,40 L440,67 M427,48 L453,48 M440,67 L427,82 M440,67 L453,82 " fill="none" filter="url(#f1s38yc0lakcay)" style="stroke: #A80036; stroke-width: 2.0;"/><text fill="#000000" font-family="Futura" font-size="14" lengthAdjust="spacingAndGlyphs" textLength="24" x="428" y="103.957">STK</text><!--entity ACQ--><ellipse cx="310" cy="178" fill="#FEFECE" filter="url(#f1s38yc0lakcay)" rx="8" ry="8" style="stroke: #A80036; stroke-width: 2.0;"/><path d="M310,186 L310,213 M297,194 L323,194 M310,213 L297,228 M310,213 L323,228 " fill="none" filter="url(#f1s38yc0lakcay)" style="stroke: #A80036; stroke-width: 2.0;"/><text fill="#000000" font-family="Futura" font-size="14" lengthAdjust="spacingAndGlyphs" textLength="33" x="293.5" y="249.957">ACQ</text><!--entity SYS--><ellipse cx="377" cy="178" fill="#FEFECE" filter="url(#f1s38yc0lakcay)" rx="8" ry="8" style="stroke: #A80036; stroke-width: 2.0;"/><path d="M377,186 L377,213 M364,194 L390,194 M377,213 L364,228 M377,213 L390,228 " fill="none" filter="url(#f1s38yc0lakcay)" style="stroke: #A80036; stroke-width: 2.0;"/><text fill="#000000" font-family="Futura" font-size="14" lengthAdjust="spacingAndGlyphs" textLength="24" x="365" y="249.957">SYS</text><!--entity DES--><ellipse cx="442" cy="178" fill="#FEFECE" filter="url(#f1s38yc0lakcay)" rx="8" ry="8" style="stroke: #A80036; stroke-width: 2.0;"/><path d="M442,186 L442,213 M429,194 L455,194 M442,213 L429,228 M442,213 L455,228 " fill="none" filter="url(#f1s38yc0lakcay)" style="stroke: #A80036; stroke-width: 2.0;"/><text fill="#000000" font-family="Futura" font-size="14" lengthAdjust="spacingAndGlyphs" textLength="26" x="429" y="249.957">DES</text><!--entity IVV--><ellipse cx="310" cy="324" fill="#FEFECE" filter="url(#f1s38yc0lakcay)" rx="8" ry="8" style="stroke: #A80036; stroke-width: 2.0;"/><path d="M310,332 L310,359 M297,340 L323,340 M310,359 L297,374 M310,359 L323,374 " fill="none" filter="url(#f1s38yc0lakcay)" style="stroke: #A80036; stroke-width: 2.0;"/><text fill="#000000" font-family="Futura" font-size="14" lengthAdjust="spacingAndGlyphs" textLength="22" x="299" y="395.957">IVV</text><!--entity PROD_SE_ALL--><rect fill="#FEFECE" filter="url(#f1s38yc0lakcay)" height="41.5938" style="stroke: #000000; stroke-width: 1.5;" width="135" x="494.5" y="44"/><polygon fill="#FEFECE" points="612.5,49,612.5,63,624.5,63,624.5,55,618.5,49,612.5,49" style="stroke: #000000; stroke-width: 1.5;"/><line style="stroke: #000000; stroke-width: 1.5;" x1="618.5" x2="618.5" y1="49" y2="55"/><line style="stroke: #000000; stroke-width: 1.5;" x1="624.5" x2="618.5" y1="55" y2="55"/><text fill="#000000" font-family="Futura" font-size="14" lengthAdjust="spacingAndGlyphs" textLength="105" x="504.5" y="71.957">System Elements</text><!--entity PROD_IVV_PROCEDURES_VERIFIED--><rect fill="#FEFECE" filter="url(#f1s38yc0lakcay)" height="41.5938" style="stroke: #000000; stroke-width: 1.5;" width="187" x="903.5" y="336"/><polygon fill="#FEFECE" points="1073.5,341,1073.5,355,1085.5,355,1085.5,347,1079.5,341,1073.5,341" style="stroke: #000000; stroke-width: 1.5;"/><line style="stroke: #000000; stroke-width: 1.5;" x1="1079.5" x2="1079.5" y1="341" y2="347"/><line style="stroke: #000000; stroke-width: 1.5;" x1="1085.5" x2="1079.5" y1="347" y2="347"/><text fill="#000000" font-family="Futura" font-size="14" lengthAdjust="spacingAndGlyphs" textLength="157" x="913.5" y="363.957">IVV Procedures (verified)</text><!--entity PROD_STRS_VALIDATED--><rect fill="#FEFECE" filter="url(#f1s38yc0lakcay)" height="41.5938" style="stroke: #000000; stroke-width: 1.5;" width="129" x="1125.5" y="336"/><polygon fill="#FEFECE" points="1237.5,341,1237.5,355,1249.5,355,1249.5,347,1243.5,341,1237.5,341" style="stroke: #000000; stroke-width: 1.5;"/><line style="stroke: #000000; stroke-width: 1.5;" x1="1243.5" x2="1243.5" y1="341" y2="347"/><line style="stroke: #000000; stroke-width: 1.5;" x1="1249.5" x2="1243.5" y1="347" y2="347"/><text fill="#000000" font-family="Futura" font-size="14" lengthAdjust="spacingAndGlyphs" textLength="99" x="1135.5" y="363.957">StRS (validated)</text><!--entity META_TRACE_MATRIX--><rect fill="#FEFECE" filter="url(#f1s38yc0lakcay)" height="41.5938" style="stroke: #000000; stroke-width: 1.5;" width="147" x="1289.5" y="336"/><polygon fill="#FEFECE" points="1419.5,341,1419.5,355,1431.5,355,1431.5,347,1425.5,341,1419.5,341" style="stroke: #000000; stroke-width: 1.5;"/><line style="stroke: #000000; stroke-width: 1.5;" x1="1425.5" x2="1425.5" y1="341" y2="347"/><line style="stroke: #000000; stroke-width: 1.5;" x1="1431.5" x2="1425.5" y1="347" y2="347"/><text fill="#000000" font-family="Futura" font-size="14" lengthAdjust="spacingAndGlyphs" textLength="117" x="1299.5" y="363.957">Traceability Matrix</text><ellipse cx="562.1792" cy="210.9358" fill="#FEFECE" filter="url(#f1s38yc0lakcay)" rx="70.1792" ry="16.4358" style="stroke: #A80036; stroke-width: 1.5;"/><text fill="#000000" font-family="Futura" font-size="14" lengthAdjust="spacingAndGlyphs" textLength="97" x="513.6792" y="216.7327">Review Product</text><ellipse cx="304.9176" cy="489.7835" fill="#FEFECE" filter="url(#f1s38yc0lakcay)" rx="111.9176" ry="24.7835" style="stroke: #A80036; stroke-width: 1.5;"/><text fill="#000000" font-family="Futura" font-size="14" lengthAdjust="spacingAndGlyphs" textLength="197" x="206.4176" y="495.5804">V&amp;V Maintenance and Training</text><ellipse cx="1093.77" cy="490.154" fill="#FEFECE" filter="url(#f1s38yc0lakcay)" rx="71.27" ry="16.654" style="stroke: #A80036; stroke-width: 1.5;"/><text fill="#000000" font-family="Futura" font-size="14" lengthAdjust="spacingAndGlyphs" textLength="100" x="1043.77" y="495.9509">Validate System</text><ellipse cx="752.8699" cy="210.974" fill="#FEFECE" filter="url(#f1s38yc0lakcay)" rx="85.3699" ry="19.474" style="stroke: #A80036; stroke-width: 1.5;"/><text fill="#000000" font-family="Futura" font-size="14" lengthAdjust="spacingAndGlyphs" textLength="136" x="684.8699" y="216.7709">Formalize Completion</text><ellipse cx="659.8322" cy="489.7664" fill="#FEFECE" filter="url(#f1s38yc0lakcay)" rx="136.8322" ry="29.7664" style="stroke: #A80036; stroke-width: 1.5;"/><text fill="#000000" font-family="Futura" font-size="14" lengthAdjust="spacingAndGlyphs" textLength="251" x="534.3322" y="495.5633">Transition to Manufacturing and support</text><!--link PROD_SE_ALL to SR6_1--><path d="M562,86.2297 C562,113.6631 562,161.1935 562,188.9981 " fill="none" id="PROD_SE_ALL-SR6_1" style="stroke: #A80036; stroke-width: 2.0;"/><polygon fill="#A80036" points="562,194.2842,566,185.2842,562,189.2842,558,185.2842,562,194.2842" style="stroke: #A80036; stroke-width: 1.0;"/><!--link PROD_PP to SR6_1--><path d="M664.9235,79.5324 C664.8546,79.652 664.7853,79.7721 664.7157,79.8927 C664.5766,80.1338 664.4362,80.3766 664.2945,80.6212 C664.0111,81.1104 663.7228,81.6064 663.4298,82.1086 C658.7415,90.1428 652.8543,99.7455 647,108 C625.6241,138.14 597.9194,170.6728 580.051,190.9375 " fill="none" id="PROD_PP-SR6_1" style="stroke: #A80036; stroke-width: 2.0;"/><polygon fill="#A80036" points="576.6132,194.8225,585.573,190.7332,579.9267,191.078,579.5819,185.4317,576.6132,194.8225" style="stroke: #A80036; stroke-width: 1.0;"/><!--link SR6_1 to PROD_ACCEPTANCE--><path d="M550.7744,227.6142 C517.9067,278.4857 428.916,433.8768 506,520 C516.7364,531.9954 566.1151,517.1414 578,528 C584.5531,533.9872 588.9683,541.7547 591.8877,550.1391 C592.6176,552.2352 593.2539,554.3698 593.8069,556.5249 C593.8414,556.6596 593.8756,556.7943 593.9096,556.9292 " fill="none" id="SR6_1-PROD_ACCEPTANCE" style="stroke: #A80036; stroke-width: 2.0;"/><polygon fill="#A80036" points="593.9096,556.9292,595.594,547.2254,592.6902,552.0801,587.8355,549.1764,593.9096,556.9292" style="stroke: #A80036; stroke-width: 1.0;"/><!--link SR6_1 to PROD_PRODUCT--><path d="M565.9002,227.7481 C570.1563,246.024 577.1918,276.2353 583.391,302.8555 C584.9408,309.5105 586.4383,315.9411 587.8271,321.9046 C587.8705,322.091 587.9138,322.2769 587.957,322.4623 " fill="none" id="SR6_1-PROD_PRODUCT" style="stroke: #A80036; stroke-width: 2.0;"/><polygon fill="#A80036" points="587.957,322.4623,589.8115,312.7896,586.8229,317.5926,582.0199,314.6041,587.957,322.4623" style="stroke: #A80036; stroke-width: 1.0;"/><!--link PROD_MAINTENANCE to SR6_4--><path d="M242.8867,585.7608 C248.1815,568.5714 256.5403,545.9174 268,528 C270.0465,524.8002 272.3942,521.645 274.8928,518.603 " fill="none" id="PROD_MAINTENANCE-SR6_4" style="stroke: #A80036; stroke-width: 2.0;"/><polygon fill="#A80036" points="278.3795,514.5316,269.4871,518.7655,275.1271,518.3292,275.5634,523.9693,278.3795,514.5316" style="stroke: #A80036; stroke-width: 1.0;"/><!--link PROD_TRAINING to SR6_4--><path d="M389.8087,585.6788 C384.6016,568.0211 375.7604,544.8523 362,528 C358.7279,523.9926 354.9219,520.2499 350.8581,516.7977 " fill="none" id="PROD_TRAINING-SR6_4" style="stroke: #A80036; stroke-width: 2.0;"/><polygon fill="#A80036" points="346.7186,513.4432,351.1928,522.2171,350.6033,516.5911,356.2294,516.0016,346.7186,513.4432" style="stroke: #A80036; stroke-width: 1.0;"/><!--link SR6_4 to PROD_MAINTENANCE_VALIDATED--><path d="M233.3928,509.2758 C222.4798,514.2316 211.9053,520.3863 203,528 C186.5885,542.0313 174.7367,563.2995 167.0397,580.8592 " fill="none" id="SR6_4-PROD_MAINTENANCE_VALIDATED" style="stroke: #A80036; stroke-width: 2.0;"/><polygon fill="#A80036" points="164.9786,585.7044,172.1825,578.9885,166.9359,581.1034,164.8209,575.8568,164.9786,585.7044" style="stroke: #A80036; stroke-width: 1.0;"/><!--link SR6_4 to PROD_TRAINING_VALIDATED--><path d="M307.2792,515.1749 C309.008,534.27 311.3923,560.6055 313.2309,580.9141 " fill="none" id="SR6_4-PROD_TRAINING_VALIDATED" style="stroke: #A80036; stroke-width: 2.0;"/><polygon fill="#A80036" points="313.6859,585.9394,316.8581,576.6154,313.235,580.9598,308.8906,577.3368,313.6859,585.9394" style="stroke: #A80036; stroke-width: 1.0;"/><!--link SR6_4 to PROD_ACCEPTANCE_PRODUCT_APPROVED--><path d="M387.8131,507.0127 C423.5335,514.821 458.8267,523.3584 466,528 C486.3567,541.1721 502.8108,563.1364 513.9358,581.2324 " fill="none" id="SR6_4-PROD_ACCEPTANCE_PRODUCT_APPROVED" style="stroke: #A80036; stroke-width: 2.0;"/><polygon fill="#A80036" points="516.6485,585.742,515.437,575.9679,514.0712,581.4574,508.5817,580.0916,516.6485,585.742" style="stroke: #A80036; stroke-width: 1.0;"/><!--link PROD_STRS_VALIDATED to SR5_4--><path d="M1174.7885,378.0742 C1156.6963,403.1396 1126.6993,444.6979 1108.793,469.5056 " fill="none" id="PROD_STRS_VALIDATED-SR5_4" style="stroke: #A80036; stroke-width: 2.0;"/><polygon fill="#A80036" points="1105.8113,473.6364,1114.322,468.6798,1108.7376,469.5821,1107.8352,463.9977,1105.8113,473.6364" style="stroke: #A80036; stroke-width: 1.0;"/><!--link META_TRACE_MATRIX to SR5_4--><path d="M1320.3762,378.0742 C1267.4186,404.2577 1178.0604,448.4386 1128.9445,472.7226 " fill="none" id="META_TRACE_MATRIX-SR5_4" style="stroke: #A80036; stroke-width: 2.0;"/><polygon fill="#A80036" points="1124.3196,475.0093,1134.1602,474.6058,1128.8016,472.7931,1130.6143,467.4346,1124.3196,475.0093" style="stroke: #A80036; stroke-width: 1.0;"/><!--link PROD_IVV_PROCEDURES_VERIFIED to SR5_4--><path d="M1012.3699,378.0742 C1030.6507,403.1396 1060.9601,444.6979 1079.0529,469.5056 " fill="none" id="PROD_IVV_PROCEDURES_VERIFIED-SR5_4" style="stroke: #A80036; stroke-width: 2.0;"/><polygon fill="#A80036" points="1082.0657,473.6364,1079.9941,464.0079,1079.1194,469.5967,1073.5306,468.722,1082.0657,473.6364" style="stroke: #A80036; stroke-width: 1.0;"/><!--link PROD_SYSTEM_VERIFIED to SR5_4--><path d="M1128.6708,585.7388 C1120.6661,563.6348 1109.2658,532.1545 1101.7537,511.4109 " fill="none" id="PROD_SYSTEM_VERIFIED-SR5_4" style="stroke: #A80036; stroke-width: 2.0;"/><polygon fill="#A80036" points="1100.0258,506.6393,1099.3295,516.4635,1101.7284,511.3405,1106.8514,513.7394,1100.0258,506.6393" style="stroke: #A80036; stroke-width: 1.0;"/><!--link SR5_4 to PROD_SYSTEM_VALIDATED--><path d="M1088.1112,506.6393 C1081.3684,525.6915 1070.1811,557.3023 1061.8491,580.8449 " fill="none" id="SR5_4-PROD_SYSTEM_VALIDATED" style="stroke: #A80036; stroke-width: 2.0;"/><polygon fill="#A80036" points="1060.1171,585.7388,1066.8906,578.589,1061.7852,581.0253,1059.3489,575.9199,1060.1171,585.7388" style="stroke: #A80036; stroke-width: 1.0;"/><!--link SR5_4 to META_ACCEPTANCE_APPROVED--><path d="M1059.5915,504.4828 C1043.2817,511.4435 1023.5665,519.9961 1006,528 C957.2683,550.2038 901.5649,577.2289 866.5887,594.401 " fill="none" id="SR5_4-META_ACCEPTANCE_APPROVED" style="stroke: #A80036; stroke-width: 2.0;"/><polygon fill="#A80036" points="862.0055,596.653,871.8471,596.2741,866.493,594.448,868.3191,589.094,862.0055,596.653" style="stroke: #A80036; stroke-width: 1.0;"/><!--link PROD_PP_DI to PM4_1--><path d="M745.2138,84.6902 C746.8308,110.9226 749.6928,157.3491 751.46,186.0179 " fill="none" id="PROD_PP_DI-PM4_1" style="stroke: #A80036; stroke-width: 2.0;"/><polygon fill="#A80036" points="751.7767,191.1555,755.2152,181.9264,751.469,186.165,747.2304,182.4187,751.7767,191.1555" style="stroke: #A80036; stroke-width: 1.0;"/><!--link PROD_PRODUCT_DELIVERED to PM4_1--><path d="M676.317,331.384 C693.675,304.1338 720.9134,261.3725 737.8232,234.826 " fill="none" id="PROD_PRODUCT_DELIVERED-PM4_1" style="stroke: #A80036; stroke-width: 2.0;"/><polygon fill="#A80036" points="740.6503,230.3877,732.4413,235.8295,737.964,234.6048,739.1887,240.1275,740.6503,230.3877" style="stroke: #A80036; stroke-width: 1.0;"/><!--link PM4_1 to PROD_ACCEPTANCE_SIGNED--><path d="M766.2392,230.3439 C800.329,282.766 883.7827,429.6736 815,520 C806.8998,530.6373 796.2553,519.4213 786,528 C769.8845,541.4808 759.7977,562.9639 753.7846,580.763 " fill="none" id="PM4_1-PROD_ACCEPTANCE_SIGNED" style="stroke: #A80036; stroke-width: 2.0;"/><polygon fill="#A80036" points="752.195,585.6759,758.7715,578.3444,753.7343,580.9187,751.16,575.8816,752.195,585.6759" style="stroke: #A80036; stroke-width: 1.0;"/><!--link PM4_1 to PROD_PRODUCT_ACCEPTED--><path d="M753,230.6902 C753,255.2373 753,297.467 753,326.2825 " fill="none" id="PM4_1-PROD_PRODUCT_ACCEPTED" style="stroke: #A80036; stroke-width: 2.0;"/><polygon fill="#A80036" points="753,331.4996,757,322.4996,753,326.4996,749,322.4996,753,331.4996" style="stroke: #A80036; stroke-width: 1.0;"/><!--link PROD_PRODUCT_DELIVERED to SR6_6--><path d="M660,382.6437 C660,403.1355 660,432.0779 660,454.7488 " fill="none" id="PROD_PRODUCT_DELIVERED-SR6_6" style="stroke: #A80036; stroke-width: 2.0;"/><polygon fill="#A80036" points="660,459.7787,664,450.7787,660,454.7787,656,450.7787,660,459.7787" style="stroke: #A80036; stroke-width: 1.0;"/><!--link SR6_6 to PROD_ACCEPTANCE_PUBLISHED--><path d="M660,520.0337 C660,538.533 660,562.1892 660,580.8088 " fill="none" id="SR6_6-PROD_ACCEPTANCE_PUBLISHED" style="stroke: #A80036; stroke-width: 2.0;"/><polygon fill="#A80036" points="660,585.9185,664,576.9185,660,580.9185,656,576.9185,660,585.9185" style="stroke: #A80036; stroke-width: 1.0;"/><!--link PJM to WT--><!--link WT to STK--><!--link PJM to ACQ--><!--link ACQ to SYS--><!--link SYS to DES--><!--link ACQ to IVV--><!--
@startuml



skinparam handwritten false
skinparam defaultFontName Futura


actor PJM
actor WT
actor STK
actor ACQ
actor SYS
actor DES
actor IVV

artifact "Project Plan" as PROD_PP {
component "Delivery" as PROD_PP_DI
}
artifact "System Elements" as PROD_SE_ALL
artifact "Product Acceptance Record" {
  component "Product" as PROD_ACCEPTANCE {
    control "approved" as PROD_ACCEPTANCE_PRODUCT_APPROVED
  } 
  component "System" as PROD_ACCEPTANCE_SYSTEM {
    control "approved" as META_ACCEPTANCE_APPROVED
  }
  control "published" as PROD_ACCEPTANCE_PUBLISHED
  control "signed" as PROD_ACCEPTANCE_SIGNED
}
artifact "System Maintenance Document" {
control "initial" as PROD_MAINTENANCE
control "validated" as PROD_MAINTENANCE_VALIDATED
}
artifact "System Training Specs" {
control "initial" as PROD_TRAINING
control "validated" as PROD_TRAINING_VALIDATED
}
artifact "IVV Procedures (verified)" as PROD_IVV_PROCEDURES_VERIFIED
artifact "StRS (validated)" as PROD_STRS_VALIDATED
artifact "System" {
control "verified" as PROD_SYSTEM_VERIFIED
control "validated" as PROD_SYSTEM_VALIDATED
}
artifact "Traceability Matrix" as META_TRACE_MATRIX

artifact "Product" as PROD_PRODUCT {
control "delivered" as PROD_PRODUCT_DELIVERED
control "accepted" as PROD_PRODUCT_ACCEPTED
}



usecase "Review Product" as SR6_1
PROD_SE_ALL ==> SR6_1
PROD_PP ==> SR6_1
SR6_1 ==> PROD_ACCEPTANCE
SR6_1 ==> PROD_PRODUCT

usecase "V&V Maintenance and Training" as SR6_4
PROD_MAINTENANCE ==> SR6_4
PROD_TRAINING ==> SR6_4
SR6_4 ==> PROD_MAINTENANCE_VALIDATED
SR6_4 ==> PROD_TRAINING_VALIDATED
SR6_4 ==> PROD_ACCEPTANCE_PRODUCT_APPROVED

usecase "Validate System" as SR5_4
PROD_STRS_VALIDATED ==> SR5_4
META_TRACE_MATRIX ==> SR5_4
PROD_IVV_PROCEDURES_VERIFIED ==> SR5_4
PROD_SYSTEM_VERIFIED ==> SR5_4
SR5_4 ==> PROD_SYSTEM_VALIDATED
SR5_4 ==> META_ACCEPTANCE_APPROVED

usecase "Formalize Completion" as PM4_1
PROD_PP_DI ==> PM4_1
PROD_PRODUCT_DELIVERED ==> PM4_1
PM4_1 ==> PROD_ACCEPTANCE_SIGNED
PM4_1 ==> PROD_PRODUCT_ACCEPTED

usecase "Transition to Manufacturing and support" as SR6_6
PROD_PRODUCT_DELIVERED ==> SR6_6
SR6_6 ==> PROD_ACCEPTANCE_PUBLISHED

@enduml

PlantUML version 1.2019.00(Sun Jan 13 07:46:42 PST 2019)
(GPL source distribution)
Java Runtime: Java(TM) SE Runtime Environment
JVM: Java HotSpot(TM) 64-Bit Server VM
Java Version: 10.0.1+10
Operating System: Mac OS X
OS Version: 10.14.3
Default Encoding: UTF-8
Language: en
Country: US
--></g></svg>