<svg xmlns="http://www.w3.org/2000/svg" height="485" preserveAspectRatio="none" style="width:2874px;height:485px" width="2874"><defs><filter height="300%" id="a" width="300%" x="-1" y="-1"><feGaussianBlur result="blurOut" stdDeviation="2"/><feColorMatrix in="blurOut" result="blurOut2" values="0 0 0 0 0 0 0 0 0 0 0 0 0 0 0 0 0 0 .4 0"/><feOffset dx="4" dy="4" in="blurOut2" result="blurOut3"/><feBlend in="SourceGraphic" in2="blurOut3"/></filter></defs><path fill="#FFF" filter="url(#a)" stroke="#000" stroke-width="1.5" d="M1347.5 16.5h141v88h-141z"/><path fill="#FFF" stroke="#000" stroke-width="1.5" d="M1471.5 21.5v14h12v-8l-6-6h-6z"/><path stroke="#000" stroke-width="1.5" d="M1477.5 21.5v6M1483.5 27.5h-6"/><text font-family="Futura" font-size="14" font-weight="bold" lengthAdjust="spacingAndGlyphs" textLength="35" x="1400.5" y="33.466">SoW</text><path fill="#FFF" filter="url(#a)" stroke="#000" stroke-width="1.5" d="M607.5 291h1893v88h-1893z"/><path fill="#FFF" stroke="#000" stroke-width="1.5" d="M2483.5 296v14h12v-8l-6-6h-6z"/><path stroke="#000" stroke-width="1.5" d="M2489.5 296v6M2495.5 302h-6"/><text font-family="Futura" font-size="14" font-weight="bold" lengthAdjust="spacingAndGlyphs" textLength="88" x="1510" y="307.966">Project Plan</text><path fill="#FFF" filter="url(#a)" stroke="#000" stroke-width="1.5" d="M2543.5 291h159v88h-159z"/><path fill="#FFF" stroke="#000" stroke-width="1.5" d="M2685.5 296v14h12v-8l-6-6h-6z"/><path stroke="#000" stroke-width="1.5" d="M2691.5 296v6M2697.5 302h-6"/><text font-family="Futura" font-size="14" font-weight="bold" lengthAdjust="spacingAndGlyphs" textLength="19" x="2613.5" y="307.966">CR</text><path fill="#FFF" filter="url(#a)" stroke="#000" stroke-width="1.5" d="M2719.5 291h138v88h-138z"/><path fill="#FFF" stroke="#000" stroke-width="1.5" d="M2840.5 296v14h12v-8l-6-6h-6z"/><path stroke="#000" stroke-width="1.5" d="M2846.5 296v6M2852.5 302h-6"/><text font-family="Futura" font-size="14" font-weight="bold" lengthAdjust="spacingAndGlyphs" textLength="122" x="2727.5" y="307.966">Meeting Minutes</text><circle cx="1371.5" cy="61.5" fill="#FEFECE" filter="url(#a)" stroke="#a80036" stroke-width="2" r="12"/><path fill="#A80036" stroke="#a80036" d="M1367.5 49.5l6-5-2 5 2 5-6-5z"/><text font-family="Futura" font-size="14" lengthAdjust="spacingAndGlyphs" textLength="32" x="1355.5" y="92.457">initial</text><circle cx="1451.5" cy="61.5" fill="#FEFECE" filter="url(#a)" stroke="#a80036" stroke-width="2" r="12"/><path fill="#A80036" stroke="#a80036" d="M1447.5 49.5l6-5-2 5 2 5-6-5z"/><text font-family="Futura" font-size="14" lengthAdjust="spacingAndGlyphs" textLength="58" x="1422.5" y="92.457">reviewed</text><path fill="#FEFECE" filter="url(#a)" stroke="#a80036" stroke-width="1.5" d="M1600 326h43v38.594h-43z"/><path fill="#FEFECE" stroke="#a80036" stroke-width="1.5" d="M1595 331h10v5h-10zM1595 354.594h10v5h-10z"/><text font-family="Futura" font-size="14" lengthAdjust="spacingAndGlyphs" textLength="23" x="1610" y="350.957">CM</text><path fill="#FEFECE" filter="url(#a)" stroke="#a80036" stroke-width="1.5" d="M1009.5 326h48v38.594h-48z"/><path fill="#FEFECE" stroke="#a80036" stroke-width="1.5" d="M1004.5 331h10v5h-10zM1004.5 354.594h10v5h-10z"/><text font-family="Futura" font-size="14" lengthAdjust="spacingAndGlyphs" textLength="28" x="1019.5" y="350.957">Cost</text><path fill="#FEFECE" filter="url(#a)" stroke="#a80036" stroke-width="1.5" d="M1215.5 326h72v38.594h-72z"/><path fill="#FEFECE" stroke="#a80036" stroke-width="1.5" d="M1210.5 331h10v5h-10zM1210.5 354.594h10v5h-10z"/><text font-family="Futura" font-size="14" lengthAdjust="spacingAndGlyphs" textLength="52" x="1225.5" y="350.957">Delivery</text><path fill="#FEFECE" filter="url(#a)" stroke="#a80036" stroke-width="1.5" d="M1772.5 326h72v38.594h-72z"/><path fill="#FEFECE" stroke="#a80036" stroke-width="1.5" d="M1767.5 331h10v5h-10zM1767.5 354.594h10v5h-10z"/><text font-family="Futura" font-size="14" lengthAdjust="spacingAndGlyphs" textLength="52" x="1782.5" y="350.957">Disposal</text><path fill="#FEFECE" filter="url(#a)" stroke="#a80036" stroke-width="1.5" d="M728.5 326h80v38.594h-80z"/><path fill="#FEFECE" stroke="#a80036" stroke-width="1.5" d="M723.5 331h10v5h-10zM723.5 354.594h10v5h-10z"/><text font-family="Futura" font-size="14" lengthAdjust="spacingAndGlyphs" textLength="60" x="738.5" y="350.957">Estimated</text><path fill="#FEFECE" filter="url(#a)" stroke="#a80036" stroke-width="1.5" d="M1093 326h87v38.594h-87z"/><path fill="#FEFECE" stroke="#a80036" stroke-width="1.5" d="M1088 331h10v5h-10zM1088 354.594h10v5h-10z"/><text font-family="Futura" font-size="14" lengthAdjust="spacingAndGlyphs" textLength="67" x="1103" y="350.957">Milestones</text><path fill="#FEFECE" filter="url(#a)" stroke="#a80036" stroke-width="1.5" d="M1678 326h59v38.594h-59z"/><path fill="#FEFECE" stroke="#a80036" stroke-width="1.5" d="M1673 331h10v5h-10zM1673 354.594h10v5h-10z"/><text font-family="Futura" font-size="14" lengthAdjust="spacingAndGlyphs" textLength="39" x="1688" y="350.957">Scope</text><path fill="#FEFECE" filter="url(#a)" stroke="#a80036" stroke-width="1.5" d="M1401.5 326h84v38.594h-84z"/><path fill="#FEFECE" stroke="#a80036" stroke-width="1.5" d="M1396.5 331h10v5h-10zM1396.5 354.594h10v5h-10z"/><text font-family="Futura" font-size="14" lengthAdjust="spacingAndGlyphs" textLength="64" x="1411.5" y="350.957">Resources</text><path fill="#FEFECE" filter="url(#a)" stroke="#a80036" stroke-width="1.5" d="M1520.5 326h44v38.594h-44z"/><path fill="#FEFECE" stroke="#a80036" stroke-width="1.5" d="M1515.5 331h10v5h-10zM1515.5 354.594h10v5h-10z"/><text font-family="Futura" font-size="14" lengthAdjust="spacingAndGlyphs" textLength="24" x="1530.5" y="350.957">Risk</text><path fill="#FEFECE" filter="url(#a)" stroke="#a80036" stroke-width="1.5" d="M1322.5 326h44v38.594h-44z"/><path fill="#FEFECE" stroke="#a80036" stroke-width="1.5" d="M1317.5 331h10v5h-10zM1317.5 354.594h10v5h-10z"/><text font-family="Futura" font-size="14" lengthAdjust="spacingAndGlyphs" textLength="24" x="1332.5" y="350.957">SBS</text><path fill="#FEFECE" filter="url(#a)" stroke="#a80036" stroke-width="1.5" d="M615.5 326h78v38.594h-78z"/><path fill="#FEFECE" stroke="#a80036" stroke-width="1.5" d="M610.5 331h10v5h-10zM610.5 354.594h10v5h-10z"/><text font-family="Futura" font-size="14" lengthAdjust="spacingAndGlyphs" textLength="58" x="625.5" y="350.957">Schedule</text><path fill="#FEFECE" filter="url(#a)" stroke="#a80036" stroke-width="1.5" d="M843.5 326h54v38.594h-54z"/><path fill="#FEFECE" stroke="#a80036" stroke-width="1.5" d="M838.5 331h10v5h-10zM838.5 354.594h10v5h-10z"/><text font-family="Futura" font-size="14" lengthAdjust="spacingAndGlyphs" textLength="34" x="853.5" y="350.957">Tasks</text><path fill="#FEFECE" filter="url(#a)" stroke="#a80036" stroke-width="1.5" d="M932.5 326h42v38.594h-42z"/><path fill="#FEFECE" stroke="#a80036" stroke-width="1.5" d="M927.5 331h10v5h-10zM927.5 354.594h10v5h-10z"/><text font-family="Futura" font-size="14" lengthAdjust="spacingAndGlyphs" textLength="22" x="942.5" y="350.957">WT</text><circle cx="1911.5" cy="336" fill="#FEFECE" filter="url(#a)" stroke="#a80036" stroke-width="2" r="12"/><path fill="#A80036" stroke="#a80036" d="M1907.5 324l6-5-2 5 2 5-6-5z"/><text font-family="Futura" font-size="14" lengthAdjust="spacingAndGlyphs" textLength="64" x="1879.5" y="366.957">integrated</text><circle cx="2001.5" cy="336" fill="#FEFECE" filter="url(#a)" stroke="#a80036" stroke-width="2" r="12"/><path fill="#A80036" stroke="#a80036" d="M1997.5 324l6-5-2 5 2 5-6-5z"/><text font-family="Futura" font-size="14" lengthAdjust="spacingAndGlyphs" textLength="46" x="1978.5" y="366.957">verified</text><circle cx="2283.5" cy="336" fill="#FEFECE" filter="url(#a)" stroke="#a80036" stroke-width="2" r="12"/><path fill="#A80036" stroke="#a80036" d="M2279.5 324l6-5-2 5 2 5-6-5z"/><text font-family="Futura" font-size="14" lengthAdjust="spacingAndGlyphs" textLength="58" x="2254.5" y="366.957">accepted</text><circle cx="2139.5" cy="336" fill="#FEFECE" filter="url(#a)" stroke="#a80036" stroke-width="2" r="12"/><path fill="#A80036" stroke="#a80036" d="M2135.5 324l6-5-2 5 2 5-6-5z"/><text font-family="Futura" font-size="14" lengthAdjust="spacingAndGlyphs" textLength="159" x="2060" y="366.957">accepted, Tasks assigned</text><circle cx="2466.5" cy="336" fill="#FEFECE" filter="url(#a)" stroke="#a80036" stroke-width="2" r="12"/><path fill="#A80036" stroke="#a80036" d="M2462.5 324l6-5-2 5 2 5-6-5z"/><text font-family="Futura" font-size="14" lengthAdjust="spacingAndGlyphs" textLength="52" x="2440.5" y="366.957">updated</text><circle cx="2376.5" cy="336" fill="#FEFECE" filter="url(#a)" stroke="#a80036" stroke-width="2" r="12"/><path fill="#A80036" stroke="#a80036" d="M2372.5 324l6-5-2 5 2 5-6-5z"/><text font-family="Futura" font-size="14" lengthAdjust="spacingAndGlyphs" textLength="58" x="2347.5" y="366.957">reviewed</text><circle cx="2663.5" cy="336" fill="#FEFECE" filter="url(#a)" stroke="#a80036" stroke-width="2" r="12"/><path fill="#A80036" stroke="#a80036" d="M2659.5 324l6-5-2 5 2 5-6-5z"/><text font-family="Futura" font-size="14" lengthAdjust="spacingAndGlyphs" textLength="62" x="2632.5" y="366.957">evaluated</text><circle cx="2574.5" cy="336" fill="#FEFECE" filter="url(#a)" stroke="#a80036" stroke-width="2" r="12"/><path fill="#A80036" stroke="#a80036" d="M2570.5 324l6-5-2 5 2 5-6-5z"/><text font-family="Futura" font-size="14" lengthAdjust="spacingAndGlyphs" textLength="45" x="2552" y="366.957">agreed</text><circle cx="2832.5" cy="336" fill="#FEFECE" filter="url(#a)" stroke="#a80036" stroke-width="2" r="12"/><path fill="#A80036" stroke="#a80036" d="M2828.5 324l6-5-2 5 2 5-6-5z"/><text font-family="Futura" font-size="14" lengthAdjust="spacingAndGlyphs" textLength="32" x="2816.5" y="366.957">initial</text><circle cx="2755.5" cy="336" fill="#FEFECE" filter="url(#a)" stroke="#a80036" stroke-width="2" r="12"/><path fill="#A80036" stroke="#a80036" d="M2751.5 324l6-5-2 5 2 5-6-5z"/><text font-family="Futura" font-size="14" lengthAdjust="spacingAndGlyphs" textLength="52" x="2729.5" y="366.957">updated</text><circle cx="22.5" cy="38" fill="#FEFECE" filter="url(#a)" stroke="#a80036" stroke-width="2" r="8"/><path d="M22.5 46v27m-13-19h26m-13 19l-13 15m13-15l13 15" fill="none" filter="url(#a)" stroke="#a80036" stroke-width="2"/><text font-family="Futura" font-size="14" lengthAdjust="spacingAndGlyphs" textLength="27" x="9" y="109.957">PJM</text><circle cx="87.5" cy="38" fill="#FEFECE" filter="url(#a)" stroke="#a80036" stroke-width="2" r="8"/><path d="M87.5 46v27m-13-19h26m-13 19l-13 15m13-15l13 15" fill="none" filter="url(#a)" stroke="#a80036" stroke-width="2"/><text font-family="Futura" font-size="14" lengthAdjust="spacingAndGlyphs" textLength="22" x="76.5" y="109.957">WT</text><circle cx="152.5" cy="38" fill="#FEFECE" filter="url(#a)" stroke="#a80036" stroke-width="2" r="8"/><path d="M152.5 46v27m-13-19h26m-13 19l-13 15m13-15l13 15" fill="none" filter="url(#a)" stroke="#a80036" stroke-width="2"/><text font-family="Futura" font-size="14" lengthAdjust="spacingAndGlyphs" textLength="24" x="140.5" y="109.957">SYS</text><circle cx="22.5" cy="184" fill="#FEFECE" filter="url(#a)" stroke="#a80036" stroke-width="2" r="8"/><path d="M22.5 192v27m-13-19h26m-13 19l-13 15m13-15l13 15" fill="none" filter="url(#a)" stroke="#a80036" stroke-width="2"/><text font-family="Futura" font-size="14" lengthAdjust="spacingAndGlyphs" textLength="33" x="6" y="255.957">ACQ</text><circle cx="89.5" cy="184" fill="#FEFECE" filter="url(#a)" stroke="#a80036" stroke-width="2" r="8"/><path d="M89.5 192v27m-13-19h26m-13 19l-13 15m13-15l13 15" fill="none" filter="url(#a)" stroke="#a80036" stroke-width="2"/><text font-family="Futura" font-size="14" lengthAdjust="spacingAndGlyphs" textLength="26" x="76.5" y="255.957">DES</text><circle cx="154.5" cy="184" fill="#FEFECE" filter="url(#a)" stroke="#a80036" stroke-width="2" r="8"/><path d="M154.5 192v27m-13-19h26m-13 19l-13 15m13-15l13 15" fill="none" filter="url(#a)" stroke="#a80036" stroke-width="2"/><text font-family="Futura" font-size="14" lengthAdjust="spacingAndGlyphs" textLength="24" x="142.5" y="255.957">STK</text><path fill="#FEFECE" filter="url(#a)" stroke="#000" stroke-width="1.5" d="M227.5 50h58v41.594h-58z"/><path fill="#FEFECE" stroke="#000" stroke-width="1.5" d="M268.5 55v14h12v-8l-6-6h-6z"/><path stroke="#000" stroke-width="1.5" d="M274.5 55v6M280.5 61h-6"/><text font-family="Futura" font-size="14" lengthAdjust="spacingAndGlyphs" textLength="28" x="237.5" y="77.957">SDD</text><path fill="#FEFECE" filter="url(#a)" stroke="#000" stroke-width="1.5" d="M2600.5 50h174v41.594h-174z"/><path fill="#FEFECE" stroke="#000" stroke-width="1.5" d="M2757.5 55v14h12v-8l-6-6h-6z"/><path stroke="#000" stroke-width="1.5" d="M2763.5 55v6M2769.5 61h-6"/><text font-family="Futura" font-size="14" lengthAdjust="spacingAndGlyphs" textLength="144" x="2610.5" y="77.957">Progress Status Record</text><ellipse cx="746.259" cy="217.052" fill="#FEFECE" filter="url(#a)" rx="100.759" ry="22.552" stroke="#a80036" stroke-width="1.5"/><text font-family="Futura" font-size="14" lengthAdjust="spacingAndGlyphs" textLength="172" x="660.259" y="222.849">Define Delivery Instructions</text><ellipse cx="256.29" cy="217.148" fill="#FEFECE" filter="url(#a)" rx="51.79" ry="16.148" stroke="#a80036" stroke-width="1.5"/><text font-family="Futura" font-size="14" lengthAdjust="spacingAndGlyphs" textLength="69" x="221.79" y="222.945">Define SBS</text><ellipse cx="419.279" cy="217.056" fill="#FEFECE" filter="url(#a)" rx="75.779" ry="17.556" stroke="#a80036" stroke-width="1.5"/><text font-family="Futura" font-size="14" lengthAdjust="spacingAndGlyphs" textLength="112" x="363.279" y="222.853">Define Milestones</text><ellipse cx="941.361" cy="217.148" fill="#FEFECE" filter="url(#a)" rx="58.861" ry="16.148" stroke="#a80036" stroke-width="1.5"/><text font-family="Futura" font-size="14" lengthAdjust="spacingAndGlyphs" textLength="79" x="901.861" y="222.945">Define Tasks</text><ellipse cx="570.27" cy="217.148" fill="#FEFECE" filter="url(#a)" rx="39.77" ry="16.148" stroke="#a80036" stroke-width="1.5"/><text font-family="Futura" font-size="14" lengthAdjust="spacingAndGlyphs" textLength="52" x="544.27" y="222.945">Estimate</text><ellipse cx="1451.439" cy="216.788" fill="#FEFECE" filter="url(#a)" rx="76.939" ry="17.788" stroke="#a80036" stroke-width="1.5"/><text font-family="Futura" font-size="14" lengthAdjust="spacingAndGlyphs" textLength="115" x="1393.939" y="222.585">Identify Resources</text><ellipse cx="1086.376" cy="217.148" fill="#FEFECE" filter="url(#a)" rx="50.376" ry="16.148" stroke="#a80036" stroke-width="1.5"/><text font-family="Futura" font-size="14" lengthAdjust="spacingAndGlyphs" textLength="67" x="1052.876" y="222.945">Define WT</text><ellipse cx="771.319" cy="452.864" fill="#FEFECE" filter="url(#a)" rx="69.819" ry="16.364" stroke="#a80036" stroke-width="1.5"/><text font-family="Futura" font-size="14" lengthAdjust="spacingAndGlyphs" textLength="96" x="723.319" y="458.661">Schedule Tasks</text><ellipse cx="941.397" cy="453.148" fill="#FEFECE" filter="url(#a)" rx="62.397" ry="16.148" stroke="#a80036" stroke-width="1.5"/><text font-family="Futura" font-size="14" lengthAdjust="spacingAndGlyphs" textLength="84" x="899.397" y="458.945">Estimate Cost</text><ellipse cx="1136.325" cy="452.765" fill="#FEFECE" filter="url(#a)" rx="96.825" ry="21.765" stroke="#a80036" stroke-width="1.5"/><text font-family="Futura" font-size="14" lengthAdjust="spacingAndGlyphs" textLength="163" x="1054.825" y="458.562">Identify Risk Management</text><ellipse cx="1823.442" cy="216.788" fill="#FEFECE" filter="url(#a)" rx="99.442" ry="22.288" stroke="#a80036" stroke-width="1.5"/><text font-family="Futura" font-size="14" lengthAdjust="spacingAndGlyphs" textLength="169" x="1738.942" y="222.585">Identify Disposal Approach</text><ellipse cx="1255.318" cy="217.064" fill="#FEFECE" filter="url(#a)" rx="83.318" ry="19.064" stroke="#a80036" stroke-width="1.5"/><text font-family="Futura" font-size="14" lengthAdjust="spacingAndGlyphs" textLength="131" x="1189.818" y="222.861">Identify CM Strategy</text><ellipse cx="1626.397" cy="217.148" fill="#FEFECE" filter="url(#a)" rx="62.397" ry="16.148" stroke="#a80036" stroke-width="1.5"/><text font-family="Futura" font-size="14" lengthAdjust="spacingAndGlyphs" textLength="84" x="1584.397" y="222.945">Define Scope</text><ellipse cx="1335.447" cy="453.148" fill="#FEFECE" filter="url(#a)" rx="57.447" ry="16.148" stroke="#a80036" stroke-width="1.5"/><text font-family="Futura" font-size="14" lengthAdjust="spacingAndGlyphs" textLength="77" x="1296.947" y="458.945">Integrate PP</text><ellipse cx="2001.305" cy="217.148" fill="#FEFECE" filter="url(#a)" rx="43.305" ry="16.148" stroke="#a80036" stroke-width="1.5"/><text font-family="Futura" font-size="14" lengthAdjust="spacingAndGlyphs" textLength="57" x="1972.805" y="222.945">Verify PP</text><ellipse cx="2149.461" cy="216.792" fill="#FEFECE" filter="url(#a)" rx="69.461" ry="16.292" stroke="#a80036" stroke-width="1.5"/><text font-family="Futura" font-size="14" lengthAdjust="spacingAndGlyphs" textLength="95" x="2101.961" y="222.589">PP Acceptance</text><ellipse cx="2313.361" cy="217.148" fill="#FEFECE" filter="url(#a)" rx="58.861" ry="16.148" stroke="#a80036" stroke-width="1.5"/><text font-family="Futura" font-size="14" lengthAdjust="spacingAndGlyphs" textLength="79" x="2273.861" y="222.945">Assign Tasks</text><ellipse cx="2687.282" cy="217.056" fill="#FEFECE" filter="url(#a)" rx="88.282" ry="20.056" stroke="#a80036" stroke-width="1.5"/><text font-family="Futura" font-size="14" lengthAdjust="spacingAndGlyphs" textLength="143" x="2615.782" y="222.853">Conduct STK Meetings</text><ellipse cx="2485.612" cy="217.022" fill="#FEFECE" filter="url(#a)" rx="78.112" ry="18.022" stroke="#a80036" stroke-width="1.5"/><text font-family="Futura" font-size="14" lengthAdjust="spacingAndGlyphs" textLength="118" x="2426.612" y="222.819">Revise Project Plan</text><path d="M1429.834 96.606c-7.057 6.747-15.396 13.282-24.334 17.394-219.375 100.924-304.81 5.254-540 60-22.382 5.21-46.343 13.343-66.856 21.139" fill="none" stroke="#a80036" stroke-width="2"/><path fill="#A80036" stroke="#a80036" d="M793.78 197.006l9.836.51-5.168-2.302 2.3-5.167-6.968 6.959z"/><path d="M793.164 236.97c21.625 8.442 47.897 17.567 72.336 23.03 144.628 32.33 198.016-32.332 332 31 14.586 6.895 27.458 19.466 36.973 30.798" fill="none" stroke="#a80036" stroke-width="2"/><path fill="#A80036" stroke="#a80036" d="M1237.824 325.904l-2.591-9.502-.57 5.628-5.628-.57 8.789 4.444z"/><path d="M256.5 92.23v103.217" fill="none" stroke="#a80036" stroke-width="2"/><path fill="#A80036" stroke="#a80036" d="M256.5 200.714l4-9-4 4-4-4 4 9z"/><path d="M274.798 232.167c13.198 9.951 31.927 22.139 50.702 27.833 104.254 31.618 883.91-20.334 980 31 12.412 6.63 21.8 19.16 28.253 30.536" fill="none" stroke="#a80036" stroke-width="2"/><path fill="#A80036" stroke="#a80036" d="M1336.167 325.988l-.774-9.818-1.61 5.423-5.422-1.61 7.806 6.005z"/><path d="M1336.007 325.75c-6.442-12.33-16.578-27.242-30.507-34.75-77.62-41.84-707.268-10.376-793-31-21.025-5.058-43.054-15.01-60.392-24.065" fill="none" stroke="#a80036" stroke-width="2"/><path fill="#A80036" stroke="#a80036" d="M447.347 233.409l6.076 7.751-1.66-5.408 5.409-1.66-9.825-.683z"/><path d="M1355.36 72.24C1251.873 80.3 680.49 126.383 512.5 174c-20.493 5.809-42.161 15.591-59.423 24.36" fill="none" stroke="#a80036" stroke-width="2"/><path fill="#A80036" stroke="#a80036" d="M448.33 200.801l9.833-.56-5.387-1.727 1.728-5.387-6.174 7.674z"/><path d="M447.378 233.282c17.96 9.618 42.165 21.001 65.122 26.718 121.588 30.277 447.208-16.88 563 31 16.153 6.68 30.875 19.535 41.808 31.083" fill="none" stroke="#a80036" stroke-width="2"/><path fill="#A80036" stroke="#a80036" d="M1120.867 325.939l-3.166-9.327-.226 5.653-5.652-.226 9.043 3.9z"/><path d="M1429.246 96.813c-6.956 6.582-15.095 12.979-23.746 17.187-156.518 76.14-222.425 3.342-387 60-17.843 6.143-36.353 16.338-50.752 25.26" fill="none" stroke="#a80036" stroke-width="2"/><path fill="#A80036" stroke="#a80036" d="M963.417 201.981l9.748-1.402-5.515-1.258 1.259-5.515-5.492 8.175z"/><path d="M1335.688 325.793c-6.521-12.148-16.625-26.871-30.188-34.793-110.784-64.708-164.757 7.949-287-31-18.113-5.771-36.768-16.058-51.179-25.124" fill="none" stroke="#a80036" stroke-width="2"/><path fill="#A80036" stroke="#a80036" d="M962.99 232.108l5.43 8.217-1.217-5.524 5.525-1.217-9.738-1.476z"/><path d="M932.651 233.015l-48.758 88.246" fill="none" stroke="#a80036" stroke-width="2"/><path fill="#A80036" stroke="#a80036" d="M881.321 325.915l7.854-5.943-5.435 1.566-1.567-5.435-.852 9.812z"/><path d="M859.832 325.983c-7.655-12.07-19.114-26.777-33.332-34.983-77.145-44.525-115.843 3.41-198-31-13.881-5.814-27.5-15.633-38.048-24.42" fill="none" stroke="#a80036" stroke-width="2"/><path fill="#A80036" stroke="#a80036" d="M586.42 232.146l4.259 8.88-.452-5.639 5.638-.452-9.445-2.79z"/><path d="M587.407 231.526c11.135 9.05 26.334 20.455 41.093 28.474 34.6 18.8 49.641 10.076 83 31 13.429 8.423 26.37 20.375 36.518 30.941" fill="none" stroke="#a80036" stroke-width="2"/><path fill="#A80036" stroke="#a80036" d="M751.626 325.762l-3.27-9.29-.163 5.655-5.654-.162 9.087 3.797z"/><path d="M1451.5 96.766v97.041" fill="none" stroke="#a80036" stroke-width="2"/><path fill="#A80036" stroke="#a80036" d="M1451.5 198.865l4-9-4 4-4-4 4 9z"/><path d="M1450.37 235.138l-5.321 85.49" fill="none" stroke="#a80036" stroke-width="2"/><path fill="#A80036" stroke="#a80036" d="M1444.728 325.768l4.552-8.734-4.24 3.744-3.745-4.241 3.433 9.231z"/><path d="M1427.833 325.856c-10.824-12.122-26.3-26.84-43.333-34.856-93.328-43.922-133.069 4.264-230-31-16.157-5.878-32.496-16.044-45.109-25.016" fill="none" stroke="#a80036" stroke-width="2"/><path fill="#A80036" stroke="#a80036" d="M1105.263 231.995l4.944 8.518-.894-5.586 5.585-.894-9.635-2.038z"/><path d="M1064.534 231.596c-20.028 13.908-49.797 36.125-72.034 59.404-8.86 9.276-17.322 20.67-24.086 30.638" fill="none" stroke="#a80036" stroke-width="2"/><path fill="#A80036" stroke="#a80036" d="M965.623 325.812l8.328-5.258-5.549 1.102-1.102-5.549-1.677 9.705z"/><path d="M852.342 365.217l-62.274 67.621" fill="none" stroke="#a80036" stroke-width="2"/><path fill="#A80036" stroke="#a80036" d="M786.627 436.574l9.04-3.91-5.653.232-.232-5.652-3.155 9.33z"/><path d="M769.05 365.217l1.837 65.807" fill="none" stroke="#a80036" stroke-width="2"/><path fill="#A80036" stroke="#a80036" d="M771.032 436.233l3.747-9.109-3.886 4.11-4.11-3.886 4.25 8.885z"/><path d="M932.956 365.258c-5.458 4.78-11.498 9.678-17.456 13.742-33.723 23.003-75.528 43.722-105.392 57.346" fill="none" stroke="#a80036" stroke-width="2"/><path fill="#A80036" stroke="#a80036" d="M805.421 438.47l9.849-.072-5.295-1.992 1.992-5.294-6.546 7.359z"/><path d="M753.992 436.913l-74.246-68.217" fill="none" stroke="#a80036" stroke-width="2"/><path fill="#A80036" stroke="#a80036" d="M675.96 365.217l3.92 9.035-.239-5.652 5.652-.24-9.333-3.143z"/><path d="M684.903 365.032c8.419 4.944 17.694 9.978 26.597 13.968 33.07 14.82 126.275 43.345 183.375 60.324" fill="none" stroke="#a80036" stroke-width="2"/><path fill="#A80036" stroke="#a80036" d="M899.943 440.829l-7.488-6.396 2.695 4.973-4.973 2.696 9.766-1.273z"/><path d="M1413.902 365.163c-9.101 5.248-19.371 10.406-29.402 13.837-153.794 52.599-202.828 19.081-362 52-11.487 2.376-23.76 5.433-35.187 8.508" fill="none" stroke="#a80036" stroke-width="2"/><path fill="#A80036" stroke="#a80036" d="M982.472 440.825l9.734 1.497-4.91-2.81 2.81-4.91-7.634 6.223z"/><path d="M954.98 437.25l58.21-68.017" fill="none" stroke="#a80036" stroke-width="2"/><path fill="#A80036" stroke="#a80036" d="M1016.626 365.217l-8.891 4.237 5.64-.438.438 5.64 2.813-9.439z"/><path d="M1052.392 365.217l59.645 62.251" fill="none" stroke="#a80036" stroke-width="2"/><path fill="#A80036" stroke="#a80036" d="M1115.602 431.19l-3.338-9.267-.121 5.656-5.656-.121 9.115 3.731z"/><path d="M1230.407 365.217l-67.245 62.86" fill="none" stroke="#a80036" stroke-width="2"/><path fill="#A80036" stroke="#a80036" d="M1159.431 431.565l9.306-3.224-5.653-.191.19-5.654-3.843 9.069z"/><path d="M798.67 365.128c8.722 5.06 18.431 10.128 27.83 13.872 41.749 16.629 155.323 41.948 232.768 58.234" fill="none" stroke="#a80036" stroke-width="2"/><path fill="#A80036" stroke="#a80036" d="M1064.315 438.294l-7.986-5.764 3.093 4.737-4.736 3.093 9.63-2.066z"/><path d="M1136.5 365.217v60.44" fill="none" stroke="#a80036" stroke-width="2"/><path fill="#A80036" stroke="#a80036" d="M1136.5 430.812l4-9-4 4-4-4 4 9z"/><path d="M1412.021 365.115c-8.714 4.944-18.312 9.957-27.521 13.885-57.138 24.373-124.89 44.003-175.129 56.904" fill="none" stroke="#a80036" stroke-width="2"/><path fill="#A80036" stroke="#a80036" d="M1204.258 437.21l9.71 1.649-4.865-2.886 2.886-4.865-7.731 6.102z"/><path d="M1323.938 365.143c-5.71 4.888-12.09 9.867-18.438 13.857-34.892 21.934-77.403 40.513-111.06 53.57" fill="none" stroke="#a80036" stroke-width="2"/><path fill="#A80036" stroke="#a80036" d="M1189.54 434.455l9.837.5-5.17-2.296 2.296-5.17-6.963 6.966z"/><path d="M683.072 365.037c8.792 5.244 18.72 10.433 28.428 13.963 131.292 47.742 172.495 27.318 310 52a4260.864 4260.864 0 0135.976 6.636" fill="none" stroke="#a80036" stroke-width="2"/><path fill="#A80036" stroke="#a80036" d="M1062.62 438.608l-8.1-5.602 3.187 4.674-4.674 3.187 9.587-2.259z"/><path d="M893.856 365.066c6.706 5.001 14.22 10.055 21.644 13.934 47.652 24.9 105.378 43.888 149.88 56.393" fill="none" stroke="#a80036" stroke-width="2"/><path fill="#A80036" stroke="#a80036" d="M1070.466 436.81l-7.596-6.27 2.78 4.928-4.927 2.78 9.743-1.438z"/><path d="M974.643 365.228c5.6 4.781 11.784 9.687 17.857 13.772 29.873 20.096 65.902 38.608 94.449 52.09" fill="none" stroke="#a80036" stroke-width="2"/><path fill="#A80036" stroke="#a80036" d="M1091.825 433.379l-6.447-7.445 1.921 5.32-5.32 1.922 9.846.203z"/><path d="M1211.288 438.922c103.46-19.621 279.09-53.513 292.212-59.922 5.64-2.754 11.123-6.523 16.11-10.54" fill="none" stroke="#a80036" stroke-width="2"/><path fill="#A80036" stroke="#a80036" d="M1523.677 365.043l-9.464 2.728 5.636.488-.489 5.636 4.317-8.852z"/><path d="M1480.69 82.456l288.257 113.133" fill="none" stroke="#a80036" stroke-width="2"/><path fill="#A80036" stroke="#a80036" d="M1773.644 197.433l-6.916-7.012 2.262 5.185-5.185 2.262 9.84-.435z"/><path d="M1820.853 239.677l-9.48 81.203" fill="none" stroke="#a80036" stroke-width="2"/><path fill="#A80036" stroke="#a80036" d="M1810.777 325.99l5.017-8.475-4.437 3.509-3.51-4.437 2.93 9.403z"/><path d="M1330.728 325.616l-59.054-85.264" fill="none" stroke="#a80036" stroke-width="2"/><path fill="#A80036" stroke="#a80036" d="M1268.632 235.96l1.836 9.677 1.011-5.566 5.566 1.01-8.413-5.12z"/><path d="M1290.561 234.476c19.31 8.93 43.96 19.215 66.939 25.524 97.343 26.724 138.59-21.185 225 31 11.765 7.105 20.976 19.257 27.485 30.285" fill="none" stroke="#a80036" stroke-width="2"/><path fill="#A80036" stroke="#a80036" d="M1612.61 325.925l-.95-9.803-1.512 5.45-5.45-1.512 7.911 5.865z"/><path d="M1480.791 95.437l123.023 102.636" fill="none" stroke="#a80036" stroke-width="2"/><path fill="#A80036" stroke="#a80036" d="M1607.894 201.477l-4.349-8.837.51 5.634-5.635.509 9.474 2.694z"/><path d="M1636.595 233.015l55.829 88.567" fill="none" stroke="#a80036" stroke-width="2"/><path fill="#A80036" stroke="#a80036" d="M1695.155 325.915l-1.416-9.747-1.25 5.517-5.518-1.25 8.184 5.48z"/><path d="M1601.657 365.326c-5.81 5.002-12.422 9.991-19.157 13.674-61.83 33.809-141.018 54.02-192.836 64.572" fill="none" stroke="#a80036" stroke-width="2"/><path fill="#A80036" stroke="#a80036" d="M1384.736 444.563l9.613 2.147-4.71-3.133 3.132-4.71-8.034 5.696z"/><path d="M1055.03 365.342c6.258 5.002 13.338 9.988 20.47 13.658 19.077 9.818 143.56 43.367 213.131 61.735" fill="none" stroke="#a80036" stroke-width="2"/><path fill="#A80036" stroke="#a80036" d="M1293.543 442.03l-7.681-6.163 2.847 4.888-4.888 2.848 9.722-1.572z"/><path d="M1266.907 365.217l52.993 67.818" fill="none" stroke="#a80036" stroke-width="2"/><path fill="#A80036" stroke="#a80036" d="M1323.193 437.25l-2.39-9.555-.689 5.615-5.614-.69 8.693 4.63z"/><path d="M1781.53 365.019c-8.327 5.244-17.755 10.436-27.03 13.981-121.366 46.382-273.751 63.961-357.24 70.422" fill="none" stroke="#a80036" stroke-width="2"/><path fill="#A80036" stroke="#a80036" d="M1391.862 449.831l9.277 3.308-4.291-3.686 3.685-4.291-8.671 4.67z"/><path d="M797.217 365.127c9.018 5.313 19.248 10.517 29.283 13.873 180.471 60.36 238.09 16.257 425 52 12.81 2.45 26.556 5.756 39.141 9.06" fill="none" stroke="#a80036" stroke-width="2"/><path fill="#A80036" stroke="#a80036" d="M1295.587 441.375l-7.671-6.177 2.839 4.893-4.893 2.839 9.725-1.555z"/><path d="M1173 365.217l131.435 71.002" fill="none" stroke="#a80036" stroke-width="2"/><path fill="#A80036" stroke="#a80036" d="M1309.084 438.73l-6.017-7.797 1.618 5.42-5.42 1.619 9.819.758z"/><path d="M1683.738 365.184c-7.124 5.122-15.192 10.208-23.238 13.816-87.998 39.462-199.16 58.906-266.032 67.671" fill="none" stroke="#a80036" stroke-width="2"/><path fill="#A80036" stroke="#a80036" d="M1389.333 447.335l9.439 2.814-4.48-3.455 3.455-4.48-8.414 5.12z"/><path d="M1423.691 365.217l-68.962 68.643" fill="none" stroke="#a80036" stroke-width="2"/><path fill="#A80036" stroke="#a80036" d="M1350.988 437.584l9.2-3.515-5.656-.013.013-5.657-3.557 9.185z"/><path d="M1521.932 365.133c-5.71 4.889-12.089 9.87-18.432 13.867-40.606 25.588-91.574 46.678-126.662 59.709" fill="none" stroke="#a80036" stroke-width="2"/><path fill="#A80036" stroke="#a80036" d="M1371.78 440.572l9.828.642-5.136-2.37 2.37-5.137-7.062 6.865z"/><path d="M1342.85 365.217l-5.568 66.494" fill="none" stroke="#a80036" stroke-width="2"/><path fill="#A80036" stroke="#a80036" d="M1336.847 436.913l4.737-8.634-4.32 3.652-3.652-4.32 3.235 9.302z"/><path d="M682.34 365.118c8.928 5.38 19.115 10.624 29.16 13.882 229.346 74.395 302.618 9.765 540 52 12.972 2.308 26.877 5.604 39.566 8.945" fill="none" stroke="#a80036" stroke-width="2"/><path fill="#A80036" stroke="#a80036" d="M1296.05 441.276l-7.663-6.187 2.832 4.897-4.896 2.833 9.727-1.543z"/><path d="M892.527 365.217c6.926 5.25 14.888 10.396 22.973 13.783 139.374 58.391 188.048 21.261 336 52 12.64 2.626 26.222 5.957 38.702 9.227" fill="none" stroke="#a80036" stroke-width="2"/><path fill="#A80036" stroke="#a80036" d="M1295.11 441.524l-7.68-6.167 2.845 4.89-4.889 2.844 9.723-1.567z"/><path d="M972.321 365.047c5.996 5.244 12.96 10.43 20.179 13.953 105.52 51.481 144.608 25.56 259 52 12.21 2.822 25.346 6.13 37.521 9.313" fill="none" stroke="#a80036" stroke-width="2"/><path fill="#A80036" stroke="#a80036" d="M1294.175 441.667l-7.688-6.156 2.852 4.885-4.885 2.852 9.72-1.58z"/><path d="M1390.818 448.452c117.102-10.147 386.284-36.37 471.682-69.452 4.234-1.64 8.462-3.708 12.561-6.008" fill="none" stroke="#a80036" stroke-width="2"/><path fill="#A80036" stroke="#a80036" d="M1879.452 370.414l-9.786 1.107 5.474 1.424-1.425 5.475 5.737-8.006z"/><path d="M1929.549 319.73l58.113-82.973" fill="none" stroke="#a80036" stroke-width="2"/><path fill="#A80036" stroke="#a80036" d="M1990.644 232.5l-8.44 5.077 5.572-.982.981 5.572 1.887-9.667z"/><path d="M2001.5 233.015v81.938" fill="none" stroke="#a80036" stroke-width="2"/><path fill="#A80036" stroke="#a80036" d="M2001.5 319.957l4-9-4 4-4-4 4 9z"/><path d="M2018.11 319.975c6.917-9.645 15.425-20.361 24.39-28.975 22.903-22.006 52.93-42.165 75.345-55.866" fill="none" stroke="#a80036" stroke-width="2"/><path fill="#A80036" stroke="#a80036" d="M2122.222 232.482l-9.77 1.244 5.494 1.347-1.347 5.494 5.623-8.085z"/><path d="M1480.53 72.881c89.02 6.4 365.253 30.975 581.97 101.119 19.487 6.307 40.086 16.321 56.346 25.099" fill="none" stroke="#a80036" stroke-width="2"/><path fill="#A80036" stroke="#a80036" d="M2123.312 201.538l-5.982-7.824 1.594 5.428-5.428 1.593 9.816.803z"/><path d="M2169.964 232.915c18.139 14.45 45.01 36.706 66.536 58.085 7.77 7.718 15.73 16.54 22.838 24.806" fill="none" stroke="#a80036" stroke-width="2"/><path fill="#A80036" stroke="#a80036" d="M2262.755 319.811l-2.797-9.443-.448 5.639-5.64-.448 8.885 4.252z"/><path d="M2289.463 319.957l19.1-81.813" fill="none" stroke="#a80036" stroke-width="2"/><path fill="#A80036" stroke="#a80036" d="M2309.761 233.015l-5.941 7.855 4.804-2.986 2.986 4.805-1.849-9.674z"/><path d="M2292.857 232.245l-114.398 84.484" fill="none" stroke="#a80036" stroke-width="2"/><path fill="#A80036" stroke="#a80036" d="M2174.22 319.86l9.616-2.13-5.594-.841.841-5.594-4.863 8.564z"/><path d="M2820.157 320c-5.477-9.75-12.531-20.548-20.657-29-20.669-21.5-48.66-39.996-71.489-53.12" fill="none" stroke="#a80036" stroke-width="2"/><path fill="#A80036" stroke="#a80036" d="M2723.518 235.328l5.85 7.924-1.502-5.454 5.454-1.502-9.802-.968z"/><path d="M2299.246 319.996c8-10.738 18.693-22.28 31.254-28.996 99.123-53 142.207-2.741 251-31 21.441-5.57 44.322-14.45 63.318-22.697" fill="none" stroke="#a80036" stroke-width="2"/><path fill="#A80036" stroke="#a80036" d="M2649.56 235.222l-9.849-.047 5.27 2.056-2.055 5.27 6.634-7.28z"/><path d="M2687.5 92.23v99.405" fill="none" stroke="#a80036" stroke-width="2"/><path fill="#A80036" stroke="#a80036" d="M2687.5 196.686l4-9-4 4-4-4 4 9z"/><path d="M2668.3 319.805l14.482-77.543" fill="none" stroke="#a80036" stroke-width="2"/><path fill="#A80036" stroke="#a80036" d="M2683.75 237.078l-5.585 8.113 4.667-3.198 3.197 4.667-2.279-9.582z"/><path d="M2666.92 236.763c-14.805 14.543-34.977 35.043-51.42 54.237-6.564 7.663-13.302 16.263-19.37 24.328" fill="none" stroke="#a80036" stroke-width="2"/><path fill="#A80036" stroke="#a80036" d="M2592.834 319.744l8.59-4.819-5.599.813-.812-5.599-2.18 9.605z"/><path d="M2645.245 234.622c-31.242 13.725-74.327 34.134-109.745 56.378-13.356 8.389-27.17 18.883-38.898 28.418" fill="none" stroke="#a80036" stroke-width="2"/><path fill="#A80036" stroke="#a80036" d="M2492.708 322.61l9.496-2.613-5.629-.557.557-5.63-4.424 8.8z"/><path d="M2698.125 237.078l41.292 78.03" fill="none" stroke="#a80036" stroke-width="2"/><path fill="#A80036" stroke="#a80036" d="M2741.903 319.805l-.674-9.826-1.665 5.407-5.407-1.665 7.746 6.084z"/><path d="M2470.282 319.92l11.771-79.609" fill="none" stroke="#a80036" stroke-width="2"/><path fill="#A80036" stroke="#a80036" d="M2482.818 235.138l-5.274 8.318 4.543-3.371 3.372 4.542-2.64-9.489z"/><path d="M2470.344 234.867l-68.716 81.01" fill="none" stroke="#a80036" stroke-width="2"/><path fill="#A80036" stroke="#a80036" d="M2398.296 319.805l8.872-4.276-5.638.463-.463-5.638-2.771 9.45z"/></svg>