<svg xmlns="http://www.w3.org/2000/svg" height="137" preserveAspectRatio="none" style="width:410px;height:137px" width="410"><defs><filter height="300%" id="a" width="300%" x="-1" y="-1"><feGaussianBlur result="blurOut" stdDeviation="2"/><feColorMatrix in="blurOut" result="blurOut2" values="0 0 0 0 0 0 0 0 0 0 0 0 0 0 0 0 0 0 .4 0"/><feOffset dx="4" dy="4" in="blurOut2" result="blurOut3"/><feBlend in="SourceGraphic" in2="blurOut3"/></filter></defs><circle cx="16" cy="67" filter="url(#a)" r="10"/><rect fill="#FEFECE" filter="url(#a)" height="70.469" rx="12.5" ry="12.5" width="69" x="111.5" y="32" stroke="#a80036" stroke-width="1.5"/><path stroke="#a80036" stroke-width="1.5" d="M111.5 60.594h69"/><text font-family="Futura" font-size="14" lengthAdjust="spacingAndGlyphs" textLength="49" x="121.5" y="51.957">initiated</text><text font-family="Futura" font-size="12" lengthAdjust="spacingAndGlyphs" textLength="21" x="116.5" y="78.414">SYS</text><text font-family="Futura" font-size="12" lengthAdjust="spacingAndGlyphs" textLength="23" x="116.5" y="94.352">DES</text><rect fill="#FEFECE" filter="url(#a)" height="118.281" rx="12.5" ry="12.5" width="77" x="321.5" y="8" stroke="#a80036" stroke-width="1.5"/><path stroke="#a80036" stroke-width="1.5" d="M321.5 36.594h77"/><text font-family="Futura" font-size="14" lengthAdjust="spacingAndGlyphs" textLength="57" x="331.5" y="27.957">validated</text><text font-family="Futura" font-size="12" lengthAdjust="spacingAndGlyphs" textLength="23" x="326.5" y="54.414">PJM</text><text font-family="Futura" font-size="12" lengthAdjust="spacingAndGlyphs" textLength="21" x="326.5" y="70.352">SYS</text><text font-family="Futura" font-size="12" lengthAdjust="spacingAndGlyphs" textLength="23" x="326.5" y="86.289">DES</text><text font-family="Futura" font-size="12" lengthAdjust="spacingAndGlyphs" textLength="21" x="326.5" y="102.227">STK</text><text font-family="Futura" font-size="12" lengthAdjust="spacingAndGlyphs" textLength="28" x="326.5" y="118.164">ACQ</text><path d="M26.2 67h80.167" fill="none" stroke="#a80036"/><path fill="#A80036" stroke="#a80036" d="M111.477 67l-9-4 4 4-4 4 9-4z"/><text font-family="Futura" font-size="13" lengthAdjust="spacingAndGlyphs" textLength="49" x="44.25" y="59.889">Develop</text><path d="M180.86 67h135.035" fill="none" stroke="#a80036"/><path fill="#A80036" stroke="#a80036" d="M321.17 67l-9-4 4 4-4 4 9-4z"/><text font-family="Futura" font-size="13" lengthAdjust="spacingAndGlyphs" textLength="104" x="199" y="59.889">Verify consistency</text></svg>