<?xml version="1.0" encoding="UTF-8" standalone="no"?><svg xmlns="http://www.w3.org/2000/svg" xmlns:xlink="http://www.w3.org/1999/xlink" contentScriptType="application/ecmascript" contentStyleType="text/css" height="390px" preserveAspectRatio="none" style="width:648px;height:390px;" version="1.1" viewBox="0 0 648 390" width="648px" zoomAndPan="magnify"><defs><filter height="300%" id="fhuzg0angahgs" width="300%" x="-1" y="-1"><feGaussianBlur result="blurOut" stdDeviation="2.0"/><feColorMatrix in="blurOut" result="blurOut2" type="matrix" values="0 0 0 0 0 0 0 0 0 0 0 0 0 0 0 0 0 0 .4 0"/><feOffset dx="4.0" dy="4.0" in="blurOut2" result="blurOut3"/><feBlend in="SourceGraphic" in2="blurOut3" mode="normal"/></filter></defs><g><!--cluster SERS--><rect fill="#FFFFFF" filter="url(#fhuzg0angahgs)" height="88" style="stroke: #000000; stroke-width: 1.5;" width="158" x="398" y="291"/><polygon fill="#FFFFFF" points="539,296,539,310,551,310,551,302,545,296,539,296" style="stroke: #000000; stroke-width: 1.5;"/><line style="stroke: #000000; stroke-width: 1.5;" x1="545" x2="545" y1="296" y2="302"/><line style="stroke: #000000; stroke-width: 1.5;" x1="551" x2="545" y1="302" y2="302"/><text fill="#000000" font-family="Futura" font-size="14" font-weight="bold" lengthAdjust="spacingAndGlyphs" textLength="36" x="459" y="307.966">SERS</text><!--cluster SysRS--><rect fill="#FFFFFF" filter="url(#fhuzg0angahgs)" height="88" style="stroke: #000000; stroke-width: 1.5;" width="147" x="406" y="16.5"/><polygon fill="#FFFFFF" points="536,21.5,536,35.5,548,35.5,548,27.5,542,21.5,536,21.5" style="stroke: #000000; stroke-width: 1.5;"/><line style="stroke: #000000; stroke-width: 1.5;" x1="542" x2="542" y1="21.5" y2="27.5"/><line style="stroke: #000000; stroke-width: 1.5;" x1="548" x2="542" y1="27.5" y2="27.5"/><text fill="#000000" font-family="Futura" font-size="14" font-weight="bold" lengthAdjust="spacingAndGlyphs" textLength="45" x="457" y="33.466">SysRS</text><!--entity PROD_SERS_INITIATED--><ellipse cx="431" cy="336" fill="#FEFECE" filter="url(#fhuzg0angahgs)" rx="12" ry="12" style="stroke: #A80036; stroke-width: 2.0;"/><polygon fill="#A80036" points="427,324,433,319,431,324,433,329,427,324" style="stroke: #A80036; stroke-width: 1.0;"/><text fill="#000000" font-family="Futura" font-size="14" lengthAdjust="spacingAndGlyphs" textLength="49" x="406.5" y="366.957">initiated</text><!--entity PROD_SERS_VALIDATED--><ellipse cx="519" cy="336" fill="#FEFECE" filter="url(#fhuzg0angahgs)" rx="12" ry="12" style="stroke: #A80036; stroke-width: 2.0;"/><polygon fill="#A80036" points="515,324,521,319,519,324,521,329,515,324" style="stroke: #A80036; stroke-width: 1.0;"/><text fill="#000000" font-family="Futura" font-size="14" lengthAdjust="spacingAndGlyphs" textLength="57" x="490.5" y="366.957">validated</text><!--entity PROD_SYSRS_INITIATED--><ellipse cx="439" cy="61.5" fill="#FEFECE" filter="url(#fhuzg0angahgs)" rx="12" ry="12" style="stroke: #A80036; stroke-width: 2.0;"/><polygon fill="#A80036" points="435,49.5,441,44.5,439,49.5,441,54.5,435,49.5" style="stroke: #A80036; stroke-width: 1.0;"/><text fill="#000000" font-family="Futura" font-size="14" lengthAdjust="spacingAndGlyphs" textLength="49" x="414.5" y="92.457">initiated</text><!--entity PROD_SYSRS_VERIFIED--><ellipse cx="522" cy="61.5" fill="#FEFECE" filter="url(#fhuzg0angahgs)" rx="12" ry="12" style="stroke: #A80036; stroke-width: 2.0;"/><polygon fill="#A80036" points="518,49.5,524,44.5,522,49.5,524,54.5,518,49.5" style="stroke: #A80036; stroke-width: 1.0;"/><text fill="#000000" font-family="Futura" font-size="14" lengthAdjust="spacingAndGlyphs" textLength="46" x="499" y="92.457">verified</text><!--entity SYS--><ellipse cx="21" cy="38" fill="#FEFECE" filter="url(#fhuzg0angahgs)" rx="8" ry="8" style="stroke: #A80036; stroke-width: 2.0;"/><path d="M21,46 L21,73 M8,54 L34,54 M21,73 L8,88 M21,73 L34,88 " fill="none" filter="url(#fhuzg0angahgs)" style="stroke: #A80036; stroke-width: 2.0;"/><text fill="#000000" font-family="Futura" font-size="14" lengthAdjust="spacingAndGlyphs" textLength="24" x="9" y="109.957">SYS</text><!--entity DES--><ellipse cx="86" cy="38" fill="#FEFECE" filter="url(#fhuzg0angahgs)" rx="8" ry="8" style="stroke: #A80036; stroke-width: 2.0;"/><path d="M86,46 L86,73 M73,54 L99,54 M86,73 L73,88 M86,73 L99,88 " fill="none" filter="url(#fhuzg0angahgs)" style="stroke: #A80036; stroke-width: 2.0;"/><text fill="#000000" font-family="Futura" font-size="14" lengthAdjust="spacingAndGlyphs" textLength="26" x="73" y="109.957">DES</text><!--entity PJM--><ellipse cx="21" cy="184" fill="#FEFECE" filter="url(#fhuzg0angahgs)" rx="8" ry="8" style="stroke: #A80036; stroke-width: 2.0;"/><path d="M21,192 L21,219 M8,200 L34,200 M21,219 L8,234 M21,219 L34,234 " fill="none" filter="url(#fhuzg0angahgs)" style="stroke: #A80036; stroke-width: 2.0;"/><text fill="#000000" font-family="Futura" font-size="14" lengthAdjust="spacingAndGlyphs" textLength="27" x="7.5" y="255.957">PJM</text><!--entity WT--><ellipse cx="86" cy="184" fill="#FEFECE" filter="url(#fhuzg0angahgs)" rx="8" ry="8" style="stroke: #A80036; stroke-width: 2.0;"/><path d="M86,192 L86,219 M73,200 L99,200 M86,219 L73,234 M86,219 L99,234 " fill="none" filter="url(#fhuzg0angahgs)" style="stroke: #A80036; stroke-width: 2.0;"/><text fill="#000000" font-family="Futura" font-size="14" lengthAdjust="spacingAndGlyphs" textLength="22" x="75" y="255.957">WT</text><!--entity PROD_SDD--><rect fill="#FEFECE" filter="url(#fhuzg0angahgs)" height="41.5938" style="stroke: #000000; stroke-width: 1.5;" width="58" x="238" y="50"/><polygon fill="#FEFECE" points="279,55,279,69,291,69,291,61,285,55,279,55" style="stroke: #000000; stroke-width: 1.5;"/><line style="stroke: #000000; stroke-width: 1.5;" x1="285" x2="285" y1="55" y2="61"/><line style="stroke: #000000; stroke-width: 1.5;" x1="291" x2="285" y1="61" y2="61"/><text fill="#000000" font-family="Futura" font-size="14" lengthAdjust="spacingAndGlyphs" textLength="28" x="248" y="77.957">SDD</text><!--entity META_CR--><rect fill="#FEFECE" filter="url(#fhuzg0angahgs)" height="41.5938" style="stroke: #000000; stroke-width: 1.5;" width="48" x="583" y="324.5"/><polygon fill="#FEFECE" points="614,329.5,614,343.5,626,343.5,626,335.5,620,329.5,614,329.5" style="stroke: #000000; stroke-width: 1.5;"/><line style="stroke: #000000; stroke-width: 1.5;" x1="620" x2="620" y1="329.5" y2="335.5"/><line style="stroke: #000000; stroke-width: 1.5;" x1="626" x2="620" y1="335.5" y2="335.5"/><text fill="#000000" font-family="Futura" font-size="14" lengthAdjust="spacingAndGlyphs" textLength="18" x="593" y="352.457">CR</text><ellipse cx="267.2226" cy="217.1445" fill="#FEFECE" filter="url(#fhuzg0angahgs)" rx="131.2226" ry="28.6445" style="stroke: #A80036; stroke-width: 1.5;"/><text fill="#000000" font-family="Futura" font-size="14" lengthAdjust="spacingAndGlyphs" textLength="239" x="147.7226" y="222.9414">Elaborate SERS and System Interfaces</text><ellipse cx="521.7822" cy="217.0564" fill="#FEFECE" filter="url(#fhuzg0angahgs)" rx="88.2822" ry="20.0564" style="stroke: #A80036; stroke-width: 1.5;"/><text fill="#000000" font-family="Futura" font-size="14" lengthAdjust="spacingAndGlyphs" textLength="143" x="450.2822" y="222.8533">Verify SysRS and SERS</text><!--link PROD_SYSRS_INITIATED to SR2_5--><path d="M414.3566,91.9182 C385.3467,116.5429 336.9011,157.6653 303.5238,185.9973 " fill="none" id="PROD_SYSRS_INITIATED-SR2_5" style="stroke: #A80036; stroke-width: 2.0;"/><polygon fill="#A80036" points="299.5304,189.387,308.9803,186.6124,303.3423,186.1514,303.8033,180.5133,299.5304,189.387" style="stroke: #A80036; stroke-width: 1.0;"/><!--link PROD_SDD to SR2_5--><path d="M267,97.5057 C267,121.6043 267,157.2817 267,183.3779 " fill="none" id="PROD_SDD-SR2_5" style="stroke: #A80036; stroke-width: 2.0;"/><polygon fill="#A80036" points="267,188.4631,271,179.4631,267,183.4631,263,179.4631,267,188.4631" style="stroke: #A80036; stroke-width: 1.0;"/><polygon fill="#A80036" points="267,92.2297,263,101.2297,267,97.2297,271,101.2297,267,92.2297" style="stroke: #A80036; stroke-width: 1.0;"/><!--link SR2_5 to PROD_SERS_INITIATED--><path d="M302.1821,244.5665 C331.9647,267.9022 374.1388,300.9472 402.0113,322.7863 " fill="none" id="SR2_5-PROD_SERS_INITIATED" style="stroke: #A80036; stroke-width: 2.0;"/><polygon fill="#A80036" points="406.0167,325.9246,401.3993,317.2252,402.0809,322.8408,396.4653,323.5224,406.0167,325.9246" style="stroke: #A80036; stroke-width: 1.0;"/><!--link PROD_SYSRS_INITIATED to SR2_6--><path d="M453.6477,96.7658 C469.0453,123.8508 493.0858,166.1389 508.1691,192.6709 " fill="none" id="PROD_SYSRS_INITIATED-SR2_6" style="stroke: #A80036; stroke-width: 2.0;"/><polygon fill="#A80036" points="510.6935,197.1115,509.7231,187.3106,508.2225,192.7648,502.7683,191.2642,510.6935,197.1115" style="stroke: #A80036; stroke-width: 1.0;"/><!--link PROD_SERS_INITIATED to SR2_6--><path d="M449.2801,319.6869 C465.513,296.7647 489.0548,263.5215 504.9154,241.1249 " fill="none" id="PROD_SERS_INITIATED-SR2_6" style="stroke: #A80036; stroke-width: 2.0;"/><polygon fill="#A80036" points="507.9807,236.7965,499.515,241.8296,505.0911,240.8769,506.0437,246.453,507.9807,236.7965" style="stroke: #A80036; stroke-width: 1.0;"/><!--link SR2_6 to PROD_SYSRS_VERIFIED--><path d="M522,196.6633 C522,172.0907 522,130.4975 522,101.9395 " fill="none" id="SR2_6-PROD_SYSRS_VERIFIED" style="stroke: #A80036; stroke-width: 2.0;"/><polygon fill="#A80036" points="522,96.7658,518,105.7658,522,101.7658,526,105.7658,522,96.7658" style="stroke: #A80036; stroke-width: 1.0;"/><!--link SR2_6 to PROD_SERS_VALIDATED--><path d="M521.5313,237.0781 C521.0471,257.8153 520.2852,290.4513 519.7236,314.5038 " fill="none" id="SR2_6-PROD_SERS_VALIDATED" style="stroke: #A80036; stroke-width: 2.0;"/><polygon fill="#A80036" points="519.5999,319.8049,523.8092,310.9008,519.7168,314.8063,515.8113,310.7139,519.5999,319.8049" style="stroke: #A80036; stroke-width: 1.0;"/><!--link SR2_6 to META_CR--><path d="M535.095,236.7965 C549.8252,259.0652 573.7991,295.3081 589.9731,319.7594 " fill="none" id="SR2_6-META_CR" style="stroke: #A80036; stroke-width: 2.0;"/><polygon fill="#A80036" points="592.8984,324.1817,591.2691,314.4685,590.1398,320.0115,584.5968,318.8823,592.8984,324.1817" style="stroke: #A80036; stroke-width: 1.0;"/><!--link SYS to DES--><!--link SYS to PJM--><!--link PJM to WT--><!--
@startuml



skinparam handwritten false
skinparam defaultFontName Futura


actor SYS
actor DES
actor PJM
actor WT

artifact "SDD" as PROD_SDD
artifact "SERS" {
control "initiated" as PROD_SERS_INITIATED
control "validated" as PROD_SERS_VALIDATED
}
artifact "SysRS" {
control "initiated" as PROD_SYSRS_INITIATED
control "verified" as PROD_SYSRS_VERIFIED
}
artifact "CR" as META_CR

usecase "Elaborate SERS and System Interfaces" as SR2_5
PROD_SYSRS_INITIATED ==> SR2_5
PROD_SDD <==> SR2_5
SR2_5 ==> PROD_SERS_INITIATED

usecase "Verify SysRS and SERS" as SR2_6
PROD_SYSRS_INITIATED ==> SR2_6
PROD_SERS_INITIATED ==> SR2_6
SR2_6 ==> PROD_SYSRS_VERIFIED
SR2_6 ==> PROD_SERS_VALIDATED
SR2_6 ==> META_CR

@enduml

PlantUML version 1.2019.00(Sun Jan 13 07:46:42 PST 2019)
(GPL source distribution)
Java Runtime: Java(TM) SE Runtime Environment
JVM: Java HotSpot(TM) 64-Bit Server VM
Java Version: 10.0.1+10
Operating System: Mac OS X
OS Version: 10.14.3
Default Encoding: UTF-8
Language: en
Country: US
--></g></svg>