<svg xmlns="http://www.w3.org/2000/svg" height="370" preserveAspectRatio="none" style="width:764px;height:370px" width="764"><defs><filter height="300%" id="a" width="300%" x="-1" y="-1"><feGaussianBlur result="blurOut" stdDeviation="2"/><feColorMatrix in="blurOut" result="blurOut2" values="0 0 0 0 0 0 0 0 0 0 0 0 0 0 0 0 0 0 .4 0"/><feOffset dx="4" dy="4" in="blurOut2" result="blurOut3"/><feBlend in="SourceGraphic" in2="blurOut3"/></filter></defs><path fill="#FFF" filter="url(#a)" stroke="#000" stroke-width="1.5" d="M489 271h240v88H489z"/><path fill="#FFF" stroke="#000" stroke-width="1.5" d="M712 276v14h12v-8l-6-6h-6z"/><path stroke="#000" stroke-width="1.5" d="M718 276v6M724 282h-6"/><text font-family="Futura" font-size="14" font-weight="bold" lengthAdjust="spacingAndGlyphs" textLength="33" x="592.5" y="287.966">StRS</text><circle cx="522" cy="316" fill="#FEFECE" filter="url(#a)" stroke="#a80036" stroke-width="2" r="12"/><path fill="#A80036" stroke="#a80036" d="M518 304l6-5-2 5 2 5-6-5z"/><text font-family="Futura" font-size="14" lengthAdjust="spacingAndGlyphs" textLength="49" x="497.5" y="346.957">initiated</text><circle cx="605" cy="316" fill="#FEFECE" filter="url(#a)" stroke="#a80036" stroke-width="2" r="12"/><path fill="#A80036" stroke="#a80036" d="M601 304l6-5-2 5 2 5-6-5z"/><text font-family="Futura" font-size="14" lengthAdjust="spacingAndGlyphs" textLength="46" x="582" y="346.957">verified</text><circle cx="692" cy="316" fill="#FEFECE" filter="url(#a)" stroke="#a80036" stroke-width="2" r="12"/><path fill="#A80036" stroke="#a80036" d="M688 304l6-5-2 5 2 5-6-5z"/><text font-family="Futura" font-size="14" lengthAdjust="spacingAndGlyphs" textLength="57" x="663.5" y="346.957">validated</text><circle cx="21" cy="18" fill="#FEFECE" filter="url(#a)" stroke="#a80036" stroke-width="2" r="8"/><path d="M21 26v27M8 34h26M21 53L8 68m13-15l13 15" fill="none" filter="url(#a)" stroke="#a80036" stroke-width="2"/><text font-family="Futura" font-size="14" lengthAdjust="spacingAndGlyphs" textLength="24" x="9" y="89.957">SYS</text><circle cx="88" cy="18" fill="#FEFECE" filter="url(#a)" stroke="#a80036" stroke-width="2" r="8"/><path d="M88 26v27M75 34h26M88 53L75 68m13-15l13 15" fill="none" filter="url(#a)" stroke="#a80036" stroke-width="2"/><text font-family="Futura" font-size="14" lengthAdjust="spacingAndGlyphs" textLength="33" x="71.5" y="89.957">ACQ</text><circle cx="155" cy="18" fill="#FEFECE" filter="url(#a)" stroke="#a80036" stroke-width="2" r="8"/><path d="M155 26v27m-13-19h26m-13 19l-13 15m13-15l13 15" fill="none" filter="url(#a)" stroke="#a80036" stroke-width="2"/><text font-family="Futura" font-size="14" lengthAdjust="spacingAndGlyphs" textLength="24" x="143" y="89.957">STK</text><circle cx="21" cy="164" fill="#FEFECE" filter="url(#a)" stroke="#a80036" stroke-width="2" r="8"/><path d="M21 172v27M8 180h26m-13 19L8 214m13-15l13 15" fill="none" filter="url(#a)" stroke="#a80036" stroke-width="2"/><text font-family="Futura" font-size="14" lengthAdjust="spacingAndGlyphs" textLength="27" x="7.5" y="235.957">PJM</text><circle cx="86" cy="164" fill="#FEFECE" filter="url(#a)" stroke="#a80036" stroke-width="2" r="8"/><path d="M86 172v27m-13-19h26m-13 19l-13 15m13-15l13 15" fill="none" filter="url(#a)" stroke="#a80036" stroke-width="2"/><text font-family="Futura" font-size="14" lengthAdjust="spacingAndGlyphs" textLength="22" x="75" y="235.957">WT</text><path fill="#FEFECE" filter="url(#a)" stroke="#000" stroke-width="1.5" d="M205 30h104v41.594H205z"/><path fill="#FEFECE" stroke="#000" stroke-width="1.5" d="M292 35v14h12v-8l-6-6h-6z"/><path stroke="#000" stroke-width="1.5" d="M298 35v6M304 41h-6"/><text font-family="Futura" font-size="14" lengthAdjust="spacingAndGlyphs" textLength="74" x="215" y="57.957">Project Plan</text><path fill="#FEFECE" filter="url(#a)" stroke="#000" stroke-width="1.5" d="M344.5 30h67v41.594h-67z"/><path fill="#FEFECE" stroke="#000" stroke-width="1.5" d="M394.5 35v14h12v-8l-6-6h-6z"/><path stroke="#000" stroke-width="1.5" d="M400.5 35v6M406.5 41h-6"/><text font-family="Futura" font-size="14" lengthAdjust="spacingAndGlyphs" textLength="37" x="354.5" y="57.957">SEMP</text><path fill="#FEFECE" filter="url(#a)" stroke="#000" stroke-width="1.5" d="M446.5 30h133v41.594h-133z"/><path fill="#FEFECE" stroke="#000" stroke-width="1.5" d="M562.5 35v14h12v-8l-6-6h-6z"/><path stroke="#000" stroke-width="1.5" d="M568.5 35v6M574.5 41h-6"/><text font-family="Futura" font-size="14" lengthAdjust="spacingAndGlyphs" textLength="103" x="456.5" y="57.957">SoW (reviewed)</text><ellipse cx="378.22" cy="196.944" fill="#FEFECE" filter="url(#a)" rx="77.72" ry="17.944" stroke="#a80036" stroke-width="1.5"/><text font-family="Futura" font-size="14" lengthAdjust="spacingAndGlyphs" textLength="117" x="319.72" y="202.741">Elicit Requirements</text><ellipse cx="542.79" cy="197.148" fill="#FEFECE" filter="url(#a)" rx="51.79" ry="16.148" stroke="#a80036" stroke-width="1.5"/><text font-family="Futura" font-size="14" lengthAdjust="spacingAndGlyphs" textLength="69" x="508.29" y="202.945">Verify StRS</text><ellipse cx="692.19" cy="197.148" fill="#FEFECE" filter="url(#a)" rx="61.69" ry="16.148" stroke="#a80036" stroke-width="1.5"/><text font-family="Futura" font-size="14" lengthAdjust="spacingAndGlyphs" textLength="83" x="650.69" y="202.945">Validate StRS</text><path d="M274.594 72.23l85.184 102.783" fill="none" stroke="#a80036" stroke-width="2"/><path fill="#A80036" stroke="#a80036" d="M363.055 178.967l-2.663-9.482-.528 5.632-5.632-.527 8.823 4.377z"/><path d="M493.37 72.23l-95.04 102.783" fill="none" stroke="#a80036" stroke-width="2"/><path fill="#A80036" stroke="#a80036" d="M394.674 178.967l9.047-3.892-5.652.221-.221-5.653-3.174 9.324z"/><path d="M378 72.23v101.4" fill="none" stroke="#a80036" stroke-width="2"/><path fill="#A80036" stroke="#a80036" d="M378 178.967l4-9-4 4-4-4 4 9z"/><path d="M397.72 214.598l95.422 85.15" fill="none" stroke="#a80036" stroke-width="2"/><path fill="#A80036" stroke="#a80036" d="M497.215 303.383l-4.052-8.977.321 5.648-5.648.321 9.379 3.008z"/><path d="M526.174 299.957l13.37-81.813" fill="none" stroke="#a80036" stroke-width="2"/><path fill="#A80036" stroke="#a80036" d="M540.383 213.015l-5.4 8.237 4.593-3.303 3.303 4.593-2.496-9.527z"/><path d="M550.727 213.015l39.69 82.26" fill="none" stroke="#a80036" stroke-width="2"/><path fill="#A80036" stroke="#a80036" d="M592.676 299.957l-.309-9.844-1.864 5.34-5.341-1.864 7.514 6.368z"/><path d="M622.294 299.957l55.963-82.658" fill="none" stroke="#a80036" stroke-width="2"/><path fill="#A80036" stroke="#a80036" d="M681.157 213.015l-8.358 5.21 5.555-1.07 1.07 5.555 1.733-9.695z"/><path d="M692 213.015v81.938" fill="none" stroke="#a80036" stroke-width="2"/><path fill="#A80036" stroke="#a80036" d="M692 299.957l4-9-4 4-4-4 4 9z"/></svg>