<svg xmlns="http://www.w3.org/2000/svg" height="121" preserveAspectRatio="none" style="width:883px;height:121px" width="883"><defs><filter height="300%" id="a" width="300%" x="-1" y="-1"><feGaussianBlur result="blurOut" stdDeviation="2"/><feColorMatrix in="blurOut" result="blurOut2" values="0 0 0 0 0 0 0 0 0 0 0 0 0 0 0 0 0 0 .4 0"/><feOffset dx="4" dy="4" in="blurOut2" result="blurOut3"/><feBlend in="SourceGraphic" in2="blurOut3"/></filter></defs><circle cx="16" cy="59" filter="url(#a)" r="10"/><rect fill="#FEFECE" filter="url(#a)" height="54.531" rx="12.5" ry="12.5" width="52" x="117" y="31.5" stroke="#a80036" stroke-width="1.5"/><path stroke="#a80036" stroke-width="1.5" d="M117 60.094h52"/><text font-family="Futura" font-size="14" lengthAdjust="spacingAndGlyphs" textLength="32" x="127" y="51.457">initial</text><text font-family="Futura" font-size="12" lengthAdjust="spacingAndGlyphs" textLength="23" x="122" y="77.914">PJM</text><rect fill="#FEFECE" filter="url(#a)" height="70.469" rx="12.5" ry="12.5" width="66" x="241" y="24" stroke="#a80036" stroke-width="1.5"/><path stroke="#a80036" stroke-width="1.5" d="M241 52.594h66"/><text font-family="Futura" font-size="14" lengthAdjust="spacingAndGlyphs" textLength="46" x="251" y="43.957">verified</text><text font-family="Futura" font-size="12" lengthAdjust="spacingAndGlyphs" textLength="23" x="246" y="70.414">PJM</text><text font-family="Futura" font-size="12" lengthAdjust="spacingAndGlyphs" textLength="19" x="246" y="86.352">WT</text><rect fill="#FEFECE" filter="url(#a)" height="86.406" rx="12.5" ry="12.5" width="78" x="413" y="16" stroke="#a80036" stroke-width="1.5"/><path stroke="#a80036" stroke-width="1.5" d="M413 44.594h78"/><text font-family="Futura" font-size="14" lengthAdjust="spacingAndGlyphs" textLength="58" x="423" y="35.957">accepted</text><text font-family="Futura" font-size="12" lengthAdjust="spacingAndGlyphs" textLength="23" x="418" y="62.414">PJM</text><text font-family="Futura" font-size="12" lengthAdjust="spacingAndGlyphs" textLength="28" x="418" y="78.352">ACQ</text><text font-family="Futura" font-size="12" lengthAdjust="spacingAndGlyphs" textLength="21" x="418" y="94.289">STK</text><rect fill="#FEFECE" filter="url(#a)" height="102.344" rx="12.5" ry="12.5" width="72" x="606" y="8" stroke="#a80036" stroke-width="1.5"/><path stroke="#a80036" stroke-width="1.5" d="M606 36.594h72"/><text font-family="Futura" font-size="14" lengthAdjust="spacingAndGlyphs" textLength="52" x="616" y="27.957">updated</text><text font-family="Futura" font-size="12" lengthAdjust="spacingAndGlyphs" textLength="23" x="611" y="54.414">PJM</text><text font-family="Futura" font-size="12" lengthAdjust="spacingAndGlyphs" textLength="19" x="611" y="70.352">WT</text><text font-family="Futura" font-size="12" lengthAdjust="spacingAndGlyphs" textLength="28" x="611" y="86.289">ACQ</text><text font-family="Futura" font-size="12" lengthAdjust="spacingAndGlyphs" textLength="21" x="611" y="102.227">STK</text><rect fill="#FEFECE" filter="url(#a)" height="70.469" rx="12.5" ry="12.5" width="78" x="793" y="24" stroke="#a80036" stroke-width="1.5"/><path stroke="#a80036" stroke-width="1.5" d="M793 52.594h78"/><text font-family="Futura" font-size="14" lengthAdjust="spacingAndGlyphs" textLength="58" x="803" y="43.957">reviewed</text><text font-family="Futura" font-size="12" lengthAdjust="spacingAndGlyphs" textLength="23" x="798" y="70.414">PJM</text><text font-family="Futura" font-size="12" lengthAdjust="spacingAndGlyphs" textLength="19" x="798" y="86.352">WT</text><path d="M26.393 59h85.484" fill="none" stroke="#a80036"/><path fill="#A80036" stroke="#a80036" d="M116.937 59l-9-4 4 4-4 4 9-4z"/><text font-family="Futura" font-size="13" lengthAdjust="spacingAndGlyphs" textLength="54" x="44.5" y="51.889">Integrate</text><path d="M169.195 59h66.617" fill="none" stroke="#a80036"/><path fill="#A80036" stroke="#a80036" d="M240.861 59l-9-4 4 4-4 4 9-4z"/><text font-family="Futura" font-size="13" lengthAdjust="spacingAndGlyphs" textLength="35" x="187.5" y="51.889">Verify</text><path d="M307.063 59H407.6" fill="none" stroke="#a80036"/><path fill="#A80036" stroke="#a80036" d="M412.908 59l-9-4 4 4-4 4 9-4z"/><text font-family="Futura" font-size="13" lengthAdjust="spacingAndGlyphs" textLength="69" x="325.5" y="51.889">Acceptance</text><path d="M491.368 59h109.428" fill="none" stroke="#a80036"/><path fill="#A80036" stroke="#a80036" d="M605.896 59l-9-4 4 4-4 4 9-4z"/><text font-family="Futura" font-size="13" lengthAdjust="spacingAndGlyphs" textLength="78" x="509.5" y="51.889">STK meetings</text><path d="M792.675 59H683.286" fill="none" stroke="#a80036"/><path fill="#A80036" stroke="#a80036" d="M678.185 59l9 4-4-4 4-4-9 4z"/><text font-family="Futura" font-size="13" lengthAdjust="spacingAndGlyphs" textLength="78" x="696.5" y="51.889">STK meetings</text><path d="M678.04 71.984C689.96 75.664 703.4 79.167 716 81c17.153 2.496 21.834 2.404 39 0 10.865-1.522 22.349-4.196 33.037-7.167" fill="none" stroke="#a80036"/><path fill="#A80036" stroke="#a80036" d="M792.886 72.45l-9.751-1.379 4.943 2.75-2.75 4.944 7.558-6.315z"/><text font-family="Futura" font-size="13" lengthAdjust="spacingAndGlyphs" textLength="37" x="717" y="76.889">Revise</text></svg>