<svg xmlns="http://www.w3.org/2000/svg" height="89" preserveAspectRatio="none" style="width:403px;height:89px" width="403"><defs><filter height="300%" id="a" width="300%" x="-1" y="-1"><feGaussianBlur result="blurOut" stdDeviation="2"/><feColorMatrix in="blurOut" result="blurOut2" values="0 0 0 0 0 0 0 0 0 0 0 0 0 0 0 0 0 0 .4 0"/><feOffset dx="4" dy="4" in="blurOut2" result="blurOut3"/><feBlend in="SourceGraphic" in2="blurOut3"/></filter></defs><circle cx="16" cy="43" filter="url(#a)" r="10"/><rect fill="#FEFECE" filter="url(#a)" height="54.531" rx="12.5" ry="12.5" width="52" x="147" y="15.5" stroke="#a80036" stroke-width="1.5"/><path stroke="#a80036" stroke-width="1.5" d="M147 44.094h52"/><text font-family="Futura" font-size="14" lengthAdjust="spacingAndGlyphs" textLength="32" x="157" y="35.457">initial</text><text font-family="Futura" font-size="12" lengthAdjust="spacingAndGlyphs" textLength="23" x="152" y="61.914">DES</text><rect fill="#FEFECE" filter="url(#a)" height="70.469" rx="12.5" ry="12.5" width="78" x="313" y="8" stroke="#a80036" stroke-width="1.5"/><path stroke="#a80036" stroke-width="1.5" d="M313 36.594h78"/><text font-family="Futura" font-size="14" lengthAdjust="spacingAndGlyphs" textLength="58" x="323" y="27.957">accepted</text><text font-family="Futura" font-size="12" lengthAdjust="spacingAndGlyphs" textLength="23" x="318" y="54.414">PJM</text><text font-family="Futura" font-size="12" lengthAdjust="spacingAndGlyphs" textLength="19" x="318" y="70.352">WT</text><path d="M26.301 43h115.49" fill="none" stroke="#a80036"/><path fill="#A80036" stroke="#a80036" d="M146.91 43l-9-4 4 4-4 4 9-4z"/><text font-family="Futura" font-size="13" lengthAdjust="spacingAndGlyphs" textLength="84" x="44.5" y="35.889">System Design</text><path d="M199.028 43H307.35" fill="none" stroke="#a80036"/><path fill="#A80036" stroke="#a80036" d="M312.721 43l-9-4 4 4-4 4 9-4z"/><text font-family="Futura" font-size="13" lengthAdjust="spacingAndGlyphs" textLength="77" x="217.5" y="35.889">WT Meetings</text></svg>