<svg xmlns="http://www.w3.org/2000/svg" height="105" preserveAspectRatio="none" style="width:580px;height:105px" width="580"><defs><filter height="300%" id="a" width="300%" x="-1" y="-1"><feGaussianBlur result="blurOut" stdDeviation="2"/><feColorMatrix in="blurOut" result="blurOut2" values="0 0 0 0 0 0 0 0 0 0 0 0 0 0 0 0 0 0 .4 0"/><feOffset dx="4" dy="4" in="blurOut2" result="blurOut3"/><feBlend in="SourceGraphic" in2="blurOut3"/></filter></defs><circle cx="16" cy="51" filter="url(#a)" r="10"/><rect fill="#FEFECE" filter="url(#a)" height="54.531" rx="12.5" ry="12.5" width="52" x="164" y="23.5" stroke="#a80036" stroke-width="1.5"/><path stroke="#a80036" stroke-width="1.5" d="M164 52.094h52"/><text font-family="Futura" font-size="14" lengthAdjust="spacingAndGlyphs" textLength="32" x="174" y="43.457">initial</text><text font-family="Futura" font-size="12" lengthAdjust="spacingAndGlyphs" textLength="23" x="169" y="69.914">DES</text><rect fill="#FEFECE" filter="url(#a)" height="86.406" rx="12.5" ry="12.5" width="77" x="375.5" y="8" stroke="#a80036" stroke-width="1.5"/><path stroke="#a80036" stroke-width="1.5" d="M375.5 36.594h77"/><text font-family="Futura" font-size="14" lengthAdjust="spacingAndGlyphs" textLength="57" x="385.5" y="27.957">validated</text><text font-family="Futura" font-size="12" lengthAdjust="spacingAndGlyphs" textLength="21" x="380.5" y="54.414">SYS</text><text font-family="Futura" font-size="12" lengthAdjust="spacingAndGlyphs" textLength="23" x="380.5" y="70.352">DES</text><text font-family="Futura" font-size="12" lengthAdjust="spacingAndGlyphs" textLength="24" x="380.5" y="86.289">DEV</text><rect fill="#FEFECE" filter="url(#a)" height="50" rx="12.5" ry="12.5" width="80" x="488" y="26" stroke="#a80036" stroke-width="1.5"/><path stroke="#a80036" stroke-width="1.5" d="M488 54.594h80"/><text font-family="Futura" font-size="14" lengthAdjust="spacingAndGlyphs" textLength="60" x="498" y="45.957">baselined</text><path d="M26.107 51H158.55" fill="none" stroke="#a80036"/><path fill="#A80036" stroke="#a80036" d="M163.775 51l-9-4 4 4-4 4 9-4z"/><text font-family="Futura" font-size="13" lengthAdjust="spacingAndGlyphs" textLength="101" x="44.5" y="43.889">Document Design</text><path d="M216.134 51h153.977" fill="none" stroke="#a80036"/><path fill="#A80036" stroke="#a80036" d="M375.298 51l-9-4 4 4-4 4 9-4z"/><text font-family="Futura" font-size="13" lengthAdjust="spacingAndGlyphs" textLength="123" x="234.25" y="43.889">Verify System Design</text><path d="M452.742 51h29.79" fill="none" stroke="#a80036"/><path fill="#A80036" stroke="#a80036" d="M487.725 51l-9-4 4 4-4 4 9-4z"/></svg>