<svg xmlns="http://www.w3.org/2000/svg" height="121" preserveAspectRatio="none" style="width:626px;height:121px" width="626"><defs><filter height="300%" id="a" width="300%" x="-1" y="-1"><feGaussianBlur result="blurOut" stdDeviation="2"/><feColorMatrix in="blurOut" result="blurOut2" values="0 0 0 0 0 0 0 0 0 0 0 0 0 0 0 0 0 0 .4 0"/><feOffset dx="4" dy="4" in="blurOut2" result="blurOut3"/><feBlend in="SourceGraphic" in2="blurOut3"/></filter></defs><circle cx="16" cy="59" filter="url(#a)" r="10"/><rect fill="#FEFECE" filter="url(#a)" height="70.469" rx="12.5" ry="12.5" width="52" x="105" y="24" stroke="#a80036" stroke-width="1.5"/><path stroke="#a80036" stroke-width="1.5" d="M105 52.594h52"/><text font-family="Futura" font-size="14" lengthAdjust="spacingAndGlyphs" textLength="32" x="115" y="43.957">initial</text><text font-family="Futura" font-size="12" lengthAdjust="spacingAndGlyphs" textLength="23" x="110" y="70.414">PJM</text><text font-family="Futura" font-size="12" lengthAdjust="spacingAndGlyphs" textLength="19" x="110" y="86.352">WT</text><rect fill="#FEFECE" filter="url(#a)" height="102.344" rx="12.5" ry="12.5" width="78" x="292" y="8" stroke="#a80036" stroke-width="1.5"/><path stroke="#a80036" stroke-width="1.5" d="M292 36.594h78"/><text font-family="Futura" font-size="14" lengthAdjust="spacingAndGlyphs" textLength="58" x="302" y="27.957">delivered</text><text font-family="Futura" font-size="12" lengthAdjust="spacingAndGlyphs" textLength="23" x="297" y="54.414">PJM</text><text font-family="Futura" font-size="12" lengthAdjust="spacingAndGlyphs" textLength="28" x="297" y="70.352">ACQ</text><text font-family="Futura" font-size="12" lengthAdjust="spacingAndGlyphs" textLength="23" x="297" y="86.289">PJM</text><text font-family="Futura" font-size="12" lengthAdjust="spacingAndGlyphs" textLength="28" x="297" y="102.227">ACQ</text><rect fill="#FEFECE" filter="url(#a)" height="50" rx="12.5" ry="12.5" width="78" x="536" y="34" stroke="#a80036" stroke-width="1.5"/><path stroke="#a80036" stroke-width="1.5" d="M536 62.594h78"/><text font-family="Futura" font-size="14" lengthAdjust="spacingAndGlyphs" textLength="58" x="546" y="53.957">accepted</text><path d="M26.206 59H99.69" fill="none" stroke="#a80036"/><path fill="#A80036" stroke="#a80036" d="M104.795 59l-9-4 4 4-4 4 9-4z"/><text font-family="Futura" font-size="13" lengthAdjust="spacingAndGlyphs" textLength="42" x="44.5" y="51.889">Review</text><path d="M157.147 59h129.38" fill="none" stroke="#a80036"/><path fill="#A80036" stroke="#a80036" d="M291.77 59l-9-4 4 4-4 4 9-4z"/><text font-family="Futura" font-size="13" lengthAdjust="spacingAndGlyphs" textLength="98" x="175.5" y="51.889">Perform Delivery</text><path d="M370.203 59h160.51" fill="none" stroke="#a80036"/><path fill="#A80036" stroke="#a80036" d="M535.894 59l-9-4 4 4-4 4 9-4z"/><text font-family="Futura" font-size="13" lengthAdjust="spacingAndGlyphs" textLength="129" x="388.5" y="51.889">Formalize Completion</text></svg>