<svg xmlns="http://www.w3.org/2000/svg" height="105" preserveAspectRatio="none" style="width:689px;height:105px" width="689"><defs><filter height="300%" id="a" width="300%" x="-1" y="-1"><feGaussianBlur result="blurOut" stdDeviation="2"/><feColorMatrix in="blurOut" result="blurOut2" values="0 0 0 0 0 0 0 0 0 0 0 0 0 0 0 0 0 0 .4 0"/><feOffset dx="4" dy="4" in="blurOut2" result="blurOut3"/><feBlend in="SourceGraphic" in2="blurOut3"/></filter></defs><circle cx="16" cy="51" filter="url(#a)" r="10"/><rect fill="#FEFECE" filter="url(#a)" height="86.406" rx="12.5" ry="12.5" width="52" x="117" y="8" stroke="#a80036" stroke-width="1.5"/><path stroke="#a80036" stroke-width="1.5" d="M117 36.594h52"/><text font-family="Futura" font-size="14" lengthAdjust="spacingAndGlyphs" textLength="32" x="127" y="27.957">initial</text><text font-family="Futura" font-size="12" lengthAdjust="spacingAndGlyphs" textLength="20" x="122" y="54.414">IVV</text><text font-family="Futura" font-size="12" lengthAdjust="spacingAndGlyphs" textLength="23" x="122" y="70.352">DES</text><text font-family="Futura" font-size="12" lengthAdjust="spacingAndGlyphs" textLength="22" x="122" y="86.289">SUP</text><rect fill="#FEFECE" filter="url(#a)" height="70.469" rx="12.5" ry="12.5" width="66" x="241" y="16" stroke="#a80036" stroke-width="1.5"/><path stroke="#a80036" stroke-width="1.5" d="M241 44.594h66"/><text font-family="Futura" font-size="14" lengthAdjust="spacingAndGlyphs" textLength="46" x="251" y="35.957">verified</text><text font-family="Futura" font-size="12" lengthAdjust="spacingAndGlyphs" textLength="20" x="246" y="62.414">IVV</text><text font-family="Futura" font-size="12" lengthAdjust="spacingAndGlyphs" textLength="21" x="246" y="78.352">SYS</text><rect fill="#FEFECE" filter="url(#a)" height="86.406" rx="12.5" ry="12.5" width="77" x="393.5" y="8" stroke="#a80036" stroke-width="1.5"/><path stroke="#a80036" stroke-width="1.5" d="M393.5 36.594h77"/><text font-family="Futura" font-size="14" lengthAdjust="spacingAndGlyphs" textLength="57" x="403.5" y="27.957">validated</text><text font-family="Futura" font-size="12" lengthAdjust="spacingAndGlyphs" textLength="20" x="398.5" y="54.414">IVV</text><text font-family="Futura" font-size="12" lengthAdjust="spacingAndGlyphs" textLength="21" x="398.5" y="70.352">SYS</text><text font-family="Futura" font-size="12" lengthAdjust="spacingAndGlyphs" textLength="28" x="398.5" y="86.289">ACQ</text><rect fill="#FEFECE" filter="url(#a)" height="54.531" rx="12.5" ry="12.5" width="80" x="597" y="23.5" stroke="#a80036" stroke-width="1.5"/><path stroke="#a80036" stroke-width="1.5" d="M597 52.094h80"/><text font-family="Futura" font-size="14" lengthAdjust="spacingAndGlyphs" textLength="60" x="607" y="43.457">corrected</text><text font-family="Futura" font-size="12" lengthAdjust="spacingAndGlyphs" textLength="19" x="602" y="69.914">WT</text><path d="M26.393 51h85.484" fill="none" stroke="#a80036"/><path fill="#A80036" stroke="#a80036" d="M116.937 51l-9-4 4 4-4 4 9-4z"/><text font-family="Futura" font-size="13" lengthAdjust="spacingAndGlyphs" textLength="54" x="44.5" y="43.889">Integrate</text><path d="M169.195 51h66.617" fill="none" stroke="#a80036"/><path fill="#A80036" stroke="#a80036" d="M240.861 51l-9-4 4 4-4 4 9-4z"/><text font-family="Futura" font-size="13" lengthAdjust="spacingAndGlyphs" textLength="35" x="187.5" y="43.889">Verify</text><path d="M307.122 51h81.185" fill="none" stroke="#a80036"/><path fill="#A80036" stroke="#a80036" d="M393.354 51l-9-4 4 4-4 4 9-4z"/><text font-family="Futura" font-size="13" lengthAdjust="spacingAndGlyphs" textLength="50" x="325.25" y="43.889">Validate</text><path d="M470.559 51H591.61" fill="none" stroke="#a80036"/><path fill="#A80036" stroke="#a80036" d="M596.863 51l-9-4 4 4-4 4 9-4z"/><text font-family="Futura" font-size="13" lengthAdjust="spacingAndGlyphs" textLength="90" x="488.75" y="43.889">Correct Defects</text></svg>