<svg xmlns="http://www.w3.org/2000/svg" height="69" preserveAspectRatio="none" style="width:525px;height:69px" width="525"><defs><filter height="300%" id="a" width="300%" x="-1" y="-1"><feGaussianBlur result="blurOut" stdDeviation="2"/><feColorMatrix in="blurOut" result="blurOut2" values="0 0 0 0 0 0 0 0 0 0 0 0 0 0 0 0 0 0 .4 0"/><feOffset dx="4" dy="4" in="blurOut2" result="blurOut3"/><feBlend in="SourceGraphic" in2="blurOut3"/></filter></defs><circle cx="16" cy="33" filter="url(#a)" r="10"/><rect fill="#FEFECE" filter="url(#a)" height="50" rx="12.5" ry="12.5" width="52" x="100" y="8" stroke="#a80036" stroke-width="1.5"/><path stroke="#a80036" stroke-width="1.5" d="M100 36.594h52"/><text font-family="Futura" font-size="14" lengthAdjust="spacingAndGlyphs" textLength="32" x="110" y="27.957">initial</text><rect fill="#FEFECE" filter="url(#a)" height="50" rx="12.5" ry="12.5" width="80" x="318" y="8" stroke="#a80036" stroke-width="1.5"/><path stroke="#a80036" stroke-width="1.5" d="M318 36.594h80"/><text font-family="Futura" font-size="14" lengthAdjust="spacingAndGlyphs" textLength="60" x="328" y="27.957">approved</text><rect fill="#FEFECE" filter="url(#a)" height="50" rx="12.5" ry="12.5" width="80" x="433" y="8" stroke="#a80036" stroke-width="1.5"/><path stroke="#a80036" stroke-width="1.5" d="M433 36.594h80"/><text font-family="Futura" font-size="14" lengthAdjust="spacingAndGlyphs" textLength="60" x="443" y="27.957">published</text><path d="M26.151 33h68.526" fill="none" stroke="#a80036"/><path fill="#A80036" stroke="#a80036" d="M99.792 33l-9-4 4 4-4 4 9-4z"/><text font-family="Futura" font-size="13" lengthAdjust="spacingAndGlyphs" textLength="37" x="44.5" y="25.889">Define</text><path d="M152.162 33h160.695" fill="none" stroke="#a80036"/><path fill="#A80036" stroke="#a80036" d="M317.978 33l-9-4 4 4-4 4 9-4z"/><text font-family="Futura" font-size="13" lengthAdjust="spacingAndGlyphs" textLength="129" x="170.5" y="25.889">Formalize Completion</text><path d="M398.43 33h29.27" fill="none" stroke="#a80036"/><path fill="#A80036" stroke="#a80036" d="M432.802 33l-9-4 4 4-4 4 9-4z"/></svg>