<svg xmlns="http://www.w3.org/2000/svg" height="664" preserveAspectRatio="none" style="width:1453px;height:664px" width="1453"><defs><filter height="300%" id="a" width="300%" x="-1" y="-1"><feGaussianBlur result="blurOut" stdDeviation="2"/><feColorMatrix in="blurOut" result="blurOut2" values="0 0 0 0 0 0 0 0 0 0 0 0 0 0 0 0 0 0 .4 0"/><feOffset dx="4" dy="4" in="blurOut2" result="blurOut3"/><feBlend in="SourceGraphic" in2="blurOut3"/></filter></defs><path fill="#FFF" filter="url(#a)" stroke="#000" stroke-width="1.5" d="M665 16.5h123v76H665z"/><path fill="#FFF" stroke="#000" stroke-width="1.5" d="M771 21.5v14h12v-8l-6-6h-6z"/><path stroke="#000" stroke-width="1.5" d="M777 21.5v6M783 27.5h-6"/><text font-family="Futura" font-size="14" font-weight="bold" lengthAdjust="spacingAndGlyphs" textLength="88" x="682.5" y="33.466">Project Plan</text><path fill="#FFF" filter="url(#a)" stroke="#000" stroke-width="1.5" d="M484 528h394v125H484z"/><path fill="#FFF" stroke="#000" stroke-width="1.5" d="M861 533v14h12v-8l-6-6h-6z"/><path stroke="#000" stroke-width="1.5" d="M867 533v6M873 539h-6"/><text font-family="Futura" font-size="14" font-weight="bold" lengthAdjust="spacingAndGlyphs" textLength="204" x="579" y="544.966">Product Acceptance Record</text><path fill="#FFF" filter="url(#a)" stroke="#000" stroke-width="1.5" d="M492 557h111v88H492z"/><path fill="#FFF" stroke="#000" stroke-width="1.5" d="M583 562h15v10h-15z"/><path fill="#FFF" stroke="#000" stroke-width="1.5" d="M581 564h4v2h-4zM581 568h4v2h-4z"/><text font-family="Futura" font-size="14" font-weight="bold" lengthAdjust="spacingAndGlyphs" textLength="57" x="519" y="584.966">Product</text><path fill="#FFF" filter="url(#a)" stroke="#000" stroke-width="1.5" d="M794 557h76v88h-76z"/><path fill="#FFF" stroke="#000" stroke-width="1.5" d="M850 562h15v10h-15z"/><path fill="#FFF" stroke="#000" stroke-width="1.5" d="M848 564h4v2h-4zM848 568h4v2h-4z"/><text font-family="Futura" font-size="14" font-weight="bold" lengthAdjust="spacingAndGlyphs" textLength="54" x="805" y="584.966">System</text><path fill="#FFF" filter="url(#a)" stroke="#000" stroke-width="1.5" d="M14 557h249v88H14z"/><path fill="#FFF" stroke="#000" stroke-width="1.5" d="M246 562v14h12v-8l-6-6h-6z"/><path stroke="#000" stroke-width="1.5" d="M252 562v6M258 568h-6"/><text font-family="Futura" font-size="14" font-weight="bold" lengthAdjust="spacingAndGlyphs" textLength="233" x="22" y="573.966">System Maintenance Document</text><path fill="#FFF" filter="url(#a)" stroke="#000" stroke-width="1.5" d="M276 557h182v88H276z"/><path fill="#FFF" stroke="#000" stroke-width="1.5" d="M441 562v14h12v-8l-6-6h-6z"/><path stroke="#000" stroke-width="1.5" d="M447 562v6M453 568h-6"/><text font-family="Futura" font-size="14" font-weight="bold" lengthAdjust="spacingAndGlyphs" textLength="166" x="284" y="573.966">System Training Specs</text><path fill="#FFF" filter="url(#a)" stroke="#000" stroke-width="1.5" d="M1014 557h155v88h-155z"/><path fill="#FFF" stroke="#000" stroke-width="1.5" d="M1152 562v14h12v-8l-6-6h-6z"/><path stroke="#000" stroke-width="1.5" d="M1158 562v6M1164 568h-6"/><text font-family="Futura" font-size="14" font-weight="bold" lengthAdjust="spacingAndGlyphs" textLength="54" x="1064.5" y="573.966">System</text><path fill="#FFF" filter="url(#a)" stroke="#000" stroke-width="1.5" d="M588 302.5h202v88H588z"/><path fill="#FFF" stroke="#000" stroke-width="1.5" d="M773 307.5v14h12v-8l-6-6h-6z"/><path stroke="#000" stroke-width="1.5" d="M779 307.5v6M785 313.5h-6"/><text font-family="Futura" font-size="14" font-weight="bold" lengthAdjust="spacingAndGlyphs" textLength="57" x="660.5" y="319.466">Product</text><path fill="#FEFECE" filter="url(#a)" stroke="#a80036" stroke-width="1.5" d="M708 45.5h72v38.594h-72z"/><path fill="#FEFECE" stroke="#a80036" stroke-width="1.5" d="M703 50.5h10v5h-10zM703 74.094h10v5h-10z"/><text font-family="Futura" font-size="14" lengthAdjust="spacingAndGlyphs" textLength="52" x="718" y="70.457">Delivery</text><circle cx="660" cy="602" fill="#FEFECE" filter="url(#a)" stroke="#a80036" stroke-width="2" r="12"/><path fill="#A80036" stroke="#a80036" d="M656 590l6-5-2 5 2 5-6-5z"/><text font-family="Futura" font-size="14" lengthAdjust="spacingAndGlyphs" textLength="60" x="630" y="632.957">published</text><circle cx="746" cy="602" fill="#FEFECE" filter="url(#a)" stroke="#a80036" stroke-width="2" r="12"/><path fill="#A80036" stroke="#a80036" d="M742 590l6-5-2 5 2 5-6-5z"/><text font-family="Futura" font-size="14" lengthAdjust="spacingAndGlyphs" textLength="41" x="725.5" y="632.957">signed</text><circle cx="530" cy="602" fill="#FEFECE" filter="url(#a)" stroke="#a80036" stroke-width="2" r="12"/><path fill="#A80036" stroke="#a80036" d="M526 590l6-5-2 5 2 5-6-5z"/><text font-family="Futura" font-size="14" lengthAdjust="spacingAndGlyphs" textLength="60" x="500" y="632.957">approved</text><circle cx="832" cy="602" fill="#FEFECE" filter="url(#a)" stroke="#a80036" stroke-width="2" r="12"/><path fill="#A80036" stroke="#a80036" d="M828 590l6-5-2 5 2 5-6-5z"/><text font-family="Futura" font-size="14" lengthAdjust="spacingAndGlyphs" textLength="60" x="802" y="632.957">approved</text><circle cx="236" cy="602" fill="#FEFECE" filter="url(#a)" stroke="#a80036" stroke-width="2" r="12"/><path fill="#A80036" stroke="#a80036" d="M232 590l6-5-2 5 2 5-6-5z"/><text font-family="Futura" font-size="14" lengthAdjust="spacingAndGlyphs" textLength="32" x="220" y="632.957">initial</text><circle cx="156" cy="602" fill="#FEFECE" filter="url(#a)" stroke="#a80036" stroke-width="2" r="12"/><path fill="#A80036" stroke="#a80036" d="M152 590l6-5-2 5 2 5-6-5z"/><text font-family="Futura" font-size="14" lengthAdjust="spacingAndGlyphs" textLength="57" x="127.5" y="632.957">validated</text><circle cx="396" cy="602" fill="#FEFECE" filter="url(#a)" stroke="#a80036" stroke-width="2" r="12"/><path fill="#A80036" stroke="#a80036" d="M392 590l6-5-2 5 2 5-6-5z"/><text font-family="Futura" font-size="14" lengthAdjust="spacingAndGlyphs" textLength="32" x="380" y="632.957">initial</text><circle cx="316" cy="602" fill="#FEFECE" filter="url(#a)" stroke="#a80036" stroke-width="2" r="12"/><path fill="#A80036" stroke="#a80036" d="M312 590l6-5-2 5 2 5-6-5z"/><text font-family="Futura" font-size="14" lengthAdjust="spacingAndGlyphs" textLength="57" x="287.5" y="632.957">validated</text><circle cx="1138" cy="602" fill="#FEFECE" filter="url(#a)" stroke="#a80036" stroke-width="2" r="12"/><path fill="#A80036" stroke="#a80036" d="M1134 590l6-5-2 5 2 5-6-5z"/><text font-family="Futura" font-size="14" lengthAdjust="spacingAndGlyphs" textLength="46" x="1115" y="632.957">verified</text><circle cx="1051" cy="602" fill="#FEFECE" filter="url(#a)" stroke="#a80036" stroke-width="2" r="12"/><path fill="#A80036" stroke="#a80036" d="M1047 590l6-5-2 5 2 5-6-5z"/><text font-family="Futura" font-size="14" lengthAdjust="spacingAndGlyphs" textLength="57" x="1022.5" y="632.957">validated</text><circle cx="660" cy="347.5" fill="#FEFECE" filter="url(#a)" stroke="#a80036" stroke-width="2" r="12"/><path fill="#A80036" stroke="#a80036" d="M656 335.5l6-5-2 5 2 5-6-5z"/><text font-family="Futura" font-size="14" lengthAdjust="spacingAndGlyphs" textLength="58" x="631" y="378.457">delivered</text><circle cx="753" cy="347.5" fill="#FEFECE" filter="url(#a)" stroke="#a80036" stroke-width="2" r="12"/><path fill="#A80036" stroke="#a80036" d="M749 335.5l6-5-2 5 2 5-6-5z"/><text font-family="Futura" font-size="14" lengthAdjust="spacingAndGlyphs" textLength="58" x="724" y="378.457">accepted</text><circle cx="310" cy="32" fill="#FEFECE" filter="url(#a)" stroke="#a80036" stroke-width="2" r="8"/><path d="M310 40v27m-13-19h26m-13 19l-13 15m13-15l13 15" fill="none" filter="url(#a)" stroke="#a80036" stroke-width="2"/><text font-family="Futura" font-size="14" lengthAdjust="spacingAndGlyphs" textLength="27" x="296.5" y="103.957">PJM</text><circle cx="375" cy="32" fill="#FEFECE" filter="url(#a)" stroke="#a80036" stroke-width="2" r="8"/><path d="M375 40v27m-13-19h26m-13 19l-13 15m13-15l13 15" fill="none" filter="url(#a)" stroke="#a80036" stroke-width="2"/><text font-family="Futura" font-size="14" lengthAdjust="spacingAndGlyphs" textLength="22" x="364" y="103.957">WT</text><circle cx="440" cy="32" fill="#FEFECE" filter="url(#a)" stroke="#a80036" stroke-width="2" r="8"/><path d="M440 40v27m-13-19h26m-13 19l-13 15m13-15l13 15" fill="none" filter="url(#a)" stroke="#a80036" stroke-width="2"/><text font-family="Futura" font-size="14" lengthAdjust="spacingAndGlyphs" textLength="24" x="428" y="103.957">STK</text><circle cx="310" cy="178" fill="#FEFECE" filter="url(#a)" stroke="#a80036" stroke-width="2" r="8"/><path d="M310 186v27m-13-19h26m-13 19l-13 15m13-15l13 15" fill="none" filter="url(#a)" stroke="#a80036" stroke-width="2"/><text font-family="Futura" font-size="14" lengthAdjust="spacingAndGlyphs" textLength="33" x="293.5" y="249.957">ACQ</text><circle cx="377" cy="178" fill="#FEFECE" filter="url(#a)" stroke="#a80036" stroke-width="2" r="8"/><path d="M377 186v27m-13-19h26m-13 19l-13 15m13-15l13 15" fill="none" filter="url(#a)" stroke="#a80036" stroke-width="2"/><text font-family="Futura" font-size="14" lengthAdjust="spacingAndGlyphs" textLength="24" x="365" y="249.957">SYS</text><circle cx="442" cy="178" fill="#FEFECE" filter="url(#a)" stroke="#a80036" stroke-width="2" r="8"/><path d="M442 186v27m-13-19h26m-13 19l-13 15m13-15l13 15" fill="none" filter="url(#a)" stroke="#a80036" stroke-width="2"/><text font-family="Futura" font-size="14" lengthAdjust="spacingAndGlyphs" textLength="26" x="429" y="249.957">DES</text><circle cx="310" cy="324" fill="#FEFECE" filter="url(#a)" stroke="#a80036" stroke-width="2" r="8"/><path d="M310 332v27m-13-19h26m-13 19l-13 15m13-15l13 15" fill="none" filter="url(#a)" stroke="#a80036" stroke-width="2"/><text font-family="Futura" font-size="14" lengthAdjust="spacingAndGlyphs" textLength="22" x="299" y="395.957">IVV</text><path fill="#FEFECE" filter="url(#a)" stroke="#000" stroke-width="1.5" d="M494.5 44h135v41.594h-135z"/><path fill="#FEFECE" stroke="#000" stroke-width="1.5" d="M612.5 49v14h12v-8l-6-6h-6z"/><path stroke="#000" stroke-width="1.5" d="M618.5 49v6M624.5 55h-6"/><text font-family="Futura" font-size="14" lengthAdjust="spacingAndGlyphs" textLength="105" x="504.5" y="71.957">System Elements</text><path fill="#FEFECE" filter="url(#a)" stroke="#000" stroke-width="1.5" d="M903.5 336h187v41.594h-187z"/><path fill="#FEFECE" stroke="#000" stroke-width="1.5" d="M1073.5 341v14h12v-8l-6-6h-6z"/><path stroke="#000" stroke-width="1.5" d="M1079.5 341v6M1085.5 347h-6"/><text font-family="Futura" font-size="14" lengthAdjust="spacingAndGlyphs" textLength="157" x="913.5" y="363.957">IVV Procedures (verified)</text><path fill="#FEFECE" filter="url(#a)" stroke="#000" stroke-width="1.5" d="M1125.5 336h129v41.594h-129z"/><path fill="#FEFECE" stroke="#000" stroke-width="1.5" d="M1237.5 341v14h12v-8l-6-6h-6z"/><path stroke="#000" stroke-width="1.5" d="M1243.5 341v6M1249.5 347h-6"/><text font-family="Futura" font-size="14" lengthAdjust="spacingAndGlyphs" textLength="99" x="1135.5" y="363.957">StRS (validated)</text><path fill="#FEFECE" filter="url(#a)" stroke="#000" stroke-width="1.5" d="M1289.5 336h147v41.594h-147z"/><path fill="#FEFECE" stroke="#000" stroke-width="1.5" d="M1419.5 341v14h12v-8l-6-6h-6z"/><path stroke="#000" stroke-width="1.5" d="M1425.5 341v6M1431.5 347h-6"/><text font-family="Futura" font-size="14" lengthAdjust="spacingAndGlyphs" textLength="117" x="1299.5" y="363.957">Traceability Matrix</text><ellipse cx="562.179" cy="210.936" fill="#FEFECE" filter="url(#a)" rx="70.179" ry="16.436" stroke="#a80036" stroke-width="1.5"/><text font-family="Futura" font-size="14" lengthAdjust="spacingAndGlyphs" textLength="97" x="513.679" y="216.733">Review Product</text><ellipse cx="304.918" cy="489.784" fill="#FEFECE" filter="url(#a)" rx="111.918" ry="24.784" stroke="#a80036" stroke-width="1.5"/><text font-family="Futura" font-size="14" lengthAdjust="spacingAndGlyphs" textLength="197" x="206.418" y="495.58">V&amp;V Maintenance and Training</text><ellipse cx="1093.77" cy="490.154" fill="#FEFECE" filter="url(#a)" rx="71.27" ry="16.654" stroke="#a80036" stroke-width="1.5"/><text font-family="Futura" font-size="14" lengthAdjust="spacingAndGlyphs" textLength="100" x="1043.77" y="495.951">Validate System</text><ellipse cx="752.87" cy="210.974" fill="#FEFECE" filter="url(#a)" rx="85.37" ry="19.474" stroke="#a80036" stroke-width="1.5"/><text font-family="Futura" font-size="14" lengthAdjust="spacingAndGlyphs" textLength="136" x="684.87" y="216.771">Formalize Completion</text><ellipse cx="659.832" cy="489.766" fill="#FEFECE" filter="url(#a)" rx="136.832" ry="29.766" stroke="#a80036" stroke-width="1.5"/><text font-family="Futura" font-size="14" lengthAdjust="spacingAndGlyphs" textLength="251" x="534.332" y="495.563">Transition to Manufacturing and support</text><path d="M562 86.23v102.768" fill="none" stroke="#a80036" stroke-width="2"/><path fill="#A80036" stroke="#a80036" d="M562 194.284l4-9-4 4-4-4 4 9z"/><path d="M664.923 79.532a540.074 540.074 0 01-1.493 2.577C658.742 90.143 652.854 99.746 647 108c-21.376 30.14-49.08 62.673-66.949 82.938" fill="none" stroke="#a80036" stroke-width="2"/><path fill="#A80036" stroke="#a80036" d="M576.613 194.822l8.96-4.089-5.646.345-.345-5.646-2.969 9.39z"/><path d="M550.774 227.614C517.907 278.486 428.916 433.877 506 520c10.736 11.995 60.115-2.859 72 8 6.553 5.987 10.968 13.755 13.888 22.14a79.546 79.546 0 012.022 6.79" fill="none" stroke="#a80036" stroke-width="2"/><path fill="#A80036" stroke="#a80036" d="M593.91 556.93l1.684-9.705-2.904 4.855-4.855-2.904 6.075 7.753z"/><path d="M565.9 227.748l17.491 75.108 4.436 19.049.13.557" fill="none" stroke="#a80036" stroke-width="2"/><path fill="#A80036" stroke="#a80036" d="M587.957 322.462l1.855-9.672-2.99 4.803-4.802-2.989 5.937 7.858z"/><path d="M242.887 585.76C248.18 568.572 256.54 545.918 268 528c2.046-3.2 4.394-6.355 6.893-9.397" fill="none" stroke="#a80036" stroke-width="2"/><path fill="#A80036" stroke="#a80036" d="M278.38 514.532l-8.893 4.233 5.64-.436.436 5.64 2.817-9.437z"/><path d="M389.809 585.679C384.602 568.02 375.76 544.852 362 528c-3.272-4.007-7.078-7.75-11.142-11.202" fill="none" stroke="#a80036" stroke-width="2"/><path fill="#A80036" stroke="#a80036" d="M346.719 513.443l4.474 8.774-.59-5.626 5.626-.59-9.51-2.558z"/><path d="M233.393 509.276C222.48 514.232 211.905 520.386 203 528c-16.411 14.031-28.263 35.3-35.96 52.86" fill="none" stroke="#a80036" stroke-width="2"/><path fill="#A80036" stroke="#a80036" d="M164.979 585.704l7.203-6.715-5.246 2.114-2.115-5.246.158 9.847z"/><path d="M307.28 515.175l5.95 65.74" fill="none" stroke="#a80036" stroke-width="2"/><path fill="#A80036" stroke="#a80036" d="M313.686 585.94l3.172-9.325-3.623 4.345-4.344-3.623 4.795 8.602z"/><path d="M387.813 507.013C423.533 514.82 458.827 523.358 466 528c20.357 13.172 36.81 35.136 47.936 53.232" fill="none" stroke="#a80036" stroke-width="2"/><path fill="#A80036" stroke="#a80036" d="M516.649 585.742l-1.212-9.774-1.366 5.49-5.49-1.366 8.067 5.65z"/><path d="M1174.789 378.074l-65.996 91.432" fill="none" stroke="#a80036" stroke-width="2"/><path fill="#A80036" stroke="#a80036" d="M1105.811 473.636l8.511-4.956-5.584.902-.903-5.584-2.024 9.638z"/><path d="M1320.376 378.074l-191.431 94.649" fill="none" stroke="#a80036" stroke-width="2"/><path fill="#A80036" stroke="#a80036" d="M1124.32 475.01l9.84-.404-5.358-1.813 1.812-5.358-6.294 7.574z"/><path d="M1012.37 378.074l66.683 91.432" fill="none" stroke="#a80036" stroke-width="2"/><path fill="#A80036" stroke="#a80036" d="M1082.066 473.636l-2.072-9.628-.875 5.589-5.588-.875 8.535 4.914z"/><path d="M1128.67 585.739l-26.916-74.328" fill="none" stroke="#a80036" stroke-width="2"/><path fill="#A80036" stroke="#a80036" d="M1100.026 506.64l-.697 9.823 2.4-5.122 5.122 2.398-6.825-7.1z"/><path d="M1088.111 506.64l-26.262 74.205" fill="none" stroke="#a80036" stroke-width="2"/><path fill="#A80036" stroke="#a80036" d="M1060.117 585.739l6.774-7.15-5.106 2.436-2.436-5.105.768 9.819z"/><path d="M1059.591 504.483c-16.31 6.96-36.024 15.513-53.591 23.517-48.732 22.204-104.435 49.229-139.411 66.401" fill="none" stroke="#a80036" stroke-width="2"/><path fill="#A80036" stroke="#a80036" d="M862.005 596.653l9.842-.379-5.354-1.826 1.826-5.354-6.313 7.559z"/><path d="M745.214 84.69l6.246 101.328" fill="none" stroke="#a80036" stroke-width="2"/><path fill="#A80036" stroke="#a80036" d="M751.777 191.155l3.438-9.229-3.746 4.239-4.239-3.746 4.547 8.736z"/><path d="M676.317 331.384l61.506-96.558" fill="none" stroke="#a80036" stroke-width="2"/><path fill="#A80036" stroke="#a80036" d="M740.65 230.388l-8.209 5.441 5.523-1.224 1.225 5.523 1.461-9.74z"/><path d="M766.24 230.344C800.328 282.766 883.782 429.674 815 520c-8.1 10.637-18.745-.579-29 8-16.115 13.48-26.202 34.964-32.215 52.763" fill="none" stroke="#a80036" stroke-width="2"/><path fill="#A80036" stroke="#a80036" d="M752.195 585.676l6.576-7.332-5.037 2.575-2.574-5.037 1.035 9.794z"/><path d="M753 230.69v95.593" fill="none" stroke="#a80036" stroke-width="2"/><path fill="#A80036" stroke="#a80036" d="M753 331.5l4-9-4 4-4-4 4 9z"/><path d="M660 382.644v72.105" fill="none" stroke="#a80036" stroke-width="2"/><path fill="#A80036" stroke="#a80036" d="M660 459.779l4-9-4 4-4-4 4 9z"/><path d="M660 520.034v60.775" fill="none" stroke="#a80036" stroke-width="2"/><path fill="#A80036" stroke="#a80036" d="M660 585.918l4-9-4 4-4-4 4 9z"/></svg>