<?xml version="1.0" encoding="UTF-8" standalone="no"?><svg xmlns="http://www.w3.org/2000/svg" xmlns:xlink="http://www.w3.org/1999/xlink" contentScriptType="application/ecmascript" contentStyleType="text/css" height="105px" preserveAspectRatio="none" style="width:602px;height:105px;" version="1.1" viewBox="0 0 602 105" width="602px" zoomAndPan="magnify"><defs><filter height="300%" id="f19pq6abuhrjcj" width="300%" x="-1" y="-1"><feGaussianBlur result="blurOut" stdDeviation="2.0"/><feColorMatrix in="blurOut" result="blurOut2" type="matrix" values="0 0 0 0 0 0 0 0 0 0 0 0 0 0 0 0 0 0 .4 0"/><feOffset dx="4.0" dy="4.0" in="blurOut2" result="blurOut3"/><feBlend in="SourceGraphic" in2="blurOut3" mode="normal"/></filter></defs><g><ellipse cx="16" cy="51" fill="#000000" filter="url(#f19pq6abuhrjcj)" rx="10" ry="10" style="stroke: none; stroke-width: 1.0;"/><rect fill="#FEFECE" filter="url(#f19pq6abuhrjcj)" height="70.4688" rx="12.5" ry="12.5" style="stroke: #A80036; stroke-width: 1.5;" width="52" x="121" y="16"/><line style="stroke: #A80036; stroke-width: 1.5;" x1="121" x2="173" y1="44.5938" y2="44.5938"/><text fill="#000000" font-family="Futura" font-size="14" lengthAdjust="spacingAndGlyphs" textLength="32" x="131" y="35.957">initial</text><text fill="#000000" font-family="Futura" font-size="12" lengthAdjust="spacingAndGlyphs" textLength="21" x="126" y="62.4141">SYS</text><text fill="#000000" font-family="Futura" font-size="12" lengthAdjust="spacingAndGlyphs" textLength="23" x="126" y="78.3516">DES</text><rect fill="#FEFECE" filter="url(#f19pq6abuhrjcj)" height="70.4688" rx="12.5" ry="12.5" style="stroke: #A80036; stroke-width: 1.5;" width="66" x="245" y="16"/><line style="stroke: #A80036; stroke-width: 1.5;" x1="245" x2="311" y1="44.5938" y2="44.5938"/><text fill="#000000" font-family="Futura" font-size="14" lengthAdjust="spacingAndGlyphs" textLength="46" x="255" y="35.957">verified</text><text fill="#000000" font-family="Futura" font-size="12" lengthAdjust="spacingAndGlyphs" textLength="23" x="250" y="62.4141">PJM</text><text fill="#000000" font-family="Futura" font-size="12" lengthAdjust="spacingAndGlyphs" textLength="19" x="250" y="78.3516">WT</text><rect fill="#FEFECE" filter="url(#f19pq6abuhrjcj)" height="86.4063" rx="12.5" ry="12.5" style="stroke: #A80036; stroke-width: 1.5;" width="77" x="397.5" y="8"/><line style="stroke: #A80036; stroke-width: 1.5;" x1="397.5" x2="474.5" y1="36.5938" y2="36.5938"/><text fill="#000000" font-family="Futura" font-size="14" lengthAdjust="spacingAndGlyphs" textLength="57" x="407.5" y="27.957">validated</text><text fill="#000000" font-family="Futura" font-size="12" lengthAdjust="spacingAndGlyphs" textLength="28" x="402.5" y="54.4141">ACQ</text><text fill="#000000" font-family="Futura" font-size="12" lengthAdjust="spacingAndGlyphs" textLength="21" x="402.5" y="70.3516">STK</text><text fill="#000000" font-family="Futura" font-size="12" lengthAdjust="spacingAndGlyphs" textLength="21" x="402.5" y="86.2891">SYS</text><rect fill="#FEFECE" filter="url(#f19pq6abuhrjcj)" height="50" rx="12.5" ry="12.5" style="stroke: #A80036; stroke-width: 1.5;" width="80" x="510" y="26"/><line style="stroke: #A80036; stroke-width: 1.5;" x1="510" x2="590" y1="54.5938" y2="54.5938"/><text fill="#000000" font-family="Futura" font-size="14" lengthAdjust="spacingAndGlyphs" textLength="60" x="520" y="45.957">baselined</text><!--link *start to initial--><path d="M26.2794,51 C45.3014,51 86.692,51 115.6778,51 " fill="none" id="*start-initial" style="stroke: #A80036; stroke-width: 1.0;"/><polygon fill="#A80036" points="120.9375,51,111.9375,47,115.9375,51,111.9375,55,120.9375,51" style="stroke: #A80036; stroke-width: 1.0;"/><text fill="#000000" font-family="Futura" font-size="13" lengthAdjust="spacingAndGlyphs" textLength="58" x="44.5" y="43.8887">Elaborate</text><!--link initial to verified--><path d="M173.195,51 C192.2734,51 218.4117,51 239.8118,51 " fill="none" id="initial-verified" style="stroke: #A80036; stroke-width: 1.0;"/><polygon fill="#A80036" points="244.8612,51,235.8612,47,239.8612,51,235.8612,55,244.8612,51" style="stroke: #A80036; stroke-width: 1.0;"/><text fill="#000000" font-family="Futura" font-size="13" lengthAdjust="spacingAndGlyphs" textLength="35" x="191.5" y="43.8887">Verify</text><!--link verified to validated--><path d="M311.122,51 C334.7058,51 366.6375,51 392.3074,51 " fill="none" id="verified-validated" style="stroke: #A80036; stroke-width: 1.0;"/><polygon fill="#A80036" points="397.3536,51,388.3536,47,392.3536,51,388.3536,55,397.3536,51" style="stroke: #A80036; stroke-width: 1.0;"/><text fill="#000000" font-family="Futura" font-size="13" lengthAdjust="spacingAndGlyphs" textLength="50" x="329.25" y="43.8887">Validate</text><!--link validated to baselined--><path d="M474.7422,51 C484.6723,51 494.6024,51 504.5325,51 " fill="none" id="validated-baselined" style="stroke: #A80036; stroke-width: 1.0;"/><polygon fill="#A80036" points="509.7253,51,500.7253,47,504.7253,51,500.7253,55,509.7253,51" style="stroke: #A80036; stroke-width: 1.0;"/><!--
@startuml




skinparam handwritten false
skinparam defaultFontName Futura

skinparam handwritten false

[*] -> initial : Elaborate
initial : SYS
initial : DES
initial -> verified : Verify
verified : PJM
verified : WT
verified -> validated : Validate
validated : ACQ
validated : STK
validated : SYS
validated -> baselined

@enduml

PlantUML version 1.2019.00(Sun Jan 13 07:46:42 PST 2019)
(GPL source distribution)
Java Runtime: Java(TM) SE Runtime Environment
JVM: Java HotSpot(TM) 64-Bit Server VM
Java Version: 10.0.1+10
Operating System: Mac OS X
OS Version: 10.14.3
Default Encoding: UTF-8
Language: en
Country: US
--></g></svg>