<svg xmlns="http://www.w3.org/2000/svg" height="370" preserveAspectRatio="none" style="width:928px;height:370px" width="928"><defs><filter height="300%" id="a" width="300%" x="-1" y="-1"><feGaussianBlur result="blurOut" stdDeviation="2"/><feColorMatrix in="blurOut" result="blurOut2" values="0 0 0 0 0 0 0 0 0 0 0 0 0 0 0 0 0 0 .4 0"/><feOffset dx="4" dy="4" in="blurOut2" result="blurOut3"/><feBlend in="SourceGraphic" in2="blurOut3"/></filter></defs><path fill="#FFF" filter="url(#a)" stroke="#000" stroke-width="1.5" d="M355 271h230v88H355z"/><path fill="#FFF" stroke="#000" stroke-width="1.5" d="M568 276v14h12v-8l-6-6h-6z"/><path stroke="#000" stroke-width="1.5" d="M574 276v6M580 282h-6"/><text font-family="Futura" font-size="14" font-weight="bold" lengthAdjust="spacingAndGlyphs" textLength="64" x="438" y="287.966">IVV Plan</text><path fill="#FFF" filter="url(#a)" stroke="#000" stroke-width="1.5" d="M604 271h230v88H604z"/><path fill="#FFF" stroke="#000" stroke-width="1.5" d="M817 276v14h12v-8l-6-6h-6z"/><path stroke="#000" stroke-width="1.5" d="M823 276v6M829 282h-6"/><text font-family="Futura" font-size="14" font-weight="bold" lengthAdjust="spacingAndGlyphs" textLength="116" x="661" y="287.966">IVV Procedures</text><circle cx="477" cy="316" fill="#FEFECE" filter="url(#a)" stroke="#a80036" stroke-width="2" r="12"/><path fill="#A80036" stroke="#a80036" d="M473 304l6-5-2 5 2 5-6-5z"/><text font-family="Futura" font-size="14" lengthAdjust="spacingAndGlyphs" textLength="37" x="458.5" y="346.957">active</text><circle cx="554" cy="316" fill="#FEFECE" filter="url(#a)" stroke="#a80036" stroke-width="2" r="12"/><path fill="#A80036" stroke="#a80036" d="M550 304l6-5-2 5 2 5-6-5z"/><text font-family="Futura" font-size="14" lengthAdjust="spacingAndGlyphs" textLength="46" x="531" y="346.957">verified</text><circle cx="393" cy="316" fill="#FEFECE" filter="url(#a)" stroke="#a80036" stroke-width="2" r="12"/><path fill="#A80036" stroke="#a80036" d="M389 304l6-5-2 5 2 5-6-5z"/><text font-family="Futura" font-size="14" lengthAdjust="spacingAndGlyphs" textLength="60" x="363" y="346.957">published</text><circle cx="726" cy="316" fill="#FEFECE" filter="url(#a)" stroke="#a80036" stroke-width="2" r="12"/><path fill="#A80036" stroke="#a80036" d="M722 304l6-5-2 5 2 5-6-5z"/><text font-family="Futura" font-size="14" lengthAdjust="spacingAndGlyphs" textLength="37" x="707.5" y="346.957">active</text><circle cx="803" cy="316" fill="#FEFECE" filter="url(#a)" stroke="#a80036" stroke-width="2" r="12"/><path fill="#A80036" stroke="#a80036" d="M799 304l6-5-2 5 2 5-6-5z"/><text font-family="Futura" font-size="14" lengthAdjust="spacingAndGlyphs" textLength="46" x="780" y="346.957">verified</text><circle cx="642" cy="316" fill="#FEFECE" filter="url(#a)" stroke="#a80036" stroke-width="2" r="12"/><path fill="#A80036" stroke="#a80036" d="M638 304l6-5-2 5 2 5-6-5z"/><text font-family="Futura" font-size="14" lengthAdjust="spacingAndGlyphs" textLength="60" x="612" y="346.957">published</text><circle cx="21" cy="18" fill="#FEFECE" filter="url(#a)" stroke="#a80036" stroke-width="2" r="8"/><path d="M21 26v27M8 34h26M21 53L8 68m13-15l13 15" fill="none" filter="url(#a)" stroke="#a80036" stroke-width="2"/><text font-family="Futura" font-size="14" lengthAdjust="spacingAndGlyphs" textLength="24" x="9" y="89.957">SYS</text><circle cx="86" cy="18" fill="#FEFECE" filter="url(#a)" stroke="#a80036" stroke-width="2" r="8"/><path d="M86 26v27M73 34h26M86 53L73 68m13-15l13 15" fill="none" filter="url(#a)" stroke="#a80036" stroke-width="2"/><text font-family="Futura" font-size="14" lengthAdjust="spacingAndGlyphs" textLength="22" x="75" y="89.957">IVV</text><circle cx="21" cy="164" fill="#FEFECE" filter="url(#a)" stroke="#a80036" stroke-width="2" r="8"/><path d="M21 172v27M8 180h26m-13 19L8 214m13-15l13 15" fill="none" filter="url(#a)" stroke="#a80036" stroke-width="2"/><text font-family="Futura" font-size="14" lengthAdjust="spacingAndGlyphs" textLength="26" x="8" y="235.957">DES</text><circle cx="86" cy="164" fill="#FEFECE" filter="url(#a)" stroke="#a80036" stroke-width="2" r="8"/><path d="M86 172v27m-13-19h26m-13 19l-13 15m13-15l13 15" fill="none" filter="url(#a)" stroke="#a80036" stroke-width="2"/><text font-family="Futura" font-size="14" lengthAdjust="spacingAndGlyphs" textLength="27" x="72.5" y="235.957">DEV</text><path fill="#FEFECE" filter="url(#a)" stroke="#000" stroke-width="1.5" d="M136.5 30h133v41.594h-133z"/><path fill="#FEFECE" stroke="#000" stroke-width="1.5" d="M252.5 35v14h12v-8l-6-6h-6z"/><path stroke="#000" stroke-width="1.5" d="M258.5 35v6M264.5 41h-6"/><text font-family="Futura" font-size="14" lengthAdjust="spacingAndGlyphs" textLength="103" x="146.5" y="57.957">SERS (validated)</text><path fill="#FEFECE" filter="url(#a)" stroke="#000" stroke-width="1.5" d="M304.5 30h129v41.594h-129z"/><path fill="#FEFECE" stroke="#000" stroke-width="1.5" d="M416.5 35v14h12v-8l-6-6h-6z"/><path stroke="#000" stroke-width="1.5" d="M422.5 35v6M428.5 41h-6"/><text font-family="Futura" font-size="14" lengthAdjust="spacingAndGlyphs" textLength="99" x="314.5" y="57.957">StRS (validated)</text><path fill="#FEFECE" filter="url(#a)" stroke="#000" stroke-width="1.5" d="M468.5 30h139v41.594h-139z"/><path fill="#FEFECE" stroke="#000" stroke-width="1.5" d="M590.5 35v14h12v-8l-6-6h-6z"/><path stroke="#000" stroke-width="1.5" d="M596.5 35v6M602.5 41h-6"/><text font-family="Futura" font-size="14" lengthAdjust="spacingAndGlyphs" textLength="109" x="478.5" y="57.957">SysRS (validated)</text><path fill="#FEFECE" filter="url(#a)" stroke="#000" stroke-width="1.5" d="M642.5 30h129v41.594h-129z"/><path fill="#FEFECE" stroke="#000" stroke-width="1.5" d="M754.5 35v14h12v-8l-6-6h-6z"/><path stroke="#000" stroke-width="1.5" d="M760.5 35v6M766.5 41h-6"/><text font-family="Futura" font-size="14" lengthAdjust="spacingAndGlyphs" textLength="99" x="652.5" y="57.957">SDD (validated)</text><path fill="#FEFECE" filter="url(#a)" stroke="#000" stroke-width="1.5" d="M180.5 304.5h147v41.594h-147z"/><path fill="#FEFECE" stroke="#000" stroke-width="1.5" d="M310.5 309.5v14h12v-8l-6-6h-6z"/><path stroke="#000" stroke-width="1.5" d="M316.5 309.5v6M322.5 315.5h-6"/><text font-family="Futura" font-size="14" lengthAdjust="spacingAndGlyphs" textLength="117" x="190.5" y="332.457">Traceability Matrix</text><path fill="#FEFECE" filter="url(#a)" stroke="#000" stroke-width="1.5" d="M807 30h104v41.594H807z"/><path fill="#FEFECE" stroke="#000" stroke-width="1.5" d="M894 35v14h12v-8l-6-6h-6z"/><path stroke="#000" stroke-width="1.5" d="M900 35v6M906 41h-6"/><text font-family="Futura" font-size="14" lengthAdjust="spacingAndGlyphs" textLength="74" x="817" y="57.957">Project Plan</text><ellipse cx="381.912" cy="197.148" fill="#FEFECE" filter="url(#a)" rx="53.912" ry="16.148" stroke="#a80036" stroke-width="1.5"/><text font-family="Futura" font-size="14" lengthAdjust="spacingAndGlyphs" textLength="72" x="345.912" y="202.945">Update IVV</text><ellipse cx="524.912" cy="197.148" fill="#FEFECE" filter="url(#a)" rx="53.912" ry="16.148" stroke="#a80036" stroke-width="1.5"/><text font-family="Futura" font-size="14" lengthAdjust="spacingAndGlyphs" textLength="72" x="488.912" y="202.945">Update IVV</text><ellipse cx="725.918" cy="196.784" fill="#FEFECE" filter="url(#a)" rx="111.918" ry="24.784" stroke="#a80036" stroke-width="1.5"/><text font-family="Futura" font-size="14" lengthAdjust="spacingAndGlyphs" textLength="197" x="627.418" y="202.58">Verify IVV plan and procedures</text><path d="M515.316 72.23L402.267 178.032" fill="none" stroke="#a80036" stroke-width="2"/><path fill="#A80036" stroke="#a80036" d="M398.496 181.561l9.305-3.23-5.654-.186.187-5.654-3.838 9.07z"/><path d="M229.028 72.23l130.39 106.35" fill="none" stroke="#a80036" stroke-width="2"/><path fill="#A80036" stroke="#a80036" d="M363.327 181.77l-4.446-8.788.572 5.628-5.628.571 9.502 2.589z"/><path d="M370.89 72.23l9.19 103.217" fill="none" stroke="#a80036" stroke-width="2"/><path fill="#A80036" stroke="#a80036" d="M380.55 180.714l3.186-9.32-3.63 4.34-4.339-3.63 4.783 8.61z"/><path d="M383.37 213.015l7.015 81.938" fill="none" stroke="#a80036" stroke-width="2"/><path fill="#A80036" stroke="#a80036" d="M390.813 299.957l3.218-9.309-3.644 4.327-4.327-3.644 4.753 8.625z"/><path d="M402.81 211.865C416.716 221.17 435.74 232.73 454 240c58.806 23.413 84.355-.941 139 31 10.765 6.292 20.469 15.754 28.346 25.036" fill="none" stroke="#a80036" stroke-width="2"/><path fill="#A80036" stroke="#a80036" d="M624.608 299.993l-2.637-9.489-.543 5.631-5.63-.542 8.81 4.4z"/><path d="M536.11 72.23l-9.19 103.217" fill="none" stroke="#a80036" stroke-width="2"/><path fill="#A80036" stroke="#a80036" d="M526.45 180.714l4.783-8.61-4.34 3.63-3.629-4.34 3.186 9.32z"/><path d="M680.536 72.23L547.692 178.796" fill="none" stroke="#a80036" stroke-width="2"/><path fill="#A80036" stroke="#a80036" d="M543.727 181.977l9.523-2.511-5.623-.617.617-5.623-4.517 8.751z"/><path d="M519.018 213.015l-30.608 81.938" fill="none" stroke="#a80036" stroke-width="2"/><path fill="#A80036" stroke="#a80036" d="M486.541 299.957l6.897-7.032-5.147 2.348-2.347-5.147.597 9.83z"/><path d="M547.018 211.853C560.935 220.805 579.532 231.987 597 240c39.602 18.165 58.432 4.48 93 31 8.505 6.525 15.638 15.662 21.252 24.593" fill="none" stroke="#a80036" stroke-width="2"/><path fill="#A80036" stroke="#a80036" d="M713.885 299.948l-1.234-9.771-1.353 5.493-5.493-1.354 8.08 5.632z"/><path d="M503.735 211.91C490.031 220.997 471.553 232.303 454 240c-45.343 19.884-61.514 11.444-107 31-19.486 8.378-39.948 20.02-56.702 30.395" fill="none" stroke="#a80036" stroke-width="2"/><path fill="#A80036" stroke="#a80036" d="M285.675 304.284l9.752-1.377-5.512-1.273 1.273-5.512-5.513 8.161z"/><path d="M839.66 72.23l-87.8 96.382" fill="none" stroke="#a80036" stroke-width="2"/><path fill="#A80036" stroke="#a80036" d="M748.477 172.326l9.018-3.96-5.65.264-.264-5.651-3.104 9.347z"/><path d="M489.81 299.74c6.13-10.138 14.305-21.146 24.19-28.74 6.08-4.67 84.755-31.55 144.502-51.575" fill="none" stroke="#a80036" stroke-width="2"/><path fill="#A80036" stroke="#a80036" d="M663.494 217.753l-9.805-.934 5.064 2.522-2.523 5.063 7.264-6.651z"/><path d="M726 299.601v-72.383" fill="none" stroke="#a80036" stroke-width="2"/><path fill="#A80036" stroke="#a80036" d="M726 222.081l-4 9 4-4 4 4-4-9z"/><path d="M565.337 72.23l125.2 97.23" fill="none" stroke="#a80036" stroke-width="2"/><path fill="#A80036" stroke="#a80036" d="M694.872 172.826l-4.655-8.68.706 5.613-5.613.706 9.562 2.36z"/><path d="M709.763 72.23l12.295 94.48" fill="none" stroke="#a80036" stroke-width="2"/><path fill="#A80036" stroke="#a80036" d="M722.723 171.822l2.806-9.44-3.45 4.482-4.484-3.45 5.128 8.409z"/><path d="M676.083 219.51C650.55 232.426 619.906 250.207 596 271c-8.21 7.141-15.896 16.1-22.39 24.68" fill="none" stroke="#a80036" stroke-width="2"/><path fill="#A80036" stroke="#a80036" d="M570.52 299.853l8.571-4.852-5.595.833-.834-5.595-2.142 9.614z"/><path d="M741.03 222.081l43.845 73.172" fill="none" stroke="#a80036" stroke-width="2"/><path fill="#A80036" stroke="#a80036" d="M787.48 299.601l-1.194-9.776-1.375 5.487-5.487-1.375 8.057 5.664z"/></svg>