<svg xmlns="http://www.w3.org/2000/svg" height="105" preserveAspectRatio="none" style="width:602px;height:105px" width="602"><defs><filter height="300%" id="a" width="300%" x="-1" y="-1"><feGaussianBlur result="blurOut" stdDeviation="2"/><feColorMatrix in="blurOut" result="blurOut2" values="0 0 0 0 0 0 0 0 0 0 0 0 0 0 0 0 0 0 .4 0"/><feOffset dx="4" dy="4" in="blurOut2" result="blurOut3"/><feBlend in="SourceGraphic" in2="blurOut3"/></filter></defs><circle cx="16" cy="51" filter="url(#a)" r="10"/><rect fill="#FEFECE" filter="url(#a)" height="70.469" rx="12.5" ry="12.5" width="52" x="121" y="16" stroke="#a80036" stroke-width="1.5"/><path stroke="#a80036" stroke-width="1.5" d="M121 44.594h52"/><text font-family="Futura" font-size="14" lengthAdjust="spacingAndGlyphs" textLength="32" x="131" y="35.957">initial</text><text font-family="Futura" font-size="12" lengthAdjust="spacingAndGlyphs" textLength="21" x="126" y="62.414">SYS</text><text font-family="Futura" font-size="12" lengthAdjust="spacingAndGlyphs" textLength="23" x="126" y="78.352">DES</text><rect fill="#FEFECE" filter="url(#a)" height="70.469" rx="12.5" ry="12.5" width="66" x="245" y="16" stroke="#a80036" stroke-width="1.5"/><path stroke="#a80036" stroke-width="1.5" d="M245 44.594h66"/><text font-family="Futura" font-size="14" lengthAdjust="spacingAndGlyphs" textLength="46" x="255" y="35.957">verified</text><text font-family="Futura" font-size="12" lengthAdjust="spacingAndGlyphs" textLength="23" x="250" y="62.414">PJM</text><text font-family="Futura" font-size="12" lengthAdjust="spacingAndGlyphs" textLength="19" x="250" y="78.352">WT</text><rect fill="#FEFECE" filter="url(#a)" height="86.406" rx="12.5" ry="12.5" width="77" x="397.5" y="8" stroke="#a80036" stroke-width="1.5"/><path stroke="#a80036" stroke-width="1.5" d="M397.5 36.594h77"/><text font-family="Futura" font-size="14" lengthAdjust="spacingAndGlyphs" textLength="57" x="407.5" y="27.957">validated</text><text font-family="Futura" font-size="12" lengthAdjust="spacingAndGlyphs" textLength="28" x="402.5" y="54.414">ACQ</text><text font-family="Futura" font-size="12" lengthAdjust="spacingAndGlyphs" textLength="21" x="402.5" y="70.352">STK</text><text font-family="Futura" font-size="12" lengthAdjust="spacingAndGlyphs" textLength="21" x="402.5" y="86.289">SYS</text><rect fill="#FEFECE" filter="url(#a)" height="50" rx="12.5" ry="12.5" width="80" x="510" y="26" stroke="#a80036" stroke-width="1.5"/><path stroke="#a80036" stroke-width="1.5" d="M510 54.594h80"/><text font-family="Futura" font-size="14" lengthAdjust="spacingAndGlyphs" textLength="60" x="520" y="45.957">baselined</text><path d="M26.28 51h89.398" fill="none" stroke="#a80036"/><path fill="#A80036" stroke="#a80036" d="M120.938 51l-9-4 4 4-4 4 9-4z"/><text font-family="Futura" font-size="13" lengthAdjust="spacingAndGlyphs" textLength="58" x="44.5" y="43.889">Elaborate</text><path d="M173.195 51h66.617" fill="none" stroke="#a80036"/><path fill="#A80036" stroke="#a80036" d="M244.861 51l-9-4 4 4-4 4 9-4z"/><text font-family="Futura" font-size="13" lengthAdjust="spacingAndGlyphs" textLength="35" x="191.5" y="43.889">Verify</text><path d="M311.122 51h81.185" fill="none" stroke="#a80036"/><path fill="#A80036" stroke="#a80036" d="M397.354 51l-9-4 4 4-4 4 9-4z"/><text font-family="Futura" font-size="13" lengthAdjust="spacingAndGlyphs" textLength="50" x="329.25" y="43.889">Validate</text><path d="M474.742 51h29.79" fill="none" stroke="#a80036"/><path fill="#A80036" stroke="#a80036" d="M509.725 51l-9-4 4 4-4 4 9-4z"/></svg>