<?xml version="1.0" encoding="UTF-8" standalone="no"?><svg xmlns="http://www.w3.org/2000/svg" xmlns:xlink="http://www.w3.org/1999/xlink" contentScriptType="application/ecmascript" contentStyleType="text/css" height="370px" preserveAspectRatio="none" style="width:764px;height:370px;" version="1.1" viewBox="0 0 764 370" width="764px" zoomAndPan="magnify"><defs><filter height="300%" id="faborfmmnw44j" width="300%" x="-1" y="-1"><feGaussianBlur result="blurOut" stdDeviation="2.0"/><feColorMatrix in="blurOut" result="blurOut2" type="matrix" values="0 0 0 0 0 0 0 0 0 0 0 0 0 0 0 0 0 0 .4 0"/><feOffset dx="4.0" dy="4.0" in="blurOut2" result="blurOut3"/><feBlend in="SourceGraphic" in2="blurOut3" mode="normal"/></filter></defs><g><!--cluster StRS--><rect fill="#FFFFFF" filter="url(#faborfmmnw44j)" height="88" style="stroke: #000000; stroke-width: 1.5;" width="240" x="489" y="271"/><polygon fill="#FFFFFF" points="712,276,712,290,724,290,724,282,718,276,712,276" style="stroke: #000000; stroke-width: 1.5;"/><line style="stroke: #000000; stroke-width: 1.5;" x1="718" x2="718" y1="276" y2="282"/><line style="stroke: #000000; stroke-width: 1.5;" x1="724" x2="718" y1="282" y2="282"/><text fill="#000000" font-family="Futura" font-size="14" font-weight="bold" lengthAdjust="spacingAndGlyphs" textLength="33" x="592.5" y="287.966">StRS</text><!--entity PROD_STRS_INITIATED--><ellipse cx="522" cy="316" fill="#FEFECE" filter="url(#faborfmmnw44j)" rx="12" ry="12" style="stroke: #A80036; stroke-width: 2.0;"/><polygon fill="#A80036" points="518,304,524,299,522,304,524,309,518,304" style="stroke: #A80036; stroke-width: 1.0;"/><text fill="#000000" font-family="Futura" font-size="14" lengthAdjust="spacingAndGlyphs" textLength="49" x="497.5" y="346.957">initiated</text><!--entity PROD_STRS_VERIFIED--><ellipse cx="605" cy="316" fill="#FEFECE" filter="url(#faborfmmnw44j)" rx="12" ry="12" style="stroke: #A80036; stroke-width: 2.0;"/><polygon fill="#A80036" points="601,304,607,299,605,304,607,309,601,304" style="stroke: #A80036; stroke-width: 1.0;"/><text fill="#000000" font-family="Futura" font-size="14" lengthAdjust="spacingAndGlyphs" textLength="46" x="582" y="346.957">verified</text><!--entity PROD_STRS_VALIDATED--><ellipse cx="692" cy="316" fill="#FEFECE" filter="url(#faborfmmnw44j)" rx="12" ry="12" style="stroke: #A80036; stroke-width: 2.0;"/><polygon fill="#A80036" points="688,304,694,299,692,304,694,309,688,304" style="stroke: #A80036; stroke-width: 1.0;"/><text fill="#000000" font-family="Futura" font-size="14" lengthAdjust="spacingAndGlyphs" textLength="57" x="663.5" y="346.957">validated</text><!--entity SYS--><ellipse cx="21" cy="18" fill="#FEFECE" filter="url(#faborfmmnw44j)" rx="8" ry="8" style="stroke: #A80036; stroke-width: 2.0;"/><path d="M21,26 L21,53 M8,34 L34,34 M21,53 L8,68 M21,53 L34,68 " fill="none" filter="url(#faborfmmnw44j)" style="stroke: #A80036; stroke-width: 2.0;"/><text fill="#000000" font-family="Futura" font-size="14" lengthAdjust="spacingAndGlyphs" textLength="24" x="9" y="89.957">SYS</text><!--entity ACQ--><ellipse cx="88" cy="18" fill="#FEFECE" filter="url(#faborfmmnw44j)" rx="8" ry="8" style="stroke: #A80036; stroke-width: 2.0;"/><path d="M88,26 L88,53 M75,34 L101,34 M88,53 L75,68 M88,53 L101,68 " fill="none" filter="url(#faborfmmnw44j)" style="stroke: #A80036; stroke-width: 2.0;"/><text fill="#000000" font-family="Futura" font-size="14" lengthAdjust="spacingAndGlyphs" textLength="33" x="71.5" y="89.957">ACQ</text><!--entity STK--><ellipse cx="155" cy="18" fill="#FEFECE" filter="url(#faborfmmnw44j)" rx="8" ry="8" style="stroke: #A80036; stroke-width: 2.0;"/><path d="M155,26 L155,53 M142,34 L168,34 M155,53 L142,68 M155,53 L168,68 " fill="none" filter="url(#faborfmmnw44j)" style="stroke: #A80036; stroke-width: 2.0;"/><text fill="#000000" font-family="Futura" font-size="14" lengthAdjust="spacingAndGlyphs" textLength="24" x="143" y="89.957">STK</text><!--entity PJM--><ellipse cx="21" cy="164" fill="#FEFECE" filter="url(#faborfmmnw44j)" rx="8" ry="8" style="stroke: #A80036; stroke-width: 2.0;"/><path d="M21,172 L21,199 M8,180 L34,180 M21,199 L8,214 M21,199 L34,214 " fill="none" filter="url(#faborfmmnw44j)" style="stroke: #A80036; stroke-width: 2.0;"/><text fill="#000000" font-family="Futura" font-size="14" lengthAdjust="spacingAndGlyphs" textLength="27" x="7.5" y="235.957">PJM</text><!--entity WT--><ellipse cx="86" cy="164" fill="#FEFECE" filter="url(#faborfmmnw44j)" rx="8" ry="8" style="stroke: #A80036; stroke-width: 2.0;"/><path d="M86,172 L86,199 M73,180 L99,180 M86,199 L73,214 M86,199 L99,214 " fill="none" filter="url(#faborfmmnw44j)" style="stroke: #A80036; stroke-width: 2.0;"/><text fill="#000000" font-family="Futura" font-size="14" lengthAdjust="spacingAndGlyphs" textLength="22" x="75" y="235.957">WT</text><!--entity PROD_PP--><rect fill="#FEFECE" filter="url(#faborfmmnw44j)" height="41.5938" style="stroke: #000000; stroke-width: 1.5;" width="104" x="205" y="30"/><polygon fill="#FEFECE" points="292,35,292,49,304,49,304,41,298,35,292,35" style="stroke: #000000; stroke-width: 1.5;"/><line style="stroke: #000000; stroke-width: 1.5;" x1="298" x2="298" y1="35" y2="41"/><line style="stroke: #000000; stroke-width: 1.5;" x1="304" x2="298" y1="41" y2="41"/><text fill="#000000" font-family="Futura" font-size="14" lengthAdjust="spacingAndGlyphs" textLength="74" x="215" y="57.957">Project Plan</text><!--entity PROD_SEMP--><rect fill="#FEFECE" filter="url(#faborfmmnw44j)" height="41.5938" style="stroke: #000000; stroke-width: 1.5;" width="67" x="344.5" y="30"/><polygon fill="#FEFECE" points="394.5,35,394.5,49,406.5,49,406.5,41,400.5,35,394.5,35" style="stroke: #000000; stroke-width: 1.5;"/><line style="stroke: #000000; stroke-width: 1.5;" x1="400.5" x2="400.5" y1="35" y2="41"/><line style="stroke: #000000; stroke-width: 1.5;" x1="406.5" x2="400.5" y1="41" y2="41"/><text fill="#000000" font-family="Futura" font-size="14" lengthAdjust="spacingAndGlyphs" textLength="37" x="354.5" y="57.957">SEMP</text><!--entity PROD_SOW_REVIEWED--><rect fill="#FEFECE" filter="url(#faborfmmnw44j)" height="41.5938" style="stroke: #000000; stroke-width: 1.5;" width="133" x="446.5" y="30"/><polygon fill="#FEFECE" points="562.5,35,562.5,49,574.5,49,574.5,41,568.5,35,562.5,35" style="stroke: #000000; stroke-width: 1.5;"/><line style="stroke: #000000; stroke-width: 1.5;" x1="568.5" x2="568.5" y1="35" y2="41"/><line style="stroke: #000000; stroke-width: 1.5;" x1="574.5" x2="568.5" y1="41" y2="41"/><text fill="#000000" font-family="Futura" font-size="14" lengthAdjust="spacingAndGlyphs" textLength="103" x="456.5" y="57.957">SoW (reviewed)</text><ellipse cx="378.2198" cy="196.944" fill="#FEFECE" filter="url(#faborfmmnw44j)" rx="77.7198" ry="17.944" style="stroke: #A80036; stroke-width: 1.5;"/><text fill="#000000" font-family="Futura" font-size="14" lengthAdjust="spacingAndGlyphs" textLength="117" x="319.7198" y="202.7408">Elicit Requirements</text><ellipse cx="542.7904" cy="197.1478" fill="#FEFECE" filter="url(#faborfmmnw44j)" rx="51.7904" ry="16.1478" style="stroke: #A80036; stroke-width: 1.5;"/><text fill="#000000" font-family="Futura" font-size="14" lengthAdjust="spacingAndGlyphs" textLength="69" x="508.2904" y="202.9446">Verify StRS</text><ellipse cx="692.1899" cy="197.1478" fill="#FEFECE" filter="url(#faborfmmnw44j)" rx="61.6899" ry="16.1478" style="stroke: #A80036; stroke-width: 1.5;"/><text fill="#000000" font-family="Futura" font-size="14" lengthAdjust="spacingAndGlyphs" textLength="83" x="650.6899" y="202.9446">Validate StRS</text><!--link PROD_PP to SR2_1--><path d="M274.5944,72.2297 C297.3345,99.668 336.7362,147.2106 359.778,175.0131 " fill="none" id="PROD_PP-SR2_1" style="stroke: #A80036; stroke-width: 2.0;"/><polygon fill="#A80036" points="363.055,178.9671,360.3917,169.4852,359.8644,175.1174,354.2322,174.5901,363.055,178.9671" style="stroke: #A80036; stroke-width: 1.0;"/><!--link PROD_SOW_REVIEWED to SR2_1--><path d="M493.3698,72.2297 C467.9987,99.668 424.0381,147.2106 398.3303,175.0131 " fill="none" id="PROD_SOW_REVIEWED-SR2_1" style="stroke: #A80036; stroke-width: 2.0;"/><polygon fill="#A80036" points="394.6742,178.9671,403.7213,175.0747,398.0687,175.296,397.8475,169.6435,394.6742,178.9671" style="stroke: #A80036; stroke-width: 1.0;"/><!--link PROD_SEMP to SR2_1--><path d="M378,72.2297 C378,99.2182 378,145.6572 378,173.63 " fill="none" id="PROD_SEMP-SR2_1" style="stroke: #A80036; stroke-width: 2.0;"/><polygon fill="#A80036" points="378,178.9671,382,169.9671,378,173.9671,374,169.9671,378,178.9671" style="stroke: #A80036; stroke-width: 1.0;"/><!--link SR2_1 to PROD_STRS_INITIATED--><path d="M397.7206,214.5979 C422.3886,236.6107 464.8201,274.4748 493.1423,299.7485 " fill="none" id="SR2_1-PROD_STRS_INITIATED" style="stroke: #A80036; stroke-width: 2.0;"/><polygon fill="#A80036" points="497.2148,303.3826,493.1628,294.4059,493.4841,300.0536,487.8364,300.375,497.2148,303.3826" style="stroke: #A80036; stroke-width: 1.0;"/><!--link PROD_STRS_INITIATED to SR2_2--><path d="M526.1744,299.9565 C530.0913,275.9892 535.8802,240.5663 539.5445,218.1442 " fill="none" id="PROD_STRS_INITIATED-SR2_2" style="stroke: #A80036; stroke-width: 2.0;"/><polygon fill="#A80036" points="540.3828,213.0148,534.9836,221.2518,539.5764,217.9493,542.8789,222.5421,540.3828,213.0148" style="stroke: #A80036; stroke-width: 1.0;"/><!--link SR2_2 to PROD_STRS_VERIFIED--><path d="M550.727,213.0148 C560.6282,233.5358 577.9938,269.5276 590.4164,295.2743 " fill="none" id="SR2_2-PROD_STRS_VERIFIED" style="stroke: #A80036; stroke-width: 2.0;"/><polygon fill="#A80036" points="592.6755,299.9565,592.3671,290.1125,590.5027,295.4533,585.1619,293.5889,592.6755,299.9565" style="stroke: #A80036; stroke-width: 1.0;"/><!--link PROD_STRS_VERIFIED to SR2_3--><path d="M622.294,299.9565 C638.7263,275.6858 663.1121,239.6677 678.2567,217.299 " fill="none" id="PROD_STRS_VERIFIED-SR2_3" style="stroke: #A80036; stroke-width: 2.0;"/><polygon fill="#A80036" points="681.1573,213.0148,672.7992,218.2246,678.354,217.1551,679.4236,222.7099,681.1573,213.0148" style="stroke: #A80036; stroke-width: 1.0;"/><!--link SR2_3 to PROD_STRS_VALIDATED--><path d="M692,213.0148 C692,233.4507 692,269.2292 692,294.9533 " fill="none" id="SR2_3-PROD_STRS_VALIDATED" style="stroke: #A80036; stroke-width: 2.0;"/><polygon fill="#A80036" points="692,299.9565,696,290.9565,692,294.9565,688,290.9565,692,299.9565" style="stroke: #A80036; stroke-width: 1.0;"/><!--link SYS to ACQ--><!--link ACQ to STK--><!--link SYS to PJM--><!--link PJM to WT--><!--
@startuml



skinparam handwritten false
skinparam defaultFontName Futura


actor SYS
actor ACQ
actor STK
actor PJM
actor WT

artifact "Project Plan" as PROD_PP
artifact "SEMP" as PROD_SEMP
artifact "SoW (reviewed)" as PROD_SOW_REVIEWED
artifact "StRS" {
control "initiated" as PROD_STRS_INITIATED
control "verified" as PROD_STRS_VERIFIED
control "validated" as PROD_STRS_VALIDATED
}

usecase "Elicit Requirements" as SR2_1
PROD_PP ==> SR2_1
PROD_SOW_REVIEWED ==> SR2_1
PROD_SEMP ==> SR2_1
SR2_1 ==> PROD_STRS_INITIATED

usecase "Verify StRS" as SR2_2
PROD_STRS_INITIATED ==> SR2_2
SR2_2 ==> PROD_STRS_VERIFIED

usecase "Validate StRS" as SR2_3
PROD_STRS_VERIFIED ==> SR2_3
SR2_3 ==> PROD_STRS_VALIDATED

@enduml

PlantUML version 1.2019.00(Sun Jan 13 07:46:42 PST 2019)
(GPL source distribution)
Java Runtime: Java(TM) SE Runtime Environment
JVM: Java HotSpot(TM) 64-Bit Server VM
Java Version: 10.0.1+10
Operating System: Mac OS X
OS Version: 10.14.3
Default Encoding: UTF-8
Language: en
Country: US
--></g></svg>