<svg xmlns="http://www.w3.org/2000/svg" height="384" preserveAspectRatio="none" style="width:743px;height:384px" width="743"><defs><filter height="300%" id="a" width="300%" x="-1" y="-1"><feGaussianBlur result="blurOut" stdDeviation="2"/><feColorMatrix in="blurOut" result="blurOut2" values="0 0 0 0 0 0 0 0 0 0 0 0 0 0 0 0 0 0 .4 0"/><feOffset dx="4" dy="4" in="blurOut2" result="blurOut3"/><feBlend in="SourceGraphic" in2="blurOut3"/></filter></defs><path fill="#FFF" filter="url(#a)" stroke="#000" stroke-width="1.5" d="M318.5 16.5h104v76h-104z"/><path fill="#FFF" stroke="#000" stroke-width="1.5" d="M405.5 21.5v14h12v-8l-6-6h-6z"/><path stroke="#000" stroke-width="1.5" d="M411.5 21.5v6M417.5 27.5h-6"/><text font-family="Futura" font-size="14" font-weight="bold" lengthAdjust="spacingAndGlyphs" textLength="88" x="326.5" y="33.466">Project Plan</text><path fill="#FFF" filter="url(#a)" stroke="#000" stroke-width="1.5" d="M305.5 285h234v88h-234z"/><path fill="#FFF" stroke="#000" stroke-width="1.5" d="M522.5 290v14h12v-8l-6-6h-6z"/><path stroke="#000" stroke-width="1.5" d="M528.5 290v6M534.5 296h-6"/><text font-family="Futura" font-size="14" font-weight="bold" lengthAdjust="spacingAndGlyphs" textLength="57" x="394" y="301.966">Product</text><path fill="#FEFECE" filter="url(#a)" stroke="#a80036" stroke-width="1.5" d="M334.5 45.5h72v38.594h-72z"/><path fill="#FEFECE" stroke="#a80036" stroke-width="1.5" d="M329.5 50.5h10v5h-10zM329.5 74.094h10v5h-10z"/><text font-family="Futura" font-size="14" lengthAdjust="spacingAndGlyphs" textLength="52" x="344.5" y="70.457">Delivery</text><circle cx="329.5" cy="330" fill="#FEFECE" filter="url(#a)" stroke="#a80036" stroke-width="2" r="12"/><path fill="#A80036" stroke="#a80036" d="M325.5 318l6-5-2 5 2 5-6-5z"/><text font-family="Futura" font-size="14" lengthAdjust="spacingAndGlyphs" textLength="32" x="313.5" y="360.957">initial</text><circle cx="502.5" cy="330" fill="#FEFECE" filter="url(#a)" stroke="#a80036" stroke-width="2" r="12"/><path fill="#A80036" stroke="#a80036" d="M498.5 318l6-5-2 5 2 5-6-5z"/><text font-family="Futura" font-size="14" lengthAdjust="spacingAndGlyphs" textLength="58" x="473.5" y="360.957">delivered</text><circle cx="409.5" cy="330" fill="#FEFECE" filter="url(#a)" stroke="#a80036" stroke-width="2" r="12"/><path fill="#A80036" stroke="#a80036" d="M405.5 318l6-5-2 5 2 5-6-5z"/><text font-family="Futura" font-size="14" lengthAdjust="spacingAndGlyphs" textLength="58" x="380.5" y="360.957">accepted</text><circle cx="22.5" cy="32" fill="#FEFECE" filter="url(#a)" stroke="#a80036" stroke-width="2" r="8"/><path d="M22.5 40v27m-13-19h26m-13 19l-13 15m13-15l13 15" fill="none" filter="url(#a)" stroke="#a80036" stroke-width="2"/><text font-family="Futura" font-size="14" lengthAdjust="spacingAndGlyphs" textLength="27" x="9" y="103.957">PJM</text><circle cx="87.5" cy="32" fill="#FEFECE" filter="url(#a)" stroke="#a80036" stroke-width="2" r="8"/><path d="M87.5 40v27m-13-19h26m-13 19l-13 15m13-15l13 15" fill="none" filter="url(#a)" stroke="#a80036" stroke-width="2"/><text font-family="Futura" font-size="14" lengthAdjust="spacingAndGlyphs" textLength="22" x="76.5" y="103.957">WT</text><circle cx="22.5" cy="178" fill="#FEFECE" filter="url(#a)" stroke="#a80036" stroke-width="2" r="8"/><path d="M22.5 186v27m-13-19h26m-13 19l-13 15m13-15l13 15" fill="none" filter="url(#a)" stroke="#a80036" stroke-width="2"/><text font-family="Futura" font-size="14" lengthAdjust="spacingAndGlyphs" textLength="33" x="6" y="249.957">ACQ</text><path fill="#FEFECE" filter="url(#a)" stroke="#000" stroke-width="1.5" d="M441.5 44h104v41.594h-104z"/><path fill="#FEFECE" stroke="#000" stroke-width="1.5" d="M528.5 49v14h12v-8l-6-6h-6z"/><path stroke="#000" stroke-width="1.5" d="M534.5 49v6M540.5 55h-6"/><text font-family="Futura" font-size="14" lengthAdjust="spacingAndGlyphs" textLength="74" x="451.5" y="71.957">Project Plan</text><path fill="#FEFECE" filter="url(#a)" stroke="#000" stroke-width="1.5" d="M138 44h135v41.594H138z"/><path fill="#FEFECE" stroke="#000" stroke-width="1.5" d="M256 49v14h12v-8l-6-6h-6z"/><path stroke="#000" stroke-width="1.5" d="M262 49v6M268 55h-6"/><text font-family="Futura" font-size="14" lengthAdjust="spacingAndGlyphs" textLength="105" x="148" y="71.957">System Elements</text><path fill="#FEFECE" filter="url(#a)" stroke="#000" stroke-width="1.5" d="M73 318.5h205v41.594H73z"/><path fill="#FEFECE" stroke="#000" stroke-width="1.5" d="M261 323.5v14h12v-8l-6-6h-6z"/><path stroke="#000" stroke-width="1.5" d="M267 323.5v6M273 329.5h-6"/><text font-family="Futura" font-size="14" lengthAdjust="spacingAndGlyphs" textLength="175" x="83" y="346.457">Product Acceptance Record</text><path fill="#FEFECE" filter="url(#a)" stroke="#000" stroke-width="1.5" d="M580.5 44h146v41.594h-146z"/><path fill="#FEFECE" stroke="#000" stroke-width="1.5" d="M709.5 49v14h12v-8l-6-6h-6z"/><path stroke="#000" stroke-width="1.5" d="M715.5 49v6M721.5 55h-6"/><text font-family="Futura" font-size="14" lengthAdjust="spacingAndGlyphs" textLength="116" x="590.5" y="71.957">System (validated)</text><ellipse cx="205.679" cy="210.936" fill="#FEFECE" filter="url(#a)" rx="70.179" ry="16.436" stroke="#a80036" stroke-width="1.5"/><text font-family="Futura" font-size="14" lengthAdjust="spacingAndGlyphs" textLength="97" x="157.179" y="216.733">Review Product</text><ellipse cx="590.622" cy="211.024" fill="#FEFECE" filter="url(#a)" rx="73.122" ry="17.024" stroke="#a80036" stroke-width="1.5"/><text font-family="Futura" font-size="14" lengthAdjust="spacingAndGlyphs" textLength="105" x="538.122" y="216.821">Perform Delivery</text><ellipse cx="396.37" cy="210.974" fill="#FEFECE" filter="url(#a)" rx="85.37" ry="19.474" stroke="#a80036" stroke-width="1.5"/><text font-family="Futura" font-size="14" lengthAdjust="spacingAndGlyphs" textLength="136" x="328.37" y="216.771">Formalize Completion</text><path d="M205.5 86.23v102.768" fill="none" stroke="#a80036" stroke-width="2"/><path fill="#A80036" stroke="#a80036" d="M205.5 194.284l4-9-4 4-4-4 4 9z"/><path d="M465.048 86.074C454.474 93.46 442.2 101.52 430.5 108c-58.147 32.21-76.68 32.069-137 60-17.62 8.159-37.029 17.594-53.126 25.544" fill="none" stroke="#a80036" stroke-width="2"/><path fill="#A80036" stroke="#a80036" d="M235.49 195.96l9.84-.405-5.358-1.812 1.811-5.359-6.293 7.577z"/><path d="M201.64 227.536c-5.075 21.734-14.044 60.154-20.04 85.84" fill="none" stroke="#a80036" stroke-width="2"/><path fill="#A80036" stroke="#a80036" d="M180.441 318.334l5.942-7.855-4.805 2.986-2.986-4.805 1.85 9.674z"/><path d="M228.72 226.824c19.308 13.883 46.768 35.368 66.78 58.176 6.454 7.356 12.479 16.072 17.61 24.352" fill="none" stroke="#a80036" stroke-width="2"/><path fill="#A80036" stroke="#a80036" d="M315.865 313.896l-1.247-9.77-1.346 5.495-5.494-1.346 8.087 5.621z"/><path d="M507.605 86.23L576.27 189.58" fill="none" stroke="#a80036" stroke-width="2"/><path fill="#A80036" stroke="#a80036" d="M579.106 193.85l-1.65-9.71-1.118 5.545-5.545-1.118 8.313 5.283z"/><path d="M644.34 86.23l-44.45 103.008" fill="none" stroke="#a80036" stroke-width="2"/><path fill="#A80036" stroke="#a80036" d="M597.9 193.85l7.239-6.68-5.258 2.089-2.087-5.258.106 9.849z"/><path d="M578.995 227.8l-55.958 81.711" fill="none" stroke="#a80036" stroke-width="2"/><path fill="#A80036" stroke="#a80036" d="M520.087 313.82l8.385-5.166-5.56 1.04-1.04-5.56-1.785 9.685z"/><path d="M374.007 84.69l18.044 101.328" fill="none" stroke="#a80036" stroke-width="2"/><path fill="#A80036" stroke="#a80036" d="M392.966 191.155l2.36-9.561-3.237 4.639-4.64-3.237 5.517 8.16z"/><path d="M481.396 313.917l-65.68-79.622" fill="none" stroke="#a80036" stroke-width="2"/><path fill="#A80036" stroke="#a80036" d="M412.37 230.238l2.64 9.488.541-5.631 5.63.54-8.812-4.397z"/><path d="M364.836 229.41l-148.62 86.416" fill="none" stroke="#a80036" stroke-width="2"/><path fill="#A80036" stroke="#a80036" d="M211.883 318.345l9.791-1.066-5.468-1.447 1.447-5.469-5.77 7.982z"/><path d="M398.474 230.516l7.893 78.013" fill="none" stroke="#a80036" stroke-width="2"/><path fill="#A80036" stroke="#a80036" d="M406.877 313.569l3.073-9.357-3.577 4.382-4.382-3.577 4.886 8.552z"/></svg>