<svg xmlns="http://www.w3.org/2000/svg" height="121" preserveAspectRatio="none" style="width:649px;height:121px" width="649"><defs><filter height="300%" id="a" width="300%" x="-1" y="-1"><feGaussianBlur result="blurOut" stdDeviation="2"/><feColorMatrix in="blurOut" result="blurOut2" values="0 0 0 0 0 0 0 0 0 0 0 0 0 0 0 0 0 0 .4 0"/><feOffset dx="4" dy="4" in="blurOut2" result="blurOut3"/><feBlend in="SourceGraphic" in2="blurOut3"/></filter></defs><circle cx="16" cy="59" filter="url(#a)" r="10"/><rect fill="#FEFECE" filter="url(#a)" height="86.406" rx="12.5" ry="12.5" width="52" x="168" y="16" stroke="#a80036" stroke-width="1.5"/><path stroke="#a80036" stroke-width="1.5" d="M168 44.594h52"/><text font-family="Futura" font-size="14" lengthAdjust="spacingAndGlyphs" textLength="32" x="178" y="35.957">initial</text><text font-family="Futura" font-size="12" lengthAdjust="spacingAndGlyphs" textLength="21" x="173" y="62.414">SYS</text><text font-family="Futura" font-size="12" lengthAdjust="spacingAndGlyphs" textLength="28" x="173" y="78.352">ACQ</text><text font-family="Futura" font-size="12" lengthAdjust="spacingAndGlyphs" textLength="21" x="173" y="94.289">STK</text><rect fill="#FEFECE" filter="url(#a)" height="70.469" rx="12.5" ry="12.5" width="66" x="292" y="24" stroke="#a80036" stroke-width="1.5"/><path stroke="#a80036" stroke-width="1.5" d="M292 52.594h66"/><text font-family="Futura" font-size="14" lengthAdjust="spacingAndGlyphs" textLength="46" x="302" y="43.957">verified</text><text font-family="Futura" font-size="12" lengthAdjust="spacingAndGlyphs" textLength="23" x="297" y="70.414">PJM</text><text font-family="Futura" font-size="12" lengthAdjust="spacingAndGlyphs" textLength="19" x="297" y="86.352">WT</text><rect fill="#FEFECE" filter="url(#a)" height="102.344" rx="12.5" ry="12.5" width="77" x="444.5" y="8" stroke="#a80036" stroke-width="1.5"/><path stroke="#a80036" stroke-width="1.5" d="M444.5 36.594h77"/><text font-family="Futura" font-size="14" lengthAdjust="spacingAndGlyphs" textLength="57" x="454.5" y="27.957">validated</text><text font-family="Futura" font-size="12" lengthAdjust="spacingAndGlyphs" textLength="23" x="449.5" y="54.414">PJM</text><text font-family="Futura" font-size="12" lengthAdjust="spacingAndGlyphs" textLength="21" x="449.5" y="70.352">SYS</text><text font-family="Futura" font-size="12" lengthAdjust="spacingAndGlyphs" textLength="28" x="449.5" y="86.289">ACQ</text><text font-family="Futura" font-size="12" lengthAdjust="spacingAndGlyphs" textLength="21" x="449.5" y="102.227">STK</text><rect fill="#FEFECE" filter="url(#a)" height="50" rx="12.5" ry="12.5" width="80" x="557" y="34" stroke="#a80036" stroke-width="1.5"/><path stroke="#a80036" stroke-width="1.5" d="M557 62.594h80"/><text font-family="Futura" font-size="14" lengthAdjust="spacingAndGlyphs" textLength="60" x="567" y="53.957">baselined</text><path d="M26.08 59h136.54" fill="none" stroke="#a80036"/><path fill="#A80036" stroke="#a80036" d="M167.719 59l-9-4 4 4-4 4 9-4z"/><text font-family="Futura" font-size="13" lengthAdjust="spacingAndGlyphs" textLength="105" x="44.5" y="51.889">Elicit requirements</text><path d="M220.195 59h66.617" fill="none" stroke="#a80036"/><path fill="#A80036" stroke="#a80036" d="M291.861 59l-9-4 4 4-4 4 9-4z"/><text font-family="Futura" font-size="13" lengthAdjust="spacingAndGlyphs" textLength="35" x="238.5" y="51.889">Verify</text><path d="M358.122 59h81.185" fill="none" stroke="#a80036"/><path fill="#A80036" stroke="#a80036" d="M444.354 59l-9-4 4 4-4 4 9-4z"/><text font-family="Futura" font-size="13" lengthAdjust="spacingAndGlyphs" textLength="50" x="376.25" y="51.889">Validate</text><path d="M521.742 59h29.79" fill="none" stroke="#a80036"/><path fill="#A80036" stroke="#a80036" d="M556.725 59l-9-4 4 4-4 4 9-4z"/></svg>