<?xml version="1.0" encoding="UTF-8" standalone="no"?><svg xmlns="http://www.w3.org/2000/svg" xmlns:xlink="http://www.w3.org/1999/xlink" contentScriptType="application/ecmascript" contentStyleType="text/css" height="384px" preserveAspectRatio="none" style="width:743px;height:384px;" version="1.1" viewBox="0 0 743 384" width="743px" zoomAndPan="magnify"><defs><filter height="300%" id="frsp7mr9boifi" width="300%" x="-1" y="-1"><feGaussianBlur result="blurOut" stdDeviation="2.0"/><feColorMatrix in="blurOut" result="blurOut2" type="matrix" values="0 0 0 0 0 0 0 0 0 0 0 0 0 0 0 0 0 0 .4 0"/><feOffset dx="4.0" dy="4.0" in="blurOut2" result="blurOut3"/><feBlend in="SourceGraphic" in2="blurOut3" mode="normal"/></filter></defs><g><!--cluster Project Plan--><rect fill="#FFFFFF" filter="url(#frsp7mr9boifi)" height="76" style="stroke: #000000; stroke-width: 1.5;" width="104" x="318.5" y="16.5"/><polygon fill="#FFFFFF" points="405.5,21.5,405.5,35.5,417.5,35.5,417.5,27.5,411.5,21.5,405.5,21.5" style="stroke: #000000; stroke-width: 1.5;"/><line style="stroke: #000000; stroke-width: 1.5;" x1="411.5" x2="411.5" y1="21.5" y2="27.5"/><line style="stroke: #000000; stroke-width: 1.5;" x1="417.5" x2="411.5" y1="27.5" y2="27.5"/><text fill="#000000" font-family="Futura" font-size="14" font-weight="bold" lengthAdjust="spacingAndGlyphs" textLength="88" x="326.5" y="33.466">Project Plan</text><!--cluster Product--><rect fill="#FFFFFF" filter="url(#frsp7mr9boifi)" height="88" style="stroke: #000000; stroke-width: 1.5;" width="234" x="305.5" y="285"/><polygon fill="#FFFFFF" points="522.5,290,522.5,304,534.5,304,534.5,296,528.5,290,522.5,290" style="stroke: #000000; stroke-width: 1.5;"/><line style="stroke: #000000; stroke-width: 1.5;" x1="528.5" x2="528.5" y1="290" y2="296"/><line style="stroke: #000000; stroke-width: 1.5;" x1="534.5" x2="528.5" y1="296" y2="296"/><text fill="#000000" font-family="Futura" font-size="14" font-weight="bold" lengthAdjust="spacingAndGlyphs" textLength="57" x="394" y="301.966">Product</text><!--entity PROD_PP_DI--><rect fill="#FEFECE" filter="url(#frsp7mr9boifi)" height="38.5938" style="stroke: #A80036; stroke-width: 1.5;" width="72" x="334.5" y="45.5"/><rect fill="#FEFECE" height="5" style="stroke: #A80036; stroke-width: 1.5;" width="10" x="329.5" y="50.5"/><rect fill="#FEFECE" height="5" style="stroke: #A80036; stroke-width: 1.5;" width="10" x="329.5" y="74.0938"/><text fill="#000000" font-family="Futura" font-size="14" lengthAdjust="spacingAndGlyphs" textLength="52" x="344.5" y="70.457">Delivery</text><!--entity PROD_PRODUCT--><ellipse cx="329.5" cy="330" fill="#FEFECE" filter="url(#frsp7mr9boifi)" rx="12" ry="12" style="stroke: #A80036; stroke-width: 2.0;"/><polygon fill="#A80036" points="325.5,318,331.5,313,329.5,318,331.5,323,325.5,318" style="stroke: #A80036; stroke-width: 1.0;"/><text fill="#000000" font-family="Futura" font-size="14" lengthAdjust="spacingAndGlyphs" textLength="32" x="313.5" y="360.957">initial</text><!--entity PROD_PRODUCT_DELIVERED--><ellipse cx="502.5" cy="330" fill="#FEFECE" filter="url(#frsp7mr9boifi)" rx="12" ry="12" style="stroke: #A80036; stroke-width: 2.0;"/><polygon fill="#A80036" points="498.5,318,504.5,313,502.5,318,504.5,323,498.5,318" style="stroke: #A80036; stroke-width: 1.0;"/><text fill="#000000" font-family="Futura" font-size="14" lengthAdjust="spacingAndGlyphs" textLength="58" x="473.5" y="360.957">delivered</text><!--entity PROD_PRODUCT_ACCEPTED--><ellipse cx="409.5" cy="330" fill="#FEFECE" filter="url(#frsp7mr9boifi)" rx="12" ry="12" style="stroke: #A80036; stroke-width: 2.0;"/><polygon fill="#A80036" points="405.5,318,411.5,313,409.5,318,411.5,323,405.5,318" style="stroke: #A80036; stroke-width: 1.0;"/><text fill="#000000" font-family="Futura" font-size="14" lengthAdjust="spacingAndGlyphs" textLength="58" x="380.5" y="360.957">accepted</text><!--entity PJM--><ellipse cx="22.5" cy="32" fill="#FEFECE" filter="url(#frsp7mr9boifi)" rx="8" ry="8" style="stroke: #A80036; stroke-width: 2.0;"/><path d="M22.5,40 L22.5,67 M9.5,48 L35.5,48 M22.5,67 L9.5,82 M22.5,67 L35.5,82 " fill="none" filter="url(#frsp7mr9boifi)" style="stroke: #A80036; stroke-width: 2.0;"/><text fill="#000000" font-family="Futura" font-size="14" lengthAdjust="spacingAndGlyphs" textLength="27" x="9" y="103.957">PJM</text><!--entity WT--><ellipse cx="87.5" cy="32" fill="#FEFECE" filter="url(#frsp7mr9boifi)" rx="8" ry="8" style="stroke: #A80036; stroke-width: 2.0;"/><path d="M87.5,40 L87.5,67 M74.5,48 L100.5,48 M87.5,67 L74.5,82 M87.5,67 L100.5,82 " fill="none" filter="url(#frsp7mr9boifi)" style="stroke: #A80036; stroke-width: 2.0;"/><text fill="#000000" font-family="Futura" font-size="14" lengthAdjust="spacingAndGlyphs" textLength="22" x="76.5" y="103.957">WT</text><!--entity ACQ--><ellipse cx="22.5" cy="178" fill="#FEFECE" filter="url(#frsp7mr9boifi)" rx="8" ry="8" style="stroke: #A80036; stroke-width: 2.0;"/><path d="M22.5,186 L22.5,213 M9.5,194 L35.5,194 M22.5,213 L9.5,228 M22.5,213 L35.5,228 " fill="none" filter="url(#frsp7mr9boifi)" style="stroke: #A80036; stroke-width: 2.0;"/><text fill="#000000" font-family="Futura" font-size="14" lengthAdjust="spacingAndGlyphs" textLength="33" x="6" y="249.957">ACQ</text><!--entity PROD_PP--><rect fill="#FEFECE" filter="url(#frsp7mr9boifi)" height="41.5938" style="stroke: #000000; stroke-width: 1.5;" width="104" x="441.5" y="44"/><polygon fill="#FEFECE" points="528.5,49,528.5,63,540.5,63,540.5,55,534.5,49,528.5,49" style="stroke: #000000; stroke-width: 1.5;"/><line style="stroke: #000000; stroke-width: 1.5;" x1="534.5" x2="534.5" y1="49" y2="55"/><line style="stroke: #000000; stroke-width: 1.5;" x1="540.5" x2="534.5" y1="55" y2="55"/><text fill="#000000" font-family="Futura" font-size="14" lengthAdjust="spacingAndGlyphs" textLength="74" x="451.5" y="71.957">Project Plan</text><!--entity PROD_SE_ALL--><rect fill="#FEFECE" filter="url(#frsp7mr9boifi)" height="41.5938" style="stroke: #000000; stroke-width: 1.5;" width="135" x="138" y="44"/><polygon fill="#FEFECE" points="256,49,256,63,268,63,268,55,262,49,256,49" style="stroke: #000000; stroke-width: 1.5;"/><line style="stroke: #000000; stroke-width: 1.5;" x1="262" x2="262" y1="49" y2="55"/><line style="stroke: #000000; stroke-width: 1.5;" x1="268" x2="262" y1="55" y2="55"/><text fill="#000000" font-family="Futura" font-size="14" lengthAdjust="spacingAndGlyphs" textLength="105" x="148" y="71.957">System Elements</text><!--entity PROD_ACCEPTANCE--><rect fill="#FEFECE" filter="url(#frsp7mr9boifi)" height="41.5938" style="stroke: #000000; stroke-width: 1.5;" width="205" x="73" y="318.5"/><polygon fill="#FEFECE" points="261,323.5,261,337.5,273,337.5,273,329.5,267,323.5,261,323.5" style="stroke: #000000; stroke-width: 1.5;"/><line style="stroke: #000000; stroke-width: 1.5;" x1="267" x2="267" y1="323.5" y2="329.5"/><line style="stroke: #000000; stroke-width: 1.5;" x1="273" x2="267" y1="329.5" y2="329.5"/><text fill="#000000" font-family="Futura" font-size="14" lengthAdjust="spacingAndGlyphs" textLength="175" x="83" y="346.457">Product Acceptance Record</text><!--entity PROD_SYSTEM_VALIDATED--><rect fill="#FEFECE" filter="url(#frsp7mr9boifi)" height="41.5938" style="stroke: #000000; stroke-width: 1.5;" width="146" x="580.5" y="44"/><polygon fill="#FEFECE" points="709.5,49,709.5,63,721.5,63,721.5,55,715.5,49,709.5,49" style="stroke: #000000; stroke-width: 1.5;"/><line style="stroke: #000000; stroke-width: 1.5;" x1="715.5" x2="715.5" y1="49" y2="55"/><line style="stroke: #000000; stroke-width: 1.5;" x1="721.5" x2="715.5" y1="55" y2="55"/><text fill="#000000" font-family="Futura" font-size="14" lengthAdjust="spacingAndGlyphs" textLength="116" x="590.5" y="71.957">System (validated)</text><ellipse cx="205.6792" cy="210.9358" fill="#FEFECE" filter="url(#frsp7mr9boifi)" rx="70.1792" ry="16.4358" style="stroke: #A80036; stroke-width: 1.5;"/><text fill="#000000" font-family="Futura" font-size="14" lengthAdjust="spacingAndGlyphs" textLength="97" x="157.1792" y="216.7327">Review Product</text><ellipse cx="590.6217" cy="211.0243" fill="#FEFECE" filter="url(#frsp7mr9boifi)" rx="73.1217" ry="17.0243" style="stroke: #A80036; stroke-width: 1.5;"/><text fill="#000000" font-family="Futura" font-size="14" lengthAdjust="spacingAndGlyphs" textLength="105" x="538.1217" y="216.8212">Perform Delivery</text><ellipse cx="396.3699" cy="210.974" fill="#FEFECE" filter="url(#frsp7mr9boifi)" rx="85.3699" ry="19.474" style="stroke: #A80036; stroke-width: 1.5;"/><text fill="#000000" font-family="Futura" font-size="14" lengthAdjust="spacingAndGlyphs" textLength="136" x="328.3699" y="216.7709">Formalize Completion</text><!--link PROD_SE_ALL to SR6_1--><path d="M205.5,86.2297 C205.5,113.6631 205.5,161.1935 205.5,188.9981 " fill="none" id="PROD_SE_ALL-SR6_1" style="stroke: #A80036; stroke-width: 2.0;"/><polygon fill="#A80036" points="205.5,194.2842,209.5,185.2842,205.5,189.2842,201.5,185.2842,205.5,194.2842" style="stroke: #A80036; stroke-width: 1.0;"/><!--link PROD_PP to SR6_1--><path d="M465.0481,86.0744 C454.4739,93.459 442.1997,101.5192 430.5,108 C372.3526,140.2094 353.8194,140.069 293.5,168 C275.8807,176.1587 256.4712,185.5942 240.3741,193.5443 " fill="none" id="PROD_PP-SR6_1" style="stroke: #A80036; stroke-width: 2.0;"/><polygon fill="#A80036" points="235.4904,195.9608,245.3309,195.5546,239.9718,193.7434,241.783,188.3843,235.4904,195.9608" style="stroke: #A80036; stroke-width: 1.0;"/><!--link SR6_1 to PROD_ACCEPTANCE--><path d="M201.6394,227.5361 C196.5655,249.2696 187.5957,287.69 181.5992,313.3752 " fill="none" id="SR6_1-PROD_ACCEPTANCE" style="stroke: #A80036; stroke-width: 2.0;"/><polygon fill="#A80036" points="180.4415,318.3337,186.3829,310.4788,181.5782,313.4646,178.5924,308.66,180.4415,318.3337" style="stroke: #A80036; stroke-width: 1.0;"/><!--link SR6_1 to PROD_PRODUCT--><path d="M228.7194,226.8239 C248.0282,240.7066 275.4876,262.1924 295.5,285 C301.9543,292.3558 307.9786,301.0722 313.1094,309.3523 " fill="none" id="SR6_1-PROD_PRODUCT" style="stroke: #A80036; stroke-width: 2.0;"/><polygon fill="#A80036" points="315.865,313.896,314.6183,304.1264,313.2723,309.6207,307.7779,308.2747,315.865,313.896" style="stroke: #A80036; stroke-width: 1.0;"/><!--link PROD_PP to SR6_5--><path d="M507.6046,86.2297 C525.959,113.8559 557.8538,161.8625 576.2698,189.5813 " fill="none" id="PROD_PP-SR6_5" style="stroke: #A80036; stroke-width: 2.0;"/><polygon fill="#A80036" points="579.1055,193.8496,577.4566,184.1398,576.3385,189.685,570.7932,188.567,579.1055,193.8496" style="stroke: #A80036; stroke-width: 1.0;"/><!--link PROD_SYSTEM_VALIDATED to SR6_5--><path d="M644.3393,86.2297 C632.4674,113.7422 611.8735,161.4677 599.8904,189.2381 " fill="none" id="PROD_SYSTEM_VALIDATED-SR6_5" style="stroke: #A80036; stroke-width: 2.0;"/><polygon fill="#A80036" points="597.9005,193.8496,605.1389,187.1709,599.8815,189.2588,597.7936,184.0013,597.9005,193.8496" style="stroke: #A80036; stroke-width: 1.0;"/><!--link SR6_5 to PROD_PRODUCT_DELIVERED--><path d="M578.9955,227.7991 C564.8144,248.5069 540.458,284.0728 523.0372,309.511 " fill="none" id="SR6_5-PROD_PRODUCT_DELIVERED" style="stroke: #A80036; stroke-width: 2.0;"/><polygon fill="#A80036" points="520.0867,313.8194,528.4722,308.6538,522.9118,309.694,521.8716,304.1336,520.0867,313.8194" style="stroke: #A80036; stroke-width: 1.0;"/><!--link PROD_PP_DI to PM4_1--><path d="M374.0065,84.6902 C378.678,110.9226 386.9457,157.3491 392.0511,186.0179 " fill="none" id="PROD_PP_DI-PM4_1" style="stroke: #A80036; stroke-width: 2.0;"/><polygon fill="#A80036" points="392.966,191.1555,395.326,181.5936,392.0893,186.233,387.4499,182.9963,392.966,191.1555" style="stroke: #A80036; stroke-width: 1.0;"/><!--link PROD_PRODUCT_DELIVERED to PM4_1--><path d="M481.3964,313.9168 C462.2477,290.7036 434.2542,256.7681 415.7164,234.2953 " fill="none" id="PROD_PRODUCT_DELIVERED-PM4_1" style="stroke: #A80036; stroke-width: 2.0;"/><polygon fill="#A80036" points="412.3693,230.2377,415.0106,239.7258,415.551,234.0948,421.1819,234.6351,412.3693,230.2377" style="stroke: #A80036; stroke-width: 1.0;"/><!--link PM4_1 to PROD_ACCEPTANCE--><path d="M364.8361,229.4109 C325.719,252.1555 259.0992,290.8914 216.2156,315.826 " fill="none" id="PM4_1-PROD_ACCEPTANCE" style="stroke: #A80036; stroke-width: 2.0;"/><polygon fill="#A80036" points="211.8834,318.345,221.6744,317.279,216.2058,315.8317,217.6531,310.3631,211.8834,318.345" style="stroke: #A80036; stroke-width: 1.0;"/><!--link PM4_1 to PROD_PRODUCT_ACCEPTED--><path d="M398.4744,230.5164 C400.5699,251.2294 403.9111,284.2562 406.3668,308.5294 " fill="none" id="PM4_1-PROD_PRODUCT_ACCEPTED" style="stroke: #A80036; stroke-width: 2.0;"/><polygon fill="#A80036" points="406.8766,313.5686,409.9501,304.2116,406.3732,308.594,401.9908,305.0171,406.8766,313.5686" style="stroke: #A80036; stroke-width: 1.0;"/><!--link PJM to WT--><!--link PJM to ACQ--><!--
@startuml



skinparam handwritten false
skinparam defaultFontName Futura


actor PJM
actor WT
actor ACQ

artifact "Project Plan" as PROD_PP
artifact "System Elements" as PROD_SE_ALL
artifact "Product Acceptance Record" as PROD_ACCEPTANCE
artifact "Project Plan" as PROD_PP
artifact "System (validated)" as PROD_SYSTEM_VALIDATED

artifact "Project Plan" {
component "Delivery" as PROD_PP_DI
}
artifact "Product" {
control "initial" as PROD_PRODUCT
control "delivered" as PROD_PRODUCT_DELIVERED
control "accepted" as PROD_PRODUCT_ACCEPTED
}

usecase "Review Product" as SR6_1
PROD_SE_ALL ==> SR6_1
PROD_PP ==> SR6_1
SR6_1 ==> PROD_ACCEPTANCE
SR6_1 ==> PROD_PRODUCT

usecase "Perform Delivery" as SR6_5
PROD_PP ==> SR6_5
PROD_SYSTEM_VALIDATED ==> SR6_5
SR6_5 ==> PROD_PRODUCT_DELIVERED

usecase "Formalize Completion" as PM4_1
PROD_PP_DI ==> PM4_1
PROD_PRODUCT_DELIVERED ==> PM4_1
PM4_1 ==> PROD_ACCEPTANCE
PM4_1 ==> PROD_PRODUCT_ACCEPTED

@enduml

PlantUML version 1.2019.00(Sun Jan 13 07:46:42 PST 2019)
(GPL source distribution)
Java Runtime: Java(TM) SE Runtime Environment
JVM: Java HotSpot(TM) 64-Bit Server VM
Java Version: 10.0.1+10
Operating System: Mac OS X
OS Version: 10.14.3
Default Encoding: UTF-8
Language: en
Country: US
--></g></svg>