<svg xmlns="http://www.w3.org/2000/svg" height="456" preserveAspectRatio="none" style="width:778px;height:456px" width="778"><defs><filter height="300%" id="a" width="300%" x="-1" y="-1"><feGaussianBlur result="blurOut" stdDeviation="2"/><feColorMatrix in="blurOut" result="blurOut2" values="0 0 0 0 0 0 0 0 0 0 0 0 0 0 0 0 0 0 .4 0"/><feOffset dx="4" dy="4" in="blurOut2" result="blurOut3"/><feBlend in="SourceGraphic" in2="blurOut3"/></filter></defs><path fill="#FFF" filter="url(#a)" stroke="#000" stroke-width="1.5" d="M208 271h296v88H208z"/><path fill="#FFF" stroke="#000" stroke-width="1.5" d="M487 276v14h12v-8l-6-6h-6z"/><path stroke="#000" stroke-width="1.5" d="M493 276v6M499 282h-6"/><text font-family="Futura" font-size="14" font-weight="bold" lengthAdjust="spacingAndGlyphs" textLength="31" x="340.5" y="287.966">SDD</text><path fill="#FEFECE" filter="url(#a)" stroke="#a80036" stroke-width="1.5" d="M216.5 306h81v38.594h-81z"/><path fill="#FEFECE" stroke="#a80036" stroke-width="1.5" d="M211.5 311h10v5h-10zM211.5 334.594h10v5h-10z"/><text font-family="Futura" font-size="14" lengthAdjust="spacingAndGlyphs" textLength="61" x="226.5" y="330.957">functional</text><path fill="#FEFECE" filter="url(#a)" stroke="#a80036" stroke-width="1.5" d="M332.5 306h71v38.594h-71z"/><path fill="#FEFECE" stroke="#a80036" stroke-width="1.5" d="M327.5 311h10v5h-10zM327.5 334.594h10v5h-10z"/><text font-family="Futura" font-size="14" lengthAdjust="spacingAndGlyphs" textLength="51" x="342.5" y="330.957">physical</text><circle cx="467" cy="316" fill="#FEFECE" filter="url(#a)" stroke="#a80036" stroke-width="2" r="12"/><path fill="#A80036" stroke="#a80036" d="M463 304l6-5-2 5 2 5-6-5z"/><text font-family="Futura" font-size="14" lengthAdjust="spacingAndGlyphs" textLength="57" x="438.5" y="346.957">validated</text><circle cx="95" cy="18" fill="#FEFECE" filter="url(#a)" stroke="#a80036" stroke-width="2" r="8"/><path d="M95 26v27M82 34h26M95 53L82 68m13-15l13 15" fill="none" filter="url(#a)" stroke="#a80036" stroke-width="2"/><text font-family="Futura" font-size="14" lengthAdjust="spacingAndGlyphs" textLength="26" x="82" y="89.957">DES</text><circle cx="160" cy="18" fill="#FEFECE" filter="url(#a)" stroke="#a80036" stroke-width="2" r="8"/><path d="M160 26v27m-13-19h26m-13 19l-13 15m13-15l13 15" fill="none" filter="url(#a)" stroke="#a80036" stroke-width="2"/><text font-family="Futura" font-size="14" lengthAdjust="spacingAndGlyphs" textLength="24" x="148" y="89.957">SYS</text><circle cx="95" cy="164" fill="#FEFECE" filter="url(#a)" stroke="#a80036" stroke-width="2" r="8"/><path d="M95 172v27m-13-19h26m-13 19l-13 15m13-15l13 15" fill="none" filter="url(#a)" stroke="#a80036" stroke-width="2"/><text font-family="Futura" font-size="14" lengthAdjust="spacingAndGlyphs" textLength="27" x="81.5" y="235.957">DEV</text><path fill="#FEFECE" filter="url(#a)" stroke="#000" stroke-width="1.5" d="M6 304.5h104v41.594H6z"/><path fill="#FEFECE" stroke="#000" stroke-width="1.5" d="M93 309.5v14h12v-8l-6-6h-6z"/><path stroke="#000" stroke-width="1.5" d="M99 309.5v6M105 315.5h-6"/><text font-family="Futura" font-size="14" lengthAdjust="spacingAndGlyphs" textLength="74" x="16" y="332.457">Project Plan</text><path fill="#FEFECE" filter="url(#a)" stroke="#000" stroke-width="1.5" d="M217.5 30h139v41.594h-139z"/><path fill="#FEFECE" stroke="#000" stroke-width="1.5" d="M339.5 35v14h12v-8l-6-6h-6z"/><path stroke="#000" stroke-width="1.5" d="M345.5 35v6M351.5 41h-6"/><text font-family="Futura" font-size="14" lengthAdjust="spacingAndGlyphs" textLength="109" x="227.5" y="57.957">SysRS (validated)</text><path fill="#FEFECE" filter="url(#a)" stroke="#000" stroke-width="1.5" d="M614.5 304.5h147v41.594h-147z"/><path fill="#FEFECE" stroke="#000" stroke-width="1.5" d="M744.5 309.5v14h12v-8l-6-6h-6z"/><path stroke="#000" stroke-width="1.5" d="M750.5 309.5v6M756.5 315.5h-6"/><text font-family="Futura" font-size="14" lengthAdjust="spacingAndGlyphs" textLength="117" x="624.5" y="332.457">Traceability Matrix</text><path fill="#FEFECE" filter="url(#a)" stroke="#000" stroke-width="1.5" d="M531 304.5h48v41.594h-48z"/><path fill="#FEFECE" stroke="#000" stroke-width="1.5" d="M562 309.5v14h12v-8l-6-6h-6z"/><path stroke="#000" stroke-width="1.5" d="M568 309.5v6M574 315.5h-6"/><text font-family="Futura" font-size="14" lengthAdjust="spacingAndGlyphs" textLength="18" x="541" y="332.457">CR</text><ellipse cx="209.895" cy="428.479" fill="#FEFECE" filter="url(#a)" rx="75.395" ry="17.479" stroke="#a80036" stroke-width="1.5"/><text font-family="Futura" font-size="14" lengthAdjust="spacingAndGlyphs" textLength="111" x="154.395" y="434.276">Functional Design</text><ellipse cx="287.041" cy="197.008" fill="#FEFECE" filter="url(#a)" rx="70.541" ry="16.508" stroke="#a80036" stroke-width="1.5"/><text font-family="Futura" font-size="14" lengthAdjust="spacingAndGlyphs" textLength="98" x="238.041" y="202.805">Physical Design</text><ellipse cx="477.136" cy="197.227" fill="#FEFECE" filter="url(#a)" rx="84.136" ry="19.227" stroke="#a80036" stroke-width="1.5"/><text font-family="Futura" font-size="14" lengthAdjust="spacingAndGlyphs" textLength="133" x="410.636" y="203.024">Verify System Design</text><path d="M89.126 346.592l91.865 62.25" fill="none" stroke="#a80036" stroke-width="2"/><path fill="#A80036" stroke="#a80036" d="M185.425 411.848l-5.206-8.36 1.067 5.555-5.555 1.067 9.695 1.738z"/><path d="M260.514 72.33C239.327 91.229 211.214 120.902 199 154c-32.58 88.287-8.403 203.546 4.394 251.754" fill="none" stroke="#a80036" stroke-width="2"/><path fill="#A80036" stroke="#a80036" d="M204.744 410.752l1.514-9.732-2.818 4.905-4.905-2.818 6.209 7.645z"/><path d="M635.576 346.573C623.07 351.103 609.672 355.558 597 359c-108.293 29.414-237.088 49.71-315.398 60.47" fill="none" stroke="#a80036" stroke-width="2"/><path fill="#A80036" stroke="#a80036" d="M276.517 420.165l9.46 2.744-4.506-3.422 3.422-4.505-8.376 5.183z"/><path d="M218.093 410.764l27.746-60.804" fill="none" stroke="#a80036" stroke-width="2"/><path fill="#A80036" stroke="#a80036" d="M247.938 345.36l-7.375 6.526 5.3-1.978 1.977 5.3.098-9.849z"/><path d="M287 72.23v102.768" fill="none" stroke="#a80036" stroke-width="2"/><path fill="#A80036" stroke="#a80036" d="M287 180.284l4-9-4 4-4-4 4 9z"/><path d="M261.632 305.657l20.352-87.172" fill="none" stroke="#a80036" stroke-width="2"/><path fill="#A80036" stroke="#a80036" d="M283.14 213.536l-5.942 7.855 4.805-2.986 2.985 4.805-1.849-9.674z"/><path d="M297.423 213.536l55.357 87.818" fill="none" stroke="#a80036" stroke-width="2"/><path fill="#A80036" stroke="#a80036" d="M355.492 305.657l-1.415-9.746-1.251 5.517-5.517-1.251 8.183 5.48z"/><path d="M274.735 305.906C285.591 294.7 300.203 280.937 315 271c20.041-13.46 75.908-38.032 116.438-55.152" fill="none" stroke="#a80036" stroke-width="2"/><path fill="#A80036" stroke="#a80036" d="M436.301 213.798l-9.847-.19 5.24 2.132-2.132 5.24 6.74-7.182z"/><path d="M384.584 305.95l73.086-86.161" fill="none" stroke="#a80036" stroke-width="2"/><path fill="#A80036" stroke="#a80036" d="M461.15 215.685l-8.872 4.276 5.638-.463.463 5.638 2.772-9.451z"/><path d="M663.522 304.303c-35.69-24.37-100.94-64.047-144.33-87.717" fill="none" stroke="#a80036" stroke-width="2"/><path fill="#A80036" stroke="#a80036" d="M514.54 214.064l6.006 7.805-1.611-5.423 5.423-1.61-9.819-.772z"/><path d="M497.974 215.41c33.009 22.745 96.317 61.481 141.005 86.416" fill="none" stroke="#a80036" stroke-width="2"/><path fill="#A80036" stroke="#a80036" d="M643.515 304.345l-5.926-7.866 1.555 5.439-5.439 1.555 9.81.872z"/><path d="M314.628 72.23l134.346 103.234" fill="none" stroke="#a80036" stroke-width="2"/><path fill="#A80036" stroke="#a80036" d="M453.242 178.744l-4.7-8.656.735 5.61-5.609.734 9.574 2.312z"/><path d="M475.503 216.238l-6.118 78.614" fill="none" stroke="#a80036" stroke-width="2"/><path fill="#A80036" stroke="#a80036" d="M468.99 299.917l4.687-8.663-4.298 3.678-3.678-4.298 3.29 9.283z"/><path d="M488.51 215.96c13.483 22.215 35.888 59.126 50.918 83.886" fill="none" stroke="#a80036" stroke-width="2"/><path fill="#A80036" stroke="#a80036" d="M542.144 304.321l-1.25-9.769-1.344 5.495-5.495-1.344 8.09 5.618z"/></svg>