<svg xmlns="http://www.w3.org/2000/svg" height="69" preserveAspectRatio="none" style="width:700px;height:69px" width="700"><defs><filter height="300%" id="a" width="300%" x="-1" y="-1"><feGaussianBlur result="blurOut" stdDeviation="2"/><feColorMatrix in="blurOut" result="blurOut2" values="0 0 0 0 0 0 0 0 0 0 0 0 0 0 0 0 0 0 .4 0"/><feOffset dx="4" dy="4" in="blurOut2" result="blurOut3"/><feBlend in="SourceGraphic" in2="blurOut3"/></filter></defs><circle cx="16" cy="33" filter="url(#a)" r="10"/><rect fill="#FEFECE" filter="url(#a)" height="50" rx="12.5" ry="12.5" width="52" x="61" y="8" stroke="#a80036" stroke-width="1.5"/><path stroke="#a80036" stroke-width="1.5" d="M61 36.594h52"/><text font-family="Futura" font-size="14" lengthAdjust="spacingAndGlyphs" textLength="32" x="71" y="27.957">initial</text><rect fill="#FEFECE" filter="url(#a)" height="50" rx="12.5" ry="12.5" width="80" x="148" y="8" stroke="#a80036" stroke-width="1.5"/><path stroke="#a80036" stroke-width="1.5" d="M148 36.594h80"/><text font-family="Futura" font-size="14" lengthAdjust="spacingAndGlyphs" textLength="60" x="158" y="27.957">submitted</text><rect fill="#FEFECE" filter="url(#a)" height="50" rx="12.5" ry="12.5" width="82" x="263" y="8" stroke="#a80036" stroke-width="1.5"/><path stroke="#a80036" stroke-width="1.5" d="M263 36.594h82"/><text font-family="Futura" font-size="14" lengthAdjust="spacingAndGlyphs" textLength="62" x="273" y="27.957">evaluated</text><rect fill="#FEFECE" filter="url(#a)" height="50" rx="12.5" ry="12.5" width="80" x="380" y="8" stroke="#a80036" stroke-width="1.5"/><path stroke="#a80036" stroke-width="1.5" d="M380 36.594h80"/><text font-family="Futura" font-size="14" lengthAdjust="spacingAndGlyphs" textLength="60" x="390" y="27.957">approved</text><rect fill="#FEFECE" filter="url(#a)" height="50" rx="12.5" ry="12.5" width="71" x="495.5" y="8" stroke="#a80036" stroke-width="1.5"/><path stroke="#a80036" stroke-width="1.5" d="M495.5 36.594h71"/><text font-family="Futura" font-size="14" lengthAdjust="spacingAndGlyphs" textLength="51" x="505.5" y="27.957">rejected</text><rect fill="#FEFECE" filter="url(#a)" height="50" rx="12.5" ry="12.5" width="86" x="602" y="8" stroke="#a80036" stroke-width="1.5"/><path stroke="#a80036" stroke-width="1.5" d="M602 36.594h86"/><text font-family="Futura" font-size="14" lengthAdjust="spacingAndGlyphs" textLength="66" x="612" y="27.957">postponed</text><path d="M26.262 33H55.76" fill="none" stroke="#a80036"/><path fill="#A80036" stroke="#a80036" d="M60.901 33l-9-4 4 4-4 4 9-4z"/></svg>