<svg xmlns="http://www.w3.org/2000/svg" height="370" preserveAspectRatio="none" style="width:1565px;height:370px" width="1565"><defs><filter height="300%" id="a" width="300%" x="-1" y="-1"><feGaussianBlur result="blurOut" stdDeviation="2"/><feColorMatrix in="blurOut" result="blurOut2" values="0 0 0 0 0 0 0 0 0 0 0 0 0 0 0 0 0 0 .4 0"/><feOffset dx="4" dy="4" in="blurOut2" result="blurOut3"/><feBlend in="SourceGraphic" in2="blurOut3"/></filter></defs><path fill="#FFF" filter="url(#a)" stroke="#000" stroke-width="1.5" d="M968 271h349v88H968z"/><path fill="#FFF" stroke="#000" stroke-width="1.5" d="M1300 276v14h12v-8l-6-6h-6z"/><path stroke="#000" stroke-width="1.5" d="M1306 276v6M1312 282h-6"/><text font-family="Futura" font-size="14" font-weight="bold" lengthAdjust="spacingAndGlyphs" textLength="54" x="1115.5" y="287.966">System</text><circle cx="1008" cy="316" fill="#FEFECE" filter="url(#a)" stroke="#a80036" stroke-width="2" r="12"/><path fill="#A80036" stroke="#a80036" d="M1004 304l6-5-2 5 2 5-6-5z"/><text font-family="Futura" font-size="14" lengthAdjust="spacingAndGlyphs" textLength="64" x="976" y="346.957">integrated</text><circle cx="1098" cy="316" fill="#FEFECE" filter="url(#a)" stroke="#a80036" stroke-width="2" r="12"/><path fill="#A80036" stroke="#a80036" d="M1094 304l6-5-2 5 2 5-6-5z"/><text font-family="Futura" font-size="14" lengthAdjust="spacingAndGlyphs" textLength="46" x="1075" y="346.957">verified</text><circle cx="1185" cy="316" fill="#FEFECE" filter="url(#a)" stroke="#a80036" stroke-width="2" r="12"/><path fill="#A80036" stroke="#a80036" d="M1181 304l6-5-2 5 2 5-6-5z"/><text font-family="Futura" font-size="14" lengthAdjust="spacingAndGlyphs" textLength="57" x="1156.5" y="346.957">validated</text><circle cx="1279" cy="316" fill="#FEFECE" filter="url(#a)" stroke="#a80036" stroke-width="2" r="12"/><path fill="#A80036" stroke="#a80036" d="M1275 304l6-5-2 5 2 5-6-5z"/><text font-family="Futura" font-size="14" lengthAdjust="spacingAndGlyphs" textLength="60" x="1249" y="346.957">corrected</text><circle cx="21" cy="18" fill="#FEFECE" filter="url(#a)" stroke="#a80036" stroke-width="2" r="8"/><path d="M21 26v27M8 34h26M21 53L8 68m13-15l13 15" fill="none" filter="url(#a)" stroke="#a80036" stroke-width="2"/><text font-family="Futura" font-size="14" lengthAdjust="spacingAndGlyphs" textLength="26" x="8" y="89.957">DES</text><circle cx="86" cy="18" fill="#FEFECE" filter="url(#a)" stroke="#a80036" stroke-width="2" r="8"/><path d="M86 26v27M73 34h26M86 53L73 68m13-15l13 15" fill="none" filter="url(#a)" stroke="#a80036" stroke-width="2"/><text font-family="Futura" font-size="14" lengthAdjust="spacingAndGlyphs" textLength="27" x="72.5" y="89.957">DEV</text><circle cx="151" cy="18" fill="#FEFECE" filter="url(#a)" stroke="#a80036" stroke-width="2" r="8"/><path d="M151 26v27m-13-19h26m-13 19l-13 15m13-15l13 15" fill="none" filter="url(#a)" stroke="#a80036" stroke-width="2"/><text font-family="Futura" font-size="14" lengthAdjust="spacingAndGlyphs" textLength="24" x="139" y="89.957">SYS</text><circle cx="21" cy="164" fill="#FEFECE" filter="url(#a)" stroke="#a80036" stroke-width="2" r="8"/><path d="M21 172v27M8 180h26m-13 19L8 214m13-15l13 15" fill="none" filter="url(#a)" stroke="#a80036" stroke-width="2"/><text font-family="Futura" font-size="14" lengthAdjust="spacingAndGlyphs" textLength="22" x="10" y="235.957">IVV</text><circle cx="86" cy="164" fill="#FEFECE" filter="url(#a)" stroke="#a80036" stroke-width="2" r="8"/><path d="M86 172v27m-13-19h26m-13 19l-13 15m13-15l13 15" fill="none" filter="url(#a)" stroke="#a80036" stroke-width="2"/><text font-family="Futura" font-size="14" lengthAdjust="spacingAndGlyphs" textLength="22" x="75" y="235.957">WT</text><circle cx="153" cy="164" fill="#FEFECE" filter="url(#a)" stroke="#a80036" stroke-width="2" r="8"/><path d="M153 172v27m-13-19h26m-13 19l-13 15m13-15l13 15" fill="none" filter="url(#a)" stroke="#a80036" stroke-width="2"/><text font-family="Futura" font-size="14" lengthAdjust="spacingAndGlyphs" textLength="33" x="136.5" y="235.957">ACQ</text><path fill="#FEFECE" filter="url(#a)" stroke="#000" stroke-width="1.5" d="M365.5 30h187v41.594h-187z"/><path fill="#FEFECE" stroke="#000" stroke-width="1.5" d="M535.5 35v14h12v-8l-6-6h-6z"/><path stroke="#000" stroke-width="1.5" d="M541.5 35v6M547.5 41h-6"/><text font-family="Futura" font-size="14" lengthAdjust="spacingAndGlyphs" textLength="157" x="375.5" y="57.957">IVV Procedures (verified)</text><path fill="#FEFECE" filter="url(#a)" stroke="#000" stroke-width="1.5" d="M1245.5 30h129v41.594h-129z"/><path fill="#FEFECE" stroke="#000" stroke-width="1.5" d="M1357.5 35v14h12v-8l-6-6h-6z"/><path stroke="#000" stroke-width="1.5" d="M1363.5 35v6M1369.5 41h-6"/><text font-family="Futura" font-size="14" lengthAdjust="spacingAndGlyphs" textLength="99" x="1255.5" y="57.957">StRS (validated)</text><path fill="#FEFECE" filter="url(#a)" stroke="#000" stroke-width="1.5" d="M201.5 30h129v41.594h-129z"/><path fill="#FEFECE" stroke="#000" stroke-width="1.5" d="M313.5 35v14h12v-8l-6-6h-6z"/><path stroke="#000" stroke-width="1.5" d="M319.5 35v6M325.5 41h-6"/><text font-family="Futura" font-size="14" lengthAdjust="spacingAndGlyphs" textLength="99" x="211.5" y="57.957">SDD (validated)</text><path fill="#FEFECE" filter="url(#a)" stroke="#000" stroke-width="1.5" d="M587.5 30h133v41.594h-133z"/><path fill="#FEFECE" stroke="#000" stroke-width="1.5" d="M703.5 35v14h12v-8l-6-6h-6z"/><path stroke="#000" stroke-width="1.5" d="M709.5 35v6M715.5 41h-6"/><text font-family="Futura" font-size="14" lengthAdjust="spacingAndGlyphs" textLength="103" x="597.5" y="57.957">SERS (validated)</text><path fill="#FEFECE" filter="url(#a)" stroke="#000" stroke-width="1.5" d="M756 30h272v41.594H756z"/><path fill="#FEFECE" stroke="#000" stroke-width="1.5" d="M1011 35v14h12v-8l-6-6h-6z"/><path stroke="#000" stroke-width="1.5" d="M1017 35v6M1023 41h-6"/><text font-family="Futura" font-size="14" lengthAdjust="spacingAndGlyphs" textLength="242" x="766" y="57.957">System Elements (SW+HW, accepted)</text><path fill="#FEFECE" filter="url(#a)" stroke="#000" stroke-width="1.5" d="M1063.5 30h147v41.594h-147z"/><path fill="#FEFECE" stroke="#000" stroke-width="1.5" d="M1193.5 35v14h12v-8l-6-6h-6z"/><path stroke="#000" stroke-width="1.5" d="M1199.5 35v6M1205.5 41h-6"/><text font-family="Futura" font-size="14" lengthAdjust="spacingAndGlyphs" textLength="117" x="1073.5" y="57.957">Traceability Matrix</text><path fill="#FEFECE" filter="url(#a)" stroke="#000" stroke-width="1.5" d="M1409.5 30h139v41.594h-139z"/><path fill="#FEFECE" stroke="#000" stroke-width="1.5" d="M1531.5 35v14h12v-8l-6-6h-6z"/><path stroke="#000" stroke-width="1.5" d="M1537.5 35v6M1543.5 41h-6"/><text font-family="Futura" font-size="14" lengthAdjust="spacingAndGlyphs" textLength="109" x="1419.5" y="57.957">SysRS (validated)</text><path fill="#FEFECE" filter="url(#a)" stroke="#000" stroke-width="1.5" d="M661.5 304.5h279v41.594h-279z"/><path fill="#FEFECE" stroke="#000" stroke-width="1.5" d="M923.5 309.5v14h12v-8l-6-6h-6z"/><path stroke="#000" stroke-width="1.5" d="M929.5 309.5v6M935.5 315.5h-6"/><text font-family="Futura" font-size="14" lengthAdjust="spacingAndGlyphs" textLength="249" x="671.5" y="332.457">Product Acceptance Record (approved)</text><ellipse cx="686.997" cy="197.099" fill="#FEFECE" filter="url(#a)" rx="73.497" ry="17.099" stroke="#a80036" stroke-width="1.5"/><text font-family="Futura" font-size="14" lengthAdjust="spacingAndGlyphs" textLength="106" x="633.997" y="202.896">Integrate System</text><ellipse cx="1103.811" cy="197.148" fill="#FEFECE" filter="url(#a)" rx="63.811" ry="16.148" stroke="#a80036" stroke-width="1.5"/><text font-family="Futura" font-size="14" lengthAdjust="spacingAndGlyphs" textLength="86" x="1060.811" y="202.945">Verify System</text><ellipse cx="932.77" cy="197.154" fill="#FEFECE" filter="url(#a)" rx="71.27" ry="16.654" stroke="#a80036" stroke-width="1.5"/><text font-family="Futura" font-size="14" lengthAdjust="spacingAndGlyphs" textLength="100" x="882.77" y="202.951">Validate System</text><ellipse cx="1274.041" cy="197.008" fill="#FEFECE" filter="url(#a)" rx="70.541" ry="16.508" stroke="#a80036" stroke-width="1.5"/><text font-family="Futura" font-size="14" lengthAdjust="spacingAndGlyphs" textLength="98" x="1225.041" y="202.805">Correct Defects</text><path d="M302.85 72.21C316.73 79.693 332.829 87.782 348 94c96.797 39.672 214.597 72.091 282.773 89.385" fill="none" stroke="#a80036" stroke-width="2"/><path fill="#A80036" stroke="#a80036" d="M636 184.706l-7.746-6.083 2.898 4.858-4.858 2.898 9.706-1.673z"/><path d="M658.798 72.23l23.205 102.663" fill="none" stroke="#a80036" stroke-width="2"/><path fill="#A80036" stroke="#a80036" d="M683.124 179.85l1.917-9.66-3.02 4.783-4.783-3.02 5.885 7.897z"/><path d="M1095.934 72.137C1080.512 79.61 1062.678 87.715 1046 94c-28.947 10.91-214.232 62.79-306.685 88.497" fill="none" stroke="#a80036" stroke-width="2"/><path fill="#A80036" stroke="#a80036" d="M734.443 183.85l9.743 1.444-4.926-2.782 2.783-4.925-7.6 6.264z"/><path d="M862.191 72.23c-39.696 28.27-109.36 77.885-147.796 105.26" fill="none" stroke="#a80036" stroke-width="2"/><path fill="#A80036" stroke="#a80036" d="M709.867 180.714l9.651-1.963-5.578-.937.937-5.579-5.01 8.48z"/><path d="M492.153 72.23l165.499 105.977" fill="none" stroke="#a80036" stroke-width="2"/><path fill="#A80036" stroke="#a80036" d="M661.9 180.928l-5.421-8.222 1.211 5.525-5.526 1.212 9.737 1.485z"/><path d="M734.4 210.006c31.146 8.54 72.794 19.95 109.6 29.994 50.654 13.824 69.154 3.691 114 31 10.652 6.486 20.418 15.896 28.438 25.076" fill="none" stroke="#a80036" stroke-width="2"/><path fill="#A80036" stroke="#a80036" d="M989.765 299.988l-2.785-9.447-.455 5.639-5.638-.455 8.878 4.263z"/><path d="M1027.168 299.844l61.87-82.817" fill="none" stroke="#a80036" stroke-width="2"/><path fill="#A80036" stroke="#a80036" d="M1092.228 212.757l-8.59 4.816 5.598-.81.81 5.598 2.182-9.604z"/><path d="M1439.814 72.193c-14.735 7.48-31.8 15.573-47.814 21.807-88.864 34.593-117.556 24.346-206 60-17.835 7.19-36.907 17.05-52.166 25.514" fill="none" stroke="#a80036" stroke-width="2"/><path fill="#A80036" stroke="#a80036" d="M1129.227 182.091l9.807-.903-5.444-1.538 1.538-5.444-5.901 7.885z"/><path d="M1132.201 72.23l-23.408 103.563" fill="none" stroke="#a80036" stroke-width="2"/><path fill="#A80036" stroke="#a80036" d="M1107.681 180.714l5.886-7.896-4.784 3.02-3.02-4.784 1.918 9.66z"/><path d="M505.994 72.055C525.459 80.021 548.479 88.487 570 94c196.312 50.29 258.853-1.332 452 60 18.883 5.996 38.59 16.186 53.952 25.14" fill="none" stroke="#a80036" stroke-width="2"/><path fill="#A80036" stroke="#a80036" d="M1080.574 181.874l-5.71-8.024 1.406 5.479-5.48 1.406 9.784 1.14z"/><path d="M1103.252 213.015l-3.826 81.938" fill="none" stroke="#a80036" stroke-width="2"/><path fill="#A80036" stroke="#a80036" d="M1099.193 299.957l4.415-8.804-4.182 3.809-3.809-4.182 3.576 9.177z"/><path d="M1273.592 72.074C1259.625 79.628 1243.352 87.8 1228 94c-88.025 35.552-116.328 26.094-205 60-19.22 7.35-39.988 17.14-56.726 25.523" fill="none" stroke="#a80036" stroke-width="2"/><path fill="#A80036" stroke="#a80036" d="M961.664 181.847l9.837-.48-5.372-1.77 1.77-5.373-6.235 7.623z"/><path d="M1107.337 72.23l-147.69 105.699" fill="none" stroke="#a80036" stroke-width="2"/><path fill="#A80036" stroke="#a80036" d="M955.16 181.14l9.647-1.985-5.58-.925.924-5.58-4.99 8.49z"/><path d="M510.31 72.024C528.966 79.364 550.305 87.407 570 94c29.866 9.998 219.706 63.099 312.32 88.903" fill="none" stroke="#a80036" stroke-width="2"/><path fill="#A80036" stroke="#a80036" d="M887.196 184.26l-7.597-6.268 2.78 4.927-4.927 2.78 9.744-1.438z"/><path d="M1082.39 299.897c-6.727-9.765-15.17-20.544-24.39-28.897-26.216-23.75-61.231-43.69-87.532-56.865" fill="none" stroke="#a80036" stroke-width="2"/><path fill="#A80036" stroke="#a80036" d="M965.662 211.754l6.289 7.58-1.808-5.36 5.36-1.809-9.84-.41z"/><path d="M961.596 212.334C979.001 221.24 1001.88 232.208 1023 240c50.066 18.47 70.942 2.407 116 31 9.972 6.328 18.9 15.508 26.177 24.534" fill="none" stroke="#a80036" stroke-width="2"/><path fill="#A80036" stroke="#a80036" d="M1168.613 299.94l-2.381-9.556-.694 5.614-5.614-.694 8.69 4.637z"/><path d="M916.282 213.275l-89.64 87.263" fill="none" stroke="#a80036" stroke-width="2"/><path fill="#A80036" stroke="#a80036" d="M822.841 304.238l9.24-3.411-5.657-.077.076-5.656-3.659 9.144z"/><path d="M1202.866 299.705l56.715-81.886" fill="none" stroke="#a80036" stroke-width="2"/><path fill="#A80036" stroke="#a80036" d="M1262.547 213.536l-8.413 5.121 5.566-1.01 1.01 5.565 1.837-9.676z"/><path d="M505.088 72.1C524.708 80.223 548.084 88.79 570 94c267.619 63.605 351.323-14.909 616 60 20.19 5.714 41.362 15.91 57.879 24.94" fill="none" stroke="#a80036" stroke-width="2"/><path fill="#A80036" stroke="#a80036" d="M1248.41 181.452l-5.933-7.862 1.56 5.438-5.438 1.559 9.81.865z"/><path d="M1274.643 213.536l3.148 80.89" fill="none" stroke="#a80036" stroke-width="2"/><path fill="#A80036" stroke="#a80036" d="M1277.996 299.705l3.647-9.149-3.841 4.153-4.153-3.842 4.347 8.838z"/></svg>