<svg xmlns="http://www.w3.org/2000/svg" height="89" preserveAspectRatio="none" style="width:282px;height:89px" width="282"><defs><filter height="300%" id="a" width="300%" x="-1" y="-1"><feGaussianBlur result="blurOut" stdDeviation="2"/><feColorMatrix in="blurOut" result="blurOut2" values="0 0 0 0 0 0 0 0 0 0 0 0 0 0 0 0 0 0 .4 0"/><feOffset dx="4" dy="4" in="blurOut2" result="blurOut3"/><feBlend in="SourceGraphic" in2="blurOut3"/></filter></defs><circle cx="16" cy="43" filter="url(#a)" r="10"/><rect fill="#FEFECE" filter="url(#a)" height="50" rx="12.5" ry="12.5" width="52" x="61" y="18" stroke="#a80036" stroke-width="1.5"/><path stroke="#a80036" stroke-width="1.5" d="M61 46.594h52"/><text font-family="Futura" font-size="14" lengthAdjust="spacingAndGlyphs" textLength="32" x="71" y="37.957">initial</text><rect fill="#FEFECE" filter="url(#a)" height="70.469" rx="12.5" ry="12.5" width="78" x="192" y="8" stroke="#a80036" stroke-width="1.5"/><path stroke="#a80036" stroke-width="1.5" d="M192 36.594h78"/><text font-family="Futura" font-size="14" lengthAdjust="spacingAndGlyphs" textLength="58" x="202" y="27.957">reviewed</text><text font-family="Futura" font-size="12" lengthAdjust="spacingAndGlyphs" textLength="23" x="197" y="54.414">PJM</text><text font-family="Futura" font-size="12" lengthAdjust="spacingAndGlyphs" textLength="21" x="197" y="70.352">SYS</text><path d="M26.262 43H55.76" fill="none" stroke="#a80036"/><path fill="#A80036" stroke="#a80036" d="M60.901 43l-9-4 4 4-4 4 9-4z"/><path d="M113.077 43h73.668" fill="none" stroke="#a80036"/><path fill="#A80036" stroke="#a80036" d="M191.814 43l-9-4 4 4-4 4 9-4z"/><text font-family="Futura" font-size="13" lengthAdjust="spacingAndGlyphs" textLength="42" x="131.5" y="35.889">Review</text></svg>