<svg xmlns="http://www.w3.org/2000/svg" height="69" preserveAspectRatio="none" style="width:510px;height:69px" width="510"><defs><filter height="300%" id="a" width="300%" x="-1" y="-1"><feGaussianBlur result="blurOut" stdDeviation="2"/><feColorMatrix in="blurOut" result="blurOut2" values="0 0 0 0 0 0 0 0 0 0 0 0 0 0 0 0 0 0 .4 0"/><feOffset dx="4" dy="4" in="blurOut2" result="blurOut3"/><feBlend in="SourceGraphic" in2="blurOut3"/></filter></defs><circle cx="16" cy="33" filter="url(#a)" r="10"/><rect fill="#FEFECE" filter="url(#a)" height="50" rx="12.5" ry="12.5" width="52" x="119" y="8" stroke="#a80036" stroke-width="1.5"/><path stroke="#a80036" stroke-width="1.5" d="M119 36.594h52"/><text font-family="Futura" font-size="14" lengthAdjust="spacingAndGlyphs" textLength="32" x="129" y="27.957">initial</text><rect fill="#FEFECE" filter="url(#a)" height="50" rx="12.5" ry="12.5" width="66" x="206" y="8" stroke="#a80036" stroke-width="1.5"/><path stroke="#a80036" stroke-width="1.5" d="M206 36.594h66"/><text font-family="Futura" font-size="14" lengthAdjust="spacingAndGlyphs" textLength="46" x="216" y="27.957">verified</text><rect fill="#FEFECE" filter="url(#a)" height="50" rx="12.5" ry="12.5" width="78" x="307" y="8" stroke="#a80036" stroke-width="1.5"/><path stroke="#a80036" stroke-width="1.5" d="M307 36.594h78"/><text font-family="Futura" font-size="14" lengthAdjust="spacingAndGlyphs" textLength="58" x="317" y="27.957">accepted</text><rect fill="#FEFECE" filter="url(#a)" height="50" rx="12.5" ry="12.5" width="78" x="420" y="8" stroke="#a80036" stroke-width="1.5"/><path stroke="#a80036" stroke-width="1.5" d="M420 36.594h78"/><text font-family="Futura" font-size="14" lengthAdjust="spacingAndGlyphs" textLength="58" x="430" y="27.957">reviewed</text><path d="M26.122 33h87.521" fill="none" stroke="#a80036"/><path fill="#A80036" stroke="#a80036" d="M118.822 33l-9-4 4 4-4 4 9-4z"/><text font-family="Futura" font-size="13" lengthAdjust="spacingAndGlyphs" textLength="56" x="44.5" y="25.889">Generate</text></svg>