<svg xmlns="http://www.w3.org/2000/svg" height="1371.612" preserveAspectRatio="none" style="width:4094px;height:1371px" viewBox="0 0 4094 1371" width="4094.055"><defs><filter height="300%" id="a" width="300%" x="-1" y="-1"><feGaussianBlur result="blurOut" stdDeviation="1.889"/><feColorMatrix in="blurOut" result="blurOut2" values="0 0 0 0 0 0 0 0 0 0 0 0 0 0 0 0 0 0 .4 0"/><feOffset dx="3.779" dy="3.779" in="blurOut2" result="blurOut3"/><feBlend in="SourceGraphic" in2="blurOut3"/></filter></defs><path fill="#FFF" filter="url(#a)" stroke="#000" stroke-width="1.417" d="M1207.246 42.981h102.965v83.128h-102.965z"/><path fill="#FFF" stroke="#000" stroke-width="1.417" d="M1294.152 47.704V60.93h11.336v-7.557l-5.668-5.668h-5.668z"/><path stroke="#000" stroke-width="1.417" d="M1299.82 47.704v5.668M1305.488 53.372h-5.668"/><text font-family="Futura" font-size="13.225" font-weight="bold" lengthAdjust="spacingAndGlyphs" textLength="83.128" x="1217.164" y="59.008">Project Plan</text><path fill="#FFF" filter="url(#a)" stroke="#000" stroke-width="1.417" d="M2342.699 655.578h181.37v83.128h-181.37z"/><path fill="#FFF" stroke="#000" stroke-width="1.417" d="M2508.01 660.301v13.225h11.336v-7.557l-5.668-5.668h-5.668z"/><path stroke="#000" stroke-width="1.417" d="M2513.678 660.301v5.668M2519.346 665.969h-5.668"/><text font-family="Futura" font-size="13.225" font-weight="bold" lengthAdjust="spacingAndGlyphs" textLength="60.457" x="2403.156" y="671.605">IVV Plan</text><path fill="#FFF" filter="url(#a)" stroke="#000" stroke-width="1.417" d="M2047.028 655.578h181.37v83.128h-181.37z"/><path fill="#FFF" stroke="#000" stroke-width="1.417" d="M2212.34 660.301v13.225h11.335v-7.557l-5.668-5.668h-5.668z"/><path stroke="#000" stroke-width="1.417" d="M2218.007 660.301v5.668M2223.675 665.969h-5.668"/><text font-family="Futura" font-size="13.225" font-weight="bold" lengthAdjust="spacingAndGlyphs" textLength="109.578" x="2082.924" y="671.605">IVV Procedures</text><path fill="#FFF" filter="url(#a)" stroke="#000" stroke-width="1.417" d="M2915.149 1059.882h235.214v83.128h-235.214z"/><path fill="#FFF" stroke="#000" stroke-width="1.417" d="M3134.305 1064.605v13.225h11.335v-7.557l-5.668-5.668h-5.668z"/><path stroke="#000" stroke-width="1.417" d="M3139.972 1064.605v5.668M3145.64 1070.273h-5.668"/><text font-family="Futura" font-size="13.225" font-weight="bold" lengthAdjust="spacingAndGlyphs" textLength="220.1" x="2922.706" y="1075.909">System Maintenance Document</text><path fill="#FFF" filter="url(#a)" stroke="#000" stroke-width="1.417" d="M110.522 1059.882h169.09v83.128h-169.09z"/><path fill="#FFF" stroke="#000" stroke-width="1.417" d="M263.554 1064.605v13.225h11.335v-7.557l-5.668-5.668h-5.667z"/><path stroke="#000" stroke-width="1.417" d="M269.221 1064.605v5.668M274.889 1070.273h-5.668"/><text font-family="Futura" font-size="13.225" font-weight="bold" lengthAdjust="spacingAndGlyphs" textLength="53.844" x="168.145" y="1075.909">Product</text><path fill="#FFF" filter="url(#a)" stroke="#000" stroke-width="1.417" d="M2988.83 440.201h315.509v83.128H2988.83z"/><path fill="#FFF" stroke="#000" stroke-width="1.417" d="M3288.28 444.924v13.225h11.336v-7.557l-5.668-5.668h-5.668z"/><path stroke="#000" stroke-width="1.417" d="M3293.948 444.924v5.668M3299.616 450.592h-5.668"/><text font-family="Futura" font-size="13.225" font-weight="bold" lengthAdjust="spacingAndGlyphs" textLength="29.284" x="3131.943" y="456.227">SDD</text><path fill="#FFF" filter="url(#a)" stroke="#000" stroke-width="1.417" d="M403.36 655.578h575.284v83.128H403.36z"/><path fill="#FFF" stroke="#000" stroke-width="1.417" d="M962.585 660.301v13.225h11.335v-7.557l-5.667-5.668h-5.668z"/><path stroke="#000" stroke-width="1.417" d="M968.253 660.301v5.668M973.92 665.969h-5.667"/><text font-family="Futura" font-size="13.225" font-weight="bold" lengthAdjust="spacingAndGlyphs" textLength="117.135" x="632.434" y="671.605">System Elements</text><path fill="#FFF" filter="url(#a)" stroke="#000" stroke-width="1.417" d="M1060.827 440.201h149.253v83.128h-149.253z"/><path fill="#FFF" stroke="#000" stroke-width="1.417" d="M1194.02 444.924v13.225h11.336v-7.557l-5.667-5.668h-5.668z"/><path stroke="#000" stroke-width="1.417" d="M1199.689 444.924v5.668M1205.356 450.592h-5.667"/><text font-family="Futura" font-size="13.225" font-weight="bold" lengthAdjust="spacingAndGlyphs" textLength="34.007" x="1118.45" y="456.227">SERS</text><path fill="#FFF" filter="url(#a)" stroke="#000" stroke-width="1.417" d="M1227.083 440.201h226.713v83.128h-226.713z"/><path fill="#FFF" stroke="#000" stroke-width="1.417" d="M1437.737 444.924v13.225h11.336v-7.557l-5.668-5.668h-5.668z"/><path stroke="#000" stroke-width="1.417" d="M1443.405 444.924v5.668M1449.073 450.592h-5.668"/><text font-family="Futura" font-size="13.225" font-weight="bold" lengthAdjust="spacingAndGlyphs" textLength="31.173" x="1324.853" y="456.227">StRS</text><path fill="#FFF" filter="url(#a)" stroke="#000" stroke-width="1.417" d="M2144.325 1059.882h189.872v83.128h-189.872z"/><path fill="#FFF" stroke="#000" stroke-width="1.417" d="M2318.138 1064.605v13.225h11.336v-7.557l-5.668-5.668h-5.668z"/><path stroke="#000" stroke-width="1.417" d="M2323.806 1064.605v5.668M2329.474 1070.273h-5.668"/><text font-family="Futura" font-size="13.225" font-weight="bold" lengthAdjust="spacingAndGlyphs" textLength="174.758" x="2151.882" y="1075.909">System Operation Guide</text><path fill="#FFF" filter="url(#a)" stroke="#000" stroke-width="1.417" d="M1946.896 440.201h225.768v83.128h-225.768z"/><path fill="#FFF" stroke="#000" stroke-width="1.417" d="M2156.606 444.924v13.225h11.335v-7.557l-5.668-5.668h-5.668z"/><path stroke="#000" stroke-width="1.417" d="M2162.273 444.924v5.668M2167.941 450.592h-5.668"/><text font-family="Futura" font-size="13.225" font-weight="bold" lengthAdjust="spacingAndGlyphs" textLength="42.509" x="2038.526" y="456.227">SysRS</text><path fill="#FFF" filter="url(#a)" stroke="#000" stroke-width="1.417" d="M1874.159 850.173h329.678v83.128h-329.678z"/><path fill="#FFF" stroke="#000" stroke-width="1.417" d="M2187.778 854.896v13.225h11.336v-7.557l-5.668-5.668h-5.668z"/><path stroke="#000" stroke-width="1.417" d="M2193.446 854.896v5.668M2199.114 860.564h-5.668"/><text font-family="Futura" font-size="13.225" font-weight="bold" lengthAdjust="spacingAndGlyphs" textLength="51.01" x="2013.493" y="866.2">System</text><path fill="#FFF" filter="url(#a)" stroke="#000" stroke-width="1.417" d="M2871.695 1278.093h171.924v83.128h-171.924z"/><path fill="#FFF" stroke="#000" stroke-width="1.417" d="M3027.56 1282.817v13.225h11.336v-7.558l-5.668-5.667h-5.667z"/><path stroke="#000" stroke-width="1.417" d="M3033.228 1282.817v5.667M3038.896 1288.484h-5.668"/><text font-family="Futura" font-size="13.225" font-weight="bold" lengthAdjust="spacingAndGlyphs" textLength="156.81" x="2879.253" y="1294.12">System Training Specs</text><path fill="#FFF" filter="url(#a)" stroke="#000" stroke-width="1.417" d="M2711.107 1059.882h157.754v83.128h-157.754z"/><path fill="#FFF" stroke="#000" stroke-width="1.417" d="M2852.803 1064.605v13.225h11.335v-7.557l-5.667-5.668h-5.668z"/><path stroke="#000" stroke-width="1.417" d="M2858.471 1064.605v5.668M2864.138 1070.273h-5.667"/><text font-family="Futura" font-size="13.225" font-weight="bold" lengthAdjust="spacingAndGlyphs" textLength="89.74" x="2745.114" y="1075.909">User Manual</text><path fill="#FFF" filter="url(#a)" stroke="#000" stroke-width="1.417" d="M148.308 1278.093h404.305v83.128H148.308z"/><path fill="#FFF" stroke="#000" stroke-width="1.417" d="M536.554 1282.817v13.225h11.335v-7.558l-5.668-5.667h-5.667z"/><path stroke="#000" stroke-width="1.417" d="M542.221 1282.817v5.667M547.889 1288.484h-5.668"/><text font-family="Futura" font-size="13.225" font-weight="bold" lengthAdjust="spacingAndGlyphs" textLength="192.706" x="254.107" y="1294.12">Product Acceptance Record</text><circle cx="1275.259" cy="85.49" fill="#FEFECE" filter="url(#a)" stroke="#a80036" stroke-width="1.889" r="11.336"/><path fill="#A80036" stroke="#a80036" stroke-width=".945" d="M1271.481 74.154l5.668-4.723-1.89 4.723 1.89 4.723-5.668-4.723z"/><text font-family="Futura" font-size="13.225" lengthAdjust="spacingAndGlyphs" textLength="54.789" x="1247.865" y="114.733">reviewed</text><circle cx="2378.595" cy="698.087" fill="#FEFECE" filter="url(#a)" stroke="#a80036" stroke-width="1.889" r="11.336"/><path fill="#A80036" stroke="#a80036" stroke-width=".945" d="M2374.817 686.75l5.667-4.722-1.889 4.723 1.89 4.723-5.668-4.723z"/><text font-family="Futura" font-size="13.225" lengthAdjust="spacingAndGlyphs" textLength="56.678" x="2350.256" y="727.33">published</text><circle cx="2461.723" cy="698.087" fill="#FEFECE" filter="url(#a)" stroke="#a80036" stroke-width="1.889" r="11.336"/><path fill="#A80036" stroke="#a80036" stroke-width=".945" d="M2457.945 686.75l5.668-4.722-1.89 4.723 1.89 4.723-5.668-4.723z"/><text font-family="Futura" font-size="13.225" lengthAdjust="spacingAndGlyphs" textLength="43.453" x="2439.997" y="727.33">verified</text><circle cx="2082.924" cy="698.087" fill="#FEFECE" filter="url(#a)" stroke="#a80036" stroke-width="1.889" r="11.336"/><path fill="#A80036" stroke="#a80036" stroke-width=".945" d="M2079.145 686.75l5.668-4.722-1.89 4.723 1.89 4.723-5.668-4.723z"/><text font-family="Futura" font-size="13.225" lengthAdjust="spacingAndGlyphs" textLength="56.678" x="2054.585" y="727.33">published</text><circle cx="2166.052" cy="698.087" fill="#FEFECE" filter="url(#a)" stroke="#a80036" stroke-width="1.889" r="11.336"/><path fill="#A80036" stroke="#a80036" stroke-width=".945" d="M2162.273 686.75l5.668-4.722-1.89 4.723 1.89 4.723-5.668-4.723z"/><text font-family="Futura" font-size="13.225" lengthAdjust="spacingAndGlyphs" textLength="43.453" x="2144.325" y="727.33">verified</text><circle cx="3076.682" cy="1102.391" fill="#FEFECE" filter="url(#a)" stroke="#a80036" stroke-width="1.889" r="11.336"/><path fill="#A80036" stroke="#a80036" stroke-width=".945" d="M3072.903 1091.055l5.668-4.723-1.89 4.723 1.89 4.723-5.668-4.723z"/><text font-family="Futura" font-size="13.225" lengthAdjust="spacingAndGlyphs" textLength="30.228" x="3061.568" y="1131.634">initial</text><circle cx="2989.775" cy="1102.391" fill="#FEFECE" filter="url(#a)" stroke="#a80036" stroke-width="1.889" r="11.336"/><path fill="#A80036" stroke="#a80036" stroke-width=".945" d="M2985.997 1091.055l5.667-4.723-1.889 4.723 1.89 4.723-5.668-4.723z"/><text font-family="Futura" font-size="13.225" lengthAdjust="spacingAndGlyphs" textLength="53.844" x="2962.853" y="1131.634">validated</text><circle cx="151.142" cy="1102.391" fill="#FEFECE" filter="url(#a)" stroke="#a80036" stroke-width="1.889" r="11.336"/><path fill="#A80036" stroke="#a80036" stroke-width=".945" d="M147.363 1091.055l5.668-4.723-1.89 4.723 1.89 4.723-5.668-4.723z"/><text font-family="Futura" font-size="13.225" lengthAdjust="spacingAndGlyphs" textLength="66.125" x="118.08" y="1131.634">preliminary</text><circle cx="244.661" cy="1102.391" fill="#FEFECE" filter="url(#a)" stroke="#a80036" stroke-width="1.889" r="11.336"/><path fill="#A80036" stroke="#a80036" stroke-width=".945" d="M240.882 1091.055l5.668-4.723-1.89 4.723 1.89 4.723-5.668-4.723z"/><text font-family="Futura" font-size="13.225" lengthAdjust="spacingAndGlyphs" textLength="54.789" x="217.266" y="1131.634">delivered</text><path fill="#FEFECE" filter="url(#a)" stroke="#a80036" stroke-width="1.417" d="M3217.432 473.263h79.35v36.457h-79.35z"/><path fill="#FEFECE" stroke="#a80036" stroke-width="1.417" d="M3212.709 477.986h9.446v4.723h-9.446zM3212.709 500.274h9.446v4.723h-9.446z"/><text font-family="Futura" font-size="13.225" lengthAdjust="spacingAndGlyphs" textLength="60.457" x="3226.879" y="496.838">Functional</text><path fill="#FEFECE" filter="url(#a)" stroke="#a80036" stroke-width="1.417" d="M3116.829 473.263h67.069v36.457h-67.069z"/><path fill="#FEFECE" stroke="#a80036" stroke-width="1.417" d="M3112.106 477.986h9.446v4.723h-9.446zM3112.106 500.274h9.446v4.723h-9.446z"/><text font-family="Futura" font-size="13.225" lengthAdjust="spacingAndGlyphs" textLength="48.176" x="3126.275" y="496.838">Physical</text><circle cx="3056.844" cy="482.709" fill="#FEFECE" filter="url(#a)" stroke="#a80036" stroke-width="1.889" r="11.336"/><path fill="#A80036" stroke="#a80036" stroke-width=".945" d="M3053.066 471.374l5.668-4.724-1.89 4.724 1.89 4.723-5.668-4.723z"/><text font-family="Futura" font-size="13.225" lengthAdjust="spacingAndGlyphs" textLength="53.844" x="3029.922" y="511.952">validated</text><path fill="#FEFECE" filter="url(#a)" stroke="#a80036" stroke-width="1.417" d="M444.452 688.64H619.21v36.457H444.452z"/><path fill="#FEFECE" stroke="#a80036" stroke-width="1.417" d="M439.728 693.363h9.446v4.723h-9.446zM439.728 715.651h9.446v4.723h-9.446z"/><text font-family="Futura" font-size="13.225" lengthAdjust="spacingAndGlyphs" textLength="155.865" x="453.898" y="712.216">Software System Elements</text><path fill="#FEFECE" filter="url(#a)" stroke="#a80036" stroke-width="1.417" d="M652.272 688.64h72.737v36.457h-72.737z"/><path fill="#FEFECE" stroke="#a80036" stroke-width="1.417" d="M647.548 693.363h9.446v4.723h-9.446zM647.548 715.651h9.446v4.723h-9.446z"/><text font-family="Futura" font-size="13.225" lengthAdjust="spacingAndGlyphs" textLength="53.844" x="661.718" y="712.216">SW+HW</text><circle cx="861.509" cy="698.087" fill="#FEFECE" filter="url(#a)" stroke="#a80036" stroke-width="1.889" r="11.336"/><path fill="#A80036" stroke="#a80036" stroke-width=".945" d="M857.73 686.75l5.668-4.722-1.89 4.723 1.89 4.723-5.668-4.723z"/><text font-family="Futura" font-size="13.225" lengthAdjust="spacingAndGlyphs" textLength="43.453" x="839.782" y="727.33">verified</text><circle cx="782.159" cy="698.087" fill="#FEFECE" filter="url(#a)" stroke="#a80036" stroke-width="1.889" r="11.336"/><path fill="#A80036" stroke="#a80036" stroke-width=".945" d="M778.38 686.75l5.668-4.722-1.889 4.723 1.89 4.723-5.668-4.723z"/><text font-family="Futura" font-size="13.225" lengthAdjust="spacingAndGlyphs" textLength="48.176" x="758.071" y="727.33">rejected</text><circle cx="943.692" cy="698.087" fill="#FEFECE" filter="url(#a)" stroke="#a80036" stroke-width="1.889" r="11.336"/><path fill="#A80036" stroke="#a80036" stroke-width=".945" d="M939.913 686.75l5.668-4.722-1.889 4.723 1.89 4.723-5.668-4.723z"/><text font-family="Futura" font-size="13.225" lengthAdjust="spacingAndGlyphs" textLength="54.789" x="916.298" y="727.33">accepted</text><circle cx="1178.907" cy="482.709" fill="#FEFECE" filter="url(#a)" stroke="#a80036" stroke-width="1.889" r="11.336"/><path fill="#A80036" stroke="#a80036" stroke-width=".945" d="M1175.128 471.374l5.668-4.724-1.89 4.724 1.89 4.723-5.668-4.723z"/><text font-family="Futura" font-size="13.225" lengthAdjust="spacingAndGlyphs" textLength="46.287" x="1155.763" y="511.952">initiated</text><circle cx="1095.778" cy="482.709" fill="#FEFECE" filter="url(#a)" stroke="#a80036" stroke-width="1.889" r="11.336"/><path fill="#A80036" stroke="#a80036" stroke-width=".945" d="M1092 471.374l5.668-4.724-1.89 4.724 1.89 4.723-5.668-4.723z"/><text font-family="Futura" font-size="13.225" lengthAdjust="spacingAndGlyphs" textLength="53.844" x="1068.856" y="511.952">validated</text><circle cx="1422.623" cy="482.709" fill="#FEFECE" filter="url(#a)" stroke="#a80036" stroke-width="1.889" r="11.336"/><path fill="#A80036" stroke="#a80036" stroke-width=".945" d="M1418.844 471.374l5.668-4.724-1.89 4.724 1.89 4.723-5.668-4.723z"/><text font-family="Futura" font-size="13.225" lengthAdjust="spacingAndGlyphs" textLength="46.287" x="1399.479" y="511.952">initiated</text><circle cx="1344.218" cy="482.709" fill="#FEFECE" filter="url(#a)" stroke="#a80036" stroke-width="1.889" r="11.336"/><path fill="#A80036" stroke="#a80036" stroke-width=".945" d="M1340.44 471.374l5.667-4.724-1.889 4.724 1.89 4.723-5.669-4.723z"/><text font-family="Futura" font-size="13.225" lengthAdjust="spacingAndGlyphs" textLength="43.453" x="1322.491" y="511.952">verified</text><circle cx="1262.035" cy="482.709" fill="#FEFECE" filter="url(#a)" stroke="#a80036" stroke-width="1.889" r="11.336"/><path fill="#A80036" stroke="#a80036" stroke-width=".945" d="M1258.256 471.374l5.668-4.724-1.89 4.724 1.89 4.723-5.668-4.723z"/><text font-family="Futura" font-size="13.225" lengthAdjust="spacingAndGlyphs" textLength="53.844" x="1235.112" y="511.952">validated</text><circle cx="2201.003" cy="1102.391" fill="#FEFECE" filter="url(#a)" stroke="#a80036" stroke-width="1.889" r="11.336"/><path fill="#A80036" stroke="#a80036" stroke-width=".945" d="M2197.225 1091.055l5.668-4.723-1.89 4.723 1.89 4.723-5.668-4.723z"/><text font-family="Futura" font-size="13.225" lengthAdjust="spacingAndGlyphs" textLength="66.125" x="2167.941" y="1131.634">preliminary</text><circle cx="2297.356" cy="1102.391" fill="#FEFECE" filter="url(#a)" stroke="#a80036" stroke-width="1.889" r="11.336"/><path fill="#A80036" stroke="#a80036" stroke-width=".945" d="M2293.578 1091.055l5.668-4.723-1.89 4.723 1.89 4.723-5.668-4.723z"/><text font-family="Futura" font-size="13.225" lengthAdjust="spacingAndGlyphs" textLength="43.453" x="2275.63" y="1131.634">verified</text><circle cx="2054.585" cy="482.709" fill="#FEFECE" filter="url(#a)" stroke="#a80036" stroke-width="1.889" r="11.336"/><path fill="#A80036" stroke="#a80036" stroke-width=".945" d="M2050.806 471.374l5.668-4.724-1.89 4.724 1.89 4.723-5.668-4.723z"/><text font-family="Futura" font-size="13.225" lengthAdjust="spacingAndGlyphs" textLength="46.287" x="2031.441" y="511.952">initiated</text><circle cx="1976.18" cy="482.709" fill="#FEFECE" filter="url(#a)" stroke="#a80036" stroke-width="1.889" r="11.336"/><path fill="#A80036" stroke="#a80036" stroke-width=".945" d="M1972.401 471.374l5.668-4.724-1.89 4.724 1.89 4.723-5.668-4.723z"/><text font-family="Futura" font-size="13.225" lengthAdjust="spacingAndGlyphs" textLength="43.453" x="1954.453" y="511.952">verified</text><circle cx="2137.713" cy="482.709" fill="#FEFECE" filter="url(#a)" stroke="#a80036" stroke-width="1.889" r="11.336"/><path fill="#A80036" stroke="#a80036" stroke-width=".945" d="M2133.934 471.374l5.668-4.724-1.89 4.724 1.89 4.723-5.668-4.723z"/><text font-family="Futura" font-size="13.225" lengthAdjust="spacingAndGlyphs" textLength="53.844" x="2110.791" y="511.952">validated</text><circle cx="2166.052" cy="892.682" fill="#FEFECE" filter="url(#a)" stroke="#a80036" stroke-width="1.889" r="11.336"/><path fill="#A80036" stroke="#a80036" stroke-width=".945" d="M2162.273 881.346l5.668-4.723-1.89 4.723 1.89 4.723-5.668-4.723z"/><text font-family="Futura" font-size="13.225" lengthAdjust="spacingAndGlyphs" textLength="60.457" x="2135.823" y="921.925">integrated</text><circle cx="2081.035" cy="892.682" fill="#FEFECE" filter="url(#a)" stroke="#a80036" stroke-width="1.889" r="11.336"/><path fill="#A80036" stroke="#a80036" stroke-width=".945" d="M2077.256 881.346l5.668-4.723-1.89 4.723 1.89 4.723-5.668-4.723z"/><text font-family="Futura" font-size="13.225" lengthAdjust="spacingAndGlyphs" textLength="43.453" x="2059.308" y="921.925">verified</text><circle cx="1909.111" cy="892.682" fill="#FEFECE" filter="url(#a)" stroke="#a80036" stroke-width="1.889" r="11.336"/><path fill="#A80036" stroke="#a80036" stroke-width=".945" d="M1905.332 881.346l5.668-4.723-1.89 4.723 1.89 4.723-5.668-4.723z"/><text font-family="Futura" font-size="13.225" lengthAdjust="spacingAndGlyphs" textLength="53.844" x="1882.189" y="921.925">validated</text><circle cx="1997.907" cy="892.682" fill="#FEFECE" filter="url(#a)" stroke="#a80036" stroke-width="1.889" r="11.336"/><path fill="#A80036" stroke="#a80036" stroke-width=".945" d="M1994.128 881.346l5.668-4.723-1.89 4.723 1.89 4.723-5.668-4.723z"/><text font-family="Futura" font-size="13.225" lengthAdjust="spacingAndGlyphs" textLength="56.678" x="1969.568" y="921.925">corrected</text><circle cx="2903.813" cy="1320.602" fill="#FEFECE" filter="url(#a)" stroke="#a80036" stroke-width="1.889" r="11.336"/><path fill="#A80036" stroke="#a80036" stroke-width=".945" d="M2900.035 1309.266l5.667-4.723-1.889 4.723 1.89 4.724-5.668-4.724z"/><text font-family="Futura" font-size="13.225" lengthAdjust="spacingAndGlyphs" textLength="30.228" x="2888.699" y="1349.845">initial</text><circle cx="2989.775" cy="1320.602" fill="#FEFECE" filter="url(#a)" stroke="#a80036" stroke-width="1.889" r="11.336"/><path fill="#A80036" stroke="#a80036" stroke-width=".945" d="M2985.997 1309.266l5.667-4.723-1.889 4.723 1.89 4.724-5.668-4.724z"/><text font-family="Futura" font-size="13.225" lengthAdjust="spacingAndGlyphs" textLength="53.844" x="2962.853" y="1349.845">validated</text><circle cx="2828.242" cy="1102.391" fill="#FEFECE" filter="url(#a)" stroke="#a80036" stroke-width="1.889" r="11.336"/><path fill="#A80036" stroke="#a80036" stroke-width=".945" d="M2824.464 1091.055l5.668-4.723-1.89 4.723 1.89 4.723-5.668-4.723z"/><text font-family="Futura" font-size="13.225" lengthAdjust="spacingAndGlyphs" textLength="66.125" x="2795.18" y="1131.634">preliminary</text><circle cx="2740.391" cy="1102.391" fill="#FEFECE" filter="url(#a)" stroke="#a80036" stroke-width="1.889" r="11.336"/><path fill="#A80036" stroke="#a80036" stroke-width=".945" d="M2736.613 1091.055l5.667-4.723-1.889 4.723 1.89 4.723-5.668-4.723z"/><text font-family="Futura" font-size="13.225" lengthAdjust="spacingAndGlyphs" textLength="43.453" x="2718.664" y="1131.634">verified</text><circle cx="170.979" cy="1320.602" fill="#FEFECE" filter="url(#a)" stroke="#a80036" stroke-width="1.889" r="11.336"/><path fill="#A80036" stroke="#a80036" stroke-width=".945" d="M167.2 1309.266l5.669-4.723-1.89 4.723 1.89 4.724-5.668-4.724z"/><text font-family="Futura" font-size="13.225" lengthAdjust="spacingAndGlyphs" textLength="30.228" x="155.865" y="1349.845">initial</text><circle cx="247.495" cy="1320.602" fill="#FEFECE" filter="url(#a)" stroke="#a80036" stroke-width="1.889" r="11.336"/><path fill="#A80036" stroke="#a80036" stroke-width=".945" d="M243.716 1309.266l5.668-4.723-1.89 4.723 1.89 4.724-5.668-4.724z"/><text font-family="Futura" font-size="13.225" lengthAdjust="spacingAndGlyphs" textLength="56.678" x="219.156" y="1349.845">published</text><circle cx="426.976" cy="1320.602" fill="#FEFECE" filter="url(#a)" stroke="#a80036" stroke-width="1.889" r="11.336"/><path fill="#A80036" stroke="#a80036" stroke-width=".945" d="M423.197 1309.266l5.668-4.723-1.89 4.723 1.89 4.724-5.668-4.724z"/><text font-family="Futura" font-size="13.225" lengthAdjust="spacingAndGlyphs" textLength="235.214" x="309.368" y="1349.845">Product Acceptance Record (approved)</text><circle cx="3937.246" cy="63.291" fill="#FEFECE" filter="url(#a)" stroke="#a80036" stroke-width="1.889" r="7.557"/><path d="M3937.246 70.848v25.505m-12.28-17.948h24.56m-12.28 17.948l-12.28 14.17m12.28-14.17l12.28 14.17" fill="none" filter="url(#a)" stroke="#a80036" stroke-width="1.889"/><text font-family="Futura" font-size="13.225" lengthAdjust="spacingAndGlyphs" textLength="25.505" x="3924.493" y="131.264">PJM</text><circle cx="3998.647" cy="63.291" fill="#FEFECE" filter="url(#a)" stroke="#a80036" stroke-width="1.889" r="7.557"/><path d="M3998.647 70.848v25.505m-12.28-17.948h24.56m-12.28 17.948l-12.28 14.17m12.28-14.17l12.28 14.17" fill="none" filter="url(#a)" stroke="#a80036" stroke-width="1.889"/><text font-family="Futura" font-size="13.225" lengthAdjust="spacingAndGlyphs" textLength="20.782" x="3988.256" y="131.264">WT</text><circle cx="4060.048" cy="63.291" fill="#FEFECE" filter="url(#a)" stroke="#a80036" stroke-width="1.889" r="7.557"/><path d="M4060.048 70.848v25.505m-12.28-17.948h24.56m-12.28 17.948l-12.28 14.17m12.28-14.17l12.28 14.17" fill="none" filter="url(#a)" stroke="#a80036" stroke-width="1.889"/><text font-family="Futura" font-size="13.225" lengthAdjust="spacingAndGlyphs" textLength="22.671" x="4048.713" y="131.264">SYS</text><circle cx="3937.246" cy="201.208" fill="#FEFECE" filter="url(#a)" stroke="#a80036" stroke-width="1.889" r="7.557"/><path d="M3937.246 208.765v25.505m-12.28-17.948h24.56m-12.28 17.948l-12.28 14.17m12.28-14.17l12.28 14.17" fill="none" filter="url(#a)" stroke="#a80036" stroke-width="1.889"/><text font-family="Futura" font-size="13.225" lengthAdjust="spacingAndGlyphs" textLength="31.173" x="3921.659" y="269.181">ACQ</text><circle cx="4000.536" cy="201.208" fill="#FEFECE" filter="url(#a)" stroke="#a80036" stroke-width="1.889" r="7.557"/><path d="M4000.536 208.765v25.505m-12.28-17.948h24.56m-12.28 17.948l-12.28 14.17m12.28-14.17l12.28 14.17" fill="none" filter="url(#a)" stroke="#a80036" stroke-width="1.889"/><text font-family="Futura" font-size="13.225" lengthAdjust="spacingAndGlyphs" textLength="22.671" x="3989.201" y="269.181">STK</text><circle cx="4061.938" cy="201.208" fill="#FEFECE" filter="url(#a)" stroke="#a80036" stroke-width="1.889" r="7.557"/><path d="M4061.938 208.765v25.505m-12.28-17.948h24.56m-12.28 17.948l-12.28 14.17m12.28-14.17l12.28 14.17" fill="none" filter="url(#a)" stroke="#a80036" stroke-width="1.889"/><text font-family="Futura" font-size="13.225" lengthAdjust="spacingAndGlyphs" textLength="24.561" x="4049.657" y="269.181">DES</text><circle cx="3937.246" cy="339.125" fill="#FEFECE" filter="url(#a)" stroke="#a80036" stroke-width="1.889" r="7.557"/><path d="M3937.246 346.682v25.505m-12.28-17.948h24.56m-12.28 17.948l-12.28 14.17m12.28-14.17l12.28 14.17" fill="none" filter="url(#a)" stroke="#a80036" stroke-width="1.889"/><text font-family="Futura" font-size="13.225" lengthAdjust="spacingAndGlyphs" textLength="20.782" x="3926.855" y="407.098">IVV</text><circle cx="3998.647" cy="339.125" fill="#FEFECE" filter="url(#a)" stroke="#a80036" stroke-width="1.889" r="7.557"/><path d="M3998.647 346.682v25.505m-12.28-17.948h24.56m-12.28 17.948l-12.28 14.17m12.28-14.17l12.28 14.17" fill="none" filter="url(#a)" stroke="#a80036" stroke-width="1.889"/><text font-family="Futura" font-size="13.225" lengthAdjust="spacingAndGlyphs" textLength="25.505" x="3985.894" y="407.098">DEV</text><path fill="#FEFECE" filter="url(#a)" stroke="#000" stroke-width="1.417" d="M1697.512 350.46h196.484v39.291h-196.484z"/><path fill="#FEFECE" stroke="#000" stroke-width="1.417" d="M1877.938 355.183v13.225h11.335v-7.557l-5.668-5.668h-5.667z"/><path stroke="#000" stroke-width="1.417" d="M1883.605 355.183v5.668M1889.273 360.851h-5.668"/><text font-family="Futura" font-size="13.225" lengthAdjust="spacingAndGlyphs" textLength="168.145" x="1706.958" y="376.869">Implementation Environment</text><path fill="#FEFECE" filter="url(#a)" stroke="#000" stroke-width="1.417" d="M1549.204 212.543h98.242v39.291h-98.242z"/><path fill="#FEFECE" stroke="#000" stroke-width="1.417" d="M1631.388 217.266v13.225h11.335v-7.557l-5.668-5.668h-5.668z"/><path stroke="#000" stroke-width="1.417" d="M1637.055 217.266v5.668M1642.723 222.934h-5.668"/><text font-family="Futura" font-size="13.225" lengthAdjust="spacingAndGlyphs" textLength="69.903" x="1558.65" y="238.952">Data Model</text><path fill="#FEFECE" filter="url(#a)" stroke="#000" stroke-width="1.417" d="M3438.477 687.223h160.588v39.291h-160.588z"/><path fill="#FEFECE" stroke="#000" stroke-width="1.417" d="M3583.007 691.946v13.225h11.336v-7.557l-5.668-5.668h-5.668z"/><path stroke="#000" stroke-width="1.417" d="M3588.675 691.946v5.668M3594.343 697.614h-5.668"/><text font-family="Futura" font-size="13.225" lengthAdjust="spacingAndGlyphs" textLength="132.249" x="3447.924" y="713.632">Justification Document</text><path fill="#FEFECE" filter="url(#a)" stroke="#000" stroke-width="1.417" d="M1817.953 212.543h63.291v39.291h-63.291z"/><path fill="#FEFECE" stroke="#000" stroke-width="1.417" d="M1865.185 217.266v13.225h11.336v-7.557l-5.668-5.668h-5.668z"/><path stroke="#000" stroke-width="1.417" d="M1870.853 217.266v5.668M1876.521 222.934h-5.668"/><text font-family="Futura" font-size="13.225" lengthAdjust="spacingAndGlyphs" textLength="34.952" x="1827.4" y="238.952">SEMP</text><path fill="#FEFECE" filter="url(#a)" stroke="#000" stroke-width="1.417" d="M1937.922 212.543h125.637v39.291h-125.637z"/><path fill="#FEFECE" stroke="#000" stroke-width="1.417" d="M2047.5 217.266v13.225h11.336v-7.557l-5.668-5.668h-5.668z"/><path stroke="#000" stroke-width="1.417" d="M2053.168 217.266v5.668M2058.836 222.934h-5.668"/><text font-family="Futura" font-size="13.225" lengthAdjust="spacingAndGlyphs" textLength="97.298" x="1947.369" y="238.952">SoW (reviewed)</text><path fill="#FEFECE" filter="url(#a)" stroke="#000" stroke-width="1.417" d="M3923.076 881.818h154.92v39.291h-154.92z"/><path fill="#FEFECE" stroke="#000" stroke-width="1.417" d="M4061.938 886.542v13.224h11.335v-7.557l-5.668-5.667h-5.667z"/><path stroke="#000" stroke-width="1.417" d="M4067.606 886.542v5.667M4073.273 892.209h-5.667"/><text font-family="Futura" font-size="13.225" lengthAdjust="spacingAndGlyphs" textLength="126.581" x="3932.523" y="908.228">System Configuration</text><path fill="#FEFECE" filter="url(#a)" stroke="#000" stroke-width="1.417" d="M2628.452 687.223h138.862v39.291h-138.862z"/><path fill="#FEFECE" stroke="#000" stroke-width="1.417" d="M2751.254 691.946v13.225h11.336v-7.557l-5.668-5.668h-5.668z"/><path stroke="#000" stroke-width="1.417" d="M2756.922 691.946v5.668M2762.59 697.614h-5.668"/><text font-family="Futura" font-size="13.225" lengthAdjust="spacingAndGlyphs" textLength="110.522" x="2637.898" y="713.632">Traceability Matrix</text><path fill="#FEFECE" filter="url(#a)" stroke="#000" stroke-width="1.417" d="M2549.574 687.223h45.343v39.291h-45.343z"/><path fill="#FEFECE" stroke="#000" stroke-width="1.417" d="M2578.858 691.946v13.225h11.336v-7.557l-5.668-5.668h-5.668z"/><path stroke="#000" stroke-width="1.417" d="M2584.526 691.946v5.668M2590.194 697.614h-5.668"/><text font-family="Futura" font-size="13.225" lengthAdjust="spacingAndGlyphs" textLength="17.003" x="2559.021" y="713.632">CR</text><ellipse cx="1409.504" cy="94.485" fill="#FEFECE" filter="url(#a)" rx="73.787" ry="17.025" stroke="#a80036" stroke-width="1.417"/><text font-family="Futura" font-size="13.225" lengthAdjust="spacingAndGlyphs" textLength="111.467" x="1353.77" y="99.961">Revise Project Plan</text><ellipse cx="1183.635" cy="232.193" fill="#FEFECE" filter="url(#a)" rx="68.019" ry="15.871" stroke="#a80036" stroke-width="1.417"/><text font-family="Futura" font-size="13.225" lengthAdjust="spacingAndGlyphs" textLength="96.353" x="1135.459" y="237.669">Generate SEMP</text><ellipse cx="1366.995" cy="232.591" fill="#FEFECE" filter="url(#a)" rx="81.817" ry="18.631" stroke="#a80036" stroke-width="1.417"/><text font-family="Futura" font-size="13.225" lengthAdjust="spacingAndGlyphs" textLength="131.304" x="1301.343" y="238.067">Generate Data Model</text><ellipse cx="1545.532" cy="370.413" fill="#FEFECE" filter="url(#a)" rx="119.131" ry="26.093" stroke="#a80036" stroke-width="1.417"/><text font-family="Futura" font-size="13.225" lengthAdjust="spacingAndGlyphs" textLength="215.377" x="1437.844" y="375.889">Update Implementation Environment</text><ellipse cx="2000.948" cy="370.245" fill="#FEFECE" filter="url(#a)" rx="73.417" ry="16.951" stroke="#a80036" stroke-width="1.417"/><text font-family="Futura" font-size="13.225" lengthAdjust="spacingAndGlyphs" textLength="110.522" x="1945.687" y="375.721">Elicit Requirements</text><ellipse cx="1344.02" cy="370.437" fill="#FEFECE" filter="url(#a)" rx="48.923" ry="15.254" stroke="#a80036" stroke-width="1.417"/><text font-family="Futura" font-size="13.225" lengthAdjust="spacingAndGlyphs" textLength="65.18" x="1311.43" y="375.913">Verify StRS</text><ellipse cx="1203.647" cy="370.437" fill="#FEFECE" filter="url(#a)" rx="58.275" ry="15.254" stroke="#a80036" stroke-width="1.417"/><text font-family="Futura" font-size="13.225" lengthAdjust="spacingAndGlyphs" textLength="78.405" x="1164.444" y="375.913">Validate StRS</text><ellipse cx="1701.258" cy="599.554" fill="#FEFECE" filter="url(#a)" rx="105.294" ry="23.326" stroke="#a80036" stroke-width="1.417"/><text font-family="Futura" font-size="13.225" lengthAdjust="spacingAndGlyphs" textLength="185.149" x="1608.684" y="605.03">Elaborate SysRS and Interfaces</text><ellipse cx="2126.588" cy="599.509" fill="#FEFECE" filter="url(#a)" rx="123.958" ry="27.059" stroke="#a80036" stroke-width="1.417"/><text font-family="Futura" font-size="13.225" lengthAdjust="spacingAndGlyphs" textLength="225.768" x="2013.703" y="604.984">Elaborate SERS and System Interfaces</text><ellipse cx="1295.836" cy="599.425" fill="#FEFECE" filter="url(#a)" rx="83.395" ry="18.946" stroke="#a80036" stroke-width="1.417"/><text font-family="Futura" font-size="13.225" lengthAdjust="spacingAndGlyphs" textLength="135.083" x="1228.294" y="604.901">Verify SysRS and SERS</text><ellipse cx="1904.624" cy="599.514" fill="#FEFECE" filter="url(#a)" rx="64.944" ry="15.256" stroke="#a80036" stroke-width="1.417"/><text font-family="Futura" font-size="13.225" lengthAdjust="spacingAndGlyphs" textLength="87.851" x="1860.698" y="604.99">Validate SysRS</text><ellipse cx="1487.985" cy="599.22" fill="#FEFECE" filter="url(#a)" rx="75.281" ry="17.323" stroke="#a80036" stroke-width="1.417"/><text font-family="Futura" font-size="13.225" lengthAdjust="spacingAndGlyphs" textLength="115.246" x="1430.362" y="604.695">Update Traceability</text><ellipse cx="1127.813" cy="599.512" fill="#FEFECE" filter="url(#a)" rx="50.927" ry="15.254" stroke="#a80036" stroke-width="1.417"/><text font-family="Futura" font-size="13.225" lengthAdjust="spacingAndGlyphs" textLength="68.014" x="1093.806" y="604.987">Update IVV</text><ellipse cx="3499.78" cy="804.338" fill="#FEFECE" filter="url(#a)" rx="71.221" ry="16.511" stroke="#a80036" stroke-width="1.417"/><text font-family="Futura" font-size="13.225" lengthAdjust="spacingAndGlyphs" textLength="104.855" x="3447.352" y="809.814">Functional Design</text><ellipse cx="3611.151" cy="599.522" fill="#FEFECE" filter="url(#a)" rx="76.792" ry="17.626" stroke="#a80036" stroke-width="1.417"/><text font-family="Futura" font-size="13.225" lengthAdjust="spacingAndGlyphs" textLength="119.024" x="3551.638" y="604.998">Functional trade-offs</text><ellipse cx="3257.146" cy="599.38" fill="#FEFECE" filter="url(#a)" rx="66.636" ry="15.594" stroke="#a80036" stroke-width="1.417"/><text font-family="Futura" font-size="13.225" lengthAdjust="spacingAndGlyphs" textLength="92.574" x="3210.859" y="604.856">Physical Design</text><ellipse cx="3429.187" cy="599.497" fill="#FEFECE" filter="url(#a)" rx="71.948" ry="16.657" stroke="#a80036" stroke-width="1.417"/><text font-family="Futura" font-size="13.225" lengthAdjust="spacingAndGlyphs" textLength="106.744" x="3375.815" y="604.973">Physical trade-offs</text><ellipse cx="2809.478" cy="599.587" fill="#FEFECE" filter="url(#a)" rx="79.478" ry="18.163" stroke="#a80036" stroke-width="1.417"/><text font-family="Futura" font-size="13.225" lengthAdjust="spacingAndGlyphs" textLength="125.637" x="2746.66" y="605.063">Verify System Design</text><ellipse cx="2645.844" cy="599.512" fill="#FEFECE" filter="url(#a)" rx="50.927" ry="15.254" stroke="#a80036" stroke-width="1.417"/><text font-family="Futura" font-size="13.225" lengthAdjust="spacingAndGlyphs" textLength="68.014" x="2611.837" y="604.987">Update IVV</text><ellipse cx="2938.955" cy="1006.643" fill="#FEFECE" filter="url(#a)" rx="83.791" ry="19.025" stroke="#a80036" stroke-width="1.417"/><text font-family="Futura" font-size="13.225" lengthAdjust="spacingAndGlyphs" textLength="136.028" x="2870.941" y="1012.119">Create System Manual</text><ellipse cx="2740.577" cy="1006.642" fill="#FEFECE" filter="url(#a)" rx="81.425" ry="18.552" stroke="#a80036" stroke-width="1.417"/><text font-family="Futura" font-size="13.225" lengthAdjust="spacingAndGlyphs" textLength="130.36" x="2675.398" y="1012.118">Verify System Manual</text><ellipse cx="258.736" cy="599.542" fill="#FEFECE" filter="url(#a)" rx="74.532" ry="17.174" stroke="#a80036" stroke-width="1.417"/><text font-family="Futura" font-size="13.225" lengthAdjust="spacingAndGlyphs" textLength="113.356" x="202.058" y="605.018">Construct Software</text><ellipse cx="511.233" cy="599.598" fill="#FEFECE" filter="url(#a)" rx="77.173" ry="17.702" stroke="#a80036" stroke-width="1.417"/><text font-family="Futura" font-size="13.225" lengthAdjust="spacingAndGlyphs" textLength="119.969" x="451.249" y="605.074">Construct Hardware</text><ellipse cx="681.849" cy="599.512" fill="#FEFECE" filter="url(#a)" rx="60.278" ry="15.254" stroke="#a80036" stroke-width="1.417"/><text font-family="Futura" font-size="13.225" lengthAdjust="spacingAndGlyphs" textLength="81.239" x="641.23" y="604.987">Verify System</text><ellipse cx="842.655" cy="599.38" fill="#FEFECE" filter="url(#a)" rx="66.636" ry="15.594" stroke="#a80036" stroke-width="1.417"/><text font-family="Futura" font-size="13.225" lengthAdjust="spacingAndGlyphs" textLength="92.574" x="796.367" y="604.856">Correct Defects</text><ellipse cx="2455.977" cy="599.168" fill="#FEFECE" filter="url(#a)" rx="105.722" ry="23.411" stroke="#a80036" stroke-width="1.417"/><text font-family="Futura" font-size="13.225" lengthAdjust="spacingAndGlyphs" textLength="186.093" x="2362.931" y="604.643">Verify IVV plan and procedures</text><ellipse cx="2166.049" cy="804.452" fill="#FEFECE" filter="url(#a)" rx="69.428" ry="16.153" stroke="#a80036" stroke-width="1.417"/><text font-family="Futura" font-size="13.225" lengthAdjust="spacingAndGlyphs" textLength="100.132" x="2115.983" y="809.928">Integrate System</text><ellipse cx="2329.296" cy="804.498" fill="#FEFECE" filter="url(#a)" rx="60.278" ry="15.254" stroke="#a80036" stroke-width="1.417"/><text font-family="Futura" font-size="13.225" lengthAdjust="spacingAndGlyphs" textLength="81.239" x="2288.676" y="809.974">Verify System</text><ellipse cx="1829.544" cy="804.504" fill="#FEFECE" filter="url(#a)" rx="67.324" ry="15.732" stroke="#a80036" stroke-width="1.417"/><text font-family="Futura" font-size="13.225" lengthAdjust="spacingAndGlyphs" textLength="94.464" x="1782.312" y="809.98">Validate System</text><ellipse cx="1997.001" cy="804.366" fill="#FEFECE" filter="url(#a)" rx="66.636" ry="15.594" stroke="#a80036" stroke-width="1.417"/><text font-family="Futura" font-size="13.225" lengthAdjust="spacingAndGlyphs" textLength="92.574" x="1950.714" y="809.842">Correct Defects</text><ellipse cx="2081.056" cy="1006.42" fill="#FEFECE" filter="url(#a)" rx="96.847" ry="21.637" stroke="#a80036" stroke-width="1.417"/><text font-family="Futura" font-size="13.225" lengthAdjust="spacingAndGlyphs" textLength="166.256" x="1997.928" y="1011.896">Document Operation Guide</text><ellipse cx="2297.179" cy="1006.569" fill="#FEFECE" filter="url(#a)" rx="85.785" ry="19.424" stroke="#a80036" stroke-width="1.417"/><text font-family="Futura" font-size="13.225" lengthAdjust="spacingAndGlyphs" textLength="140.751" x="2226.804" y="1012.045">Verify Operation Guide</text><ellipse cx="71.962" cy="1006.45" fill="#FEFECE" filter="url(#a)" rx="66.294" ry="15.526" stroke="#a80036" stroke-width="1.417"/><text font-family="Futura" font-size="13.225" lengthAdjust="spacingAndGlyphs" textLength="91.63" x="26.147" y="1011.926">Review Product</text><ellipse cx="3873.141" cy="1006.347" fill="#FEFECE" filter="url(#a)" rx="108.291" ry="23.925" stroke="#a80036" stroke-width="1.417"/><text font-family="Futura" font-size="13.225" lengthAdjust="spacingAndGlyphs" textLength="191.761" x="3777.26" y="1011.823">Document Maintenance Manual</text><ellipse cx="2740.406" cy="1220.379" fill="#FEFECE" filter="url(#a)" rx="87.394" ry="19.746" stroke="#a80036" stroke-width="1.417"/><text font-family="Futura" font-size="13.225" lengthAdjust="spacingAndGlyphs" textLength="144.529" x="2668.141" y="1225.855">Document Training Spec</text><ellipse cx="2989.697" cy="1220.266" fill="#FEFECE" filter="url(#a)" rx="105.722" ry="23.411" stroke="#a80036" stroke-width="1.417"/><text font-family="Futura" font-size="13.225" lengthAdjust="spacingAndGlyphs" textLength="186.093" x="2896.651" y="1225.742">V&amp;V Maintenance and Training</text><ellipse cx="241.942" cy="1006.533" fill="#FEFECE" filter="url(#a)" rx="69.073" ry="16.082" stroke="#a80036" stroke-width="1.417"/><text font-family="Futura" font-size="13.225" lengthAdjust="spacingAndGlyphs" textLength="99.187" x="192.349" y="1012.009">Perform Delivery</text><ellipse cx="247.336" cy="1220.25" fill="#FEFECE" filter="url(#a)" rx="129.257" ry="28.119" stroke="#a80036" stroke-width="1.417"/><text font-family="Futura" font-size="13.225" lengthAdjust="spacingAndGlyphs" textLength="237.104" x="128.784" y="1225.726">Transition to Manufacturing and support</text><path d="M1224.59 42.818a96.997 96.997 0 01.509-1.18c.23-.523.464-1.044.704-1.563a77.5 77.5 0 013.138-6.08c4.54-7.893 10.534-14.805 18.452-19.353 20.751-11.92 31.112-7.48 53.844 0 35.478 11.674 68.869 39.947 88.917 59.504" fill="none" stroke="#a80036" stroke-width="1.889"/><path fill="#A80036" stroke="#a80036" stroke-width=".945" d="M1393.74 77.69l-3.391-8.664.031 5.343-5.344.031 8.703 3.29z"/><path d="M1335.674 94.464h-28.021" fill="none" stroke="#a80036" stroke-width="1.889"/><path fill="#A80036" stroke="#a80036" stroke-width=".945" d="M1302.768 94.464l8.502 3.778-3.778-3.778 3.778-3.779-8.502 3.779z"/><path d="M1259.089 118.803l-62.14 93.53" fill="none" stroke="#a80036" stroke-width="1.889"/><path fill="#A80036" stroke="#a80036" stroke-width=".945" d="M1194.212 216.452l7.852-4.99-5.238 1.056-1.056-5.238-1.558 9.172z"/><path d="M1199.92 216.659c18.785-16.932 51.445-42.841 85.258-53.237 94.306-28.993 348.633-25.363 443.98 0 33.677 8.959 67.745 29.806 91.012 46.248" fill="none" stroke="#a80036" stroke-width="1.889"/><path fill="#A80036" stroke="#a80036" stroke-width=".945" d="M1824.098 212.477l-4.72-8.017.877 5.27-5.271.879 9.114 1.868z"/><path d="M1291.43 118.803l60.475 91.024" fill="none" stroke="#a80036" stroke-width="1.889"/><path fill="#A80036" stroke="#a80036" stroke-width=".945" d="M1354.686 214.013l-1.557-9.173-1.057 5.239-5.238-1.056 7.852 4.99z"/><path d="M1448.706 232.38h95.143" fill="none" stroke="#a80036" stroke-width="1.889"/><path fill="#A80036" stroke="#a80036" stroke-width=".945" d="M1548.94 232.38l-8.503-3.778 3.779 3.779-3.779 3.778 8.502-3.778z"/><path d="M1297.798 118.588c6.364 5.925 13.568 11.883 20.915 16.495 59.102 37.097 95.779 8.668 146.418 56.678 42.898 40.67 64.57 108.49 74.055 147.794" fill="none" stroke="#a80036" stroke-width="1.889"/><path fill="#A80036" stroke="#a80036" stroke-width=".945" d="M1540.283 344.203l1.725-9.143-2.81 4.546-4.545-2.81 5.63 7.407z"/><path d="M1590.633 252.435l-33.522 87.398" fill="none" stroke="#a80036" stroke-width="1.889"/><path fill="#A80036" stroke="#a80036" stroke-width=".945" d="M1555.385 344.332l6.573-6.585-4.882 2.175-2.174-4.881.483 9.29z"/><path d="M1664.478 370.298h27.948" fill="none" stroke="#a80036" stroke-width="1.889"/><path fill="#A80036" stroke="#a80036" stroke-width=".945" d="M1697.297 370.298l-8.501-3.779 3.778 3.779-3.778 3.778 8.501-3.778z"/><path d="M1223.26 126.185l.106.178c.285.476.58.945.885 1.407.61.924 1.258 1.82 1.948 2.678 1.381 1.716 2.928 3.283 4.663 4.635 152.93 119.25 249.26-6.4 432.643 56.678 67.272 23.14 75.256 47.556 137.917 81.239 55.468 29.816 121.41 61.245 161.807 80.058" fill="none" stroke="#a80036" stroke-width="1.889"/><path fill="#A80036" stroke="#a80036" stroke-width=".945" d="M1967.54 355.063l-6.114-7.01 1.832 5.019-5.02 1.832 9.303.16z"/><path d="M2000.74 252.435v95.786" fill="none" stroke="#a80036" stroke-width="1.889"/><path fill="#A80036" stroke="#a80036" stroke-width=".945" d="M2000.74 353.263l3.779-8.502-3.778 3.779-3.78-3.779 3.78 8.502z"/><path d="M1871.576 252.435l107.228 97.845" fill="none" stroke="#a80036" stroke-width="1.889"/><path fill="#A80036" stroke="#a80036" stroke-width=".945" d="M1982.532 353.682l-3.734-8.522.245 5.338-5.338.244 8.827 2.94z"/><path d="M1970.846 386.03c-17.33 8.52-39.813 18.566-60.79 24.887-169.974 51.216-383.687 72.408-459.333 78.648" fill="none" stroke="#a80036" stroke-width="1.889"/><path fill="#A80036" stroke="#a80036" stroke-width=".945" d="M1445.941 489.955l8.78 3.076-4.072-3.46 3.46-4.073-8.168 4.457z"/><path d="M1406.968 467.447l-50.53-78.23" fill="none" stroke="#a80036" stroke-width="1.889"/><path fill="#A80036" stroke="#a80036" stroke-width=".945" d="M1353.832 385.182l1.439 9.191 1.124-5.224 5.224 1.124-7.787-5.091z"/><path d="M1344.218 385.426v77.402" fill="none" stroke="#a80036" stroke-width="1.889"/><path fill="#A80036" stroke="#a80036" stroke-width=".945" d="M1344.218 467.554l3.778-8.502-3.778 3.779-3.779-3.779 3.779 8.502z"/><path d="M1328.547 467.552c-6.533-9.113-14.573-19.233-23.06-27.351-22.253-21.29-51.597-40.668-73.1-53.592" fill="none" stroke="#a80036" stroke-width="1.889"/><path fill="#A80036" stroke="#a80036" stroke-width=".945" d="M1228.195 384.111l5.37 7.598-1.312-5.18 5.18-1.312-9.238-1.106z"/><path d="M1210.766 385.426l37.492 77.705" fill="none" stroke="#a80036" stroke-width="1.889"/><path fill="#A80036" stroke="#a80036" stroke-width=".945" d="M1250.392 467.554l-.29-9.299-1.762 5.045-5.045-1.761 7.097 6.015z"/><path d="M1289.19 514.268c5.171 3.467 10.719 6.68 16.298 9.06 113.764 48.56 152.652 24.859 273.944 49.122 14.125 2.825 29.132 5.999 43.61 9.15" fill="none" stroke="#a80036" stroke-width="1.889"/><path fill="#A80036" stroke="#a80036" stroke-width=".945" d="M1627.93 582.667l-7.5-5.506 2.886 4.498-4.497 2.885 9.112-1.877z"/><path d="M1774.226 582.525c89.194-20.727 229.757-53.843 240.684-59.196 4.272-2.094 8.508-4.712 12.532-7.54" fill="none" stroke="#a80036" stroke-width="1.889"/><path fill="#A80036" stroke="#a80036" stroke-width=".945" d="M2031.389 512.901l-9.093 1.97 5.28.819-.819 5.28 4.631-8.069z"/><path d="M2070.696 515.85l35.081 52.622" fill="none" stroke="#a80036" stroke-width="1.889"/><path fill="#A80036" stroke="#a80036" stroke-width=".945" d="M2108.556 572.64l-1.572-9.17-1.048 5.24-5.24-1.048 7.86 4.978z"/><path d="M2988.776 492.59l-14.403 1.718a143821.807 143821.807 0 00-207.881 24.988c-127.412 15.411-288.657 35.09-432.295 53.154-31.351 3.942-65.35 8.309-96.593 12.357" fill="none" stroke="#a80036" stroke-width="1.889"/><path fill="#A80036" stroke="#a80036" stroke-width=".945" d="M2232.615 585.454l8.917 2.654-4.233-3.261 3.261-4.233-7.945 4.84zM2988.776 492.59l-8.89-2.746 4.2 3.305-3.305 4.2 7.995-4.759z"/><path d="M2037.296 580.593c-17.09-3.108-34.887-6.009-51.67-8.143-169.23-21.525-606.619 11.444-766.1-49.121-4.513-1.714-8.93-4.113-13.089-6.832" fill="none" stroke="#a80036" stroke-width="1.889"/><path fill="#A80036" stroke="#a80036" stroke-width=".945" d="M1202.369 513.686l4.845 7.942-.96-5.257 5.257-.96-9.142-1.725z"/><path d="M2031.271 513.936c-5.06 3.734-10.625 7.126-16.361 9.393-256.562 101.362-346.898 2.195-618.737 49.12-14.981 2.587-30.975 6.397-45.684 10.341" fill="none" stroke="#a80036" stroke-width="1.889"/><path fill="#A80036" stroke="#a80036" stroke-width=".945" d="M1345.554 584.132l9.195 1.416-4.637-2.655 2.655-4.637-7.213 5.876z"/><path d="M1202.329 513.217l69.754 64.129" fill="none" stroke="#a80036" stroke-width="1.889"/><path fill="#A80036" stroke="#a80036" stroke-width=".945" d="M1275.785 580.75l-3.7-8.536.223 5.339-5.339.224 8.816 2.972z"/><path d="M1346.947 584.373c15.69-4.268 33.085-8.643 49.226-11.923 211.487-42.983 471.033-70.215 553.53-78.264" fill="none" stroke="#a80036" stroke-width="1.889"/><path fill="#A80036" stroke="#a80036" stroke-width=".945" d="M1954.421 493.728l-8.827-2.94 4.126 3.396-3.395 4.126 8.096-4.582z"/><path d="M1256.691 582.636c-32.338-14.303-78.933-36.188-117.46-59.307-4.08-2.45-8.26-5.178-12.337-7.98" fill="none" stroke="#a80036" stroke-width="1.889"/><path fill="#A80036" stroke="#a80036" stroke-width=".945" d="M1122.859 512.533l4.809 7.965-.936-5.261 5.261-.936-9.134-1.768z"/><path d="M1344.45 614.865c16.265 4.539 34.621 8.946 51.723 11.43 62.447 9.068 1079.032 1.026 1135.453 29.283 11.773 5.896 21.199 16.971 27.995 27.343" fill="none" stroke="#a80036" stroke-width="1.889"/><path fill="#A80036" stroke="#a80036" stroke-width=".945" d="M2562.188 687l-1.33-9.207-1.185 5.21-5.21-1.186 7.725 5.184z"/><path d="M1960.068 515.85l-42.687 64.032" fill="none" stroke="#a80036" stroke-width="1.889"/><path fill="#A80036" stroke="#a80036" stroke-width=".945" d="M1914.467 584.252l7.86-4.978-5.24 1.048-1.047-5.24-1.572 9.17z"/><path d="M1289.033 514.657c5.189 3.426 10.782 6.523 16.455 8.672 216.125 81.85 291.504 1.554 517.66 49.12 14.37 3.023 29.753 7.724 43.224 12.358" fill="none" stroke="#a80036" stroke-width="1.889"/><path fill="#A80036" stroke="#a80036" stroke-width=".945" d="M1870.863 586.373l-6.783-6.368 2.323 4.812-4.812 2.324 9.272-.768z"/><path d="M1942.755 587.159c39.275-13.218 101.476-36.162 151.505-63.83 4.042-2.236 8.146-4.79 12.136-7.456" fill="none" stroke="#a80036" stroke-width="1.889"/><path fill="#A80036" stroke="#a80036" stroke-width=".945" d="M2110.342 513.177l-9.151 1.676 5.251.988-.988 5.252 4.888-7.916z"/><path d="M1288.97 512.784c5.328 3.743 10.986 7.434 16.518 10.545 43.948 24.716 97.55 46.124 135.221 59.872" fill="none" stroke="#a80036" stroke-width="1.889"/><path fill="#A80036" stroke="#a80036" stroke-width=".945" d="M1445.223 584.839l-6.702-6.453 2.262 4.841-4.841 2.263 9.28-.651z"/><path d="M2110.714 514.654c-5.189 3.427-10.782 6.525-16.454 8.675-214.932 81.461-289.132 5.61-514.828 49.12-14.48 2.793-29.96 6.894-43.996 11.059" fill="none" stroke="#a80036" stroke-width="1.889"/><path fill="#A80036" stroke="#a80036" stroke-width=".945" d="M1530.735 584.92l9.23 1.172-4.707-2.53 2.531-4.707-7.054 6.065z"/><path d="M1122.718 514.054c5.237 3.534 10.863 6.824 16.514 9.275 106.667 46.255 143.936 21.786 256.941 49.12 13.755 3.328 28.523 7.43 42.1 11.419" fill="none" stroke="#a80036" stroke-width="1.889"/><path fill="#A80036" stroke="#a80036" stroke-width=".945" d="M1442.83 585.215l-7.082-6.035 2.552 4.695-4.695 2.552 9.224-1.212z"/><path d="M1529.25 614.006c15.54 4.831 33.479 9.643 50.182 12.288 226.71 35.904 812.148-35.027 1032.488 29.284 20.321 5.93 40.746 17.856 56.585 28.736" fill="none" stroke="#a80036" stroke-width="1.889"/><path fill="#A80036" stroke="#a80036" stroke-width=".945" d="M2672.43 687.054l-4.809-7.964.936 5.26-5.26.936 9.133 1.768z"/><path d="M2110.784 514.847c-5.196 3.406-10.81 6.447-16.524 8.482-188.35 67.057-703.055 6.316-898.35 49.12-12.375 2.713-25.433 7.4-36.763 12.11" fill="none" stroke="#a80036" stroke-width="1.889"/><path fill="#A80036" stroke="#a80036" stroke-width=".945" d="M1154.732 586.432l9.302.159-4.954-2.004 2.004-4.954-6.352 6.798z"/><path d="M1102.986 515.85l18.96 63.573" fill="none" stroke="#a80036" stroke-width="1.889"/><path fill="#A80036" stroke="#a80036" stroke-width=".945" d="M1123.387 584.252l1.19-9.227-2.54 4.7-4.701-2.54 6.05 7.067z"/><path d="M1234.89 513.476l-85.405 68.564" fill="none" stroke="#a80036" stroke-width="1.889"/><path fill="#A80036" stroke="#a80036" stroke-width=".945" d="M1145.596 585.162l8.995-2.376-5.311-.58.58-5.313-4.264 8.269z"/><path d="M1154.37 612.345c12.32 5.38 27.359 11.037 41.54 13.95 226.487 46.507 812.874-13.762 1040.045 29.283 38.918 7.374 81.358 23.862 109.739 36.205" fill="none" stroke="#a80036" stroke-width="1.889"/><path fill="#A80036" stroke="#a80036" stroke-width=".945" d="M2350.125 693.726l-6.268-6.875 1.943 4.978-4.978 1.943 9.303-.046z"/><path d="M1155.113 612.215c12.213 5.218 26.96 10.783 40.797 14.08 167.243 39.839 713.181 71.405 853.76 79.012" fill="none" stroke="#a80036" stroke-width="1.889"/><path fill="#A80036" stroke="#a80036" stroke-width=".945" d="M2054.498 705.568l-8.286-4.231 3.57 3.976-3.977 3.57 8.693-3.315z"/><path d="M1222.996 126.215a37.492 37.492 0 001.113 1.745 32.657 32.657 0 001.982 2.632c1.408 1.68 2.99 3.2 4.77 4.491 84.015 60.936 828.94 47.92 932.357 56.678 365.89 30.987 1642.723-188.663 1642.723 178.537v229.074c0 117.332-157.198 171.771-246.276 193.201" fill="none" stroke="#a80036" stroke-width="1.889"/><path fill="#A80036" stroke="#a80036" stroke-width=".945" d="M3554.95 793.692l9.145 1.713-4.55-2.804 2.805-4.548-7.4 5.639z"/><path d="M2165.028 493.215c124.843 7.173 641.771 38.81 798.297 79.235 201.505 52.041 424.496 169.53 505.232 214.21" fill="none" stroke="#a80036" stroke-width="1.889"/><path fill="#A80036" stroke="#a80036" stroke-width=".945" d="M3472.753 788.987l-5.602-7.428 1.472 5.137-5.137 1.472 9.267.82z"/><path d="M2767.651 715.525l663.941 80.549" fill="none" stroke="#a80036" stroke-width="1.889"/><path fill="#A80036" stroke="#a80036" stroke-width=".945" d="M3436.435 796.661l-7.985-4.775 3.296 4.206-4.206 3.296 8.895-2.727z"/><path d="M3531.594 789.416c73.34-36.485 243.224-133.266 173.271-216.966-51.172-61.229-300.472-76.119-403.29-79.675" fill="none" stroke="#a80036" stroke-width="1.889"/><path fill="#A80036" stroke="#a80036" stroke-width=".945" d="M3296.792 492.614l8.37 4.062-3.65-3.903 3.904-3.65-8.624 3.49z"/><path d="M3297.054 503.827l263.466 80.094" fill="none" stroke="#a80036" stroke-width="1.889"/><path fill="#A80036" stroke="#a80036" stroke-width=".945" d="M3565.12 585.32l-7.035-6.089 2.516 4.715-4.714 2.516 9.233-1.143z"/><path d="M3596.472 616.674l-57.193 66.531" fill="none" stroke="#a80036" stroke-width="1.889"/><path fill="#A80036" stroke="#a80036" stroke-width=".945" d="M3536.131 686.866l8.408-3.984-5.329.403-.402-5.329-2.677 8.91z"/><path d="M2164.763 493.853c108.716 8.778 524.368 42.903 865.631 78.597 55.152 5.768 117.732 13.272 163.15 18.892" fill="none" stroke="#a80036" stroke-width="1.889"/><path fill="#A80036" stroke="#a80036" stroke-width=".945" d="M3198.44 591.949l-7.972-4.796 3.285 4.215-4.215 3.285 8.902-2.704z"/><path d="M3257.107 510.196v68.542" fill="none" stroke="#a80036" stroke-width="1.889"/><path fill="#A80036" stroke="#a80036" stroke-width=".945" d="M3257.107 583.55l3.779-8.5-3.779 3.778-3.778-3.779 3.778 8.502z"/><path d="M3241.761 583.89l-69.556-70.172" fill="none" stroke="#a80036" stroke-width="1.889"/><path fill="#A80036" stroke="#a80036" stroke-width=".945" d="M3168.713 510.196l3.302 8.698.023-5.344 5.344.024-8.669-3.378z"/><path d="M3286.662 510.196l113.25 70.937" fill="none" stroke="#a80036" stroke-width="1.889"/><path fill="#A80036" stroke="#a80036" stroke-width=".945" d="M3404.044 583.72l-5.199-7.715 1.196 5.208-5.208 1.197 9.211 1.31z"/><path d="M3177.503 510.141c7.534 4.671 15.852 9.424 23.87 13.188 32.197 15.11 122.678 43.88 179.4 61.375" fill="none" stroke="#a80036" stroke-width="1.889"/><path fill="#A80036" stroke="#a80036" stroke-width=".945" d="M3385.475 586.152l-7.013-6.114 2.499 4.723-4.723 2.5 9.237-1.11z"/><path d="M3442.66 615.727l56.185 67.422" fill="none" stroke="#a80036" stroke-width="1.889"/><path fill="#A80036" stroke="#a80036" stroke-width=".945" d="M3501.948 686.872l-2.54-8.95-.484 5.322-5.321-.484 8.345 4.112z"/><path d="M3388.739 613.164c-15.072 4.74-32.433 9.71-48.504 13.13-203.038 43.219-447.448 66.115-567.857 75.518" fill="none" stroke="#a80036" stroke-width="1.889"/><path fill="#A80036" stroke="#a80036" stroke-width=".945" d="M2767.443 702.195l8.768 3.108-4.06-3.474 3.475-4.06-8.183 4.426z"/><path d="M3228.243 510.115c-8.673 4.894-18.394 9.768-27.814 13.214-104.93 38.377-233.146 58.6-313.486 68.298" fill="none" stroke="#a80036" stroke-width="1.889"/><path fill="#A80036" stroke="#a80036" stroke-width=".945" d="M2882.2 592.194l8.89 2.743-4.2-3.303 3.303-4.2-7.993 4.76z"/><path d="M3124.443 510.19c-7.529 4.78-15.94 9.576-24.145 13.139-73.043 31.717-162.33 52.634-222.574 64.36" fill="none" stroke="#a80036" stroke-width="1.889"/><path fill="#A80036" stroke="#a80036" stroke-width=".945" d="M2873.075 588.588l9.064 2.097-4.426-2.993 2.993-4.427-7.63 5.323z"/><path d="M2728.658 687.147c22.73-18.728 51.787-46.7 68.64-66.01" fill="none" stroke="#a80036" stroke-width="1.889"/><path fill="#A80036" stroke="#a80036" stroke-width=".945" d="M2800.501 617.397l-8.4 4 5.329-.412.413 5.327 2.658-8.915z"/><path d="M2782.607 616.436c-22.274 18.09-52.342 46.788-70.472 67.036" fill="none" stroke="#a80036" stroke-width="1.889"/><path fill="#A80036" stroke="#a80036" stroke-width=".945" d="M2708.894 687.15l8.456-3.88-5.333.337-.336-5.333-2.787 8.876z"/><path d="M2164.647 494.145c82.687 7.838 339.962 34.312 549.294 78.305 14.376 3.021 29.771 7.02 43.908 11.01" fill="none" stroke="#a80036" stroke-width="1.889"/><path fill="#A80036" stroke="#a80036" stroke-width=".945" d="M2762.592 584.81l-7.141-5.963 2.599 4.67-4.67 2.598 9.212-1.304z"/><path d="M2858.37 585.256c42.373-13.162 104.57-34.817 155.021-61.927 4.07-2.187 8.19-4.711 12.189-7.36" fill="none" stroke="#a80036" stroke-width="1.889"/><path fill="#A80036" stroke="#a80036" stroke-width=".945" d="M3029.533 513.285l-9.157 1.649 5.249 1.004-1.004 5.248 4.912-7.9z"/><path d="M2759.532 613.453c-58.227 16.473-146.82 41.588-147.612 42.125-10.379 7.037-19.223 17.665-25.909 27.441" fill="none" stroke="#a80036" stroke-width="1.889"/><path fill="#A80036" stroke="#a80036" stroke-width=".945" d="M2583.28 687.144l7.844-5.002-5.236 1.064-1.065-5.237-1.543 9.175z"/><path d="M2164.75 494.715c69.663 8.221 260.585 33.356 414.108 77.735 11.496 3.323 23.735 7.907 34.569 12.35" fill="none" stroke="#a80036" stroke-width="1.889"/><path fill="#A80036" stroke="#a80036" stroke-width=".945" d="M2617.977 586.692l-6.4-6.752 2.039 4.94-4.94 2.038 9.301-.226z"/><path d="M3029.719 514.337c-5.175 3.46-10.731 6.652-16.328 8.992-124.43 52.024-169.46 13.18-299.45 49.12-11.781 3.258-24.317 7.872-35.376 12.361" fill="none" stroke="#a80036" stroke-width="1.889"/><path fill="#A80036" stroke="#a80036" stroke-width=".945" d="M2673.922 586.723l9.3.255-4.932-2.054 2.054-4.933-6.422 6.732z"/><path d="M2615.177 611.586c-29.187 12.135-70.243 30.79-81.661 43.992-3.695 4.272-6.592 9.369-8.862 14.67a76.918 76.918 0 00-.52 1.246" fill="none" stroke="#a80036" stroke-width="1.889"/><path fill="#A80036" stroke="#a80036" stroke-width=".945" d="M2524.134 671.494l6.709-6.446-4.926 2.073-2.072-4.926.289 9.3z"/><path d="M2618.737 612.174c-11.986 5.145-26.387 10.666-39.879 14.12-105.688 27.06-138.612.038-243.716 29.284-25.58 7.118-52.738 19.144-74.161 29.783a681.603 681.603 0 00-26.918 14.133 614.593 614.593 0 00-5.27 2.953l-.257.146" fill="none" stroke="#a80036" stroke-width="1.889"/><path fill="#A80036" stroke="#a80036" stroke-width=".945" d="M2228.536 702.593l9.259-.912-5.151-1.42 1.42-5.152-5.528 7.484z"/><path d="M2653.151 614.346l33 68.399" fill="none" stroke="#a80036" stroke-width="1.889"/><path fill="#A80036" stroke="#a80036" stroke-width=".945" d="M2688.247 687.089l-.291-9.299-1.761 5.045-5.046-1.761 7.098 6.015z"/><path d="M2164.96 492.716c130.053 5.172 683.727 29.992 740.742 79.734 46.422 40.5 33.063 73.005 33.063 134.61v275.644" fill="none" stroke="#a80036" stroke-width="1.889"/><path fill="#A80036" stroke="#a80036" stroke-width=".945" d="M2938.765 987.559l3.778-8.502-3.778 3.778-3.779-3.778 3.779 8.502z"/><path d="M3073.07 516.025c24.191 38.717 66.902 117.488 66.902 191.036v97.297c0 89.281-99.809 153.077-158.834 182.999" fill="none" stroke="#a80036" stroke-width="1.889"/><path fill="#A80036" stroke="#a80036" stroke-width=".945" d="M2976.61 989.626l9.294-.432-5.071-1.684 1.684-5.072-5.907 7.188z"/><path d="M2102.867 923.314c5.166 3.983 10.923 7.624 16.898 9.987 148.897 58.893 560.597 24.852 718.868 49.121 13.735 2.106 28.359 5.154 42.066 8.376" fill="none" stroke="#a80036" stroke-width="1.889"/><path fill="#A80036" stroke="#a80036" stroke-width=".945" d="M2885.31 991.897l-7.395-5.646 2.8 4.551-4.552 2.8 9.146-1.705z"/><path d="M2919.26 1025.015l-61.897 58.722" fill="none" stroke="#a80036" stroke-width="1.889"/><path fill="#A80036" stroke="#a80036" stroke-width=".945" d="M2853.784 1087.133l8.768-3.11-5.342-.14.14-5.342-3.566 8.592z"/><path d="M2807.846 1087.021l-49-58.483" fill="none" stroke="#a80036" stroke-width="1.889"/><path fill="#A80036" stroke="#a80036" stroke-width=".945" d="M2755.694 1024.775l2.563 8.943.47-5.323 5.323.47-8.356-4.09z"/><path d="M2740.391 1025.015v57.094" fill="none" stroke="#a80036" stroke-width="1.889"/><path fill="#A80036" stroke="#a80036" stroke-width=".945" d="M2740.391 1087.133l3.779-8.501-3.779 3.778-3.778-3.778 3.778 8.501z"/><path d="M1207.035 99.44a3625.612 3625.612 0 01-2.86 1.826 5685.928 5685.928 0 01-21.895 13.887 6977.711 6977.711 0 01-70.948 44.18c-56.68 34.824-128.542 77.832-194.09 113.667-231.638 126.637-518.98 261.786-620.637 308.95" fill="none" stroke="#a80036" stroke-width="1.889"/><path fill="#A80036" stroke="#a80036" stroke-width=".945" d="M292.196 583.995l9.302-.149-5.017-1.838 1.838-5.018-6.123 7.005z"/><path d="M1068.404 500.7c-23.34 7.308-57.92 17.248-88.816 22.629-272.592 47.479-347.957 2.085-620.626 49.12-16.8 2.899-34.873 7.337-50.978 11.78" fill="none" stroke="#a80036" stroke-width="1.889"/><path fill="#A80036" stroke="#a80036" stroke-width=".945" d="M303.052 585.605l9.205 1.353-4.656-2.623 2.623-4.656-7.172 5.926z"/><path d="M305.032 612.826c34.35 10.459 82.124 25.973 122.888 42.752 22.069 9.083 45.978 20.792 65.293 30.748" fill="none" stroke="#a80036" stroke-width="1.889"/><path fill="#A80036" stroke="#a80036" stroke-width=".945" d="M497.513 688.553l-5.812-7.264 1.618 5.092-5.093 1.618 9.287.554z"/><path d="M1206.875 94.8l-.538.027c-1.456.075-3.09.164-4.89.27a919.225 919.225 0 00-29.116 2.197c-24.038 2.181-56.586 5.986-93.157 12.563-73.142 13.154-162.38 37.395-231.835 81.904C682.95 297.11 559.464 509.015 522.49 577.492" fill="none" stroke="#a80036" stroke-width="1.889"/><path fill="#A80036" stroke="#a80036" stroke-width=".945" d="M520.18 581.793l7.351-5.702-5.116 1.54-1.541-5.116-.694 9.278z"/><path d="M1068.794 500.152c-23.391 7.07-58.254 16.964-89.206 23.177-164.813 33.079-210.45 14.857-375.02 49.12-14.49 3.018-30.013 7.122-44.166 11.216" fill="none" stroke="#a80036" stroke-width="1.889"/><path fill="#A80036" stroke="#a80036" stroke-width=".945" d="M555.658 585.052l9.22 1.241-4.686-2.566 2.566-4.687-7.1 6.012z"/><path d="M3029.732 515.167c-5.135 3.324-10.68 6.255-16.341 8.162-253.696 85.458-2144.14 9.025-2408.823 49.12-15.309 2.32-31.641 6.429-46.303 10.748" fill="none" stroke="#a80036" stroke-width="1.889"/><path fill="#A80036" stroke="#a80036" stroke-width=".945" d="M553.361 584.668l9.229 1.177-4.705-2.534 2.534-4.705-7.058 6.062z"/><path d="M528.237 688.442l-12.873-66.708" fill="none" stroke="#a80036" stroke-width="1.889"/><path fill="#A80036" stroke="#a80036" stroke-width=".945" d="M514.434 616.914l-2.1 9.063 2.995-4.426 4.426 2.994-5.321-7.631z"/><path d="M553.099 614.08c25.123 9.796 57.025 24.06 82.641 41.498 12.172 8.285 24.073 19.503 33.495 29.352" fill="none" stroke="#a80036" stroke-width="1.889"/><path fill="#A80036" stroke="#a80036" stroke-width=".945" d="M672.59 688.49l-3.082-8.779-.158 5.341-5.341-.157 8.581 3.594z"/><path d="M687.495 688.404l-4.226-68.808" fill="none" stroke="#a80036" stroke-width="1.889"/><path fill="#A80036" stroke="#a80036" stroke-width=".945" d="M682.975 614.801l-3.25 8.717 3.54-4.003 4.003 3.54-4.293-8.254z"/><path d="M1207.214 95.177c-1.216.127-2.57.272-4.051.438a685.569 685.569 0 00-23.54 3.066c-19.225 2.83-44.91 7.364-73.415 14.402-57.009 14.078-125.296 38.171-175.74 78.678-138.554 111.257-219.295 322.085-241.871 387.645" fill="none" stroke="#a80036" stroke-width="1.889"/><path fill="#A80036" stroke="#a80036" stroke-width=".945" d="M686.95 584.23l6.323-6.826-4.797 2.355-2.355-4.796.83 9.266z"/><path d="M3029.73 515.16c-5.135 3.325-10.68 6.258-16.339 8.169-237.33 80.13-2007.374 4.732-2253.903 49.12-14.102 2.54-29.087 7.243-42.082 12.017" fill="none" stroke="#a80036" stroke-width="1.889"/><path fill="#A80036" stroke="#a80036" stroke-width=".945" d="M712.713 586.224l9.288.555-4.865-2.212 2.213-4.864-6.636 6.521z"/><path d="M1068.639 499.458c-23.489 6.636-58.407 16.282-89.05 23.87-97.291 24.092-123.694 21.708-220.101 49.122-12.928 3.676-26.856 8.302-39.287 12.678" fill="none" stroke="#a80036" stroke-width="1.889"/><path fill="#A80036" stroke="#a80036" stroke-width=".945" d="M715.694 586.726l9.275.72-4.824-2.299 2.299-4.824-6.75 6.403z"/><path d="M2154.586 682.764c-6.234-10.317-15.007-21.304-26.32-27.186-67.482-35.091-1293.919-15.82-1368.778-29.284-14.102-2.536-29.088-7.239-42.083-12.013" fill="none" stroke="#a80036" stroke-width="1.889"/><path fill="#A80036" stroke="#a80036" stroke-width=".945" d="M712.713 612.523l6.635 6.521-2.212-4.864 4.864-2.212-9.287.555z"/><path d="M716.343 611.967c38.747 14.394 97.579 36.838 106.436 43.61 8.322 6.365 15.74 14.965 21.8 23.312" fill="none" stroke="#a80036" stroke-width="1.889"/><path fill="#A80036" stroke="#a80036" stroke-width=".945" d="M847.443 682.956l-1.807-9.127-.913 5.265-5.265-.913 7.985 4.775z"/><path d="M698.818 614.025c12.28 10.999 29.1 26.664 42.722 41.553 6.736 7.363 13.622 15.72 19.764 23.526" fill="none" stroke="#a80036" stroke-width="1.889"/><path fill="#A80036" stroke="#a80036" stroke-width=".945" d="M764.256 682.886l-2.253-9.027-.653 5.303-5.303-.653 8.21 4.377z"/><path d="M795.821 682.725l35.424-63.098" fill="none" stroke="#a80036" stroke-width="1.889"/><path fill="#A80036" stroke="#a80036" stroke-width=".945" d="M833.695 615.262l-7.457 5.563 5.145-1.445 1.445 5.145.867-9.263z"/><path d="M845.404 615.262l11.006 62.735" fill="none" stroke="#a80036" stroke-width="1.889"/><path fill="#A80036" stroke="#a80036" stroke-width=".945" d="M857.24 682.725l2.252-9.027-3.069 4.375-4.375-3.068 5.191 7.72z"/><path d="M1223.009 126.197l.215.355c.289.47.587.935.896 1.391a32.807 32.807 0 001.98 2.636c1.405 1.684 2.985 3.208 4.762 4.504 152.775 111.502 678.609-24.942 849.228 56.678 180.943 86.56 316.39 302.216 360.544 379.499" fill="none" stroke="#a80036" stroke-width="1.889"/><path fill="#A80036" stroke="#a80036" stroke-width=".945" d="M2443.164 575.711l-.915-9.258-1.419 5.152-5.152-1.418 7.486 5.524z"/><path d="M2500.39 655.458l-.063-.12a138.47 138.47 0 00-.905-1.672c-.35-.638-.709-1.274-1.073-1.91a143.821 143.821 0 00-2.26-3.805 173.211 173.211 0 00-4.891-7.498c-3.392-4.927-7.004-9.685-10.57-14.107" fill="none" stroke="#a80036" stroke-width="1.889"/><path fill="#A80036" stroke="#a80036" stroke-width=".945" d="M2477.586 622.641l2.474 8.969.523-5.318 5.318.523-8.315-4.174z"/><path d="M2228.71 703.458l.369-.169.76-.348 1.61-.738 3.572-1.635 8.447-3.867 47.25-21.633 114.52-52.43" fill="none" stroke="#a80036" stroke-width="1.889"/><path fill="#A80036" stroke="#a80036" stroke-width=".945" d="M2409.584 620.648l-9.302.103 5.008 1.863-1.863 5.008 6.157-6.974z"/><path d="M2164.854 500.865l228.397 77.261" fill="none" stroke="#a80036" stroke-width="1.889"/><path fill="#A80036" stroke="#a80036" stroke-width=".945" d="M2397.768 579.654l-6.843-6.303 2.369 4.79-4.79 2.368 9.264-.855z"/><path d="M3029.814 514.572c-5.186 3.435-10.77 6.557-16.423 8.757-181.133 70.464-242.791 17.353-434.533 49.12-14.733 2.442-30.363 5.501-45.358 8.674" fill="none" stroke="#a80036" stroke-width="1.889"/><path fill="#A80036" stroke="#a80036" stroke-width=".945" d="M2528.869 582.11l9.102 1.923-4.483-2.907 2.907-4.484-7.526 5.469z"/><path d="M2457.3 623.005l2.893 54.993" fill="none" stroke="#a80036" stroke-width="1.889"/><path fill="#A80036" stroke="#a80036" stroke-width=".945" d="M2460.443 682.737l3.326-8.689-3.574 3.972-3.972-3.574 4.22 8.29z"/><path d="M2367.389 612.36c-61.407 10.252-136.74 25.711-163.552 43.218-8.935 5.834-16.492 14.559-22.445 23.176" fill="none" stroke="#a80036" stroke-width="1.889"/><path fill="#A80036" stroke="#a80036" stroke-width=".945" d="M2178.6 682.962l7.849-4.995-5.238 1.06-1.06-5.238-1.552 9.173z"/><path d="M3038.998 516.14c-39.339 51.733-139.28 171.67-255.154 222.566-216.95 95.294-296.25 16.028-530.885 49.121-9.672 1.364-19.901 3.07-29.814 4.865" fill="none" stroke="#a80036" stroke-width="1.889"/><path fill="#A80036" stroke="#a80036" stroke-width=".945" d="M2218.307 793.58l9.044 2.182-4.398-3.035 3.035-4.398-7.68 5.25z"/><path d="M1077.65 515.948c-19.589 29.401-44.629 78.897-17.768 110.346C1208.96 800.832 1854 748.2 2080.09 787.827c9.05 1.586 18.62 3.345 27.96 5.107" fill="none" stroke="#a80036" stroke-width="1.889"/><path fill="#A80036" stroke="#a80036" stroke-width=".945" d="M2112.91 793.855l-7.65-5.296 3.01 4.417-4.417 3.009 9.057-2.13z"/><path d="M2649.362 727.002c-12.073 4.381-25.097 8.626-37.442 11.704-156.241 38.959-200.044 23.151-358.961 49.121-9.51 1.554-19.577 3.339-29.358 5.149" fill="none" stroke="#a80036" stroke-width="1.889"/><path fill="#A80036" stroke="#a80036" stroke-width=".945" d="M2218.826 793.865l9.05 2.158-4.407-3.023 3.023-4.407-7.666 5.272z"/><path d="M971.316 715.702c25.245 7.491 63.75 17.908 98.013 23.004 444.863 66.167 564.199-4.396 1010.761 49.121 9.855 1.181 20.277 2.836 30.335 4.645" fill="none" stroke="#a80036" stroke-width="1.889"/><path fill="#A80036" stroke="#a80036" stroke-width=".945" d="M2115.33 793.371l-7.682-5.25 3.035 4.398-4.398 3.035 9.044-2.183z"/><path d="M2166.052 731.362v51.957" fill="none" stroke="#a80036" stroke-width="1.889"/><path fill="#A80036" stroke="#a80036" stroke-width=".945" d="M2166.052 788.276l3.778-8.502-3.778 3.779-3.779-3.779 3.779 8.502z"/><path d="M2166.052 820.425v51.962" fill="none" stroke="#a80036" stroke-width="1.889"/><path fill="#A80036" stroke="#a80036" stroke-width=".945" d="M2166.052 877.542l3.778-8.502-3.778 3.779-3.779-3.779 3.779 8.502z"/><path d="M2196.376 883.601l105.496-62.809" fill="none" stroke="#a80036" stroke-width="1.889"/><path fill="#A80036" stroke="#a80036" stroke-width=".945" d="M2306.06 818.298l-9.238 1.103 5.18 1.314-1.314 5.18 5.372-7.596z"/><path d="M2164.746 501.514c29.562 12.14 76.207 35.613 102.382 70.936 49.137 66.308 59.561 168.733 61.762 211.773" fill="none" stroke="#a80036" stroke-width="1.889"/><path fill="#A80036" stroke="#a80036" stroke-width=".945" d="M2329.12 789.17l3.38-8.667-3.6 3.95-3.949-3.6 4.169 8.318z"/><path d="M2646.87 727.024c-11.412 4.134-23.522 8.265-34.95 11.682-79.05 23.638-172.647 43.918-229.766 55.451" fill="none" stroke="#a80036" stroke-width="1.889"/><path fill="#A80036" stroke="#a80036" stroke-width=".945" d="M2377.424 795.11l9.08 2.026-4.45-2.959 2.96-4.45-7.59 5.382z"/><path d="M2187.806 726.634c5.099 4.2 10.625 8.457 16.031 12.072 29.493 19.72 65.61 38.05 91.539 50.3" fill="none" stroke="#a80036" stroke-width="1.889"/><path fill="#A80036" stroke="#a80036" stroke-width=".945" d="M2299.77 791.071l-6.088-7.035 1.813 5.027-5.026 1.813 9.301.195z"/><path d="M2283.419 814.214c-61.205 13.127-161.91 34.84-163.654 35.959-9.061 5.813-16.783 14.533-22.893 23.152" fill="none" stroke="#a80036" stroke-width="1.889"/><path fill="#A80036" stroke="#a80036" stroke-width=".945" d="M2094.004 877.534l7.91-4.898-5.25.995-.995-5.25-1.665 9.153z"/><path d="M1234.94 513.024c-5.53 3.765-11.453 7.402-17.303 10.305-65.783 32.637-114.227-10.021-157.755 49.12-14.185 19.274-14.893 35.114 0 53.845 87.496 110.042 528.364 158.018 700.697 172.774" fill="none" stroke="#a80036" stroke-width="1.889"/><path fill="#A80036" stroke="#a80036" stroke-width=".945" d="M1765.349 799.474l-8.15-4.486 3.444 4.086-4.086 3.444 8.792-3.044z"/><path d="M2651.3 726.923c-12.574 4.608-26.319 8.979-39.38 11.783-304.097 65.29-389.772 8.122-698.086 49.121-9.758 1.298-20.088 3.029-30.043 4.883" fill="none" stroke="#a80036" stroke-width="1.889"/><path fill="#A80036" stroke="#a80036" stroke-width=".945" d="M1878.938 793.629l9.056 2.13-4.415-3.009 3.01-4.415-7.65 5.293z"/><path d="M2144.12 728.393c-4.917 3.903-10.324 7.595-15.854 10.313-10.954 5.384-160.403 36.951-243.578 54.277" fill="none" stroke="#a80036" stroke-width="1.889"/><path fill="#A80036" stroke="#a80036" stroke-width=".945" d="M1880.043 793.95l9.094 1.966-4.47-2.929 2.93-4.469-7.553 5.432z"/><path d="M2068.512 877.518c-6.304-9.9-14.84-20.597-25.263-27.345-6.668-4.317-96.143-22.625-157.12-34.75" fill="none" stroke="#a80036" stroke-width="1.889"/><path fill="#A80036" stroke="#a80036" stroke-width=".945" d="M1881.423 814.489l7.603 5.362-2.97-4.442 4.442-2.97-9.075 2.05z"/><path d="M1842.51 819.99l43.6 53.462" fill="none" stroke="#a80036" stroke-width="1.889"/><path fill="#A80036" stroke="#a80036" stroke-width=".945" d="M1889.267 877.323l-2.445-8.976-.54 5.316-5.317-.54 8.302 4.2z"/><path d="M1767.173 810.246c-163.376 17.088-590.156 73.479-590.156 196.264v104.855c0 129.005-414.25 186.783-627.034 207.952" fill="none" stroke="#a80036" stroke-width="1.889"/><path fill="#A80036" stroke="#a80036" stroke-width=".945" d="M544.995 1319.81l8.832 2.924-4.132-3.389 3.388-4.131-8.088 4.596z"/><path d="M1929.658 877.354c7.427-8.657 15.934-18.428 23.85-27.181 7.963-8.803 16.964-18.356 24.7-26.45" fill="none" stroke="#a80036" stroke-width="1.889"/><path fill="#A80036" stroke="#a80036" stroke-width=".945" d="M1981.894 819.878l-8.61 3.523 5.342-.113.114 5.342 3.154-8.752z"/><path d="M2143.942 727.037c-4.99 4.087-10.38 8.197-15.676 11.669-30.22 19.818-67.247 37.824-94.268 49.945" fill="none" stroke="#a80036" stroke-width="1.889"/><path fill="#A80036" stroke="#a80036" stroke-width=".945" d="M2029.412 790.694l9.303-.01-4.99-1.912 1.914-4.99-6.227 6.912z"/><path d="M1997.114 819.99l.51 52.581" fill="none" stroke="#a80036" stroke-width="1.889"/><path fill="#A80036" stroke="#a80036" stroke-width=".945" d="M1997.67 877.323l3.696-8.538-3.742 3.815-3.815-3.741 3.861 8.464z"/><path d="M2081.035 925.975v53.514" fill="none" stroke="#a80036" stroke-width="1.889"/><path fill="#A80036" stroke="#a80036" stroke-width=".945" d="M2081.035 984.466l3.778-8.502-3.778 3.778-3.779-3.778 3.779 8.501z"/><path d="M2105.312 1027.73l64.407 56.292" fill="none" stroke="#a80036" stroke-width="1.889"/><path fill="#A80036" stroke="#a80036" stroke-width=".945" d="M2173.405 1087.244l-3.915-8.44.359 5.331-5.332.358 8.888 2.75z"/><path d="M2223.417 1086.974l53.042-57.723" fill="none" stroke="#a80036" stroke-width="1.889"/><path fill="#A80036" stroke="#a80036" stroke-width=".945" d="M2279.908 1025.499l-8.535 3.703 5.339-.225.226 5.338 2.97-8.816z"/><path d="M2297.356 1025.987v56.282" fill="none" stroke="#a80036" stroke-width="1.889"/><path fill="#A80036" stroke="#a80036" stroke-width=".945" d="M2297.356 1087.2l3.779-8.501-3.779 3.778-3.778-3.778 3.778 8.501z"/><path d="M403.266 717.527l-.1.132c-.538.705-1.095 1.433-1.671 2.177-4.606 5.953-10.378 13-16.083 18.87-99.905 102.782-235.348 208.584-289.65 249.828" fill="none" stroke="#a80036" stroke-width="1.889"/><path fill="#A80036" stroke="#a80036" stroke-width=".945" d="M91.993 991.39l9.058-2.125-5.294-.728.728-5.294-4.492 8.148z"/><path d="M1207.02 94.829l-1.126.053-5.226.25c-7.729.371-18.462.895-31.793 1.564a20963.642 20963.642 0 00-107.889 5.703c-88.353 4.892-205.207 11.895-324.455 20.576-238.494 17.363-486.56 41.441-535.323 68.786-86.568 48.545-134.139 79.287-134.139 178.537v434.06c0 66.25 2.567 144.681 3.916 181.33" fill="none" stroke="#a80036" stroke-width="1.889"/><path fill="#A80036" stroke="#a80036" stroke-width=".945" d="M71.175 990.786l3.46-8.636-3.636 3.916-3.916-3.635 4.092 8.355z"/><path d="M70.612 1022.363c-2.338 39.951-4.619 147.216 30.464 226.447 11.588 26.168 34.608 50.138 51.066 65.05" fill="none" stroke="#a80036" stroke-width="1.889"/><path fill="#A80036" stroke="#a80036" stroke-width=".945" d="M155.756 1317.085l-3.827-8.48.303 5.335-5.335.303 8.86 2.842z"/><path d="M83.5 1021.982l46.494 61.437" fill="none" stroke="#a80036" stroke-width="1.889"/><path fill="#A80036" stroke="#a80036" stroke-width=".945" d="M132.91 1087.272l-2.118-9.06-.733 5.294-5.293-.733 8.144 4.5z"/><path d="M1223.009 126.197l.215.355c.289.47.587.935.896 1.391a32.807 32.807 0 001.98 2.636c1.405 1.684 2.985 3.208 4.762 4.504 76.387 55.75 755.297 45.715 849.228 56.678 401.239 46.833 1792.92-104.04 1792.92 299.922v485.699" fill="none" stroke="#a80036" stroke-width="1.889"/><path fill="#A80036" stroke="#a80036" stroke-width=".945" d="M3873.01 982.239l3.779-8.502-3.779 3.779-3.778-3.779 3.778 8.502z"/><path d="M3976.25 921.625l-70.828 58.236" fill="none" stroke="#a80036" stroke-width="1.889"/><path fill="#A80036" stroke="#a80036" stroke-width=".945" d="M3901.666 982.95l8.966-2.482-5.318-.518.519-5.319-4.167 8.318z"/><path d="M3779.711 1018.795l-683.007 89.934" fill="none" stroke="#a80036" stroke-width="1.889"/><path fill="#A80036" stroke="#a80036" stroke-width=".945" d="M3091.938 1109.356l8.922 2.636-4.24-3.252 3.253-4.24-7.936 4.856z"/><path d="M2110.586 515.124c-5.133 3.33-10.675 6.273-16.326 8.205-88.183 30.142-1603.814-8.912-1676.73 49.12-15.036 11.967-56.679 174.698-56.679 231.91v202.151c0 117.102 1852.173 194.118 2288.34 210.63" fill="none" stroke="#a80036" stroke-width="1.889"/><path fill="#A80036" stroke="#a80036" stroke-width=".945" d="M2653.943 1217.32l-8.353-4.097 3.633 3.919-3.918 3.633 8.638-3.455z"/><path d="M2740.391 1135.58v59.866" fill="none" stroke="#a80036" stroke-width="1.889"/><path fill="#A80036" stroke="#a80036" stroke-width=".945" d="M2740.391 1200.344l3.779-8.502-3.779 3.779-3.778-3.779 3.778 8.502z"/><path d="M2768.857 1239.475l115.562 77.153" fill="none" stroke="#a80036" stroke-width="1.889"/><path fill="#A80036" stroke="#a80036" stroke-width=".945" d="M2888.457 1319.324l-4.972-7.863 1.044 5.24-5.24 1.045 9.168 1.578z"/><path d="M3061.544 1130.37l-50.13 62.934" fill="none" stroke="#a80036" stroke-width="1.889"/><path fill="#A80036" stroke="#a80036" stroke-width=".945" d="M3008.365 1197.132l8.253-4.296-5.31.601-.601-5.31-2.342 9.005z"/><path d="M2919.068 1310.214l49.27-62.536" fill="none" stroke="#a80036" stroke-width="1.889"/><path fill="#A80036" stroke="#a80036" stroke-width=".945" d="M2971.334 1243.876l-8.23 4.34 5.307-.63.63 5.307 2.293-9.017z"/><path d="M2989.775 1196.7v-56.29" fill="none" stroke="#a80036" stroke-width="1.889"/><path fill="#A80036" stroke="#a80036" stroke-width=".945" d="M2989.775 1135.58l-3.778 8.5 3.778-3.778 3.779 3.779-3.779-8.502z"/><path d="M2989.775 1244.145v56.213" fill="none" stroke="#a80036" stroke-width="1.889"/><path fill="#A80036" stroke="#a80036" stroke-width=".945" d="M2989.775 1305.193l3.779-8.502-3.779 3.778-3.778-3.778 3.778 8.502z"/><path d="M1206.868 94.7a2853.86 2853.86 0 00-8.715.293c-9.09.318-21.696.797-37.31 1.481-31.229 1.37-74.488 3.561-125.703 6.938-102.43 6.754-236.685 18.247-370.167 37.374-266.963 38.253-530.835 107.04-530.835 229.512v434.06c0 74.816 58.167 148.851 89.002 182.843" fill="none" stroke="#a80036" stroke-width="1.889"/><path fill="#A80036" stroke="#a80036" stroke-width=".945" d="M226.398 990.755l-2.96-8.82-.231 5.338-5.34-.233 8.53 3.715z"/><path d="M1881.906 903.367L313.702 1001.99" fill="none" stroke="#a80036" stroke-width="1.889"/><path fill="#A80036" stroke="#a80036" stroke-width=".945" d="M308.625 1002.31l8.722 3.237-4.008-3.534 3.534-4.009-8.248 4.305z"/><path d="M242.27 1022.894l1.602 59.274" fill="none" stroke="#a80036" stroke-width="1.889"/><path fill="#A80036" stroke="#a80036" stroke-width=".945" d="M244 1086.914l3.547-8.601-3.675 3.88-3.88-3.676 4.008 8.397z"/><path d="M245.29 1135.58l1.336 51.448" fill="none" stroke="#a80036" stroke-width="1.889"/><path fill="#A80036" stroke="#a80036" stroke-width=".945" d="M246.757 1192.076l3.557-8.597-3.68 3.875-3.875-3.679 3.998 8.4z"/><path d="M247.495 1248.852v51.713" fill="none" stroke="#a80036" stroke-width="1.889"/><path fill="#A80036" stroke="#a80036" stroke-width=".945" d="M247.495 1305.403l3.778-8.501-3.778 3.778-3.779-3.778 3.779 8.501z"/></svg>