<svg xmlns="http://www.w3.org/2000/svg" height="668" preserveAspectRatio="none" style="width:496px;height:668px" width="496"><defs><filter height="300%" id="a" width="300%" x="-1" y="-1"><feGaussianBlur result="blurOut" stdDeviation="2"/><feColorMatrix in="blurOut" result="blurOut2" values="0 0 0 0 0 0 0 0 0 0 0 0 0 0 0 0 0 0 .4 0"/><feOffset dx="4" dy="4" in="blurOut2" result="blurOut3"/><feBlend in="SourceGraphic" in2="blurOut3"/></filter></defs><path fill="#FFF" filter="url(#a)" stroke="#000" stroke-width="1.5" d="M191 142.5h249v88H191z"/><path fill="#FFF" stroke="#000" stroke-width="1.5" d="M423 147.5v14h12v-8l-6-6h-6z"/><path stroke="#000" stroke-width="1.5" d="M429 147.5v6M435 153.5h-6"/><text font-family="Futura" font-size="14" font-weight="bold" lengthAdjust="spacingAndGlyphs" textLength="88" x="271.5" y="159.466">Project Plan</text><circle cx="406" cy="187.5" fill="#FEFECE" filter="url(#a)" stroke="#a80036" stroke-width="2" r="12"/><path fill="#A80036" stroke="#a80036" d="M402 175.5l6-5-2 5 2 5-6-5z"/><text font-family="Futura" font-size="14" lengthAdjust="spacingAndGlyphs" textLength="52" x="380" y="218.457">updated</text><circle cx="272" cy="187.5" fill="#FEFECE" filter="url(#a)" stroke="#a80036" stroke-width="2" r="12"/><path fill="#A80036" stroke="#a80036" d="M268 175.5l6-5-2 5 2 5-6-5z"/><text font-family="Futura" font-size="14" lengthAdjust="spacingAndGlyphs" textLength="146" x="199" y="218.457">Project Plan (reviewed)</text><circle cx="114" cy="18" fill="#FEFECE" filter="url(#a)" stroke="#a80036" stroke-width="2" r="8"/><path d="M114 26v27m-13-19h26m-13 19l-13 15m13-15l13 15" fill="none" filter="url(#a)" stroke="#a80036" stroke-width="2"/><text font-family="Futura" font-size="14" lengthAdjust="spacingAndGlyphs" textLength="27" x="100.5" y="89.957">PJM</text><circle cx="179" cy="18" fill="#FEFECE" filter="url(#a)" stroke="#a80036" stroke-width="2" r="8"/><path d="M179 26v27m-13-19h26m-13 19l-13 15m13-15l13 15" fill="none" filter="url(#a)" stroke="#a80036" stroke-width="2"/><text font-family="Futura" font-size="14" lengthAdjust="spacingAndGlyphs" textLength="22" x="168" y="89.957">WT</text><circle cx="114" cy="164" fill="#FEFECE" filter="url(#a)" stroke="#a80036" stroke-width="2" r="8"/><path d="M114 172v27m-13-19h26m-13 19l-13 15m13-15l13 15" fill="none" filter="url(#a)" stroke="#a80036" stroke-width="2"/><text font-family="Futura" font-size="14" lengthAdjust="spacingAndGlyphs" textLength="24" x="102" y="235.957">SYS</text><path fill="#FEFECE" filter="url(#a)" stroke="#000" stroke-width="1.5" d="M44.5 399h67v41.594h-67z"/><path fill="#FEFECE" stroke="#000" stroke-width="1.5" d="M94.5 404v14h12v-8l-6-6h-6z"/><path stroke="#000" stroke-width="1.5" d="M100.5 404v6M106.5 410h-6"/><text font-family="Futura" font-size="14" lengthAdjust="spacingAndGlyphs" textLength="37" x="54.5" y="426.957">SEMP</text><path fill="#FEFECE" filter="url(#a)" stroke="#000" stroke-width="1.5" d="M237 399h104v41.594H237z"/><path fill="#FEFECE" stroke="#000" stroke-width="1.5" d="M324 404v14h12v-8l-6-6h-6z"/><path stroke="#000" stroke-width="1.5" d="M330 404v6M336 410h-6"/><text font-family="Futura" font-size="14" lengthAdjust="spacingAndGlyphs" textLength="74" x="247" y="426.957">Data Model</text><path fill="#FEFECE" filter="url(#a)" stroke="#000" stroke-width="1.5" d="M255 616h208v41.594H255z"/><path fill="#FEFECE" stroke="#000" stroke-width="1.5" d="M446 621v14h12v-8l-6-6h-6z"/><path stroke="#000" stroke-width="1.5" d="M452 621v6M458 627h-6"/><text font-family="Futura" font-size="14" lengthAdjust="spacingAndGlyphs" textLength="178" x="265" y="643.957">Implementation Environment</text><ellipse cx="356.112" cy="51.022" fill="#FEFECE" filter="url(#a)" rx="78.112" ry="18.022" stroke="#a80036" stroke-width="1.5"/><text font-family="Futura" font-size="14" lengthAdjust="spacingAndGlyphs" textLength="118" x="297.112" y="56.819">Revise Project Plan</text><ellipse cx="78.006" cy="319.301" fill="#FEFECE" filter="url(#a)" rx="72.006" ry="16.801" stroke="#a80036" stroke-width="1.5"/><text font-family="Futura" font-size="14" lengthAdjust="spacingAndGlyphs" textLength="102" x="27.006" y="325.098">Generate SEMP</text><ellipse cx="272.113" cy="319.723" fill="#FEFECE" filter="url(#a)" rx="86.612" ry="19.723" stroke="#a80036" stroke-width="1.5"/><text font-family="Futura" font-size="14" lengthAdjust="spacingAndGlyphs" textLength="139" x="202.613" y="325.519">Generate Data Model</text><ellipse cx="359.113" cy="528.623" fill="#FEFECE" filter="url(#a)" rx="126.113" ry="27.623" stroke="#a80036" stroke-width="1.5"/><text font-family="Futura" font-size="14" lengthAdjust="spacingAndGlyphs" textLength="228" x="245.113" y="534.419">Update Implementation Environment</text><path d="M397.248 171.443l-33.393-97.506" fill="none" stroke="#a80036" stroke-width="2"/><path fill="#A80036" stroke="#a80036" d="M362.231 69.196l-.868 9.81 2.488-5.08 5.08 2.488-6.7-7.218z"/><path d="M345.7 68.903l-56.277 97.814" fill="none" stroke="#a80036" stroke-width="2"/><path fill="#A80036" stroke="#a80036" d="M286.77 171.328l7.955-5.806-5.462 1.473-1.472-5.462-1.021 9.796z"/><path d="M231.331 222.68l-123.507 77.988" fill="none" stroke="#a80036" stroke-width="2"/><path fill="#A80036" stroke="#a80036" d="M103.497 303.4l9.745-1.423-5.517-1.246 1.246-5.518-5.474 8.187z"/><path d="M78 336.548v56.714" fill="none" stroke="#a80036" stroke-width="2"/><path fill="#A80036" stroke="#a80036" d="M78 398.665l4-9-4 4-4-4 4 9z"/><path d="M272 222.68v72.089" fill="none" stroke="#a80036" stroke-width="2"/><path fill="#A80036" stroke="#a80036" d="M272 299.89l4-9-4 4-4-4 4 9z"/><path d="M275.359 339.356l9.19 54.33" fill="none" stroke="#a80036" stroke-width="2"/><path fill="#A80036" stroke="#a80036" d="M285.414 398.798l2.442-9.541-3.276 4.61-4.612-3.276 5.446 8.207z"/><path d="M310.363 222.652C334.177 241.027 362.697 268.102 376 300c27.257 65.357 8.387 150.308-5.64 196" fill="none" stroke="#a80036" stroke-width="2"/><path fill="#A80036" stroke="#a80036" d="M368.849 500.835l6.503-7.396-5.011 2.624-2.625-5.011 1.133 9.783z"/><path d="M302.663 441.178c10.197 15.805 24.3 37.666 35.846 55.56" fill="none" stroke="#a80036" stroke-width="2"/><path fill="#A80036" stroke="#a80036" d="M341.385 501.196l-1.518-9.73-1.193 5.529-5.53-1.193 8.24 5.394z"/><path d="M359 556.16v54.342" fill="none" stroke="#a80036" stroke-width="2"/><path fill="#A80036" stroke="#a80036" d="M359 615.9l4-9-4 4-4-4 4 9z"/></svg>