<svg xmlns="http://www.w3.org/2000/svg" height="220" preserveAspectRatio="none" style="width:567px;height:220px" width="567"><defs><filter height="300%" id="a" width="300%" x="-1" y="-1"><feGaussianBlur result="blurOut" stdDeviation="2"/><feColorMatrix in="blurOut" result="blurOut2" values="0 0 0 0 0 0 0 0 0 0 0 0 0 0 0 0 0 0 .4 0"/><feOffset dx="4" dy="4" in="blurOut2" result="blurOut3"/><feBlend in="SourceGraphic" in2="blurOut3"/></filter></defs><circle cx="371" cy="18" fill="#FEFECE" filter="url(#a)" stroke="#a80036" stroke-width="2" r="8"/><path d="M371 26v27m-13-19h26m-13 19l-13 15m13-15l13 15" fill="none" filter="url(#a)" stroke="#a80036" stroke-width="2"/><text font-family="Futura" font-size="14" lengthAdjust="spacingAndGlyphs" textLength="27" x="357.5" y="89.957">PJM</text><circle cx="436" cy="18" fill="#FEFECE" filter="url(#a)" stroke="#a80036" stroke-width="2" r="8"/><path d="M436 26v27m-13-19h26m-13 19l-13 15m13-15l13 15" fill="none" filter="url(#a)" stroke="#a80036" stroke-width="2"/><text font-family="Futura" font-size="14" lengthAdjust="spacingAndGlyphs" textLength="22" x="425" y="89.957">WT</text><path fill="#FEFECE" filter="url(#a)" stroke="#000" stroke-width="1.5" d="M6 30h176v41.594H6z"/><path fill="#FEFECE" stroke="#000" stroke-width="1.5" d="M165 35v14h12v-8l-6-6h-6z"/><path stroke="#000" stroke-width="1.5" d="M171 35v6M177 41h-6"/><text font-family="Futura" font-size="14" lengthAdjust="spacingAndGlyphs" textLength="146" x="16" y="57.957">Project Plan (reviewed)</text><path fill="#FEFECE" filter="url(#a)" stroke="#000" stroke-width="1.5" d="M217 30h104v41.594H217z"/><path fill="#FEFECE" stroke="#000" stroke-width="1.5" d="M304 35v14h12v-8l-6-6h-6z"/><path stroke="#000" stroke-width="1.5" d="M310 35v6M316 41h-6"/><text font-family="Futura" font-size="14" lengthAdjust="spacingAndGlyphs" textLength="74" x="227" y="57.957">Data Model</text><path fill="#FEFECE" filter="url(#a)" stroke="#000" stroke-width="1.5" d="M342 160.5h208v41.594H342z"/><path fill="#FEFECE" stroke="#000" stroke-width="1.5" d="M533 165.5v14h12v-8l-6-6h-6z"/><path stroke="#000" stroke-width="1.5" d="M539 165.5v6M545 171.5h-6"/><text font-family="Futura" font-size="14" lengthAdjust="spacingAndGlyphs" textLength="178" x="352" y="188.457">Implementation Environment</text><ellipse cx="181.113" cy="181.623" fill="#FEFECE" filter="url(#a)" rx="126.113" ry="27.623" stroke="#a80036" stroke-width="1.5"/><text font-family="Futura" font-size="14" lengthAdjust="spacingAndGlyphs" textLength="228" x="67.113" y="187.419">Update Implementation Environment</text><path d="M108.172 72.257c13.96 20.942 35.466 53.2 51.493 77.24" fill="none" stroke="#a80036" stroke-width="2"/><path fill="#A80036" stroke="#a80036" d="M162.591 153.887l-1.664-9.708-1.11 5.547-5.547-1.109 8.321 5.27z"/><path d="M254.665 72.257l-52.085 77.24" fill="none" stroke="#a80036" stroke-width="2"/><path fill="#A80036" stroke="#a80036" d="M199.62 153.887l8.349-5.226-5.553 1.08-1.08-5.553-1.716 9.699z"/><path d="M307.03 181.5h29.586" fill="none" stroke="#a80036" stroke-width="2"/><path fill="#A80036" stroke="#a80036" d="M341.773 181.5l-9-4 4 4-4 4 9-4z"/></svg>