<svg xmlns="http://www.w3.org/2000/svg" height="206" preserveAspectRatio="none" style="width:337px;height:206px" width="337"><defs><filter height="300%" id="a" width="300%" x="-1" y="-1"><feGaussianBlur result="blurOut" stdDeviation="2"/><feColorMatrix in="blurOut" result="blurOut2" values="0 0 0 0 0 0 0 0 0 0 0 0 0 0 0 0 0 0 .4 0"/><feOffset dx="4" dy="4" in="blurOut2" result="blurOut3"/><feBlend in="SourceGraphic" in2="blurOut3"/></filter></defs><circle cx="232" cy="18" fill="#FEFECE" filter="url(#a)" stroke="#a80036" stroke-width="2" r="8"/><path d="M232 26v27m-13-19h26m-13 19l-13 15m13-15l13 15" fill="none" filter="url(#a)" stroke="#a80036" stroke-width="2"/><text font-family="Futura" font-size="14" lengthAdjust="spacingAndGlyphs" textLength="27" x="218.5" y="89.957">PJM</text><circle cx="297" cy="18" fill="#FEFECE" filter="url(#a)" stroke="#a80036" stroke-width="2" r="8"/><path d="M297 26v27m-13-19h26m-13 19l-13 15m13-15l13 15" fill="none" filter="url(#a)" stroke="#a80036" stroke-width="2"/><text font-family="Futura" font-size="14" lengthAdjust="spacingAndGlyphs" textLength="22" x="286" y="89.957">WT</text><path fill="#FEFECE" filter="url(#a)" stroke="#000" stroke-width="1.5" d="M6 30h176v41.594H6z"/><path fill="#FEFECE" stroke="#000" stroke-width="1.5" d="M165 35v14h12v-8l-6-6h-6z"/><path stroke="#000" stroke-width="1.5" d="M171 35v6M177 41h-6"/><text font-family="Futura" font-size="14" lengthAdjust="spacingAndGlyphs" textLength="146" x="16" y="57.957">Project Plan (reviewed)</text><path fill="#FEFECE" filter="url(#a)" stroke="#000" stroke-width="1.5" d="M216 154h104v41.594H216z"/><path fill="#FEFECE" stroke="#000" stroke-width="1.5" d="M303 159v14h12v-8l-6-6h-6z"/><path stroke="#000" stroke-width="1.5" d="M309 159v6M315 165h-6"/><text font-family="Futura" font-size="14" lengthAdjust="spacingAndGlyphs" textLength="74" x="226" y="181.957">Data Model</text><ellipse cx="94.112" cy="175.222" fill="#FEFECE" filter="url(#a)" rx="86.612" ry="19.723" stroke="#a80036" stroke-width="1.5"/><text font-family="Futura" font-size="14" lengthAdjust="spacingAndGlyphs" textLength="139" x="24.613" y="181.019">Generate Data Model</text><path d="M94 72.035v78.175" fill="none" stroke="#a80036" stroke-width="2"/><path fill="#A80036" stroke="#a80036" d="M94 155.5l4-9-4 4-4-4 4 9z"/><path d="M180.66 175h29.925" fill="none" stroke="#a80036" stroke-width="2"/><path fill="#A80036" stroke="#a80036" d="M215.8 175l-9-4 4 4-4 4 9-4z"/></svg>