<svg xmlns="http://www.w3.org/2000/svg" height="206" preserveAspectRatio="none" style="width:322px;height:206px" width="322"><defs><filter height="300%" id="a" width="300%" x="-1" y="-1"><feGaussianBlur result="blurOut" stdDeviation="2"/><feColorMatrix in="blurOut" result="blurOut2" values="0 0 0 0 0 0 0 0 0 0 0 0 0 0 0 0 0 0 .4 0"/><feOffset dx="4" dy="4" in="blurOut2" result="blurOut3"/><feBlend in="SourceGraphic" in2="blurOut3"/></filter></defs><circle cx="232" cy="18" fill="#FEFECE" filter="url(#a)" stroke="#a80036" stroke-width="2" r="8"/><path d="M232 26v27m-13-19h26m-13 19l-13 15m13-15l13 15" fill="none" filter="url(#a)" stroke="#a80036" stroke-width="2"/><text font-family="Futura" font-size="14" lengthAdjust="spacingAndGlyphs" textLength="27" x="218.5" y="89.957">PJM</text><circle cx="297" cy="18" fill="#FEFECE" filter="url(#a)" stroke="#a80036" stroke-width="2" r="8"/><path d="M297 26v27m-13-19h26m-13 19l-13 15m13-15l13 15" fill="none" filter="url(#a)" stroke="#a80036" stroke-width="2"/><text font-family="Futura" font-size="14" lengthAdjust="spacingAndGlyphs" textLength="24" x="285" y="89.957">SYS</text><path fill="#FEFECE" filter="url(#a)" stroke="#000" stroke-width="1.5" d="M6 30h176v41.594H6z"/><path fill="#FEFECE" stroke="#000" stroke-width="1.5" d="M165 35v14h12v-8l-6-6h-6z"/><path stroke="#000" stroke-width="1.5" d="M171 35v6M177 41h-6"/><text font-family="Futura" font-size="14" lengthAdjust="spacingAndGlyphs" textLength="146" x="16" y="57.957">Project Plan (reviewed)</text><path fill="#FEFECE" filter="url(#a)" stroke="#000" stroke-width="1.5" d="M201.5 154h67v41.594h-67z"/><path fill="#FEFECE" stroke="#000" stroke-width="1.5" d="M251.5 159v14h12v-8l-6-6h-6z"/><path stroke="#000" stroke-width="1.5" d="M257.5 159v6M263.5 165h-6"/><text font-family="Futura" font-size="14" lengthAdjust="spacingAndGlyphs" textLength="37" x="211.5" y="181.957">SEMP</text><ellipse cx="94.006" cy="174.801" fill="#FEFECE" filter="url(#a)" rx="72.006" ry="16.801" stroke="#a80036" stroke-width="1.5"/><text font-family="Futura" font-size="14" lengthAdjust="spacingAndGlyphs" textLength="102" x="43.006" y="180.598">Generate SEMP</text><path d="M94 72.035v80.573" fill="none" stroke="#a80036" stroke-width="2"/><path fill="#A80036" stroke="#a80036" d="M94 157.862l4-9-4 4-4-4 4 9z"/><path d="M166.152 175h30.001" fill="none" stroke="#a80036" stroke-width="2"/><path fill="#A80036" stroke="#a80036" d="M201.383 175l-9-4 4 4-4 4 9-4z"/></svg>