<?xml version="1.0" encoding="UTF-8" standalone="no"?><svg xmlns="http://www.w3.org/2000/svg" xmlns:xlink="http://www.w3.org/1999/xlink" contentScriptType="application/ecmascript" contentStyleType="text/css" height="206px" preserveAspectRatio="none" style="width:337px;height:206px;" version="1.1" viewBox="0 0 337 206" width="337px" zoomAndPan="magnify"><defs><filter height="300%" id="f15mbmh1mf96lh" width="300%" x="-1" y="-1"><feGaussianBlur result="blurOut" stdDeviation="2.0"/><feColorMatrix in="blurOut" result="blurOut2" type="matrix" values="0 0 0 0 0 0 0 0 0 0 0 0 0 0 0 0 0 0 .4 0"/><feOffset dx="4.0" dy="4.0" in="blurOut2" result="blurOut3"/><feBlend in="SourceGraphic" in2="blurOut3" mode="normal"/></filter></defs><g><!--entity PJM--><ellipse cx="232" cy="18" fill="#FEFECE" filter="url(#f15mbmh1mf96lh)" rx="8" ry="8" style="stroke: #A80036; stroke-width: 2.0;"/><path d="M232,26 L232,53 M219,34 L245,34 M232,53 L219,68 M232,53 L245,68 " fill="none" filter="url(#f15mbmh1mf96lh)" style="stroke: #A80036; stroke-width: 2.0;"/><text fill="#000000" font-family="Futura" font-size="14" lengthAdjust="spacingAndGlyphs" textLength="27" x="218.5" y="89.957">PJM</text><!--entity WT--><ellipse cx="297" cy="18" fill="#FEFECE" filter="url(#f15mbmh1mf96lh)" rx="8" ry="8" style="stroke: #A80036; stroke-width: 2.0;"/><path d="M297,26 L297,53 M284,34 L310,34 M297,53 L284,68 M297,53 L310,68 " fill="none" filter="url(#f15mbmh1mf96lh)" style="stroke: #A80036; stroke-width: 2.0;"/><text fill="#000000" font-family="Futura" font-size="14" lengthAdjust="spacingAndGlyphs" textLength="22" x="286" y="89.957">WT</text><!--entity PROD_PP_REVIEWED--><rect fill="#FEFECE" filter="url(#f15mbmh1mf96lh)" height="41.5938" style="stroke: #000000; stroke-width: 1.5;" width="176" x="6" y="30"/><polygon fill="#FEFECE" points="165,35,165,49,177,49,177,41,171,35,165,35" style="stroke: #000000; stroke-width: 1.5;"/><line style="stroke: #000000; stroke-width: 1.5;" x1="171" x2="171" y1="35" y2="41"/><line style="stroke: #000000; stroke-width: 1.5;" x1="177" x2="171" y1="41" y2="41"/><text fill="#000000" font-family="Futura" font-size="14" lengthAdjust="spacingAndGlyphs" textLength="146" x="16" y="57.957">Project Plan (reviewed)</text><!--entity PROD_DM--><rect fill="#FEFECE" filter="url(#f15mbmh1mf96lh)" height="41.5938" style="stroke: #000000; stroke-width: 1.5;" width="104" x="216" y="154"/><polygon fill="#FEFECE" points="303,159,303,173,315,173,315,165,309,159,303,159" style="stroke: #000000; stroke-width: 1.5;"/><line style="stroke: #000000; stroke-width: 1.5;" x1="309" x2="309" y1="159" y2="165"/><line style="stroke: #000000; stroke-width: 1.5;" x1="315" x2="309" y1="165" y2="165"/><text fill="#000000" font-family="Futura" font-size="14" lengthAdjust="spacingAndGlyphs" textLength="74" x="226" y="181.957">Data Model</text><ellipse cx="94.1125" cy="175.2225" fill="#FEFECE" filter="url(#f15mbmh1mf96lh)" rx="86.6125" ry="19.7225" style="stroke: #A80036; stroke-width: 1.5;"/><text fill="#000000" font-family="Futura" font-size="14" lengthAdjust="spacingAndGlyphs" textLength="139" x="24.6125" y="181.0194">Generate Data Model</text><!--link PROD_PP_REVIEWED to SR1_3--><path d="M94,72.0349 C94,93.6564 94,127.3087 94,150.2103 " fill="none" id="PROD_PP_REVIEWED-SR1_3" style="stroke: #A80036; stroke-width: 2.0;"/><polygon fill="#A80036" points="94,155.4993,98,146.4993,94,150.4993,90,146.4993,94,155.4993" style="stroke: #A80036; stroke-width: 1.0;"/><!--link SR1_3 to PROD_DM--><path d="M180.6602,175 C190.635,175 200.6098,175 210.5846,175 " fill="none" id="SR1_3-PROD_DM" style="stroke: #A80036; stroke-width: 2.0;"/><polygon fill="#A80036" points="215.8008,175,206.8008,171,210.8008,175,206.8008,179,215.8008,175" style="stroke: #A80036; stroke-width: 1.0;"/><!--
@startuml



skinparam handwritten false
skinparam defaultFontName Futura


actor PJM
actor WT

artifact "Project Plan (reviewed)" as PROD_PP_REVIEWED
artifact "Data Model" as PROD_DM

usecase "Generate Data Model" as SR1_3

PROD_PP_REVIEWED ==> SR1_3
SR1_3 =r=> PROD_DM

@enduml

PlantUML version 1.2019.00(Sun Jan 13 07:46:42 PST 2019)
(GPL source distribution)
Java Runtime: Java(TM) SE Runtime Environment
JVM: Java HotSpot(TM) 64-Bit Server VM
Java Version: 10.0.1+10
Operating System: Mac OS X
OS Version: 10.14.3
Default Encoding: UTF-8
Language: en
Country: US
--></g></svg>