<?xml version="1.0" encoding="UTF-8" standalone="no"?><svg xmlns="http://www.w3.org/2000/svg" xmlns:xlink="http://www.w3.org/1999/xlink" contentScriptType="application/ecmascript" contentStyleType="text/css" height="224px" preserveAspectRatio="none" style="width:310px;height:224px;" version="1.1" viewBox="0 0 310 224" width="310px" zoomAndPan="magnify"><defs><filter height="300%" id="f1mrntmi8wikl6" width="300%" x="-1" y="-1"><feGaussianBlur result="blurOut" stdDeviation="2.0"/><feColorMatrix in="blurOut" result="blurOut2" type="matrix" values="0 0 0 0 0 0 0 0 0 0 0 0 0 0 0 0 0 0 .4 0"/><feOffset dx="4.0" dy="4.0" in="blurOut2" result="blurOut3"/><feBlend in="SourceGraphic" in2="blurOut3" mode="normal"/></filter></defs><g><!--cluster Project Plan--><rect fill="#FFFFFF" filter="url(#f1mrntmi8wikl6)" height="88" style="stroke: #000000; stroke-width: 1.5;" width="161" x="132" y="125"/><polygon fill="#FFFFFF" points="276,130,276,144,288,144,288,136,282,130,276,130" style="stroke: #000000; stroke-width: 1.5;"/><line style="stroke: #000000; stroke-width: 1.5;" x1="282" x2="282" y1="130" y2="136"/><line style="stroke: #000000; stroke-width: 1.5;" x1="288" x2="282" y1="136" y2="136"/><text fill="#000000" font-family="Futura" font-size="14" font-weight="bold" lengthAdjust="spacingAndGlyphs" textLength="88" x="168.5" y="141.966">Project Plan</text><!--entity PROD_PP--><ellipse cx="259" cy="170" fill="#FEFECE" filter="url(#f1mrntmi8wikl6)" rx="12" ry="12" style="stroke: #A80036; stroke-width: 2.0;"/><polygon fill="#A80036" points="255,158,261,153,259,158,261,163,255,158" style="stroke: #A80036; stroke-width: 1.0;"/><text fill="#000000" font-family="Futura" font-size="14" lengthAdjust="spacingAndGlyphs" textLength="52" x="233" y="200.957">updated</text><!--entity PROD_PP_REVIEWED--><ellipse cx="169" cy="170" fill="#FEFECE" filter="url(#f1mrntmi8wikl6)" rx="12" ry="12" style="stroke: #A80036; stroke-width: 2.0;"/><polygon fill="#A80036" points="165,158,171,153,169,158,171,163,165,158" style="stroke: #A80036; stroke-width: 1.0;"/><text fill="#000000" font-family="Futura" font-size="14" lengthAdjust="spacingAndGlyphs" textLength="58" x="140" y="200.957">reviewed</text><!--entity PJM--><ellipse cx="21" cy="18" fill="#FEFECE" filter="url(#f1mrntmi8wikl6)" rx="8" ry="8" style="stroke: #A80036; stroke-width: 2.0;"/><path d="M21,26 L21,53 M8,34 L34,34 M21,53 L8,68 M21,53 L34,68 " fill="none" filter="url(#f1mrntmi8wikl6)" style="stroke: #A80036; stroke-width: 2.0;"/><text fill="#000000" font-family="Futura" font-size="14" lengthAdjust="spacingAndGlyphs" textLength="27" x="7.5" y="89.957">PJM</text><!--entity WT--><ellipse cx="86" cy="18" fill="#FEFECE" filter="url(#f1mrntmi8wikl6)" rx="8" ry="8" style="stroke: #A80036; stroke-width: 2.0;"/><path d="M86,26 L86,53 M73,34 L99,34 M86,53 L73,68 M86,53 L99,68 " fill="none" filter="url(#f1mrntmi8wikl6)" style="stroke: #A80036; stroke-width: 2.0;"/><text fill="#000000" font-family="Futura" font-size="14" lengthAdjust="spacingAndGlyphs" textLength="22" x="75" y="89.957">WT</text><ellipse cx="214.1119" cy="51.0224" fill="#FEFECE" filter="url(#f1mrntmi8wikl6)" rx="78.1119" ry="18.0224" style="stroke: #A80036; stroke-width: 1.5;"/><text fill="#000000" font-family="Futura" font-size="14" lengthAdjust="spacingAndGlyphs" textLength="118" x="155.1119" y="56.8193">Revise Project Plan</text><!--link PROD_PP to SR1_1--><path d="M250.0422,153.9204 C241.8806,130.6146 229.9334,96.4988 222.0641,74.0274 " fill="none" id="PROD_PP-SR1_1" style="stroke: #A80036; stroke-width: 2.0;"/><polygon fill="#A80036" points="220.352,69.1384,219.5514,78.9547,222.0046,73.8574,227.1018,76.3105,220.352,69.1384" style="stroke: #A80036; stroke-width: 1.0;"/><!--link SR1_1 to PROD_PP_REVIEWED--><path d="M207.648,69.1384 C200.3799,89.8929 188.3604,124.2154 179.6528,149.0804 " fill="none" id="SR1_1-PROD_PP_REVIEWED" style="stroke: #A80036; stroke-width: 2.0;"/><polygon fill="#A80036" points="177.9578,153.9204,184.7078,146.7484,179.6105,149.2014,177.1575,144.1041,177.9578,153.9204" style="stroke: #A80036; stroke-width: 1.0;"/><!--
@startuml



skinparam handwritten false
skinparam defaultFontName Futura


actor PJM
actor WT

artifact "Project Plan" {
control "updated" as PROD_PP
control "reviewed" as PROD_PP_REVIEWED
}

usecase "Revise Project Plan" as SR1_1

PROD_PP ==> SR1_1
SR1_1 ==> PROD_PP_REVIEWED

@enduml

PlantUML version 1.2019.00(Sun Jan 13 07:46:42 PST 2019)
(GPL source distribution)
Java Runtime: Java(TM) SE Runtime Environment
JVM: Java HotSpot(TM) 64-Bit Server VM
Java Version: 10.0.1+10
Operating System: Mac OS X
OS Version: 10.14.3
Default Encoding: UTF-8
Language: en
Country: US
--></g></svg>