<?xml version="1.0" encoding="UTF-8" standalone="no"?><svg xmlns="http://www.w3.org/2000/svg" xmlns:xlink="http://www.w3.org/1999/xlink" contentScriptType="application/ecmascript" contentStyleType="text/css" height="220px" preserveAspectRatio="none" style="width:567px;height:220px;" version="1.1" viewBox="0 0 567 220" width="567px" zoomAndPan="magnify"><defs><filter height="300%" id="f10vt1kebco740" width="300%" x="-1" y="-1"><feGaussianBlur result="blurOut" stdDeviation="2.0"/><feColorMatrix in="blurOut" result="blurOut2" type="matrix" values="0 0 0 0 0 0 0 0 0 0 0 0 0 0 0 0 0 0 .4 0"/><feOffset dx="4.0" dy="4.0" in="blurOut2" result="blurOut3"/><feBlend in="SourceGraphic" in2="blurOut3" mode="normal"/></filter></defs><g><!--entity PJM--><ellipse cx="371" cy="18" fill="#FEFECE" filter="url(#f10vt1kebco740)" rx="8" ry="8" style="stroke: #A80036; stroke-width: 2.0;"/><path d="M371,26 L371,53 M358,34 L384,34 M371,53 L358,68 M371,53 L384,68 " fill="none" filter="url(#f10vt1kebco740)" style="stroke: #A80036; stroke-width: 2.0;"/><text fill="#000000" font-family="Futura" font-size="14" lengthAdjust="spacingAndGlyphs" textLength="27" x="357.5" y="89.957">PJM</text><!--entity WT--><ellipse cx="436" cy="18" fill="#FEFECE" filter="url(#f10vt1kebco740)" rx="8" ry="8" style="stroke: #A80036; stroke-width: 2.0;"/><path d="M436,26 L436,53 M423,34 L449,34 M436,53 L423,68 M436,53 L449,68 " fill="none" filter="url(#f10vt1kebco740)" style="stroke: #A80036; stroke-width: 2.0;"/><text fill="#000000" font-family="Futura" font-size="14" lengthAdjust="spacingAndGlyphs" textLength="22" x="425" y="89.957">WT</text><!--entity PROD_PP_REVIEWED--><rect fill="#FEFECE" filter="url(#f10vt1kebco740)" height="41.5938" style="stroke: #000000; stroke-width: 1.5;" width="176" x="6" y="30"/><polygon fill="#FEFECE" points="165,35,165,49,177,49,177,41,171,35,165,35" style="stroke: #000000; stroke-width: 1.5;"/><line style="stroke: #000000; stroke-width: 1.5;" x1="171" x2="171" y1="35" y2="41"/><line style="stroke: #000000; stroke-width: 1.5;" x1="177" x2="171" y1="41" y2="41"/><text fill="#000000" font-family="Futura" font-size="14" lengthAdjust="spacingAndGlyphs" textLength="146" x="16" y="57.957">Project Plan (reviewed)</text><!--entity PROD_DM--><rect fill="#FEFECE" filter="url(#f10vt1kebco740)" height="41.5938" style="stroke: #000000; stroke-width: 1.5;" width="104" x="217" y="30"/><polygon fill="#FEFECE" points="304,35,304,49,316,49,316,41,310,35,304,35" style="stroke: #000000; stroke-width: 1.5;"/><line style="stroke: #000000; stroke-width: 1.5;" x1="310" x2="310" y1="35" y2="41"/><line style="stroke: #000000; stroke-width: 1.5;" x1="316" x2="310" y1="41" y2="41"/><text fill="#000000" font-family="Futura" font-size="14" lengthAdjust="spacingAndGlyphs" textLength="74" x="227" y="57.957">Data Model</text><!--entity PROD_IE--><rect fill="#FEFECE" filter="url(#f10vt1kebco740)" height="41.5938" style="stroke: #000000; stroke-width: 1.5;" width="208" x="342" y="160.5"/><polygon fill="#FEFECE" points="533,165.5,533,179.5,545,179.5,545,171.5,539,165.5,533,165.5" style="stroke: #000000; stroke-width: 1.5;"/><line style="stroke: #000000; stroke-width: 1.5;" x1="539" x2="539" y1="165.5" y2="171.5"/><line style="stroke: #000000; stroke-width: 1.5;" x1="545" x2="539" y1="171.5" y2="171.5"/><text fill="#000000" font-family="Futura" font-size="14" lengthAdjust="spacingAndGlyphs" textLength="178" x="352" y="188.457">Implementation Environment</text><ellipse cx="181.1129" cy="181.6226" fill="#FEFECE" filter="url(#f10vt1kebco740)" rx="126.1129" ry="27.6226" style="stroke: #A80036; stroke-width: 1.5;"/><text fill="#000000" font-family="Futura" font-size="14" lengthAdjust="spacingAndGlyphs" textLength="228" x="67.1129" y="187.4195">Update Implementation Environment</text><!--link PROD_PP_REVIEWED to SR1_4--><path d="M108.1717,72.2575 C122.1327,93.1991 143.638,125.4571 159.6653,149.4979 " fill="none" id="PROD_PP_REVIEWED-SR1_4" style="stroke: #A80036; stroke-width: 2.0;"/><polygon fill="#A80036" points="162.5911,153.8866,160.9268,144.1794,159.8175,149.7264,154.2705,148.6171,162.5911,153.8866" style="stroke: #A80036; stroke-width: 1.0;"/><!--link PROD_DM to SR1_4--><path d="M254.6654,72.2575 C240.5439,93.1991 218.7914,125.4571 202.58,149.4979 " fill="none" id="PROD_DM-SR1_4" style="stroke: #A80036; stroke-width: 2.0;"/><polygon fill="#A80036" points="199.6205,153.8866,207.9688,148.6611,202.416,149.7411,201.336,144.1883,199.6205,153.8866" style="stroke: #A80036; stroke-width: 1.0;"/><!--link SR1_4 to PROD_IE--><path d="M307.0303,181.5 C316.8921,181.5 326.7538,181.5 336.6156,181.5 " fill="none" id="SR1_4-PROD_IE" style="stroke: #A80036; stroke-width: 2.0;"/><polygon fill="#A80036" points="341.7727,181.5,332.7727,177.5,336.7727,181.5,332.7727,185.5,341.7727,181.5" style="stroke: #A80036; stroke-width: 1.0;"/><!--
@startuml



skinparam handwritten false
skinparam defaultFontName Futura


actor PJM
actor WT

artifact "Project Plan (reviewed)" as PROD_PP_REVIEWED
artifact "Data Model" as PROD_DM
artifact "Implementation Environment" as PROD_IE

usecase "Update Implementation Environment" as SR1_4

PROD_PP_REVIEWED ==> SR1_4
PROD_DM ==> SR1_4
SR1_4 =r=> PROD_IE

@enduml

PlantUML version 1.2019.00(Sun Jan 13 07:46:42 PST 2019)
(GPL source distribution)
Java Runtime: Java(TM) SE Runtime Environment
JVM: Java HotSpot(TM) 64-Bit Server VM
Java Version: 10.0.1+10
Operating System: Mac OS X
OS Version: 10.14.3
Default Encoding: UTF-8
Language: en
Country: US
--></g></svg>