<?xml version="1.0" encoding="UTF-8" standalone="no"?><svg xmlns="http://www.w3.org/2000/svg" xmlns:xlink="http://www.w3.org/1999/xlink" contentScriptType="application/ecmascript" contentStyleType="text/css" height="206px" preserveAspectRatio="none" style="width:322px;height:206px;" version="1.1" viewBox="0 0 322 206" width="322px" zoomAndPan="magnify"><defs><filter height="300%" id="fwom6ont9c1xo" width="300%" x="-1" y="-1"><feGaussianBlur result="blurOut" stdDeviation="2.0"/><feColorMatrix in="blurOut" result="blurOut2" type="matrix" values="0 0 0 0 0 0 0 0 0 0 0 0 0 0 0 0 0 0 .4 0"/><feOffset dx="4.0" dy="4.0" in="blurOut2" result="blurOut3"/><feBlend in="SourceGraphic" in2="blurOut3" mode="normal"/></filter></defs><g><!--entity PJM--><ellipse cx="232" cy="18" fill="#FEFECE" filter="url(#fwom6ont9c1xo)" rx="8" ry="8" style="stroke: #A80036; stroke-width: 2.0;"/><path d="M232,26 L232,53 M219,34 L245,34 M232,53 L219,68 M232,53 L245,68 " fill="none" filter="url(#fwom6ont9c1xo)" style="stroke: #A80036; stroke-width: 2.0;"/><text fill="#000000" font-family="Futura" font-size="14" lengthAdjust="spacingAndGlyphs" textLength="27" x="218.5" y="89.957">PJM</text><!--entity SYS--><ellipse cx="297" cy="18" fill="#FEFECE" filter="url(#fwom6ont9c1xo)" rx="8" ry="8" style="stroke: #A80036; stroke-width: 2.0;"/><path d="M297,26 L297,53 M284,34 L310,34 M297,53 L284,68 M297,53 L310,68 " fill="none" filter="url(#fwom6ont9c1xo)" style="stroke: #A80036; stroke-width: 2.0;"/><text fill="#000000" font-family="Futura" font-size="14" lengthAdjust="spacingAndGlyphs" textLength="24" x="285" y="89.957">SYS</text><!--entity PROD_PP_REVIEWED--><rect fill="#FEFECE" filter="url(#fwom6ont9c1xo)" height="41.5938" style="stroke: #000000; stroke-width: 1.5;" width="176" x="6" y="30"/><polygon fill="#FEFECE" points="165,35,165,49,177,49,177,41,171,35,165,35" style="stroke: #000000; stroke-width: 1.5;"/><line style="stroke: #000000; stroke-width: 1.5;" x1="171" x2="171" y1="35" y2="41"/><line style="stroke: #000000; stroke-width: 1.5;" x1="177" x2="171" y1="41" y2="41"/><text fill="#000000" font-family="Futura" font-size="14" lengthAdjust="spacingAndGlyphs" textLength="146" x="16" y="57.957">Project Plan (reviewed)</text><!--entity PROD_SEMP--><rect fill="#FEFECE" filter="url(#fwom6ont9c1xo)" height="41.5938" style="stroke: #000000; stroke-width: 1.5;" width="67" x="201.5" y="154"/><polygon fill="#FEFECE" points="251.5,159,251.5,173,263.5,173,263.5,165,257.5,159,251.5,159" style="stroke: #000000; stroke-width: 1.5;"/><line style="stroke: #000000; stroke-width: 1.5;" x1="257.5" x2="257.5" y1="159" y2="165"/><line style="stroke: #000000; stroke-width: 1.5;" x1="263.5" x2="257.5" y1="165" y2="165"/><text fill="#000000" font-family="Futura" font-size="14" lengthAdjust="spacingAndGlyphs" textLength="37" x="211.5" y="181.957">SEMP</text><ellipse cx="94.0058" cy="174.8012" fill="#FEFECE" filter="url(#fwom6ont9c1xo)" rx="72.0058" ry="16.8012" style="stroke: #A80036; stroke-width: 1.5;"/><text fill="#000000" font-family="Futura" font-size="14" lengthAdjust="spacingAndGlyphs" textLength="102" x="43.0058" y="180.598">Generate SEMP</text><!--link PROD_PP_REVIEWED to SR1_2--><path d="M94,72.0349 C94,94.424 94,129.7134 94,152.6079 " fill="none" id="PROD_PP_REVIEWED-SR1_2" style="stroke: #A80036; stroke-width: 2.0;"/><polygon fill="#A80036" points="94,157.8621,98,148.8621,94,152.8621,90,148.8621,94,157.8621" style="stroke: #A80036; stroke-width: 1.0;"/><!--link SR1_2 to PROD_SEMP--><path d="M166.1523,175 C176.1527,175 186.1531,175 196.1534,175 " fill="none" id="SR1_2-PROD_SEMP" style="stroke: #A80036; stroke-width: 2.0;"/><polygon fill="#A80036" points="201.383,175,192.383,171,196.383,175,192.383,179,201.383,175" style="stroke: #A80036; stroke-width: 1.0;"/><!--
@startuml



skinparam handwritten false
skinparam defaultFontName Futura


actor PJM
actor SYS

artifact "Project Plan (reviewed)" as PROD_PP_REVIEWED
artifact "SEMP" as PROD_SEMP

usecase "Generate SEMP" as SR1_2

PROD_PP_REVIEWED ==> SR1_2
SR1_2 =r=> PROD_SEMP

@enduml

PlantUML version 1.2019.00(Sun Jan 13 07:46:42 PST 2019)
(GPL source distribution)
Java Runtime: Java(TM) SE Runtime Environment
JVM: Java HotSpot(TM) 64-Bit Server VM
Java Version: 10.0.1+10
Operating System: Mac OS X
OS Version: 10.14.3
Default Encoding: UTF-8
Language: en
Country: US
--></g></svg>