<svg xmlns="http://www.w3.org/2000/svg" height="357" preserveAspectRatio="none" style="width:2715px;height:357px" width="2715"><defs><filter height="300%" id="a" width="300%" x="-1" y="-1"><feGaussianBlur result="blurOut" stdDeviation="2"/><feColorMatrix in="blurOut" result="blurOut2" values="0 0 0 0 0 0 0 0 0 0 0 0 0 0 0 0 0 0 .4 0"/><feOffset dx="4" dy="4" in="blurOut2" result="blurOut3"/><feBlend in="SourceGraphic" in2="blurOut3"/></filter></defs><path fill="#FFF" filter="url(#a)" stroke="#000" stroke-width="1.5" d="M1033 16h52l7 22.488h337V90h-396V16z"/><path stroke="#000" stroke-width="1.5" d="M1033 38.488h59"/><text font-family="sans-serif" font-size="14" font-weight="bold" lengthAdjust="spacingAndGlyphs" textLength="46" x="1037" y="31.535">Inputs</text><path fill="#FFF" filter="url(#a)" stroke="#000" stroke-width="1.5" d="M1448 16h45l7 22.488h22V90h-74V16z"/><path stroke="#000" stroke-width="1.5" d="M1448 38.488h52"/><text font-family="sans-serif" font-size="14" font-weight="bold" lengthAdjust="spacingAndGlyphs" textLength="39" x="1452" y="31.535">Peers</text><path fill="#FFF" filter="url(#a)" stroke="#000" stroke-width="1.5" d="M1541 16h65l7 22.488h1080V90H1541V16z"/><path stroke="#000" stroke-width="1.5" d="M1541 38.488h72"/><text font-family="sans-serif" font-size="14" font-weight="bold" lengthAdjust="spacingAndGlyphs" textLength="59" x="1545" y="31.535">Outputs</text><path fill="#FFF" filter="url(#a)" stroke="#000" stroke-width="1.5" d="M537 148.5h33l7 22.488h1744V243.5H537v-95z"/><path stroke="#000" stroke-width="1.5" d="M537 170.988h40"/><text font-family="sans-serif" font-size="14" font-weight="bold" lengthAdjust="spacingAndGlyphs" textLength="27" x="541" y="164.035">SR2</text><path fill="#FEFECE" filter="url(#a)" stroke="#000" stroke-width="1.5" d="M1311 43h110v39.488h-110z"/><path fill="#FEFECE" stroke="#000" stroke-width="1.5" d="M1404 48v14h12v-8l-6-6h-6z"/><path stroke="#000" stroke-width="1.5" d="M1410 48v6M1416 54h-6"/><text font-family="sans-serif" font-size="14" lengthAdjust="spacingAndGlyphs" textLength="80" x="1321" y="69.535">Project Plan</text><path fill="#FEFECE" filter="url(#a)" stroke="#000" stroke-width="1.5" d="M1210 43h66v39.488h-66z"/><path fill="#FEFECE" stroke="#000" stroke-width="1.5" d="M1259 48v14h12v-8l-6-6h-6z"/><path stroke="#000" stroke-width="1.5" d="M1265 48v6M1271 54h-6"/><text font-family="sans-serif" font-size="14" lengthAdjust="spacingAndGlyphs" textLength="36" x="1220" y="69.535">SEMP</text><path fill="#FEFECE" filter="url(#a)" stroke="#000" stroke-width="1.5" d="M1041 43h134v39.488h-134z"/><path fill="#FEFECE" stroke="#000" stroke-width="1.5" d="M1158 48v14h12v-8l-6-6h-6z"/><path stroke="#000" stroke-width="1.5" d="M1164 48v6M1170 54h-6"/><text font-family="sans-serif" font-size="14" lengthAdjust="spacingAndGlyphs" textLength="104" x="1051" y="69.535">SoW (reviewed)</text><path fill="#FEFECE" filter="url(#a)" stroke="#000" stroke-width="1.5" d="M1456 43h58v39.488h-58z"/><path fill="#FEFECE" stroke="#000" stroke-width="1.5" d="M1497 48v14h12v-8l-6-6h-6z"/><path stroke="#000" stroke-width="1.5" d="M1503 48v6M1509 54h-6"/><text font-family="sans-serif" font-size="14" lengthAdjust="spacingAndGlyphs" textLength="28" x="1466" y="69.535">SDD</text><path fill="#FEFECE" filter="url(#a)" stroke="#000" stroke-width="1.5" d="M2368 43h136v39.488h-136z"/><path fill="#FEFECE" stroke="#000" stroke-width="1.5" d="M2487 48v14h12v-8l-6-6h-6z"/><path stroke="#000" stroke-width="1.5" d="M2493 48v6M2499 54h-6"/><text font-family="sans-serif" font-size="14" lengthAdjust="spacingAndGlyphs" textLength="106" x="2378" y="69.535">StRS (validated)</text><path fill="#FEFECE" filter="url(#a)" stroke="#000" stroke-width="1.5" d="M2539.5 43h145v39.488h-145z"/><path fill="#FEFECE" stroke="#000" stroke-width="1.5" d="M2667.5 48v14h12v-8l-6-6h-6z"/><path stroke="#000" stroke-width="1.5" d="M2673.5 48v6M2679.5 54h-6"/><text font-family="sans-serif" font-size="14" lengthAdjust="spacingAndGlyphs" textLength="115" x="2549.5" y="69.535">SysRS (validated)</text><path fill="#FEFECE" filter="url(#a)" stroke="#000" stroke-width="1.5" d="M2193.5 43h139v39.488h-139z"/><path fill="#FEFECE" stroke="#000" stroke-width="1.5" d="M2315.5 48v14h12v-8l-6-6h-6z"/><path stroke="#000" stroke-width="1.5" d="M2321.5 48v6M2327.5 54h-6"/><text font-family="sans-serif" font-size="14" lengthAdjust="spacingAndGlyphs" textLength="109" x="2203.5" y="69.535">SERS (validated)</text><path fill="#FEFECE" filter="url(#a)" stroke="#000" stroke-width="1.5" d="M1991.5 43h167v39.488h-167z"/><path fill="#FEFECE" stroke="#000" stroke-width="1.5" d="M2141.5 48v14h12v-8l-6-6h-6z"/><path stroke="#000" stroke-width="1.5" d="M2147.5 48v6M2153.5 54h-6"/><text font-family="sans-serif" font-size="14" lengthAdjust="spacingAndGlyphs" textLength="137" x="2001.5" y="69.535">IVV Plan (published)</text><path fill="#FEFECE" filter="url(#a)" stroke="#000" stroke-width="1.5" d="M1741.5 43h215v39.488h-215z"/><path fill="#FEFECE" stroke="#000" stroke-width="1.5" d="M1939.5 48v14h12v-8l-6-6h-6z"/><path stroke="#000" stroke-width="1.5" d="M1945.5 48v6M1951.5 54h-6"/><text font-family="sans-serif" font-size="14" lengthAdjust="spacingAndGlyphs" textLength="185" x="1751.5" y="69.535">IVV Procedures (published)</text><path fill="#FEFECE" filter="url(#a)" stroke="#000" stroke-width="1.5" d="M1549.5 43h157v39.488h-157z"/><path fill="#FEFECE" stroke="#000" stroke-width="1.5" d="M1689.5 48v14h12v-8l-6-6h-6z"/><path stroke="#000" stroke-width="1.5" d="M1695.5 48v6M1701.5 54h-6"/><text font-family="sans-serif" font-size="14" lengthAdjust="spacingAndGlyphs" textLength="127" x="1559.5" y="69.535">Traceability Matrix</text><ellipse cx="1290.891" cy="205.478" fill="#FEFECE" filter="url(#a)" rx="80.391" ry="18.478" stroke="#a80036" stroke-width="1.5"/><text font-family="sans-serif" font-size="14" lengthAdjust="spacingAndGlyphs" textLength="131" x="1225.391" y="210.222">Elicit Requirements</text><ellipse cx="600.119" cy="205.659" fill="#FEFECE" filter="url(#a)" rx="54.619" ry="14.659" stroke="#a80036" stroke-width="1.5"/><text font-family="sans-serif" font-size="14" lengthAdjust="spacingAndGlyphs" textLength="73" x="563.619" y="210.403">Verify StRS</text><ellipse cx="1470.158" cy="205.632" fill="#FEFECE" filter="url(#a)" rx="63.658" ry="15.132" stroke="#a80036" stroke-width="1.5"/><text font-family="sans-serif" font-size="14" lengthAdjust="spacingAndGlyphs" textLength="89" x="1425.658" y="210.376">Validate StRS</text><ellipse cx="1683.836" cy="205.467" fill="#FEFECE" filter="url(#a)" rx="115.336" ry="25.467" stroke="#a80036" stroke-width="1.5"/><text font-family="sans-serif" font-size="14" lengthAdjust="spacingAndGlyphs" textLength="209" x="1579.336" y="210.211">Elaborate SysRS and Interfaces</text><ellipse cx="826.998" cy="205.299" fill="#FEFECE" filter="url(#a)" rx="136.998" ry="29.799" stroke="#a80036" stroke-width="1.5"/><text font-family="sans-serif" font-size="14" lengthAdjust="spacingAndGlyphs" textLength="255" x="699.498" y="210.044">Elaborate SERS and System Interfaces</text><ellipse cx="1087.143" cy="205.529" fill="#FEFECE" filter="url(#a)" rx="88.143" ry="20.029" stroke="#a80036" stroke-width="1.5"/><text font-family="sans-serif" font-size="14" lengthAdjust="spacingAndGlyphs" textLength="149" x="1012.643" y="210.273">Verify SysRS and SERS</text><ellipse cx="2246.032" cy="205.306" fill="#FEFECE" filter="url(#a)" rx="67.032" ry="15.806" stroke="#a80036" stroke-width="1.5"/><text font-family="sans-serif" font-size="14" lengthAdjust="spacingAndGlyphs" textLength="98" x="2197.032" y="210.051">Validate SysRS</text><ellipse cx="2062.815" cy="205.563" fill="#FEFECE" filter="url(#a)" rx="80.815" ry="18.563" stroke="#a80036" stroke-width="1.5"/><text font-family="sans-serif" font-size="14" lengthAdjust="spacingAndGlyphs" textLength="132" x="1996.815" y="210.307">Update Traceability</text><ellipse cx="1891.033" cy="205.659" fill="#FEFECE" filter="url(#a)" rx="56.033" ry="14.659" stroke="#a80036" stroke-width="1.5"/><text font-family="sans-serif" font-size="14" lengthAdjust="spacingAndGlyphs" textLength="75" x="1853.533" y="210.403">Update IVV</text><circle cx="21" cy="31" fill="#FEFECE" filter="url(#a)" stroke="#a80036" stroke-width="2" r="8"/><path d="M21 39v27M8 47h26M21 66L8 81m13-15l13 15" fill="none" filter="url(#a)" stroke="#a80036" stroke-width="2"/><text font-family="sans-serif" font-size="14" lengthAdjust="spacingAndGlyphs" textLength="25" x="8.5" y="101.535">SYS</text><circle cx="87" cy="31" fill="#FEFECE" filter="url(#a)" stroke="#a80036" stroke-width="2" r="8"/><path d="M87 39v27M74 47h26M87 66L74 81m13-15l13 15" fill="none" filter="url(#a)" stroke="#a80036" stroke-width="2"/><text font-family="sans-serif" font-size="14" lengthAdjust="spacingAndGlyphs" textLength="31" x="71.5" y="101.535">ACQ</text><circle cx="153" cy="31" fill="#FEFECE" filter="url(#a)" stroke="#a80036" stroke-width="2" r="8"/><path d="M153 39v27m-13-19h26m-13 19l-13 15m13-15l13 15" fill="none" filter="url(#a)" stroke="#a80036" stroke-width="2"/><text font-family="sans-serif" font-size="14" lengthAdjust="spacingAndGlyphs" textLength="26" x="140" y="101.535">STK</text><circle cx="21" cy="174" fill="#FEFECE" filter="url(#a)" stroke="#a80036" stroke-width="2" r="8"/><path d="M21 182v27M8 190h26m-13 19L8 224m13-15l13 15" fill="none" filter="url(#a)" stroke="#a80036" stroke-width="2"/><text font-family="sans-serif" font-size="14" lengthAdjust="spacingAndGlyphs" textLength="24" x="9" y="244.535">PJM</text><circle cx="86" cy="174" fill="#FEFECE" filter="url(#a)" stroke="#a80036" stroke-width="2" r="8"/><path d="M86 182v27m-13-19h26m-13 19l-13 15m13-15l13 15" fill="none" filter="url(#a)" stroke="#a80036" stroke-width="2"/><text font-family="sans-serif" font-size="14" lengthAdjust="spacingAndGlyphs" textLength="21" x="75.5" y="244.535">WT</text><circle cx="151" cy="174" fill="#FEFECE" filter="url(#a)" stroke="#a80036" stroke-width="2" r="8"/><path d="M151 182v27m-13-19h26m-13 19l-13 15m13-15l13 15" fill="none" filter="url(#a)" stroke="#a80036" stroke-width="2"/><text font-family="sans-serif" font-size="14" lengthAdjust="spacingAndGlyphs" textLength="26" x="138" y="244.535">DES</text><path fill="#FEFECE" filter="url(#a)" stroke="#000" stroke-width="1.5" d="M203.5 43h133v39.488h-133z"/><path fill="#FEFECE" stroke="#000" stroke-width="1.5" d="M319.5 48v14h12v-8l-6-6h-6z"/><path stroke="#000" stroke-width="1.5" d="M325.5 48v6M331.5 54h-6"/><text font-family="sans-serif" font-size="14" lengthAdjust="spacingAndGlyphs" textLength="103" x="213.5" y="69.535">SERS (initiated)</text><path fill="#FEFECE" filter="url(#a)" stroke="#000" stroke-width="1.5" d="M372 43h130v39.488H372z"/><path fill="#FEFECE" stroke="#000" stroke-width="1.5" d="M485 48v14h12v-8l-6-6h-6z"/><path stroke="#000" stroke-width="1.5" d="M491 48v6M497 54h-6"/><text font-family="sans-serif" font-size="14" lengthAdjust="spacingAndGlyphs" textLength="100" x="382" y="69.535">StRS (initiated)</text><path fill="#FEFECE" filter="url(#a)" stroke="#000" stroke-width="1.5" d="M537.5 43h125v39.488h-125z"/><path fill="#FEFECE" stroke="#000" stroke-width="1.5" d="M645.5 48v14h12v-8l-6-6h-6z"/><path stroke="#000" stroke-width="1.5" d="M651.5 48v6M657.5 54h-6"/><text font-family="sans-serif" font-size="14" lengthAdjust="spacingAndGlyphs" textLength="95" x="547.5" y="69.535">StRS (verified)</text><path fill="#FEFECE" filter="url(#a)" stroke="#000" stroke-width="1.5" d="M697.5 43h139v39.488h-139z"/><path fill="#FEFECE" stroke="#000" stroke-width="1.5" d="M819.5 48v14h12v-8l-6-6h-6z"/><path stroke="#000" stroke-width="1.5" d="M825.5 48v6M831.5 54h-6"/><text font-family="sans-serif" font-size="14" lengthAdjust="spacingAndGlyphs" textLength="109" x="707.5" y="69.535">SysRS (initiated)</text><path fill="#FEFECE" filter="url(#a)" stroke="#000" stroke-width="1.5" d="M872 43h134v39.488H872z"/><path fill="#FEFECE" stroke="#000" stroke-width="1.5" d="M989 48v14h12v-8l-6-6h-6z"/><path stroke="#000" stroke-width="1.5" d="M995 48v6M1001 54h-6"/><text font-family="sans-serif" font-size="14" lengthAdjust="spacingAndGlyphs" textLength="104" x="882" y="69.535">SysRS (verified)</text><path fill="#FEFECE" filter="url(#a)" stroke="#000" stroke-width="1.5" d="M1062.5 307h49v39.488h-49z"/><path fill="#FEFECE" stroke="#000" stroke-width="1.5" d="M1094.5 312v14h12v-8l-6-6h-6z"/><path stroke="#000" stroke-width="1.5" d="M1100.5 312v6M1106.5 318h-6"/><text font-family="sans-serif" font-size="14" lengthAdjust="spacingAndGlyphs" textLength="19" x="1072.5" y="333.535">CR</text><path d="M1355.729 82.084l-52.624 100.335" fill="none" stroke="#a80036" stroke-width="2"/><path fill="#A80036" stroke="#a80036" d="M1300.672 187.058l7.723-6.112-5.4 1.684-1.685-5.4-.638 9.828z"/><path d="M1133.062 82.084l131.023 102.384" fill="none" stroke="#a80036" stroke-width="2"/><path fill="#A80036" stroke="#a80036" d="M1268.254 187.726l-4.629-8.694.69 5.615-5.615.69 9.554 2.389z"/><path d="M1249.573 82.084l33.408 99.525" fill="none" stroke="#a80036" stroke-width="2"/><path fill="#A80036" stroke="#a80036" d="M1284.659 186.607l.927-9.804-2.519 5.064-5.065-2.519 6.657 7.26z"/><path d="M1267.49 187.621c-18.996-13.368-47.007-30.727-74.49-39.121-286.692-87.56-383.687 33.964-673-44.5-15.925-4.32-32.394-11.825-46.42-19.276" fill="none" stroke="#a80036" stroke-width="2"/><path fill="#A80036" stroke="#a80036" d="M468.92 82.203l6.013 7.8-1.615-5.42 5.421-1.616-9.819-.764z"/><path d="M459.323 82.084l120.564 105.771" fill="none" stroke="#a80036" stroke-width="2"/><path fill="#A80036" stroke="#a80036" d="M583.84 191.322l-4.128-8.942.369 5.645-5.645.369 9.404 2.928z"/><path d="M600 190.916V87.438" fill="none" stroke="#a80036" stroke-width="2"/><path fill="#A80036" stroke="#a80036" d="M600 82.084l-4 9 4-4 4 4-4-9z"/><path d="M630.293 82.023C644.757 90.327 662.661 99.19 680 104c304.241 84.4 411.127-60.18 709 44.5 23.63 8.304 46.592 25.611 61.997 38.988" fill="none" stroke="#a80036" stroke-width="2"/><path fill="#A80036" stroke="#a80036" d="M1454.746 190.796l-4.102-8.954.353 5.646-5.646.353 9.395 2.955z"/><path d="M1485.24 190.756c15.257-13.716 40.096-33.339 65.76-42.256 335.958-116.736 454.627 44.394 799-44.5 16.73-4.318 34.09-11.999 48.796-19.588" fill="none" stroke="#a80036" stroke-width="2"/><path fill="#A80036" stroke="#a80036" d="M2403.271 82.064l-9.828.64 5.401 1.683-1.683 5.401 6.11-7.724z"/><path d="M2402.802 82.046C2387.28 90.248 2368.232 99.022 2350 104c-228.893 62.492-301.69-12.55-532 44.5-28.877 7.153-59.52 19.774-84.204 31.325" fill="none" stroke="#a80036" stroke-width="2"/><path fill="#A80036" stroke="#a80036" d="M1729.258 181.967l9.846-.226-5.324-1.909 1.909-5.325-6.43 7.46z"/><path d="M1639.458 181.873c-25.23-12.21-57.793-26.051-88.458-33.373-301.49-71.984-395.845 32.864-696-44.5-16.899-4.356-34.49-11.954-49.463-19.47" fill="none" stroke="#a80036" stroke-width="2"/><path fill="#A80036" stroke="#a80036" d="M800.978 82.204l6.2 7.654-1.746-5.381 5.381-1.746-9.835-.526z"/><path d="M775.217 82.084l37.192 88.64" fill="none" stroke="#a80036" stroke-width="2"/><path fill="#A80036" stroke="#a80036" d="M814.39 175.448l.207-9.846-2.14 5.236-5.237-2.141 7.17 6.751z"/><path d="M1464.048 85.555c-7.773 7.115-17.13 14.19-27.048 18.445-186.734 80.096-256.932-.82-455 44.5-29.6 6.773-61.238 17.698-88.16 28.18" fill="none" stroke="#a80036" stroke-width="2"/><path fill="#A80036" stroke="#a80036" d="M888.869 178.63l9.84.436-5.186-2.262 2.262-5.185-6.916 7.012zM1467.731 82.071l-9.287 3.278 5.655.158-.158 5.654 3.79-9.09z"/><path d="M763.86 178.813c-27.752-10.82-60.992-22.565-91.86-30.313-137.99-34.637-180.951-2.887-317-44.5-15.802-4.833-32.314-12.279-46.536-19.536" fill="none" stroke="#a80036" stroke-width="2"/><path fill="#A80036" stroke="#a80036" d="M303.732 82.014l6.153 7.69-1.713-5.391 5.392-1.713-9.832-.586z"/><path d="M806.475 82.184C821.511 89.398 838.901 97.404 855 104c55.344 22.675 72.32 20.266 127 44.5 23.624 10.47 49.12 24.248 69.073 35.635" fill="none" stroke="#a80036" stroke-width="2"/><path fill="#A80036" stroke="#a80036" d="M1055.502 186.676l-5.817-7.948 1.48 5.46-5.46 1.48 9.797 1.008z"/><path d="M302.757 82.156C318.087 90.381 336.92 99.142 355 104c269.796 72.5 358.83-33.805 627 44.5 26.1 7.621 53.002 22.383 73.04 34.974" fill="none" stroke="#a80036" stroke-width="2"/><path fill="#A80036" stroke="#a80036" d="M1059.466 186.29l-5.446-8.206 1.228 5.522-5.522 1.227 9.74 1.457z"/><path d="M1066.501 185.694L963.023 85.71" fill="none" stroke="#a80036" stroke-width="2"/><path fill="#A80036" stroke="#a80036" d="M959.268 82.084l3.693 9.13-.097-5.656 5.656-.097-9.252-3.377z"/><path d="M1114.324 186.353c20.59-13.285 50.075-29.959 78.676-37.853 421.573-116.36 558.741 61.648 983-44.5 16.919-4.233 34.481-11.897 49.359-19.498" fill="none" stroke="#a80036" stroke-width="2"/><path fill="#A80036" stroke="#a80036" d="M2229.886 82.15l-9.83.6 5.394 1.705-1.705 5.394 6.141-7.7z"/><path d="M1087 225.753v76.045" fill="none" stroke="#a80036" stroke-width="2"/><path fill="#A80036" stroke="#a80036" d="M1087 306.984l4-9-4 4-4-4 4 9z"/><path d="M971.693 82.203C987.268 90.545 1006.502 99.388 1025 104c245.348 61.175 896.79-34.48 1137 44.5 23.923 7.866 47.31 24.709 63.306 38.057" fill="none" stroke="#a80036" stroke-width="2"/><path fill="#A80036" stroke="#a80036" d="M2229.21 189.868l-4.276-8.872.463 5.638-5.638.463 9.45 2.771z"/><path d="M2409.98 82.084l-139.272 104.82" fill="none" stroke="#a80036" stroke-width="2"/><path fill="#A80036" stroke="#a80036" d="M2266.474 190.09l9.597-2.216-5.602-.79.79-5.602-4.785 8.608z"/><path d="M2284.773 192.337C2338.523 173.84 2438.497 138.541 2522 104c14.57-6.027 30.242-13.057 44.36-19.6" fill="none" stroke="#a80036" stroke-width="2"/><path fill="#A80036" stroke="#a80036" d="M2571.084 82.202l-9.848.17 5.314 1.94-1.939 5.314 6.473-7.424z"/><path d="M2399.923 82.07c-15.107 7.62-33.05 15.942-49.923 21.93-80.92 28.716-108.179 12.858-188 44.5-24.34 9.649-49.903 24.504-68.956 36.63" fill="none" stroke="#a80036" stroke-width="2"/><path fill="#A80036" stroke="#a80036" d="M2088.836 187.831l9.735-1.496-5.527-1.205 1.205-5.527-5.413 8.228z"/><path d="M2576.199 82.109C2560.077 90.117 2540.533 98.72 2522 104c-155.05 44.17-207.104-6.626-360 44.5-25.356 8.478-51.459 23.833-70.492 36.471" fill="none" stroke="#a80036" stroke-width="2"/><path fill="#A80036" stroke="#a80036" d="M2087.314 187.788l9.702-1.698-5.551-1.09 1.09-5.55-5.24 8.338z"/><path d="M2235.61 82.084l-143.664 102.72" fill="none" stroke="#a80036" stroke-width="2"/><path fill="#A80036" stroke="#a80036" d="M2087.859 187.726l9.648-1.98-5.58-.928.927-5.58-4.995 8.488z"/><path d="M2038.002 187.7c-19.122-12.785-46.608-29.425-73.002-39.2-102.142-37.83-136.793-12.8-241-44.5-17.16-5.22-35.37-12.59-51.266-19.675" fill="none" stroke="#a80036" stroke-width="2"/><path fill="#A80036" stroke="#a80036" d="M1667.88 82.138l6.563 7.344-2.005-5.29 5.29-2.005-9.849-.049z"/><path d="M2577.162 82.058C2560.9 90.263 2540.976 99.035 2522 104c-240.258 62.857-325.286-44.85-557 44.5-22.129 8.533-43.125 25.92-57.06 39.259" fill="none" stroke="#a80036" stroke-width="2"/><path fill="#A80036" stroke="#a80036" d="M1904.2 191.403l9.237-3.418-5.656-.072.072-5.657-3.652 9.147z"/><path d="M2226.976 82.05c-15.362 7.708-33.699 16.1-50.976 21.95-90.778 30.736-123.968 4.364-211 44.5-21.133 9.746-41.827 26.477-55.933 39.3" fill="none" stroke="#a80036" stroke-width="2"/><path fill="#A80036" stroke="#a80036" d="M1905.268 191.304l9.327-3.162-5.652-.228.228-5.653-3.903 9.043z"/><path d="M2401.906 82.21c-15.384 8.027-34.074 16.617-51.906 21.79-165.43 47.989-225.405-20.304-385 44.5-21.837 8.867-42.73 26.037-56.713 39.225" fill="none" stroke="#a80036" stroke-width="2"/><path fill="#A80036" stroke="#a80036" d="M1904.532 191.33l9.263-3.346-5.656-.117.117-5.655-3.724 9.117z"/><path d="M1908.726 191.724l136.971-106.45" fill="none" stroke="#a80036" stroke-width="2"/><path fill="#A80036" stroke="#a80036" d="M2049.801 82.084l-9.56 2.364 5.612.704-.703 5.613 4.651-8.681z"/><path d="M1886.717 190.916l-30.502-103.85" fill="none" stroke="#a80036" stroke-width="2"/><path fill="#A80036" stroke="#a80036" d="M1854.752 82.084l-1.302 9.762 2.71-4.965 4.966 2.71-6.374-7.507z"/></svg>