<?xml version="1.0" encoding="UTF-8" standalone="no"?><svg xmlns="http://www.w3.org/2000/svg" xmlns:xlink="http://www.w3.org/1999/xlink" contentScriptType="application/ecmascript" contentStyleType="text/css" height="357px" preserveAspectRatio="none" style="width:2715px;height:357px;" version="1.1" viewBox="0 0 2715 357" width="2715px" zoomAndPan="magnify"><defs><filter height="300%" id="f10tobszqs92yr" width="300%" x="-1" y="-1"><feGaussianBlur result="blurOut" stdDeviation="2.0"/><feColorMatrix in="blurOut" result="blurOut2" type="matrix" values="0 0 0 0 0 0 0 0 0 0 0 0 0 0 0 0 0 0 .4 0"/><feOffset dx="4.0" dy="4.0" in="blurOut2" result="blurOut3"/><feBlend in="SourceGraphic" in2="blurOut3" mode="normal"/></filter></defs><g><!--cluster Inputs--><polygon fill="#FFFFFF" filter="url(#f10tobszqs92yr)" points="1033,16,1085,16,1092,38.4883,1429,38.4883,1429,90,1033,90,1033,16" style="stroke: #000000; stroke-width: 1.5;"/><line style="stroke: #000000; stroke-width: 1.5;" x1="1033" x2="1092" y1="38.4883" y2="38.4883"/><text fill="#000000" font-family="sans-serif" font-size="14" font-weight="bold" lengthAdjust="spacingAndGlyphs" textLength="46" x="1037" y="31.5352">Inputs</text><!--cluster Peers--><polygon fill="#FFFFFF" filter="url(#f10tobszqs92yr)" points="1448,16,1493,16,1500,38.4883,1522,38.4883,1522,90,1448,90,1448,16" style="stroke: #000000; stroke-width: 1.5;"/><line style="stroke: #000000; stroke-width: 1.5;" x1="1448" x2="1500" y1="38.4883" y2="38.4883"/><text fill="#000000" font-family="sans-serif" font-size="14" font-weight="bold" lengthAdjust="spacingAndGlyphs" textLength="39" x="1452" y="31.5352">Peers</text><!--cluster Outputs--><polygon fill="#FFFFFF" filter="url(#f10tobszqs92yr)" points="1541,16,1606,16,1613,38.4883,2693,38.4883,2693,90,1541,90,1541,16" style="stroke: #000000; stroke-width: 1.5;"/><line style="stroke: #000000; stroke-width: 1.5;" x1="1541" x2="1613" y1="38.4883" y2="38.4883"/><text fill="#000000" font-family="sans-serif" font-size="14" font-weight="bold" lengthAdjust="spacingAndGlyphs" textLength="59" x="1545" y="31.5352">Outputs</text><!--cluster SR2--><polygon fill="#FFFFFF" filter="url(#f10tobszqs92yr)" points="537,148.5,570,148.5,577,170.9883,2321,170.9883,2321,243.5,537,243.5,537,148.5" style="stroke: #000000; stroke-width: 1.5;"/><line style="stroke: #000000; stroke-width: 1.5;" x1="537" x2="577" y1="170.9883" y2="170.9883"/><text fill="#000000" font-family="sans-serif" font-size="14" font-weight="bold" lengthAdjust="spacingAndGlyphs" textLength="27" x="541" y="164.0352">SR2</text><!--entity PROD_PP--><rect fill="#FEFECE" filter="url(#f10tobszqs92yr)" height="39.4883" style="stroke: #000000; stroke-width: 1.5;" width="110" x="1311" y="43"/><polygon fill="#FEFECE" points="1404,48,1404,62,1416,62,1416,54,1410,48,1404,48" style="stroke: #000000; stroke-width: 1.5;"/><line style="stroke: #000000; stroke-width: 1.5;" x1="1410" x2="1410" y1="48" y2="54"/><line style="stroke: #000000; stroke-width: 1.5;" x1="1416" x2="1410" y1="54" y2="54"/><text fill="#000000" font-family="sans-serif" font-size="14" lengthAdjust="spacingAndGlyphs" textLength="80" x="1321" y="69.5352">Project Plan</text><!--entity PROD_SEMP--><rect fill="#FEFECE" filter="url(#f10tobszqs92yr)" height="39.4883" style="stroke: #000000; stroke-width: 1.5;" width="66" x="1210" y="43"/><polygon fill="#FEFECE" points="1259,48,1259,62,1271,62,1271,54,1265,48,1259,48" style="stroke: #000000; stroke-width: 1.5;"/><line style="stroke: #000000; stroke-width: 1.5;" x1="1265" x2="1265" y1="48" y2="54"/><line style="stroke: #000000; stroke-width: 1.5;" x1="1271" x2="1265" y1="54" y2="54"/><text fill="#000000" font-family="sans-serif" font-size="14" lengthAdjust="spacingAndGlyphs" textLength="36" x="1220" y="69.5352">SEMP</text><!--entity PROD_SOW_REVIEWED--><rect fill="#FEFECE" filter="url(#f10tobszqs92yr)" height="39.4883" style="stroke: #000000; stroke-width: 1.5;" width="134" x="1041" y="43"/><polygon fill="#FEFECE" points="1158,48,1158,62,1170,62,1170,54,1164,48,1158,48" style="stroke: #000000; stroke-width: 1.5;"/><line style="stroke: #000000; stroke-width: 1.5;" x1="1164" x2="1164" y1="48" y2="54"/><line style="stroke: #000000; stroke-width: 1.5;" x1="1170" x2="1164" y1="54" y2="54"/><text fill="#000000" font-family="sans-serif" font-size="14" lengthAdjust="spacingAndGlyphs" textLength="104" x="1051" y="69.5352">SoW (reviewed)</text><!--entity PROD_SDD--><rect fill="#FEFECE" filter="url(#f10tobszqs92yr)" height="39.4883" style="stroke: #000000; stroke-width: 1.5;" width="58" x="1456" y="43"/><polygon fill="#FEFECE" points="1497,48,1497,62,1509,62,1509,54,1503,48,1497,48" style="stroke: #000000; stroke-width: 1.5;"/><line style="stroke: #000000; stroke-width: 1.5;" x1="1503" x2="1503" y1="48" y2="54"/><line style="stroke: #000000; stroke-width: 1.5;" x1="1509" x2="1503" y1="54" y2="54"/><text fill="#000000" font-family="sans-serif" font-size="14" lengthAdjust="spacingAndGlyphs" textLength="28" x="1466" y="69.5352">SDD</text><!--entity PROD_STRS_VALIDATED--><rect fill="#FEFECE" filter="url(#f10tobszqs92yr)" height="39.4883" style="stroke: #000000; stroke-width: 1.5;" width="136" x="2368" y="43"/><polygon fill="#FEFECE" points="2487,48,2487,62,2499,62,2499,54,2493,48,2487,48" style="stroke: #000000; stroke-width: 1.5;"/><line style="stroke: #000000; stroke-width: 1.5;" x1="2493" x2="2493" y1="48" y2="54"/><line style="stroke: #000000; stroke-width: 1.5;" x1="2499" x2="2493" y1="54" y2="54"/><text fill="#000000" font-family="sans-serif" font-size="14" lengthAdjust="spacingAndGlyphs" textLength="106" x="2378" y="69.5352">StRS (validated)</text><!--entity PROD_SYSRS_VALIDATED--><rect fill="#FEFECE" filter="url(#f10tobszqs92yr)" height="39.4883" style="stroke: #000000; stroke-width: 1.5;" width="145" x="2539.5" y="43"/><polygon fill="#FEFECE" points="2667.5,48,2667.5,62,2679.5,62,2679.5,54,2673.5,48,2667.5,48" style="stroke: #000000; stroke-width: 1.5;"/><line style="stroke: #000000; stroke-width: 1.5;" x1="2673.5" x2="2673.5" y1="48" y2="54"/><line style="stroke: #000000; stroke-width: 1.5;" x1="2679.5" x2="2673.5" y1="54" y2="54"/><text fill="#000000" font-family="sans-serif" font-size="14" lengthAdjust="spacingAndGlyphs" textLength="115" x="2549.5" y="69.5352">SysRS (validated)</text><!--entity PROD_SERS_VALIDATED--><rect fill="#FEFECE" filter="url(#f10tobszqs92yr)" height="39.4883" style="stroke: #000000; stroke-width: 1.5;" width="139" x="2193.5" y="43"/><polygon fill="#FEFECE" points="2315.5,48,2315.5,62,2327.5,62,2327.5,54,2321.5,48,2315.5,48" style="stroke: #000000; stroke-width: 1.5;"/><line style="stroke: #000000; stroke-width: 1.5;" x1="2321.5" x2="2321.5" y1="48" y2="54"/><line style="stroke: #000000; stroke-width: 1.5;" x1="2327.5" x2="2321.5" y1="54" y2="54"/><text fill="#000000" font-family="sans-serif" font-size="14" lengthAdjust="spacingAndGlyphs" textLength="109" x="2203.5" y="69.5352">SERS (validated)</text><!--entity PROD_IVV_PLAN_PUBLISHED--><rect fill="#FEFECE" filter="url(#f10tobszqs92yr)" height="39.4883" style="stroke: #000000; stroke-width: 1.5;" width="167" x="1991.5" y="43"/><polygon fill="#FEFECE" points="2141.5,48,2141.5,62,2153.5,62,2153.5,54,2147.5,48,2141.5,48" style="stroke: #000000; stroke-width: 1.5;"/><line style="stroke: #000000; stroke-width: 1.5;" x1="2147.5" x2="2147.5" y1="48" y2="54"/><line style="stroke: #000000; stroke-width: 1.5;" x1="2153.5" x2="2147.5" y1="54" y2="54"/><text fill="#000000" font-family="sans-serif" font-size="14" lengthAdjust="spacingAndGlyphs" textLength="137" x="2001.5" y="69.5352">IVV Plan (published)</text><!--entity PROD_IVV_PROCEDURES_PUBLISHED--><rect fill="#FEFECE" filter="url(#f10tobszqs92yr)" height="39.4883" style="stroke: #000000; stroke-width: 1.5;" width="215" x="1741.5" y="43"/><polygon fill="#FEFECE" points="1939.5,48,1939.5,62,1951.5,62,1951.5,54,1945.5,48,1939.5,48" style="stroke: #000000; stroke-width: 1.5;"/><line style="stroke: #000000; stroke-width: 1.5;" x1="1945.5" x2="1945.5" y1="48" y2="54"/><line style="stroke: #000000; stroke-width: 1.5;" x1="1951.5" x2="1945.5" y1="54" y2="54"/><text fill="#000000" font-family="sans-serif" font-size="14" lengthAdjust="spacingAndGlyphs" textLength="185" x="1751.5" y="69.5352">IVV Procedures (published)</text><!--entity META_TRACE_MATRIX--><rect fill="#FEFECE" filter="url(#f10tobszqs92yr)" height="39.4883" style="stroke: #000000; stroke-width: 1.5;" width="157" x="1549.5" y="43"/><polygon fill="#FEFECE" points="1689.5,48,1689.5,62,1701.5,62,1701.5,54,1695.5,48,1689.5,48" style="stroke: #000000; stroke-width: 1.5;"/><line style="stroke: #000000; stroke-width: 1.5;" x1="1695.5" x2="1695.5" y1="48" y2="54"/><line style="stroke: #000000; stroke-width: 1.5;" x1="1701.5" x2="1695.5" y1="54" y2="54"/><text fill="#000000" font-family="sans-serif" font-size="14" lengthAdjust="spacingAndGlyphs" textLength="127" x="1559.5" y="69.5352">Traceability Matrix</text><ellipse cx="1290.8912" cy="205.4782" fill="#FEFECE" filter="url(#f10tobszqs92yr)" rx="80.3912" ry="18.4782" style="stroke: #A80036; stroke-width: 1.5;"/><text fill="#000000" font-family="sans-serif" font-size="14" lengthAdjust="spacingAndGlyphs" textLength="131" x="1225.3912" y="210.2224">Elicit Requirements</text><ellipse cx="600.1188" cy="205.659" fill="#FEFECE" filter="url(#f10tobszqs92yr)" rx="54.6188" ry="14.659" style="stroke: #A80036; stroke-width: 1.5;"/><text fill="#000000" font-family="sans-serif" font-size="14" lengthAdjust="spacingAndGlyphs" textLength="73" x="563.6188" y="210.4031">Verify StRS</text><ellipse cx="1470.158" cy="205.6316" fill="#FEFECE" filter="url(#f10tobszqs92yr)" rx="63.658" ry="15.1316" style="stroke: #A80036; stroke-width: 1.5;"/><text fill="#000000" font-family="sans-serif" font-size="14" lengthAdjust="spacingAndGlyphs" textLength="89" x="1425.658" y="210.3757">Validate StRS</text><ellipse cx="1683.8361" cy="205.4672" fill="#FEFECE" filter="url(#f10tobszqs92yr)" rx="115.3361" ry="25.4672" style="stroke: #A80036; stroke-width: 1.5;"/><text fill="#000000" font-family="sans-serif" font-size="14" lengthAdjust="spacingAndGlyphs" textLength="209" x="1579.3361" y="210.2114">Elaborate SysRS and Interfaces</text><ellipse cx="826.9977" cy="205.2995" fill="#FEFECE" filter="url(#f10tobszqs92yr)" rx="136.9977" ry="29.7995" style="stroke: #A80036; stroke-width: 1.5;"/><text fill="#000000" font-family="sans-serif" font-size="14" lengthAdjust="spacingAndGlyphs" textLength="255" x="699.4977" y="210.0437">Elaborate SERS and System Interfaces</text><ellipse cx="1087.1434" cy="205.5287" fill="#FEFECE" filter="url(#f10tobszqs92yr)" rx="88.1434" ry="20.0287" style="stroke: #A80036; stroke-width: 1.5;"/><text fill="#000000" font-family="sans-serif" font-size="14" lengthAdjust="spacingAndGlyphs" textLength="149" x="1012.6434" y="210.2728">Verify SysRS and SERS</text><ellipse cx="2246.0324" cy="205.3065" fill="#FEFECE" filter="url(#f10tobszqs92yr)" rx="67.0324" ry="15.8065" style="stroke: #A80036; stroke-width: 1.5;"/><text fill="#000000" font-family="sans-serif" font-size="14" lengthAdjust="spacingAndGlyphs" textLength="98" x="2197.0324" y="210.0506">Validate SysRS</text><ellipse cx="2062.8148" cy="205.563" fill="#FEFECE" filter="url(#f10tobszqs92yr)" rx="80.8148" ry="18.563" style="stroke: #A80036; stroke-width: 1.5;"/><text fill="#000000" font-family="sans-serif" font-size="14" lengthAdjust="spacingAndGlyphs" textLength="132" x="1996.8148" y="210.3071">Update Traceability</text><ellipse cx="1891.033" cy="205.659" fill="#FEFECE" filter="url(#f10tobszqs92yr)" rx="56.033" ry="14.659" style="stroke: #A80036; stroke-width: 1.5;"/><text fill="#000000" font-family="sans-serif" font-size="14" lengthAdjust="spacingAndGlyphs" textLength="75" x="1853.533" y="210.4031">Update IVV</text><!--entity SYS--><ellipse cx="21" cy="31" fill="#FEFECE" filter="url(#f10tobszqs92yr)" rx="8" ry="8" style="stroke: #A80036; stroke-width: 2.0;"/><path d="M21,39 L21,66 M8,47 L34,47 M21,66 L8,81 M21,66 L34,81 " fill="none" filter="url(#f10tobszqs92yr)" style="stroke: #A80036; stroke-width: 2.0;"/><text fill="#000000" font-family="sans-serif" font-size="14" lengthAdjust="spacingAndGlyphs" textLength="25" x="8.5" y="101.5352">SYS</text><!--entity ACQ--><ellipse cx="87" cy="31" fill="#FEFECE" filter="url(#f10tobszqs92yr)" rx="8" ry="8" style="stroke: #A80036; stroke-width: 2.0;"/><path d="M87,39 L87,66 M74,47 L100,47 M87,66 L74,81 M87,66 L100,81 " fill="none" filter="url(#f10tobszqs92yr)" style="stroke: #A80036; stroke-width: 2.0;"/><text fill="#000000" font-family="sans-serif" font-size="14" lengthAdjust="spacingAndGlyphs" textLength="31" x="71.5" y="101.5352">ACQ</text><!--entity STK--><ellipse cx="153" cy="31" fill="#FEFECE" filter="url(#f10tobszqs92yr)" rx="8" ry="8" style="stroke: #A80036; stroke-width: 2.0;"/><path d="M153,39 L153,66 M140,47 L166,47 M153,66 L140,81 M153,66 L166,81 " fill="none" filter="url(#f10tobszqs92yr)" style="stroke: #A80036; stroke-width: 2.0;"/><text fill="#000000" font-family="sans-serif" font-size="14" lengthAdjust="spacingAndGlyphs" textLength="26" x="140" y="101.5352">STK</text><!--entity PJM--><ellipse cx="21" cy="174" fill="#FEFECE" filter="url(#f10tobszqs92yr)" rx="8" ry="8" style="stroke: #A80036; stroke-width: 2.0;"/><path d="M21,182 L21,209 M8,190 L34,190 M21,209 L8,224 M21,209 L34,224 " fill="none" filter="url(#f10tobszqs92yr)" style="stroke: #A80036; stroke-width: 2.0;"/><text fill="#000000" font-family="sans-serif" font-size="14" lengthAdjust="spacingAndGlyphs" textLength="24" x="9" y="244.5352">PJM</text><!--entity WT--><ellipse cx="86" cy="174" fill="#FEFECE" filter="url(#f10tobszqs92yr)" rx="8" ry="8" style="stroke: #A80036; stroke-width: 2.0;"/><path d="M86,182 L86,209 M73,190 L99,190 M86,209 L73,224 M86,209 L99,224 " fill="none" filter="url(#f10tobszqs92yr)" style="stroke: #A80036; stroke-width: 2.0;"/><text fill="#000000" font-family="sans-serif" font-size="14" lengthAdjust="spacingAndGlyphs" textLength="21" x="75.5" y="244.5352">WT</text><!--entity DES--><ellipse cx="151" cy="174" fill="#FEFECE" filter="url(#f10tobszqs92yr)" rx="8" ry="8" style="stroke: #A80036; stroke-width: 2.0;"/><path d="M151,182 L151,209 M138,190 L164,190 M151,209 L138,224 M151,209 L164,224 " fill="none" filter="url(#f10tobszqs92yr)" style="stroke: #A80036; stroke-width: 2.0;"/><text fill="#000000" font-family="sans-serif" font-size="14" lengthAdjust="spacingAndGlyphs" textLength="26" x="138" y="244.5352">DES</text><!--entity PROD_SERS_INITIATED--><rect fill="#FEFECE" filter="url(#f10tobszqs92yr)" height="39.4883" style="stroke: #000000; stroke-width: 1.5;" width="133" x="203.5" y="43"/><polygon fill="#FEFECE" points="319.5,48,319.5,62,331.5,62,331.5,54,325.5,48,319.5,48" style="stroke: #000000; stroke-width: 1.5;"/><line style="stroke: #000000; stroke-width: 1.5;" x1="325.5" x2="325.5" y1="48" y2="54"/><line style="stroke: #000000; stroke-width: 1.5;" x1="331.5" x2="325.5" y1="54" y2="54"/><text fill="#000000" font-family="sans-serif" font-size="14" lengthAdjust="spacingAndGlyphs" textLength="103" x="213.5" y="69.5352">SERS (initiated)</text><!--entity PROD_STRS_INITIATED--><rect fill="#FEFECE" filter="url(#f10tobszqs92yr)" height="39.4883" style="stroke: #000000; stroke-width: 1.5;" width="130" x="372" y="43"/><polygon fill="#FEFECE" points="485,48,485,62,497,62,497,54,491,48,485,48" style="stroke: #000000; stroke-width: 1.5;"/><line style="stroke: #000000; stroke-width: 1.5;" x1="491" x2="491" y1="48" y2="54"/><line style="stroke: #000000; stroke-width: 1.5;" x1="497" x2="491" y1="54" y2="54"/><text fill="#000000" font-family="sans-serif" font-size="14" lengthAdjust="spacingAndGlyphs" textLength="100" x="382" y="69.5352">StRS (initiated)</text><!--entity PROD_STRS_VERIFIED--><rect fill="#FEFECE" filter="url(#f10tobszqs92yr)" height="39.4883" style="stroke: #000000; stroke-width: 1.5;" width="125" x="537.5" y="43"/><polygon fill="#FEFECE" points="645.5,48,645.5,62,657.5,62,657.5,54,651.5,48,645.5,48" style="stroke: #000000; stroke-width: 1.5;"/><line style="stroke: #000000; stroke-width: 1.5;" x1="651.5" x2="651.5" y1="48" y2="54"/><line style="stroke: #000000; stroke-width: 1.5;" x1="657.5" x2="651.5" y1="54" y2="54"/><text fill="#000000" font-family="sans-serif" font-size="14" lengthAdjust="spacingAndGlyphs" textLength="95" x="547.5" y="69.5352">StRS (verified)</text><!--entity PROD_SYSRS_INITIATED--><rect fill="#FEFECE" filter="url(#f10tobszqs92yr)" height="39.4883" style="stroke: #000000; stroke-width: 1.5;" width="139" x="697.5" y="43"/><polygon fill="#FEFECE" points="819.5,48,819.5,62,831.5,62,831.5,54,825.5,48,819.5,48" style="stroke: #000000; stroke-width: 1.5;"/><line style="stroke: #000000; stroke-width: 1.5;" x1="825.5" x2="825.5" y1="48" y2="54"/><line style="stroke: #000000; stroke-width: 1.5;" x1="831.5" x2="825.5" y1="54" y2="54"/><text fill="#000000" font-family="sans-serif" font-size="14" lengthAdjust="spacingAndGlyphs" textLength="109" x="707.5" y="69.5352">SysRS (initiated)</text><!--entity PROD_SYSRS_VERIFIED--><rect fill="#FEFECE" filter="url(#f10tobszqs92yr)" height="39.4883" style="stroke: #000000; stroke-width: 1.5;" width="134" x="872" y="43"/><polygon fill="#FEFECE" points="989,48,989,62,1001,62,1001,54,995,48,989,48" style="stroke: #000000; stroke-width: 1.5;"/><line style="stroke: #000000; stroke-width: 1.5;" x1="995" x2="995" y1="48" y2="54"/><line style="stroke: #000000; stroke-width: 1.5;" x1="1001" x2="995" y1="54" y2="54"/><text fill="#000000" font-family="sans-serif" font-size="14" lengthAdjust="spacingAndGlyphs" textLength="104" x="882" y="69.5352">SysRS (verified)</text><!--entity META_CR--><rect fill="#FEFECE" filter="url(#f10tobszqs92yr)" height="39.4883" style="stroke: #000000; stroke-width: 1.5;" width="49" x="1062.5" y="307"/><polygon fill="#FEFECE" points="1094.5,312,1094.5,326,1106.5,326,1106.5,318,1100.5,312,1094.5,312" style="stroke: #000000; stroke-width: 1.5;"/><line style="stroke: #000000; stroke-width: 1.5;" x1="1100.5" x2="1100.5" y1="312" y2="318"/><line style="stroke: #000000; stroke-width: 1.5;" x1="1106.5" x2="1100.5" y1="318" y2="318"/><text fill="#000000" font-family="sans-serif" font-size="14" lengthAdjust="spacingAndGlyphs" textLength="19" x="1072.5" y="333.5352">CR</text><!--link PROD_PP to SR2_1--><path d="M1355.7288,82.0837 C1342.0002,108.2596 1317.7079,154.577 1303.1054,182.419 " fill="none" id="PROD_PP-SR2_1" style="stroke: #A80036; stroke-width: 2.0;"/><polygon fill="#A80036" points="1300.6723,187.0581,1308.395,180.9459,1302.9947,182.6302,1301.3104,177.2299,1300.6723,187.0581" style="stroke: #A80036; stroke-width: 1.0;"/><!--link PROD_SOW_REVIEWED to SR2_1--><path d="M1133.0617,82.0837 C1167.3954,108.9128 1228.8069,156.9011 1264.0851,184.4681 " fill="none" id="PROD_SOW_REVIEWED-SR2_1" style="stroke: #A80036; stroke-width: 2.0;"/><polygon fill="#A80036" points="1268.2541,187.7259,1263.6254,179.0325,1264.3143,184.6472,1258.6996,185.3361,1268.2541,187.7259" style="stroke: #A80036; stroke-width: 1.0;"/><!--link PROD_SEMP to SR2_1--><path d="M1249.5735,82.0837 C1258.2752,108.0075 1273.608,153.6864 1282.9807,181.6092 " fill="none" id="PROD_SEMP-SR2_1" style="stroke: #A80036; stroke-width: 2.0;"/><polygon fill="#A80036" points="1284.6585,186.6075,1285.5865,176.8025,1283.0674,181.8674,1278.0024,179.3483,1284.6585,186.6075" style="stroke: #A80036; stroke-width: 1.0;"/><!--link SR2_1 to PROD_STRS_INITIATED--><path d="M1267.4906,187.6213 C1248.4935,174.253 1220.4832,156.8937 1193,148.5 C906.3085,60.9408 809.3131,182.4638 520,104 C504.0746,99.6809 487.6065,92.175 473.5792,84.7236 " fill="none" id="SR2_1-PROD_STRS_INITIATED" style="stroke: #A80036; stroke-width: 2.0;"/><polygon fill="#A80036" points="468.92,82.2034,474.9328,90.0038,473.3178,84.5824,478.7392,82.9673,468.92,82.2034" style="stroke: #A80036; stroke-width: 1.0;"/><!--link PROD_STRS_INITIATED to SR2_2--><path d="M459.3227,82.0837 C491.1983,110.0482 549.2771,161.0008 579.8874,187.8552 " fill="none" id="PROD_STRS_INITIATED-SR2_2" style="stroke: #A80036; stroke-width: 2.0;"/><polygon fill="#A80036" points="583.8395,191.3224,579.7122,182.3801,580.081,188.0249,574.4362,188.3937,583.8395,191.3224" style="stroke: #A80036; stroke-width: 1.0;"/><!--link SR2_2 to PROD_STRS_VERIFIED--><path d="M600,190.9163 C600,166.5697 600,117.3714 600,87.4383 " fill="none" id="SR2_2-PROD_STRS_VERIFIED" style="stroke: #A80036; stroke-width: 2.0;"/><polygon fill="#A80036" points="600,82.0837,596,91.0837,600,87.0837,604,91.0837,600,82.0837" style="stroke: #A80036; stroke-width: 1.0;"/><!--link PROD_STRS_VERIFIED to SR2_3--><path d="M630.2933,82.0228 C644.7566,90.3269 662.6614,99.19 680,104 C984.2412,188.4006 1091.1272,43.8197 1389,148.5 C1412.6295,156.804 1435.5919,174.111 1450.9968,187.4879 " fill="none" id="PROD_STRS_VERIFIED-SR2_3" style="stroke: #A80036; stroke-width: 2.0;"/><polygon fill="#A80036" points="1454.7463,190.7962,1450.644,181.8424,1450.997,187.4882,1445.3512,187.8412,1454.7463,190.7962" style="stroke: #A80036; stroke-width: 1.0;"/><!--link SR2_3 to PROD_STRS_VALIDATED--><path d="M1485.2398,190.7565 C1500.4968,177.0399 1525.3364,157.4174 1551,148.5 C1886.9578,31.7636 2005.6267,192.8936 2350,104 C2366.7291,99.6817 2384.0903,92.0014 2398.7964,84.4122 " fill="none" id="SR2_3-PROD_STRS_VALIDATED" style="stroke: #A80036; stroke-width: 2.0;"/><polygon fill="#A80036" points="2403.2715,82.0637,2393.4435,82.7043,2398.8442,84.3873,2397.1612,89.788,2403.2715,82.0637" style="stroke: #A80036; stroke-width: 1.0;"/><!--link PROD_STRS_VALIDATED to SR2_4--><path d="M2402.8019,82.0462 C2387.2799,90.2484 2368.2317,99.0224 2350,104 C2121.1073,166.4923 2048.3096,91.4507 1818,148.5 C1789.123,155.653 1758.4799,168.274 1733.7961,179.8245 " fill="none" id="PROD_STRS_VALIDATED-SR2_4" style="stroke: #A80036; stroke-width: 2.0;"/><polygon fill="#A80036" points="1729.2582,181.9672,1739.1045,181.7412,1733.7795,179.8322,1735.6885,174.5072,1729.2582,181.9672" style="stroke: #A80036; stroke-width: 1.0;"/><!--link SR2_4 to PROD_SYSRS_INITIATED--><path d="M1639.4583,181.873 C1614.2283,169.6634 1581.6655,155.8217 1551,148.5 C1249.5093,76.5165 1155.1551,181.3641 855,104 C838.1013,99.6444 820.51,92.0455 805.5373,84.5304 " fill="none" id="SR2_4-PROD_SYSRS_INITIATED" style="stroke: #A80036; stroke-width: 2.0;"/><polygon fill="#A80036" points="800.9783,82.2045,807.1774,89.8577,805.4321,84.4768,810.813,82.7315,800.9783,82.2045" style="stroke: #A80036; stroke-width: 1.0;"/><!--link PROD_SYSRS_INITIATED to SR2_5--><path d="M775.2169,82.0837 C784.7739,104.8611 800.7298,142.8893 812.4089,170.7246 " fill="none" id="PROD_SYSRS_INITIATED-SR2_5" style="stroke: #A80036; stroke-width: 2.0;"/><polygon fill="#A80036" points="814.3909,175.4483,814.5971,165.6016,812.4563,170.8377,807.2202,168.6969,814.3909,175.4483" style="stroke: #A80036; stroke-width: 1.0;"/><!--link PROD_SDD to SR2_5--><path d="M1464.0476,85.5549 C1456.2752,92.6698 1446.9184,99.7457 1437,104 C1250.266,184.0961 1180.0682,103.1791 982,148.5 C952.3994,155.273 920.7622,166.1976 893.8396,176.6795 " fill="none" id="PROD_SDD-SR2_5" style="stroke: #A80036; stroke-width: 2.0;"/><polygon fill="#A80036" points="888.869,178.6305,898.7082,179.0656,893.5233,176.8036,895.7853,171.6187,888.869,178.6305" style="stroke: #A80036; stroke-width: 1.0;"/><polygon fill="#A80036" points="1467.7314,82.0712,1458.4439,85.3487,1464.0985,85.5066,1463.9406,91.1613,1467.7314,82.0712" style="stroke: #A80036; stroke-width: 1.0;"/><!--link SR2_5 to PROD_SERS_INITIATED--><path d="M763.8601,178.8129 C736.1081,167.9934 702.8679,156.2482 672,148.5 C534.0104,113.8631 491.0486,145.6126 355,104 C339.1981,99.1668 322.686,91.7213 308.4635,84.4639 " fill="none" id="SR2_5-PROD_SERS_INITIATED" style="stroke: #A80036; stroke-width: 2.0;"/><polygon fill="#A80036" points="303.7322,82.0139,309.885,89.7043,308.1723,84.313,313.5636,82.6002,303.7322,82.0139" style="stroke: #A80036; stroke-width: 1.0;"/><!--link PROD_SYSRS_INITIATED to SR2_6--><path d="M806.475,82.1837 C821.5107,89.3977 838.9006,97.404 855,104 C910.3443,126.6748 927.3205,124.2661 982,148.5 C1005.6238,158.97 1031.1206,172.7482 1051.0731,184.1354 " fill="none" id="PROD_SYSRS_INITIATED-SR2_6" style="stroke: #A80036; stroke-width: 2.0;"/><polygon fill="#A80036" points="1055.5017,186.6756,1049.6848,178.728,1051.1645,184.1879,1045.7046,185.6676,1055.5017,186.6756" style="stroke: #A80036; stroke-width: 1.0;"/><!--link PROD_SERS_INITIATED to SR2_6--><path d="M302.7568,82.1562 C318.0873,90.3806 336.9205,99.1416 355,104 C624.796,176.5009 713.8309,70.1955 982,148.5 C1008.0999,156.1211 1035.0017,170.8827 1055.0407,183.474 " fill="none" id="PROD_SERS_INITIATED-SR2_6" style="stroke: #A80036; stroke-width: 2.0;"/><polygon fill="#A80036" points="1059.4663,186.2896,1054.0201,178.0836,1055.2477,183.6056,1049.7257,184.8333,1059.4663,186.2896" style="stroke: #A80036; stroke-width: 1.0;"/><!--link SR2_6 to PROD_SYSRS_VERIFIED--><path d="M1066.5014,185.6939 C1039.412,159.5197 991.7713,113.4884 963.0229,85.7113 " fill="none" id="SR2_6-PROD_SYSRS_VERIFIED" style="stroke: #A80036; stroke-width: 2.0;"/><polygon fill="#A80036" points="959.2684,82.0837,962.9613,91.214,962.8641,85.558,968.5201,85.4609,959.2684,82.0837" style="stroke: #A80036; stroke-width: 1.0;"/><!--link SR2_6 to PROD_SERS_VALIDATED--><path d="M1114.3243,186.3535 C1134.9133,173.0685 1164.399,156.3943 1193,148.5 C1614.5726,32.1401 1751.7411,210.148 2176,104 C2192.919,99.7669 2210.4813,92.1025 2225.359,84.5021 " fill="none" id="SR2_6-PROD_SERS_VALIDATED" style="stroke: #A80036; stroke-width: 2.0;"/><polygon fill="#A80036" points="2229.8864,82.1493,2220.0559,82.7502,2225.4498,84.455,2223.745,89.8488,2229.8864,82.1493" style="stroke: #A80036; stroke-width: 1.0;"/><!--link SR2_6 to META_CR--><path d="M1087,225.7527 C1087,246.68 1087,279.3656 1087,301.7976 " fill="none" id="SR2_6-META_CR" style="stroke: #A80036; stroke-width: 2.0;"/><polygon fill="#A80036" points="1087,306.9837,1091,297.9837,1087,301.9837,1083,297.9837,1087,306.9837" style="stroke: #A80036; stroke-width: 1.0;"/><!--link PROD_SYSRS_VERIFIED to SR2_7--><path d="M971.6932,82.2026 C987.2683,90.5446 1006.5016,99.3876 1025,104 C1270.3484,165.1752 1921.7907,69.5209 2162,148.5 C2185.923,156.3657 2209.3101,173.209 2225.3064,186.5574 " fill="none" id="PROD_SYSRS_VERIFIED-SR2_7" style="stroke: #A80036; stroke-width: 2.0;"/><polygon fill="#A80036" points="2229.2099,189.8681,2224.9337,180.996,2225.3968,186.6339,2219.7589,187.0969,2229.2099,189.8681" style="stroke: #A80036; stroke-width: 1.0;"/><!--link PROD_STRS_VALIDATED to SR2_7--><path d="M2409.9797,82.0837 C2373.2583,109.7214 2306.7034,159.8127 2270.7084,186.9037 " fill="none" id="PROD_STRS_VALIDATED-SR2_7" style="stroke: #A80036; stroke-width: 2.0;"/><polygon fill="#A80036" points="2266.4743,190.0904,2276.0706,187.8743,2270.4693,187.0837,2271.2599,181.4824,2266.4743,190.0904" style="stroke: #A80036; stroke-width: 1.0;"/><!--link SR2_7 to PROD_SYSRS_VALIDATED--><path d="M2284.7726,192.3365 C2338.523,173.8404 2438.4966,138.5423 2522,104 C2536.5704,97.9728 2552.2421,90.9427 2566.3596,84.4002 " fill="none" id="SR2_7-PROD_SYSRS_VALIDATED" style="stroke: #A80036; stroke-width: 2.0;"/><polygon fill="#A80036" points="2571.0838,82.2023,2561.2364,82.3723,2566.5505,84.3115,2564.6112,89.6256,2571.0838,82.2023" style="stroke: #A80036; stroke-width: 1.0;"/><!--link PROD_STRS_VALIDATED to SR2_8--><path d="M2399.9225,82.0697 C2384.8159,89.6904 2366.8733,98.0121 2350,104 C2269.0799,132.7165 2241.8213,116.8575 2162,148.5 C2137.6604,158.1486 2112.0967,173.0041 2093.0441,185.1303 " fill="none" id="PROD_STRS_VALIDATED-SR2_8" style="stroke: #A80036; stroke-width: 2.0;"/><polygon fill="#A80036" points="2088.8363,187.8313,2098.5709,186.3354,2093.0439,185.1302,2094.2492,179.6032,2088.8363,187.8313" style="stroke: #A80036; stroke-width: 1.0;"/><!--link PROD_SYSRS_VALIDATED to SR2_8--><path d="M2576.1988,82.1088 C2560.0768,90.117 2540.5335,98.7203 2522,104 C2366.9509,148.1693 2314.8963,97.374 2162,148.5 C2136.6445,156.9785 2110.541,172.3331 2091.508,184.9712 " fill="none" id="PROD_SYSRS_VALIDATED-SR2_8" style="stroke: #A80036; stroke-width: 2.0;"/><polygon fill="#A80036" points="2087.3143,187.7879,2097.0157,186.0902,2091.4649,185,2092.5551,179.4492,2087.3143,187.7879" style="stroke: #A80036; stroke-width: 1.0;"/><!--link PROD_SERS_VALIDATED to SR2_8--><path d="M2235.6102,82.0837 C2197.9344,109.0219 2130.4244,157.2916 2091.9465,184.8033 " fill="none" id="PROD_SERS_VALIDATED-SR2_8" style="stroke: #A80036; stroke-width: 2.0;"/><polygon fill="#A80036" points="2087.8589,187.7259,2097.5065,185.7451,2091.9262,184.8178,2092.8535,179.2374,2087.8589,187.7259" style="stroke: #A80036; stroke-width: 1.0;"/><!--link SR2_8 to META_TRACE_MATRIX--><path d="M2038.0016,187.7007 C2018.8795,174.9153 1991.3939,158.2753 1965,148.5 C1862.8584,110.6707 1828.2067,135.7003 1724,104 C1706.8404,98.78 1688.6298,91.4094 1672.7342,84.3251 " fill="none" id="SR2_8-META_TRACE_MATRIX" style="stroke: #A80036; stroke-width: 2.0;"/><polygon fill="#A80036" points="1667.8791,82.1385,1674.4425,89.4816,1672.438,84.1918,1677.7278,82.1873,1667.8791,82.1385" style="stroke: #A80036; stroke-width: 1.0;"/><!--link PROD_SYSRS_VALIDATED to SR2_9--><path d="M2577.1624,82.0582 C2560.8991,90.2627 2540.9763,99.0353 2522,104 C2281.7421,166.8574 2196.7142,59.1498 1965,148.5 C1942.8714,157.0329 1921.875,174.4195 1907.9393,187.7588 " fill="none" id="PROD_SYSRS_VALIDATED-SR2_9" style="stroke: #A80036; stroke-width: 2.0;"/><polygon fill="#A80036" points="1904.2009,191.4031,1913.4375,187.9849,1907.7811,187.9129,1907.8531,182.2565,1904.2009,191.4031" style="stroke: #A80036; stroke-width: 1.0;"/><!--link PROD_SERS_VALIDATED to SR2_9--><path d="M2226.9759,82.0496 C2211.614,89.7583 2193.2772,98.1502 2176,104 C2085.2217,134.7364 2052.0317,108.3638 1965,148.5 C1943.8669,158.2459 1923.173,174.9772 1909.0669,187.7996 " fill="none" id="PROD_SERS_VALIDATED-SR2_9" style="stroke: #A80036; stroke-width: 2.0;"/><polygon fill="#A80036" points="1905.268,191.3035,1914.5955,188.1417,1908.9433,187.9135,1909.1715,182.2612,1905.268,191.3035" style="stroke: #A80036; stroke-width: 1.0;"/><!--link PROD_STRS_VALIDATED to SR2_9--><path d="M2401.9062,82.2102 C2386.5222,90.2372 2367.8323,98.8271 2350,104 C2184.5695,151.9888 2124.5953,83.6963 1965,148.5 C1943.163,157.3669 1922.27,174.5374 1908.2873,187.7253 " fill="none" id="PROD_STRS_VALIDATED-SR2_9" style="stroke: #A80036; stroke-width: 2.0;"/><polygon fill="#A80036" points="1904.5317,191.3292,1913.795,187.9838,1908.1393,187.8673,1908.2559,182.2116,1904.5317,191.3292" style="stroke: #A80036; stroke-width: 1.0;"/><!--link SR2_9 to PROD_IVV_PLAN_PUBLISHED--><path d="M1908.7262,191.7237 C1940.4233,167.0895 2007.1011,115.2692 2045.6973,85.2733 " fill="none" id="SR2_9-PROD_IVV_PLAN_PUBLISHED" style="stroke: #A80036; stroke-width: 2.0;"/><polygon fill="#A80036" points="2049.8014,82.0837,2040.2406,84.4481,2045.8535,85.1519,2045.1497,90.7648,2049.8014,82.0837" style="stroke: #A80036; stroke-width: 1.0;"/><!--link SR2_9 to PROD_IVV_PROCEDURES_PUBLISHED--><path d="M1886.7167,190.9163 C1879.5363,166.4687 1864.996,116.9626 1856.2154,87.0667 " fill="none" id="SR2_9-PROD_IVV_PROCEDURES_PUBLISHED" style="stroke: #A80036; stroke-width: 2.0;"/><polygon fill="#A80036" points="1854.7519,82.0837,1853.4503,91.8462,1856.1609,86.8811,1861.126,89.5917,1854.7519,82.0837" style="stroke: #A80036; stroke-width: 1.0;"/><!--link SYS to ACQ--><!--link ACQ to STK--><!--link SYS to PJM--><!--link PJM to WT--><!--link WT to DES--><!--
@startuml

actor SYS
actor ACQ
actor STK
actor PJM
actor WT
actor DES

package "Inputs" {
artifact "Project Plan" as PROD_PP
artifact "SEMP" as PROD_SEMP
artifact "SoW (reviewed)" as PROD_SOW_REVIEWED
}
package "Peers" {
artifact "SDD" as PROD_SDD
}

artifact "SERS (initiated)" as PROD_SERS_INITIATED
artifact "StRS (initiated)" as PROD_STRS_INITIATED
artifact "StRS (verified)" as PROD_STRS_VERIFIED
artifact "SysRS (initiated)" as PROD_SYSRS_INITIATED
artifact "SysRS (verified)" as PROD_SYSRS_VERIFIED
artifact "CR" as META_CR

package "Outputs" {
artifact "StRS (validated)" as PROD_STRS_VALIDATED
artifact "SysRS (validated)" as PROD_SYSRS_VALIDATED
artifact "SERS (validated)" as PROD_SERS_VALIDATED
artifact "IVV Plan (published)" as PROD_IVV_PLAN_PUBLISHED
artifact "IVV Procedures (published)" as PROD_IVV_PROCEDURES_PUBLISHED
artifact "Traceability Matrix" as META_TRACE_MATRIX
}

package SR2 {
usecase "Elicit Requirements" as SR2_1
usecase "Verify StRS" as SR2_2
usecase "Validate StRS" as SR2_3
usecase "Elaborate SysRS and Interfaces" as SR2_4
usecase "Elaborate SERS and System Interfaces" as SR2_5
usecase "Verify SysRS and SERS" as SR2_6
usecase "Validate SysRS" as SR2_7
usecase "Update Traceability" as SR2_8
usecase "Update IVV" as SR2_9
}

PROD_PP ==> SR2_1
PROD_SOW_REVIEWED ==> SR2_1
PROD_SEMP ==> SR2_1
SR2_1 ==> PROD_STRS_INITIATED

PROD_STRS_INITIATED ==> SR2_2
SR2_2 ==> PROD_STRS_VERIFIED

PROD_STRS_VERIFIED ==> SR2_3
SR2_3 ==> PROD_STRS_VALIDATED

PROD_STRS_VALIDATED ==> SR2_4
SR2_4 ==> PROD_SYSRS_INITIATED

PROD_SYSRS_INITIATED ==> SR2_5
PROD_SDD <==> SR2_5
SR2_5 ==> PROD_SERS_INITIATED

PROD_SYSRS_INITIATED ==> SR2_6
PROD_SERS_INITIATED ==> SR2_6
SR2_6 ==> PROD_SYSRS_VERIFIED
SR2_6 ==> PROD_SERS_VALIDATED
SR2_6 ==> META_CR

PROD_SYSRS_VERIFIED ==> SR2_7
PROD_STRS_VALIDATED ==> SR2_7
SR2_7 ==> PROD_SYSRS_VALIDATED

PROD_STRS_VALIDATED ==> SR2_8
PROD_SYSRS_VALIDATED ==> SR2_8
PROD_SERS_VALIDATED ==> SR2_8
SR2_8 ==> META_TRACE_MATRIX

PROD_SYSRS_VALIDATED ==> SR2_9
PROD_SERS_VALIDATED ==> SR2_9
PROD_STRS_VALIDATED ==> SR2_9
SR2_9 ==> PROD_IVV_PLAN_PUBLISHED
SR2_9 ==> PROD_IVV_PROCEDURES_PUBLISHED

@enduml

PlantUML version 1.2019.00(Sun Jan 13 07:46:42 PST 2019)
(GPL source distribution)
Java Runtime: Java(TM) SE Runtime Environment
JVM: Java HotSpot(TM) 64-Bit Server VM
Java Version: 10.0.1+10
Operating System: Mac OS X
OS Version: 10.14.3
Default Encoding: UTF-8
Language: en
Country: US
--></g></svg>