<svg xmlns="http://www.w3.org/2000/svg" height="1043" preserveAspectRatio="none" style="width:1174px;height:1043px" width="1174"><defs><filter height="300%" id="a" width="300%" x="-1" y="-1"><feGaussianBlur result="blurOut" stdDeviation="2"/><feColorMatrix in="blurOut" result="blurOut2" values="0 0 0 0 0 0 0 0 0 0 0 0 0 0 0 0 0 0 .4 0"/><feOffset dx="4" dy="4" in="blurOut2" result="blurOut3"/><feBlend in="SourceGraphic" in2="blurOut3"/></filter></defs><path fill="#FFF" filter="url(#a)" stroke="#000" stroke-width="1.5" d="M615 754h158v88H615z"/><path fill="#FFF" stroke="#000" stroke-width="1.5" d="M756 759v14h12v-8l-6-6h-6z"/><path stroke="#000" stroke-width="1.5" d="M762 759v6M768 765h-6"/><text font-family="Futura" font-size="14" font-weight="bold" lengthAdjust="spacingAndGlyphs" textLength="36" x="676" y="770.966">SERS</text><path fill="#FFF" filter="url(#a)" stroke="#000" stroke-width="1.5" d="M489 288.5h240v88H489z"/><path fill="#FFF" stroke="#000" stroke-width="1.5" d="M712 293.5v14h12v-8l-6-6h-6z"/><path stroke="#000" stroke-width="1.5" d="M718 293.5v6M724 299.5h-6"/><text font-family="Futura" font-size="14" font-weight="bold" lengthAdjust="spacingAndGlyphs" textLength="33" x="592.5" y="305.466">StRS</text><path fill="#FFF" filter="url(#a)" stroke="#000" stroke-width="1.5" d="M528 526h240v88H528z"/><path fill="#FFF" stroke="#000" stroke-width="1.5" d="M751 531v14h12v-8l-6-6h-6z"/><path stroke="#000" stroke-width="1.5" d="M757 531v6M763 537h-6"/><text font-family="Futura" font-size="14" font-weight="bold" lengthAdjust="spacingAndGlyphs" textLength="45" x="625.5" y="542.966">SysRS</text><circle cx="740" cy="799" fill="#FEFECE" filter="url(#a)" stroke="#a80036" stroke-width="2" r="12"/><path fill="#A80036" stroke="#a80036" d="M736 787l6-5-2 5 2 5-6-5z"/><text font-family="Futura" font-size="14" lengthAdjust="spacingAndGlyphs" textLength="49" x="715.5" y="829.957">initiated</text><circle cx="652" cy="799" fill="#FEFECE" filter="url(#a)" stroke="#a80036" stroke-width="2" r="12"/><path fill="#A80036" stroke="#a80036" d="M648 787l6-5-2 5 2 5-6-5z"/><text font-family="Futura" font-size="14" lengthAdjust="spacingAndGlyphs" textLength="57" x="623.5" y="829.957">validated</text><circle cx="522" cy="333.5" fill="#FEFECE" filter="url(#a)" stroke="#a80036" stroke-width="2" r="12"/><path fill="#A80036" stroke="#a80036" d="M518 321.5l6-5-2 5 2 5-6-5z"/><text font-family="Futura" font-size="14" lengthAdjust="spacingAndGlyphs" textLength="49" x="497.5" y="364.457">initiated</text><circle cx="605" cy="333.5" fill="#FEFECE" filter="url(#a)" stroke="#a80036" stroke-width="2" r="12"/><path fill="#A80036" stroke="#a80036" d="M601 321.5l6-5-2 5 2 5-6-5z"/><text font-family="Futura" font-size="14" lengthAdjust="spacingAndGlyphs" textLength="46" x="582" y="364.457">verified</text><circle cx="692" cy="333.5" fill="#FEFECE" filter="url(#a)" stroke="#a80036" stroke-width="2" r="12"/><path fill="#A80036" stroke="#a80036" d="M688 321.5l6-5-2 5 2 5-6-5z"/><text font-family="Futura" font-size="14" lengthAdjust="spacingAndGlyphs" textLength="57" x="663.5" y="364.457">validated</text><circle cx="735" cy="571" fill="#FEFECE" filter="url(#a)" stroke="#a80036" stroke-width="2" r="12"/><path fill="#A80036" stroke="#a80036" d="M731 559l6-5-2 5 2 5-6-5z"/><text font-family="Futura" font-size="14" lengthAdjust="spacingAndGlyphs" textLength="49" x="710.5" y="601.957">initiated</text><circle cx="652" cy="571" fill="#FEFECE" filter="url(#a)" stroke="#a80036" stroke-width="2" r="12"/><path fill="#A80036" stroke="#a80036" d="M648 559l6-5-2 5 2 5-6-5z"/><text font-family="Futura" font-size="14" lengthAdjust="spacingAndGlyphs" textLength="46" x="629" y="601.957">verified</text><circle cx="565" cy="571" fill="#FEFECE" filter="url(#a)" stroke="#a80036" stroke-width="2" r="12"/><path fill="#A80036" stroke="#a80036" d="M561 559l6-5-2 5 2 5-6-5z"/><text font-family="Futura" font-size="14" lengthAdjust="spacingAndGlyphs" textLength="57" x="536.5" y="601.957">validated</text><circle cx="21" cy="18" fill="#FEFECE" filter="url(#a)" stroke="#a80036" stroke-width="2" r="8"/><path d="M21 26v27M8 34h26M21 53L8 68m13-15l13 15" fill="none" filter="url(#a)" stroke="#a80036" stroke-width="2"/><text font-family="Futura" font-size="14" lengthAdjust="spacingAndGlyphs" textLength="24" x="9" y="89.957">SYS</text><circle cx="88" cy="18" fill="#FEFECE" filter="url(#a)" stroke="#a80036" stroke-width="2" r="8"/><path d="M88 26v27M75 34h26M88 53L75 68m13-15l13 15" fill="none" filter="url(#a)" stroke="#a80036" stroke-width="2"/><text font-family="Futura" font-size="14" lengthAdjust="spacingAndGlyphs" textLength="33" x="71.5" y="89.957">ACQ</text><circle cx="155" cy="18" fill="#FEFECE" filter="url(#a)" stroke="#a80036" stroke-width="2" r="8"/><path d="M155 26v27m-13-19h26m-13 19l-13 15m13-15l13 15" fill="none" filter="url(#a)" stroke="#a80036" stroke-width="2"/><text font-family="Futura" font-size="14" lengthAdjust="spacingAndGlyphs" textLength="24" x="143" y="89.957">STK</text><circle cx="21" cy="164" fill="#FEFECE" filter="url(#a)" stroke="#a80036" stroke-width="2" r="8"/><path d="M21 172v27M8 180h26m-13 19L8 214m13-15l13 15" fill="none" filter="url(#a)" stroke="#a80036" stroke-width="2"/><text font-family="Futura" font-size="14" lengthAdjust="spacingAndGlyphs" textLength="27" x="7.5" y="235.957">PJM</text><circle cx="86" cy="164" fill="#FEFECE" filter="url(#a)" stroke="#a80036" stroke-width="2" r="8"/><path d="M86 172v27m-13-19h26m-13 19l-13 15m13-15l13 15" fill="none" filter="url(#a)" stroke="#a80036" stroke-width="2"/><text font-family="Futura" font-size="14" lengthAdjust="spacingAndGlyphs" textLength="22" x="75" y="235.957">WT</text><circle cx="151" cy="164" fill="#FEFECE" filter="url(#a)" stroke="#a80036" stroke-width="2" r="8"/><path d="M151 172v27m-13-19h26m-13 19l-13 15m13-15l13 15" fill="none" filter="url(#a)" stroke="#a80036" stroke-width="2"/><text font-family="Futura" font-size="14" lengthAdjust="spacingAndGlyphs" textLength="26" x="138" y="235.957">DES</text><circle cx="21" cy="310" fill="#FEFECE" filter="url(#a)" stroke="#a80036" stroke-width="2" r="8"/><path d="M21 318v27M8 326h26m-13 19L8 360m13-15l13 15" fill="none" filter="url(#a)" stroke="#a80036" stroke-width="2"/><text font-family="Futura" font-size="14" lengthAdjust="spacingAndGlyphs" textLength="22" x="10" y="381.957">IVV</text><path fill="#FEFECE" filter="url(#a)" stroke="#000" stroke-width="1.5" d="M205 30h104v41.594H205z"/><path fill="#FEFECE" stroke="#000" stroke-width="1.5" d="M292 35v14h12v-8l-6-6h-6z"/><path stroke="#000" stroke-width="1.5" d="M298 35v6M304 41h-6"/><text font-family="Futura" font-size="14" lengthAdjust="spacingAndGlyphs" textLength="74" x="215" y="57.957">Project Plan</text><path fill="#FEFECE" filter="url(#a)" stroke="#000" stroke-width="1.5" d="M344.5 30h67v41.594h-67z"/><path fill="#FEFECE" stroke="#000" stroke-width="1.5" d="M394.5 35v14h12v-8l-6-6h-6z"/><path stroke="#000" stroke-width="1.5" d="M400.5 35v6M406.5 41h-6"/><text font-family="Futura" font-size="14" lengthAdjust="spacingAndGlyphs" textLength="37" x="354.5" y="57.957">SEMP</text><path fill="#FEFECE" filter="url(#a)" stroke="#000" stroke-width="1.5" d="M446.5 30h133v41.594h-133z"/><path fill="#FEFECE" stroke="#000" stroke-width="1.5" d="M562.5 35v14h12v-8l-6-6h-6z"/><path stroke="#000" stroke-width="1.5" d="M568.5 35v6M574.5 41h-6"/><text font-family="Futura" font-size="14" lengthAdjust="spacingAndGlyphs" textLength="103" x="456.5" y="57.957">SoW (reviewed)</text><path fill="#FEFECE" filter="url(#a)" stroke="#000" stroke-width="1.5" d="M949 559.5h58v41.594h-58z"/><path fill="#FEFECE" stroke="#000" stroke-width="1.5" d="M990 564.5v14h12v-8l-6-6h-6z"/><path stroke="#000" stroke-width="1.5" d="M996 564.5v6M1002 570.5h-6"/><text font-family="Futura" font-size="14" lengthAdjust="spacingAndGlyphs" textLength="28" x="959" y="587.457">SDD</text><path fill="#FEFECE" filter="url(#a)" stroke="#000" stroke-width="1.5" d="M667.5 991h157v41.594h-157z"/><path fill="#FEFECE" stroke="#000" stroke-width="1.5" d="M807.5 996v14h12v-8l-6-6h-6z"/><path stroke="#000" stroke-width="1.5" d="M813.5 996v6M819.5 1002h-6"/><text font-family="Futura" font-size="14" lengthAdjust="spacingAndGlyphs" textLength="127" x="677.5" y="1018.957">IVV Plan (published)</text><path fill="#FEFECE" filter="url(#a)" stroke="#000" stroke-width="1.5" d="M859.5 991h201v41.594h-201z"/><path fill="#FEFECE" stroke="#000" stroke-width="1.5" d="M1043.5 996v14h12v-8l-6-6h-6z"/><path stroke="#000" stroke-width="1.5" d="M1049.5 996v6M1055.5 1002h-6"/><text font-family="Futura" font-size="14" lengthAdjust="spacingAndGlyphs" textLength="171" x="869.5" y="1018.957">IVV Procedures (published)</text><path fill="#FEFECE" filter="url(#a)" stroke="#000" stroke-width="1.5" d="M413.5 991h147v41.594h-147z"/><path fill="#FEFECE" stroke="#000" stroke-width="1.5" d="M543.5 996v14h12v-8l-6-6h-6z"/><path stroke="#000" stroke-width="1.5" d="M549.5 996v6M555.5 1002h-6"/><text font-family="Futura" font-size="14" lengthAdjust="spacingAndGlyphs" textLength="117" x="423.5" y="1018.957">Traceability Matrix</text><path fill="#FEFECE" filter="url(#a)" stroke="#000" stroke-width="1.5" d="M540 787.5h48v41.594h-48z"/><path fill="#FEFECE" stroke="#000" stroke-width="1.5" d="M571 792.5v14h12v-8l-6-6h-6z"/><path stroke="#000" stroke-width="1.5" d="M577 792.5v6M583 798.5h-6"/><text font-family="Futura" font-size="14" lengthAdjust="spacingAndGlyphs" textLength="18" x="550" y="815.457">CR</text><ellipse cx="378.22" cy="196.944" fill="#FEFECE" filter="url(#a)" rx="77.72" ry="17.944" stroke="#a80036" stroke-width="1.5"/><text font-family="Futura" font-size="14" lengthAdjust="spacingAndGlyphs" textLength="117" x="319.72" y="202.741">Elicit Requirements</text><ellipse cx="542.79" cy="197.148" fill="#FEFECE" filter="url(#a)" rx="51.79" ry="16.148" stroke="#a80036" stroke-width="1.5"/><text font-family="Futura" font-size="14" lengthAdjust="spacingAndGlyphs" textLength="69" x="508.29" y="202.945">Verify StRS</text><ellipse cx="692.19" cy="197.148" fill="#FEFECE" filter="url(#a)" rx="61.69" ry="16.148" stroke="#a80036" stroke-width="1.5"/><text font-family="Futura" font-size="14" lengthAdjust="spacingAndGlyphs" textLength="83" x="650.69" y="202.945">Validate StRS</text><ellipse cx="779.966" cy="470.693" fill="#FEFECE" filter="url(#a)" rx="111.466" ry="24.693" stroke="#a80036" stroke-width="1.5"/><text font-family="Futura" font-size="14" lengthAdjust="spacingAndGlyphs" textLength="196" x="681.966" y="476.49">Elaborate SysRS and Interfaces</text><ellipse cx="978.223" cy="694.644" fill="#FEFECE" filter="url(#a)" rx="131.223" ry="28.645" stroke="#a80036" stroke-width="1.5"/><text font-family="Futura" font-size="14" lengthAdjust="spacingAndGlyphs" textLength="239" x="858.723" y="700.441">Elaborate SERS and System Interfaces</text><ellipse cx="651.782" cy="694.556" fill="#FEFECE" filter="url(#a)" rx="88.282" ry="20.056" stroke="#a80036" stroke-width="1.5"/><text font-family="Futura" font-size="14" lengthAdjust="spacingAndGlyphs" textLength="143" x="580.282" y="700.353">Verify SysRS and SERS</text><ellipse cx="565.25" cy="470.65" fill="#FEFECE" filter="url(#a)" rx="68.75" ry="16.15" stroke="#a80036" stroke-width="1.5"/><text font-family="Futura" font-size="14" lengthAdjust="spacingAndGlyphs" textLength="93" x="518.75" y="476.447">Validate SysRS</text><ellipse cx="487.193" cy="912.339" fill="#FEFECE" filter="url(#a)" rx="79.693" ry="18.339" stroke="#a80036" stroke-width="1.5"/><text font-family="Futura" font-size="14" lengthAdjust="spacingAndGlyphs" textLength="122" x="426.193" y="918.135">Update Traceability</text><ellipse cx="817.912" cy="912.648" fill="#FEFECE" filter="url(#a)" rx="53.912" ry="16.148" stroke="#a80036" stroke-width="1.5"/><text font-family="Futura" font-size="14" lengthAdjust="spacingAndGlyphs" textLength="72" x="781.912" y="918.445">Update IVV</text><path d="M274.594 72.23l85.184 102.783" fill="none" stroke="#a80036" stroke-width="2"/><path fill="#A80036" stroke="#a80036" d="M363.055 178.967l-2.663-9.482-.528 5.632-5.632-.527 8.823 4.377z"/><path d="M493.37 72.23l-95.04 102.783" fill="none" stroke="#a80036" stroke-width="2"/><path fill="#A80036" stroke="#a80036" d="M394.674 178.967l9.047-3.892-5.652.221-.221-5.653-3.174 9.324z"/><path d="M378 72.23v101.4" fill="none" stroke="#a80036" stroke-width="2"/><path fill="#A80036" stroke="#a80036" d="M378 178.967l4-9-4 4-4-4 4 9z"/><path d="M395.37 214.611l98.128 99.49" fill="none" stroke="#a80036" stroke-width="2"/><path fill="#A80036" stroke="#a80036" d="M497.34 317.998l-3.472-9.217-.039 5.657-5.657-.04 9.168 3.6z"/><path d="M525.677 317.438l14.276-99.255" fill="none" stroke="#a80036" stroke-width="2"/><path fill="#A80036" stroke="#a80036" d="M540.672 213.182l-5.24 8.34 4.529-3.39 3.39 4.528-2.679-9.478z"/><path d="M549.753 212.903l42.333 99.686" fill="none" stroke="#a80036" stroke-width="2"/><path fill="#A80036" stroke="#a80036" d="M594.097 317.326l.164-9.848-2.118 5.246-5.245-2.119 7.2 6.72z"/><path d="M620.299 317.326l59.644-100.093" fill="none" stroke="#a80036" stroke-width="2"/><path fill="#A80036" stroke="#a80036" d="M682.524 212.903l-8.043 5.683 5.483-1.388 1.389 5.483 1.17-9.779z"/><path d="M692 213.182v99.164" fill="none" stroke="#a80036" stroke-width="2"/><path fill="#A80036" stroke="#a80036" d="M692 317.438l4-9-4 4-4-4 4 9z"/><path d="M709.808 368.801l50.359 72.964" fill="none" stroke="#a80036" stroke-width="2"/><path fill="#A80036" stroke="#a80036" d="M763.114 446.035l-1.82-9.68-1.02 5.565-5.564-1.02 8.404 5.135z"/><path d="M770.013 494.913l-22.473 54.933" fill="none" stroke="#a80036" stroke-width="2"/><path fill="#A80036" stroke="#a80036" d="M745.586 554.623l7.11-6.815-5.217 2.187-2.187-5.216.294 9.844z"/><path d="M759.637 592.058l158.578 74.395" fill="none" stroke="#a80036" stroke-width="2"/><path fill="#A80036" stroke="#a80036" d="M922.775 668.592l-6.449-7.444 1.923 5.32-5.32 1.923 9.846.201z"/><path d="M978 606.947v53.55" fill="none" stroke="#a80036" stroke-width="2"/><path fill="#A80036" stroke="#a80036" d="M978 665.7l4-9-4 4-4-4 4 9zM978 601.675l-4 9 4-4 4 4-4-9z"/><path d="M923.696 720.511l-154.512 74.01" fill="none" stroke="#a80036" stroke-width="2"/><path fill="#A80036" stroke="#a80036" d="M764.655 796.69l9.845-.28-5.335-1.88 1.88-5.335-6.39 7.495z"/><path d="M716.373 606.084l-46.912 64.433" fill="none" stroke="#a80036" stroke-width="2"/><path fill="#A80036" stroke="#a80036" d="M666.438 674.67l8.531-4.922-5.588.88-.88-5.589-2.063 9.63z"/><path d="M720.35 782.986C713.304 773.84 705.3 763.456 698 754a50699.082 50699.082 0 00-27.415-35.478" fill="none" stroke="#a80036" stroke-width="2"/><path fill="#A80036" stroke="#a80036" d="M667.341 714.327l2.342 9.567.717-5.611 5.611.716-8.67-4.672z"/><path d="M652 674.307v-63" fill="none" stroke="#a80036" stroke-width="2"/><path fill="#A80036" stroke="#a80036" d="M652 606.084l-4 9 4-4 4 4-4-9z"/><path d="M652 714.619v63.138" fill="none" stroke="#a80036" stroke-width="2"/><path fill="#A80036" stroke="#a80036" d="M652 782.99l4-9-4 4-4-4 4 9z"/><path d="M636.672 714.357l-53.21 68.931" fill="none" stroke="#a80036" stroke-width="2"/><path fill="#A80036" stroke="#a80036" d="M580.346 787.325l8.666-4.68-5.61.722-.723-5.61-2.333 9.568z"/><path d="M633.056 554.802C626.2 545.64 618.34 535.292 611 526c-9.45-11.965-20.324-25.11-29.125-35.604" fill="none" stroke="#a80036" stroke-width="2"/><path fill="#A80036" stroke="#a80036" d="M578.487 486.366l2.73 9.463.488-5.635 5.635.488-8.853-4.316z"/><path d="M666.3 368.801l-81.986 82.31" fill="none" stroke="#a80036" stroke-width="2"/><path fill="#A80036" stroke="#a80036" d="M580.656 454.782l9.186-3.553-5.657.01-.011-5.656-3.518 9.2z"/><path d="M565 486.73v63.007" fill="none" stroke="#a80036" stroke-width="2"/><path fill="#A80036" stroke="#a80036" d="M565 554.805l4-9-4 4-4-4 4 9z"/><path d="M668.22 368.667c-6.737 6.271-14.383 12.547-22.22 17.333-67.306 41.11-108.697 6.889-167 60-48.799 44.453-63 68.49-63 134.5v114c0 74.203 37.65 155.939 58.117 194.887" fill="none" stroke="#a80036" stroke-width="2"/><path fill="#A80036" stroke="#a80036" d="M476.524 893.921l-.687-9.825-1.658 5.409-5.408-1.658 7.753 6.074z"/><path d="M558.696 606.049C550.379 639.862 535.35 701.349 523 754c-11.21 47.785-23.806 103.806-30.73 134.812" fill="none" stroke="#a80036" stroke-width="2"/><path fill="#A80036" stroke="#a80036" d="M491.127 893.935l5.864-7.912-4.775 3.032-3.032-4.775 1.943 9.655z"/><path d="M623.091 830.189c-5.604 4.022-11.48 8.117-17.091 11.811-27.569 18.147-59.837 37.13-83.812 50.82" fill="none" stroke="#a80036" stroke-width="2"/><path fill="#A80036" stroke="#a80036" d="M517.811 895.313l9.8-.978-5.455-1.496 1.496-5.456-5.84 7.93z"/><path d="M487 931.215v54.586" fill="none" stroke="#a80036" stroke-width="2"/><path fill="#A80036" stroke="#a80036" d="M487 990.957l4-9-4 4-4-4 4 9z"/><path d="M593.53 602.72c5.918 4.062 12.25 8.037 18.47 11.28 61.076 31.85 99.445 1.233 146 52 59.334 64.702 62.646 178.08 61.205 225.114" fill="none" stroke="#a80036" stroke-width="2"/><path fill="#A80036" stroke="#a80036" d="M819.02 896.25l4.321-8.85-4.141 3.853-3.854-4.141 3.674 9.138z"/><path d="M680.898 830.205c5.605 4.021 11.484 8.112 17.102 11.795 29.866 19.58 65.246 40.051 89.817 53.858" fill="none" stroke="#a80036" stroke-width="2"/><path fill="#A80036" stroke="#a80036" d="M792.275 898.356l-5.895-7.89 1.534 5.446-5.445 1.533 9.806.911z"/><path d="M720.693 344.007C822.737 349.255 1162 381.654 1162 580.5v114c0 136.145-194.62 190.817-291.086 209.554" fill="none" stroke="#a80036" stroke-width="2"/><path fill="#A80036" stroke="#a80036" d="M865.832 905.025l9.59 2.24-4.68-3.178 3.178-4.68-8.088 5.618z"/><path d="M806.432 928.486l-41.861 57.85" fill="none" stroke="#a80036" stroke-width="2"/><path fill="#A80036" stroke="#a80036" d="M761.305 990.85l8.517-4.947-5.586.895-.895-5.585-2.036 9.636z"/><path d="M839.259 927.396l86.416 60.552" fill="none" stroke="#a80036" stroke-width="2"/><path fill="#A80036" stroke="#a80036" d="M929.91 990.916l-5.075-8.44.98 5.571-5.57.98 9.666 1.89z"/></svg>