<svg xmlns="http://www.w3.org/2000/svg" height="315" preserveAspectRatio="none" style="width:323px;height:315px" width="323"><defs><filter height="300%" id="a" width="300%" x="-1" y="-1"><feGaussianBlur result="blurOut" stdDeviation="2"/><feColorMatrix in="blurOut" result="blurOut2" values="0 0 0 0 0 0 0 0 0 0 0 0 0 0 0 0 0 0 .4 0"/><feOffset dx="4" dy="4" in="blurOut2" result="blurOut3"/><feBlend in="SourceGraphic" in2="blurOut3"/></filter></defs><circle cx="21" cy="18" fill="#FEFECE" filter="url(#a)" stroke="#a80036" stroke-width="2" r="8"/><path d="M21 26v27M8 34h26M21 53L8 68m13-15l13 15" fill="none" filter="url(#a)" stroke="#a80036" stroke-width="2"/><text font-family="Futura" font-size="14" lengthAdjust="spacingAndGlyphs" textLength="24" x="9" y="89.957">SYS</text><circle cx="86" cy="18" fill="#FEFECE" filter="url(#a)" stroke="#a80036" stroke-width="2" r="8"/><path d="M86 26v27M73 34h26M86 53L73 68m13-15l13 15" fill="none" filter="url(#a)" stroke="#a80036" stroke-width="2"/><text font-family="Futura" font-size="14" lengthAdjust="spacingAndGlyphs" textLength="26" x="73" y="89.957">DES</text><path fill="#FEFECE" filter="url(#a)" stroke="#000" stroke-width="1.5" d="M136.5 30h129v41.594h-129z"/><path fill="#FEFECE" stroke="#000" stroke-width="1.5" d="M248.5 35v14h12v-8l-6-6h-6z"/><path stroke="#000" stroke-width="1.5" d="M254.5 35v6M260.5 41h-6"/><text font-family="Futura" font-size="14" lengthAdjust="spacingAndGlyphs" textLength="99" x="146.5" y="57.957">StRS (validated)</text><path fill="#FEFECE" filter="url(#a)" stroke="#000" stroke-width="1.5" d="M135.5 263h131v41.594h-131z"/><path fill="#FEFECE" stroke="#000" stroke-width="1.5" d="M249.5 268v14h12v-8l-6-6h-6z"/><path stroke="#000" stroke-width="1.5" d="M255.5 268v6M261.5 274h-6"/><text font-family="Futura" font-size="14" lengthAdjust="spacingAndGlyphs" textLength="101" x="145.5" y="290.957">SysRS (initiated)</text><ellipse cx="200.966" cy="178.693" fill="#FEFECE" filter="url(#a)" rx="111.466" ry="24.693" stroke="#a80036" stroke-width="1.5"/><text font-family="Futura" font-size="14" lengthAdjust="spacingAndGlyphs" textLength="196" x="102.966" y="184.49">Elaborate SysRS and Interfaces</text><path d="M201 72.054v76.688" fill="none" stroke="#a80036" stroke-width="2"/><path fill="#A80036" stroke="#a80036" d="M201 153.921l4-9-4 4-4-4 4 9z"/><path d="M201 203.235v54.724" fill="none" stroke="#a80036" stroke-width="2"/><path fill="#A80036" stroke="#a80036" d="M201 262.978l4-9-4 4-4-4 4 9z"/></svg>