<svg xmlns="http://www.w3.org/2000/svg" height="224" preserveAspectRatio="none" style="width:280px;height:224px" width="280"><defs><filter height="300%" id="a" width="300%" x="-1" y="-1"><feGaussianBlur result="blurOut" stdDeviation="2"/><feColorMatrix in="blurOut" result="blurOut2" values="0 0 0 0 0 0 0 0 0 0 0 0 0 0 0 0 0 0 .4 0"/><feOffset dx="4" dy="4" in="blurOut2" result="blurOut3"/><feBlend in="SourceGraphic" in2="blurOut3"/></filter></defs><path fill="#FFF" filter="url(#a)" stroke="#000" stroke-width="1.5" d="M116 125h147v88H116z"/><path fill="#FFF" stroke="#000" stroke-width="1.5" d="M246 130v14h12v-8l-6-6h-6z"/><path stroke="#000" stroke-width="1.5" d="M252 130v6M258 136h-6"/><text font-family="Futura" font-size="14" font-weight="bold" lengthAdjust="spacingAndGlyphs" textLength="33" x="173" y="141.966">StRS</text><circle cx="230" cy="170" fill="#FEFECE" filter="url(#a)" stroke="#a80036" stroke-width="2" r="12"/><path fill="#A80036" stroke="#a80036" d="M226 158l6-5-2 5 2 5-6-5z"/><text font-family="Futura" font-size="14" lengthAdjust="spacingAndGlyphs" textLength="49" x="205.5" y="200.957">initiated</text><circle cx="147" cy="170" fill="#FEFECE" filter="url(#a)" stroke="#a80036" stroke-width="2" r="12"/><path fill="#A80036" stroke="#a80036" d="M143 158l6-5-2 5 2 5-6-5z"/><text font-family="Futura" font-size="14" lengthAdjust="spacingAndGlyphs" textLength="46" x="124" y="200.957">verified</text><circle cx="21" cy="18" fill="#FEFECE" filter="url(#a)" stroke="#a80036" stroke-width="2" r="8"/><path d="M21 26v27M8 34h26M21 53L8 68m13-15l13 15" fill="none" filter="url(#a)" stroke="#a80036" stroke-width="2"/><text font-family="Futura" font-size="14" lengthAdjust="spacingAndGlyphs" textLength="27" x="7.5" y="89.957">PJM</text><circle cx="86" cy="18" fill="#FEFECE" filter="url(#a)" stroke="#a80036" stroke-width="2" r="8"/><path d="M86 26v27M73 34h26M86 53L73 68m13-15l13 15" fill="none" filter="url(#a)" stroke="#a80036" stroke-width="2"/><text font-family="Futura" font-size="14" lengthAdjust="spacingAndGlyphs" textLength="22" x="75" y="89.957">WT</text><ellipse cx="187.79" cy="51.148" fill="#FEFECE" filter="url(#a)" rx="51.79" ry="16.148" stroke="#a80036" stroke-width="1.5"/><text font-family="Futura" font-size="14" lengthAdjust="spacingAndGlyphs" textLength="69" x="153.29" y="56.945">Verify StRS</text><path d="M221.651 153.957L194.818 71.86" fill="none" stroke="#a80036" stroke-width="2"/><path fill="#A80036" stroke="#a80036" d="M193.234 67.015l-1.006 9.797 2.56-5.045 5.045 2.56-6.599-7.312z"/><path d="M182.89 67.015l-26.144 81.938" fill="none" stroke="#a80036" stroke-width="2"/><path fill="#A80036" stroke="#a80036" d="M155.15 153.957l6.547-7.359-5.027 2.595-2.595-5.026 1.075 9.79z"/></svg>