<?xml version="1.0" encoding="UTF-8" standalone="no"?><svg xmlns="http://www.w3.org/2000/svg" xmlns:xlink="http://www.w3.org/1999/xlink" contentScriptType="application/ecmascript" contentStyleType="text/css" height="323px" preserveAspectRatio="none" style="width:409px;height:323px;" version="1.1" viewBox="0 0 409 323" width="409px" zoomAndPan="magnify"><defs><filter height="300%" id="fq8up1pgoji4y" width="300%" x="-1" y="-1"><feGaussianBlur result="blurOut" stdDeviation="2.0"/><feColorMatrix in="blurOut" result="blurOut2" type="matrix" values="0 0 0 0 0 0 0 0 0 0 0 0 0 0 0 0 0 0 .4 0"/><feOffset dx="4.0" dy="4.0" in="blurOut2" result="blurOut3"/><feBlend in="SourceGraphic" in2="blurOut3" mode="normal"/></filter></defs><g><!--entity SYS--><ellipse cx="21" cy="18" fill="#FEFECE" filter="url(#fq8up1pgoji4y)" rx="8" ry="8" style="stroke: #A80036; stroke-width: 2.0;"/><path d="M21,26 L21,53 M8,34 L34,34 M21,53 L8,68 M21,53 L34,68 " fill="none" filter="url(#fq8up1pgoji4y)" style="stroke: #A80036; stroke-width: 2.0;"/><text fill="#000000" font-family="Futura" font-size="14" lengthAdjust="spacingAndGlyphs" textLength="24" x="9" y="89.957">SYS</text><!--entity DES--><ellipse cx="86" cy="18" fill="#FEFECE" filter="url(#fq8up1pgoji4y)" rx="8" ry="8" style="stroke: #A80036; stroke-width: 2.0;"/><path d="M86,26 L86,53 M73,34 L99,34 M86,53 L73,68 M86,53 L99,68 " fill="none" filter="url(#fq8up1pgoji4y)" style="stroke: #A80036; stroke-width: 2.0;"/><text fill="#000000" font-family="Futura" font-size="14" lengthAdjust="spacingAndGlyphs" textLength="26" x="73" y="89.957">DES</text><!--entity PROD_SERS_INITIATED--><rect fill="#FEFECE" filter="url(#fq8up1pgoji4y)" height="41.5938" style="stroke: #000000; stroke-width: 1.5;" width="125" x="204.5" y="271"/><polygon fill="#FEFECE" points="312.5,276,312.5,290,324.5,290,324.5,282,318.5,276,312.5,276" style="stroke: #000000; stroke-width: 1.5;"/><line style="stroke: #000000; stroke-width: 1.5;" x1="318.5" x2="318.5" y1="276" y2="282"/><line style="stroke: #000000; stroke-width: 1.5;" x1="324.5" x2="318.5" y1="282" y2="282"/><text fill="#000000" font-family="Futura" font-size="14" lengthAdjust="spacingAndGlyphs" textLength="95" x="214.5" y="298.957">SERS (initiated)</text><!--entity PROD_SYSRS_INITIATED--><rect fill="#FEFECE" filter="url(#fq8up1pgoji4y)" height="41.5938" style="stroke: #000000; stroke-width: 1.5;" width="131" x="136.5" y="30"/><polygon fill="#FEFECE" points="250.5,35,250.5,49,262.5,49,262.5,41,256.5,35,250.5,35" style="stroke: #000000; stroke-width: 1.5;"/><line style="stroke: #000000; stroke-width: 1.5;" x1="256.5" x2="256.5" y1="35" y2="41"/><line style="stroke: #000000; stroke-width: 1.5;" x1="262.5" x2="256.5" y1="41" y2="41"/><text fill="#000000" font-family="Futura" font-size="14" lengthAdjust="spacingAndGlyphs" textLength="101" x="146.5" y="57.957">SysRS (initiated)</text><!--entity PROD_SDD--><rect fill="#FEFECE" filter="url(#fq8up1pgoji4y)" height="41.5938" style="stroke: #000000; stroke-width: 1.5;" width="58" x="303" y="30"/><polygon fill="#FEFECE" points="344,35,344,49,356,49,356,41,350,35,344,35" style="stroke: #000000; stroke-width: 1.5;"/><line style="stroke: #000000; stroke-width: 1.5;" x1="350" x2="350" y1="35" y2="41"/><line style="stroke: #000000; stroke-width: 1.5;" x1="356" x2="350" y1="41" y2="41"/><text fill="#000000" font-family="Futura" font-size="14" lengthAdjust="spacingAndGlyphs" textLength="28" x="313" y="57.957">SDD</text><ellipse cx="267.2226" cy="182.6445" fill="#FEFECE" filter="url(#fq8up1pgoji4y)" rx="131.2226" ry="28.6445" style="stroke: #A80036; stroke-width: 1.5;"/><text fill="#000000" font-family="Futura" font-size="14" lengthAdjust="spacingAndGlyphs" textLength="239" x="147.7226" y="188.4414">Elaborate SERS and System Interfaces</text><!--link PROD_SYSRS_INITIATED to SR2_5--><path d="M212.4434,72.1277 C222.7384,92.9553 238.6242,125.0936 250.6037,149.3291 " fill="none" id="PROD_SYSRS_INITIATED-SR2_5" style="stroke: #A80036; stroke-width: 2.0;"/><polygon fill="#A80036" points="252.9448,154.0652,252.5423,144.2246,250.7291,149.5829,245.3707,147.7697,252.9448,154.0652" style="stroke: #A80036; stroke-width: 1.0;"/><!--link PROD_SDD to SR2_5--><path d="M319.2882,76.717 C309.0248,97.4806 294.5105,126.8442 283.377,149.3682 " fill="none" id="PROD_SDD-SR2_5" style="stroke: #A80036; stroke-width: 2.0;"/><polygon fill="#A80036" points="281.0552,154.0652,288.6293,147.7697,283.2709,149.5829,281.4577,144.2246,281.0552,154.0652" style="stroke: #A80036; stroke-width: 1.0;"/><polygon fill="#A80036" points="321.5566,72.1277,313.9825,78.4232,319.3409,76.61,321.1541,81.9683,321.5566,72.1277" style="stroke: #A80036; stroke-width: 1.0;"/><!--link SR2_5 to PROD_SERS_INITIATED--><path d="M267,211.2698 C267,228.0071 267,248.9614 267,265.327 " fill="none" id="SR2_5-PROD_SERS_INITIATED" style="stroke: #A80036; stroke-width: 2.0;"/><polygon fill="#A80036" points="267,270.6884,271,261.6884,267,265.6884,263,261.6884,267,270.6884" style="stroke: #A80036; stroke-width: 1.0;"/><!--
@startuml



skinparam handwritten false
skinparam defaultFontName Futura


actor SYS
actor DES

artifact "SERS (initiated)" as PROD_SERS_INITIATED
artifact "SysRS (initiated)" as PROD_SYSRS_INITIATED
artifact "SDD" as PROD_SDD

usecase "Elaborate SERS and System Interfaces" as SR2_5
PROD_SYSRS_INITIATED ==> SR2_5
PROD_SDD <==> SR2_5
SR2_5 ==> PROD_SERS_INITIATED

@enduml

PlantUML version 1.2019.00(Sun Jan 13 07:46:42 PST 2019)
(GPL source distribution)
Java Runtime: Java(TM) SE Runtime Environment
JVM: Java HotSpot(TM) 64-Bit Server VM
Java Version: 10.0.1+10
Operating System: Mac OS X
OS Version: 10.14.3
Default Encoding: UTF-8
Language: en
Country: US
--></g></svg>