<?xml version="1.0" encoding="UTF-8" standalone="no"?><svg xmlns="http://www.w3.org/2000/svg" xmlns:xlink="http://www.w3.org/1999/xlink" contentScriptType="application/ecmascript" contentStyleType="text/css" height="249px" preserveAspectRatio="none" style="width:318px;height:249px;" version="1.1" viewBox="0 0 318 249" width="318px" zoomAndPan="magnify"><defs><filter height="300%" id="fqjiotj27hjt5" width="300%" x="-1" y="-1"><feGaussianBlur result="blurOut" stdDeviation="2.0"/><feColorMatrix in="blurOut" result="blurOut2" type="matrix" values="0 0 0 0 0 0 0 0 0 0 0 0 0 0 0 0 0 0 .4 0"/><feOffset dx="4.0" dy="4.0" in="blurOut2" result="blurOut3"/><feBlend in="SourceGraphic" in2="blurOut3" mode="normal"/></filter></defs><g><!--cluster StRS--><rect fill="#FFFFFF" filter="url(#fqjiotj27hjt5)" height="88" style="stroke: #000000; stroke-width: 1.5;" width="155" x="146" y="142.5"/><polygon fill="#FFFFFF" points="284,147.5,284,161.5,296,161.5,296,153.5,290,147.5,284,147.5" style="stroke: #000000; stroke-width: 1.5;"/><line style="stroke: #000000; stroke-width: 1.5;" x1="290" x2="290" y1="147.5" y2="153.5"/><line style="stroke: #000000; stroke-width: 1.5;" x1="296" x2="290" y1="153.5" y2="153.5"/><text fill="#000000" font-family="Futura" font-size="14" font-weight="bold" lengthAdjust="spacingAndGlyphs" textLength="33" x="207" y="159.466">StRS</text><!--entity PROD_STRS_VERIFIED--><ellipse cx="270" cy="187.5" fill="#FEFECE" filter="url(#fqjiotj27hjt5)" rx="12" ry="12" style="stroke: #A80036; stroke-width: 2.0;"/><polygon fill="#A80036" points="266,175.5,272,170.5,270,175.5,272,180.5,266,175.5" style="stroke: #A80036; stroke-width: 1.0;"/><text fill="#000000" font-family="Futura" font-size="14" lengthAdjust="spacingAndGlyphs" textLength="46" x="247" y="218.457">verified</text><!--entity PROD_STRS_VALIDATED--><ellipse cx="183" cy="187.5" fill="#FEFECE" filter="url(#fqjiotj27hjt5)" rx="12" ry="12" style="stroke: #A80036; stroke-width: 2.0;"/><polygon fill="#A80036" points="179,175.5,185,170.5,183,175.5,185,180.5,179,175.5" style="stroke: #A80036; stroke-width: 1.0;"/><text fill="#000000" font-family="Futura" font-size="14" lengthAdjust="spacingAndGlyphs" textLength="57" x="154.5" y="218.457">validated</text><!--entity SYS--><ellipse cx="21" cy="18" fill="#FEFECE" filter="url(#fqjiotj27hjt5)" rx="8" ry="8" style="stroke: #A80036; stroke-width: 2.0;"/><path d="M21,26 L21,53 M8,34 L34,34 M21,53 L8,68 M21,53 L34,68 " fill="none" filter="url(#fqjiotj27hjt5)" style="stroke: #A80036; stroke-width: 2.0;"/><text fill="#000000" font-family="Futura" font-size="14" lengthAdjust="spacingAndGlyphs" textLength="24" x="9" y="89.957">SYS</text><!--entity ACQ--><ellipse cx="88" cy="18" fill="#FEFECE" filter="url(#fqjiotj27hjt5)" rx="8" ry="8" style="stroke: #A80036; stroke-width: 2.0;"/><path d="M88,26 L88,53 M75,34 L101,34 M88,53 L75,68 M88,53 L101,68 " fill="none" filter="url(#fqjiotj27hjt5)" style="stroke: #A80036; stroke-width: 2.0;"/><text fill="#000000" font-family="Futura" font-size="14" lengthAdjust="spacingAndGlyphs" textLength="33" x="71.5" y="89.957">ACQ</text><!--entity STK--><ellipse cx="21" cy="164" fill="#FEFECE" filter="url(#fqjiotj27hjt5)" rx="8" ry="8" style="stroke: #A80036; stroke-width: 2.0;"/><path d="M21,172 L21,199 M8,180 L34,180 M21,199 L8,214 M21,199 L34,214 " fill="none" filter="url(#fqjiotj27hjt5)" style="stroke: #A80036; stroke-width: 2.0;"/><text fill="#000000" font-family="Futura" font-size="14" lengthAdjust="spacingAndGlyphs" textLength="24" x="9" y="235.957">STK</text><!--entity PJM--><ellipse cx="86" cy="164" fill="#FEFECE" filter="url(#fqjiotj27hjt5)" rx="8" ry="8" style="stroke: #A80036; stroke-width: 2.0;"/><path d="M86,172 L86,199 M73,180 L99,180 M86,199 L73,214 M86,199 L99,214 " fill="none" filter="url(#fqjiotj27hjt5)" style="stroke: #A80036; stroke-width: 2.0;"/><text fill="#000000" font-family="Futura" font-size="14" lengthAdjust="spacingAndGlyphs" textLength="27" x="72.5" y="235.957">PJM</text><ellipse cx="235.1899" cy="51.1478" fill="#FEFECE" filter="url(#fqjiotj27hjt5)" rx="61.6899" ry="16.1478" style="stroke: #A80036; stroke-width: 1.5;"/><text fill="#000000" font-family="Futura" font-size="14" lengthAdjust="spacingAndGlyphs" textLength="83" x="193.6899" y="56.9446">Validate StRS</text><!--link PROD_STRS_VERIFIED to SR2_3--><path d="M263.8722,171.4383 C257.1189,143.2674 246.3803,98.4719 240.0781,72.183 " fill="none" id="PROD_STRS_VERIFIED-SR2_3" style="stroke: #A80036; stroke-width: 2.0;"/><polygon fill="#A80036" points="238.8793,67.1824,237.0878,76.8669,240.045,72.0446,244.8673,75.0018,238.8793,67.1824" style="stroke: #A80036; stroke-width: 1.0;"/><!--link SR2_3 to PROD_STRS_VALIDATED--><path d="M229.2364,67.1824 C220.7023,91.1435 204.5559,136.4776 193.7848,166.7197 " fill="none" id="SR2_3-PROD_STRS_VALIDATED" style="stroke: #A80036; stroke-width: 2.0;"/><polygon fill="#A80036" points="192.1042,171.4383,198.8922,164.3022,193.7819,166.7282,191.356,161.6179,192.1042,171.4383" style="stroke: #A80036; stroke-width: 1.0;"/><!--link SYS to ACQ--><!--link SYS to STK--><!--link STK to PJM--><!--
@startuml



skinparam handwritten false
skinparam defaultFontName Futura


actor SYS
actor ACQ
actor STK
actor PJM

artifact "StRS" {
control "verified" as PROD_STRS_VERIFIED
control "validated" as PROD_STRS_VALIDATED
}

usecase "Validate StRS" as SR2_3
PROD_STRS_VERIFIED ==> SR2_3
SR2_3 ==> PROD_STRS_VALIDATED

@enduml

PlantUML version 1.2019.00(Sun Jan 13 07:46:42 PST 2019)
(GPL source distribution)
Java Runtime: Java(TM) SE Runtime Environment
JVM: Java HotSpot(TM) 64-Bit Server VM
Java Version: 10.0.1+10
Operating System: Mac OS X
OS Version: 10.14.3
Default Encoding: UTF-8
Language: en
Country: US
--></g></svg>