<?xml version="1.0" encoding="UTF-8" standalone="no"?><svg xmlns="http://www.w3.org/2000/svg" xmlns:xlink="http://www.w3.org/1999/xlink" contentScriptType="application/ecmascript" contentStyleType="text/css" height="315px" preserveAspectRatio="none" style="width:323px;height:315px;" version="1.1" viewBox="0 0 323 315" width="323px" zoomAndPan="magnify"><defs><filter height="300%" id="f7hgfoklnjswh" width="300%" x="-1" y="-1"><feGaussianBlur result="blurOut" stdDeviation="2.0"/><feColorMatrix in="blurOut" result="blurOut2" type="matrix" values="0 0 0 0 0 0 0 0 0 0 0 0 0 0 0 0 0 0 .4 0"/><feOffset dx="4.0" dy="4.0" in="blurOut2" result="blurOut3"/><feBlend in="SourceGraphic" in2="blurOut3" mode="normal"/></filter></defs><g><!--entity SYS--><ellipse cx="21" cy="18" fill="#FEFECE" filter="url(#f7hgfoklnjswh)" rx="8" ry="8" style="stroke: #A80036; stroke-width: 2.0;"/><path d="M21,26 L21,53 M8,34 L34,34 M21,53 L8,68 M21,53 L34,68 " fill="none" filter="url(#f7hgfoklnjswh)" style="stroke: #A80036; stroke-width: 2.0;"/><text fill="#000000" font-family="Futura" font-size="14" lengthAdjust="spacingAndGlyphs" textLength="24" x="9" y="89.957">SYS</text><!--entity DES--><ellipse cx="86" cy="18" fill="#FEFECE" filter="url(#f7hgfoklnjswh)" rx="8" ry="8" style="stroke: #A80036; stroke-width: 2.0;"/><path d="M86,26 L86,53 M73,34 L99,34 M86,53 L73,68 M86,53 L99,68 " fill="none" filter="url(#f7hgfoklnjswh)" style="stroke: #A80036; stroke-width: 2.0;"/><text fill="#000000" font-family="Futura" font-size="14" lengthAdjust="spacingAndGlyphs" textLength="26" x="73" y="89.957">DES</text><!--entity PROD_STRS_VALIDATED--><rect fill="#FEFECE" filter="url(#f7hgfoklnjswh)" height="41.5938" style="stroke: #000000; stroke-width: 1.5;" width="129" x="136.5" y="30"/><polygon fill="#FEFECE" points="248.5,35,248.5,49,260.5,49,260.5,41,254.5,35,248.5,35" style="stroke: #000000; stroke-width: 1.5;"/><line style="stroke: #000000; stroke-width: 1.5;" x1="254.5" x2="254.5" y1="35" y2="41"/><line style="stroke: #000000; stroke-width: 1.5;" x1="260.5" x2="254.5" y1="41" y2="41"/><text fill="#000000" font-family="Futura" font-size="14" lengthAdjust="spacingAndGlyphs" textLength="99" x="146.5" y="57.957">StRS (validated)</text><!--entity PROD_SYSRS_INITIATED--><rect fill="#FEFECE" filter="url(#f7hgfoklnjswh)" height="41.5938" style="stroke: #000000; stroke-width: 1.5;" width="131" x="135.5" y="263"/><polygon fill="#FEFECE" points="249.5,268,249.5,282,261.5,282,261.5,274,255.5,268,249.5,268" style="stroke: #000000; stroke-width: 1.5;"/><line style="stroke: #000000; stroke-width: 1.5;" x1="255.5" x2="255.5" y1="268" y2="274"/><line style="stroke: #000000; stroke-width: 1.5;" x1="261.5" x2="255.5" y1="274" y2="274"/><text fill="#000000" font-family="Futura" font-size="14" lengthAdjust="spacingAndGlyphs" textLength="101" x="145.5" y="290.957">SysRS (initiated)</text><ellipse cx="200.9656" cy="178.6931" fill="#FEFECE" filter="url(#f7hgfoklnjswh)" rx="111.4656" ry="24.6931" style="stroke: #A80036; stroke-width: 1.5;"/><text fill="#000000" font-family="Futura" font-size="14" lengthAdjust="spacingAndGlyphs" textLength="196" x="102.9656" y="184.49">Elaborate SysRS and Interfaces</text><!--link PROD_STRS_VALIDATED to SR2_4--><path d="M201,72.054 C201,92.9646 201,125.2176 201,148.7423 " fill="none" id="PROD_STRS_VALIDATED-SR2_4" style="stroke: #A80036; stroke-width: 2.0;"/><polygon fill="#A80036" points="201,153.9214,205,144.9214,201,148.9214,197,144.9214,201,153.9214" style="stroke: #A80036; stroke-width: 1.0;"/><!--link SR2_4 to PROD_SYSRS_INITIATED--><path d="M201,203.2351 C201,219.6828 201,241.2498 201,257.9594 " fill="none" id="SR2_4-PROD_SYSRS_INITIATED" style="stroke: #A80036; stroke-width: 2.0;"/><polygon fill="#A80036" points="201,262.9782,205,253.9782,201,257.9782,197,253.9782,201,262.9782" style="stroke: #A80036; stroke-width: 1.0;"/><!--
@startuml



skinparam handwritten false
skinparam defaultFontName Futura


actor SYS
actor DES

artifact "StRS (validated)" as PROD_STRS_VALIDATED
artifact "SysRS (initiated)" as PROD_SYSRS_INITIATED

usecase "Elaborate SysRS and Interfaces" as SR2_4
PROD_STRS_VALIDATED ==> SR2_4
SR2_4 ==> PROD_SYSRS_INITIATED

@enduml

PlantUML version 1.2019.00(Sun Jan 13 07:46:42 PST 2019)
(GPL source distribution)
Java Runtime: Java(TM) SE Runtime Environment
JVM: Java HotSpot(TM) 64-Bit Server VM
Java Version: 10.0.1+10
Operating System: Mac OS X
OS Version: 10.14.3
Default Encoding: UTF-8
Language: en
Country: US
--></g></svg>