<?xml version="1.0" encoding="UTF-8" standalone="no"?><svg xmlns="http://www.w3.org/2000/svg" xmlns:xlink="http://www.w3.org/1999/xlink" contentScriptType="application/ecmascript" contentStyleType="text/css" height="224px" preserveAspectRatio="none" style="width:280px;height:224px;" version="1.1" viewBox="0 0 280 224" width="280px" zoomAndPan="magnify"><defs><filter height="300%" id="fynv26zcl4udx" width="300%" x="-1" y="-1"><feGaussianBlur result="blurOut" stdDeviation="2.0"/><feColorMatrix in="blurOut" result="blurOut2" type="matrix" values="0 0 0 0 0 0 0 0 0 0 0 0 0 0 0 0 0 0 .4 0"/><feOffset dx="4.0" dy="4.0" in="blurOut2" result="blurOut3"/><feBlend in="SourceGraphic" in2="blurOut3" mode="normal"/></filter></defs><g><!--cluster StRS--><rect fill="#FFFFFF" filter="url(#fynv26zcl4udx)" height="88" style="stroke: #000000; stroke-width: 1.5;" width="147" x="116" y="125"/><polygon fill="#FFFFFF" points="246,130,246,144,258,144,258,136,252,130,246,130" style="stroke: #000000; stroke-width: 1.5;"/><line style="stroke: #000000; stroke-width: 1.5;" x1="252" x2="252" y1="130" y2="136"/><line style="stroke: #000000; stroke-width: 1.5;" x1="258" x2="252" y1="136" y2="136"/><text fill="#000000" font-family="Futura" font-size="14" font-weight="bold" lengthAdjust="spacingAndGlyphs" textLength="33" x="173" y="141.966">StRS</text><!--entity PROD_STRS_INITIATED--><ellipse cx="230" cy="170" fill="#FEFECE" filter="url(#fynv26zcl4udx)" rx="12" ry="12" style="stroke: #A80036; stroke-width: 2.0;"/><polygon fill="#A80036" points="226,158,232,153,230,158,232,163,226,158" style="stroke: #A80036; stroke-width: 1.0;"/><text fill="#000000" font-family="Futura" font-size="14" lengthAdjust="spacingAndGlyphs" textLength="49" x="205.5" y="200.957">initiated</text><!--entity PROD_STRS_VERIFIED--><ellipse cx="147" cy="170" fill="#FEFECE" filter="url(#fynv26zcl4udx)" rx="12" ry="12" style="stroke: #A80036; stroke-width: 2.0;"/><polygon fill="#A80036" points="143,158,149,153,147,158,149,163,143,158" style="stroke: #A80036; stroke-width: 1.0;"/><text fill="#000000" font-family="Futura" font-size="14" lengthAdjust="spacingAndGlyphs" textLength="46" x="124" y="200.957">verified</text><!--entity PJM--><ellipse cx="21" cy="18" fill="#FEFECE" filter="url(#fynv26zcl4udx)" rx="8" ry="8" style="stroke: #A80036; stroke-width: 2.0;"/><path d="M21,26 L21,53 M8,34 L34,34 M21,53 L8,68 M21,53 L34,68 " fill="none" filter="url(#fynv26zcl4udx)" style="stroke: #A80036; stroke-width: 2.0;"/><text fill="#000000" font-family="Futura" font-size="14" lengthAdjust="spacingAndGlyphs" textLength="27" x="7.5" y="89.957">PJM</text><!--entity WT--><ellipse cx="86" cy="18" fill="#FEFECE" filter="url(#fynv26zcl4udx)" rx="8" ry="8" style="stroke: #A80036; stroke-width: 2.0;"/><path d="M86,26 L86,53 M73,34 L99,34 M86,53 L73,68 M86,53 L99,68 " fill="none" filter="url(#fynv26zcl4udx)" style="stroke: #A80036; stroke-width: 2.0;"/><text fill="#000000" font-family="Futura" font-size="14" lengthAdjust="spacingAndGlyphs" textLength="22" x="75" y="89.957">WT</text><ellipse cx="187.7904" cy="51.1478" fill="#FEFECE" filter="url(#fynv26zcl4udx)" rx="51.7904" ry="16.1478" style="stroke: #A80036; stroke-width: 1.5;"/><text fill="#000000" font-family="Futura" font-size="14" lengthAdjust="spacingAndGlyphs" textLength="69" x="153.2904" y="56.9446">Verify StRS</text><!--link PROD_STRS_INITIATED to SR2_2--><path d="M221.6512,153.9565 C213.7844,129.8881 202.1418,94.2672 194.8184,71.8611 " fill="none" id="PROD_STRS_INITIATED-SR2_2" style="stroke: #A80036; stroke-width: 2.0;"/><polygon fill="#A80036" points="193.2344,67.0148,192.2284,76.8121,194.7878,71.7674,199.8326,74.3267,193.2344,67.0148" style="stroke: #A80036; stroke-width: 1.0;"/><!--link SR2_2 to PROD_STRS_VERIFIED--><path d="M182.8902,67.0148 C176.3698,87.4507 164.9541,123.2292 156.7464,148.9533 " fill="none" id="SR2_2-PROD_STRS_VERIFIED" style="stroke: #A80036; stroke-width: 2.0;"/><polygon fill="#A80036" points="155.1501,153.9565,161.6966,146.5982,156.67,149.1931,154.0751,144.1665,155.1501,153.9565" style="stroke: #A80036; stroke-width: 1.0;"/><!--
@startuml



skinparam handwritten false
skinparam defaultFontName Futura


actor PJM
actor WT

artifact "StRS" {
control "initiated" as PROD_STRS_INITIATED
control "verified" as PROD_STRS_VERIFIED
}

usecase "Verify StRS" as SR2_2
PROD_STRS_INITIATED ==> SR2_2
SR2_2 ==> PROD_STRS_VERIFIED

@enduml

PlantUML version 1.2019.00(Sun Jan 13 07:46:42 PST 2019)
(GPL source distribution)
Java Runtime: Java(TM) SE Runtime Environment
JVM: Java HotSpot(TM) 64-Bit Server VM
Java Version: 10.0.1+10
Operating System: Mac OS X
OS Version: 10.14.3
Default Encoding: UTF-8
Language: en
Country: US
--></g></svg>