<?xml version="1.0" encoding="UTF-8" standalone="no"?><svg xmlns="http://www.w3.org/2000/svg" xmlns:xlink="http://www.w3.org/1999/xlink" contentScriptType="application/ecmascript" contentStyleType="text/css" height="1043px" preserveAspectRatio="none" style="width:1174px;height:1043px;" version="1.1" viewBox="0 0 1174 1043" width="1174px" zoomAndPan="magnify"><defs><filter height="300%" id="fqq9fr6qstmlv" width="300%" x="-1" y="-1"><feGaussianBlur result="blurOut" stdDeviation="2.0"/><feColorMatrix in="blurOut" result="blurOut2" type="matrix" values="0 0 0 0 0 0 0 0 0 0 0 0 0 0 0 0 0 0 .4 0"/><feOffset dx="4.0" dy="4.0" in="blurOut2" result="blurOut3"/><feBlend in="SourceGraphic" in2="blurOut3" mode="normal"/></filter></defs><g><!--cluster SERS--><rect fill="#FFFFFF" filter="url(#fqq9fr6qstmlv)" height="88" style="stroke: #000000; stroke-width: 1.5;" width="158" x="615" y="754"/><polygon fill="#FFFFFF" points="756,759,756,773,768,773,768,765,762,759,756,759" style="stroke: #000000; stroke-width: 1.5;"/><line style="stroke: #000000; stroke-width: 1.5;" x1="762" x2="762" y1="759" y2="765"/><line style="stroke: #000000; stroke-width: 1.5;" x1="768" x2="762" y1="765" y2="765"/><text fill="#000000" font-family="Futura" font-size="14" font-weight="bold" lengthAdjust="spacingAndGlyphs" textLength="36" x="676" y="770.966">SERS</text><!--cluster StRS--><rect fill="#FFFFFF" filter="url(#fqq9fr6qstmlv)" height="88" style="stroke: #000000; stroke-width: 1.5;" width="240" x="489" y="288.5"/><polygon fill="#FFFFFF" points="712,293.5,712,307.5,724,307.5,724,299.5,718,293.5,712,293.5" style="stroke: #000000; stroke-width: 1.5;"/><line style="stroke: #000000; stroke-width: 1.5;" x1="718" x2="718" y1="293.5" y2="299.5"/><line style="stroke: #000000; stroke-width: 1.5;" x1="724" x2="718" y1="299.5" y2="299.5"/><text fill="#000000" font-family="Futura" font-size="14" font-weight="bold" lengthAdjust="spacingAndGlyphs" textLength="33" x="592.5" y="305.466">StRS</text><!--cluster SysRS--><rect fill="#FFFFFF" filter="url(#fqq9fr6qstmlv)" height="88" style="stroke: #000000; stroke-width: 1.5;" width="240" x="528" y="526"/><polygon fill="#FFFFFF" points="751,531,751,545,763,545,763,537,757,531,751,531" style="stroke: #000000; stroke-width: 1.5;"/><line style="stroke: #000000; stroke-width: 1.5;" x1="757" x2="757" y1="531" y2="537"/><line style="stroke: #000000; stroke-width: 1.5;" x1="763" x2="757" y1="537" y2="537"/><text fill="#000000" font-family="Futura" font-size="14" font-weight="bold" lengthAdjust="spacingAndGlyphs" textLength="45" x="625.5" y="542.966">SysRS</text><!--entity PROD_SERS_INITIATED--><ellipse cx="740" cy="799" fill="#FEFECE" filter="url(#fqq9fr6qstmlv)" rx="12" ry="12" style="stroke: #A80036; stroke-width: 2.0;"/><polygon fill="#A80036" points="736,787,742,782,740,787,742,792,736,787" style="stroke: #A80036; stroke-width: 1.0;"/><text fill="#000000" font-family="Futura" font-size="14" lengthAdjust="spacingAndGlyphs" textLength="49" x="715.5" y="829.957">initiated</text><!--entity PROD_SERS_VALIDATED--><ellipse cx="652" cy="799" fill="#FEFECE" filter="url(#fqq9fr6qstmlv)" rx="12" ry="12" style="stroke: #A80036; stroke-width: 2.0;"/><polygon fill="#A80036" points="648,787,654,782,652,787,654,792,648,787" style="stroke: #A80036; stroke-width: 1.0;"/><text fill="#000000" font-family="Futura" font-size="14" lengthAdjust="spacingAndGlyphs" textLength="57" x="623.5" y="829.957">validated</text><!--entity PROD_STRS_INITIATED--><ellipse cx="522" cy="333.5" fill="#FEFECE" filter="url(#fqq9fr6qstmlv)" rx="12" ry="12" style="stroke: #A80036; stroke-width: 2.0;"/><polygon fill="#A80036" points="518,321.5,524,316.5,522,321.5,524,326.5,518,321.5" style="stroke: #A80036; stroke-width: 1.0;"/><text fill="#000000" font-family="Futura" font-size="14" lengthAdjust="spacingAndGlyphs" textLength="49" x="497.5" y="364.457">initiated</text><!--entity PROD_STRS_VERIFIED--><ellipse cx="605" cy="333.5" fill="#FEFECE" filter="url(#fqq9fr6qstmlv)" rx="12" ry="12" style="stroke: #A80036; stroke-width: 2.0;"/><polygon fill="#A80036" points="601,321.5,607,316.5,605,321.5,607,326.5,601,321.5" style="stroke: #A80036; stroke-width: 1.0;"/><text fill="#000000" font-family="Futura" font-size="14" lengthAdjust="spacingAndGlyphs" textLength="46" x="582" y="364.457">verified</text><!--entity PROD_STRS_VALIDATED--><ellipse cx="692" cy="333.5" fill="#FEFECE" filter="url(#fqq9fr6qstmlv)" rx="12" ry="12" style="stroke: #A80036; stroke-width: 2.0;"/><polygon fill="#A80036" points="688,321.5,694,316.5,692,321.5,694,326.5,688,321.5" style="stroke: #A80036; stroke-width: 1.0;"/><text fill="#000000" font-family="Futura" font-size="14" lengthAdjust="spacingAndGlyphs" textLength="57" x="663.5" y="364.457">validated</text><!--entity PROD_SYSRS_INITIATED--><ellipse cx="735" cy="571" fill="#FEFECE" filter="url(#fqq9fr6qstmlv)" rx="12" ry="12" style="stroke: #A80036; stroke-width: 2.0;"/><polygon fill="#A80036" points="731,559,737,554,735,559,737,564,731,559" style="stroke: #A80036; stroke-width: 1.0;"/><text fill="#000000" font-family="Futura" font-size="14" lengthAdjust="spacingAndGlyphs" textLength="49" x="710.5" y="601.957">initiated</text><!--entity PROD_SYSRS_VERIFIED--><ellipse cx="652" cy="571" fill="#FEFECE" filter="url(#fqq9fr6qstmlv)" rx="12" ry="12" style="stroke: #A80036; stroke-width: 2.0;"/><polygon fill="#A80036" points="648,559,654,554,652,559,654,564,648,559" style="stroke: #A80036; stroke-width: 1.0;"/><text fill="#000000" font-family="Futura" font-size="14" lengthAdjust="spacingAndGlyphs" textLength="46" x="629" y="601.957">verified</text><!--entity PROD_SYSRS_VALIDATED--><ellipse cx="565" cy="571" fill="#FEFECE" filter="url(#fqq9fr6qstmlv)" rx="12" ry="12" style="stroke: #A80036; stroke-width: 2.0;"/><polygon fill="#A80036" points="561,559,567,554,565,559,567,564,561,559" style="stroke: #A80036; stroke-width: 1.0;"/><text fill="#000000" font-family="Futura" font-size="14" lengthAdjust="spacingAndGlyphs" textLength="57" x="536.5" y="601.957">validated</text><!--entity SYS--><ellipse cx="21" cy="18" fill="#FEFECE" filter="url(#fqq9fr6qstmlv)" rx="8" ry="8" style="stroke: #A80036; stroke-width: 2.0;"/><path d="M21,26 L21,53 M8,34 L34,34 M21,53 L8,68 M21,53 L34,68 " fill="none" filter="url(#fqq9fr6qstmlv)" style="stroke: #A80036; stroke-width: 2.0;"/><text fill="#000000" font-family="Futura" font-size="14" lengthAdjust="spacingAndGlyphs" textLength="24" x="9" y="89.957">SYS</text><!--entity ACQ--><ellipse cx="88" cy="18" fill="#FEFECE" filter="url(#fqq9fr6qstmlv)" rx="8" ry="8" style="stroke: #A80036; stroke-width: 2.0;"/><path d="M88,26 L88,53 M75,34 L101,34 M88,53 L75,68 M88,53 L101,68 " fill="none" filter="url(#fqq9fr6qstmlv)" style="stroke: #A80036; stroke-width: 2.0;"/><text fill="#000000" font-family="Futura" font-size="14" lengthAdjust="spacingAndGlyphs" textLength="33" x="71.5" y="89.957">ACQ</text><!--entity STK--><ellipse cx="155" cy="18" fill="#FEFECE" filter="url(#fqq9fr6qstmlv)" rx="8" ry="8" style="stroke: #A80036; stroke-width: 2.0;"/><path d="M155,26 L155,53 M142,34 L168,34 M155,53 L142,68 M155,53 L168,68 " fill="none" filter="url(#fqq9fr6qstmlv)" style="stroke: #A80036; stroke-width: 2.0;"/><text fill="#000000" font-family="Futura" font-size="14" lengthAdjust="spacingAndGlyphs" textLength="24" x="143" y="89.957">STK</text><!--entity PJM--><ellipse cx="21" cy="164" fill="#FEFECE" filter="url(#fqq9fr6qstmlv)" rx="8" ry="8" style="stroke: #A80036; stroke-width: 2.0;"/><path d="M21,172 L21,199 M8,180 L34,180 M21,199 L8,214 M21,199 L34,214 " fill="none" filter="url(#fqq9fr6qstmlv)" style="stroke: #A80036; stroke-width: 2.0;"/><text fill="#000000" font-family="Futura" font-size="14" lengthAdjust="spacingAndGlyphs" textLength="27" x="7.5" y="235.957">PJM</text><!--entity WT--><ellipse cx="86" cy="164" fill="#FEFECE" filter="url(#fqq9fr6qstmlv)" rx="8" ry="8" style="stroke: #A80036; stroke-width: 2.0;"/><path d="M86,172 L86,199 M73,180 L99,180 M86,199 L73,214 M86,199 L99,214 " fill="none" filter="url(#fqq9fr6qstmlv)" style="stroke: #A80036; stroke-width: 2.0;"/><text fill="#000000" font-family="Futura" font-size="14" lengthAdjust="spacingAndGlyphs" textLength="22" x="75" y="235.957">WT</text><!--entity DES--><ellipse cx="151" cy="164" fill="#FEFECE" filter="url(#fqq9fr6qstmlv)" rx="8" ry="8" style="stroke: #A80036; stroke-width: 2.0;"/><path d="M151,172 L151,199 M138,180 L164,180 M151,199 L138,214 M151,199 L164,214 " fill="none" filter="url(#fqq9fr6qstmlv)" style="stroke: #A80036; stroke-width: 2.0;"/><text fill="#000000" font-family="Futura" font-size="14" lengthAdjust="spacingAndGlyphs" textLength="26" x="138" y="235.957">DES</text><!--entity IVV--><ellipse cx="21" cy="310" fill="#FEFECE" filter="url(#fqq9fr6qstmlv)" rx="8" ry="8" style="stroke: #A80036; stroke-width: 2.0;"/><path d="M21,318 L21,345 M8,326 L34,326 M21,345 L8,360 M21,345 L34,360 " fill="none" filter="url(#fqq9fr6qstmlv)" style="stroke: #A80036; stroke-width: 2.0;"/><text fill="#000000" font-family="Futura" font-size="14" lengthAdjust="spacingAndGlyphs" textLength="22" x="10" y="381.957">IVV</text><!--entity PROD_PP--><rect fill="#FEFECE" filter="url(#fqq9fr6qstmlv)" height="41.5938" style="stroke: #000000; stroke-width: 1.5;" width="104" x="205" y="30"/><polygon fill="#FEFECE" points="292,35,292,49,304,49,304,41,298,35,292,35" style="stroke: #000000; stroke-width: 1.5;"/><line style="stroke: #000000; stroke-width: 1.5;" x1="298" x2="298" y1="35" y2="41"/><line style="stroke: #000000; stroke-width: 1.5;" x1="304" x2="298" y1="41" y2="41"/><text fill="#000000" font-family="Futura" font-size="14" lengthAdjust="spacingAndGlyphs" textLength="74" x="215" y="57.957">Project Plan</text><!--entity PROD_SEMP--><rect fill="#FEFECE" filter="url(#fqq9fr6qstmlv)" height="41.5938" style="stroke: #000000; stroke-width: 1.5;" width="67" x="344.5" y="30"/><polygon fill="#FEFECE" points="394.5,35,394.5,49,406.5,49,406.5,41,400.5,35,394.5,35" style="stroke: #000000; stroke-width: 1.5;"/><line style="stroke: #000000; stroke-width: 1.5;" x1="400.5" x2="400.5" y1="35" y2="41"/><line style="stroke: #000000; stroke-width: 1.5;" x1="406.5" x2="400.5" y1="41" y2="41"/><text fill="#000000" font-family="Futura" font-size="14" lengthAdjust="spacingAndGlyphs" textLength="37" x="354.5" y="57.957">SEMP</text><!--entity PROD_SOW_REVIEWED--><rect fill="#FEFECE" filter="url(#fqq9fr6qstmlv)" height="41.5938" style="stroke: #000000; stroke-width: 1.5;" width="133" x="446.5" y="30"/><polygon fill="#FEFECE" points="562.5,35,562.5,49,574.5,49,574.5,41,568.5,35,562.5,35" style="stroke: #000000; stroke-width: 1.5;"/><line style="stroke: #000000; stroke-width: 1.5;" x1="568.5" x2="568.5" y1="35" y2="41"/><line style="stroke: #000000; stroke-width: 1.5;" x1="574.5" x2="568.5" y1="41" y2="41"/><text fill="#000000" font-family="Futura" font-size="14" lengthAdjust="spacingAndGlyphs" textLength="103" x="456.5" y="57.957">SoW (reviewed)</text><!--entity PROD_SDD--><rect fill="#FEFECE" filter="url(#fqq9fr6qstmlv)" height="41.5938" style="stroke: #000000; stroke-width: 1.5;" width="58" x="949" y="559.5"/><polygon fill="#FEFECE" points="990,564.5,990,578.5,1002,578.5,1002,570.5,996,564.5,990,564.5" style="stroke: #000000; stroke-width: 1.5;"/><line style="stroke: #000000; stroke-width: 1.5;" x1="996" x2="996" y1="564.5" y2="570.5"/><line style="stroke: #000000; stroke-width: 1.5;" x1="1002" x2="996" y1="570.5" y2="570.5"/><text fill="#000000" font-family="Futura" font-size="14" lengthAdjust="spacingAndGlyphs" textLength="28" x="959" y="587.457">SDD</text><!--entity PROD_IVV_PLAN_PUBLISHED--><rect fill="#FEFECE" filter="url(#fqq9fr6qstmlv)" height="41.5938" style="stroke: #000000; stroke-width: 1.5;" width="157" x="667.5" y="991"/><polygon fill="#FEFECE" points="807.5,996,807.5,1010,819.5,1010,819.5,1002,813.5,996,807.5,996" style="stroke: #000000; stroke-width: 1.5;"/><line style="stroke: #000000; stroke-width: 1.5;" x1="813.5" x2="813.5" y1="996" y2="1002"/><line style="stroke: #000000; stroke-width: 1.5;" x1="819.5" x2="813.5" y1="1002" y2="1002"/><text fill="#000000" font-family="Futura" font-size="14" lengthAdjust="spacingAndGlyphs" textLength="127" x="677.5" y="1018.957">IVV Plan (published)</text><!--entity PROD_IVV_PROCEDURES_PUBLISHED--><rect fill="#FEFECE" filter="url(#fqq9fr6qstmlv)" height="41.5938" style="stroke: #000000; stroke-width: 1.5;" width="201" x="859.5" y="991"/><polygon fill="#FEFECE" points="1043.5,996,1043.5,1010,1055.5,1010,1055.5,1002,1049.5,996,1043.5,996" style="stroke: #000000; stroke-width: 1.5;"/><line style="stroke: #000000; stroke-width: 1.5;" x1="1049.5" x2="1049.5" y1="996" y2="1002"/><line style="stroke: #000000; stroke-width: 1.5;" x1="1055.5" x2="1049.5" y1="1002" y2="1002"/><text fill="#000000" font-family="Futura" font-size="14" lengthAdjust="spacingAndGlyphs" textLength="171" x="869.5" y="1018.957">IVV Procedures (published)</text><!--entity META_TRACE_MATRIX--><rect fill="#FEFECE" filter="url(#fqq9fr6qstmlv)" height="41.5938" style="stroke: #000000; stroke-width: 1.5;" width="147" x="413.5" y="991"/><polygon fill="#FEFECE" points="543.5,996,543.5,1010,555.5,1010,555.5,1002,549.5,996,543.5,996" style="stroke: #000000; stroke-width: 1.5;"/><line style="stroke: #000000; stroke-width: 1.5;" x1="549.5" x2="549.5" y1="996" y2="1002"/><line style="stroke: #000000; stroke-width: 1.5;" x1="555.5" x2="549.5" y1="1002" y2="1002"/><text fill="#000000" font-family="Futura" font-size="14" lengthAdjust="spacingAndGlyphs" textLength="117" x="423.5" y="1018.957">Traceability Matrix</text><!--entity META_CR--><rect fill="#FEFECE" filter="url(#fqq9fr6qstmlv)" height="41.5938" style="stroke: #000000; stroke-width: 1.5;" width="48" x="540" y="787.5"/><polygon fill="#FEFECE" points="571,792.5,571,806.5,583,806.5,583,798.5,577,792.5,571,792.5" style="stroke: #000000; stroke-width: 1.5;"/><line style="stroke: #000000; stroke-width: 1.5;" x1="577" x2="577" y1="792.5" y2="798.5"/><line style="stroke: #000000; stroke-width: 1.5;" x1="583" x2="577" y1="798.5" y2="798.5"/><text fill="#000000" font-family="Futura" font-size="14" lengthAdjust="spacingAndGlyphs" textLength="18" x="550" y="815.457">CR</text><ellipse cx="378.2198" cy="196.944" fill="#FEFECE" filter="url(#fqq9fr6qstmlv)" rx="77.7198" ry="17.944" style="stroke: #A80036; stroke-width: 1.5;"/><text fill="#000000" font-family="Futura" font-size="14" lengthAdjust="spacingAndGlyphs" textLength="117" x="319.7198" y="202.7408">Elicit Requirements</text><ellipse cx="542.7904" cy="197.1478" fill="#FEFECE" filter="url(#fqq9fr6qstmlv)" rx="51.7904" ry="16.1478" style="stroke: #A80036; stroke-width: 1.5;"/><text fill="#000000" font-family="Futura" font-size="14" lengthAdjust="spacingAndGlyphs" textLength="69" x="508.2904" y="202.9446">Verify StRS</text><ellipse cx="692.1899" cy="197.1478" fill="#FEFECE" filter="url(#fqq9fr6qstmlv)" rx="61.6899" ry="16.1478" style="stroke: #A80036; stroke-width: 1.5;"/><text fill="#000000" font-family="Futura" font-size="14" lengthAdjust="spacingAndGlyphs" textLength="83" x="650.6899" y="202.9446">Validate StRS</text><ellipse cx="779.9656" cy="470.6931" fill="#FEFECE" filter="url(#fqq9fr6qstmlv)" rx="111.4656" ry="24.6931" style="stroke: #A80036; stroke-width: 1.5;"/><text fill="#000000" font-family="Futura" font-size="14" lengthAdjust="spacingAndGlyphs" textLength="196" x="681.9656" y="476.49">Elaborate SysRS and Interfaces</text><ellipse cx="978.2226" cy="694.6445" fill="#FEFECE" filter="url(#fqq9fr6qstmlv)" rx="131.2226" ry="28.6445" style="stroke: #A80036; stroke-width: 1.5;"/><text fill="#000000" font-family="Futura" font-size="14" lengthAdjust="spacingAndGlyphs" textLength="239" x="858.7226" y="700.4414">Elaborate SERS and System Interfaces</text><ellipse cx="651.7822" cy="694.5564" fill="#FEFECE" filter="url(#fqq9fr6qstmlv)" rx="88.2822" ry="20.0564" style="stroke: #A80036; stroke-width: 1.5;"/><text fill="#000000" font-family="Futura" font-size="14" lengthAdjust="spacingAndGlyphs" textLength="143" x="580.2822" y="700.3533">Verify SysRS and SERS</text><ellipse cx="565.2499" cy="470.65" fill="#FEFECE" filter="url(#fqq9fr6qstmlv)" rx="68.7499" ry="16.15" style="stroke: #A80036; stroke-width: 1.5;"/><text fill="#000000" font-family="Futura" font-size="14" lengthAdjust="spacingAndGlyphs" textLength="93" x="518.7499" y="476.4469">Validate SysRS</text><ellipse cx="487.1929" cy="912.3386" fill="#FEFECE" filter="url(#fqq9fr6qstmlv)" rx="79.6929" ry="18.3386" style="stroke: #A80036; stroke-width: 1.5;"/><text fill="#000000" font-family="Futura" font-size="14" lengthAdjust="spacingAndGlyphs" textLength="122" x="426.1929" y="918.1355">Update Traceability</text><ellipse cx="817.9117" cy="912.6478" fill="#FEFECE" filter="url(#fqq9fr6qstmlv)" rx="53.9117" ry="16.1478" style="stroke: #A80036; stroke-width: 1.5;"/><text fill="#000000" font-family="Futura" font-size="14" lengthAdjust="spacingAndGlyphs" textLength="72" x="781.9117" y="918.4446">Update IVV</text><!--link PROD_PP to SR2_1--><path d="M274.5944,72.2297 C297.3345,99.668 336.7362,147.2106 359.778,175.0131 " fill="none" id="PROD_PP-SR2_1" style="stroke: #A80036; stroke-width: 2.0;"/><polygon fill="#A80036" points="363.055,178.9671,360.3917,169.4852,359.8644,175.1174,354.2322,174.5901,363.055,178.9671" style="stroke: #A80036; stroke-width: 1.0;"/><!--link PROD_SOW_REVIEWED to SR2_1--><path d="M493.3698,72.2297 C467.9987,99.668 424.0381,147.2106 398.3303,175.0131 " fill="none" id="PROD_SOW_REVIEWED-SR2_1" style="stroke: #A80036; stroke-width: 2.0;"/><polygon fill="#A80036" points="394.6742,178.9671,403.7213,175.0747,398.0687,175.296,397.8475,169.6435,394.6742,178.9671" style="stroke: #A80036; stroke-width: 1.0;"/><!--link PROD_SEMP to SR2_1--><path d="M378,72.2297 C378,99.2182 378,145.6572 378,173.63 " fill="none" id="PROD_SEMP-SR2_1" style="stroke: #A80036; stroke-width: 2.0;"/><polygon fill="#A80036" points="378,178.9671,382,169.9671,378,173.9671,374,169.9671,378,178.9671" style="stroke: #A80036; stroke-width: 1.0;"/><!--link SR2_1 to PROD_STRS_INITIATED--><path d="M395.3698,214.611 C419.7103,239.2896 464.2581,284.4561 493.4976,314.1017 " fill="none" id="SR2_1-PROD_STRS_INITIATED" style="stroke: #A80036; stroke-width: 2.0;"/><polygon fill="#A80036" points="497.3402,317.9977,493.8681,308.7812,493.8291,314.4379,488.1724,314.3989,497.3402,317.9977" style="stroke: #A80036; stroke-width: 1.0;"/><!--link PROD_STRS_INITIATED to SR2_2--><path d="M525.6767,317.4383 C529.7287,289.2674 536.1718,244.4719 539.9531,218.183 " fill="none" id="PROD_STRS_INITIATED-SR2_2" style="stroke: #A80036; stroke-width: 2.0;"/><polygon fill="#A80036" points="540.6724,213.1824,535.4318,221.5212,539.9605,218.1315,543.3503,222.6602,540.6724,213.1824" style="stroke: #A80036; stroke-width: 1.0;"/><!--link SR2_2 to PROD_STRS_VERIFIED--><path d="M549.7531,212.9025 C559.8821,236.7546 579.1929,282.2283 592.0856,312.5886 " fill="none" id="SR2_2-PROD_STRS_VERIFIED" style="stroke: #A80036; stroke-width: 2.0;"/><polygon fill="#A80036" points="594.0973,317.3258,594.261,307.4783,592.1429,312.7236,586.8975,310.6054,594.0973,317.3258" style="stroke: #A80036; stroke-width: 1.0;"/><!--link PROD_STRS_VERIFIED to SR2_3--><path d="M620.299,317.3258 C637.2939,288.8056 664.3823,243.347 679.9431,217.2334 " fill="none" id="PROD_STRS_VERIFIED-SR2_3" style="stroke: #A80036; stroke-width: 2.0;"/><polygon fill="#A80036" points="682.5239,212.9025,674.4806,218.5863,679.9644,217.1977,681.3529,222.6815,682.5239,212.9025" style="stroke: #A80036; stroke-width: 1.0;"/><!--link SR2_3 to PROD_STRS_VALIDATED--><path d="M692,213.1824 C692,237.0449 692,282.1048 692,312.3456 " fill="none" id="SR2_3-PROD_STRS_VALIDATED" style="stroke: #A80036; stroke-width: 2.0;"/><polygon fill="#A80036" points="692,317.4383,696,308.4383,692,312.4383,688,308.4383,692,317.4383" style="stroke: #A80036; stroke-width: 1.0;"/><!--link PROD_STRS_VALIDATED to SR2_4--><path d="M709.8081,368.8015 C724.404,389.949 745.0457,419.856 760.1669,441.7645 " fill="none" id="PROD_STRS_VALIDATED-SR2_4" style="stroke: #A80036; stroke-width: 2.0;"/><polygon fill="#A80036" points="763.1141,446.0346,761.2938,436.3554,760.2739,441.9196,754.7098,440.8997,763.1141,446.0346" style="stroke: #A80036; stroke-width: 1.0;"/><!--link SR2_4 to PROD_SYSRS_INITIATED--><path d="M770.013,494.9126 C763.386,511.1121 754.6354,532.5024 747.5402,549.8462 " fill="none" id="SR2_4-PROD_SYSRS_INITIATED" style="stroke: #A80036; stroke-width: 2.0;"/><polygon fill="#A80036" points="745.586,554.623,752.696,547.8078,747.4793,549.9953,745.2917,544.7785,745.586,554.623" style="stroke: #A80036; stroke-width: 1.0;"/><!--link PROD_SYSRS_INITIATED to SR2_5--><path d="M759.6374,592.0583 C796.5316,609.3667 867.2398,642.5384 918.2152,666.4528 " fill="none" id="PROD_SYSRS_INITIATED-SR2_5" style="stroke: #A80036; stroke-width: 2.0;"/><polygon fill="#A80036" points="922.7753,668.5921,916.3262,661.1484,918.2486,666.4686,912.9285,668.391,922.7753,668.5921" style="stroke: #A80036; stroke-width: 1.0;"/><!--link PROD_SDD to SR2_5--><path d="M978,606.9465 C978,622.8897 978,643.36 978,660.4978 " fill="none" id="PROD_SDD-SR2_5" style="stroke: #A80036; stroke-width: 2.0;"/><polygon fill="#A80036" points="978,665.7008,982,656.7008,978,660.7008,974,656.7008,978,665.7008" style="stroke: #A80036; stroke-width: 1.0;"/><polygon fill="#A80036" points="978,601.6754,974,610.6754,978,606.6754,982,610.6754,978,601.6754" style="stroke: #A80036; stroke-width: 1.0;"/><!--link SR2_5 to PROD_SERS_INITIATED--><path d="M923.6963,720.511 C875.7084,743.4968 807.5539,776.1423 769.1838,794.5212 " fill="none" id="SR2_5-PROD_SERS_INITIATED" style="stroke: #A80036; stroke-width: 2.0;"/><polygon fill="#A80036" points="764.6555,796.6902,774.5004,796.4097,769.1649,794.5302,771.0444,789.1947,764.6555,796.6902" style="stroke: #A80036; stroke-width: 1.0;"/><!--link PROD_SYSRS_INITIATED to SR2_6--><path d="M716.3732,606.0838 C702.3318,625.3695 683.2101,651.6331 669.461,670.5174 " fill="none" id="PROD_SYSRS_INITIATED-SR2_6" style="stroke: #A80036; stroke-width: 2.0;"/><polygon fill="#A80036" points="666.4382,674.6692,674.9693,669.7478,669.3812,670.6271,668.5019,665.039,666.4382,674.6692" style="stroke: #A80036; stroke-width: 1.0;"/><!--link PROD_SERS_INITIATED to SR2_6--><path d="M720.3504,782.9855 C713.3043,773.8407 705.299,763.4562 698,754 C688.9847,742.3203 678.9656,729.3586 670.5854,718.5224 " fill="none" id="PROD_SERS_INITIATED-SR2_6" style="stroke: #A80036; stroke-width: 2.0;"/><polygon fill="#A80036" points="667.341,714.3274,669.6831,723.8937,670.4,718.2825,676.0112,718.9994,667.341,714.3274" style="stroke: #A80036; stroke-width: 1.0;"/><!--link SR2_6 to PROD_SYSRS_VERIFIED--><path d="M652,674.3068 C652,656.8419 652,631.3221 652,611.3078 " fill="none" id="SR2_6-PROD_SYSRS_VERIFIED" style="stroke: #A80036; stroke-width: 2.0;"/><polygon fill="#A80036" points="652,606.0838,648,615.0838,652,611.0838,656,615.0838,652,606.0838" style="stroke: #A80036; stroke-width: 1.0;"/><!--link SR2_6 to PROD_SERS_VALIDATED--><path d="M652,714.6185 C652,732.1042 652,757.7047 652,777.7573 " fill="none" id="SR2_6-PROD_SERS_VALIDATED" style="stroke: #A80036; stroke-width: 2.0;"/><polygon fill="#A80036" points="652,782.9905,656,773.9905,652,777.9905,648,773.9905,652,782.9905" style="stroke: #A80036; stroke-width: 1.0;"/><!--link SR2_6 to META_CR--><path d="M636.6716,714.3573 C621.8986,733.495 599.4879,762.5271 583.4618,783.2881 " fill="none" id="SR2_6-META_CR" style="stroke: #A80036; stroke-width: 2.0;"/><polygon fill="#A80036" points="580.3459,787.3246,589.0117,782.6445,583.4012,783.3666,582.679,777.7561,580.3459,787.3246" style="stroke: #A80036; stroke-width: 1.0;"/><!--link PROD_SYSRS_VERIFIED to SR2_7--><path d="M633.0564,554.8021 C626.2004,545.6401 618.3389,535.2915 611,526 C601.5498,514.0355 590.6764,500.8894 581.8746,490.3959 " fill="none" id="PROD_SYSRS_VERIFIED-SR2_7" style="stroke: #A80036; stroke-width: 2.0;"/><polygon fill="#A80036" points="578.4872,486.3663,581.2166,495.8294,581.7046,490.1936,587.3403,490.6816,578.4872,486.3663" style="stroke: #A80036; stroke-width: 1.0;"/><!--link PROD_STRS_VALIDATED to SR2_7--><path d="M666.2997,368.8015 C642.0449,393.1518 606.2219,429.1158 584.3138,451.1101 " fill="none" id="PROD_STRS_VALIDATED-SR2_7" style="stroke: #A80036; stroke-width: 2.0;"/><polygon fill="#A80036" points="580.6562,454.7821,589.8416,451.2286,584.1848,451.2396,584.1737,445.5828,580.6562,454.7821" style="stroke: #A80036; stroke-width: 1.0;"/><!--link SR2_7 to PROD_SYSRS_VALIDATED--><path d="M565,486.7309 C565,503.2589 565,529.2907 565,549.7368 " fill="none" id="SR2_7-PROD_SYSRS_VALIDATED" style="stroke: #A80036; stroke-width: 2.0;"/><polygon fill="#A80036" points="565,554.8054,569,545.8054,565,549.8054,561,545.8054,565,554.8054" style="stroke: #A80036; stroke-width: 1.0;"/><!--link PROD_STRS_VALIDATED to SR2_8--><path d="M668.2206,368.6671 C661.4832,374.9384 653.8367,381.2135 646,386 C578.6942,427.1093 537.3031,392.8888 479,446 C430.2014,490.4531 416,514.4895 416,580.5 C416,580.5 416,580.5 416,694.5 C416,768.7032 453.6506,850.4386 474.1167,889.3869 " fill="none" id="PROD_STRS_VALIDATED-SR2_8" style="stroke: #A80036; stroke-width: 2.0;"/><polygon fill="#A80036" points="476.5237,893.9212,475.8368,884.0963,474.1793,889.5049,468.7707,887.8474,476.5237,893.9212" style="stroke: #A80036; stroke-width: 1.0;"/><!--link PROD_SYSRS_VALIDATED to SR2_8--><path d="M558.6955,606.0487 C550.379,639.8622 535.3514,701.3491 523,754 C511.7902,801.7848 499.1941,857.8059 492.2704,888.8116 " fill="none" id="PROD_SYSRS_VALIDATED-SR2_8" style="stroke: #A80036; stroke-width: 2.0;"/><polygon fill="#A80036" points="491.1271,893.9352,496.9915,886.0227,492.2163,889.0553,489.1836,884.28,491.1271,893.9352" style="stroke: #A80036; stroke-width: 1.0;"/><!--link PROD_SERS_VALIDATED to SR2_8--><path d="M623.0915,830.1887 C617.4875,834.2113 611.6115,838.3063 606,842 C578.4314,860.1466 546.1631,879.1296 522.1885,892.8201 " fill="none" id="PROD_SERS_VALIDATED-SR2_8" style="stroke: #A80036; stroke-width: 2.0;"/><polygon fill="#A80036" points="517.8114,895.3134,527.6115,894.3345,522.156,892.8386,523.6518,887.3831,517.8114,895.3134" style="stroke: #A80036; stroke-width: 1.0;"/><!--link SR2_8 to META_TRACE_MATRIX--><path d="M487,931.2152 C487,946.6223 487,968.6412 487,985.8008 " fill="none" id="SR2_8-META_TRACE_MATRIX" style="stroke: #A80036; stroke-width: 2.0;"/><polygon fill="#A80036" points="487,990.9575,491,981.9575,487,985.9575,483,981.9575,487,990.9575" style="stroke: #A80036; stroke-width: 1.0;"/><!--link PROD_SYSRS_VALIDATED to SR2_9--><path d="M593.5301,602.7191 C599.4485,606.7823 605.7807,610.7566 612,614 C673.0755,645.8509 711.445,615.2327 758,666 C817.3339,730.7025 820.6464,844.0798 819.2046,891.1142 " fill="none" id="PROD_SYSRS_VALIDATED-SR2_9" style="stroke: #A80036; stroke-width: 2.0;"/><polygon fill="#A80036" points="819.0196,896.25,823.3413,887.4,819.1997,891.2532,815.3465,887.1117,819.0196,896.25" style="stroke: #A80036; stroke-width: 1.0;"/><!--link PROD_SERS_VALIDATED to SR2_9--><path d="M680.8976,830.2053 C686.5026,834.2264 692.3818,838.3166 698,842 C727.8662,861.5806 763.2456,882.0514 787.8169,895.8576 " fill="none" id="PROD_SERS_VALIDATED-SR2_9" style="stroke: #A80036; stroke-width: 2.0;"/><polygon fill="#A80036" points="792.2753,898.3562,786.3799,890.4667,787.9136,895.9117,782.4687,897.4454,792.2753,898.3562" style="stroke: #A80036; stroke-width: 1.0;"/><!--link PROD_STRS_VALIDATED to SR2_9--><path d="M720.6931,344.0071 C822.737,349.2548 1162,381.6541 1162,580.5 C1162,580.5 1162,580.5 1162,694.5 C1162,830.6452 967.3803,885.3172 870.9139,904.054 " fill="none" id="PROD_STRS_VALIDATED-SR2_9" style="stroke: #A80036; stroke-width: 2.0;"/><polygon fill="#A80036" points="865.8317,905.0255,875.4227,907.2644,870.7428,904.0866,873.9205,899.4067,865.8317,905.0255" style="stroke: #A80036; stroke-width: 1.0;"/><!--link SR2_9 to PROD_IVV_PLAN_PUBLISHED--><path d="M806.432,928.4864 C795.145,944.0843 777.7914,968.0661 764.571,986.3359 " fill="none" id="SR2_9-PROD_IVV_PLAN_PUBLISHED" style="stroke: #A80036; stroke-width: 2.0;"/><polygon fill="#A80036" points="761.3051,990.8492,769.8217,985.9028,764.2362,986.7985,763.3406,981.213,761.3051,990.8492" style="stroke: #A80036; stroke-width: 1.0;"/><!--link SR2_9 to PROD_IVV_PROCEDURES_PUBLISHED--><path d="M839.2588,927.3962 C862.0989,943.4003 898.7401,969.0749 925.6747,987.9481 " fill="none" id="SR2_9-PROD_IVV_PROCEDURES_PUBLISHED" style="stroke: #A80036; stroke-width: 2.0;"/><polygon fill="#A80036" points="929.9106,990.9162,924.8354,982.4757,925.8158,988.047,920.2446,989.0274,929.9106,990.9162" style="stroke: #A80036; stroke-width: 1.0;"/><!--link SYS to ACQ--><!--link ACQ to STK--><!--link SYS to PJM--><!--link PJM to WT--><!--link WT to DES--><!--link PJM to IVV--><!--
@startuml



skinparam handwritten false
skinparam defaultFontName Futura


actor SYS
actor ACQ
actor STK
actor PJM
actor WT
actor DES
actor IVV

artifact "Project Plan" as PROD_PP
artifact "SEMP" as PROD_SEMP
artifact "SoW (reviewed)" as PROD_SOW_REVIEWED
artifact "SDD" as PROD_SDD
artifact "SERS" {
control "initiated" as PROD_SERS_INITIATED
control "validated" as PROD_SERS_VALIDATED
}
artifact "StRS" {
control "initiated" as PROD_STRS_INITIATED
control "verified" as PROD_STRS_VERIFIED
control "validated" as PROD_STRS_VALIDATED
}
artifact "SysRS" {
control "initiated" as PROD_SYSRS_INITIATED
control "verified" as PROD_SYSRS_VERIFIED
control "validated" as PROD_SYSRS_VALIDATED
}
artifact "IVV Plan (published)" as PROD_IVV_PLAN_PUBLISHED
artifact "IVV Procedures (published)" as PROD_IVV_PROCEDURES_PUBLISHED
artifact "Traceability Matrix" as META_TRACE_MATRIX
artifact "CR" as META_CR

usecase "Elicit Requirements" as SR2_1
usecase "Verify StRS" as SR2_2
usecase "Validate StRS" as SR2_3
usecase "Elaborate SysRS and Interfaces" as SR2_4
usecase "Elaborate SERS and System Interfaces" as SR2_5
usecase "Verify SysRS and SERS" as SR2_6
usecase "Validate SysRS" as SR2_7
usecase "Update Traceability" as SR2_8
usecase "Update IVV" as SR2_9

PROD_PP ==> SR2_1
PROD_SOW_REVIEWED ==> SR2_1
PROD_SEMP ==> SR2_1
SR2_1 ==> PROD_STRS_INITIATED

PROD_STRS_INITIATED ==> SR2_2
SR2_2 ==> PROD_STRS_VERIFIED

PROD_STRS_VERIFIED ==> SR2_3
SR2_3 ==> PROD_STRS_VALIDATED

PROD_STRS_VALIDATED ==> SR2_4
SR2_4 ==> PROD_SYSRS_INITIATED

PROD_SYSRS_INITIATED ==> SR2_5
PROD_SDD <==> SR2_5
SR2_5 ==> PROD_SERS_INITIATED

PROD_SYSRS_INITIATED ==> SR2_6
PROD_SERS_INITIATED ==> SR2_6
SR2_6 ==> PROD_SYSRS_VERIFIED
SR2_6 ==> PROD_SERS_VALIDATED
SR2_6 ==> META_CR

PROD_SYSRS_VERIFIED ==> SR2_7
PROD_STRS_VALIDATED ==> SR2_7
SR2_7 ==> PROD_SYSRS_VALIDATED

PROD_STRS_VALIDATED ==> SR2_8
PROD_SYSRS_VALIDATED ==> SR2_8
PROD_SERS_VALIDATED ==> SR2_8
SR2_8 ==> META_TRACE_MATRIX

PROD_SYSRS_VALIDATED ==> SR2_9
PROD_SERS_VALIDATED ==> SR2_9
PROD_STRS_VALIDATED ==> SR2_9
SR2_9 ==> PROD_IVV_PLAN_PUBLISHED
SR2_9 ==> PROD_IVV_PROCEDURES_PUBLISHED

@enduml

PlantUML version 1.2019.00(Sun Jan 13 07:46:42 PST 2019)
(GPL source distribution)
Java Runtime: Java(TM) SE Runtime Environment
JVM: Java HotSpot(TM) 64-Bit Server VM
Java Version: 10.0.1+10
Operating System: Mac OS X
OS Version: 10.14.3
Default Encoding: UTF-8
Language: en
Country: US
--></g></svg>