<svg xmlns="http://www.w3.org/2000/svg" height="298" preserveAspectRatio="none" style="width:624px;height:298px" width="624"><defs><filter height="300%" id="a" width="300%" x="-1" y="-1"><feGaussianBlur result="blurOut" stdDeviation="2"/><feColorMatrix in="blurOut" result="blurOut2" values="0 0 0 0 0 0 0 0 0 0 0 0 0 0 0 0 0 0 .4 0"/><feOffset dx="4" dy="4" in="blurOut2" result="blurOut3"/><feBlend in="SourceGraphic" in2="blurOut3"/></filter></defs><circle cx="21" cy="18" fill="#FEFECE" filter="url(#a)" stroke="#a80036" stroke-width="2" r="8"/><path d="M21 26v27M8 34h26M21 53L8 68m13-15l13 15" fill="none" filter="url(#a)" stroke="#a80036" stroke-width="2"/><text font-family="Futura" font-size="14" lengthAdjust="spacingAndGlyphs" textLength="24" x="9" y="89.957">SYS</text><circle cx="86" cy="18" fill="#FEFECE" filter="url(#a)" stroke="#a80036" stroke-width="2" r="8"/><path d="M86 26v27M73 34h26M86 53L73 68m13-15l13 15" fill="none" filter="url(#a)" stroke="#a80036" stroke-width="2"/><text font-family="Futura" font-size="14" lengthAdjust="spacingAndGlyphs" textLength="22" x="75" y="89.957">IVV</text><path fill="#FEFECE" filter="url(#a)" stroke="#000" stroke-width="1.5" d="M136.5 30h133v41.594h-133z"/><path fill="#FEFECE" stroke="#000" stroke-width="1.5" d="M252.5 35v14h12v-8l-6-6h-6z"/><path stroke="#000" stroke-width="1.5" d="M258.5 35v6M264.5 41h-6"/><text font-family="Futura" font-size="14" lengthAdjust="spacingAndGlyphs" textLength="103" x="146.5" y="57.957">SERS (validated)</text><path fill="#FEFECE" filter="url(#a)" stroke="#000" stroke-width="1.5" d="M304.5 30h129v41.594h-129z"/><path fill="#FEFECE" stroke="#000" stroke-width="1.5" d="M416.5 35v14h12v-8l-6-6h-6z"/><path stroke="#000" stroke-width="1.5" d="M422.5 35v6M428.5 41h-6"/><text font-family="Futura" font-size="14" lengthAdjust="spacingAndGlyphs" textLength="99" x="314.5" y="57.957">StRS (validated)</text><path fill="#FEFECE" filter="url(#a)" stroke="#000" stroke-width="1.5" d="M468.5 30h139v41.594h-139z"/><path fill="#FEFECE" stroke="#000" stroke-width="1.5" d="M590.5 35v14h12v-8l-6-6h-6z"/><path stroke="#000" stroke-width="1.5" d="M596.5 35v6M602.5 41h-6"/><text font-family="Futura" font-size="14" lengthAdjust="spacingAndGlyphs" textLength="109" x="478.5" y="57.957">SysRS (validated)</text><path fill="#FEFECE" filter="url(#a)" stroke="#000" stroke-width="1.5" d="M183.5 246h157v41.594h-157z"/><path fill="#FEFECE" stroke="#000" stroke-width="1.5" d="M323.5 251v14h12v-8l-6-6h-6z"/><path stroke="#000" stroke-width="1.5" d="M329.5 251v6M335.5 257h-6"/><text font-family="Futura" font-size="14" lengthAdjust="spacingAndGlyphs" textLength="127" x="193.5" y="273.957">IVV Plan (published)</text><path fill="#FEFECE" filter="url(#a)" stroke="#000" stroke-width="1.5" d="M375.5 246h201v41.594h-201z"/><path fill="#FEFECE" stroke="#000" stroke-width="1.5" d="M559.5 251v14h12v-8l-6-6h-6z"/><path stroke="#000" stroke-width="1.5" d="M565.5 251v6M571.5 257h-6"/><text font-family="Futura" font-size="14" lengthAdjust="spacingAndGlyphs" textLength="171" x="385.5" y="273.957">IVV Procedures (published)</text><ellipse cx="368.912" cy="170.148" fill="#FEFECE" filter="url(#a)" rx="53.912" ry="16.148" stroke="#a80036" stroke-width="1.5"/><text font-family="Futura" font-size="14" lengthAdjust="spacingAndGlyphs" textLength="72" x="332.912" y="175.945">Update IVV</text><path d="M508.175 72l-113.843 80.163" fill="none" stroke="#a80036" stroke-width="2"/><path fill="#A80036" stroke="#a80036" d="M389.992 155.219l9.661-1.911-5.573-.968.968-5.573-5.056 8.452z"/><path d="M232.295 72l111.32 79.802" fill="none" stroke="#a80036" stroke-width="2"/><path fill="#A80036" stroke="#a80036" d="M347.89 154.866l-4.985-8.494.92 5.581-5.581.92 9.645 1.993z"/><path d="M369 72v76.538" fill="none" stroke="#a80036" stroke-width="2"/><path fill="#A80036" stroke="#a80036" d="M369 153.79l4-9-4 4-4-4 4 9z"/><path d="M351.809 185.585l-62.43 56.595" fill="none" stroke="#a80036" stroke-width="2"/><path fill="#A80036" stroke="#a80036" d="M285.531 245.668l9.355-3.081-5.65-.277.277-5.65-3.982 9.008z"/><path d="M386.191 185.585l62.43 56.595" fill="none" stroke="#a80036" stroke-width="2"/><path fill="#A80036" stroke="#a80036" d="M452.469 245.668l-3.982-9.008.277 5.65-5.65.277 9.355 3.08z"/></svg>