<?xml version="1.0" encoding="UTF-8" standalone="no"?><svg xmlns="http://www.w3.org/2000/svg" xmlns:xlink="http://www.w3.org/1999/xlink" contentScriptType="application/ecmascript" contentStyleType="text/css" height="298px" preserveAspectRatio="none" style="width:624px;height:298px;" version="1.1" viewBox="0 0 624 298" width="624px" zoomAndPan="magnify"><defs><filter height="300%" id="fj57ov1r07j8w" width="300%" x="-1" y="-1"><feGaussianBlur result="blurOut" stdDeviation="2.0"/><feColorMatrix in="blurOut" result="blurOut2" type="matrix" values="0 0 0 0 0 0 0 0 0 0 0 0 0 0 0 0 0 0 .4 0"/><feOffset dx="4.0" dy="4.0" in="blurOut2" result="blurOut3"/><feBlend in="SourceGraphic" in2="blurOut3" mode="normal"/></filter></defs><g><!--entity SYS--><ellipse cx="21" cy="18" fill="#FEFECE" filter="url(#fj57ov1r07j8w)" rx="8" ry="8" style="stroke: #A80036; stroke-width: 2.0;"/><path d="M21,26 L21,53 M8,34 L34,34 M21,53 L8,68 M21,53 L34,68 " fill="none" filter="url(#fj57ov1r07j8w)" style="stroke: #A80036; stroke-width: 2.0;"/><text fill="#000000" font-family="Futura" font-size="14" lengthAdjust="spacingAndGlyphs" textLength="24" x="9" y="89.957">SYS</text><!--entity IVV--><ellipse cx="86" cy="18" fill="#FEFECE" filter="url(#fj57ov1r07j8w)" rx="8" ry="8" style="stroke: #A80036; stroke-width: 2.0;"/><path d="M86,26 L86,53 M73,34 L99,34 M86,53 L73,68 M86,53 L99,68 " fill="none" filter="url(#fj57ov1r07j8w)" style="stroke: #A80036; stroke-width: 2.0;"/><text fill="#000000" font-family="Futura" font-size="14" lengthAdjust="spacingAndGlyphs" textLength="22" x="75" y="89.957">IVV</text><!--entity PROD_SERS_VALIDATED--><rect fill="#FEFECE" filter="url(#fj57ov1r07j8w)" height="41.5938" style="stroke: #000000; stroke-width: 1.5;" width="133" x="136.5" y="30"/><polygon fill="#FEFECE" points="252.5,35,252.5,49,264.5,49,264.5,41,258.5,35,252.5,35" style="stroke: #000000; stroke-width: 1.5;"/><line style="stroke: #000000; stroke-width: 1.5;" x1="258.5" x2="258.5" y1="35" y2="41"/><line style="stroke: #000000; stroke-width: 1.5;" x1="264.5" x2="258.5" y1="41" y2="41"/><text fill="#000000" font-family="Futura" font-size="14" lengthAdjust="spacingAndGlyphs" textLength="103" x="146.5" y="57.957">SERS (validated)</text><!--entity PROD_STRS_VALIDATED--><rect fill="#FEFECE" filter="url(#fj57ov1r07j8w)" height="41.5938" style="stroke: #000000; stroke-width: 1.5;" width="129" x="304.5" y="30"/><polygon fill="#FEFECE" points="416.5,35,416.5,49,428.5,49,428.5,41,422.5,35,416.5,35" style="stroke: #000000; stroke-width: 1.5;"/><line style="stroke: #000000; stroke-width: 1.5;" x1="422.5" x2="422.5" y1="35" y2="41"/><line style="stroke: #000000; stroke-width: 1.5;" x1="428.5" x2="422.5" y1="41" y2="41"/><text fill="#000000" font-family="Futura" font-size="14" lengthAdjust="spacingAndGlyphs" textLength="99" x="314.5" y="57.957">StRS (validated)</text><!--entity PROD_SYSRS_VALIDATED--><rect fill="#FEFECE" filter="url(#fj57ov1r07j8w)" height="41.5938" style="stroke: #000000; stroke-width: 1.5;" width="139" x="468.5" y="30"/><polygon fill="#FEFECE" points="590.5,35,590.5,49,602.5,49,602.5,41,596.5,35,590.5,35" style="stroke: #000000; stroke-width: 1.5;"/><line style="stroke: #000000; stroke-width: 1.5;" x1="596.5" x2="596.5" y1="35" y2="41"/><line style="stroke: #000000; stroke-width: 1.5;" x1="602.5" x2="596.5" y1="41" y2="41"/><text fill="#000000" font-family="Futura" font-size="14" lengthAdjust="spacingAndGlyphs" textLength="109" x="478.5" y="57.957">SysRS (validated)</text><!--entity PROD_IVV_PLAN_PUBLISHED--><rect fill="#FEFECE" filter="url(#fj57ov1r07j8w)" height="41.5938" style="stroke: #000000; stroke-width: 1.5;" width="157" x="183.5" y="246"/><polygon fill="#FEFECE" points="323.5,251,323.5,265,335.5,265,335.5,257,329.5,251,323.5,251" style="stroke: #000000; stroke-width: 1.5;"/><line style="stroke: #000000; stroke-width: 1.5;" x1="329.5" x2="329.5" y1="251" y2="257"/><line style="stroke: #000000; stroke-width: 1.5;" x1="335.5" x2="329.5" y1="257" y2="257"/><text fill="#000000" font-family="Futura" font-size="14" lengthAdjust="spacingAndGlyphs" textLength="127" x="193.5" y="273.957">IVV Plan (published)</text><!--entity PROD_IVV_PROCEDURES_PUBLISHED--><rect fill="#FEFECE" filter="url(#fj57ov1r07j8w)" height="41.5938" style="stroke: #000000; stroke-width: 1.5;" width="201" x="375.5" y="246"/><polygon fill="#FEFECE" points="559.5,251,559.5,265,571.5,265,571.5,257,565.5,251,559.5,251" style="stroke: #000000; stroke-width: 1.5;"/><line style="stroke: #000000; stroke-width: 1.5;" x1="565.5" x2="565.5" y1="251" y2="257"/><line style="stroke: #000000; stroke-width: 1.5;" x1="571.5" x2="565.5" y1="257" y2="257"/><text fill="#000000" font-family="Futura" font-size="14" lengthAdjust="spacingAndGlyphs" textLength="171" x="385.5" y="273.957">IVV Procedures (published)</text><ellipse cx="368.9117" cy="170.1478" fill="#FEFECE" filter="url(#fj57ov1r07j8w)" rx="53.9117" ry="16.1478" style="stroke: #A80036; stroke-width: 1.5;"/><text fill="#000000" font-family="Futura" font-size="14" lengthAdjust="spacingAndGlyphs" textLength="72" x="332.9117" y="175.9446">Update IVV</text><!--link PROD_SYSRS_VALIDATED to SR2_9--><path d="M508.1752,72.0009 C475.8417,94.7683 424.7909,130.7153 394.3317,152.1629 " fill="none" id="PROD_SYSRS_VALIDATED-SR2_9" style="stroke: #A80036; stroke-width: 2.0;"/><polygon fill="#A80036" points="389.9918,155.2188,399.6535,153.3078,394.08,152.3401,395.0476,146.7667,389.9918,155.2188" style="stroke: #A80036; stroke-width: 1.0;"/><!--link PROD_SERS_VALIDATED to SR2_9--><path d="M232.2954,72.0009 C263.8775,94.6411 313.6397,130.314 343.6147,151.8021 " fill="none" id="PROD_SERS_VALIDATED-SR2_9" style="stroke: #A80036; stroke-width: 2.0;"/><polygon fill="#A80036" points="347.8891,154.8663,342.9049,146.3717,343.8254,151.9532,338.2439,152.8736,347.8891,154.8663" style="stroke: #A80036; stroke-width: 1.0;"/><!--link PROD_STRS_VALIDATED to SR2_9--><path d="M369,72.0009 C369,93.5297 369,126.8432 369,148.5383 " fill="none" id="PROD_STRS_VALIDATED-SR2_9" style="stroke: #A80036; stroke-width: 2.0;"/><polygon fill="#A80036" points="369,153.7895,373,144.7895,369,148.7895,365,144.7895,369,153.7895" style="stroke: #A80036; stroke-width: 1.0;"/><!--link SR2_9 to PROD_IVV_PLAN_PUBLISHED--><path d="M351.8086,185.5847 C334.9722,200.8476 309.0524,224.345 289.3783,242.1805 " fill="none" id="SR2_9-PROD_IVV_PLAN_PUBLISHED" style="stroke: #A80036; stroke-width: 2.0;"/><polygon fill="#A80036" points="285.5312,245.6679,294.8857,242.5868,289.2356,242.3098,289.5127,236.6597,285.5312,245.6679" style="stroke: #A80036; stroke-width: 1.0;"/><!--link SR2_9 to PROD_IVV_PROCEDURES_PUBLISHED--><path d="M386.1914,185.5847 C403.0278,200.8476 428.9476,224.345 448.6217,242.1805 " fill="none" id="SR2_9-PROD_IVV_PROCEDURES_PUBLISHED" style="stroke: #A80036; stroke-width: 2.0;"/><polygon fill="#A80036" points="452.4688,245.6679,448.4873,236.6597,448.7644,242.3098,443.1143,242.5868,452.4688,245.6679" style="stroke: #A80036; stroke-width: 1.0;"/><!--
@startuml



skinparam handwritten false
skinparam defaultFontName Futura


actor SYS
actor IVV

artifact "SERS (validated)" as PROD_SERS_VALIDATED
artifact "StRS (validated)" as PROD_STRS_VALIDATED
artifact "SysRS (validated)" as PROD_SYSRS_VALIDATED
artifact "IVV Plan (published)" as PROD_IVV_PLAN_PUBLISHED
artifact "IVV Procedures (published)" as PROD_IVV_PROCEDURES_PUBLISHED

usecase "Update IVV" as SR2_9
PROD_SYSRS_VALIDATED ==> SR2_9
PROD_SERS_VALIDATED ==> SR2_9
PROD_STRS_VALIDATED ==> SR2_9
SR2_9 ==> PROD_IVV_PLAN_PUBLISHED
SR2_9 ==> PROD_IVV_PROCEDURES_PUBLISHED

@enduml

PlantUML version 1.2019.00(Sun Jan 13 07:46:42 PST 2019)
(GPL source distribution)
Java Runtime: Java(TM) SE Runtime Environment
JVM: Java HotSpot(TM) 64-Bit Server VM
Java Version: 10.0.1+10
Operating System: Mac OS X
OS Version: 10.14.3
Default Encoding: UTF-8
Language: en
Country: US
--></g></svg>