<svg xmlns="http://www.w3.org/2000/svg" height="323" preserveAspectRatio="none" style="width:409px;height:323px" width="409"><defs><filter height="300%" id="a" width="300%" x="-1" y="-1"><feGaussianBlur result="blurOut" stdDeviation="2"/><feColorMatrix in="blurOut" result="blurOut2" values="0 0 0 0 0 0 0 0 0 0 0 0 0 0 0 0 0 0 .4 0"/><feOffset dx="4" dy="4" in="blurOut2" result="blurOut3"/><feBlend in="SourceGraphic" in2="blurOut3"/></filter></defs><circle cx="21" cy="18" fill="#FEFECE" filter="url(#a)" stroke="#a80036" stroke-width="2" r="8"/><path d="M21 26v27M8 34h26M21 53L8 68m13-15l13 15" fill="none" filter="url(#a)" stroke="#a80036" stroke-width="2"/><text font-family="Futura" font-size="14" lengthAdjust="spacingAndGlyphs" textLength="24" x="9" y="89.957">SYS</text><circle cx="86" cy="18" fill="#FEFECE" filter="url(#a)" stroke="#a80036" stroke-width="2" r="8"/><path d="M86 26v27M73 34h26M86 53L73 68m13-15l13 15" fill="none" filter="url(#a)" stroke="#a80036" stroke-width="2"/><text font-family="Futura" font-size="14" lengthAdjust="spacingAndGlyphs" textLength="26" x="73" y="89.957">DES</text><path fill="#FEFECE" filter="url(#a)" stroke="#000" stroke-width="1.5" d="M204.5 271h125v41.594h-125z"/><path fill="#FEFECE" stroke="#000" stroke-width="1.5" d="M312.5 276v14h12v-8l-6-6h-6z"/><path stroke="#000" stroke-width="1.5" d="M318.5 276v6M324.5 282h-6"/><text font-family="Futura" font-size="14" lengthAdjust="spacingAndGlyphs" textLength="95" x="214.5" y="298.957">SERS (initiated)</text><path fill="#FEFECE" filter="url(#a)" stroke="#000" stroke-width="1.5" d="M136.5 30h131v41.594h-131z"/><path fill="#FEFECE" stroke="#000" stroke-width="1.5" d="M250.5 35v14h12v-8l-6-6h-6z"/><path stroke="#000" stroke-width="1.5" d="M256.5 35v6M262.5 41h-6"/><text font-family="Futura" font-size="14" lengthAdjust="spacingAndGlyphs" textLength="101" x="146.5" y="57.957">SysRS (initiated)</text><path fill="#FEFECE" filter="url(#a)" stroke="#000" stroke-width="1.5" d="M303 30h58v41.594h-58z"/><path fill="#FEFECE" stroke="#000" stroke-width="1.5" d="M344 35v14h12v-8l-6-6h-6z"/><path stroke="#000" stroke-width="1.5" d="M350 35v6M356 41h-6"/><text font-family="Futura" font-size="14" lengthAdjust="spacingAndGlyphs" textLength="28" x="313" y="57.957">SDD</text><ellipse cx="267.223" cy="182.644" fill="#FEFECE" filter="url(#a)" rx="131.223" ry="28.645" stroke="#a80036" stroke-width="1.5"/><text font-family="Futura" font-size="14" lengthAdjust="spacingAndGlyphs" textLength="239" x="147.723" y="188.441">Elaborate SERS and System Interfaces</text><path d="M212.443 72.128l38.16 77.201" fill="none" stroke="#a80036" stroke-width="2"/><path fill="#A80036" stroke="#a80036" d="M252.945 154.065l-.403-9.84-1.813 5.358-5.358-1.813 7.574 6.295z"/><path d="M319.288 76.717l-35.911 72.651" fill="none" stroke="#a80036" stroke-width="2"/><path fill="#A80036" stroke="#a80036" d="M281.055 154.065l7.574-6.295-5.358 1.813-1.813-5.358-.403 9.84zM321.557 72.128l-7.575 6.295 5.359-1.813 1.813 5.358.403-9.84z"/><path d="M267 211.27v54.057" fill="none" stroke="#a80036" stroke-width="2"/><path fill="#A80036" stroke="#a80036" d="M267 270.688l4-9-4 4-4-4 4 9z"/></svg>