<?xml version="1.0" encoding="UTF-8" standalone="no"?><svg xmlns="http://www.w3.org/2000/svg" xmlns:xlink="http://www.w3.org/1999/xlink" contentScriptType="application/ecmascript" contentStyleType="text/css" height="224px" preserveAspectRatio="none" style="width:441px;height:224px;" version="1.1" viewBox="0 0 441 224" width="441px" zoomAndPan="magnify"><defs><filter height="300%" id="f9q4h28c625m6" width="300%" x="-1" y="-1"><feGaussianBlur result="blurOut" stdDeviation="2.0"/><feColorMatrix in="blurOut" result="blurOut2" type="matrix" values="0 0 0 0 0 0 0 0 0 0 0 0 0 0 0 0 0 0 .4 0"/><feOffset dx="4.0" dy="4.0" in="blurOut2" result="blurOut3"/><feBlend in="SourceGraphic" in2="blurOut3" mode="normal"/></filter></defs><g><!--cluster SERS--><rect fill="#FFFFFF" filter="url(#f9q4h28c625m6)" height="88" style="stroke: #000000; stroke-width: 1.5;" width="158" x="100" y="125"/><polygon fill="#FFFFFF" points="241,130,241,144,253,144,253,136,247,130,241,130" style="stroke: #000000; stroke-width: 1.5;"/><line style="stroke: #000000; stroke-width: 1.5;" x1="247" x2="247" y1="130" y2="136"/><line style="stroke: #000000; stroke-width: 1.5;" x1="253" x2="247" y1="136" y2="136"/><text fill="#000000" font-family="Futura" font-size="14" font-weight="bold" lengthAdjust="spacingAndGlyphs" textLength="36" x="161" y="141.966">SERS</text><!--cluster SysRS--><rect fill="#FFFFFF" filter="url(#f9q4h28c625m6)" height="88" style="stroke: #000000; stroke-width: 1.5;" width="147" x="277" y="125"/><polygon fill="#FFFFFF" points="407,130,407,144,419,144,419,136,413,130,407,130" style="stroke: #000000; stroke-width: 1.5;"/><line style="stroke: #000000; stroke-width: 1.5;" x1="413" x2="413" y1="130" y2="136"/><line style="stroke: #000000; stroke-width: 1.5;" x1="419" x2="413" y1="136" y2="136"/><text fill="#000000" font-family="Futura" font-size="14" font-weight="bold" lengthAdjust="spacingAndGlyphs" textLength="45" x="328" y="141.966">SysRS</text><!--entity PROD_SERS_INITIATED--><ellipse cx="225" cy="170" fill="#FEFECE" filter="url(#f9q4h28c625m6)" rx="12" ry="12" style="stroke: #A80036; stroke-width: 2.0;"/><polygon fill="#A80036" points="221,158,227,153,225,158,227,163,221,158" style="stroke: #A80036; stroke-width: 1.0;"/><text fill="#000000" font-family="Futura" font-size="14" lengthAdjust="spacingAndGlyphs" textLength="49" x="200.5" y="200.957">initiated</text><!--entity PROD_SERS_VALIDATED--><ellipse cx="137" cy="170" fill="#FEFECE" filter="url(#f9q4h28c625m6)" rx="12" ry="12" style="stroke: #A80036; stroke-width: 2.0;"/><polygon fill="#A80036" points="133,158,139,153,137,158,139,163,133,158" style="stroke: #A80036; stroke-width: 1.0;"/><text fill="#000000" font-family="Futura" font-size="14" lengthAdjust="spacingAndGlyphs" textLength="57" x="108.5" y="200.957">validated</text><!--entity PROD_SYSRS_INITIATED--><ellipse cx="391" cy="170" fill="#FEFECE" filter="url(#f9q4h28c625m6)" rx="12" ry="12" style="stroke: #A80036; stroke-width: 2.0;"/><polygon fill="#A80036" points="387,158,393,153,391,158,393,163,387,158" style="stroke: #A80036; stroke-width: 1.0;"/><text fill="#000000" font-family="Futura" font-size="14" lengthAdjust="spacingAndGlyphs" textLength="49" x="366.5" y="200.957">initiated</text><!--entity PROD_SYSRS_VERIFIED--><ellipse cx="308" cy="170" fill="#FEFECE" filter="url(#f9q4h28c625m6)" rx="12" ry="12" style="stroke: #A80036; stroke-width: 2.0;"/><polygon fill="#A80036" points="304,158,310,153,308,158,310,163,304,158" style="stroke: #A80036; stroke-width: 1.0;"/><text fill="#000000" font-family="Futura" font-size="14" lengthAdjust="spacingAndGlyphs" textLength="46" x="285" y="200.957">verified</text><!--entity PJM--><ellipse cx="21" cy="18" fill="#FEFECE" filter="url(#f9q4h28c625m6)" rx="8" ry="8" style="stroke: #A80036; stroke-width: 2.0;"/><path d="M21,26 L21,53 M8,34 L34,34 M21,53 L8,68 M21,53 L34,68 " fill="none" filter="url(#f9q4h28c625m6)" style="stroke: #A80036; stroke-width: 2.0;"/><text fill="#000000" font-family="Futura" font-size="14" lengthAdjust="spacingAndGlyphs" textLength="27" x="7.5" y="89.957">PJM</text><!--entity WT--><ellipse cx="86" cy="18" fill="#FEFECE" filter="url(#f9q4h28c625m6)" rx="8" ry="8" style="stroke: #A80036; stroke-width: 2.0;"/><path d="M86,26 L86,53 M73,34 L99,34 M86,53 L73,68 M86,53 L99,68 " fill="none" filter="url(#f9q4h28c625m6)" style="stroke: #A80036; stroke-width: 2.0;"/><text fill="#000000" font-family="Futura" font-size="14" lengthAdjust="spacingAndGlyphs" textLength="22" x="75" y="89.957">WT</text><!--entity META_CR--><rect fill="#FEFECE" filter="url(#f9q4h28c625m6)" height="41.5938" style="stroke: #000000; stroke-width: 1.5;" width="48" x="25" y="158.5"/><polygon fill="#FEFECE" points="56,163.5,56,177.5,68,177.5,68,169.5,62,163.5,56,163.5" style="stroke: #000000; stroke-width: 1.5;"/><line style="stroke: #000000; stroke-width: 1.5;" x1="62" x2="62" y1="163.5" y2="169.5"/><line style="stroke: #000000; stroke-width: 1.5;" x1="68" x2="62" y1="169.5" y2="169.5"/><text fill="#000000" font-family="Futura" font-size="14" lengthAdjust="spacingAndGlyphs" textLength="18" x="35" y="186.457">CR</text><ellipse cx="224.7822" cy="51.0564" fill="#FEFECE" filter="url(#f9q4h28c625m6)" rx="88.2822" ry="20.0564" style="stroke: #A80036; stroke-width: 1.5;"/><text fill="#000000" font-family="Futura" font-size="14" lengthAdjust="spacingAndGlyphs" textLength="143" x="153.2822" y="56.8533">Verify SysRS and SERS</text><!--link PROD_SYSRS_INITIATED to SR2_6--><path d="M374.3911,153.9532 C367.2963,144.1964 358.4682,133.4074 349,125 C324.7346,103.453 293.3051,84.7764 268.1604,71.5764 " fill="none" id="PROD_SYSRS_INITIATED-SR2_6" style="stroke: #A80036; stroke-width: 2.0;"/><polygon fill="#A80036" points="263.5416,69.1759,269.6827,76.8757,267.9782,71.4818,273.3721,69.7772,263.5416,69.1759" style="stroke: #A80036; stroke-width: 1.0;"/><!--link PROD_SERS_INITIATED to SR2_6--><path d="M225,153.8049 C225,131.2631 225,98.6736 225,76.2617 " fill="none" id="PROD_SERS_INITIATED-SR2_6" style="stroke: #A80036; stroke-width: 2.0;"/><polygon fill="#A80036" points="225,71.0781,221,80.0781,225,76.0781,229,80.0781,225,71.0781" style="stroke: #A80036; stroke-width: 1.0;"/><!--link SR2_6 to PROD_SYSRS_VERIFIED--><path d="M237.7869,70.7965 C251.3144,91.7397 272.8254,125.043 288.4761,149.2732 " fill="none" id="SR2_6-PROD_SYSRS_VERIFIED" style="stroke: #A80036; stroke-width: 2.0;"/><polygon fill="#A80036" points="291.3269,153.6869,289.8037,143.9565,288.614,149.4869,283.0837,148.2971,291.3269,153.6869" style="stroke: #A80036; stroke-width: 1.0;"/><!--link SR2_6 to PROD_SERS_VALIDATED--><path d="M211.4429,70.7965 C197.1004,91.7397 174.2935,125.043 157.7001,149.2732 " fill="none" id="SR2_6-PROD_SERS_VALIDATED" style="stroke: #A80036; stroke-width: 2.0;"/><polygon fill="#A80036" points="154.6775,153.6869,163.0631,148.5214,157.5027,149.5616,156.4625,144.0012,154.6775,153.6869" style="stroke: #A80036; stroke-width: 1.0;"/><!--link SR2_6 to META_CR--><path d="M183.6728,68.749 C155.9804,81.8478 119.6649,101.4478 92,125 C82.1233,133.4085 72.9511,144.3795 65.6367,154.2723 " fill="none" id="SR2_6-META_CR" style="stroke: #A80036; stroke-width: 2.0;"/><polygon fill="#A80036" points="62.619,158.4354,71.1397,153.496,65.5535,154.3871,64.6624,148.8008,62.619,158.4354" style="stroke: #A80036; stroke-width: 1.0;"/><!--
@startuml



skinparam handwritten false
skinparam defaultFontName Futura


actor PJM
actor WT

artifact "SERS" {
control "initiated" as PROD_SERS_INITIATED
control "validated" as PROD_SERS_VALIDATED
}
artifact "SysRS" {
control "initiated" as PROD_SYSRS_INITIATED
control "verified" as PROD_SYSRS_VERIFIED
}
artifact "CR" as META_CR

usecase "Verify SysRS and SERS" as SR2_6
PROD_SYSRS_INITIATED ==> SR2_6
PROD_SERS_INITIATED ==> SR2_6
SR2_6 ==> PROD_SYSRS_VERIFIED
SR2_6 ==> PROD_SERS_VALIDATED
SR2_6 ==> META_CR

@enduml

PlantUML version 1.2019.00(Sun Jan 13 07:46:42 PST 2019)
(GPL source distribution)
Java Runtime: Java(TM) SE Runtime Environment
JVM: Java HotSpot(TM) 64-Bit Server VM
Java Version: 10.0.1+10
Operating System: Mac OS X
OS Version: 10.14.3
Default Encoding: UTF-8
Language: en
Country: US
--></g></svg>