<svg xmlns="http://www.w3.org/2000/svg" height="370" preserveAspectRatio="none" style="width:296px;height:370px" width="296"><defs><filter height="300%" id="a" width="300%" x="-1" y="-1"><feGaussianBlur result="blurOut" stdDeviation="2"/><feColorMatrix in="blurOut" result="blurOut2" values="0 0 0 0 0 0 0 0 0 0 0 0 0 0 0 0 0 0 .4 0"/><feOffset dx="4" dy="4" in="blurOut2" result="blurOut3"/><feBlend in="SourceGraphic" in2="blurOut3"/></filter></defs><path fill="#FFF" filter="url(#a)" stroke="#000" stroke-width="1.5" d="M124 271h155v88H124z"/><path fill="#FFF" stroke="#000" stroke-width="1.5" d="M262 276v14h12v-8l-6-6h-6z"/><path stroke="#000" stroke-width="1.5" d="M268 276v6M274 282h-6"/><text font-family="Futura" font-size="14" font-weight="bold" lengthAdjust="spacingAndGlyphs" textLength="45" x="179" y="287.966">SysRS</text><circle cx="248" cy="316" fill="#FEFECE" filter="url(#a)" stroke="#a80036" stroke-width="2" r="12"/><path fill="#A80036" stroke="#a80036" d="M244 304l6-5-2 5 2 5-6-5z"/><text font-family="Futura" font-size="14" lengthAdjust="spacingAndGlyphs" textLength="46" x="225" y="346.957">verified</text><circle cx="161" cy="316" fill="#FEFECE" filter="url(#a)" stroke="#a80036" stroke-width="2" r="12"/><path fill="#A80036" stroke="#a80036" d="M157 304l6-5-2 5 2 5-6-5z"/><text font-family="Futura" font-size="14" lengthAdjust="spacingAndGlyphs" textLength="57" x="132.5" y="346.957">validated</text><circle cx="21" cy="18" fill="#FEFECE" filter="url(#a)" stroke="#a80036" stroke-width="2" r="8"/><path d="M21 26v27M8 34h26M21 53L8 68m13-15l13 15" fill="none" filter="url(#a)" stroke="#a80036" stroke-width="2"/><text font-family="Futura" font-size="14" lengthAdjust="spacingAndGlyphs" textLength="24" x="9" y="89.957">SYS</text><circle cx="88" cy="18" fill="#FEFECE" filter="url(#a)" stroke="#a80036" stroke-width="2" r="8"/><path d="M88 26v27M75 34h26M88 53L75 68m13-15l13 15" fill="none" filter="url(#a)" stroke="#a80036" stroke-width="2"/><text font-family="Futura" font-size="14" lengthAdjust="spacingAndGlyphs" textLength="33" x="71.5" y="89.957">ACQ</text><circle cx="21" cy="164" fill="#FEFECE" filter="url(#a)" stroke="#a80036" stroke-width="2" r="8"/><path d="M21 172v27M8 180h26m-13 19L8 214m13-15l13 15" fill="none" filter="url(#a)" stroke="#a80036" stroke-width="2"/><text font-family="Futura" font-size="14" lengthAdjust="spacingAndGlyphs" textLength="24" x="9" y="235.957">STK</text><path fill="#FEFECE" filter="url(#a)" stroke="#000" stroke-width="1.5" d="M139.5 30h129v41.594h-129z"/><path fill="#FEFECE" stroke="#000" stroke-width="1.5" d="M251.5 35v14h12v-8l-6-6h-6z"/><path stroke="#000" stroke-width="1.5" d="M257.5 35v6M263.5 41h-6"/><text font-family="Futura" font-size="14" lengthAdjust="spacingAndGlyphs" textLength="99" x="149.5" y="57.957">StRS (validated)</text><ellipse cx="204.25" cy="197.15" fill="#FEFECE" filter="url(#a)" rx="68.75" ry="16.15" stroke="#a80036" stroke-width="1.5"/><text font-family="Futura" font-size="14" lengthAdjust="spacingAndGlyphs" textLength="93" x="157.75" y="202.947">Validate SysRS</text><path d="M239.254 299.957l-28.11-82.096" fill="none" stroke="#a80036" stroke-width="2"/><path fill="#A80036" stroke="#a80036" d="M209.484 213.015l-.869 9.81 2.488-5.08 5.08 2.489-6.7-7.22z"/><path d="M204 72.23v103.217" fill="none" stroke="#a80036" stroke-width="2"/><path fill="#A80036" stroke="#a80036" d="M204 180.714l4-9-4 4-4-4 4 9z"/><path d="M198.641 213.015l-27.42 81.938" fill="none" stroke="#a80036" stroke-width="2"/><path fill="#A80036" stroke="#a80036" d="M169.548 299.957l6.649-7.266-5.063 2.524-2.524-5.063.938 9.805z"/></svg>