<svg xmlns="http://www.w3.org/2000/svg" height="224" preserveAspectRatio="none" style="width:441px;height:224px" width="441"><defs><filter height="300%" id="a" width="300%" x="-1" y="-1"><feGaussianBlur result="blurOut" stdDeviation="2"/><feColorMatrix in="blurOut" result="blurOut2" values="0 0 0 0 0 0 0 0 0 0 0 0 0 0 0 0 0 0 .4 0"/><feOffset dx="4" dy="4" in="blurOut2" result="blurOut3"/><feBlend in="SourceGraphic" in2="blurOut3"/></filter></defs><path fill="#FFF" filter="url(#a)" stroke="#000" stroke-width="1.5" d="M100 125h158v88H100z"/><path fill="#FFF" stroke="#000" stroke-width="1.5" d="M241 130v14h12v-8l-6-6h-6z"/><path stroke="#000" stroke-width="1.5" d="M247 130v6M253 136h-6"/><text font-family="Futura" font-size="14" font-weight="bold" lengthAdjust="spacingAndGlyphs" textLength="36" x="161" y="141.966">SERS</text><path fill="#FFF" filter="url(#a)" stroke="#000" stroke-width="1.5" d="M277 125h147v88H277z"/><path fill="#FFF" stroke="#000" stroke-width="1.5" d="M407 130v14h12v-8l-6-6h-6z"/><path stroke="#000" stroke-width="1.5" d="M413 130v6M419 136h-6"/><text font-family="Futura" font-size="14" font-weight="bold" lengthAdjust="spacingAndGlyphs" textLength="45" x="328" y="141.966">SysRS</text><circle cx="225" cy="170" fill="#FEFECE" filter="url(#a)" stroke="#a80036" stroke-width="2" r="12"/><path fill="#A80036" stroke="#a80036" d="M221 158l6-5-2 5 2 5-6-5z"/><text font-family="Futura" font-size="14" lengthAdjust="spacingAndGlyphs" textLength="49" x="200.5" y="200.957">initiated</text><circle cx="137" cy="170" fill="#FEFECE" filter="url(#a)" stroke="#a80036" stroke-width="2" r="12"/><path fill="#A80036" stroke="#a80036" d="M133 158l6-5-2 5 2 5-6-5z"/><text font-family="Futura" font-size="14" lengthAdjust="spacingAndGlyphs" textLength="57" x="108.5" y="200.957">validated</text><circle cx="391" cy="170" fill="#FEFECE" filter="url(#a)" stroke="#a80036" stroke-width="2" r="12"/><path fill="#A80036" stroke="#a80036" d="M387 158l6-5-2 5 2 5-6-5z"/><text font-family="Futura" font-size="14" lengthAdjust="spacingAndGlyphs" textLength="49" x="366.5" y="200.957">initiated</text><circle cx="308" cy="170" fill="#FEFECE" filter="url(#a)" stroke="#a80036" stroke-width="2" r="12"/><path fill="#A80036" stroke="#a80036" d="M304 158l6-5-2 5 2 5-6-5z"/><text font-family="Futura" font-size="14" lengthAdjust="spacingAndGlyphs" textLength="46" x="285" y="200.957">verified</text><circle cx="21" cy="18" fill="#FEFECE" filter="url(#a)" stroke="#a80036" stroke-width="2" r="8"/><path d="M21 26v27M8 34h26M21 53L8 68m13-15l13 15" fill="none" filter="url(#a)" stroke="#a80036" stroke-width="2"/><text font-family="Futura" font-size="14" lengthAdjust="spacingAndGlyphs" textLength="27" x="7.5" y="89.957">PJM</text><circle cx="86" cy="18" fill="#FEFECE" filter="url(#a)" stroke="#a80036" stroke-width="2" r="8"/><path d="M86 26v27M73 34h26M86 53L73 68m13-15l13 15" fill="none" filter="url(#a)" stroke="#a80036" stroke-width="2"/><text font-family="Futura" font-size="14" lengthAdjust="spacingAndGlyphs" textLength="22" x="75" y="89.957">WT</text><path fill="#FEFECE" filter="url(#a)" stroke="#000" stroke-width="1.5" d="M25 158.5h48v41.594H25z"/><path fill="#FEFECE" stroke="#000" stroke-width="1.5" d="M56 163.5v14h12v-8l-6-6h-6z"/><path stroke="#000" stroke-width="1.5" d="M62 163.5v6M68 169.5h-6"/><text font-family="Futura" font-size="14" lengthAdjust="spacingAndGlyphs" textLength="18" x="35" y="186.457">CR</text><ellipse cx="224.782" cy="51.056" fill="#FEFECE" filter="url(#a)" rx="88.282" ry="20.056" stroke="#a80036" stroke-width="1.5"/><text font-family="Futura" font-size="14" lengthAdjust="spacingAndGlyphs" textLength="143" x="153.282" y="56.853">Verify SysRS and SERS</text><path d="M374.391 153.953C367.296 144.196 358.468 133.407 349 125c-24.265-21.547-55.695-40.224-80.84-53.424" fill="none" stroke="#a80036" stroke-width="2"/><path fill="#A80036" stroke="#a80036" d="M263.542 69.176l6.14 7.7-1.704-5.394 5.394-1.705-9.83-.601z"/><path d="M225 153.805V76.262" fill="none" stroke="#a80036" stroke-width="2"/><path fill="#A80036" stroke="#a80036" d="M225 71.078l-4 9 4-4 4 4-4-9z"/><path d="M237.787 70.796c13.527 20.944 35.038 54.247 50.69 78.477" fill="none" stroke="#a80036" stroke-width="2"/><path fill="#A80036" stroke="#a80036" d="M291.327 153.687l-1.523-9.73-1.19 5.53-5.53-1.19 8.243 5.39z"/><path d="M211.443 70.796L157.7 149.274" fill="none" stroke="#a80036" stroke-width="2"/><path fill="#A80036" stroke="#a80036" d="M154.678 153.687l8.385-5.166-5.56 1.04-1.04-5.56-1.785 9.686z"/><path d="M183.673 68.749C155.98 81.848 119.665 101.448 92 125c-9.877 8.409-19.049 19.38-26.363 29.272" fill="none" stroke="#a80036" stroke-width="2"/><path fill="#A80036" stroke="#a80036" d="M62.619 158.435l8.52-4.939-5.585.891-.892-5.586-2.043 9.634z"/></svg>