<svg xmlns="http://www.w3.org/2000/svg" height="352" preserveAspectRatio="none" style="width:531px;height:352px" width="531"><defs><filter height="300%" id="a" width="300%" x="-1" y="-1"><feGaussianBlur result="blurOut" stdDeviation="2"/><feColorMatrix in="blurOut" result="blurOut2" values="0 0 0 0 0 0 0 0 0 0 0 0 0 0 0 0 0 0 .4 0"/><feOffset dx="4" dy="4" in="blurOut2" result="blurOut3"/><feBlend in="SourceGraphic" in2="blurOut3"/></filter></defs><circle cx="21" cy="18" fill="#FEFECE" filter="url(#a)" stroke="#a80036" stroke-width="2" r="8"/><path d="M21 26v27M8 34h26M21 53L8 68m13-15l13 15" fill="none" filter="url(#a)" stroke="#a80036" stroke-width="2"/><text font-family="Futura" font-size="14" lengthAdjust="spacingAndGlyphs" textLength="24" x="9" y="89.957">SYS</text><circle cx="88" cy="18" fill="#FEFECE" filter="url(#a)" stroke="#a80036" stroke-width="2" r="8"/><path d="M88 26v27M75 34h26M88 53L75 68m13-15l13 15" fill="none" filter="url(#a)" stroke="#a80036" stroke-width="2"/><text font-family="Futura" font-size="14" lengthAdjust="spacingAndGlyphs" textLength="33" x="71.5" y="89.957">ACQ</text><circle cx="21" cy="164" fill="#FEFECE" filter="url(#a)" stroke="#a80036" stroke-width="2" r="8"/><path d="M21 172v27M8 180h26m-13 19L8 214m13-15l13 15" fill="none" filter="url(#a)" stroke="#a80036" stroke-width="2"/><text font-family="Futura" font-size="14" lengthAdjust="spacingAndGlyphs" textLength="24" x="9" y="235.957">STK</text><path fill="#FEFECE" filter="url(#a)" stroke="#000" stroke-width="1.5" d="M140 30h104v41.594H140z"/><path fill="#FEFECE" stroke="#000" stroke-width="1.5" d="M227 35v14h12v-8l-6-6h-6z"/><path stroke="#000" stroke-width="1.5" d="M233 35v6M239 41h-6"/><text font-family="Futura" font-size="14" lengthAdjust="spacingAndGlyphs" textLength="74" x="150" y="57.957">Project Plan</text><path fill="#FEFECE" filter="url(#a)" stroke="#000" stroke-width="1.5" d="M279.5 30h67v41.594h-67z"/><path fill="#FEFECE" stroke="#000" stroke-width="1.5" d="M329.5 35v14h12v-8l-6-6h-6z"/><path stroke="#000" stroke-width="1.5" d="M335.5 35v6M341.5 41h-6"/><text font-family="Futura" font-size="14" lengthAdjust="spacingAndGlyphs" textLength="37" x="289.5" y="57.957">SEMP</text><path fill="#FEFECE" filter="url(#a)" stroke="#000" stroke-width="1.5" d="M381.5 30h133v41.594h-133z"/><path fill="#FEFECE" stroke="#000" stroke-width="1.5" d="M497.5 35v14h12v-8l-6-6h-6z"/><path stroke="#000" stroke-width="1.5" d="M503.5 35v6M509.5 41h-6"/><text font-family="Futura" font-size="14" lengthAdjust="spacingAndGlyphs" textLength="103" x="391.5" y="57.957">SoW (reviewed)</text><path fill="#FEFECE" filter="url(#a)" stroke="#000" stroke-width="1.5" d="M252.5 300h121v41.594h-121z"/><path fill="#FEFECE" stroke="#000" stroke-width="1.5" d="M356.5 305v14h12v-8l-6-6h-6z"/><path stroke="#000" stroke-width="1.5" d="M362.5 305v6M368.5 311h-6"/><text font-family="Futura" font-size="14" lengthAdjust="spacingAndGlyphs" textLength="91" x="262.5" y="327.957">StRS (initiated)</text><ellipse cx="313.22" cy="196.944" fill="#FEFECE" filter="url(#a)" rx="77.72" ry="17.944" stroke="#a80036" stroke-width="1.5"/><text font-family="Futura" font-size="14" lengthAdjust="spacingAndGlyphs" textLength="117" x="254.72" y="202.741">Elicit Requirements</text><path d="M209.594 72.23l85.184 102.783" fill="none" stroke="#a80036" stroke-width="2"/><path fill="#A80036" stroke="#a80036" d="M298.055 178.967l-2.663-9.482-.528 5.632-5.632-.527 8.823 4.377z"/><path d="M428.37 72.23l-95.04 102.783" fill="none" stroke="#a80036" stroke-width="2"/><path fill="#A80036" stroke="#a80036" d="M329.674 178.967l9.047-3.892-5.652.221-.221-5.653-3.174 9.324z"/><path d="M313 72.23v101.4" fill="none" stroke="#a80036" stroke-width="2"/><path fill="#A80036" stroke="#a80036" d="M313 178.967l4-9-4 4-4-4 4 9z"/><path d="M313 215.03v79.344" fill="none" stroke="#a80036" stroke-width="2"/><path fill="#A80036" stroke="#a80036" d="M313 299.616l4-9-4 4-4-4 4 9z"/></svg>