<?xml version="1.0" encoding="UTF-8" standalone="no"?><svg xmlns="http://www.w3.org/2000/svg" xmlns:xlink="http://www.w3.org/1999/xlink" contentScriptType="application/ecmascript" contentStyleType="text/css" height="352px" preserveAspectRatio="none" style="width:531px;height:352px;" version="1.1" viewBox="0 0 531 352" width="531px" zoomAndPan="magnify"><defs><filter height="300%" id="fctj5sgem6r3s" width="300%" x="-1" y="-1"><feGaussianBlur result="blurOut" stdDeviation="2.0"/><feColorMatrix in="blurOut" result="blurOut2" type="matrix" values="0 0 0 0 0 0 0 0 0 0 0 0 0 0 0 0 0 0 .4 0"/><feOffset dx="4.0" dy="4.0" in="blurOut2" result="blurOut3"/><feBlend in="SourceGraphic" in2="blurOut3" mode="normal"/></filter></defs><g><!--entity SYS--><ellipse cx="21" cy="18" fill="#FEFECE" filter="url(#fctj5sgem6r3s)" rx="8" ry="8" style="stroke: #A80036; stroke-width: 2.0;"/><path d="M21,26 L21,53 M8,34 L34,34 M21,53 L8,68 M21,53 L34,68 " fill="none" filter="url(#fctj5sgem6r3s)" style="stroke: #A80036; stroke-width: 2.0;"/><text fill="#000000" font-family="Futura" font-size="14" lengthAdjust="spacingAndGlyphs" textLength="24" x="9" y="89.957">SYS</text><!--entity ACQ--><ellipse cx="88" cy="18" fill="#FEFECE" filter="url(#fctj5sgem6r3s)" rx="8" ry="8" style="stroke: #A80036; stroke-width: 2.0;"/><path d="M88,26 L88,53 M75,34 L101,34 M88,53 L75,68 M88,53 L101,68 " fill="none" filter="url(#fctj5sgem6r3s)" style="stroke: #A80036; stroke-width: 2.0;"/><text fill="#000000" font-family="Futura" font-size="14" lengthAdjust="spacingAndGlyphs" textLength="33" x="71.5" y="89.957">ACQ</text><!--entity STK--><ellipse cx="21" cy="164" fill="#FEFECE" filter="url(#fctj5sgem6r3s)" rx="8" ry="8" style="stroke: #A80036; stroke-width: 2.0;"/><path d="M21,172 L21,199 M8,180 L34,180 M21,199 L8,214 M21,199 L34,214 " fill="none" filter="url(#fctj5sgem6r3s)" style="stroke: #A80036; stroke-width: 2.0;"/><text fill="#000000" font-family="Futura" font-size="14" lengthAdjust="spacingAndGlyphs" textLength="24" x="9" y="235.957">STK</text><!--entity PROD_PP--><rect fill="#FEFECE" filter="url(#fctj5sgem6r3s)" height="41.5938" style="stroke: #000000; stroke-width: 1.5;" width="104" x="140" y="30"/><polygon fill="#FEFECE" points="227,35,227,49,239,49,239,41,233,35,227,35" style="stroke: #000000; stroke-width: 1.5;"/><line style="stroke: #000000; stroke-width: 1.5;" x1="233" x2="233" y1="35" y2="41"/><line style="stroke: #000000; stroke-width: 1.5;" x1="239" x2="233" y1="41" y2="41"/><text fill="#000000" font-family="Futura" font-size="14" lengthAdjust="spacingAndGlyphs" textLength="74" x="150" y="57.957">Project Plan</text><!--entity PROD_SEMP--><rect fill="#FEFECE" filter="url(#fctj5sgem6r3s)" height="41.5938" style="stroke: #000000; stroke-width: 1.5;" width="67" x="279.5" y="30"/><polygon fill="#FEFECE" points="329.5,35,329.5,49,341.5,49,341.5,41,335.5,35,329.5,35" style="stroke: #000000; stroke-width: 1.5;"/><line style="stroke: #000000; stroke-width: 1.5;" x1="335.5" x2="335.5" y1="35" y2="41"/><line style="stroke: #000000; stroke-width: 1.5;" x1="341.5" x2="335.5" y1="41" y2="41"/><text fill="#000000" font-family="Futura" font-size="14" lengthAdjust="spacingAndGlyphs" textLength="37" x="289.5" y="57.957">SEMP</text><!--entity PROD_SOW_REVIEWED--><rect fill="#FEFECE" filter="url(#fctj5sgem6r3s)" height="41.5938" style="stroke: #000000; stroke-width: 1.5;" width="133" x="381.5" y="30"/><polygon fill="#FEFECE" points="497.5,35,497.5,49,509.5,49,509.5,41,503.5,35,497.5,35" style="stroke: #000000; stroke-width: 1.5;"/><line style="stroke: #000000; stroke-width: 1.5;" x1="503.5" x2="503.5" y1="35" y2="41"/><line style="stroke: #000000; stroke-width: 1.5;" x1="509.5" x2="503.5" y1="41" y2="41"/><text fill="#000000" font-family="Futura" font-size="14" lengthAdjust="spacingAndGlyphs" textLength="103" x="391.5" y="57.957">SoW (reviewed)</text><!--entity PROD_STRS_INITIATED--><rect fill="#FEFECE" filter="url(#fctj5sgem6r3s)" height="41.5938" style="stroke: #000000; stroke-width: 1.5;" width="121" x="252.5" y="300"/><polygon fill="#FEFECE" points="356.5,305,356.5,319,368.5,319,368.5,311,362.5,305,356.5,305" style="stroke: #000000; stroke-width: 1.5;"/><line style="stroke: #000000; stroke-width: 1.5;" x1="362.5" x2="362.5" y1="305" y2="311"/><line style="stroke: #000000; stroke-width: 1.5;" x1="368.5" x2="362.5" y1="311" y2="311"/><text fill="#000000" font-family="Futura" font-size="14" lengthAdjust="spacingAndGlyphs" textLength="91" x="262.5" y="327.957">StRS (initiated)</text><ellipse cx="313.2198" cy="196.944" fill="#FEFECE" filter="url(#fctj5sgem6r3s)" rx="77.7198" ry="17.944" style="stroke: #A80036; stroke-width: 1.5;"/><text fill="#000000" font-family="Futura" font-size="14" lengthAdjust="spacingAndGlyphs" textLength="117" x="254.7198" y="202.7408">Elicit Requirements</text><!--link PROD_PP to SR2_1--><path d="M209.5944,72.2297 C232.3345,99.668 271.7362,147.2106 294.778,175.0131 " fill="none" id="PROD_PP-SR2_1" style="stroke: #A80036; stroke-width: 2.0;"/><polygon fill="#A80036" points="298.055,178.9671,295.3917,169.4852,294.8644,175.1174,289.2322,174.5901,298.055,178.9671" style="stroke: #A80036; stroke-width: 1.0;"/><!--link PROD_SOW_REVIEWED to SR2_1--><path d="M428.3698,72.2297 C402.9987,99.668 359.0381,147.2106 333.3303,175.0131 " fill="none" id="PROD_SOW_REVIEWED-SR2_1" style="stroke: #A80036; stroke-width: 2.0;"/><polygon fill="#A80036" points="329.6742,178.9671,338.7213,175.0747,333.0687,175.296,332.8475,169.6435,329.6742,178.9671" style="stroke: #A80036; stroke-width: 1.0;"/><!--link PROD_SEMP to SR2_1--><path d="M313,72.2297 C313,99.2182 313,145.6572 313,173.63 " fill="none" id="PROD_SEMP-SR2_1" style="stroke: #A80036; stroke-width: 2.0;"/><polygon fill="#A80036" points="313,178.9671,317,169.9671,313,173.9671,309,169.9671,313,178.9671" style="stroke: #A80036; stroke-width: 1.0;"/><!--link SR2_1 to PROD_STRS_INITIATED--><path d="M313,215.0307 C313,235.888 313,270.4233 313,294.3743 " fill="none" id="SR2_1-PROD_STRS_INITIATED" style="stroke: #A80036; stroke-width: 2.0;"/><polygon fill="#A80036" points="313,299.6164,317,290.6164,313,294.6164,309,290.6164,313,299.6164" style="stroke: #A80036; stroke-width: 1.0;"/><!--link SYS to ACQ--><!--link SYS to STK--><!--
@startuml



skinparam handwritten false
skinparam defaultFontName Futura


actor SYS
actor ACQ
actor STK

artifact "Project Plan" as PROD_PP
artifact "SEMP" as PROD_SEMP
artifact "SoW (reviewed)" as PROD_SOW_REVIEWED
artifact "StRS (initiated)" as PROD_STRS_INITIATED

usecase "Elicit Requirements" as SR2_1
PROD_PP ==> SR2_1
PROD_SOW_REVIEWED ==> SR2_1
PROD_SEMP ==> SR2_1
SR2_1 ==> PROD_STRS_INITIATED

@enduml

PlantUML version 1.2019.00(Sun Jan 13 07:46:42 PST 2019)
(GPL source distribution)
Java Runtime: Java(TM) SE Runtime Environment
JVM: Java HotSpot(TM) 64-Bit Server VM
Java Version: 10.0.1+10
Operating System: Mac OS X
OS Version: 10.14.3
Default Encoding: UTF-8
Language: en
Country: US
--></g></svg>