<svg xmlns="http://www.w3.org/2000/svg" height="303" preserveAspectRatio="none" style="width:624px;height:303px" width="624"><defs><filter height="300%" id="a" width="300%" x="-1" y="-1"><feGaussianBlur result="blurOut" stdDeviation="2"/><feColorMatrix in="blurOut" result="blurOut2" values="0 0 0 0 0 0 0 0 0 0 0 0 0 0 0 0 0 0 .4 0"/><feOffset dx="4" dy="4" in="blurOut2" result="blurOut3"/><feBlend in="SourceGraphic" in2="blurOut3"/></filter></defs><circle cx="21" cy="18" fill="#FEFECE" filter="url(#a)" stroke="#a80036" stroke-width="2" r="8"/><path d="M21 26v27M8 34h26M21 53L8 68m13-15l13 15" fill="none" filter="url(#a)" stroke="#a80036" stroke-width="2"/><text font-family="Futura" font-size="14" lengthAdjust="spacingAndGlyphs" textLength="24" x="9" y="89.957">SYS</text><circle cx="86" cy="18" fill="#FEFECE" filter="url(#a)" stroke="#a80036" stroke-width="2" r="8"/><path d="M86 26v27M73 34h26M86 53L73 68m13-15l13 15" fill="none" filter="url(#a)" stroke="#a80036" stroke-width="2"/><text font-family="Futura" font-size="14" lengthAdjust="spacingAndGlyphs" textLength="26" x="73" y="89.957">DES</text><path fill="#FEFECE" filter="url(#a)" stroke="#000" stroke-width="1.5" d="M136.5 30h133v41.594h-133z"/><path fill="#FEFECE" stroke="#000" stroke-width="1.5" d="M252.5 35v14h12v-8l-6-6h-6z"/><path stroke="#000" stroke-width="1.5" d="M258.5 35v6M264.5 41h-6"/><text font-family="Futura" font-size="14" lengthAdjust="spacingAndGlyphs" textLength="103" x="146.5" y="57.957">SERS (validated)</text><path fill="#FEFECE" filter="url(#a)" stroke="#000" stroke-width="1.5" d="M304.5 30h129v41.594h-129z"/><path fill="#FEFECE" stroke="#000" stroke-width="1.5" d="M416.5 35v14h12v-8l-6-6h-6z"/><path stroke="#000" stroke-width="1.5" d="M422.5 35v6M428.5 41h-6"/><text font-family="Futura" font-size="14" lengthAdjust="spacingAndGlyphs" textLength="99" x="314.5" y="57.957">StRS (validated)</text><path fill="#FEFECE" filter="url(#a)" stroke="#000" stroke-width="1.5" d="M468.5 30h139v41.594h-139z"/><path fill="#FEFECE" stroke="#000" stroke-width="1.5" d="M590.5 35v14h12v-8l-6-6h-6z"/><path stroke="#000" stroke-width="1.5" d="M596.5 35v6M602.5 41h-6"/><text font-family="Futura" font-size="14" lengthAdjust="spacingAndGlyphs" textLength="109" x="478.5" y="57.957">SysRS (validated)</text><path fill="#FEFECE" filter="url(#a)" stroke="#000" stroke-width="1.5" d="M295.5 251h147v41.594h-147z"/><path fill="#FEFECE" stroke="#000" stroke-width="1.5" d="M425.5 256v14h12v-8l-6-6h-6z"/><path stroke="#000" stroke-width="1.5" d="M431.5 256v6M437.5 262h-6"/><text font-family="Futura" font-size="14" lengthAdjust="spacingAndGlyphs" textLength="117" x="305.5" y="278.957">Traceability Matrix</text><ellipse cx="369.193" cy="172.339" fill="#FEFECE" filter="url(#a)" rx="79.693" ry="18.339" stroke="#a80036" stroke-width="1.5"/><text font-family="Futura" font-size="14" lengthAdjust="spacingAndGlyphs" textLength="122" x="308.193" y="178.136">Update Traceability</text><path d="M369 72.164v76.666" fill="none" stroke="#a80036" stroke-width="2"/><path fill="#A80036" stroke="#a80036" d="M369 153.964l4-9-4 4-4-4 4 9z"/><path d="M508.562 72.164l-110.427 79.39" fill="none" stroke="#a80036" stroke-width="2"/><path fill="#A80036" stroke="#a80036" d="M393.71 154.735l9.642-2.006-5.583-.912.913-5.583-4.972 8.501z"/><path d="M231.915 72.164l108.467 79.39" fill="none" stroke="#a80036" stroke-width="2"/><path fill="#A80036" stroke="#a80036" d="M344.729 154.735l-4.9-8.543.865 5.59-5.59.865 9.625 2.088z"/><path d="M369 191.215v54.586" fill="none" stroke="#a80036" stroke-width="2"/><path fill="#A80036" stroke="#a80036" d="M369 250.958l4-9-4 4-4-4 4 9z"/></svg>