<?xml version="1.0" encoding="UTF-8" standalone="no"?><svg xmlns="http://www.w3.org/2000/svg" xmlns:xlink="http://www.w3.org/1999/xlink" contentScriptType="application/ecmascript" contentStyleType="text/css" height="307px" preserveAspectRatio="none" style="width:433px;height:307px;" version="1.1" viewBox="0 0 433 307" width="433px" zoomAndPan="magnify"><defs><filter height="300%" id="f1eod6f9dfd0ni" width="300%" x="-1" y="-1"><feGaussianBlur result="blurOut" stdDeviation="2.0"/><feColorMatrix in="blurOut" result="blurOut2" type="matrix" values="0 0 0 0 0 0 0 0 0 0 0 0 0 0 0 0 0 0 .4 0"/><feOffset dx="4.0" dy="4.0" in="blurOut2" result="blurOut3"/><feBlend in="SourceGraphic" in2="blurOut3" mode="normal"/></filter></defs><g><!--cluster SDD--><rect fill="#FFFFFF" filter="url(#f1eod6f9dfd0ni)" height="76" style="stroke: #000000; stroke-width: 1.5;" width="207" x="209.5" y="220"/><polygon fill="#FFFFFF" points="399.5,225,399.5,239,411.5,239,411.5,231,405.5,225,399.5,225" style="stroke: #000000; stroke-width: 1.5;"/><line style="stroke: #000000; stroke-width: 1.5;" x1="405.5" x2="405.5" y1="225" y2="231"/><line style="stroke: #000000; stroke-width: 1.5;" x1="411.5" x2="405.5" y1="231" y2="231"/><text fill="#000000" font-family="Futura" font-size="14" font-weight="bold" lengthAdjust="spacingAndGlyphs" textLength="31" x="297.5" y="236.966">SDD</text><!--entity PROD_SDD_FUNC--><rect fill="#FEFECE" filter="url(#f1eod6f9dfd0ni)" height="38.5938" style="stroke: #A80036; stroke-width: 1.5;" width="84" x="324.5" y="249"/><rect fill="#FEFECE" height="5" style="stroke: #A80036; stroke-width: 1.5;" width="10" x="319.5" y="254"/><rect fill="#FEFECE" height="5" style="stroke: #A80036; stroke-width: 1.5;" width="10" x="319.5" y="277.5938"/><text fill="#000000" font-family="Futura" font-size="14" lengthAdjust="spacingAndGlyphs" textLength="64" x="334.5" y="273.957">Functional</text><!--entity PROD_SDD_PHYS--><rect fill="#FEFECE" filter="url(#f1eod6f9dfd0ni)" height="38.5938" style="stroke: #A80036; stroke-width: 1.5;" width="71" x="218" y="249"/><rect fill="#FEFECE" height="5" style="stroke: #A80036; stroke-width: 1.5;" width="10" x="213" y="254"/><rect fill="#FEFECE" height="5" style="stroke: #A80036; stroke-width: 1.5;" width="10" x="213" y="277.5938"/><text fill="#000000" font-family="Futura" font-size="14" lengthAdjust="spacingAndGlyphs" textLength="51" x="228" y="273.957">Physical</text><!--entity DES--><ellipse cx="133.5" cy="18.5" fill="#FEFECE" filter="url(#f1eod6f9dfd0ni)" rx="8" ry="8" style="stroke: #A80036; stroke-width: 2.0;"/><path d="M133.5,26.5 L133.5,53.5 M120.5,34.5 L146.5,34.5 M133.5,53.5 L120.5,68.5 M133.5,53.5 L146.5,68.5 " fill="none" filter="url(#f1eod6f9dfd0ni)" style="stroke: #A80036; stroke-width: 2.0;"/><text fill="#000000" font-family="Futura" font-size="14" lengthAdjust="spacingAndGlyphs" textLength="26" x="120.5" y="90.457">DES</text><!--entity PROD_SYSRS_VALIDATED--><rect fill="#FEFECE" filter="url(#f1eod6f9dfd0ni)" height="41.5938" style="stroke: #000000; stroke-width: 1.5;" width="139" x="184" y="30.5"/><polygon fill="#FEFECE" points="306,35.5,306,49.5,318,49.5,318,41.5,312,35.5,306,35.5" style="stroke: #000000; stroke-width: 1.5;"/><line style="stroke: #000000; stroke-width: 1.5;" x1="312" x2="312" y1="35.5" y2="41.5"/><line style="stroke: #000000; stroke-width: 1.5;" x1="318" x2="312" y1="41.5" y2="41.5"/><text fill="#000000" font-family="Futura" font-size="14" lengthAdjust="spacingAndGlyphs" textLength="109" x="194" y="58.457">SysRS (validated)</text><!--entity PROD_PO_INITIAL--><rect fill="#FEFECE" filter="url(#f1eod6f9dfd0ni)" height="41.5938" style="stroke: #000000; stroke-width: 1.5;" width="177" x="6" y="247.5"/><polygon fill="#FEFECE" points="166,252.5,166,266.5,178,266.5,178,258.5,172,252.5,166,252.5" style="stroke: #000000; stroke-width: 1.5;"/><line style="stroke: #000000; stroke-width: 1.5;" x1="172" x2="172" y1="252.5" y2="258.5"/><line style="stroke: #000000; stroke-width: 1.5;" x1="178" x2="172" y1="258.5" y2="258.5"/><text fill="#000000" font-family="Futura" font-size="14" lengthAdjust="spacingAndGlyphs" textLength="147" x="16" y="275.457">Purchase Order (initial)</text><ellipse cx="253.5411" cy="171.0082" fill="#FEFECE" filter="url(#f1eod6f9dfd0ni)" rx="70.5411" ry="16.5082" style="stroke: #A80036; stroke-width: 1.5;"/><text fill="#000000" font-family="Futura" font-size="14" lengthAdjust="spacingAndGlyphs" textLength="98" x="204.5411" y="176.8051">Physical Design</text><!--link PROD_SYSRS_VALIDATED to SR3_3--><path d="M253.5,72.5891 C253.5,94.1759 253.5,127.5614 253.5,149.35 " fill="none" id="PROD_SYSRS_VALIDATED-SR3_3" style="stroke: #A80036; stroke-width: 2.0;"/><polygon fill="#A80036" points="253.5,154.3546,257.5,145.3546,253.5,149.3546,249.5,145.3546,253.5,154.3546" style="stroke: #A80036; stroke-width: 1.0;"/><!--link PROD_SDD_FUNC to SR3_3--><path d="M343.5136,248.6666 C323.7866,231.6455 295.5239,207.2596 275.9529,190.3731 " fill="none" id="PROD_SDD_FUNC-SR3_3" style="stroke: #A80036; stroke-width: 2.0;"/><polygon fill="#A80036" points="272.1597,187.1001,276.3608,196.008,275.9453,190.3664,281.5869,189.951,272.1597,187.1001" style="stroke: #A80036; stroke-width: 1.0;"/><!--link SR3_3 to PROD_SDD_PHYS--><path d="M253.5,187.5395 C253.5,202.9015 253.5,225.9872 253.5,243.5809 " fill="none" id="SR3_3-PROD_SDD_PHYS" style="stroke: #A80036; stroke-width: 2.0;"/><polygon fill="#A80036" points="253.5,248.8501,257.5,239.8501,253.5,243.8501,249.5,239.8501,253.5,248.8501" style="stroke: #A80036; stroke-width: 1.0;"/><!--link SR3_3 to PROD_PO_INITIAL--><path d="M228.306,186.4492 C202.7669,202.1099 162.9052,226.5534 133.3256,244.6919 " fill="none" id="SR3_3-PROD_PO_INITIAL" style="stroke: #A80036; stroke-width: 2.0;"/><polygon fill="#A80036" points="129.0389,247.3205,138.8023,246.0255,133.3013,244.7067,134.6201,239.2057,129.0389,247.3205" style="stroke: #A80036; stroke-width: 1.0;"/><!--
@startuml



skinparam handwritten false
skinparam defaultFontName Futura


actor DES

artifact "SysRS (validated)" as PROD_SYSRS_VALIDATED
artifact "SDD" {
component "Functional" as PROD_SDD_FUNC
component "Physical" as PROD_SDD_PHYS
}
artifact "Purchase Order (initial)" as PROD_PO_INITIAL

usecase "Physical Design" as SR3_3
PROD_SYSRS_VALIDATED ==> SR3_3
PROD_SDD_FUNC ==> SR3_3
SR3_3 ==> PROD_SDD_PHYS
SR3_3 ==> PROD_PO_INITIAL

@enduml

PlantUML version 1.2019.00(Sun Jan 13 07:46:42 PST 2019)
(GPL source distribution)
Java Runtime: Java(TM) SE Runtime Environment
JVM: Java HotSpot(TM) 64-Bit Server VM
Java Version: 10.0.1+10
Operating System: Mac OS X
OS Version: 10.14.3
Default Encoding: UTF-8
Language: en
Country: US
--></g></svg>