<?xml version="1.0" encoding="UTF-8" standalone="no"?><svg xmlns="http://www.w3.org/2000/svg" xmlns:xlink="http://www.w3.org/1999/xlink" contentScriptType="application/ecmascript" contentStyleType="text/css" height="309px" preserveAspectRatio="none" style="width:548px;height:309px;" version="1.1" viewBox="0 0 548 309" width="548px" zoomAndPan="magnify"><defs><filter height="300%" id="fxyw46utelbck" width="300%" x="-1" y="-1"><feGaussianBlur result="blurOut" stdDeviation="2.0"/><feColorMatrix in="blurOut" result="blurOut2" type="matrix" values="0 0 0 0 0 0 0 0 0 0 0 0 0 0 0 0 0 0 .4 0"/><feOffset dx="4.0" dy="4.0" in="blurOut2" result="blurOut3"/><feBlend in="SourceGraphic" in2="blurOut3" mode="normal"/></filter></defs><g><!--cluster SDD--><rect fill="#FFFFFF" filter="url(#fxyw46utelbck)" height="76" style="stroke: #000000; stroke-width: 1.5;" width="100" x="313" y="222"/><polygon fill="#FFFFFF" points="396,227,396,241,408,241,408,233,402,227,396,227" style="stroke: #000000; stroke-width: 1.5;"/><line style="stroke: #000000; stroke-width: 1.5;" x1="402" x2="402" y1="227" y2="233"/><line style="stroke: #000000; stroke-width: 1.5;" x1="408" x2="402" y1="233" y2="233"/><text fill="#000000" font-family="Futura" font-size="14" font-weight="bold" lengthAdjust="spacingAndGlyphs" textLength="31" x="347.5" y="238.966">SDD</text><!--entity PROD_SDD_FUNC--><rect fill="#FEFECE" filter="url(#fxyw46utelbck)" height="38.5938" style="stroke: #A80036; stroke-width: 1.5;" width="84" x="321" y="251"/><rect fill="#FEFECE" height="5" style="stroke: #A80036; stroke-width: 1.5;" width="10" x="316" y="256"/><rect fill="#FEFECE" height="5" style="stroke: #A80036; stroke-width: 1.5;" width="10" x="316" y="279.5938"/><text fill="#000000" font-family="Futura" font-size="14" lengthAdjust="spacingAndGlyphs" textLength="64" x="331" y="275.957">Functional</text><!--entity DES--><ellipse cx="21" cy="18.5" fill="#FEFECE" filter="url(#fxyw46utelbck)" rx="8" ry="8" style="stroke: #A80036; stroke-width: 2.0;"/><path d="M21,26.5 L21,53.5 M8,34.5 L34,34.5 M21,53.5 L8,68.5 M21,53.5 L34,68.5 " fill="none" filter="url(#fxyw46utelbck)" style="stroke: #A80036; stroke-width: 2.0;"/><text fill="#000000" font-family="Futura" font-size="14" lengthAdjust="spacingAndGlyphs" textLength="26" x="8" y="90.457">DES</text><!--entity PROD_PP--><rect fill="#FEFECE" filter="url(#fxyw46utelbck)" height="41.5938" style="stroke: #000000; stroke-width: 1.5;" width="104" x="71" y="30.5"/><polygon fill="#FEFECE" points="158,35.5,158,49.5,170,49.5,170,41.5,164,35.5,158,35.5" style="stroke: #000000; stroke-width: 1.5;"/><line style="stroke: #000000; stroke-width: 1.5;" x1="164" x2="164" y1="35.5" y2="41.5"/><line style="stroke: #000000; stroke-width: 1.5;" x1="170" x2="164" y1="41.5" y2="41.5"/><text fill="#000000" font-family="Futura" font-size="14" lengthAdjust="spacingAndGlyphs" textLength="74" x="81" y="58.457">Project Plan</text><!--entity PROD_SYSRS_VALIDATED--><rect fill="#FEFECE" filter="url(#fxyw46utelbck)" height="41.5938" style="stroke: #000000; stroke-width: 1.5;" width="139" x="210.5" y="30.5"/><polygon fill="#FEFECE" points="332.5,35.5,332.5,49.5,344.5,49.5,344.5,41.5,338.5,35.5,332.5,35.5" style="stroke: #000000; stroke-width: 1.5;"/><line style="stroke: #000000; stroke-width: 1.5;" x1="338.5" x2="338.5" y1="35.5" y2="41.5"/><line style="stroke: #000000; stroke-width: 1.5;" x1="344.5" x2="338.5" y1="41.5" y2="41.5"/><text fill="#000000" font-family="Futura" font-size="14" lengthAdjust="spacingAndGlyphs" textLength="109" x="220.5" y="58.457">SysRS (validated)</text><!--entity META_TRACE_MATRIX--><rect fill="#FEFECE" filter="url(#fxyw46utelbck)" height="41.5938" style="stroke: #000000; stroke-width: 1.5;" width="147" x="384.5" y="30.5"/><polygon fill="#FEFECE" points="514.5,35.5,514.5,49.5,526.5,49.5,526.5,41.5,520.5,35.5,514.5,35.5" style="stroke: #000000; stroke-width: 1.5;"/><line style="stroke: #000000; stroke-width: 1.5;" x1="520.5" x2="520.5" y1="35.5" y2="41.5"/><line style="stroke: #000000; stroke-width: 1.5;" x1="526.5" x2="520.5" y1="41.5" y2="41.5"/><text fill="#000000" font-family="Futura" font-size="14" lengthAdjust="spacingAndGlyphs" textLength="117" x="394.5" y="58.457">Traceability Matrix</text><!--entity PROD_PO_INITIAL--><rect fill="#FEFECE" filter="url(#fxyw46utelbck)" height="41.5938" style="stroke: #000000; stroke-width: 1.5;" width="177" x="108.5" y="249.5"/><polygon fill="#FEFECE" points="268.5,254.5,268.5,268.5,280.5,268.5,280.5,260.5,274.5,254.5,268.5,254.5" style="stroke: #000000; stroke-width: 1.5;"/><line style="stroke: #000000; stroke-width: 1.5;" x1="274.5" x2="274.5" y1="254.5" y2="260.5"/><line style="stroke: #000000; stroke-width: 1.5;" x1="280.5" x2="274.5" y1="260.5" y2="260.5"/><text fill="#000000" font-family="Futura" font-size="14" lengthAdjust="spacingAndGlyphs" textLength="147" x="118.5" y="277.457">Purchase Order (initial)</text><ellipse cx="279.8951" cy="171.979" fill="#FEFECE" filter="url(#fxyw46utelbck)" rx="75.3951" ry="17.479" style="stroke: #A80036; stroke-width: 1.5;"/><text fill="#000000" font-family="Futura" font-size="14" lengthAdjust="spacingAndGlyphs" textLength="111" x="224.3951" y="177.7759">Functional Design</text><!--link PROD_PP to SR3_1--><path d="M150.707,72.7656 C179.9056,95.176 225.5346,130.197 254.0518,152.0844 " fill="none" id="PROD_PP-SR3_1" style="stroke: #A80036; stroke-width: 2.0;"/><polygon fill="#A80036" points="258.1311,155.2153,253.427,146.5625,254.1647,152.171,248.5561,152.9087,258.1311,155.2153" style="stroke: #A80036; stroke-width: 1.0;"/><!--link PROD_SYSRS_VALIDATED to SR3_1--><path d="M280,72.7656 C280,94.2829 280,127.4256 280,149.4066 " fill="none" id="PROD_SYSRS_VALIDATED-SR3_1" style="stroke: #A80036; stroke-width: 2.0;"/><polygon fill="#A80036" points="280,154.4662,284,145.4662,280,149.4662,276,145.4662,280,154.4662" style="stroke: #A80036; stroke-width: 1.0;"/><!--link META_TRACE_MATRIX to SR3_1--><path d="M426.5869,72.7656 C393.2516,95.3325 341.0271,130.6867 308.7444,152.541 " fill="none" id="META_TRACE_MATRIX-SR3_1" style="stroke: #A80036; stroke-width: 2.0;"/><polygon fill="#A80036" points="304.5203,155.4006,314.2155,153.6677,308.6608,152.5977,309.7308,147.0429,304.5203,155.4006" style="stroke: #A80036; stroke-width: 1.0;"/><!--link SR3_1 to PROD_SDD_FUNC--><path d="M294.8387,189.6098 C308.2772,205.5579 328.1838,229.182 343.0188,246.7873 " fill="none" id="SR3_1-PROD_SDD_FUNC" style="stroke: #A80036; stroke-width: 2.0;"/><polygon fill="#A80036" points="346.2926,250.6726,343.5521,241.2127,343.0707,246.849,337.4344,246.3677,346.2926,250.6726" style="stroke: #A80036; stroke-width: 1.0;"/><!--link SR3_1 to PROD_PO_INITIAL--><path d="M265.1613,189.6098 C252.0696,205.1463 232.8393,227.9678 218.1397,245.4125 " fill="none" id="SR3_1-PROD_PO_INITIAL" style="stroke: #A80036; stroke-width: 2.0;"/><polygon fill="#A80036" points="214.8868,249.2728,223.745,244.9679,218.1087,245.4492,217.6273,239.8129,214.8868,249.2728" style="stroke: #A80036; stroke-width: 1.0;"/><!--
@startuml



skinparam handwritten false
skinparam defaultFontName Futura


actor DES

artifact "Project Plan" as PROD_PP
artifact "SysRS (validated)" as PROD_SYSRS_VALIDATED
artifact "SDD" {
  component "Functional" as PROD_SDD_FUNC
}
artifact "Traceability Matrix" as META_TRACE_MATRIX
artifact "Purchase Order (initial)" as PROD_PO_INITIAL

usecase "Functional Design" as SR3_1
PROD_PP ==> SR3_1
PROD_SYSRS_VALIDATED ==> SR3_1
META_TRACE_MATRIX ==> SR3_1
SR3_1 ==> PROD_SDD_FUNC
SR3_1 ==> PROD_PO_INITIAL

@enduml

PlantUML version 1.2019.00(Sun Jan 13 07:46:42 PST 2019)
(GPL source distribution)
Java Runtime: Java(TM) SE Runtime Environment
JVM: Java HotSpot(TM) 64-Bit Server VM
Java Version: 10.0.1+10
Operating System: Mac OS X
OS Version: 10.14.3
Default Encoding: UTF-8
Language: en
Country: US
--></g></svg>