<?xml version="1.0" encoding="UTF-8" standalone="no"?><svg xmlns="http://www.w3.org/2000/svg" xmlns:xlink="http://www.w3.org/1999/xlink" contentScriptType="application/ecmascript" contentStyleType="text/css" height="372px" preserveAspectRatio="none" style="width:618px;height:372px;" version="1.1" viewBox="0 0 618 372" width="618px" zoomAndPan="magnify"><defs><filter height="300%" id="f13fzjz9hfqnlb" width="300%" x="-1" y="-1"><feGaussianBlur result="blurOut" stdDeviation="2.0"/><feColorMatrix in="blurOut" result="blurOut2" type="matrix" values="0 0 0 0 0 0 0 0 0 0 0 0 0 0 0 0 0 0 .4 0"/><feOffset dx="4.0" dy="4.0" in="blurOut2" result="blurOut3"/><feBlend in="SourceGraphic" in2="blurOut3" mode="normal"/></filter></defs><g><!--cluster SDD--><rect fill="#FFFFFF" filter="url(#f13fzjz9hfqnlb)" height="88" style="stroke: #000000; stroke-width: 1.5;" width="299" x="302" y="16.5"/><polygon fill="#FFFFFF" points="584,21.5,584,35.5,596,35.5,596,27.5,590,21.5,584,21.5" style="stroke: #000000; stroke-width: 1.5;"/><line style="stroke: #000000; stroke-width: 1.5;" x1="590" x2="590" y1="21.5" y2="27.5"/><line style="stroke: #000000; stroke-width: 1.5;" x1="596" x2="590" y1="27.5" y2="27.5"/><text fill="#000000" font-family="Futura" font-size="14" font-weight="bold" lengthAdjust="spacingAndGlyphs" textLength="31" x="436" y="33.466">SDD</text><!--entity PROD_SDD_FUNC--><rect fill="#FEFECE" filter="url(#f13fzjz9hfqnlb)" height="38.5938" style="stroke: #A80036; stroke-width: 1.5;" width="84" x="509" y="51.5"/><rect fill="#FEFECE" height="5" style="stroke: #A80036; stroke-width: 1.5;" width="10" x="504" y="56.5"/><rect fill="#FEFECE" height="5" style="stroke: #A80036; stroke-width: 1.5;" width="10" x="504" y="80.0938"/><text fill="#000000" font-family="Futura" font-size="14" lengthAdjust="spacingAndGlyphs" textLength="64" x="519" y="76.457">Functional</text><!--entity PROD_SDD_PHYS--><rect fill="#FEFECE" filter="url(#f13fzjz9hfqnlb)" height="38.5938" style="stroke: #A80036; stroke-width: 1.5;" width="71" x="402.5" y="51.5"/><rect fill="#FEFECE" height="5" style="stroke: #A80036; stroke-width: 1.5;" width="10" x="397.5" y="56.5"/><rect fill="#FEFECE" height="5" style="stroke: #A80036; stroke-width: 1.5;" width="10" x="397.5" y="80.0938"/><text fill="#000000" font-family="Futura" font-size="14" lengthAdjust="spacingAndGlyphs" textLength="51" x="412.5" y="76.457">Physical</text><!--entity PROD_SDD_VALIDATED--><ellipse cx="339" cy="61.5" fill="#FEFECE" filter="url(#f13fzjz9hfqnlb)" rx="12" ry="12" style="stroke: #A80036; stroke-width: 2.0;"/><polygon fill="#A80036" points="335,49.5,341,44.5,339,49.5,341,54.5,335,49.5" style="stroke: #A80036; stroke-width: 1.0;"/><text fill="#000000" font-family="Futura" font-size="14" lengthAdjust="spacingAndGlyphs" textLength="57" x="310.5" y="92.457">validated</text><!--entity SYS--><ellipse cx="21" cy="38" fill="#FEFECE" filter="url(#f13fzjz9hfqnlb)" rx="8" ry="8" style="stroke: #A80036; stroke-width: 2.0;"/><path d="M21,46 L21,73 M8,54 L34,54 M21,73 L8,88 M21,73 L34,88 " fill="none" filter="url(#f13fzjz9hfqnlb)" style="stroke: #A80036; stroke-width: 2.0;"/><text fill="#000000" font-family="Futura" font-size="14" lengthAdjust="spacingAndGlyphs" textLength="24" x="9" y="109.957">SYS</text><!--entity DES--><ellipse cx="86" cy="38" fill="#FEFECE" filter="url(#f13fzjz9hfqnlb)" rx="8" ry="8" style="stroke: #A80036; stroke-width: 2.0;"/><path d="M86,46 L86,73 M73,54 L99,54 M86,73 L73,88 M86,73 L99,88 " fill="none" filter="url(#f13fzjz9hfqnlb)" style="stroke: #A80036; stroke-width: 2.0;"/><text fill="#000000" font-family="Futura" font-size="14" lengthAdjust="spacingAndGlyphs" textLength="26" x="73" y="109.957">DES</text><!--entity DEV--><ellipse cx="21" cy="184" fill="#FEFECE" filter="url(#f13fzjz9hfqnlb)" rx="8" ry="8" style="stroke: #A80036; stroke-width: 2.0;"/><path d="M21,192 L21,219 M8,200 L34,200 M21,219 L8,234 M21,219 L34,234 " fill="none" filter="url(#f13fzjz9hfqnlb)" style="stroke: #A80036; stroke-width: 2.0;"/><text fill="#000000" font-family="Futura" font-size="14" lengthAdjust="spacingAndGlyphs" textLength="27" x="7.5" y="255.957">DEV</text><!--entity PROD_SYSRS_VALIDATED--><rect fill="#FEFECE" filter="url(#f13fzjz9hfqnlb)" height="41.5938" style="stroke: #000000; stroke-width: 1.5;" width="139" x="136.5" y="50"/><polygon fill="#FEFECE" points="258.5,55,258.5,69,270.5,69,270.5,61,264.5,55,258.5,55" style="stroke: #000000; stroke-width: 1.5;"/><line style="stroke: #000000; stroke-width: 1.5;" x1="264.5" x2="264.5" y1="55" y2="61"/><line style="stroke: #000000; stroke-width: 1.5;" x1="270.5" x2="264.5" y1="61" y2="61"/><text fill="#000000" font-family="Futura" font-size="14" lengthAdjust="spacingAndGlyphs" textLength="109" x="146.5" y="77.957">SysRS (validated)</text><!--entity META_TRACE_MATRIX--><rect fill="#FEFECE" filter="url(#f13fzjz9hfqnlb)" height="41.5938" style="stroke: #000000; stroke-width: 1.5;" width="147" x="314.5" y="320"/><polygon fill="#FEFECE" points="444.5,325,444.5,339,456.5,339,456.5,331,450.5,325,444.5,325" style="stroke: #000000; stroke-width: 1.5;"/><line style="stroke: #000000; stroke-width: 1.5;" x1="450.5" x2="450.5" y1="325" y2="331"/><line style="stroke: #000000; stroke-width: 1.5;" x1="456.5" x2="450.5" y1="331" y2="331"/><text fill="#000000" font-family="Futura" font-size="14" lengthAdjust="spacingAndGlyphs" textLength="117" x="324.5" y="347.957">Traceability Matrix</text><!--entity META_CR--><rect fill="#FEFECE" filter="url(#f13fzjz9hfqnlb)" height="41.5938" style="stroke: #000000; stroke-width: 1.5;" width="48" x="497" y="320"/><polygon fill="#FEFECE" points="528,325,528,339,540,339,540,331,534,325,528,325" style="stroke: #000000; stroke-width: 1.5;"/><line style="stroke: #000000; stroke-width: 1.5;" x1="534" x2="534" y1="325" y2="331"/><line style="stroke: #000000; stroke-width: 1.5;" x1="540" x2="534" y1="331" y2="331"/><text fill="#000000" font-family="Futura" font-size="14" lengthAdjust="spacingAndGlyphs" textLength="18" x="507" y="347.957">CR</text><ellipse cx="388.136" cy="217.2272" fill="#FEFECE" filter="url(#f13fzjz9hfqnlb)" rx="84.136" ry="19.2272" style="stroke: #A80036; stroke-width: 1.5;"/><text fill="#000000" font-family="Futura" font-size="14" lengthAdjust="spacingAndGlyphs" textLength="133" x="321.636" y="223.0241">Verify System Design</text><!--link PROD_SDD_FUNC to SR3_5--><path d="M529.0171,90.6902 C498.6216,117.9156 443.9415,166.8929 412.3437,195.1952 " fill="none" id="PROD_SDD_FUNC-SR3_5" style="stroke: #A80036; stroke-width: 2.0;"/><polygon fill="#A80036" points="408.6079,198.5414,417.9806,195.516,412.3322,195.2053,412.6429,189.557,408.6079,198.5414" style="stroke: #A80036; stroke-width: 1.0;"/><!--link PROD_SDD_PHYS to SR3_5--><path d="M431.2568,90.6902 C422.1854,117.1786 406.0626,164.2572 396.2698,192.8521 " fill="none" id="PROD_SDD_PHYS-SR3_5" style="stroke: #A80036; stroke-width: 2.0;"/><polygon fill="#A80036" points="394.6364,197.6218,401.3368,190.4035,396.2565,192.8916,393.7684,187.8113,394.6364,197.6218" style="stroke: #A80036; stroke-width: 1.0;"/><!--link META_TRACE_MATRIX to SR3_5--><path d="M398.5015,319.5844 C402.347,297.7215 402.4937,263.85 398.9415,241.0712 " fill="none" id="META_TRACE_MATRIX-SR3_5" style="stroke: #A80036; stroke-width: 2.0;"/><polygon fill="#A80036" points="398.0721,236.1033,395.6836,245.6581,398.9341,241.0284,403.5638,244.2789,398.0721,236.1033" style="stroke: #A80036; stroke-width: 1.0;"/><!--link SR3_5 to META_TRACE_MATRIX--><path d="M378.4875,236.1033 C374.6043,257.072 374.2144,290.8807 377.3178,314.4278 " fill="none" id="SR3_5-META_TRACE_MATRIX" style="stroke: #A80036; stroke-width: 2.0;"/><polygon fill="#A80036" points="378.0819,319.5844,380.7193,310.0952,377.3489,314.6384,372.8057,311.268,378.0819,319.5844" style="stroke: #A80036; stroke-width: 1.0;"/><!--link PROD_SYSRS_VALIDATED to SR3_5--><path d="M232.4644,92.2297 C266.7593,119.7409 326.2489,167.4634 360.8674,195.2343 " fill="none" id="PROD_SYSRS_VALIDATED-SR3_5" style="stroke: #A80036; stroke-width: 2.0;"/><polygon fill="#A80036" points="364.9626,198.5194,360.4453,189.7676,361.0625,195.3907,355.4394,196.0078,364.9626,198.5194" style="stroke: #A80036; stroke-width: 1.0;"/><!--link SR3_5 to PROD_SDD_VALIDATED--><path d="M381.622,197.9961 C373.4152,173.5432 359.0554,130.757 349.2934,101.6702 " fill="none" id="SR3_5-PROD_SDD_VALIDATED" style="stroke: #A80036; stroke-width: 2.0;"/><polygon fill="#A80036" points="347.6474,96.7658,346.7191,106.5708,349.2384,101.5059,354.3033,104.0252,347.6474,96.7658" style="stroke: #A80036; stroke-width: 1.0;"/><!--link SR3_5 to META_CR--><path d="M407.9114,235.5641 C430.9805,257.0721 469.0816,292.5949 494.6036,316.3899 " fill="none" id="SR3_5-META_CR" style="stroke: #A80036; stroke-width: 2.0;"/><polygon fill="#A80036" points="498.2746,319.8124,494.4196,310.7494,494.6175,316.4027,488.9641,316.6007,498.2746,319.8124" style="stroke: #A80036; stroke-width: 1.0;"/><!--link SYS to DES--><!--link SYS to DEV--><!--
@startuml



skinparam handwritten false
skinparam defaultFontName Futura


actor SYS
actor DES
actor DEV

artifact "SysRS (validated)" as PROD_SYSRS_VALIDATED
artifact "SDD" {
component "Functional" as PROD_SDD_FUNC
component "Physical" as PROD_SDD_PHYS
control "validated" as PROD_SDD_VALIDATED
}
artifact "Traceability Matrix" as META_TRACE_MATRIX
artifact "CR" as META_CR

usecase "Verify System Design" as SR3_5
PROD_SDD_FUNC ==> SR3_5
PROD_SDD_PHYS ==> SR3_5
META_TRACE_MATRIX ==> SR3_5
PROD_SYSRS_VALIDATED ==> SR3_5
SR3_5 ==> PROD_SDD_VALIDATED
SR3_5 ==> META_CR
SR3_5 ==> META_TRACE_MATRIX

@enduml

PlantUML version 1.2019.00(Sun Jan 13 07:46:42 PST 2019)
(GPL source distribution)
Java Runtime: Java(TM) SE Runtime Environment
JVM: Java HotSpot(TM) 64-Bit Server VM
Java Version: 10.0.1+10
Operating System: Mac OS X
OS Version: 10.14.3
Default Encoding: UTF-8
Language: en
Country: US
--></g></svg>