<svg xmlns="http://www.w3.org/2000/svg" height="307" preserveAspectRatio="none" style="width:433px;height:307px" width="433"><defs><filter height="300%" id="a" width="300%" x="-1" y="-1"><feGaussianBlur result="blurOut" stdDeviation="2"/><feColorMatrix in="blurOut" result="blurOut2" values="0 0 0 0 0 0 0 0 0 0 0 0 0 0 0 0 0 0 .4 0"/><feOffset dx="4" dy="4" in="blurOut2" result="blurOut3"/><feBlend in="SourceGraphic" in2="blurOut3"/></filter></defs><path fill="#FFF" filter="url(#a)" stroke="#000" stroke-width="1.5" d="M209.5 220h207v76h-207z"/><path fill="#FFF" stroke="#000" stroke-width="1.5" d="M399.5 225v14h12v-8l-6-6h-6z"/><path stroke="#000" stroke-width="1.5" d="M405.5 225v6M411.5 231h-6"/><text font-family="Futura" font-size="14" font-weight="bold" lengthAdjust="spacingAndGlyphs" textLength="31" x="297.5" y="236.966">SDD</text><path fill="#FEFECE" filter="url(#a)" stroke="#a80036" stroke-width="1.5" d="M324.5 249h84v38.594h-84z"/><path fill="#FEFECE" stroke="#a80036" stroke-width="1.5" d="M319.5 254h10v5h-10zM319.5 277.594h10v5h-10z"/><text font-family="Futura" font-size="14" lengthAdjust="spacingAndGlyphs" textLength="64" x="334.5" y="273.957">Functional</text><path fill="#FEFECE" filter="url(#a)" stroke="#a80036" stroke-width="1.5" d="M218 249h71v38.594h-71z"/><path fill="#FEFECE" stroke="#a80036" stroke-width="1.5" d="M213 254h10v5h-10zM213 277.594h10v5h-10z"/><text font-family="Futura" font-size="14" lengthAdjust="spacingAndGlyphs" textLength="51" x="228" y="273.957">Physical</text><circle cx="133.5" cy="18.5" fill="#FEFECE" filter="url(#a)" stroke="#a80036" stroke-width="2" r="8"/><path d="M133.5 26.5v27m-13-19h26m-13 19l-13 15m13-15l13 15" fill="none" filter="url(#a)" stroke="#a80036" stroke-width="2"/><text font-family="Futura" font-size="14" lengthAdjust="spacingAndGlyphs" textLength="26" x="120.5" y="90.457">DES</text><path fill="#FEFECE" filter="url(#a)" stroke="#000" stroke-width="1.5" d="M184 30.5h139v41.594H184z"/><path fill="#FEFECE" stroke="#000" stroke-width="1.5" d="M306 35.5v14h12v-8l-6-6h-6z"/><path stroke="#000" stroke-width="1.5" d="M312 35.5v6M318 41.5h-6"/><text font-family="Futura" font-size="14" lengthAdjust="spacingAndGlyphs" textLength="109" x="194" y="58.457">SysRS (validated)</text><path fill="#FEFECE" filter="url(#a)" stroke="#000" stroke-width="1.5" d="M6 247.5h177v41.594H6z"/><path fill="#FEFECE" stroke="#000" stroke-width="1.5" d="M166 252.5v14h12v-8l-6-6h-6z"/><path stroke="#000" stroke-width="1.5" d="M172 252.5v6M178 258.5h-6"/><text font-family="Futura" font-size="14" lengthAdjust="spacingAndGlyphs" textLength="147" x="16" y="275.457">Purchase Order (initial)</text><ellipse cx="253.541" cy="171.008" fill="#FEFECE" filter="url(#a)" rx="70.541" ry="16.508" stroke="#a80036" stroke-width="1.5"/><text font-family="Futura" font-size="14" lengthAdjust="spacingAndGlyphs" textLength="98" x="204.541" y="176.805">Physical Design</text><path d="M253.5 72.59v76.76" fill="none" stroke="#a80036" stroke-width="2"/><path fill="#A80036" stroke="#a80036" d="M253.5 154.355l4-9-4 4-4-4 4 9z"/><path d="M343.514 248.667l-67.561-58.294" fill="none" stroke="#a80036" stroke-width="2"/><path fill="#A80036" stroke="#a80036" d="M272.16 187.1l4.2 8.908-.415-5.642 5.642-.415-9.427-2.85z"/><path d="M253.5 187.54v56.04" fill="none" stroke="#a80036" stroke-width="2"/><path fill="#A80036" stroke="#a80036" d="M253.5 248.85l4-9-4 4-4-4 4 9z"/><path d="M228.306 186.45c-25.54 15.66-65.4 40.103-94.98 58.242" fill="none" stroke="#a80036" stroke-width="2"/><path fill="#A80036" stroke="#a80036" d="M129.039 247.32l9.763-1.294-5.5-1.32 1.318-5.5-5.581 8.115z"/></svg>