<?xml version="1.0" encoding="UTF-8" standalone="no"?><svg xmlns="http://www.w3.org/2000/svg" xmlns:xlink="http://www.w3.org/1999/xlink" contentScriptType="application/ecmascript" contentStyleType="text/css" height="303px" preserveAspectRatio="none" style="width:305px;height:303px;" version="1.1" viewBox="0 0 305 303" width="305px" zoomAndPan="magnify"><defs><filter height="300%" id="fm3usqcjf4amp" width="300%" x="-1" y="-1"><feGaussianBlur result="blurOut" stdDeviation="2.0"/><feColorMatrix in="blurOut" result="blurOut2" type="matrix" values="0 0 0 0 0 0 0 0 0 0 0 0 0 0 0 0 0 0 .4 0"/><feOffset dx="4.0" dy="4.0" in="blurOut2" result="blurOut3"/><feBlend in="SourceGraphic" in2="blurOut3" mode="normal"/></filter></defs><g><!--entity SYS--><ellipse cx="21" cy="18" fill="#FEFECE" filter="url(#fm3usqcjf4amp)" rx="8" ry="8" style="stroke: #A80036; stroke-width: 2.0;"/><path d="M21,26 L21,53 M8,34 L34,34 M21,53 L8,68 M21,53 L34,68 " fill="none" filter="url(#fm3usqcjf4amp)" style="stroke: #A80036; stroke-width: 2.0;"/><text fill="#000000" font-family="Futura" font-size="14" lengthAdjust="spacingAndGlyphs" textLength="24" x="9" y="89.957">SYS</text><!--entity DES--><ellipse cx="86" cy="18" fill="#FEFECE" filter="url(#fm3usqcjf4amp)" rx="8" ry="8" style="stroke: #A80036; stroke-width: 2.0;"/><path d="M86,26 L86,53 M73,34 L99,34 M86,53 L73,68 M86,53 L99,68 " fill="none" filter="url(#fm3usqcjf4amp)" style="stroke: #A80036; stroke-width: 2.0;"/><text fill="#000000" font-family="Futura" font-size="14" lengthAdjust="spacingAndGlyphs" textLength="26" x="73" y="89.957">DES</text><!--entity PROD_SDD_FUNC--><rect fill="#FEFECE" filter="url(#fm3usqcjf4amp)" height="41.5938" style="stroke: #000000; stroke-width: 1.5;" width="133" x="136.5" y="30"/><polygon fill="#FEFECE" points="252.5,35,252.5,49,264.5,49,264.5,41,258.5,35,252.5,35" style="stroke: #000000; stroke-width: 1.5;"/><line style="stroke: #000000; stroke-width: 1.5;" x1="258.5" x2="258.5" y1="35" y2="41"/><line style="stroke: #000000; stroke-width: 1.5;" x1="264.5" x2="258.5" y1="41" y2="41"/><text fill="#000000" font-family="Futura" font-size="14" lengthAdjust="spacingAndGlyphs" textLength="103" x="146.5" y="57.957">SDD (functional)</text><!--entity PROD_JUSTIFICATION--><rect fill="#FEFECE" filter="url(#fm3usqcjf4amp)" height="41.5938" style="stroke: #000000; stroke-width: 1.5;" width="170" x="118" y="251"/><polygon fill="#FEFECE" points="271,256,271,270,283,270,283,262,277,256,271,256" style="stroke: #000000; stroke-width: 1.5;"/><line style="stroke: #000000; stroke-width: 1.5;" x1="277" x2="277" y1="256" y2="262"/><line style="stroke: #000000; stroke-width: 1.5;" x1="283" x2="277" y1="262" y2="262"/><text fill="#000000" font-family="Futura" font-size="14" lengthAdjust="spacingAndGlyphs" textLength="140" x="128" y="278.957">Justification Document</text><ellipse cx="202.793" cy="172.6586" fill="#FEFECE" filter="url(#fm3usqcjf4amp)" rx="81.293" ry="18.6586" style="stroke: #A80036; stroke-width: 1.5;"/><text fill="#000000" font-family="Futura" font-size="14" lengthAdjust="spacingAndGlyphs" textLength="126" x="139.793" y="178.4555">Functional trade-offs</text><!--link PROD_SDD_FUNC to SR3_2--><path d="M203,72.1637 C203,93.5644 203,126.5739 203,148.8302 " fill="none" id="PROD_SDD_FUNC-SR3_2" style="stroke: #A80036; stroke-width: 2.0;"/><polygon fill="#A80036" points="203,153.9641,207,144.9641,203,148.9641,199,144.9641,203,153.9641" style="stroke: #A80036; stroke-width: 1.0;"/><!--link SR3_2 to PROD_JUSTIFICATION--><path d="M203,191.2152 C203,206.6223 203,228.6412 203,245.8008 " fill="none" id="SR3_2-PROD_JUSTIFICATION" style="stroke: #A80036; stroke-width: 2.0;"/><polygon fill="#A80036" points="203,250.9575,207,241.9575,203,245.9575,199,241.9575,203,250.9575" style="stroke: #A80036; stroke-width: 1.0;"/><!--
@startuml



skinparam handwritten false
skinparam defaultFontName Futura


actor SYS
actor DES

artifact "SDD (functional)" as PROD_SDD_FUNC
artifact "Justification Document" as PROD_JUSTIFICATION

usecase "Functional trade-offs" as SR3_2
PROD_SDD_FUNC ==> SR3_2
SR3_2 ==> PROD_JUSTIFICATION

@enduml

PlantUML version 1.2019.00(Sun Jan 13 07:46:42 PST 2019)
(GPL source distribution)
Java Runtime: Java(TM) SE Runtime Environment
JVM: Java HotSpot(TM) 64-Bit Server VM
Java Version: 10.0.1+10
Operating System: Mac OS X
OS Version: 10.14.3
Default Encoding: UTF-8
Language: en
Country: US
--></g></svg>