<svg xmlns="http://www.w3.org/2000/svg" height="352" preserveAspectRatio="none" style="width:351px;height:352px" width="351"><defs><filter height="300%" id="a" width="300%" x="-1" y="-1"><feGaussianBlur result="blurOut" stdDeviation="2"/><feColorMatrix in="blurOut" result="blurOut2" values="0 0 0 0 0 0 0 0 0 0 0 0 0 0 0 0 0 0 .4 0"/><feOffset dx="4" dy="4" in="blurOut2" result="blurOut3"/><feBlend in="SourceGraphic" in2="blurOut3"/></filter></defs><circle cx="21" cy="18" fill="#FEFECE" filter="url(#a)" stroke="#a80036" stroke-width="2" r="8"/><path d="M21 26v27M8 34h26M21 53L8 68m13-15l13 15" fill="none" filter="url(#a)" stroke="#a80036" stroke-width="2"/><text font-family="Futura" font-size="14" lengthAdjust="spacingAndGlyphs" textLength="24" x="9" y="89.957">SYS</text><circle cx="88" cy="18" fill="#FEFECE" filter="url(#a)" stroke="#a80036" stroke-width="2" r="8"/><path d="M88 26v27M75 34h26M88 53L75 68m13-15l13 15" fill="none" filter="url(#a)" stroke="#a80036" stroke-width="2"/><text font-family="Futura" font-size="14" lengthAdjust="spacingAndGlyphs" textLength="33" x="71.5" y="89.957">ACQ</text><circle cx="21" cy="164" fill="#FEFECE" filter="url(#a)" stroke="#a80036" stroke-width="2" r="8"/><path d="M21 172v27M8 180h26m-13 19L8 214m13-15l13 15" fill="none" filter="url(#a)" stroke="#a80036" stroke-width="2"/><text font-family="Futura" font-size="14" lengthAdjust="spacingAndGlyphs" textLength="24" x="9" y="235.957">STK</text><path fill="#FEFECE" filter="url(#a)" stroke="#000" stroke-width="1.5" d="M139.5 30h195v41.594h-195z"/><path fill="#FEFECE" stroke="#000" stroke-width="1.5" d="M317.5 35v14h12v-8l-6-6h-6z"/><path stroke="#000" stroke-width="1.5" d="M323.5 35v6M329.5 41h-6"/><text font-family="Futura" font-size="14" lengthAdjust="spacingAndGlyphs" textLength="165" x="149.5" y="57.957">User Manual (preliminary)</text><path fill="#FEFECE" filter="url(#a)" stroke="#000" stroke-width="1.5" d="M151.5 300h171v41.594h-171z"/><path fill="#FEFECE" stroke="#000" stroke-width="1.5" d="M305.5 305v14h12v-8l-6-6h-6z"/><path stroke="#000" stroke-width="1.5" d="M311.5 305v6M317.5 311h-6"/><text font-family="Futura" font-size="14" lengthAdjust="spacingAndGlyphs" textLength="141" x="161.5" y="327.957">User Manual (verified)</text><ellipse cx="237.197" cy="197.139" fill="#FEFECE" filter="url(#a)" rx="86.197" ry="19.64" stroke="#a80036" stroke-width="1.5"/><text font-family="Futura" font-size="14" lengthAdjust="spacingAndGlyphs" textLength="138" x="168.197" y="202.936">Verify System Manual</text><path d="M237 72.23v99.88" fill="none" stroke="#a80036" stroke-width="2"/><path fill="#A80036" stroke="#a80036" d="M237 177.15l4-9-4 4-4-4 4 9z"/><path d="M237 216.648v78.021" fill="none" stroke="#a80036" stroke-width="2"/><path fill="#A80036" stroke="#a80036" d="M237 299.783l4-9-4 4-4-4 4 9z"/></svg>