<svg xmlns="http://www.w3.org/2000/svg" height="578" preserveAspectRatio="none" style="width:1626px;height:578px" width="1626"><defs><filter height="300%" id="a" width="300%" x="-1" y="-1"><feGaussianBlur result="blurOut" stdDeviation="2"/><feColorMatrix in="blurOut" result="blurOut2" values="0 0 0 0 0 0 0 0 0 0 0 0 0 0 0 0 0 0 .4 0"/><feOffset dx="4" dy="4" in="blurOut2" result="blurOut3"/><feBlend in="SourceGraphic" in2="blurOut3"/></filter></defs><path fill="#FFF" filter="url(#a)" stroke="#000" stroke-width="1.5" d="M533 16.5h299v88H533z"/><path fill="#FFF" stroke="#000" stroke-width="1.5" d="M815 21.5v14h12v-8l-6-6h-6z"/><path stroke="#000" stroke-width="1.5" d="M821 21.5v6M827 27.5h-6"/><text font-family="Futura" font-size="14" font-weight="bold" lengthAdjust="spacingAndGlyphs" textLength="31" x="667" y="33.466">SDD</text><path fill="#FFF" filter="url(#a)" stroke="#000" stroke-width="1.5" d="M1195 291h167v88h-167z"/><path fill="#FFF" stroke="#000" stroke-width="1.5" d="M1345 296v14h12v-8l-6-6h-6z"/><path stroke="#000" stroke-width="1.5" d="M1351 296v6M1357 302h-6"/><text font-family="Futura" font-size="14" font-weight="bold" lengthAdjust="spacingAndGlyphs" textLength="95" x="1231" y="307.966">User Manual</text><path fill="#FEFECE" filter="url(#a)" stroke="#a80036" stroke-width="1.5" d="M740 51.5h84v38.594h-84z"/><path fill="#FEFECE" stroke="#a80036" stroke-width="1.5" d="M735 56.5h10v5h-10zM735 80.094h10v5h-10z"/><text font-family="Futura" font-size="14" lengthAdjust="spacingAndGlyphs" textLength="64" x="750" y="76.457">Functional</text><path fill="#FEFECE" filter="url(#a)" stroke="#a80036" stroke-width="1.5" d="M633.5 51.5h71v38.594h-71z"/><path fill="#FEFECE" stroke="#a80036" stroke-width="1.5" d="M628.5 56.5h10v5h-10zM628.5 80.094h10v5h-10z"/><text font-family="Futura" font-size="14" lengthAdjust="spacingAndGlyphs" textLength="51" x="643.5" y="76.457">Physical</text><circle cx="570" cy="61.5" fill="#FEFECE" filter="url(#a)" stroke="#a80036" stroke-width="2" r="12"/><path fill="#A80036" stroke="#a80036" d="M566 49.5l6-5-2 5 2 5-6-5z"/><text font-family="Futura" font-size="14" lengthAdjust="spacingAndGlyphs" textLength="57" x="541.5" y="92.457">validated</text><circle cx="1238" cy="336" fill="#FEFECE" filter="url(#a)" stroke="#a80036" stroke-width="2" r="12"/><path fill="#A80036" stroke="#a80036" d="M1234 324l6-5-2 5 2 5-6-5z"/><text font-family="Futura" font-size="14" lengthAdjust="spacingAndGlyphs" textLength="70" x="1203" y="366.957">preliminary</text><circle cx="1331" cy="336" fill="#FEFECE" filter="url(#a)" stroke="#a80036" stroke-width="2" r="12"/><path fill="#A80036" stroke="#a80036" d="M1327 324l6-5-2 5 2 5-6-5z"/><text font-family="Futura" font-size="14" lengthAdjust="spacingAndGlyphs" textLength="46" x="1308" y="366.957">verified</text><circle cx="30" cy="38" fill="#FEFECE" filter="url(#a)" stroke="#a80036" stroke-width="2" r="8"/><path d="M30 46v27M17 54h26M30 73L17 88m13-15l13 15" fill="none" filter="url(#a)" stroke="#a80036" stroke-width="2"/><text font-family="Futura" font-size="14" lengthAdjust="spacingAndGlyphs" textLength="24" x="18" y="109.957">SYS</text><circle cx="97" cy="38" fill="#FEFECE" filter="url(#a)" stroke="#a80036" stroke-width="2" r="8"/><path d="M97 46v27M84 54h26M97 73L84 88m13-15l13 15" fill="none" filter="url(#a)" stroke="#a80036" stroke-width="2"/><text font-family="Futura" font-size="14" lengthAdjust="spacingAndGlyphs" textLength="33" x="80.5" y="109.957">ACQ</text><circle cx="164" cy="38" fill="#FEFECE" filter="url(#a)" stroke="#a80036" stroke-width="2" r="8"/><path d="M164 46v27m-13-19h26m-13 19l-13 15m13-15l13 15" fill="none" filter="url(#a)" stroke="#a80036" stroke-width="2"/><text font-family="Futura" font-size="14" lengthAdjust="spacingAndGlyphs" textLength="24" x="152" y="109.957">STK</text><circle cx="30" cy="184" fill="#FEFECE" filter="url(#a)" stroke="#a80036" stroke-width="2" r="8"/><path d="M30 192v27m-13-19h26m-13 19l-13 15m13-15l13 15" fill="none" filter="url(#a)" stroke="#a80036" stroke-width="2"/><text font-family="Futura" font-size="14" lengthAdjust="spacingAndGlyphs" textLength="26" x="17" y="255.957">DES</text><circle cx="95" cy="184" fill="#FEFECE" filter="url(#a)" stroke="#a80036" stroke-width="2" r="8"/><path d="M95 192v27m-13-19h26m-13 19l-13 15m13-15l13 15" fill="none" filter="url(#a)" stroke="#a80036" stroke-width="2"/><text font-family="Futura" font-size="14" lengthAdjust="spacingAndGlyphs" textLength="27" x="81.5" y="255.957">DEV</text><path fill="#FEFECE" filter="url(#a)" stroke="#000" stroke-width="1.5" d="M6 324.5h104v41.594H6z"/><path fill="#FEFECE" stroke="#000" stroke-width="1.5" d="M93 329.5v14h12v-8l-6-6h-6z"/><path stroke="#000" stroke-width="1.5" d="M99 329.5v6M105 335.5h-6"/><text font-family="Futura" font-size="14" lengthAdjust="spacingAndGlyphs" textLength="74" x="16" y="352.457">Project Plan</text><path fill="#FEFECE" filter="url(#a)" stroke="#000" stroke-width="1.5" d="M367.5 50h139v41.594h-139z"/><path fill="#FEFECE" stroke="#000" stroke-width="1.5" d="M489.5 55v14h12v-8l-6-6h-6z"/><path stroke="#000" stroke-width="1.5" d="M495.5 55v6M501.5 61h-6"/><text font-family="Futura" font-size="14" lengthAdjust="spacingAndGlyphs" textLength="109" x="377.5" y="77.957">SysRS (validated)</text><path fill="#FEFECE" filter="url(#a)" stroke="#000" stroke-width="1.5" d="M481.5 324.5h127v41.594h-127z"/><path fill="#FEFECE" stroke="#000" stroke-width="1.5" d="M591.5 329.5v14h12v-8l-6-6h-6z"/><path stroke="#000" stroke-width="1.5" d="M597.5 329.5v6M603.5 335.5h-6"/><text font-family="Futura" font-size="14" lengthAdjust="spacingAndGlyphs" textLength="97" x="491.5" y="352.457">IVV Procedures</text><path fill="#FEFECE" filter="url(#a)" stroke="#000" stroke-width="1.5" d="M643.5 324.5h83v41.594h-83z"/><path fill="#FEFECE" stroke="#000" stroke-width="1.5" d="M709.5 329.5v14h12v-8l-6-6h-6z"/><path stroke="#000" stroke-width="1.5" d="M715.5 329.5v6M721.5 335.5h-6"/><text font-family="Futura" font-size="14" lengthAdjust="spacingAndGlyphs" textLength="53" x="653.5" y="352.457">IVV Plan</text><path fill="#FEFECE" filter="url(#a)" stroke="#000" stroke-width="1.5" d="M1419 324.5h170v41.594h-170z"/><path fill="#FEFECE" stroke="#000" stroke-width="1.5" d="M1572 329.5v14h12v-8l-6-6h-6z"/><path stroke="#000" stroke-width="1.5" d="M1578 329.5v6M1584 335.5h-6"/><text font-family="Futura" font-size="14" lengthAdjust="spacingAndGlyphs" textLength="140" x="1429" y="352.457">Justification Document</text><path fill="#FEFECE" filter="url(#a)" stroke="#000" stroke-width="1.5" d="M859.5 50h135v41.594h-135z"/><path fill="#FEFECE" stroke="#000" stroke-width="1.5" d="M977.5 55v14h12v-8l-6-6h-6z"/><path stroke="#000" stroke-width="1.5" d="M983.5 55v6M989.5 61h-6"/><text font-family="Futura" font-size="14" lengthAdjust="spacingAndGlyphs" textLength="105" x="869.5" y="77.957">System (verified)</text><path fill="#FEFECE" filter="url(#a)" stroke="#000" stroke-width="1.5" d="M299.5 324.5h147v41.594h-147z"/><path fill="#FEFECE" stroke="#000" stroke-width="1.5" d="M429.5 329.5v14h12v-8l-6-6h-6z"/><path stroke="#000" stroke-width="1.5" d="M435.5 329.5v6M441.5 335.5h-6"/><text font-family="Futura" font-size="14" lengthAdjust="spacingAndGlyphs" textLength="117" x="309.5" y="352.457">Traceability Matrix</text><path fill="#FEFECE" filter="url(#a)" stroke="#000" stroke-width="1.5" d="M216 324.5h48v41.594h-48z"/><path fill="#FEFECE" stroke="#000" stroke-width="1.5" d="M247 329.5v14h12v-8l-6-6h-6z"/><path stroke="#000" stroke-width="1.5" d="M253 329.5v6M259 335.5h-6"/><text font-family="Futura" font-size="14" lengthAdjust="spacingAndGlyphs" textLength="18" x="226" y="352.457">CR</text><path fill="#FEFECE" filter="url(#a)" stroke="#000" stroke-width="1.5" d="M487.5 526h177v41.594h-177z"/><path fill="#FEFECE" stroke="#000" stroke-width="1.5" d="M647.5 531v14h12v-8l-6-6h-6z"/><path stroke="#000" stroke-width="1.5" d="M653.5 531v6M659.5 537h-6"/><text font-family="Futura" font-size="14" lengthAdjust="spacingAndGlyphs" textLength="147" x="497.5" y="553.957">Purchase Order (initial)</text><ellipse cx="372.895" cy="448.479" fill="#FEFECE" filter="url(#a)" rx="75.395" ry="17.479" stroke="#a80036" stroke-width="1.5"/><text font-family="Futura" font-size="14" lengthAdjust="spacingAndGlyphs" textLength="111" x="317.395" y="454.276">Functional Design</text><ellipse cx="1533.793" cy="217.159" fill="#FEFECE" filter="url(#a)" rx="81.293" ry="18.659" stroke="#a80036" stroke-width="1.5"/><text font-family="Futura" font-size="14" lengthAdjust="spacingAndGlyphs" textLength="126" x="1470.793" y="222.956">Functional trade-offs</text><ellipse cx="669.041" cy="217.008" fill="#FEFECE" filter="url(#a)" rx="70.541" ry="16.508" stroke="#a80036" stroke-width="1.5"/><text font-family="Futura" font-size="14" lengthAdjust="spacingAndGlyphs" textLength="98" x="620.041" y="222.805">Physical Design</text><ellipse cx="1134.165" cy="217.133" fill="#FEFECE" filter="url(#a)" rx="76.165" ry="17.633" stroke="#a80036" stroke-width="1.5"/><text font-family="Futura" font-size="14" lengthAdjust="spacingAndGlyphs" textLength="113" x="1077.665" y="222.93">Physical trade-offs</text><ellipse cx="336.136" cy="217.227" fill="#FEFECE" filter="url(#a)" rx="84.136" ry="19.227" stroke="#a80036" stroke-width="1.5"/><text font-family="Futura" font-size="14" lengthAdjust="spacingAndGlyphs" textLength="133" x="269.636" y="223.024">Verify System Design</text><ellipse cx="508.912" cy="217.148" fill="#FEFECE" filter="url(#a)" rx="53.912" ry="16.148" stroke="#a80036" stroke-width="1.5"/><text font-family="Futura" font-size="14" lengthAdjust="spacingAndGlyphs" textLength="72" x="472.912" y="222.945">Update IVV</text><ellipse cx="863.202" cy="217.14" fill="#FEFECE" filter="url(#a)" rx="88.702" ry="20.14" stroke="#a80036" stroke-width="1.5"/><text font-family="Futura" font-size="14" lengthAdjust="spacingAndGlyphs" textLength="144" x="791.202" y="222.937">Create System Manual</text><ellipse cx="1331.197" cy="217.139" fill="#FEFECE" filter="url(#a)" rx="86.197" ry="19.64" stroke="#a80036" stroke-width="1.5"/><text font-family="Futura" font-size="14" lengthAdjust="spacingAndGlyphs" textLength="138" x="1262.197" y="222.936">Verify System Manual</text><path d="M105.275 366.587c10.366 4.331 21.346 8.698 31.725 12.413 60.845 21.779 132.206 42.091 180.399 55.063" fill="none" stroke="#a80036" stroke-width="2"/><path fill="#A80036" stroke="#a80036" d="M322.28 435.373l-7.655-6.196 2.826 4.9-4.9 2.826 9.73-1.53z"/><path d="M367.337 90.752C323.343 106.582 268.493 133.04 234 174c-35.044 41.616-27.91 63.199-36 117-5.816 38.676-21.967 55.64 0 88 23.019 33.91 65.463 51.274 102.785 60.167" fill="none" stroke="#a80036" stroke-width="2"/><path fill="#A80036" stroke="#a80036" d="M305.78 440.314l-7.877-5.914 3.003 4.795-4.794 3.002 9.667-1.883z"/><path d="M373 366.842v58.88" fill="none" stroke="#a80036" stroke-width="2"/><path fill="#A80036" stroke="#a80036" d="M373 430.949l4-9-4 4-4-4 4 9z"/><path d="M442.993 441.746C518.813 432.98 642.534 414.418 744 379c106.805-37.281 166.63-22.097 225-119 19.722-32.741 20.456-53.712 0-86-33.41-52.734-73.188-28.356-127-60-10.25-6.028-20.953-13.335-30.433-20.203" fill="none" stroke="#a80036" stroke-width="2"/><path fill="#A80036" stroke="#a80036" d="M807.304 90.68l4.903 8.54-.867-5.59 5.59-.867-9.626-2.084z"/><path d="M405.615 464.326l122.33 59.357" fill="none" stroke="#a80036" stroke-width="2"/><path fill="#A80036" stroke="#a80036" d="M532.477 525.882l-6.351-7.528 1.852 5.345-5.345 1.852 9.844.33z"/><path d="M803.452 90.576C814.236 99.262 827.975 108.7 842 114c247.796 93.648 336.685-6.896 593 60 21.228 5.54 43.746 15.007 61.934 23.65" fill="none" stroke="#a80036" stroke-width="2"/><path fill="#A80036" stroke="#a80036" d="M1501.461 199.826l-6.378-7.505 1.872 5.339-5.338 1.871 9.844.295z"/><path d="M1529.638 235.685l-19.476 83.423" fill="none" stroke="#a80036" stroke-width="2"/><path fill="#A80036" stroke="#a80036" d="M1508.967 324.223l5.942-7.855-4.805 2.986-2.986-4.804 1.85 9.673z"/><path d="M470.735 92.23L639.83 198.643" fill="none" stroke="#a80036" stroke-width="2"/><path fill="#A80036" stroke="#a80036" d="M644.133 201.351l-5.487-8.179 1.255 5.516-5.515 1.255 9.747 1.408z"/><path d="M766.76 90.69l-82.122 106.106" fill="none" stroke="#a80036" stroke-width="2"/><path fill="#A80036" stroke="#a80036" d="M681.567 200.763l8.672-4.67-5.611.716-.715-5.612-2.346 9.566z"/><path d="M669 200.327V96.023" fill="none" stroke="#a80036" stroke-width="2"/><path fill="#A80036" stroke="#a80036" d="M669 90.69l-4 9 4-4 4 4-4-9z"/><path d="M692.935 232.6C710.752 245.757 733.697 266.36 744 291c15.088 36.084 14.967 51.866 0 88-26.196 63.242-89.028 115.09-129.988 143.739" fill="none" stroke="#a80036" stroke-width="2"/><path fill="#A80036" stroke="#a80036" d="M609.624 525.778l9.676-1.836-5.565-1.011 1.01-5.566-5.12 8.413z"/><path d="M805.702 90.623C816.313 98.695 829.282 107.626 842 114c78.789 39.49 106.255 29.66 189 60 20.965 7.687 43.926 17.166 62.838 25.267" fill="none" stroke="#a80036" stroke-width="2"/><path fill="#A80036" stroke="#a80036" d="M1098.555 201.295l-6.689-7.23 2.095 5.255-5.254 2.095 9.848-.12z"/><path d="M689.155 90.918C698.477 99.142 710.108 108.11 722 114c101.23 50.148 137.448 32.421 247 60 36.65 9.226 77.782 19.945 109.81 28.372" fill="none" stroke="#a80036" stroke-width="2"/><path fill="#A80036" stroke="#a80036" d="M1083.87 203.705l-7.684-6.16 2.85 4.887-4.887 2.85 9.722-1.577z"/><path d="M1164.657 233.048c18.053 8.933 41.553 19.683 63.343 26.952 61.278 20.442 80.3 11.873 142 31 27.999 8.68 58.322 20.774 83.029 31.365" fill="none" stroke="#a80036" stroke-width="2"/><path fill="#A80036" stroke="#a80036" d="M1457.893 324.461l-6.681-7.236 2.09 5.257-5.257 2.09 9.848-.11z"/><path d="M1088.979 231.257c-32.892 9.793-78.76 22.17-119.979 28.743-222.062 35.409-290.207-35.552-505 31-21.243 6.582-42.695 19.082-59.43 30.452" fill="none" stroke="#a80036" stroke-width="2"/><path fill="#A80036" stroke="#a80036" d="M400.419 324.315l9.68-1.817-5.564-1.022 1.022-5.563-5.138 8.402z"/><path d="M759.44 90.58C748.732 98.943 735.372 108.114 722 114c-118.473 52.15-161.53 21.13-285 60-20.272 6.382-42.047 15.363-60.17 23.468" fill="none" stroke="#a80036" stroke-width="2"/><path fill="#A80036" stroke="#a80036" d="M371.82 199.728l9.848-.054-5.29-2.002 2-5.29-6.559 7.346z"/><path d="M648.345 90.661C639.021 98.74 627.526 107.665 616 114c-73.533 40.412-100.56 30.21-179 60-19.216 7.298-40.169 16.08-57.984 23.799" fill="none" stroke="#a80036" stroke-width="2"/><path fill="#A80036" stroke="#a80036" d="M374.079 199.946l9.848.08-5.263-2.074 2.073-5.263-6.658 7.257z"/><path d="M377.216 324.223c-2.571-23.146-13.079-60.031-23.829-83.938" fill="none" stroke="#a80036" stroke-width="2"/><path fill="#A80036" stroke="#a80036" d="M351.236 235.685l.189 9.847 1.93-5.318 5.317 1.93-7.436-6.459z"/><path d="M332.128 236.238c2.319 22.185 12.5 58.76 22.971 83.417" fill="none" stroke="#a80036" stroke-width="2"/><path fill="#A80036" stroke="#a80036" d="M357.195 324.42l.037-9.85-2.05 5.272-5.273-2.05 7.286 6.627z"/><path d="M422.314 92.23l-70.227 101.515" fill="none" stroke="#a80036" stroke-width="2"/><path fill="#A80036" stroke="#a80036" d="M349.097 198.067l8.41-5.126-5.565 1.014-1.014-5.565-1.83 9.677z"/><path d="M373.672 199.834C412.847 181.204 475.158 149.347 524 114c5.756-4.166 11.555-8.989 17.004-13.866" fill="none" stroke="#a80036" stroke-width="2"/><path fill="#A80036" stroke="#a80036" d="M544.715 96.756l-9.348 3.1 5.65.266-.265 5.65 3.963-9.016z"/><path d="M321.835 235.96l-62.899 84.193" fill="none" stroke="#a80036" stroke-width="2"/><path fill="#A80036" stroke="#a80036" d="M255.822 324.321l8.591-4.816-5.598.81-.81-5.598-2.183 9.604z"/><path d="M447.47 92.23l51.46 104.35" fill="none" stroke="#a80036" stroke-width="2"/><path fill="#A80036" stroke="#a80036" d="M501.179 201.14l-.393-9.841-1.819 5.357-5.356-1.819 7.568 6.303z"/><path d="M559.235 96.766c-11.85 28.36-30.663 73.389-41.59 99.545" fill="none" stroke="#a80036" stroke-width="2"/><path fill="#A80036" stroke="#a80036" d="M515.699 200.967l7.16-6.763-5.233 2.15-2.148-5.234.22 9.847z"/><path d="M532.975 231.453C562.152 249.165 609.559 278.375 626 291c11.82 9.077 24.054 20.074 34.296 29.805" fill="none" stroke="#a80036" stroke-width="2"/><path fill="#A80036" stroke="#a80036" d="M663.975 324.327l-3.735-9.113.123 5.656-5.655.123 9.267 3.334z"/><path d="M513.487 233.015l24.129 86.128" fill="none" stroke="#a80036" stroke-width="2"/><path fill="#A80036" stroke="#a80036" d="M539.016 324.142l1.424-9.745-2.772 4.93-4.931-2.772 6.28 7.587z"/><path d="M492.595 232.5c-23.163 21.887-65.705 62.082-93.306 88.16" fill="none" stroke="#a80036" stroke-width="2"/><path fill="#A80036" stroke="#a80036" d="M395.33 324.402l9.288-3.273-5.654-.16.16-5.655-3.795 9.088z"/><path d="M476.121 92.216c14.995 7.57 32.45 15.716 48.879 21.784 99.907 36.9 130.877 26.576 232 60 20.338 6.722 42.355 15.413 61.025 23.22" fill="none" stroke="#a80036" stroke-width="2"/><path fill="#A80036" stroke="#a80036" d="M822.697 199.185l-6.746-7.176 2.137 5.238-5.238 2.137 9.847-.2z"/><path d="M594.428 96.851C601.044 102.978 608.47 109.137 616 114c8.862 5.723 129.497 55.179 198.83 83.426" fill="none" stroke="#a80036" stroke-width="2"/><path fill="#A80036" stroke="#a80036" d="M819.732 199.423l-6.826-7.1 2.195 5.213-5.213 2.196 9.844-.31z"/><path d="M917.694 92.23l-43.728 99.754" fill="none" stroke="#a80036" stroke-width="2"/><path fill="#A80036" stroke="#a80036" d="M871.905 196.686l7.277-6.637-5.27 2.058-2.057-5.27.05 9.85z"/><path d="M912.025 233.8l286.06 98.022" fill="none" stroke="#a80036" stroke-width="2"/><path fill="#A80036" stroke="#a80036" d="M1202.937 333.485l-7.217-6.702 2.487 5.081-5.08 2.488 9.81-.867z"/><path d="M1256.767 319.569l56.982-78.733" fill="none" stroke="#a80036" stroke-width="2"/><path fill="#A80036" stroke="#a80036" d="M1316.875 236.516l-8.517 4.946 5.586-.895.895 5.585 2.036-9.636z"/><path d="M1331 236.516v78.013" fill="none" stroke="#a80036" stroke-width="2"/><path fill="#A80036" stroke="#a80036" d="M1331 319.569l4-9-4 4-4-4 4 9z"/></svg>