<svg xmlns="http://www.w3.org/2000/svg" height="372" preserveAspectRatio="none" style="width:618px;height:372px" width="618"><defs><filter height="300%" id="a" width="300%" x="-1" y="-1"><feGaussianBlur result="blurOut" stdDeviation="2"/><feColorMatrix in="blurOut" result="blurOut2" values="0 0 0 0 0 0 0 0 0 0 0 0 0 0 0 0 0 0 .4 0"/><feOffset dx="4" dy="4" in="blurOut2" result="blurOut3"/><feBlend in="SourceGraphic" in2="blurOut3"/></filter></defs><path fill="#FFF" filter="url(#a)" stroke="#000" stroke-width="1.5" d="M302 16.5h299v88H302z"/><path fill="#FFF" stroke="#000" stroke-width="1.5" d="M584 21.5v14h12v-8l-6-6h-6z"/><path stroke="#000" stroke-width="1.5" d="M590 21.5v6M596 27.5h-6"/><text font-family="Futura" font-size="14" font-weight="bold" lengthAdjust="spacingAndGlyphs" textLength="31" x="436" y="33.466">SDD</text><path fill="#FEFECE" filter="url(#a)" stroke="#a80036" stroke-width="1.5" d="M509 51.5h84v38.594h-84z"/><path fill="#FEFECE" stroke="#a80036" stroke-width="1.5" d="M504 56.5h10v5h-10zM504 80.094h10v5h-10z"/><text font-family="Futura" font-size="14" lengthAdjust="spacingAndGlyphs" textLength="64" x="519" y="76.457">Functional</text><path fill="#FEFECE" filter="url(#a)" stroke="#a80036" stroke-width="1.5" d="M402.5 51.5h71v38.594h-71z"/><path fill="#FEFECE" stroke="#a80036" stroke-width="1.5" d="M397.5 56.5h10v5h-10zM397.5 80.094h10v5h-10z"/><text font-family="Futura" font-size="14" lengthAdjust="spacingAndGlyphs" textLength="51" x="412.5" y="76.457">Physical</text><circle cx="339" cy="61.5" fill="#FEFECE" filter="url(#a)" stroke="#a80036" stroke-width="2" r="12"/><path fill="#A80036" stroke="#a80036" d="M335 49.5l6-5-2 5 2 5-6-5z"/><text font-family="Futura" font-size="14" lengthAdjust="spacingAndGlyphs" textLength="57" x="310.5" y="92.457">validated</text><circle cx="21" cy="38" fill="#FEFECE" filter="url(#a)" stroke="#a80036" stroke-width="2" r="8"/><path d="M21 46v27M8 54h26M21 73L8 88m13-15l13 15" fill="none" filter="url(#a)" stroke="#a80036" stroke-width="2"/><text font-family="Futura" font-size="14" lengthAdjust="spacingAndGlyphs" textLength="24" x="9" y="109.957">SYS</text><circle cx="86" cy="38" fill="#FEFECE" filter="url(#a)" stroke="#a80036" stroke-width="2" r="8"/><path d="M86 46v27M73 54h26M86 73L73 88m13-15l13 15" fill="none" filter="url(#a)" stroke="#a80036" stroke-width="2"/><text font-family="Futura" font-size="14" lengthAdjust="spacingAndGlyphs" textLength="26" x="73" y="109.957">DES</text><circle cx="21" cy="184" fill="#FEFECE" filter="url(#a)" stroke="#a80036" stroke-width="2" r="8"/><path d="M21 192v27M8 200h26m-13 19L8 234m13-15l13 15" fill="none" filter="url(#a)" stroke="#a80036" stroke-width="2"/><text font-family="Futura" font-size="14" lengthAdjust="spacingAndGlyphs" textLength="27" x="7.5" y="255.957">DEV</text><path fill="#FEFECE" filter="url(#a)" stroke="#000" stroke-width="1.5" d="M136.5 50h139v41.594h-139z"/><path fill="#FEFECE" stroke="#000" stroke-width="1.5" d="M258.5 55v14h12v-8l-6-6h-6z"/><path stroke="#000" stroke-width="1.5" d="M264.5 55v6M270.5 61h-6"/><text font-family="Futura" font-size="14" lengthAdjust="spacingAndGlyphs" textLength="109" x="146.5" y="77.957">SysRS (validated)</text><path fill="#FEFECE" filter="url(#a)" stroke="#000" stroke-width="1.5" d="M314.5 320h147v41.594h-147z"/><path fill="#FEFECE" stroke="#000" stroke-width="1.5" d="M444.5 325v14h12v-8l-6-6h-6z"/><path stroke="#000" stroke-width="1.5" d="M450.5 325v6M456.5 331h-6"/><text font-family="Futura" font-size="14" lengthAdjust="spacingAndGlyphs" textLength="117" x="324.5" y="347.957">Traceability Matrix</text><path fill="#FEFECE" filter="url(#a)" stroke="#000" stroke-width="1.5" d="M497 320h48v41.594h-48z"/><path fill="#FEFECE" stroke="#000" stroke-width="1.5" d="M528 325v14h12v-8l-6-6h-6z"/><path stroke="#000" stroke-width="1.5" d="M534 325v6M540 331h-6"/><text font-family="Futura" font-size="14" lengthAdjust="spacingAndGlyphs" textLength="18" x="507" y="347.957">CR</text><ellipse cx="388.136" cy="217.227" fill="#FEFECE" filter="url(#a)" rx="84.136" ry="19.227" stroke="#a80036" stroke-width="1.5"/><text font-family="Futura" font-size="14" lengthAdjust="spacingAndGlyphs" textLength="133" x="321.636" y="223.024">Verify System Design</text><path d="M529.017 90.69L412.344 195.195" fill="none" stroke="#a80036" stroke-width="2"/><path fill="#A80036" stroke="#a80036" d="M408.608 198.541l9.373-3.025-5.649-.31.31-5.649-4.034 8.984z"/><path d="M431.257 90.69L396.27 192.852" fill="none" stroke="#a80036" stroke-width="2"/><path fill="#A80036" stroke="#a80036" d="M394.636 197.622l6.7-7.219-5.08 2.489-2.488-5.08.868 9.81z"/><path d="M398.502 319.584c3.845-21.863 3.992-55.734.44-78.513" fill="none" stroke="#a80036" stroke-width="2"/><path fill="#A80036" stroke="#a80036" d="M398.072 236.103l-2.388 9.555 3.25-4.63 4.63 3.25-5.492-8.175z"/><path d="M378.488 236.103c-3.884 20.969-4.274 54.778-1.17 78.325" fill="none" stroke="#a80036" stroke-width="2"/><path fill="#A80036" stroke="#a80036" d="M378.082 319.584l2.637-9.489-3.37 4.543-4.543-3.37 5.276 8.316z"/><path d="M232.464 92.23l128.403 103.004" fill="none" stroke="#a80036" stroke-width="2"/><path fill="#A80036" stroke="#a80036" d="M364.963 198.52l-4.518-8.752.618 5.623-5.624.617 9.524 2.511z"/><path d="M381.622 197.996l-32.329-96.326" fill="none" stroke="#a80036" stroke-width="2"/><path fill="#A80036" stroke="#a80036" d="M347.647 96.766l-.928 9.805 2.52-5.065 5.064 2.52-6.656-7.26z"/><path d="M407.911 235.564l86.693 80.826" fill="none" stroke="#a80036" stroke-width="2"/><path fill="#A80036" stroke="#a80036" d="M498.275 319.812l-3.855-9.063.197 5.654-5.653.198 9.31 3.211z"/></svg>