<svg xmlns="http://www.w3.org/2000/svg" height="306" preserveAspectRatio="none" style="width:561px;height:306px" width="561"><defs><filter height="300%" id="a" width="300%" x="-1" y="-1"><feGaussianBlur result="blurOut" stdDeviation="2"/><feColorMatrix in="blurOut" result="blurOut2" values="0 0 0 0 0 0 0 0 0 0 0 0 0 0 0 0 0 0 .4 0"/><feOffset dx="4" dy="4" in="blurOut2" result="blurOut3"/><feBlend in="SourceGraphic" in2="blurOut3"/></filter></defs><circle cx="21" cy="18" fill="#FEFECE" filter="url(#a)" stroke="#a80036" stroke-width="2" r="8"/><path d="M21 26v27M8 34h26M21 53L8 68m13-15l13 15" fill="none" filter="url(#a)" stroke="#a80036" stroke-width="2"/><text font-family="Futura" font-size="14" lengthAdjust="spacingAndGlyphs" textLength="24" x="9" y="89.957">SYS</text><path fill="#FEFECE" filter="url(#a)" stroke="#000" stroke-width="1.5" d="M71.5 30h139v41.594h-139z"/><path fill="#FEFECE" stroke="#000" stroke-width="1.5" d="M193.5 35v14h12v-8l-6-6h-6z"/><path stroke="#000" stroke-width="1.5" d="M199.5 35v6M205.5 41h-6"/><text font-family="Futura" font-size="14" lengthAdjust="spacingAndGlyphs" textLength="109" x="81.5" y="57.957">SysRS (validated)</text><path fill="#FEFECE" filter="url(#a)" stroke="#000" stroke-width="1.5" d="M245.5 30h129v41.594h-129z"/><path fill="#FEFECE" stroke="#000" stroke-width="1.5" d="M357.5 35v14h12v-8l-6-6h-6z"/><path stroke="#000" stroke-width="1.5" d="M363.5 35v6M369.5 41h-6"/><text font-family="Futura" font-size="14" lengthAdjust="spacingAndGlyphs" textLength="99" x="255.5" y="57.957">SDD (validated)</text><path fill="#FEFECE" filter="url(#a)" stroke="#000" stroke-width="1.5" d="M409.5 30h135v41.594h-135z"/><path fill="#FEFECE" stroke="#000" stroke-width="1.5" d="M527.5 35v14h12v-8l-6-6h-6z"/><path stroke="#000" stroke-width="1.5" d="M533.5 35v6M539.5 41h-6"/><text font-family="Futura" font-size="14" lengthAdjust="spacingAndGlyphs" textLength="105" x="419.5" y="57.957">System (verified)</text><path fill="#FEFECE" filter="url(#a)" stroke="#000" stroke-width="1.5" d="M212.5 254h195v41.594h-195z"/><path fill="#FEFECE" stroke="#000" stroke-width="1.5" d="M390.5 259v14h12v-8l-6-6h-6z"/><path stroke="#000" stroke-width="1.5" d="M396.5 259v6M402.5 265h-6"/><text font-family="Futura" font-size="14" lengthAdjust="spacingAndGlyphs" textLength="165" x="222.5" y="281.957">User Manual (preliminary)</text><ellipse cx="310.202" cy="174.14" fill="#FEFECE" filter="url(#a)" rx="88.702" ry="20.14" stroke="#a80036" stroke-width="1.5"/><text font-family="Futura" font-size="14" lengthAdjust="spacingAndGlyphs" textLength="144" x="238.202" y="179.937">Create System Manual</text><path d="M170.052 72.144l109.416 79.634" fill="none" stroke="#a80036" stroke-width="2"/><path fill="#A80036" stroke="#a80036" d="M283.549 154.749l-4.923-8.53.88 5.587-5.588.88 9.63 2.063z"/><path d="M310 72.144v76.573" fill="none" stroke="#a80036" stroke-width="2"/><path fill="#A80036" stroke="#a80036" d="M310 153.946l4-9-4 4-4-4 4 9z"/><path d="M448.292 72.144L340.17 151.779" fill="none" stroke="#a80036" stroke-width="2"/><path fill="#A80036" stroke="#a80036" d="M336.138 154.749l9.619-2.117-5.593-.849.849-5.592-4.875 8.558z"/><path d="M310 194.439v54.363" fill="none" stroke="#a80036" stroke-width="2"/><path fill="#A80036" stroke="#a80036" d="M310 253.896l4-9-4 4-4-4 4 9z"/></svg>