<?xml version="1.0" encoding="UTF-8" standalone="no"?><svg xmlns="http://www.w3.org/2000/svg" xmlns:xlink="http://www.w3.org/1999/xlink" contentScriptType="application/ecmascript" contentStyleType="text/css" height="306px" preserveAspectRatio="none" style="width:561px;height:306px;" version="1.1" viewBox="0 0 561 306" width="561px" zoomAndPan="magnify"><defs><filter height="300%" id="f1ctr8zdzb78eo" width="300%" x="-1" y="-1"><feGaussianBlur result="blurOut" stdDeviation="2.0"/><feColorMatrix in="blurOut" result="blurOut2" type="matrix" values="0 0 0 0 0 0 0 0 0 0 0 0 0 0 0 0 0 0 .4 0"/><feOffset dx="4.0" dy="4.0" in="blurOut2" result="blurOut3"/><feBlend in="SourceGraphic" in2="blurOut3" mode="normal"/></filter></defs><g><!--entity SYS--><ellipse cx="21" cy="18" fill="#FEFECE" filter="url(#f1ctr8zdzb78eo)" rx="8" ry="8" style="stroke: #A80036; stroke-width: 2.0;"/><path d="M21,26 L21,53 M8,34 L34,34 M21,53 L8,68 M21,53 L34,68 " fill="none" filter="url(#f1ctr8zdzb78eo)" style="stroke: #A80036; stroke-width: 2.0;"/><text fill="#000000" font-family="Futura" font-size="14" lengthAdjust="spacingAndGlyphs" textLength="24" x="9" y="89.957">SYS</text><!--entity PROD_SYSRS_VALIDATED--><rect fill="#FEFECE" filter="url(#f1ctr8zdzb78eo)" height="41.5938" style="stroke: #000000; stroke-width: 1.5;" width="139" x="71.5" y="30"/><polygon fill="#FEFECE" points="193.5,35,193.5,49,205.5,49,205.5,41,199.5,35,193.5,35" style="stroke: #000000; stroke-width: 1.5;"/><line style="stroke: #000000; stroke-width: 1.5;" x1="199.5" x2="199.5" y1="35" y2="41"/><line style="stroke: #000000; stroke-width: 1.5;" x1="205.5" x2="199.5" y1="41" y2="41"/><text fill="#000000" font-family="Futura" font-size="14" lengthAdjust="spacingAndGlyphs" textLength="109" x="81.5" y="57.957">SysRS (validated)</text><!--entity PROD_SDD_VALIDATED--><rect fill="#FEFECE" filter="url(#f1ctr8zdzb78eo)" height="41.5938" style="stroke: #000000; stroke-width: 1.5;" width="129" x="245.5" y="30"/><polygon fill="#FEFECE" points="357.5,35,357.5,49,369.5,49,369.5,41,363.5,35,357.5,35" style="stroke: #000000; stroke-width: 1.5;"/><line style="stroke: #000000; stroke-width: 1.5;" x1="363.5" x2="363.5" y1="35" y2="41"/><line style="stroke: #000000; stroke-width: 1.5;" x1="369.5" x2="363.5" y1="41" y2="41"/><text fill="#000000" font-family="Futura" font-size="14" lengthAdjust="spacingAndGlyphs" textLength="99" x="255.5" y="57.957">SDD (validated)</text><!--entity PROD_SYS_VERIFIED--><rect fill="#FEFECE" filter="url(#f1ctr8zdzb78eo)" height="41.5938" style="stroke: #000000; stroke-width: 1.5;" width="135" x="409.5" y="30"/><polygon fill="#FEFECE" points="527.5,35,527.5,49,539.5,49,539.5,41,533.5,35,527.5,35" style="stroke: #000000; stroke-width: 1.5;"/><line style="stroke: #000000; stroke-width: 1.5;" x1="533.5" x2="533.5" y1="35" y2="41"/><line style="stroke: #000000; stroke-width: 1.5;" x1="539.5" x2="533.5" y1="41" y2="41"/><text fill="#000000" font-family="Futura" font-size="14" lengthAdjust="spacingAndGlyphs" textLength="105" x="419.5" y="57.957">System (verified)</text><!--entity PROD_USERMANUAL_PRELIM--><rect fill="#FEFECE" filter="url(#f1ctr8zdzb78eo)" height="41.5938" style="stroke: #000000; stroke-width: 1.5;" width="195" x="212.5" y="254"/><polygon fill="#FEFECE" points="390.5,259,390.5,273,402.5,273,402.5,265,396.5,259,390.5,259" style="stroke: #000000; stroke-width: 1.5;"/><line style="stroke: #000000; stroke-width: 1.5;" x1="396.5" x2="396.5" y1="259" y2="265"/><line style="stroke: #000000; stroke-width: 1.5;" x1="402.5" x2="396.5" y1="265" y2="265"/><text fill="#000000" font-family="Futura" font-size="14" lengthAdjust="spacingAndGlyphs" textLength="165" x="222.5" y="281.957">User Manual (preliminary)</text><ellipse cx="310.2018" cy="174.1404" fill="#FEFECE" filter="url(#f1ctr8zdzb78eo)" rx="88.7018" ry="20.1404" style="stroke: #A80036; stroke-width: 1.5;"/><text fill="#000000" font-family="Futura" font-size="14" lengthAdjust="spacingAndGlyphs" textLength="144" x="238.2018" y="179.9372">Create System Manual</text><!--link PROD_SYSRS_VALIDATED to SR3_7--><path d="M170.0521,72.1445 C200.58,94.3629 248.3949,129.1631 279.4678,151.7783 " fill="none" id="PROD_SYSRS_VALIDATED-SR3_7" style="stroke: #A80036; stroke-width: 2.0;"/><polygon fill="#A80036" points="283.5488,154.7485,278.6259,146.2182,279.5062,151.8062,273.9182,152.6864,283.5488,154.7485" style="stroke: #A80036; stroke-width: 1.0;"/><!--link PROD_SDD_VALIDATED to SR3_7--><path d="M310,72.1445 C310,93.3831 310,126.1182 310,148.7173 " fill="none" id="PROD_SDD_VALIDATED-SR3_7" style="stroke: #A80036; stroke-width: 2.0;"/><polygon fill="#A80036" points="310,153.9459,314,144.9459,310,148.9459,306,144.9459,310,153.9459" style="stroke: #A80036; stroke-width: 1.0;"/><!--link PROD_SYS_VERIFIED to SR3_7--><path d="M448.2917,72.1445 C418.1251,94.3629 370.8761,129.1631 340.1709,151.7783 " fill="none" id="PROD_SYS_VERIFIED-SR3_7" style="stroke: #A80036; stroke-width: 2.0;"/><polygon fill="#A80036" points="336.1382,154.7485,345.757,152.6321,340.1641,151.7834,341.0128,146.1906,336.1382,154.7485" style="stroke: #A80036; stroke-width: 1.0;"/><!--link SR3_7 to PROD_USERMANUAL_PRELIM--><path d="M310,194.4389 C310,210.1102 310,231.854 310,248.8024 " fill="none" id="SR3_7-PROD_USERMANUAL_PRELIM" style="stroke: #A80036; stroke-width: 2.0;"/><polygon fill="#A80036" points="310,253.8963,314,244.8963,310,248.8963,306,244.8963,310,253.8963" style="stroke: #A80036; stroke-width: 1.0;"/><!--
@startuml



skinparam handwritten false
skinparam defaultFontName Futura


actor SYS

artifact "SysRS (validated)" as PROD_SYSRS_VALIDATED
artifact "SDD (validated)" as PROD_SDD_VALIDATED
artifact "System (verified)" as PROD_SYS_VERIFIED
artifact "User Manual (preliminary)" as PROD_USERMANUAL_PRELIM

usecase "Create System Manual" as SR3_7
PROD_SYSRS_VALIDATED ==> SR3_7
PROD_SDD_VALIDATED ==> SR3_7
PROD_SYS_VERIFIED ==> SR3_7
SR3_7 ==> PROD_USERMANUAL_PRELIM

@enduml

PlantUML version 1.2019.00(Sun Jan 13 07:46:42 PST 2019)
(GPL source distribution)
Java Runtime: Java(TM) SE Runtime Environment
JVM: Java HotSpot(TM) 64-Bit Server VM
Java Version: 10.0.1+10
Operating System: Mac OS X
OS Version: 10.14.3
Default Encoding: UTF-8
Language: en
Country: US
--></g></svg>