<?xml version="1.0" encoding="UTF-8" standalone="no"?><svg xmlns="http://www.w3.org/2000/svg" xmlns:xlink="http://www.w3.org/1999/xlink" contentScriptType="application/ecmascript" contentStyleType="text/css" height="301px" preserveAspectRatio="none" style="width:471px;height:301px;" version="1.1" viewBox="0 0 471 301" width="471px" zoomAndPan="magnify"><defs><filter height="300%" id="f2pnn309lc6ms" width="300%" x="-1" y="-1"><feGaussianBlur result="blurOut" stdDeviation="2.0"/><feColorMatrix in="blurOut" result="blurOut2" type="matrix" values="0 0 0 0 0 0 0 0 0 0 0 0 0 0 0 0 0 0 .4 0"/><feOffset dx="4.0" dy="4.0" in="blurOut2" result="blurOut3"/><feBlend in="SourceGraphic" in2="blurOut3" mode="normal"/></filter></defs><g><!--entity SYS--><ellipse cx="21" cy="18" fill="#FEFECE" filter="url(#f2pnn309lc6ms)" rx="8" ry="8" style="stroke: #A80036; stroke-width: 2.0;"/><path d="M21,26 L21,53 M8,34 L34,34 M21,53 L8,68 M21,53 L34,68 " fill="none" filter="url(#f2pnn309lc6ms)" style="stroke: #A80036; stroke-width: 2.0;"/><text fill="#000000" font-family="Futura" font-size="14" lengthAdjust="spacingAndGlyphs" textLength="24" x="9" y="89.957">SYS</text><!--entity DES--><ellipse cx="86" cy="18" fill="#FEFECE" filter="url(#f2pnn309lc6ms)" rx="8" ry="8" style="stroke: #A80036; stroke-width: 2.0;"/><path d="M86,26 L86,53 M73,34 L99,34 M86,53 L73,68 M86,53 L99,68 " fill="none" filter="url(#f2pnn309lc6ms)" style="stroke: #A80036; stroke-width: 2.0;"/><text fill="#000000" font-family="Futura" font-size="14" lengthAdjust="spacingAndGlyphs" textLength="26" x="73" y="89.957">DES</text><!--entity PROD_SDD_FUNC--><rect fill="#FEFECE" filter="url(#f2pnn309lc6ms)" height="41.5938" style="stroke: #000000; stroke-width: 1.5;" width="133" x="136.5" y="30"/><polygon fill="#FEFECE" points="252.5,35,252.5,49,264.5,49,264.5,41,258.5,35,252.5,35" style="stroke: #000000; stroke-width: 1.5;"/><line style="stroke: #000000; stroke-width: 1.5;" x1="258.5" x2="258.5" y1="35" y2="41"/><line style="stroke: #000000; stroke-width: 1.5;" x1="264.5" x2="258.5" y1="41" y2="41"/><text fill="#000000" font-family="Futura" font-size="14" lengthAdjust="spacingAndGlyphs" textLength="103" x="146.5" y="57.957">SDD (functional)</text><!--entity PROD_SDD_PHYS--><rect fill="#FEFECE" filter="url(#f2pnn309lc6ms)" height="41.5938" style="stroke: #000000; stroke-width: 1.5;" width="123" x="304.5" y="30"/><polygon fill="#FEFECE" points="410.5,35,410.5,49,422.5,49,422.5,41,416.5,35,410.5,35" style="stroke: #000000; stroke-width: 1.5;"/><line style="stroke: #000000; stroke-width: 1.5;" x1="416.5" x2="416.5" y1="35" y2="41"/><line style="stroke: #000000; stroke-width: 1.5;" x1="422.5" x2="416.5" y1="41" y2="41"/><text fill="#000000" font-family="Futura" font-size="14" lengthAdjust="spacingAndGlyphs" textLength="93" x="314.5" y="57.957">SDD (physical)</text><!--entity PROD_JUSTIFICATION--><rect fill="#FEFECE" filter="url(#f2pnn309lc6ms)" height="41.5938" style="stroke: #000000; stroke-width: 1.5;" width="170" x="102" y="249"/><polygon fill="#FEFECE" points="255,254,255,268,267,268,267,260,261,254,255,254" style="stroke: #000000; stroke-width: 1.5;"/><line style="stroke: #000000; stroke-width: 1.5;" x1="261" x2="261" y1="254" y2="260"/><line style="stroke: #000000; stroke-width: 1.5;" x1="267" x2="261" y1="260" y2="260"/><text fill="#000000" font-family="Futura" font-size="14" lengthAdjust="spacingAndGlyphs" textLength="140" x="112" y="276.957">Justification Document</text><!--entity META_TRACE_MATRIX--><rect fill="#FEFECE" filter="url(#f2pnn309lc6ms)" height="41.5938" style="stroke: #000000; stroke-width: 1.5;" width="147" x="307.5" y="249"/><polygon fill="#FEFECE" points="437.5,254,437.5,268,449.5,268,449.5,260,443.5,254,437.5,254" style="stroke: #000000; stroke-width: 1.5;"/><line style="stroke: #000000; stroke-width: 1.5;" x1="443.5" x2="443.5" y1="254" y2="260"/><line style="stroke: #000000; stroke-width: 1.5;" x1="449.5" x2="443.5" y1="260" y2="260"/><text fill="#000000" font-family="Futura" font-size="14" lengthAdjust="spacingAndGlyphs" textLength="117" x="317.5" y="276.957">Traceability Matrix</text><ellipse cx="284.1645" cy="171.6329" fill="#FEFECE" filter="url(#f2pnn309lc6ms)" rx="76.1645" ry="17.6329" style="stroke: #A80036; stroke-width: 1.5;"/><text fill="#000000" font-family="Futura" font-size="14" lengthAdjust="spacingAndGlyphs" textLength="113" x="227.6645" y="177.4298">Physical trade-offs</text><!--link PROD_SDD_FUNC to SR3_4--><path d="M217.2947,72.2656 C231.9417,94.0552 254.6024,127.7665 269.3702,149.7359 " fill="none" id="PROD_SDD_FUNC-SR3_4" style="stroke: #A80036; stroke-width: 2.0;"/><polygon fill="#A80036" points="272.2138,153.9662,270.5125,144.2654,269.4244,149.8166,263.8731,148.7285,272.2138,153.9662" style="stroke: #A80036; stroke-width: 1.0;"/><!--link PROD_SDD_PHYS to SR3_4--><path d="M351.5288,72.2656 C336.701,94.0552 313.7605,127.7665 298.8104,149.7359 " fill="none" id="PROD_SDD_PHYS-SR3_4" style="stroke: #A80036; stroke-width: 2.0;"/><polygon fill="#A80036" points="295.9317,153.9662,304.302,148.776,298.7447,149.8325,297.6881,144.2752,295.9317,153.9662" style="stroke: #A80036; stroke-width: 1.0;"/><!--link SR3_4 to PROD_JUSTIFICATION--><path d="M267.1039,188.6574 C251.7631,204.2354 228.9505,227.4008 211.5894,245.0304 " fill="none" id="SR3_4-PROD_JUSTIFICATION" style="stroke: #A80036; stroke-width: 2.0;"/><polygon fill="#A80036" points="207.7494,248.9297,216.9143,245.3235,211.2576,245.3671,211.2141,239.7104,207.7494,248.9297" style="stroke: #A80036; stroke-width: 1.0;"/><!--link SR3_4 to META_TRACE_MATRIX--><path d="M300.8961,188.6574 C316.2369,204.2354 339.0495,227.4008 356.4106,245.0304 " fill="none" id="SR3_4-META_TRACE_MATRIX" style="stroke: #A80036; stroke-width: 2.0;"/><polygon fill="#A80036" points="360.2506,248.9297,356.7859,239.7104,356.7424,245.3671,351.0857,245.3235,360.2506,248.9297" style="stroke: #A80036; stroke-width: 1.0;"/><!--
@startuml



skinparam handwritten false
skinparam defaultFontName Futura


actor SYS
actor DES

artifact "SDD (functional)" as PROD_SDD_FUNC
artifact "SDD (physical)" as PROD_SDD_PHYS
artifact "Justification Document" as PROD_JUSTIFICATION
artifact "Traceability Matrix" as META_TRACE_MATRIX

usecase "Physical trade-offs" as SR3_4
PROD_SDD_FUNC ==> SR3_4
PROD_SDD_PHYS ==> SR3_4
SR3_4 ==> PROD_JUSTIFICATION
SR3_4 ==> META_TRACE_MATRIX

@enduml

PlantUML version 1.2019.00(Sun Jan 13 07:46:42 PST 2019)
(GPL source distribution)
Java Runtime: Java(TM) SE Runtime Environment
JVM: Java HotSpot(TM) 64-Bit Server VM
Java Version: 10.0.1+10
Operating System: Mac OS X
OS Version: 10.14.3
Default Encoding: UTF-8
Language: en
Country: US
--></g></svg>