<?xml version="1.0" encoding="UTF-8" standalone="no"?><svg xmlns="http://www.w3.org/2000/svg" xmlns:xlink="http://www.w3.org/1999/xlink" contentScriptType="application/ecmascript" contentStyleType="text/css" height="578px" preserveAspectRatio="none" style="width:1626px;height:578px;" version="1.1" viewBox="0 0 1626 578" width="1626px" zoomAndPan="magnify"><defs><filter height="300%" id="fyzgf0b04vt50" width="300%" x="-1" y="-1"><feGaussianBlur result="blurOut" stdDeviation="2.0"/><feColorMatrix in="blurOut" result="blurOut2" type="matrix" values="0 0 0 0 0 0 0 0 0 0 0 0 0 0 0 0 0 0 .4 0"/><feOffset dx="4.0" dy="4.0" in="blurOut2" result="blurOut3"/><feBlend in="SourceGraphic" in2="blurOut3" mode="normal"/></filter></defs><g><!--cluster SDD--><rect fill="#FFFFFF" filter="url(#fyzgf0b04vt50)" height="88" style="stroke: #000000; stroke-width: 1.5;" width="299" x="533" y="16.5"/><polygon fill="#FFFFFF" points="815,21.5,815,35.5,827,35.5,827,27.5,821,21.5,815,21.5" style="stroke: #000000; stroke-width: 1.5;"/><line style="stroke: #000000; stroke-width: 1.5;" x1="821" x2="821" y1="21.5" y2="27.5"/><line style="stroke: #000000; stroke-width: 1.5;" x1="827" x2="821" y1="27.5" y2="27.5"/><text fill="#000000" font-family="Futura" font-size="14" font-weight="bold" lengthAdjust="spacingAndGlyphs" textLength="31" x="667" y="33.466">SDD</text><!--cluster User Manual--><rect fill="#FFFFFF" filter="url(#fyzgf0b04vt50)" height="88" style="stroke: #000000; stroke-width: 1.5;" width="167" x="1195" y="291"/><polygon fill="#FFFFFF" points="1345,296,1345,310,1357,310,1357,302,1351,296,1345,296" style="stroke: #000000; stroke-width: 1.5;"/><line style="stroke: #000000; stroke-width: 1.5;" x1="1351" x2="1351" y1="296" y2="302"/><line style="stroke: #000000; stroke-width: 1.5;" x1="1357" x2="1351" y1="302" y2="302"/><text fill="#000000" font-family="Futura" font-size="14" font-weight="bold" lengthAdjust="spacingAndGlyphs" textLength="95" x="1231" y="307.966">User Manual</text><!--entity PROD_SDD_FUNC--><rect fill="#FEFECE" filter="url(#fyzgf0b04vt50)" height="38.5938" style="stroke: #A80036; stroke-width: 1.5;" width="84" x="740" y="51.5"/><rect fill="#FEFECE" height="5" style="stroke: #A80036; stroke-width: 1.5;" width="10" x="735" y="56.5"/><rect fill="#FEFECE" height="5" style="stroke: #A80036; stroke-width: 1.5;" width="10" x="735" y="80.0938"/><text fill="#000000" font-family="Futura" font-size="14" lengthAdjust="spacingAndGlyphs" textLength="64" x="750" y="76.457">Functional</text><!--entity PROD_SDD_PHYS--><rect fill="#FEFECE" filter="url(#fyzgf0b04vt50)" height="38.5938" style="stroke: #A80036; stroke-width: 1.5;" width="71" x="633.5" y="51.5"/><rect fill="#FEFECE" height="5" style="stroke: #A80036; stroke-width: 1.5;" width="10" x="628.5" y="56.5"/><rect fill="#FEFECE" height="5" style="stroke: #A80036; stroke-width: 1.5;" width="10" x="628.5" y="80.0938"/><text fill="#000000" font-family="Futura" font-size="14" lengthAdjust="spacingAndGlyphs" textLength="51" x="643.5" y="76.457">Physical</text><!--entity PROD_SDD_VALIDATED--><ellipse cx="570" cy="61.5" fill="#FEFECE" filter="url(#fyzgf0b04vt50)" rx="12" ry="12" style="stroke: #A80036; stroke-width: 2.0;"/><polygon fill="#A80036" points="566,49.5,572,44.5,570,49.5,572,54.5,566,49.5" style="stroke: #A80036; stroke-width: 1.0;"/><text fill="#000000" font-family="Futura" font-size="14" lengthAdjust="spacingAndGlyphs" textLength="57" x="541.5" y="92.457">validated</text><!--entity PROD_USERMANUAL_PRELIM--><ellipse cx="1238" cy="336" fill="#FEFECE" filter="url(#fyzgf0b04vt50)" rx="12" ry="12" style="stroke: #A80036; stroke-width: 2.0;"/><polygon fill="#A80036" points="1234,324,1240,319,1238,324,1240,329,1234,324" style="stroke: #A80036; stroke-width: 1.0;"/><text fill="#000000" font-family="Futura" font-size="14" lengthAdjust="spacingAndGlyphs" textLength="70" x="1203" y="366.957">preliminary</text><!--entity PROD_USERMANUAL_VERIFIED--><ellipse cx="1331" cy="336" fill="#FEFECE" filter="url(#fyzgf0b04vt50)" rx="12" ry="12" style="stroke: #A80036; stroke-width: 2.0;"/><polygon fill="#A80036" points="1327,324,1333,319,1331,324,1333,329,1327,324" style="stroke: #A80036; stroke-width: 1.0;"/><text fill="#000000" font-family="Futura" font-size="14" lengthAdjust="spacingAndGlyphs" textLength="46" x="1308" y="366.957">verified</text><!--entity SYS--><ellipse cx="30" cy="38" fill="#FEFECE" filter="url(#fyzgf0b04vt50)" rx="8" ry="8" style="stroke: #A80036; stroke-width: 2.0;"/><path d="M30,46 L30,73 M17,54 L43,54 M30,73 L17,88 M30,73 L43,88 " fill="none" filter="url(#fyzgf0b04vt50)" style="stroke: #A80036; stroke-width: 2.0;"/><text fill="#000000" font-family="Futura" font-size="14" lengthAdjust="spacingAndGlyphs" textLength="24" x="18" y="109.957">SYS</text><!--entity ACQ--><ellipse cx="97" cy="38" fill="#FEFECE" filter="url(#fyzgf0b04vt50)" rx="8" ry="8" style="stroke: #A80036; stroke-width: 2.0;"/><path d="M97,46 L97,73 M84,54 L110,54 M97,73 L84,88 M97,73 L110,88 " fill="none" filter="url(#fyzgf0b04vt50)" style="stroke: #A80036; stroke-width: 2.0;"/><text fill="#000000" font-family="Futura" font-size="14" lengthAdjust="spacingAndGlyphs" textLength="33" x="80.5" y="109.957">ACQ</text><!--entity STK--><ellipse cx="164" cy="38" fill="#FEFECE" filter="url(#fyzgf0b04vt50)" rx="8" ry="8" style="stroke: #A80036; stroke-width: 2.0;"/><path d="M164,46 L164,73 M151,54 L177,54 M164,73 L151,88 M164,73 L177,88 " fill="none" filter="url(#fyzgf0b04vt50)" style="stroke: #A80036; stroke-width: 2.0;"/><text fill="#000000" font-family="Futura" font-size="14" lengthAdjust="spacingAndGlyphs" textLength="24" x="152" y="109.957">STK</text><!--entity DES--><ellipse cx="30" cy="184" fill="#FEFECE" filter="url(#fyzgf0b04vt50)" rx="8" ry="8" style="stroke: #A80036; stroke-width: 2.0;"/><path d="M30,192 L30,219 M17,200 L43,200 M30,219 L17,234 M30,219 L43,234 " fill="none" filter="url(#fyzgf0b04vt50)" style="stroke: #A80036; stroke-width: 2.0;"/><text fill="#000000" font-family="Futura" font-size="14" lengthAdjust="spacingAndGlyphs" textLength="26" x="17" y="255.957">DES</text><!--entity DEV--><ellipse cx="95" cy="184" fill="#FEFECE" filter="url(#fyzgf0b04vt50)" rx="8" ry="8" style="stroke: #A80036; stroke-width: 2.0;"/><path d="M95,192 L95,219 M82,200 L108,200 M95,219 L82,234 M95,219 L108,234 " fill="none" filter="url(#fyzgf0b04vt50)" style="stroke: #A80036; stroke-width: 2.0;"/><text fill="#000000" font-family="Futura" font-size="14" lengthAdjust="spacingAndGlyphs" textLength="27" x="81.5" y="255.957">DEV</text><!--entity PROD_PP--><rect fill="#FEFECE" filter="url(#fyzgf0b04vt50)" height="41.5938" style="stroke: #000000; stroke-width: 1.5;" width="104" x="6" y="324.5"/><polygon fill="#FEFECE" points="93,329.5,93,343.5,105,343.5,105,335.5,99,329.5,93,329.5" style="stroke: #000000; stroke-width: 1.5;"/><line style="stroke: #000000; stroke-width: 1.5;" x1="99" x2="99" y1="329.5" y2="335.5"/><line style="stroke: #000000; stroke-width: 1.5;" x1="105" x2="99" y1="335.5" y2="335.5"/><text fill="#000000" font-family="Futura" font-size="14" lengthAdjust="spacingAndGlyphs" textLength="74" x="16" y="352.457">Project Plan</text><!--entity PROD_SYSRS_VALIDATED--><rect fill="#FEFECE" filter="url(#fyzgf0b04vt50)" height="41.5938" style="stroke: #000000; stroke-width: 1.5;" width="139" x="367.5" y="50"/><polygon fill="#FEFECE" points="489.5,55,489.5,69,501.5,69,501.5,61,495.5,55,489.5,55" style="stroke: #000000; stroke-width: 1.5;"/><line style="stroke: #000000; stroke-width: 1.5;" x1="495.5" x2="495.5" y1="55" y2="61"/><line style="stroke: #000000; stroke-width: 1.5;" x1="501.5" x2="495.5" y1="61" y2="61"/><text fill="#000000" font-family="Futura" font-size="14" lengthAdjust="spacingAndGlyphs" textLength="109" x="377.5" y="77.957">SysRS (validated)</text><!--entity PROD_IVV_PROCEDURES--><rect fill="#FEFECE" filter="url(#fyzgf0b04vt50)" height="41.5938" style="stroke: #000000; stroke-width: 1.5;" width="127" x="481.5" y="324.5"/><polygon fill="#FEFECE" points="591.5,329.5,591.5,343.5,603.5,343.5,603.5,335.5,597.5,329.5,591.5,329.5" style="stroke: #000000; stroke-width: 1.5;"/><line style="stroke: #000000; stroke-width: 1.5;" x1="597.5" x2="597.5" y1="329.5" y2="335.5"/><line style="stroke: #000000; stroke-width: 1.5;" x1="603.5" x2="597.5" y1="335.5" y2="335.5"/><text fill="#000000" font-family="Futura" font-size="14" lengthAdjust="spacingAndGlyphs" textLength="97" x="491.5" y="352.457">IVV Procedures</text><!--entity PROD_IVV_PLAN--><rect fill="#FEFECE" filter="url(#fyzgf0b04vt50)" height="41.5938" style="stroke: #000000; stroke-width: 1.5;" width="83" x="643.5" y="324.5"/><polygon fill="#FEFECE" points="709.5,329.5,709.5,343.5,721.5,343.5,721.5,335.5,715.5,329.5,709.5,329.5" style="stroke: #000000; stroke-width: 1.5;"/><line style="stroke: #000000; stroke-width: 1.5;" x1="715.5" x2="715.5" y1="329.5" y2="335.5"/><line style="stroke: #000000; stroke-width: 1.5;" x1="721.5" x2="715.5" y1="335.5" y2="335.5"/><text fill="#000000" font-family="Futura" font-size="14" lengthAdjust="spacingAndGlyphs" textLength="53" x="653.5" y="352.457">IVV Plan</text><!--entity PROD_JUSTIFICATION--><rect fill="#FEFECE" filter="url(#fyzgf0b04vt50)" height="41.5938" style="stroke: #000000; stroke-width: 1.5;" width="170" x="1419" y="324.5"/><polygon fill="#FEFECE" points="1572,329.5,1572,343.5,1584,343.5,1584,335.5,1578,329.5,1572,329.5" style="stroke: #000000; stroke-width: 1.5;"/><line style="stroke: #000000; stroke-width: 1.5;" x1="1578" x2="1578" y1="329.5" y2="335.5"/><line style="stroke: #000000; stroke-width: 1.5;" x1="1584" x2="1578" y1="335.5" y2="335.5"/><text fill="#000000" font-family="Futura" font-size="14" lengthAdjust="spacingAndGlyphs" textLength="140" x="1429" y="352.457">Justification Document</text><!--entity PROD_SYS_VERIFIED--><rect fill="#FEFECE" filter="url(#fyzgf0b04vt50)" height="41.5938" style="stroke: #000000; stroke-width: 1.5;" width="135" x="859.5" y="50"/><polygon fill="#FEFECE" points="977.5,55,977.5,69,989.5,69,989.5,61,983.5,55,977.5,55" style="stroke: #000000; stroke-width: 1.5;"/><line style="stroke: #000000; stroke-width: 1.5;" x1="983.5" x2="983.5" y1="55" y2="61"/><line style="stroke: #000000; stroke-width: 1.5;" x1="989.5" x2="983.5" y1="61" y2="61"/><text fill="#000000" font-family="Futura" font-size="14" lengthAdjust="spacingAndGlyphs" textLength="105" x="869.5" y="77.957">System (verified)</text><!--entity META_TRACE_MATRIX--><rect fill="#FEFECE" filter="url(#fyzgf0b04vt50)" height="41.5938" style="stroke: #000000; stroke-width: 1.5;" width="147" x="299.5" y="324.5"/><polygon fill="#FEFECE" points="429.5,329.5,429.5,343.5,441.5,343.5,441.5,335.5,435.5,329.5,429.5,329.5" style="stroke: #000000; stroke-width: 1.5;"/><line style="stroke: #000000; stroke-width: 1.5;" x1="435.5" x2="435.5" y1="329.5" y2="335.5"/><line style="stroke: #000000; stroke-width: 1.5;" x1="441.5" x2="435.5" y1="335.5" y2="335.5"/><text fill="#000000" font-family="Futura" font-size="14" lengthAdjust="spacingAndGlyphs" textLength="117" x="309.5" y="352.457">Traceability Matrix</text><!--entity META_CR--><rect fill="#FEFECE" filter="url(#fyzgf0b04vt50)" height="41.5938" style="stroke: #000000; stroke-width: 1.5;" width="48" x="216" y="324.5"/><polygon fill="#FEFECE" points="247,329.5,247,343.5,259,343.5,259,335.5,253,329.5,247,329.5" style="stroke: #000000; stroke-width: 1.5;"/><line style="stroke: #000000; stroke-width: 1.5;" x1="253" x2="253" y1="329.5" y2="335.5"/><line style="stroke: #000000; stroke-width: 1.5;" x1="259" x2="253" y1="335.5" y2="335.5"/><text fill="#000000" font-family="Futura" font-size="14" lengthAdjust="spacingAndGlyphs" textLength="18" x="226" y="352.457">CR</text><!--entity PROD_PO_INITIAL--><rect fill="#FEFECE" filter="url(#fyzgf0b04vt50)" height="41.5938" style="stroke: #000000; stroke-width: 1.5;" width="177" x="487.5" y="526"/><polygon fill="#FEFECE" points="647.5,531,647.5,545,659.5,545,659.5,537,653.5,531,647.5,531" style="stroke: #000000; stroke-width: 1.5;"/><line style="stroke: #000000; stroke-width: 1.5;" x1="653.5" x2="653.5" y1="531" y2="537"/><line style="stroke: #000000; stroke-width: 1.5;" x1="659.5" x2="653.5" y1="537" y2="537"/><text fill="#000000" font-family="Futura" font-size="14" lengthAdjust="spacingAndGlyphs" textLength="147" x="497.5" y="553.957">Purchase Order (initial)</text><ellipse cx="372.8951" cy="448.479" fill="#FEFECE" filter="url(#fyzgf0b04vt50)" rx="75.3951" ry="17.479" style="stroke: #A80036; stroke-width: 1.5;"/><text fill="#000000" font-family="Futura" font-size="14" lengthAdjust="spacingAndGlyphs" textLength="111" x="317.3951" y="454.2759">Functional Design</text><ellipse cx="1533.793" cy="217.1586" fill="#FEFECE" filter="url(#fyzgf0b04vt50)" rx="81.293" ry="18.6586" style="stroke: #A80036; stroke-width: 1.5;"/><text fill="#000000" font-family="Futura" font-size="14" lengthAdjust="spacingAndGlyphs" textLength="126" x="1470.793" y="222.9555">Functional trade-offs</text><ellipse cx="669.0411" cy="217.0082" fill="#FEFECE" filter="url(#fyzgf0b04vt50)" rx="70.5411" ry="16.5082" style="stroke: #A80036; stroke-width: 1.5;"/><text fill="#000000" font-family="Futura" font-size="14" lengthAdjust="spacingAndGlyphs" textLength="98" x="620.0411" y="222.8051">Physical Design</text><ellipse cx="1134.1645" cy="217.1329" fill="#FEFECE" filter="url(#fyzgf0b04vt50)" rx="76.1645" ry="17.6329" style="stroke: #A80036; stroke-width: 1.5;"/><text fill="#000000" font-family="Futura" font-size="14" lengthAdjust="spacingAndGlyphs" textLength="113" x="1077.6645" y="222.9298">Physical trade-offs</text><ellipse cx="336.136" cy="217.2272" fill="#FEFECE" filter="url(#fyzgf0b04vt50)" rx="84.136" ry="19.2272" style="stroke: #A80036; stroke-width: 1.5;"/><text fill="#000000" font-family="Futura" font-size="14" lengthAdjust="spacingAndGlyphs" textLength="133" x="269.636" y="223.0241">Verify System Design</text><ellipse cx="508.9117" cy="217.1478" fill="#FEFECE" filter="url(#fyzgf0b04vt50)" rx="53.9117" ry="16.1478" style="stroke: #A80036; stroke-width: 1.5;"/><text fill="#000000" font-family="Futura" font-size="14" lengthAdjust="spacingAndGlyphs" textLength="72" x="472.9117" y="222.9446">Update IVV</text><ellipse cx="863.2018" cy="217.1404" fill="#FEFECE" filter="url(#fyzgf0b04vt50)" rx="88.7018" ry="20.1404" style="stroke: #A80036; stroke-width: 1.5;"/><text fill="#000000" font-family="Futura" font-size="14" lengthAdjust="spacingAndGlyphs" textLength="144" x="791.2018" y="222.9372">Create System Manual</text><ellipse cx="1331.1973" cy="217.1395" fill="#FEFECE" filter="url(#fyzgf0b04vt50)" rx="86.1973" ry="19.6395" style="stroke: #A80036; stroke-width: 1.5;"/><text fill="#000000" font-family="Futura" font-size="14" lengthAdjust="spacingAndGlyphs" textLength="138" x="1262.1973" y="222.9363">Verify System Manual</text><!--link PROD_PP to SR3_1--><path d="M105.2751,366.5875 C115.641,370.9184 126.6207,375.2848 137,379 C197.8445,400.7787 269.2058,421.0912 317.3985,434.0629 " fill="none" id="PROD_PP-SR3_1" style="stroke: #A80036; stroke-width: 2.0;"/><polygon fill="#A80036" points="322.2805,435.3732,314.6251,429.1769,317.4514,434.0771,312.5512,436.9034,322.2805,435.3732" style="stroke: #A80036; stroke-width: 1.0;"/><!--link PROD_SYSRS_VALIDATED to SR3_1--><path d="M367.3374,90.7525 C323.3431,106.5828 268.4926,133.0387 234,174 C198.9559,215.6162 206.0899,237.199 198,291 C192.1843,329.6763 176.0333,346.6404 198,379 C221.0187,412.9092 263.4628,430.2743 300.7852,439.1669 " fill="none" id="PROD_SYSRS_VALIDATED-SR3_1" style="stroke: #A80036; stroke-width: 2.0;"/><polygon fill="#A80036" points="305.7791,440.3142,297.9034,434.4004,300.9061,439.1945,296.1119,442.1972,305.7791,440.3142" style="stroke: #A80036; stroke-width: 1.0;"/><!--link META_TRACE_MATRIX to SR3_1--><path d="M373,366.8417 C373,384.0366 373,408.1569 373,425.7229 " fill="none" id="META_TRACE_MATRIX-SR3_1" style="stroke: #A80036; stroke-width: 2.0;"/><polygon fill="#A80036" points="373,430.949,377,421.949,373,425.949,369,421.949,373,430.949" style="stroke: #A80036; stroke-width: 1.0;"/><!--link SR3_1 to PROD_SDD_FUNC--><path d="M442.9927,441.7462 C518.8131,432.9793 642.5344,414.4177 744,379 C850.8051,341.7185 910.6297,356.9027 969,260 C988.722,227.2588 989.4557,206.2878 969,174 C935.5906,121.2658 895.8119,145.6444 842,114 C831.7496,107.9722 821.0473,100.6649 811.5674,93.7975 " fill="none" id="SR3_1-PROD_SDD_FUNC" style="stroke: #A80036; stroke-width: 2.0;"/><polygon fill="#A80036" points="807.3038,90.6794,812.2072,99.2208,811.3397,93.6309,816.9297,92.7634,807.3038,90.6794" style="stroke: #A80036; stroke-width: 1.0;"/><!--link SR3_1 to PROD_PO_INITIAL--><path d="M405.6155,464.3257 C438.679,480.3689 490.2072,505.3715 527.9451,523.6827 " fill="none" id="SR3_1-PROD_PO_INITIAL" style="stroke: #A80036; stroke-width: 2.0;"/><polygon fill="#A80036" points="532.4767,525.8816,526.1259,518.3538,527.9783,523.6988,522.6334,525.5512,532.4767,525.8816" style="stroke: #A80036; stroke-width: 1.0;"/><!--link PROD_SDD_FUNC to SR3_2--><path d="M803.4525,90.5765 C814.2361,99.262 827.9741,108.6993 842,114 C1089.7958,207.6477 1178.6847,107.1036 1435,174 C1456.2279,179.5403 1478.7457,189.0068 1496.9336,197.6495 " fill="none" id="PROD_SDD_FUNC-SR3_2" style="stroke: #A80036; stroke-width: 2.0;"/><polygon fill="#A80036" points="1501.461,199.8261,1495.083,192.3213,1496.9548,197.6596,1491.6166,199.5313,1501.461,199.8261" style="stroke: #A80036; stroke-width: 1.0;"/><!--link SR3_2 to PROD_JUSTIFICATION--><path d="M1529.6377,235.685 C1524.5097,257.6501 1515.9642,294.2532 1510.1617,319.1076 " fill="none" id="SR3_2-PROD_JUSTIFICATION" style="stroke: #A80036; stroke-width: 2.0;"/><polygon fill="#A80036" points="1508.9673,324.2234,1514.9086,316.3684,1510.104,319.3543,1507.1181,314.5497,1508.9673,324.2234" style="stroke: #A80036; stroke-width: 1.0;"/><!--link PROD_SYSRS_VALIDATED to SR3_3--><path d="M470.7348,92.2297 C516.2974,120.9027 596.7462,171.5299 639.8295,198.6427 " fill="none" id="PROD_SYSRS_VALIDATED-SR3_3" style="stroke: #A80036; stroke-width: 2.0;"/><polygon fill="#A80036" points="644.1332,201.3511,638.6465,193.1721,639.9014,198.688,634.3855,199.943,644.1332,201.3511" style="stroke: #A80036; stroke-width: 1.0;"/><!--link PROD_SDD_FUNC to SR3_3--><path d="M766.7603,90.6902 C745.2857,118.4361 706.3259,168.7736 684.6377,196.7956 " fill="none" id="PROD_SDD_FUNC-SR3_3" style="stroke: #A80036; stroke-width: 2.0;"/><polygon fill="#A80036" points="681.5672,200.7627,690.2391,196.0939,684.6276,196.8087,683.9128,191.1972,681.5672,200.7627" style="stroke: #A80036; stroke-width: 1.0;"/><!--link SR3_3 to PROD_SDD_PHYS--><path d="M669,200.3275 C669,174.7923 669,125.8306 669,96.0231 " fill="none" id="SR3_3-PROD_SDD_PHYS" style="stroke: #A80036; stroke-width: 2.0;"/><polygon fill="#A80036" points="669,90.6902,665,99.6902,669,95.6902,673,99.6902,669,90.6902" style="stroke: #A80036; stroke-width: 1.0;"/><!--link SR3_3 to PROD_PO_INITIAL--><path d="M692.9354,232.5995 C710.7519,245.757 733.6973,266.3612 744,291 C759.0883,327.0835 758.9672,342.866 744,379 C717.8045,442.2416 654.9724,494.0892 614.0116,522.7389 " fill="none" id="SR3_3-PROD_PO_INITIAL" style="stroke: #A80036; stroke-width: 2.0;"/><polygon fill="#A80036" points="609.6241,525.7777,619.3003,523.9417,613.7345,522.9309,614.7454,517.3651,609.6241,525.7777" style="stroke: #A80036; stroke-width: 1.0;"/><!--link PROD_SDD_FUNC to SR3_4--><path d="M805.7017,90.6234 C816.3135,98.6953 829.2827,107.626 842,114 C920.789,153.4894 948.2555,143.6609 1031,174 C1051.9649,181.687 1074.9257,191.1663 1093.8377,199.2669 " fill="none" id="PROD_SDD_FUNC-SR3_4" style="stroke: #A80036; stroke-width: 2.0;"/><polygon fill="#A80036" points="1098.5549,201.2947,1091.8663,194.0654,1093.9614,199.32,1088.7068,201.4151,1098.5549,201.2947" style="stroke: #A80036; stroke-width: 1.0;"/><!--link PROD_SDD_PHYS to SR3_4--><path d="M689.1552,90.9184 C698.4775,99.1422 710.1084,108.109 722,114 C823.2296,164.1481 859.4478,146.4211 969,174 C1005.6501,183.2264 1046.7822,193.9448 1078.8104,202.3724 " fill="none" id="PROD_SDD_PHYS-SR3_4" style="stroke: #A80036; stroke-width: 2.0;"/><polygon fill="#A80036" points="1083.8705,203.7047,1076.1857,197.5449,1079.0353,202.4315,1074.1486,205.2812,1083.8705,203.7047" style="stroke: #A80036; stroke-width: 1.0;"/><!--link SR3_4 to PROD_JUSTIFICATION--><path d="M1164.6573,233.0482 C1182.7097,241.9809 1206.2097,252.7309 1228,260 C1289.2778,280.4418 1308.2993,271.8725 1370,291 C1397.9987,299.6797 1428.3216,311.7739 1453.029,322.3647 " fill="none" id="SR3_4-PROD_JUSTIFICATION" style="stroke: #A80036; stroke-width: 2.0;"/><polygon fill="#A80036" points="1457.8933,324.4613,1451.2117,317.2255,1453.3017,322.4821,1448.0451,324.5721,1457.8933,324.4613" style="stroke: #A80036; stroke-width: 1.0;"/><!--link SR3_4 to META_TRACE_MATRIX--><path d="M1088.9788,231.2569 C1056.0871,241.0505 1010.219,253.4275 969,260 C746.9384,295.4085 678.793,224.4484 464,291 C442.757,297.5819 421.3053,310.0823 404.5692,321.4525 " fill="none" id="SR3_4-META_TRACE_MATRIX" style="stroke: #A80036; stroke-width: 2.0;"/><polygon fill="#A80036" points="400.4189,324.3146,410.0989,322.4985,404.5351,321.4762,405.5574,315.9125,400.4189,324.3146" style="stroke: #A80036; stroke-width: 1.0;"/><!--link PROD_SDD_FUNC to SR3_5--><path d="M759.4402,90.5804 C748.7323,98.9433 735.3716,108.1141 722,114 C603.5266,166.15 560.4691,135.1293 437,174 C416.7285,180.3819 394.9527,189.3632 376.8297,197.4683 " fill="none" id="PROD_SDD_FUNC-SR3_5" style="stroke: #A80036; stroke-width: 2.0;"/><polygon fill="#A80036" points="371.8193,199.7282,381.668,199.6741,376.3771,197.6724,378.3788,192.3816,371.8193,199.7282" style="stroke: #A80036; stroke-width: 1.0;"/><!--link PROD_SDD_PHYS to SR3_5--><path d="M648.3452,90.6613 C639.0213,98.74 627.5263,107.6655 616,114 C542.4671,154.4117 515.4393,144.2096 437,174 C417.7837,181.2981 396.831,190.0797 379.0162,197.799 " fill="none" id="PROD_SDD_PHYS-SR3_5" style="stroke: #A80036; stroke-width: 2.0;"/><polygon fill="#A80036" points="374.0788,199.946,383.9273,200.0253,378.6641,197.9522,380.7372,192.6889,374.0788,199.946" style="stroke: #A80036; stroke-width: 1.0;"/><!--link META_TRACE_MATRIX to SR3_5--><path d="M377.2165,324.2234 C374.645,301.0774 364.1374,264.1916 353.3873,240.2853 " fill="none" id="META_TRACE_MATRIX-SR3_5" style="stroke: #A80036; stroke-width: 2.0;"/><polygon fill="#A80036" points="351.2363,235.685,351.425,245.532,353.3542,240.2143,358.6719,242.1435,351.2363,235.685" style="stroke: #A80036; stroke-width: 1.0;"/><!--link SR3_5 to META_TRACE_MATRIX--><path d="M332.1279,236.2377 C334.4466,258.4235 344.6287,294.9989 355.099,319.6547 " fill="none" id="SR3_5-META_TRACE_MATRIX" style="stroke: #A80036; stroke-width: 2.0;"/><polygon fill="#A80036" points="357.1946,324.4191,357.2323,314.5703,355.1814,319.8423,349.9094,317.7914,357.1946,324.4191" style="stroke: #A80036; stroke-width: 1.0;"/><!--link PROD_SYSRS_VALIDATED to SR3_5--><path d="M422.3137,92.2297 C403.6179,119.2553 371.4297,165.7849 352.0872,193.7452 " fill="none" id="PROD_SYSRS_VALIDATED-SR3_5" style="stroke: #A80036; stroke-width: 2.0;"/><polygon fill="#A80036" points="349.0972,198.0674,357.507,192.9415,351.9418,193.9554,350.9278,188.3902,349.0972,198.0674" style="stroke: #A80036; stroke-width: 1.0;"/><!--link SR3_5 to PROD_SDD_VALIDATED--><path d="M373.6721,199.8341 C412.8467,181.2045 475.158,149.347 524,114 C529.7565,109.834 535.5553,105.0115 541.0038,100.1343 " fill="none" id="SR3_5-PROD_SDD_VALIDATED" style="stroke: #A80036; stroke-width: 2.0;"/><polygon fill="#A80036" points="544.7151,96.7564,535.3668,99.8562,541.0174,100.122,540.7517,105.7726,544.7151,96.7564" style="stroke: #A80036; stroke-width: 1.0;"/><!--link SR3_5 to META_CR--><path d="M321.8349,235.9606 C305.1701,258.2671 277.4347,295.392 258.936,320.1533 " fill="none" id="SR3_5-META_CR" style="stroke: #A80036; stroke-width: 2.0;"/><polygon fill="#A80036" points="255.8222,324.3213,264.4133,319.5053,258.8148,320.3157,258.0044,314.7172,255.8222,324.3213" style="stroke: #A80036; stroke-width: 1.0;"/><!--link PROD_SYSRS_VALIDATED to SR3_6--><path d="M447.4694,92.2297 C461.2585,120.1908 485.3432,169.0293 498.93,196.5803 " fill="none" id="PROD_SYSRS_VALIDATED-SR3_6" style="stroke: #A80036; stroke-width: 2.0;"/><polygon fill="#A80036" points="501.1786,201.14,500.7855,191.299,498.9671,196.6556,493.6105,194.8373,501.1786,201.14" style="stroke: #A80036; stroke-width: 1.0;"/><!--link PROD_SDD_VALIDATED to SR3_6--><path d="M559.2348,96.7658 C547.3857,125.1261 528.5723,170.1548 517.6442,196.3106 " fill="none" id="PROD_SDD_VALIDATED-SR3_6" style="stroke: #A80036; stroke-width: 2.0;"/><polygon fill="#A80036" points="515.6989,200.9666,522.8593,194.2043,517.6264,196.3531,515.4777,191.1202,515.6989,200.9666" style="stroke: #A80036; stroke-width: 1.0;"/><!--link SR3_6 to PROD_IVV_PLAN--><path d="M532.9748,231.4529 C562.1515,249.1646 609.5587,278.3746 626,291 C637.8201,300.0767 650.0539,311.0736 660.296,320.8053 " fill="none" id="SR3_6-PROD_IVV_PLAN" style="stroke: #A80036; stroke-width: 2.0;"/><polygon fill="#A80036" points="663.9748,324.3275,660.2403,315.2141,660.3632,320.8697,654.7077,320.9926,663.9748,324.3275" style="stroke: #A80036; stroke-width: 1.0;"/><!--link SR3_6 to PROD_IVV_PROCEDURES--><path d="M513.4866,233.0148 C519.5299,254.586 530.3624,293.2519 537.616,319.1432 " fill="none" id="SR3_6-PROD_IVV_PROCEDURES" style="stroke: #A80036; stroke-width: 2.0;"/><polygon fill="#A80036" points="539.0165,324.1422,540.4402,314.3968,537.6676,319.3276,532.7368,316.555,539.0165,324.1422" style="stroke: #A80036; stroke-width: 1.0;"/><!--link SR3_6 to META_TRACE_MATRIX--><path d="M492.5952,232.5001 C469.4315,254.3865 426.8904,294.5815 399.289,320.6608 " fill="none" id="SR3_6-META_TRACE_MATRIX" style="stroke: #A80036; stroke-width: 2.0;"/><polygon fill="#A80036" points="395.3291,324.4023,404.6181,321.1289,398.9635,320.9685,399.124,315.3139,395.3291,324.4023" style="stroke: #A80036; stroke-width: 1.0;"/><!--link PROD_SYSRS_VALIDATED to SR3_7--><path d="M476.1212,92.2164 C491.1161,99.786 508.5705,107.932 525,114 C624.9072,150.8993 655.8771,140.5758 757,174 C777.338,180.7223 799.3547,189.4132 818.0254,197.2206 " fill="none" id="PROD_SYSRS_VALIDATED-SR3_7" style="stroke: #A80036; stroke-width: 2.0;"/><polygon fill="#A80036" points="822.697,199.1847,815.9509,192.0091,818.0878,197.2468,812.8502,199.3837,822.697,199.1847" style="stroke: #A80036; stroke-width: 1.0;"/><!--link PROD_SDD_VALIDATED to SR3_7--><path d="M594.4279,96.8512 C601.0436,102.9776 608.4695,109.1371 616,114 C624.8619,119.7227 745.4973,169.1786 814.8308,197.4263 " fill="none" id="PROD_SDD_VALIDATED-SR3_7" style="stroke: #A80036; stroke-width: 2.0;"/><polygon fill="#A80036" points="819.7319,199.4226,812.9057,192.3231,815.1013,197.5365,809.8879,199.7321,819.7319,199.4226" style="stroke: #A80036; stroke-width: 1.0;"/><!--link PROD_SYS_VERIFIED to SR3_7--><path d="M917.6939,92.2297 C906.0924,118.6955 886.2918,163.8657 873.9658,191.9842 " fill="none" id="PROD_SYS_VERIFIED-SR3_7" style="stroke: #A80036; stroke-width: 2.0;"/><polygon fill="#A80036" points="871.9047,196.6861,879.1816,190.0493,873.9121,192.1068,871.8546,186.8374,871.9047,196.6861" style="stroke: #A80036; stroke-width: 1.0;"/><!--link SR3_7 to PROD_USERMANUAL_PRELIM--><path d="M912.0247,233.7991 C987.0557,259.5098 1128.9291,308.125 1198.0851,331.8225 " fill="none" id="SR3_7-PROD_USERMANUAL_PRELIM" style="stroke: #A80036; stroke-width: 2.0;"/><polygon fill="#A80036" points="1202.9368,333.485,1195.7195,326.7835,1198.2068,331.8641,1193.1261,334.3515,1202.9368,333.485" style="stroke: #A80036; stroke-width: 1.0;"/><!--link PROD_USERMANUAL_PRELIM to SR3_8--><path d="M1256.7675,319.5686 C1273.4259,296.5514 1297.5663,263.196 1313.7494,240.8356 " fill="none" id="PROD_USERMANUAL_PRELIM-SR3_8" style="stroke: #A80036; stroke-width: 2.0;"/><polygon fill="#A80036" points="1316.8753,236.5164,1308.3583,241.4622,1313.9439,240.5669,1314.8392,246.1525,1316.8753,236.5164" style="stroke: #A80036; stroke-width: 1.0;"/><!--link SR3_8 to PROD_USERMANUAL_VERIFIED--><path d="M1331,236.5164 C1331,257.2294 1331,290.2562 1331,314.5294 " fill="none" id="SR3_8-PROD_USERMANUAL_VERIFIED" style="stroke: #A80036; stroke-width: 2.0;"/><polygon fill="#A80036" points="1331,319.5686,1335,310.5686,1331,314.5686,1327,310.5686,1331,319.5686" style="stroke: #A80036; stroke-width: 1.0;"/><!--link SYS to ACQ--><!--link ACQ to STK--><!--link SYS to DES--><!--link DES to DEV--><!--
@startuml



skinparam handwritten false
skinparam defaultFontName Futura


actor SYS
actor ACQ
actor STK
actor DES
actor DEV

artifact "Project Plan" as PROD_PP
artifact "SysRS (validated)" as PROD_SYSRS_VALIDATED
artifact "SDD" {
component "Functional" as PROD_SDD_FUNC
component "Physical" as PROD_SDD_PHYS
control "validated" as PROD_SDD_VALIDATED
}
artifact "IVV Procedures" as PROD_IVV_PROCEDURES
artifact "IVV Plan" as PROD_IVV_PLAN
artifact "Justification Document" as PROD_JUSTIFICATION
artifact "System (verified)" as PROD_SYS_VERIFIED
artifact "Traceability Matrix" as META_TRACE_MATRIX
artifact "CR" as META_CR
artifact "User Manual" {
control "preliminary" as PROD_USERMANUAL_PRELIM
control "verified" as PROD_USERMANUAL_VERIFIED
}
artifact "Purchase Order (initial)" as PROD_PO_INITIAL

usecase "Functional Design" as SR3_1
PROD_PP ==> SR3_1
PROD_SYSRS_VALIDATED ==> SR3_1
META_TRACE_MATRIX ==> SR3_1
SR3_1 ==> PROD_SDD_FUNC
SR3_1 ==> PROD_PO_INITIAL

usecase "Functional trade-offs" as SR3_2
PROD_SDD_FUNC ==> SR3_2
SR3_2 ==> PROD_JUSTIFICATION

usecase "Physical Design" as SR3_3
PROD_SYSRS_VALIDATED ==> SR3_3
PROD_SDD_FUNC ==> SR3_3
SR3_3 ==> PROD_SDD_PHYS
SR3_3 ==> PROD_PO_INITIAL

usecase "Physical trade-offs" as SR3_4
PROD_SDD_FUNC ==> SR3_4
PROD_SDD_PHYS ==> SR3_4
SR3_4 ==> PROD_JUSTIFICATION
SR3_4 ==> META_TRACE_MATRIX

usecase "Verify System Design" as SR3_5
PROD_SDD_FUNC ==> SR3_5
PROD_SDD_PHYS ==> SR3_5
META_TRACE_MATRIX ==> SR3_5
PROD_SYSRS_VALIDATED ==> SR3_5
SR3_5 ==> PROD_SDD_VALIDATED
SR3_5 ==> META_CR
SR3_5 ==> META_TRACE_MATRIX

usecase "Update IVV" as SR3_6
PROD_SYSRS_VALIDATED ==> SR3_6
PROD_SDD_VALIDATED ==> SR3_6
SR3_6 ==> PROD_IVV_PLAN
SR3_6 ==> PROD_IVV_PROCEDURES
SR3_6 ==> META_TRACE_MATRIX

usecase "Create System Manual" as SR3_7
PROD_SYSRS_VALIDATED ==> SR3_7
PROD_SDD_VALIDATED ==> SR3_7
PROD_SYS_VERIFIED ==> SR3_7
SR3_7 ==> PROD_USERMANUAL_PRELIM

usecase "Verify System Manual" as SR3_8
PROD_USERMANUAL_PRELIM ==> SR3_8
SR3_8 ==> PROD_USERMANUAL_VERIFIED

@enduml

PlantUML version 1.2019.00(Sun Jan 13 07:46:42 PST 2019)
(GPL source distribution)
Java Runtime: Java(TM) SE Runtime Environment
JVM: Java HotSpot(TM) 64-Bit Server VM
Java Version: 10.0.1+10
Operating System: Mac OS X
OS Version: 10.14.3
Default Encoding: UTF-8
Language: en
Country: US
--></g></svg>