<svg xmlns="http://www.w3.org/2000/svg" height="309" preserveAspectRatio="none" style="width:548px;height:309px" width="548"><defs><filter height="300%" id="a" width="300%" x="-1" y="-1"><feGaussianBlur result="blurOut" stdDeviation="2"/><feColorMatrix in="blurOut" result="blurOut2" values="0 0 0 0 0 0 0 0 0 0 0 0 0 0 0 0 0 0 .4 0"/><feOffset dx="4" dy="4" in="blurOut2" result="blurOut3"/><feBlend in="SourceGraphic" in2="blurOut3"/></filter></defs><path fill="#FFF" filter="url(#a)" stroke="#000" stroke-width="1.5" d="M313 222h100v76H313z"/><path fill="#FFF" stroke="#000" stroke-width="1.5" d="M396 227v14h12v-8l-6-6h-6z"/><path stroke="#000" stroke-width="1.5" d="M402 227v6M408 233h-6"/><text font-family="Futura" font-size="14" font-weight="bold" lengthAdjust="spacingAndGlyphs" textLength="31" x="347.5" y="238.966">SDD</text><path fill="#FEFECE" filter="url(#a)" stroke="#a80036" stroke-width="1.5" d="M321 251h84v38.594h-84z"/><path fill="#FEFECE" stroke="#a80036" stroke-width="1.5" d="M316 256h10v5h-10zM316 279.594h10v5h-10z"/><text font-family="Futura" font-size="14" lengthAdjust="spacingAndGlyphs" textLength="64" x="331" y="275.957">Functional</text><circle cx="21" cy="18.5" fill="#FEFECE" filter="url(#a)" stroke="#a80036" stroke-width="2" r="8"/><path d="M21 26.5v27m-13-19h26m-13 19l-13 15m13-15l13 15" fill="none" filter="url(#a)" stroke="#a80036" stroke-width="2"/><text font-family="Futura" font-size="14" lengthAdjust="spacingAndGlyphs" textLength="26" x="8" y="90.457">DES</text><path fill="#FEFECE" filter="url(#a)" stroke="#000" stroke-width="1.5" d="M71 30.5h104v41.594H71z"/><path fill="#FEFECE" stroke="#000" stroke-width="1.5" d="M158 35.5v14h12v-8l-6-6h-6z"/><path stroke="#000" stroke-width="1.5" d="M164 35.5v6M170 41.5h-6"/><text font-family="Futura" font-size="14" lengthAdjust="spacingAndGlyphs" textLength="74" x="81" y="58.457">Project Plan</text><path fill="#FEFECE" filter="url(#a)" stroke="#000" stroke-width="1.5" d="M210.5 30.5h139v41.594h-139z"/><path fill="#FEFECE" stroke="#000" stroke-width="1.5" d="M332.5 35.5v14h12v-8l-6-6h-6z"/><path stroke="#000" stroke-width="1.5" d="M338.5 35.5v6M344.5 41.5h-6"/><text font-family="Futura" font-size="14" lengthAdjust="spacingAndGlyphs" textLength="109" x="220.5" y="58.457">SysRS (validated)</text><path fill="#FEFECE" filter="url(#a)" stroke="#000" stroke-width="1.5" d="M384.5 30.5h147v41.594h-147z"/><path fill="#FEFECE" stroke="#000" stroke-width="1.5" d="M514.5 35.5v14h12v-8l-6-6h-6z"/><path stroke="#000" stroke-width="1.5" d="M520.5 35.5v6M526.5 41.5h-6"/><text font-family="Futura" font-size="14" lengthAdjust="spacingAndGlyphs" textLength="117" x="394.5" y="58.457">Traceability Matrix</text><path fill="#FEFECE" filter="url(#a)" stroke="#000" stroke-width="1.5" d="M108.5 249.5h177v41.594h-177z"/><path fill="#FEFECE" stroke="#000" stroke-width="1.5" d="M268.5 254.5v14h12v-8l-6-6h-6z"/><path stroke="#000" stroke-width="1.5" d="M274.5 254.5v6M280.5 260.5h-6"/><text font-family="Futura" font-size="14" lengthAdjust="spacingAndGlyphs" textLength="147" x="118.5" y="277.457">Purchase Order (initial)</text><ellipse cx="279.895" cy="171.979" fill="#FEFECE" filter="url(#a)" rx="75.395" ry="17.479" stroke="#a80036" stroke-width="1.5"/><text font-family="Futura" font-size="14" lengthAdjust="spacingAndGlyphs" textLength="111" x="224.395" y="177.776">Functional Design</text><path d="M150.707 72.766l103.345 79.318" fill="none" stroke="#a80036" stroke-width="2"/><path fill="#A80036" stroke="#a80036" d="M258.131 155.215l-4.704-8.653.738 5.609-5.609.738 9.575 2.306z"/><path d="M280 72.766v76.64" fill="none" stroke="#a80036" stroke-width="2"/><path fill="#A80036" stroke="#a80036" d="M280 154.466l4-9-4 4-4-4 4 9z"/><path d="M426.587 72.766L308.744 152.54" fill="none" stroke="#a80036" stroke-width="2"/><path fill="#A80036" stroke="#a80036" d="M304.52 155.4l9.696-1.732-5.555-1.07 1.07-5.555-5.21 8.358z"/><path d="M294.839 189.61l48.18 57.177" fill="none" stroke="#a80036" stroke-width="2"/><path fill="#A80036" stroke="#a80036" d="M346.293 250.673l-2.74-9.46-.482 5.636-5.637-.481 8.859 4.305z"/><path d="M265.161 189.61l-47.021 55.802" fill="none" stroke="#a80036" stroke-width="2"/><path fill="#A80036" stroke="#a80036" d="M214.887 249.273l8.858-4.305-5.636.481-.482-5.636-2.74 9.46z"/></svg>