<svg xmlns="http://www.w3.org/2000/svg" height="301" preserveAspectRatio="none" style="width:471px;height:301px" width="471"><defs><filter height="300%" id="a" width="300%" x="-1" y="-1"><feGaussianBlur result="blurOut" stdDeviation="2"/><feColorMatrix in="blurOut" result="blurOut2" values="0 0 0 0 0 0 0 0 0 0 0 0 0 0 0 0 0 0 .4 0"/><feOffset dx="4" dy="4" in="blurOut2" result="blurOut3"/><feBlend in="SourceGraphic" in2="blurOut3"/></filter></defs><circle cx="21" cy="18" fill="#FEFECE" filter="url(#a)" stroke="#a80036" stroke-width="2" r="8"/><path d="M21 26v27M8 34h26M21 53L8 68m13-15l13 15" fill="none" filter="url(#a)" stroke="#a80036" stroke-width="2"/><text font-family="Futura" font-size="14" lengthAdjust="spacingAndGlyphs" textLength="24" x="9" y="89.957">SYS</text><circle cx="86" cy="18" fill="#FEFECE" filter="url(#a)" stroke="#a80036" stroke-width="2" r="8"/><path d="M86 26v27M73 34h26M86 53L73 68m13-15l13 15" fill="none" filter="url(#a)" stroke="#a80036" stroke-width="2"/><text font-family="Futura" font-size="14" lengthAdjust="spacingAndGlyphs" textLength="26" x="73" y="89.957">DES</text><path fill="#FEFECE" filter="url(#a)" stroke="#000" stroke-width="1.5" d="M136.5 30h133v41.594h-133z"/><path fill="#FEFECE" stroke="#000" stroke-width="1.5" d="M252.5 35v14h12v-8l-6-6h-6z"/><path stroke="#000" stroke-width="1.5" d="M258.5 35v6M264.5 41h-6"/><text font-family="Futura" font-size="14" lengthAdjust="spacingAndGlyphs" textLength="103" x="146.5" y="57.957">SDD (functional)</text><path fill="#FEFECE" filter="url(#a)" stroke="#000" stroke-width="1.5" d="M304.5 30h123v41.594h-123z"/><path fill="#FEFECE" stroke="#000" stroke-width="1.5" d="M410.5 35v14h12v-8l-6-6h-6z"/><path stroke="#000" stroke-width="1.5" d="M416.5 35v6M422.5 41h-6"/><text font-family="Futura" font-size="14" lengthAdjust="spacingAndGlyphs" textLength="93" x="314.5" y="57.957">SDD (physical)</text><path fill="#FEFECE" filter="url(#a)" stroke="#000" stroke-width="1.5" d="M102 249h170v41.594H102z"/><path fill="#FEFECE" stroke="#000" stroke-width="1.5" d="M255 254v14h12v-8l-6-6h-6z"/><path stroke="#000" stroke-width="1.5" d="M261 254v6M267 260h-6"/><text font-family="Futura" font-size="14" lengthAdjust="spacingAndGlyphs" textLength="140" x="112" y="276.957">Justification Document</text><path fill="#FEFECE" filter="url(#a)" stroke="#000" stroke-width="1.5" d="M307.5 249h147v41.594h-147z"/><path fill="#FEFECE" stroke="#000" stroke-width="1.5" d="M437.5 254v14h12v-8l-6-6h-6z"/><path stroke="#000" stroke-width="1.5" d="M443.5 254v6M449.5 260h-6"/><text font-family="Futura" font-size="14" lengthAdjust="spacingAndGlyphs" textLength="117" x="317.5" y="276.957">Traceability Matrix</text><ellipse cx="284.164" cy="171.633" fill="#FEFECE" filter="url(#a)" rx="76.165" ry="17.633" stroke="#a80036" stroke-width="1.5"/><text font-family="Futura" font-size="14" lengthAdjust="spacingAndGlyphs" textLength="113" x="227.665" y="177.43">Physical trade-offs</text><path d="M217.295 72.266l52.075 77.47" fill="none" stroke="#a80036" stroke-width="2"/><path fill="#A80036" stroke="#a80036" d="M272.214 153.966l-1.702-9.7-1.088 5.55-5.55-1.088 8.34 5.238z"/><path d="M351.529 72.266l-52.719 77.47" fill="none" stroke="#a80036" stroke-width="2"/><path fill="#A80036" stroke="#a80036" d="M295.932 153.966l8.37-5.19-5.557 1.056-1.057-5.557-1.756 9.691z"/><path d="M267.104 188.657l-55.515 56.373" fill="none" stroke="#a80036" stroke-width="2"/><path fill="#A80036" stroke="#a80036" d="M207.75 248.93l9.164-3.607-5.656.044-.044-5.657-3.465 9.22z"/><path d="M300.896 188.657l55.515 56.373" fill="none" stroke="#a80036" stroke-width="2"/><path fill="#A80036" stroke="#a80036" d="M360.25 248.93l-3.464-9.22-.044 5.657-5.656-.043 9.165 3.606z"/></svg>