<svg xmlns="http://www.w3.org/2000/svg" height="298" preserveAspectRatio="none" style="width:530px;height:298px" width="530"><defs><filter height="300%" id="a" width="300%" x="-1" y="-1"><feGaussianBlur result="blurOut" stdDeviation="2"/><feColorMatrix in="blurOut" result="blurOut2" values="0 0 0 0 0 0 0 0 0 0 0 0 0 0 0 0 0 0 .4 0"/><feOffset dx="4" dy="4" in="blurOut2" result="blurOut3"/><feBlend in="SourceGraphic" in2="blurOut3"/></filter></defs><circle cx="21" cy="18" fill="#FEFECE" filter="url(#a)" stroke="#a80036" stroke-width="2" r="8"/><path d="M21 26v27M8 34h26M21 53L8 68m13-15l13 15" fill="none" filter="url(#a)" stroke="#a80036" stroke-width="2"/><text font-family="Futura" font-size="14" lengthAdjust="spacingAndGlyphs" textLength="24" x="9" y="89.957">SYS</text><circle cx="86" cy="18" fill="#FEFECE" filter="url(#a)" stroke="#a80036" stroke-width="2" r="8"/><path d="M86 26v27M73 34h26M86 53L73 68m13-15l13 15" fill="none" filter="url(#a)" stroke="#a80036" stroke-width="2"/><text font-family="Futura" font-size="14" lengthAdjust="spacingAndGlyphs" textLength="26" x="73" y="89.957">DES</text><path fill="#FEFECE" filter="url(#a)" stroke="#000" stroke-width="1.5" d="M136.5 30h139v41.594h-139z"/><path fill="#FEFECE" stroke="#000" stroke-width="1.5" d="M258.5 35v14h12v-8l-6-6h-6z"/><path stroke="#000" stroke-width="1.5" d="M264.5 35v6M270.5 41h-6"/><text font-family="Futura" font-size="14" lengthAdjust="spacingAndGlyphs" textLength="109" x="146.5" y="57.957">SysRS (validated)</text><path fill="#FEFECE" filter="url(#a)" stroke="#000" stroke-width="1.5" d="M310.5 30h129v41.594h-129z"/><path fill="#FEFECE" stroke="#000" stroke-width="1.5" d="M422.5 35v14h12v-8l-6-6h-6z"/><path stroke="#000" stroke-width="1.5" d="M428.5 35v6M434.5 41h-6"/><text font-family="Futura" font-size="14" lengthAdjust="spacingAndGlyphs" textLength="99" x="320.5" y="57.957">SDD (validated)</text><path fill="#FEFECE" filter="url(#a)" stroke="#000" stroke-width="1.5" d="M86.5 246h127v41.594h-127z"/><path fill="#FEFECE" stroke="#000" stroke-width="1.5" d="M196.5 251v14h12v-8l-6-6h-6z"/><path stroke="#000" stroke-width="1.5" d="M202.5 251v6M208.5 257h-6"/><text font-family="Futura" font-size="14" lengthAdjust="spacingAndGlyphs" textLength="97" x="96.5" y="273.957">IVV Procedures</text><path fill="#FEFECE" filter="url(#a)" stroke="#000" stroke-width="1.5" d="M248.5 246h83v41.594h-83z"/><path fill="#FEFECE" stroke="#000" stroke-width="1.5" d="M314.5 251v14h12v-8l-6-6h-6z"/><path stroke="#000" stroke-width="1.5" d="M320.5 251v6M326.5 257h-6"/><text font-family="Futura" font-size="14" lengthAdjust="spacingAndGlyphs" textLength="53" x="258.5" y="273.957">IVV Plan</text><path fill="#FEFECE" filter="url(#a)" stroke="#000" stroke-width="1.5" d="M366.5 246h147v41.594h-147z"/><path fill="#FEFECE" stroke="#000" stroke-width="1.5" d="M496.5 251v14h12v-8l-6-6h-6z"/><path stroke="#000" stroke-width="1.5" d="M502.5 251v6M508.5 257h-6"/><text font-family="Futura" font-size="14" lengthAdjust="spacingAndGlyphs" textLength="117" x="376.5" y="273.957">Traceability Matrix</text><ellipse cx="289.912" cy="170.148" fill="#FEFECE" filter="url(#a)" rx="53.912" ry="16.148" stroke="#a80036" stroke-width="1.5"/><text font-family="Futura" font-size="14" lengthAdjust="spacingAndGlyphs" textLength="72" x="253.912" y="175.945">Update IVV</text><path d="M220.824 72l55.06 78.001" fill="none" stroke="#a80036" stroke-width="2"/><path fill="#A80036" stroke="#a80036" d="M278.813 154.152l-1.922-9.66-.962 5.575-5.574-.961 8.458 5.046z"/><path d="M360 72l-55.715 78.001" fill="none" stroke="#a80036" stroke-width="2"/><path fill="#A80036" stroke="#a80036" d="M301.32 154.152l8.486-4.999-5.58.93-.93-5.58-1.976 9.649z"/><path d="M290 186.018v54.597" fill="none" stroke="#a80036" stroke-width="2"/><path fill="#A80036" stroke="#a80036" d="M290 245.863l4-9-4 4-4-4 4 9z"/><path d="M268.737 184.732c-22.29 15.445-57.672 39.958-84.02 58.215" fill="none" stroke="#a80036" stroke-width="2"/><path fill="#A80036" stroke="#a80036" d="M180.568 245.82l9.676-1.837-5.566-1.01 1.01-5.566-5.12 8.414z"/><path d="M312.782 184.732l90.022 58.215" fill="none" stroke="#a80036" stroke-width="2"/><path fill="#A80036" stroke="#a80036" d="M407.248 245.82l-5.385-8.245 1.187 5.53-5.531 1.187 9.73 1.529z"/></svg>