<svg xmlns="http://www.w3.org/2000/svg" height="352" preserveAspectRatio="none" style="width:1053px;height:352px" width="1053"><defs><filter height="300%" id="a" width="300%" x="-1" y="-1"><feGaussianBlur result="blurOut" stdDeviation="2"/><feColorMatrix in="blurOut" result="blurOut2" values="0 0 0 0 0 0 0 0 0 0 0 0 0 0 0 0 0 0 .4 0"/><feOffset dx="4" dy="4" in="blurOut2" result="blurOut3"/><feBlend in="SourceGraphic" in2="blurOut3"/></filter></defs><circle cx="21" cy="18" fill="#FEFECE" filter="url(#a)" stroke="#a80036" stroke-width="2" r="8"/><path d="M21 26v27M8 34h26M21 53L8 68m13-15l13 15" fill="none" filter="url(#a)" stroke="#a80036" stroke-width="2"/><text font-family="Futura" font-size="14" lengthAdjust="spacingAndGlyphs" textLength="24" x="9" y="89.957">SYS</text><circle cx="86" cy="18" fill="#FEFECE" filter="url(#a)" stroke="#a80036" stroke-width="2" r="8"/><path d="M86 26v27M73 34h26M86 53L73 68m13-15l13 15" fill="none" filter="url(#a)" stroke="#a80036" stroke-width="2"/><text font-family="Futura" font-size="14" lengthAdjust="spacingAndGlyphs" textLength="26" x="73" y="89.957">DES</text><circle cx="21" cy="164" fill="#FEFECE" filter="url(#a)" stroke="#a80036" stroke-width="2" r="8"/><path d="M21 172v27M8 180h26m-13 19L8 214m13-15l13 15" fill="none" filter="url(#a)" stroke="#a80036" stroke-width="2"/><text font-family="Futura" font-size="14" lengthAdjust="spacingAndGlyphs" textLength="27" x="7.5" y="235.957">DEV</text><path fill="#FEFECE" filter="url(#a)" stroke="#000" stroke-width="1.5" d="M136 30h104v41.594H136z"/><path fill="#FEFECE" stroke="#000" stroke-width="1.5" d="M223 35v14h12v-8l-6-6h-6z"/><path stroke="#000" stroke-width="1.5" d="M229 35v6M235 41h-6"/><text font-family="Futura" font-size="14" lengthAdjust="spacingAndGlyphs" textLength="74" x="146" y="57.957">Project Plan</text><path fill="#FEFECE" filter="url(#a)" stroke="#000" stroke-width="1.5" d="M275.5 30h133v41.594h-133z"/><path fill="#FEFECE" stroke="#000" stroke-width="1.5" d="M391.5 35v14h12v-8l-6-6h-6z"/><path stroke="#000" stroke-width="1.5" d="M397.5 35v6M403.5 41h-6"/><text font-family="Futura" font-size="14" lengthAdjust="spacingAndGlyphs" textLength="103" x="285.5" y="57.957">SERS (validated)</text><path fill="#FEFECE" filter="url(#a)" stroke="#000" stroke-width="1.5" d="M443.5 30h129v41.594h-129z"/><path fill="#FEFECE" stroke="#000" stroke-width="1.5" d="M555.5 35v14h12v-8l-6-6h-6z"/><path stroke="#000" stroke-width="1.5" d="M561.5 35v6M567.5 41h-6"/><text font-family="Futura" font-size="14" lengthAdjust="spacingAndGlyphs" textLength="99" x="453.5" y="57.957">SDD (validated)</text><path fill="#FEFECE" filter="url(#a)" stroke="#000" stroke-width="1.5" d="M608 30h206v41.594H608z"/><path fill="#FEFECE" stroke="#000" stroke-width="1.5" d="M797 35v14h12v-8l-6-6h-6z"/><path stroke="#000" stroke-width="1.5" d="M803 35v6M809 41h-6"/><text font-family="Futura" font-size="14" lengthAdjust="spacingAndGlyphs" textLength="176" x="618" y="57.957">System Elements (SW+HW)</text><path fill="#FEFECE" filter="url(#a)" stroke="#000" stroke-width="1.5" d="M294.5 300h195v41.594h-195z"/><path fill="#FEFECE" stroke="#000" stroke-width="1.5" d="M472.5 305v14h12v-8l-6-6h-6z"/><path stroke="#000" stroke-width="1.5" d="M478.5 305v6M484.5 311h-6"/><text font-family="Futura" font-size="14" lengthAdjust="spacingAndGlyphs" textLength="165" x="304.5" y="327.957">System Elements (verified)</text><path fill="#FEFECE" filter="url(#a)" stroke="#000" stroke-width="1.5" d="M525 300h200v41.594H525z"/><path fill="#FEFECE" stroke="#000" stroke-width="1.5" d="M708 305v14h12v-8l-6-6h-6z"/><path stroke="#000" stroke-width="1.5" d="M714 305v6M720 311h-6"/><text font-family="Futura" font-size="14" lengthAdjust="spacingAndGlyphs" textLength="170" x="535" y="327.957">System Elements (rejected)</text><path fill="#FEFECE" filter="url(#a)" stroke="#000" stroke-width="1.5" d="M849.5 30h187v41.594h-187z"/><path fill="#FEFECE" stroke="#000" stroke-width="1.5" d="M1019.5 35v14h12v-8l-6-6h-6z"/><path stroke="#000" stroke-width="1.5" d="M1025.5 35v6M1031.5 41h-6"/><text font-family="Futura" font-size="14" lengthAdjust="spacingAndGlyphs" textLength="157" x="859.5" y="57.957">IVV Procedures (verified)</text><ellipse cx="507.811" cy="197.148" fill="#FEFECE" filter="url(#a)" rx="63.811" ry="16.148" stroke="#a80036" stroke-width="1.5"/><text font-family="Futura" font-size="14" lengthAdjust="spacingAndGlyphs" textLength="86" x="464.811" y="202.945">Verify System</text><path d="M681.482 72.23L533.61 178.58" fill="none" stroke="#a80036" stroke-width="2"/><path fill="#A80036" stroke="#a80036" d="M529.176 181.77l9.642-2.008-5.583-.911.912-5.583-4.97 8.502z"/><path d="M219.791 72.015C231.558 79.394 245.162 87.465 258 94c70.922 36.1 157.548 69.558 207.976 88.041" fill="none" stroke="#a80036" stroke-width="2"/><path fill="#A80036" stroke="#a80036" d="M470.741 183.783l-7.08-6.847 2.384 5.13-5.13 2.384 9.826-.667z"/><path d="M508 72.23v103.217" fill="none" stroke="#a80036" stroke-width="2"/><path fill="#A80036" stroke="#a80036" d="M508 180.714l4-9-4 4-4-4 4 9z"/><path d="M366.138 72.23l120.296 105.802" fill="none" stroke="#a80036" stroke-width="2"/><path fill="#A80036" stroke="#a80036" d="M490.446 181.561l-4.116-8.947.362 5.645-5.646.362 9.4 2.94z"/><path d="M890.735 72.011C872.27 79.231 851.297 87.202 832 94c-98.07 34.547-214.591 70.32-277.732 89.275" fill="none" stroke="#a80036" stroke-width="2"/><path fill="#A80036" stroke="#a80036" d="M549.443 184.721l9.77 1.246-4.98-2.682 2.682-4.98-7.471 6.416z"/><path d="M493.308 212.705l-77.666 83.022" fill="none" stroke="#a80036" stroke-width="2"/><path fill="#A80036" stroke="#a80036" d="M412.01 299.61l9.069-3.839-5.654.188-.189-5.653-3.227 9.305z"/><path d="M522.818 212.705l78.336 83.022" fill="none" stroke="#a80036" stroke-width="2"/><path fill="#A80036" stroke="#a80036" d="M604.818 299.61l-3.267-9.29-.164 5.654-5.655-.164 9.086 3.8z"/></svg>