<svg xmlns="http://www.w3.org/2000/svg" height="370" preserveAspectRatio="none" style="width:815px;height:370px" width="815"><defs><filter height="300%" id="a" width="300%" x="-1" y="-1"><feGaussianBlur result="blurOut" stdDeviation="2"/><feColorMatrix in="blurOut" result="blurOut2" values="0 0 0 0 0 0 0 0 0 0 0 0 0 0 0 0 0 0 .4 0"/><feOffset dx="4" dy="4" in="blurOut2" result="blurOut3"/><feBlend in="SourceGraphic" in2="blurOut3"/></filter></defs><path fill="#FFF" filter="url(#a)" stroke="#000" stroke-width="1.5" d="M203 271h481v88H203z"/><path fill="#FFF" stroke="#000" stroke-width="1.5" d="M667 276v14h12v-8l-6-6h-6z"/><path stroke="#000" stroke-width="1.5" d="M673 276v6M679 282h-6"/><text font-family="Futura" font-size="14" font-weight="bold" lengthAdjust="spacingAndGlyphs" textLength="124" x="381.5" y="287.966">System Elements</text><path fill="#FEFECE" filter="url(#a)" stroke="#a80036" stroke-width="1.5" d="M211.5 306h185v38.594h-185z"/><path fill="#FEFECE" stroke="#a80036" stroke-width="1.5" d="M206.5 311h10v5h-10zM206.5 334.594h10v5h-10z"/><text font-family="Futura" font-size="14" lengthAdjust="spacingAndGlyphs" textLength="165" x="221.5" y="330.957">Software System Elements</text><path fill="#FEFECE" filter="url(#a)" stroke="#a80036" stroke-width="1.5" d="M431.5 306h77v38.594h-77z"/><path fill="#FEFECE" stroke="#a80036" stroke-width="1.5" d="M426.5 311h10v5h-10zM426.5 334.594h10v5h-10z"/><text font-family="Futura" font-size="14" lengthAdjust="spacingAndGlyphs" textLength="57" x="441.5" y="330.957">SW+HW</text><circle cx="653" cy="316" fill="#FEFECE" filter="url(#a)" stroke="#a80036" stroke-width="2" r="12"/><path fill="#A80036" stroke="#a80036" d="M649 304l6-5-2 5 2 5-6-5z"/><text font-family="Futura" font-size="14" lengthAdjust="spacingAndGlyphs" textLength="46" x="630" y="346.957">verified</text><circle cx="569" cy="316" fill="#FEFECE" filter="url(#a)" stroke="#a80036" stroke-width="2" r="12"/><path fill="#A80036" stroke="#a80036" d="M565 304l6-5-2 5 2 5-6-5z"/><text font-family="Futura" font-size="14" lengthAdjust="spacingAndGlyphs" textLength="51" x="543.5" y="346.957">rejected</text><circle cx="21" cy="18" fill="#FEFECE" filter="url(#a)" stroke="#a80036" stroke-width="2" r="8"/><path d="M21 26v27M8 34h26M21 53L8 68m13-15l13 15" fill="none" filter="url(#a)" stroke="#a80036" stroke-width="2"/><text font-family="Futura" font-size="14" lengthAdjust="spacingAndGlyphs" textLength="24" x="9" y="89.957">SYS</text><circle cx="86" cy="18" fill="#FEFECE" filter="url(#a)" stroke="#a80036" stroke-width="2" r="8"/><path d="M86 26v27M73 34h26M86 53L73 68m13-15l13 15" fill="none" filter="url(#a)" stroke="#a80036" stroke-width="2"/><text font-family="Futura" font-size="14" lengthAdjust="spacingAndGlyphs" textLength="26" x="73" y="89.957">DES</text><circle cx="21" cy="164" fill="#FEFECE" filter="url(#a)" stroke="#a80036" stroke-width="2" r="8"/><path d="M21 172v27M8 180h26m-13 19L8 214m13-15l13 15" fill="none" filter="url(#a)" stroke="#a80036" stroke-width="2"/><text font-family="Futura" font-size="14" lengthAdjust="spacingAndGlyphs" textLength="27" x="7.5" y="235.957">DEV</text><path fill="#FEFECE" filter="url(#a)" stroke="#000" stroke-width="1.5" d="M140 30h104v41.594H140z"/><path fill="#FEFECE" stroke="#000" stroke-width="1.5" d="M227 35v14h12v-8l-6-6h-6z"/><path stroke="#000" stroke-width="1.5" d="M233 35v6M239 41h-6"/><text font-family="Futura" font-size="14" lengthAdjust="spacingAndGlyphs" textLength="74" x="150" y="57.957">Project Plan</text><path fill="#FEFECE" filter="url(#a)" stroke="#000" stroke-width="1.5" d="M279.5 30h133v41.594h-133z"/><path fill="#FEFECE" stroke="#000" stroke-width="1.5" d="M395.5 35v14h12v-8l-6-6h-6z"/><path stroke="#000" stroke-width="1.5" d="M401.5 35v6M407.5 41h-6"/><text font-family="Futura" font-size="14" lengthAdjust="spacingAndGlyphs" textLength="103" x="289.5" y="57.957">SERS (validated)</text><path fill="#FEFECE" filter="url(#a)" stroke="#000" stroke-width="1.5" d="M447.5 30h129v41.594h-129z"/><path fill="#FEFECE" stroke="#000" stroke-width="1.5" d="M559.5 35v14h12v-8l-6-6h-6z"/><path stroke="#000" stroke-width="1.5" d="M565.5 35v6M571.5 41h-6"/><text font-family="Futura" font-size="14" lengthAdjust="spacingAndGlyphs" textLength="99" x="457.5" y="57.957">SDD (validated)</text><path fill="#FEFECE" filter="url(#a)" stroke="#000" stroke-width="1.5" d="M611.5 30h187v41.594h-187z"/><path fill="#FEFECE" stroke="#000" stroke-width="1.5" d="M781.5 35v14h12v-8l-6-6h-6z"/><path stroke="#000" stroke-width="1.5" d="M787.5 35v6M793.5 41h-6"/><text font-family="Futura" font-size="14" lengthAdjust="spacingAndGlyphs" textLength="157" x="621.5" y="57.957">IVV Procedures (verified)</text><ellipse cx="149.9" cy="197.18" fill="#FEFECE" filter="url(#a)" rx="78.9" ry="18.18" stroke="#a80036" stroke-width="1.5"/><text font-family="Futura" font-size="14" lengthAdjust="spacingAndGlyphs" textLength="120" x="89.9" y="202.977">Construct Software</text><ellipse cx="346.196" cy="197.239" fill="#FEFECE" filter="url(#a)" rx="81.696" ry="18.739" stroke="#a80036" stroke-width="1.5"/><text font-family="Futura" font-size="14" lengthAdjust="spacingAndGlyphs" textLength="127" x="282.696" y="203.036">Construct Hardware</text><ellipse cx="526.811" cy="197.148" fill="#FEFECE" filter="url(#a)" rx="63.811" ry="16.148" stroke="#a80036" stroke-width="1.5"/><text font-family="Futura" font-size="14" lengthAdjust="spacingAndGlyphs" textLength="86" x="483.811" y="202.945">Verify System</text><ellipse cx="697.041" cy="197.008" fill="#FEFECE" filter="url(#a)" rx="70.541" ry="16.508" stroke="#a80036" stroke-width="1.5"/><text font-family="Futura" font-size="14" lengthAdjust="spacingAndGlyphs" textLength="98" x="648.041" y="202.805">Correct Defects</text><path d="M185.893 72.23l-29.27 101.749" fill="none" stroke="#a80036" stroke-width="2"/><path fill="#A80036" stroke="#a80036" d="M155.188 178.967l6.332-7.543-4.95 2.738-2.738-4.95 1.356 9.755z"/><path d="M317.5 72.23L177.69 176.374" fill="none" stroke="#a80036" stroke-width="2"/><path fill="#A80036" stroke="#a80036" d="M173.318 179.63l9.607-2.168-5.597-.818.818-5.598-4.828 8.585z"/><path d="M171.09 214.598l105.344 87.9" fill="none" stroke="#a80036" stroke-width="2"/><path fill="#A80036" stroke="#a80036" d="M280.393 305.802l-4.348-8.838.508 5.634-5.633.509 9.473 2.695z"/><path d="M214.393 72.23l108.775 103.124" fill="none" stroke="#a80036" stroke-width="2"/><path fill="#A80036" stroke="#a80036" d="M326.979 178.967l-3.78-9.095.151 5.655-5.654.151 9.283 3.29z"/><path d="M346 72.23V173.05" fill="none" stroke="#a80036" stroke-width="2"/><path fill="#A80036" stroke="#a80036" d="M346 178.067l4-9-4 4-4-4 4 9z"/><path d="M487.862 72.23c-31.325 27.55-85.696 75.37-117.25 103.124" fill="none" stroke="#a80036" stroke-width="2"/><path fill="#A80036" stroke="#a80036" d="M366.503 178.967l9.4-2.94-5.646-.362.362-5.645-4.116 8.947z"/><path d="M310.39 305.95l27.862-85.244" fill="none" stroke="#a80036" stroke-width="2"/><path fill="#A80036" stroke="#a80036" d="M339.893 215.685l-6.598 7.312 5.044-2.56 2.56 5.045-1.006-9.797z"/><path d="M363.503 215.138l83.7 86.737" fill="none" stroke="#a80036" stroke-width="2"/><path fill="#A80036" stroke="#a80036" d="M450.96 305.768l-3.372-9.254-.1 5.656-5.657-.1 9.128 3.698z"/><path d="M478.688 305.915l39.148-88.256" fill="none" stroke="#a80036" stroke-width="2"/><path fill="#A80036" stroke="#a80036" d="M519.896 213.015l-7.305 6.605 5.278-2.035 2.034 5.279-.007-9.85z"/><path d="M222.84 72.102C234.735 79.657 248.67 87.825 262 94c77.664 35.98 104.16 26.677 183 60 17.578 7.43 36.488 17.216 51.713 25.575" fill="none" stroke="#a80036" stroke-width="2"/><path fill="#A80036" stroke="#a80036" d="M501.315 182.12l-5.941-7.856 1.565 5.436-5.436 1.565 9.812.855z"/><path d="M514.181 72.23l10.605 103.217" fill="none" stroke="#a80036" stroke-width="2"/><path fill="#A80036" stroke="#a80036" d="M525.327 180.714l3.059-9.362-3.57 4.388-4.388-3.57 4.899 8.544z"/><path d="M372.319 72.23l131.578 106.134" fill="none" stroke="#a80036" stroke-width="2"/><path fill="#A80036" stroke="#a80036" d="M507.86 181.561l-4.494-8.764.602 5.625-5.625.602 9.517 2.537z"/><path d="M679.117 72.23L549.72 178.364" fill="none" stroke="#a80036" stroke-width="2"/><path fill="#A80036" stroke="#a80036" d="M545.823 181.561l9.495-2.615-5.63-.556.557-5.63-4.422 8.801z"/><path d="M546.95 212.379C564.88 226.648 591.468 248.948 612 271c7.142 7.67 14.246 16.552 20.486 24.89" fill="none" stroke="#a80036" stroke-width="2"/><path fill="#A80036" stroke="#a80036" d="M635.476 299.933l-2.136-9.615-.838 5.595-5.594-.837 8.568 4.857z"/><path d="M532.234 213.015l26.782 81.938" fill="none" stroke="#a80036" stroke-width="2"/><path fill="#A80036" stroke="#a80036" d="M560.651 299.957l1.006-9.798-2.56 5.045-5.044-2.56 6.598 7.313z"/><path d="M587.543 299.999c7.26-9.434 15.894-20.012 24.457-28.999 18.912-19.85 42.587-40.14 60.145-54.442" fill="none" stroke="#a80036" stroke-width="2"/><path fill="#A80036" stroke="#a80036" d="M676.47 213.055l-9.511 2.556 5.626.591-.59 5.626 4.475-8.773z"/><path d="M691.338 213.536l-27.807 81.208" fill="none" stroke="#a80036" stroke-width="2"/><path fill="#A80036" stroke="#a80036" d="M661.832 299.705l6.7-7.219-5.08 2.489-2.488-5.08.868 9.81z"/></svg>