<svg xmlns="http://www.w3.org/2000/svg" height="303" preserveAspectRatio="none" style="width:754px;height:303px" width="754"><defs><filter height="300%" id="a" width="300%" x="-1" y="-1"><feGaussianBlur result="blurOut" stdDeviation="2"/><feColorMatrix in="blurOut" result="blurOut2" values="0 0 0 0 0 0 0 0 0 0 0 0 0 0 0 0 0 0 .4 0"/><feOffset dx="4" dy="4" in="blurOut2" result="blurOut3"/><feBlend in="SourceGraphic" in2="blurOut3"/></filter></defs><circle cx="21" cy="18" fill="#FEFECE" filter="url(#a)" stroke="#a80036" stroke-width="2" r="8"/><path d="M21 26v27M8 34h26M21 53L8 68m13-15l13 15" fill="none" filter="url(#a)" stroke="#a80036" stroke-width="2"/><text font-family="Futura" font-size="14" lengthAdjust="spacingAndGlyphs" textLength="27" x="7.5" y="89.957">DEV</text><path fill="#FEFECE" filter="url(#a)" stroke="#000" stroke-width="1.5" d="M71 30h104v41.594H71z"/><path fill="#FEFECE" stroke="#000" stroke-width="1.5" d="M158 35v14h12v-8l-6-6h-6z"/><path stroke="#000" stroke-width="1.5" d="M164 35v6M170 41h-6"/><text font-family="Futura" font-size="14" lengthAdjust="spacingAndGlyphs" textLength="74" x="81" y="57.957">Project Plan</text><path fill="#FEFECE" filter="url(#a)" stroke="#000" stroke-width="1.5" d="M210.5 30h133v41.594h-133z"/><path fill="#FEFECE" stroke="#000" stroke-width="1.5" d="M326.5 35v14h12v-8l-6-6h-6z"/><path stroke="#000" stroke-width="1.5" d="M332.5 35v6M338.5 41h-6"/><text font-family="Futura" font-size="14" lengthAdjust="spacingAndGlyphs" textLength="103" x="220.5" y="57.957">SERS (validated)</text><path fill="#FEFECE" filter="url(#a)" stroke="#000" stroke-width="1.5" d="M378.5 30h129v41.594h-129z"/><path fill="#FEFECE" stroke="#000" stroke-width="1.5" d="M490.5 35v14h12v-8l-6-6h-6z"/><path stroke="#000" stroke-width="1.5" d="M496.5 35v6M502.5 41h-6"/><text font-family="Futura" font-size="14" lengthAdjust="spacingAndGlyphs" textLength="99" x="388.5" y="57.957">SDD (validated)</text><path fill="#FEFECE" filter="url(#a)" stroke="#000" stroke-width="1.5" d="M542.5 30h195v41.594h-195z"/><path fill="#FEFECE" stroke="#000" stroke-width="1.5" d="M720.5 35v14h12v-8l-6-6h-6z"/><path stroke="#000" stroke-width="1.5" d="M726.5 35v6M732.5 41h-6"/><text font-family="Futura" font-size="14" lengthAdjust="spacingAndGlyphs" textLength="165" x="552.5" y="57.957">Software System Elements</text><path fill="#FEFECE" filter="url(#a)" stroke="#000" stroke-width="1.5" d="M257 251h206v41.594H257z"/><path fill="#FEFECE" stroke="#000" stroke-width="1.5" d="M446 256v14h12v-8l-6-6h-6z"/><path stroke="#000" stroke-width="1.5" d="M452 256v6M458 262h-6"/><text font-family="Futura" font-size="14" lengthAdjust="spacingAndGlyphs" textLength="176" x="267" y="278.957">System Elements (SW+HW)</text><ellipse cx="360.196" cy="172.739" fill="#FEFECE" filter="url(#a)" rx="81.696" ry="18.739" stroke="#a80036" stroke-width="1.5"/><text font-family="Futura" font-size="14" lengthAdjust="spacingAndGlyphs" textLength="127" x="296.696" y="178.536">Construct Hardware</text><path d="M155.672 72.112C167.292 79.34 180.576 87.29 193 94c41.242 22.27 89.889 44.725 124.007 59.88" fill="none" stroke="#a80036" stroke-width="2"/><path fill="#A80036" stroke="#a80036" d="M321.932 156.061l-6.608-7.302 2.037 5.277-5.278 2.037 9.85-.012z"/><path d="M291.457 72.164l52.947 77.506" fill="none" stroke="#a80036" stroke-width="2"/><path fill="#A80036" stroke="#a80036" d="M347.338 153.964l-1.774-9.688-1.047 5.56-5.559-1.047 8.38 5.175z"/><path d="M428.543 72.164l-52.947 77.506" fill="none" stroke="#a80036" stroke-width="2"/><path fill="#A80036" stroke="#a80036" d="M372.662 153.964l8.38-5.175-5.56 1.047-1.046-5.56-1.774 9.688z"/><path d="M591.547 72.025c-53.222 23.095-137.878 59.83-188.742 81.9" fill="none" stroke="#a80036" stroke-width="2"/><path fill="#A80036" stroke="#a80036" d="M397.99 156.015l9.849.087-5.262-2.077 2.077-5.262-6.664 7.252z"/><path d="M360 191.215v54.586" fill="none" stroke="#a80036" stroke-width="2"/><path fill="#A80036" stroke="#a80036" d="M360 250.958l4-9-4 4-4-4 4 9z"/></svg>