<svg xmlns="http://www.w3.org/2000/svg" height="302" preserveAspectRatio="none" style="width:360px;height:302px" width="360"><defs><filter height="300%" id="a" width="300%" x="-1" y="-1"><feGaussianBlur result="blurOut" stdDeviation="2"/><feColorMatrix in="blurOut" result="blurOut2" values="0 0 0 0 0 0 0 0 0 0 0 0 0 0 0 0 0 0 .4 0"/><feOffset dx="4" dy="4" in="blurOut2" result="blurOut3"/><feBlend in="SourceGraphic" in2="blurOut3"/></filter></defs><circle cx="21" cy="18" fill="#FEFECE" filter="url(#a)" stroke="#a80036" stroke-width="2" r="8"/><path d="M21 26v27M8 34h26M21 53L8 68m13-15l13 15" fill="none" filter="url(#a)" stroke="#a80036" stroke-width="2"/><text font-family="Futura" font-size="14" lengthAdjust="spacingAndGlyphs" textLength="27" x="7.5" y="89.957">DEV</text><path fill="#FEFECE" filter="url(#a)" stroke="#000" stroke-width="1.5" d="M71 30h104v41.594H71z"/><path fill="#FEFECE" stroke="#000" stroke-width="1.5" d="M158 35v14h12v-8l-6-6h-6z"/><path stroke="#000" stroke-width="1.5" d="M164 35v6M170 41h-6"/><text font-family="Futura" font-size="14" lengthAdjust="spacingAndGlyphs" textLength="74" x="81" y="57.957">Project Plan</text><path fill="#FEFECE" filter="url(#a)" stroke="#000" stroke-width="1.5" d="M210.5 30h133v41.594h-133z"/><path fill="#FEFECE" stroke="#000" stroke-width="1.5" d="M326.5 35v14h12v-8l-6-6h-6z"/><path stroke="#000" stroke-width="1.5" d="M332.5 35v6M338.5 41h-6"/><text font-family="Futura" font-size="14" lengthAdjust="spacingAndGlyphs" textLength="103" x="220.5" y="57.957">SERS (validated)</text><path fill="#FEFECE" filter="url(#a)" stroke="#000" stroke-width="1.5" d="M102.5 250h195v41.594h-195z"/><path fill="#FEFECE" stroke="#000" stroke-width="1.5" d="M280.5 255v14h12v-8l-6-6h-6z"/><path stroke="#000" stroke-width="1.5" d="M286.5 255v6M292.5 261h-6"/><text font-family="Futura" font-size="14" lengthAdjust="spacingAndGlyphs" textLength="165" x="112.5" y="277.957">Software System Elements</text><ellipse cx="199.9" cy="172.18" fill="#FEFECE" filter="url(#a)" rx="78.9" ry="18.18" stroke="#a80036" stroke-width="1.5"/><text font-family="Futura" font-size="14" lengthAdjust="spacingAndGlyphs" textLength="120" x="139.9" y="177.977">Construct Software</text><path d="M136.412 72.077l49.368 77.577" fill="none" stroke="#a80036" stroke-width="2"/><path fill="#A80036" stroke="#a80036" d="M188.498 153.926l-1.457-9.74-1.227 5.522-5.522-1.227 8.206 5.445z"/><path d="M263.588 72.077l-49.368 77.577" fill="none" stroke="#a80036" stroke-width="2"/><path fill="#A80036" stroke="#a80036" d="M211.502 153.926l8.206-5.445-5.522 1.227-1.227-5.523-1.457 9.74z"/><path d="M200 190.158v54.533" fill="none" stroke="#a80036" stroke-width="2"/><path fill="#A80036" stroke="#a80036" d="M200 249.864l4-9-4 4-4-4 4 9z"/></svg>