<?xml version="1.0" encoding="UTF-8" standalone="no"?><svg xmlns="http://www.w3.org/2000/svg" xmlns:xlink="http://www.w3.org/1999/xlink" contentScriptType="application/ecmascript" contentStyleType="text/css" height="299px" preserveAspectRatio="none" style="width:288px;height:299px;" version="1.1" viewBox="0 0 288 299" width="288px" zoomAndPan="magnify"><defs><filter height="300%" id="f135fy6d3rh8xy" width="300%" x="-1" y="-1"><feGaussianBlur result="blurOut" stdDeviation="2.0"/><feColorMatrix in="blurOut" result="blurOut2" type="matrix" values="0 0 0 0 0 0 0 0 0 0 0 0 0 0 0 0 0 0 .4 0"/><feOffset dx="4.0" dy="4.0" in="blurOut2" result="blurOut3"/><feBlend in="SourceGraphic" in2="blurOut3" mode="normal"/></filter></defs><g><!--entity DEV--><ellipse cx="21" cy="18" fill="#FEFECE" filter="url(#f135fy6d3rh8xy)" rx="8" ry="8" style="stroke: #A80036; stroke-width: 2.0;"/><path d="M21,26 L21,53 M8,34 L34,34 M21,53 L8,68 M21,53 L34,68 " fill="none" filter="url(#f135fy6d3rh8xy)" style="stroke: #A80036; stroke-width: 2.0;"/><text fill="#000000" font-family="Futura" font-size="14" lengthAdjust="spacingAndGlyphs" textLength="27" x="7.5" y="89.957">DEV</text><!--entity PROD_SE_VERIFIED--><rect fill="#FEFECE" filter="url(#f135fy6d3rh8xy)" height="41.5938" style="stroke: #000000; stroke-width: 1.5;" width="195" x="73.5" y="247"/><polygon fill="#FEFECE" points="251.5,252,251.5,266,263.5,266,263.5,258,257.5,252,251.5,252" style="stroke: #000000; stroke-width: 1.5;"/><line style="stroke: #000000; stroke-width: 1.5;" x1="257.5" x2="257.5" y1="252" y2="258"/><line style="stroke: #000000; stroke-width: 1.5;" x1="263.5" x2="257.5" y1="258" y2="258"/><text fill="#000000" font-family="Futura" font-size="14" lengthAdjust="spacingAndGlyphs" textLength="165" x="83.5" y="274.957">System Elements (verified)</text><!--entity PROD_SE_REJECTED--><rect fill="#FEFECE" filter="url(#f135fy6d3rh8xy)" height="41.5938" style="stroke: #000000; stroke-width: 1.5;" width="200" x="71" y="30"/><polygon fill="#FEFECE" points="254,35,254,49,266,49,266,41,260,35,254,35" style="stroke: #000000; stroke-width: 1.5;"/><line style="stroke: #000000; stroke-width: 1.5;" x1="260" x2="260" y1="35" y2="41"/><line style="stroke: #000000; stroke-width: 1.5;" x1="266" x2="260" y1="41" y2="41"/><text fill="#000000" font-family="Futura" font-size="14" lengthAdjust="spacingAndGlyphs" textLength="170" x="81" y="57.957">System Elements (rejected)</text><ellipse cx="171.0411" cy="170.5082" fill="#FEFECE" filter="url(#f135fy6d3rh8xy)" rx="70.5411" ry="16.5082" style="stroke: #A80036; stroke-width: 1.5;"/><text fill="#000000" font-family="Futura" font-size="14" lengthAdjust="spacingAndGlyphs" textLength="98" x="122.0411" y="176.3051">Correct Defects</text><!--link PROD_SE_REJECTED to SR4_4--><path d="M171,72.0891 C171,93.6759 171,127.0614 171,148.85 " fill="none" id="PROD_SE_REJECTED-SR4_4" style="stroke: #A80036; stroke-width: 2.0;"/><polygon fill="#A80036" points="171,153.8546,175,144.8546,171,148.8546,167,144.8546,171,153.8546" style="stroke: #A80036; stroke-width: 1.0;"/><!--link SR4_4 to PROD_SE_VERIFIED--><path d="M171,187.0395 C171,202.0076 171,224.3084 171,241.717 " fill="none" id="SR4_4-PROD_SE_VERIFIED" style="stroke: #A80036; stroke-width: 2.0;"/><polygon fill="#A80036" points="171,246.949,175,237.949,171,241.949,167,237.949,171,246.949" style="stroke: #A80036; stroke-width: 1.0;"/><!--
@startuml



skinparam handwritten false
skinparam defaultFontName Futura


actor DEV

artifact "System Elements (verified)" as PROD_SE_VERIFIED
artifact "System Elements (rejected)" as PROD_SE_REJECTED

usecase "Correct Defects" as SR4_4
PROD_SE_REJECTED ==> SR4_4
SR4_4 ==> PROD_SE_VERIFIED

@enduml

PlantUML version 1.2019.00(Sun Jan 13 07:46:42 PST 2019)
(GPL source distribution)
Java Runtime: Java(TM) SE Runtime Environment
JVM: Java HotSpot(TM) 64-Bit Server VM
Java Version: 10.0.1+10
Operating System: Mac OS X
OS Version: 10.14.3
Default Encoding: UTF-8
Language: en
Country: US
--></g></svg>