<?xml version="1.0" encoding="UTF-8" standalone="no"?><svg xmlns="http://www.w3.org/2000/svg" xmlns:xlink="http://www.w3.org/1999/xlink" contentScriptType="application/ecmascript" contentStyleType="text/css" height="352px" preserveAspectRatio="none" style="width:1053px;height:352px;" version="1.1" viewBox="0 0 1053 352" width="1053px" zoomAndPan="magnify"><defs><filter height="300%" id="fmcs4en2r21uu" width="300%" x="-1" y="-1"><feGaussianBlur result="blurOut" stdDeviation="2.0"/><feColorMatrix in="blurOut" result="blurOut2" type="matrix" values="0 0 0 0 0 0 0 0 0 0 0 0 0 0 0 0 0 0 .4 0"/><feOffset dx="4.0" dy="4.0" in="blurOut2" result="blurOut3"/><feBlend in="SourceGraphic" in2="blurOut3" mode="normal"/></filter></defs><g><!--entity SYS--><ellipse cx="21" cy="18" fill="#FEFECE" filter="url(#fmcs4en2r21uu)" rx="8" ry="8" style="stroke: #A80036; stroke-width: 2.0;"/><path d="M21,26 L21,53 M8,34 L34,34 M21,53 L8,68 M21,53 L34,68 " fill="none" filter="url(#fmcs4en2r21uu)" style="stroke: #A80036; stroke-width: 2.0;"/><text fill="#000000" font-family="Futura" font-size="14" lengthAdjust="spacingAndGlyphs" textLength="24" x="9" y="89.957">SYS</text><!--entity DES--><ellipse cx="86" cy="18" fill="#FEFECE" filter="url(#fmcs4en2r21uu)" rx="8" ry="8" style="stroke: #A80036; stroke-width: 2.0;"/><path d="M86,26 L86,53 M73,34 L99,34 M86,53 L73,68 M86,53 L99,68 " fill="none" filter="url(#fmcs4en2r21uu)" style="stroke: #A80036; stroke-width: 2.0;"/><text fill="#000000" font-family="Futura" font-size="14" lengthAdjust="spacingAndGlyphs" textLength="26" x="73" y="89.957">DES</text><!--entity DEV--><ellipse cx="21" cy="164" fill="#FEFECE" filter="url(#fmcs4en2r21uu)" rx="8" ry="8" style="stroke: #A80036; stroke-width: 2.0;"/><path d="M21,172 L21,199 M8,180 L34,180 M21,199 L8,214 M21,199 L34,214 " fill="none" filter="url(#fmcs4en2r21uu)" style="stroke: #A80036; stroke-width: 2.0;"/><text fill="#000000" font-family="Futura" font-size="14" lengthAdjust="spacingAndGlyphs" textLength="27" x="7.5" y="235.957">DEV</text><!--entity PROD_PP--><rect fill="#FEFECE" filter="url(#fmcs4en2r21uu)" height="41.5938" style="stroke: #000000; stroke-width: 1.5;" width="104" x="136" y="30"/><polygon fill="#FEFECE" points="223,35,223,49,235,49,235,41,229,35,223,35" style="stroke: #000000; stroke-width: 1.5;"/><line style="stroke: #000000; stroke-width: 1.5;" x1="229" x2="229" y1="35" y2="41"/><line style="stroke: #000000; stroke-width: 1.5;" x1="235" x2="229" y1="41" y2="41"/><text fill="#000000" font-family="Futura" font-size="14" lengthAdjust="spacingAndGlyphs" textLength="74" x="146" y="57.957">Project Plan</text><!--entity PROD_SERS_VALIDATED--><rect fill="#FEFECE" filter="url(#fmcs4en2r21uu)" height="41.5938" style="stroke: #000000; stroke-width: 1.5;" width="133" x="275.5" y="30"/><polygon fill="#FEFECE" points="391.5,35,391.5,49,403.5,49,403.5,41,397.5,35,391.5,35" style="stroke: #000000; stroke-width: 1.5;"/><line style="stroke: #000000; stroke-width: 1.5;" x1="397.5" x2="397.5" y1="35" y2="41"/><line style="stroke: #000000; stroke-width: 1.5;" x1="403.5" x2="397.5" y1="41" y2="41"/><text fill="#000000" font-family="Futura" font-size="14" lengthAdjust="spacingAndGlyphs" textLength="103" x="285.5" y="57.957">SERS (validated)</text><!--entity PROD_SDD_VALIDATED--><rect fill="#FEFECE" filter="url(#fmcs4en2r21uu)" height="41.5938" style="stroke: #000000; stroke-width: 1.5;" width="129" x="443.5" y="30"/><polygon fill="#FEFECE" points="555.5,35,555.5,49,567.5,49,567.5,41,561.5,35,555.5,35" style="stroke: #000000; stroke-width: 1.5;"/><line style="stroke: #000000; stroke-width: 1.5;" x1="561.5" x2="561.5" y1="35" y2="41"/><line style="stroke: #000000; stroke-width: 1.5;" x1="567.5" x2="561.5" y1="41" y2="41"/><text fill="#000000" font-family="Futura" font-size="14" lengthAdjust="spacingAndGlyphs" textLength="99" x="453.5" y="57.957">SDD (validated)</text><!--entity PROD_SE_SWHW--><rect fill="#FEFECE" filter="url(#fmcs4en2r21uu)" height="41.5938" style="stroke: #000000; stroke-width: 1.5;" width="206" x="608" y="30"/><polygon fill="#FEFECE" points="797,35,797,49,809,49,809,41,803,35,797,35" style="stroke: #000000; stroke-width: 1.5;"/><line style="stroke: #000000; stroke-width: 1.5;" x1="803" x2="803" y1="35" y2="41"/><line style="stroke: #000000; stroke-width: 1.5;" x1="809" x2="803" y1="41" y2="41"/><text fill="#000000" font-family="Futura" font-size="14" lengthAdjust="spacingAndGlyphs" textLength="176" x="618" y="57.957">System Elements (SW+HW)</text><!--entity PROD_SE_VERIFIED--><rect fill="#FEFECE" filter="url(#fmcs4en2r21uu)" height="41.5938" style="stroke: #000000; stroke-width: 1.5;" width="195" x="294.5" y="300"/><polygon fill="#FEFECE" points="472.5,305,472.5,319,484.5,319,484.5,311,478.5,305,472.5,305" style="stroke: #000000; stroke-width: 1.5;"/><line style="stroke: #000000; stroke-width: 1.5;" x1="478.5" x2="478.5" y1="305" y2="311"/><line style="stroke: #000000; stroke-width: 1.5;" x1="484.5" x2="478.5" y1="311" y2="311"/><text fill="#000000" font-family="Futura" font-size="14" lengthAdjust="spacingAndGlyphs" textLength="165" x="304.5" y="327.957">System Elements (verified)</text><!--entity PROD_SE_REJECTED--><rect fill="#FEFECE" filter="url(#fmcs4en2r21uu)" height="41.5938" style="stroke: #000000; stroke-width: 1.5;" width="200" x="525" y="300"/><polygon fill="#FEFECE" points="708,305,708,319,720,319,720,311,714,305,708,305" style="stroke: #000000; stroke-width: 1.5;"/><line style="stroke: #000000; stroke-width: 1.5;" x1="714" x2="714" y1="305" y2="311"/><line style="stroke: #000000; stroke-width: 1.5;" x1="720" x2="714" y1="311" y2="311"/><text fill="#000000" font-family="Futura" font-size="14" lengthAdjust="spacingAndGlyphs" textLength="170" x="535" y="327.957">System Elements (rejected)</text><!--entity PROD_IVV_PROC_VERIFIED--><rect fill="#FEFECE" filter="url(#fmcs4en2r21uu)" height="41.5938" style="stroke: #000000; stroke-width: 1.5;" width="187" x="849.5" y="30"/><polygon fill="#FEFECE" points="1019.5,35,1019.5,49,1031.5,49,1031.5,41,1025.5,35,1019.5,35" style="stroke: #000000; stroke-width: 1.5;"/><line style="stroke: #000000; stroke-width: 1.5;" x1="1025.5" x2="1025.5" y1="35" y2="41"/><line style="stroke: #000000; stroke-width: 1.5;" x1="1031.5" x2="1025.5" y1="41" y2="41"/><text fill="#000000" font-family="Futura" font-size="14" lengthAdjust="spacingAndGlyphs" textLength="157" x="859.5" y="57.957">IVV Procedures (verified)</text><ellipse cx="507.8112" cy="197.1478" fill="#FEFECE" filter="url(#fmcs4en2r21uu)" rx="63.8112" ry="16.1478" style="stroke: #A80036; stroke-width: 1.5;"/><text fill="#000000" font-family="Futura" font-size="14" lengthAdjust="spacingAndGlyphs" textLength="86" x="464.8112" y="202.9446">Verify System</text><!--link PROD_SE_SWHW to SR4_3--><path d="M681.4821,72.2297 C641.645,100.8809 571.329,151.453 533.6102,178.5809 " fill="none" id="PROD_SE_SWHW-SR4_3" style="stroke: #A80036; stroke-width: 2.0;"/><polygon fill="#A80036" points="529.1761,181.7699,538.8182,179.7624,533.2353,178.8505,534.1472,173.2676,529.1761,181.7699" style="stroke: #A80036; stroke-width: 1.0;"/><!--link PROD_PP to SR4_3--><path d="M219.7913,72.0152 C231.5584,79.3938 245.1622,87.4654 258,94 C328.9224,130.1005 415.5483,163.5579 465.976,182.041 " fill="none" id="PROD_PP-SR4_3" style="stroke: #A80036; stroke-width: 2.0;"/><polygon fill="#A80036" points="470.7414,183.7826,463.6613,176.9363,466.0452,182.0663,460.9152,184.4502,470.7414,183.7826" style="stroke: #A80036; stroke-width: 1.0;"/><!--link PROD_SDD_VALIDATED to SR4_3--><path d="M508,72.2297 C508,99.8114 508,147.7079 508,175.4472 " fill="none" id="PROD_SDD_VALIDATED-SR4_3" style="stroke: #A80036; stroke-width: 2.0;"/><polygon fill="#A80036" points="508,180.7143,512,171.7143,508,175.7143,504,171.7143,508,180.7143" style="stroke: #A80036; stroke-width: 1.0;"/><!--link PROD_SERS_VALIDATED to SR4_3--><path d="M366.1378,72.2297 C398.4954,100.6888 455.4435,150.7756 486.4335,178.0319 " fill="none" id="PROD_SERS_VALIDATED-SR4_3" style="stroke: #A80036; stroke-width: 2.0;"/><polygon fill="#A80036" points="490.4461,181.5611,486.3297,172.6138,486.6916,178.259,481.0463,178.621,490.4461,181.5611" style="stroke: #A80036; stroke-width: 1.0;"/><!--link PROD_IVV_PROC_VERIFIED to SR4_3--><path d="M890.7354,72.0114 C872.2696,79.2314 851.2973,87.2022 832,94 C733.93,128.5467 617.409,164.3209 554.2684,183.2746 " fill="none" id="PROD_IVV_PROC_VERIFIED-SR4_3" style="stroke: #A80036; stroke-width: 2.0;"/><polygon fill="#A80036" points="549.4435,184.7214,559.2132,185.9675,554.2328,183.2851,556.9152,178.3047,549.4435,184.7214" style="stroke: #A80036; stroke-width: 1.0;"/><!--link SR4_3 to PROD_SE_VERIFIED--><path d="M493.3085,212.7047 C473.7488,233.6133 438.9219,270.8421 415.6422,295.7273 " fill="none" id="SR4_3-PROD_SE_VERIFIED" style="stroke: #A80036; stroke-width: 2.0;"/><polygon fill="#A80036" points="412.0092,299.6109,421.0787,295.7711,415.425,295.9595,415.2365,290.3058,412.0092,299.6109" style="stroke: #A80036; stroke-width: 1.0;"/><!--link SR4_3 to PROD_SE_REJECTED--><path d="M522.8181,212.7047 C542.5464,233.6133 577.6736,270.8421 601.154,295.7273 " fill="none" id="SR4_3-PROD_SE_REJECTED" style="stroke: #A80036; stroke-width: 2.0;"/><polygon fill="#A80036" points="604.8183,299.6109,601.5511,290.3197,601.3869,295.9742,595.7324,295.81,604.8183,299.6109" style="stroke: #A80036; stroke-width: 1.0;"/><!--link SYS to DES--><!--link SYS to DEV--><!--
@startuml



skinparam handwritten false
skinparam defaultFontName Futura


actor SYS
actor DES
actor DEV

artifact "Project Plan" as PROD_PP
artifact "SERS (validated)" as PROD_SERS_VALIDATED
artifact "SDD (validated)" as PROD_SDD_VALIDATED
artifact "System Elements (SW+HW)" as PROD_SE_SWHW
artifact "System Elements (verified)" as PROD_SE_VERIFIED
artifact "System Elements (rejected)" as PROD_SE_REJECTED
artifact "IVV Procedures (verified)" as PROD_IVV_PROC_VERIFIED

usecase "Verify System" as SR4_3
PROD_SE_SWHW ==> SR4_3
PROD_PP ==> SR4_3
PROD_SDD_VALIDATED ==> SR4_3
PROD_SERS_VALIDATED ==> SR4_3
PROD_IVV_PROC_VERIFIED ==> SR4_3
SR4_3 ==> PROD_SE_VERIFIED
SR4_3 ==> PROD_SE_REJECTED

@enduml

PlantUML version 1.2019.00(Sun Jan 13 07:46:42 PST 2019)
(GPL source distribution)
Java Runtime: Java(TM) SE Runtime Environment
JVM: Java HotSpot(TM) 64-Bit Server VM
Java Version: 10.0.1+10
Operating System: Mac OS X
OS Version: 10.14.3
Default Encoding: UTF-8
Language: en
Country: US
--></g></svg>