<svg xmlns="http://www.w3.org/2000/svg" height="299" preserveAspectRatio="none" style="width:288px;height:299px" width="288"><defs><filter height="300%" id="a" width="300%" x="-1" y="-1"><feGaussianBlur result="blurOut" stdDeviation="2"/><feColorMatrix in="blurOut" result="blurOut2" values="0 0 0 0 0 0 0 0 0 0 0 0 0 0 0 0 0 0 .4 0"/><feOffset dx="4" dy="4" in="blurOut2" result="blurOut3"/><feBlend in="SourceGraphic" in2="blurOut3"/></filter></defs><circle cx="21" cy="18" fill="#FEFECE" filter="url(#a)" stroke="#a80036" stroke-width="2" r="8"/><path d="M21 26v27M8 34h26M21 53L8 68m13-15l13 15" fill="none" filter="url(#a)" stroke="#a80036" stroke-width="2"/><text font-family="Futura" font-size="14" lengthAdjust="spacingAndGlyphs" textLength="27" x="7.5" y="89.957">DEV</text><path fill="#FEFECE" filter="url(#a)" stroke="#000" stroke-width="1.5" d="M73.5 247h195v41.594h-195z"/><path fill="#FEFECE" stroke="#000" stroke-width="1.5" d="M251.5 252v14h12v-8l-6-6h-6z"/><path stroke="#000" stroke-width="1.5" d="M257.5 252v6M263.5 258h-6"/><text font-family="Futura" font-size="14" lengthAdjust="spacingAndGlyphs" textLength="165" x="83.5" y="274.957">System Elements (verified)</text><path fill="#FEFECE" filter="url(#a)" stroke="#000" stroke-width="1.5" d="M71 30h200v41.594H71z"/><path fill="#FEFECE" stroke="#000" stroke-width="1.5" d="M254 35v14h12v-8l-6-6h-6z"/><path stroke="#000" stroke-width="1.5" d="M260 35v6M266 41h-6"/><text font-family="Futura" font-size="14" lengthAdjust="spacingAndGlyphs" textLength="170" x="81" y="57.957">System Elements (rejected)</text><ellipse cx="171.041" cy="170.508" fill="#FEFECE" filter="url(#a)" rx="70.541" ry="16.508" stroke="#a80036" stroke-width="1.5"/><text font-family="Futura" font-size="14" lengthAdjust="spacingAndGlyphs" textLength="98" x="122.041" y="176.305">Correct Defects</text><path d="M171 72.09v76.76" fill="none" stroke="#a80036" stroke-width="2"/><path fill="#A80036" stroke="#a80036" d="M171 153.855l4-9-4 4-4-4 4 9z"/><path d="M171 187.04v54.677" fill="none" stroke="#a80036" stroke-width="2"/><path fill="#A80036" stroke="#a80036" d="M171 246.949l4-9-4 4-4-4 4 9z"/></svg>