<?xml version="1.0" encoding="UTF-8" standalone="no"?><svg xmlns="http://www.w3.org/2000/svg" xmlns:xlink="http://www.w3.org/1999/xlink" contentScriptType="application/ecmascript" contentStyleType="text/css" height="249px" preserveAspectRatio="none" style="width:354px;height:249px;" version="1.1" viewBox="0 0 354 249" width="354px" zoomAndPan="magnify"><defs><filter height="300%" id="f15i1wcjaqkna1" width="300%" x="-1" y="-1"><feGaussianBlur result="blurOut" stdDeviation="2.0"/><feColorMatrix in="blurOut" result="blurOut2" type="matrix" values="0 0 0 0 0 0 0 0 0 0 0 0 0 0 0 0 0 0 .4 0"/><feOffset dx="4.0" dy="4.0" in="blurOut2" result="blurOut3"/><feBlend in="SourceGraphic" in2="blurOut3" mode="normal"/></filter></defs><g><!--cluster System Operation Guide--><rect fill="#FFFFFF" filter="url(#f15i1wcjaqkna1)" height="88" style="stroke: #000000; stroke-width: 1.5;" width="201" x="136" y="142.5"/><polygon fill="#FFFFFF" points="320,147.5,320,161.5,332,161.5,332,153.5,326,147.5,320,147.5" style="stroke: #000000; stroke-width: 1.5;"/><line style="stroke: #000000; stroke-width: 1.5;" x1="326" x2="326" y1="147.5" y2="153.5"/><line style="stroke: #000000; stroke-width: 1.5;" x1="332" x2="326" y1="153.5" y2="153.5"/><text fill="#000000" font-family="Futura" font-size="14" font-weight="bold" lengthAdjust="spacingAndGlyphs" textLength="185" x="144" y="159.466">System Operation Guide</text><!--entity PROD_SYSOP_GUIDE_PRELIM--><ellipse cx="277" cy="187.5" fill="#FEFECE" filter="url(#f15i1wcjaqkna1)" rx="12" ry="12" style="stroke: #A80036; stroke-width: 2.0;"/><polygon fill="#A80036" points="273,175.5,279,170.5,277,175.5,279,180.5,273,175.5" style="stroke: #A80036; stroke-width: 1.0;"/><text fill="#000000" font-family="Futura" font-size="14" lengthAdjust="spacingAndGlyphs" textLength="70" x="242" y="218.457">preliminary</text><!--entity PROD_SYSOP_GUIDE_VERIFIED--><ellipse cx="184" cy="187.5" fill="#FEFECE" filter="url(#f15i1wcjaqkna1)" rx="12" ry="12" style="stroke: #A80036; stroke-width: 2.0;"/><polygon fill="#A80036" points="180,175.5,186,170.5,184,175.5,186,180.5,180,175.5" style="stroke: #A80036; stroke-width: 1.0;"/><text fill="#000000" font-family="Futura" font-size="14" lengthAdjust="spacingAndGlyphs" textLength="46" x="161" y="218.457">verified</text><!--entity SYS--><ellipse cx="21" cy="18" fill="#FEFECE" filter="url(#f15i1wcjaqkna1)" rx="8" ry="8" style="stroke: #A80036; stroke-width: 2.0;"/><path d="M21,26 L21,53 M8,34 L34,34 M21,53 L8,68 M21,53 L34,68 " fill="none" filter="url(#f15i1wcjaqkna1)" style="stroke: #A80036; stroke-width: 2.0;"/><text fill="#000000" font-family="Futura" font-size="14" lengthAdjust="spacingAndGlyphs" textLength="24" x="9" y="89.957">SYS</text><!--entity ACQ--><ellipse cx="88" cy="18" fill="#FEFECE" filter="url(#f15i1wcjaqkna1)" rx="8" ry="8" style="stroke: #A80036; stroke-width: 2.0;"/><path d="M88,26 L88,53 M75,34 L101,34 M88,53 L75,68 M88,53 L101,68 " fill="none" filter="url(#f15i1wcjaqkna1)" style="stroke: #A80036; stroke-width: 2.0;"/><text fill="#000000" font-family="Futura" font-size="14" lengthAdjust="spacingAndGlyphs" textLength="33" x="71.5" y="89.957">ACQ</text><!--entity STK--><ellipse cx="21" cy="164" fill="#FEFECE" filter="url(#f15i1wcjaqkna1)" rx="8" ry="8" style="stroke: #A80036; stroke-width: 2.0;"/><path d="M21,172 L21,199 M8,180 L34,180 M21,199 L8,214 M21,199 L34,214 " fill="none" filter="url(#f15i1wcjaqkna1)" style="stroke: #A80036; stroke-width: 2.0;"/><text fill="#000000" font-family="Futura" font-size="14" lengthAdjust="spacingAndGlyphs" textLength="24" x="9" y="235.957">STK</text><ellipse cx="230.8126" cy="51.0625" fill="#FEFECE" filter="url(#f15i1wcjaqkna1)" rx="90.8126" ry="20.5625" style="stroke: #A80036; stroke-width: 1.5;"/><text fill="#000000" font-family="Futura" font-size="14" lengthAdjust="spacingAndGlyphs" textLength="149" x="156.3126" y="56.8594">Verify Operation Guide</text><!--link PROD_SYSOP_GUIDE_PRELIM to SR5_7--><path d="M268.914,171.3356 C260.4952,144.6153 247.3896,103.0191 239.0021,76.3981 " fill="none" id="PROD_SYSOP_GUIDE_PRELIM-SR5_7" style="stroke: #A80036; stroke-width: 2.0;"/><polygon fill="#A80036" points="237.4931,71.6086,236.3826,81.3947,238.9957,76.3775,244.0129,78.9905,237.4931,71.6086" style="stroke: #A80036; stroke-width: 1.0;"/><!--link SR5_7 to PROD_SYSOP_GUIDE_VERIFIED--><path d="M224.3657,71.6086 C216.4004,96.3521 202.971,138.0687 193.8075,166.5342 " fill="none" id="SR5_7-PROD_SYSOP_GUIDE_VERIFIED" style="stroke: #A80036; stroke-width: 2.0;"/><polygon fill="#A80036" points="192.2618,171.3356,198.8274,163.9944,193.794,166.5762,191.2123,161.5428,192.2618,171.3356" style="stroke: #A80036; stroke-width: 1.0;"/><!--link SYS to ACQ--><!--link SYS to STK--><!--
@startuml



skinparam handwritten false
skinparam defaultFontName Futura


actor SYS
actor ACQ
actor STK

artifact "System Operation Guide" {
control "preliminary" as PROD_SYSOP_GUIDE_PRELIM
control "verified" as PROD_SYSOP_GUIDE_VERIFIED
}

usecase "Verify Operation Guide" as SR5_7
PROD_SYSOP_GUIDE_PRELIM ==> SR5_7
SR5_7 ==> PROD_SYSOP_GUIDE_VERIFIED

@enduml

PlantUML version 1.2019.00(Sun Jan 13 07:46:42 PST 2019)
(GPL source distribution)
Java Runtime: Java(TM) SE Runtime Environment
JVM: Java HotSpot(TM) 64-Bit Server VM
Java Version: 10.0.1+10
Operating System: Mac OS X
OS Version: 10.14.3
Default Encoding: UTF-8
Language: en
Country: US
--></g></svg>