<?xml version="1.0" encoding="UTF-8" standalone="no"?><svg xmlns="http://www.w3.org/2000/svg" xmlns:xlink="http://www.w3.org/1999/xlink" contentScriptType="application/ecmascript" contentStyleType="text/css" height="316px" preserveAspectRatio="none" style="width:696px;height:316px;" version="1.1" viewBox="0 0 696 316" width="696px" zoomAndPan="magnify"><defs><filter height="300%" id="fmbn5zqx5syse" width="300%" x="-1" y="-1"><feGaussianBlur result="blurOut" stdDeviation="2.0"/><feColorMatrix in="blurOut" result="blurOut2" type="matrix" values="0 0 0 0 0 0 0 0 0 0 0 0 0 0 0 0 0 0 .4 0"/><feOffset dx="4.0" dy="4.0" in="blurOut2" result="blurOut3"/><feBlend in="SourceGraphic" in2="blurOut3" mode="normal"/></filter></defs><g><!--cluster System--><rect fill="#FFFFFF" filter="url(#fmbn5zqx5syse)" height="88" style="stroke: #000000; stroke-width: 1.5;" width="161" x="352" y="217"/><polygon fill="#FFFFFF" points="496,222,496,236,508,236,508,228,502,222,496,222" style="stroke: #000000; stroke-width: 1.5;"/><line style="stroke: #000000; stroke-width: 1.5;" x1="502" x2="502" y1="222" y2="228"/><line style="stroke: #000000; stroke-width: 1.5;" x1="508" x2="502" y1="228" y2="228"/><text fill="#000000" font-family="Futura" font-size="14" font-weight="bold" lengthAdjust="spacingAndGlyphs" textLength="54" x="405.5" y="233.966">System</text><!--entity PROD_SYSTEM_INTEGRATED--><ellipse cx="473" cy="262" fill="#FEFECE" filter="url(#fmbn5zqx5syse)" rx="12" ry="12" style="stroke: #A80036; stroke-width: 2.0;"/><polygon fill="#A80036" points="469,250,475,245,473,250,475,255,469,250" style="stroke: #A80036; stroke-width: 1.0;"/><text fill="#000000" font-family="Futura" font-size="14" lengthAdjust="spacingAndGlyphs" textLength="64" x="441" y="292.957">integrated</text><!--entity PROD_SYSTEM_VERIFIED--><ellipse cx="383" cy="262" fill="#FEFECE" filter="url(#fmbn5zqx5syse)" rx="12" ry="12" style="stroke: #A80036; stroke-width: 2.0;"/><polygon fill="#A80036" points="379,250,385,245,383,250,385,255,379,250" style="stroke: #A80036; stroke-width: 1.0;"/><text fill="#000000" font-family="Futura" font-size="14" lengthAdjust="spacingAndGlyphs" textLength="46" x="360" y="292.957">verified</text><!--entity SYS--><ellipse cx="21" cy="18" fill="#FEFECE" filter="url(#fmbn5zqx5syse)" rx="8" ry="8" style="stroke: #A80036; stroke-width: 2.0;"/><path d="M21,26 L21,53 M8,34 L34,34 M21,53 L8,68 M21,53 L34,68 " fill="none" filter="url(#fmbn5zqx5syse)" style="stroke: #A80036; stroke-width: 2.0;"/><text fill="#000000" font-family="Futura" font-size="14" lengthAdjust="spacingAndGlyphs" textLength="24" x="9" y="89.957">SYS</text><!--entity IVV--><ellipse cx="86" cy="18" fill="#FEFECE" filter="url(#fmbn5zqx5syse)" rx="8" ry="8" style="stroke: #A80036; stroke-width: 2.0;"/><path d="M86,26 L86,53 M73,34 L99,34 M86,53 L73,68 M86,53 L99,68 " fill="none" filter="url(#fmbn5zqx5syse)" style="stroke: #A80036; stroke-width: 2.0;"/><text fill="#000000" font-family="Futura" font-size="14" lengthAdjust="spacingAndGlyphs" textLength="22" x="75" y="89.957">IVV</text><!--entity PROD_IVV_PROCEDURES_VERIFIED--><rect fill="#FEFECE" filter="url(#fmbn5zqx5syse)" height="41.5938" style="stroke: #000000; stroke-width: 1.5;" width="187" x="136.5" y="30"/><polygon fill="#FEFECE" points="306.5,35,306.5,49,318.5,49,318.5,41,312.5,35,306.5,35" style="stroke: #000000; stroke-width: 1.5;"/><line style="stroke: #000000; stroke-width: 1.5;" x1="312.5" x2="312.5" y1="35" y2="41"/><line style="stroke: #000000; stroke-width: 1.5;" x1="318.5" x2="312.5" y1="41" y2="41"/><text fill="#000000" font-family="Futura" font-size="14" lengthAdjust="spacingAndGlyphs" textLength="157" x="146.5" y="57.957">IVV Procedures (verified)</text><!--entity PROD_SYSRS_VALIDATED--><rect fill="#FEFECE" filter="url(#fmbn5zqx5syse)" height="41.5938" style="stroke: #000000; stroke-width: 1.5;" width="139" x="358.5" y="30"/><polygon fill="#FEFECE" points="480.5,35,480.5,49,492.5,49,492.5,41,486.5,35,480.5,35" style="stroke: #000000; stroke-width: 1.5;"/><line style="stroke: #000000; stroke-width: 1.5;" x1="486.5" x2="486.5" y1="35" y2="41"/><line style="stroke: #000000; stroke-width: 1.5;" x1="492.5" x2="486.5" y1="41" y2="41"/><text fill="#000000" font-family="Futura" font-size="14" lengthAdjust="spacingAndGlyphs" textLength="109" x="368.5" y="57.957">SysRS (validated)</text><!--entity META_TRACE_MATRIX--><rect fill="#FEFECE" filter="url(#fmbn5zqx5syse)" height="41.5938" style="stroke: #000000; stroke-width: 1.5;" width="147" x="532.5" y="30"/><polygon fill="#FEFECE" points="662.5,35,662.5,49,674.5,49,674.5,41,668.5,35,662.5,35" style="stroke: #000000; stroke-width: 1.5;"/><line style="stroke: #000000; stroke-width: 1.5;" x1="668.5" x2="668.5" y1="35" y2="41"/><line style="stroke: #000000; stroke-width: 1.5;" x1="674.5" x2="668.5" y1="41" y2="41"/><text fill="#000000" font-family="Futura" font-size="14" lengthAdjust="spacingAndGlyphs" textLength="117" x="542.5" y="57.957">Traceability Matrix</text><ellipse cx="427.8112" cy="170.1478" fill="#FEFECE" filter="url(#fmbn5zqx5syse)" rx="63.8112" ry="16.1478" style="stroke: #A80036; stroke-width: 1.5;"/><text fill="#000000" font-family="Futura" font-size="14" lengthAdjust="spacingAndGlyphs" textLength="86" x="384.8112" y="175.9446">Verify System</text><!--link PROD_SYSTEM_INTEGRATED to SR5_3--><path d="M461.5728,245.7253 C454.0648,228.7907 444.3658,206.9139 437.3245,191.032 " fill="none" id="PROD_SYSTEM_INTEGRATED-SR5_3" style="stroke: #A80036; stroke-width: 2.0;"/><polygon fill="#A80036" points="435.23,186.3077,435.2211,196.1566,437.2566,190.8786,442.5346,192.914,435.23,186.3077" style="stroke: #A80036; stroke-width: 1.0;"/><!--link PROD_SYSRS_VALIDATED to SR5_3--><path d="M428,72.0009 C428,93.5297 428,126.8432 428,148.5383 " fill="none" id="PROD_SYSRS_VALIDATED-SR5_3" style="stroke: #A80036; stroke-width: 2.0;"/><polygon fill="#A80036" points="428,153.7895,432,144.7895,428,148.7895,424,144.7895,428,153.7895" style="stroke: #A80036; stroke-width: 1.0;"/><!--link META_TRACE_MATRIX to SR5_3--><path d="M574.5869,72.0009 C540.583,94.7339 486.9245,130.6066 454.8263,152.0656 " fill="none" id="META_TRACE_MATRIX-SR5_3" style="stroke: #A80036; stroke-width: 2.0;"/><polygon fill="#A80036" points="450.637,154.8663,460.3421,153.1895,454.7936,152.0874,455.8958,146.5389,450.637,154.8663" style="stroke: #A80036; stroke-width: 1.0;"/><!--link PROD_IVV_PROCEDURES_VERIFIED to SR5_3--><path d="M264.9426,72.0009 C302.9798,94.8616 363.1261,131.0101 398.759,152.4259 " fill="none" id="PROD_IVV_PROCEDURES_VERIFIED-SR5_3" style="stroke: #A80036; stroke-width: 2.0;"/><polygon fill="#A80036" points="403.4061,155.2188,397.7527,147.1541,399.1206,152.6431,393.6316,154.011,403.4061,155.2188" style="stroke: #A80036; stroke-width: 1.0;"/><!--link SR5_3 to PROD_SYSTEM_VERIFIED--><path d="M420.77,186.3077 C414.275,200.9574 404.5659,222.8569 396.6181,240.7837 " fill="none" id="SR5_3-PROD_SYSTEM_VERIFIED" style="stroke: #A80036; stroke-width: 2.0;"/><polygon fill="#A80036" points="394.4272,245.7253,401.7316,239.1188,396.4537,241.1544,394.4181,235.8764,394.4272,245.7253" style="stroke: #A80036; stroke-width: 1.0;"/><!--
@startuml



skinparam handwritten false
skinparam defaultFontName Futura


actor SYS
actor IVV

artifact "IVV Procedures (verified)" as PROD_IVV_PROCEDURES_VERIFIED
artifact "SysRS (validated)" as PROD_SYSRS_VALIDATED
artifact "System" {
control "integrated" as PROD_SYSTEM_INTEGRATED
control "verified" as PROD_SYSTEM_VERIFIED
}
artifact "Traceability Matrix" as META_TRACE_MATRIX

usecase "Verify System" as SR5_3
PROD_SYSTEM_INTEGRATED ==> SR5_3
PROD_SYSRS_VALIDATED ==> SR5_3
META_TRACE_MATRIX ==> SR5_3
PROD_IVV_PROCEDURES_VERIFIED ==> SR5_3
SR5_3 ==> PROD_SYSTEM_VERIFIED

@enduml

PlantUML version 1.2019.00(Sun Jan 13 07:46:42 PST 2019)
(GPL source distribution)
Java Runtime: Java(TM) SE Runtime Environment
JVM: Java HotSpot(TM) 64-Bit Server VM
Java Version: 10.0.1+10
Operating System: Mac OS X
OS Version: 10.14.3
Default Encoding: UTF-8
Language: en
Country: US
--></g></svg>