<?xml version="1.0" encoding="UTF-8" standalone="no"?><svg xmlns="http://www.w3.org/2000/svg" xmlns:xlink="http://www.w3.org/1999/xlink" contentScriptType="application/ecmascript" contentStyleType="text/css" height="312px" preserveAspectRatio="none" style="width:356px;height:312px;" version="1.1" viewBox="0 0 356 312" width="356px" zoomAndPan="magnify"><defs><filter height="300%" id="f2tu7eld8gupa" width="300%" x="-1" y="-1"><feGaussianBlur result="blurOut" stdDeviation="2.0"/><feColorMatrix in="blurOut" result="blurOut2" type="matrix" values="0 0 0 0 0 0 0 0 0 0 0 0 0 0 0 0 0 0 .4 0"/><feOffset dx="4.0" dy="4.0" in="blurOut2" result="blurOut3"/><feBlend in="SourceGraphic" in2="blurOut3" mode="normal"/></filter></defs><g><!--entity SYS--><ellipse cx="21" cy="18" fill="#FEFECE" filter="url(#f2tu7eld8gupa)" rx="8" ry="8" style="stroke: #A80036; stroke-width: 2.0;"/><path d="M21,26 L21,53 M8,34 L34,34 M21,53 L8,68 M21,53 L34,68 " fill="none" filter="url(#f2tu7eld8gupa)" style="stroke: #A80036; stroke-width: 2.0;"/><text fill="#000000" font-family="Futura" font-size="14" lengthAdjust="spacingAndGlyphs" textLength="24" x="9" y="89.957">SYS</text><!--entity DES--><ellipse cx="86" cy="18" fill="#FEFECE" filter="url(#f2tu7eld8gupa)" rx="8" ry="8" style="stroke: #A80036; stroke-width: 2.0;"/><path d="M86,26 L86,53 M73,34 L99,34 M86,53 L73,68 M86,53 L99,68 " fill="none" filter="url(#f2tu7eld8gupa)" style="stroke: #A80036; stroke-width: 2.0;"/><text fill="#000000" font-family="Futura" font-size="14" lengthAdjust="spacingAndGlyphs" textLength="26" x="73" y="89.957">DES</text><!--entity PROD_SYSTEM_VERIFIED--><rect fill="#FEFECE" filter="url(#f2tu7eld8gupa)" height="41.5938" style="stroke: #000000; stroke-width: 1.5;" width="135" x="136.5" y="30"/><polygon fill="#FEFECE" points="254.5,35,254.5,49,266.5,49,266.5,41,260.5,35,254.5,35" style="stroke: #000000; stroke-width: 1.5;"/><line style="stroke: #000000; stroke-width: 1.5;" x1="260.5" x2="260.5" y1="35" y2="41"/><line style="stroke: #000000; stroke-width: 1.5;" x1="266.5" x2="260.5" y1="41" y2="41"/><text fill="#000000" font-family="Futura" font-size="14" lengthAdjust="spacingAndGlyphs" textLength="105" x="146.5" y="57.957">System (verified)</text><!--entity PROD_SYSOP_GUIDE_PRELIM--><rect fill="#FEFECE" filter="url(#f2tu7eld8gupa)" height="41.5938" style="stroke: #000000; stroke-width: 1.5;" width="271" x="68.5" y="260"/><polygon fill="#FEFECE" points="322.5,265,322.5,279,334.5,279,334.5,271,328.5,265,322.5,265" style="stroke: #000000; stroke-width: 1.5;"/><line style="stroke: #000000; stroke-width: 1.5;" x1="328.5" x2="328.5" y1="265" y2="271"/><line style="stroke: #000000; stroke-width: 1.5;" x1="334.5" x2="328.5" y1="271" y2="271"/><text fill="#000000" font-family="Futura" font-size="14" lengthAdjust="spacingAndGlyphs" textLength="241" x="78.5" y="287.957">System Operation Guide (preliminary)</text><ellipse cx="204.0228" cy="176.9046" fill="#FEFECE" filter="url(#f2tu7eld8gupa)" rx="102.5228" ry="22.9046" style="stroke: #A80036; stroke-width: 1.5;"/><text fill="#000000" font-family="Futura" font-size="14" lengthAdjust="spacingAndGlyphs" textLength="176" x="116.0228" y="182.7014">Document Operation Guide</text><!--link PROD_SYSTEM_VERIFIED to SR5_6--><path d="M204,72.0896 C204,93.0617 204,125.3741 204,148.5963 " fill="none" id="PROD_SYSTEM_VERIFIED-SR5_6" style="stroke: #A80036; stroke-width: 2.0;"/><polygon fill="#A80036" points="204,153.7003,208,144.7003,204,148.7003,200,144.7003,204,153.7003" style="stroke: #A80036; stroke-width: 1.0;"/><!--link SR5_6 to PROD_SYSOP_GUIDE_PRELIM--><path d="M204,200.081 C204,216.2421 204,237.8677 204,254.6967 " fill="none" id="SR5_6-PROD_SYSOP_GUIDE_PRELIM" style="stroke: #A80036; stroke-width: 2.0;"/><polygon fill="#A80036" points="204,259.7541,208,250.7541,204,254.7541,200,250.7541,204,259.7541" style="stroke: #A80036; stroke-width: 1.0;"/><!--
@startuml



skinparam handwritten false
skinparam defaultFontName Futura


actor SYS
actor DES

artifact "System (verified)" as PROD_SYSTEM_VERIFIED
artifact "System Operation Guide (preliminary)" as PROD_SYSOP_GUIDE_PRELIM

usecase "Document Operation Guide" as SR5_6
PROD_SYSTEM_VERIFIED ==> SR5_6
SR5_6 ==> PROD_SYSOP_GUIDE_PRELIM

@enduml

PlantUML version 1.2019.00(Sun Jan 13 07:46:42 PST 2019)
(GPL source distribution)
Java Runtime: Java(TM) SE Runtime Environment
JVM: Java HotSpot(TM) 64-Bit Server VM
Java Version: 10.0.1+10
Operating System: Mac OS X
OS Version: 10.14.3
Default Encoding: UTF-8
Language: en
Country: US
--></g></svg>