<?xml version="1.0" encoding="UTF-8" standalone="no"?><svg xmlns="http://www.w3.org/2000/svg" xmlns:xlink="http://www.w3.org/1999/xlink" contentScriptType="application/ecmascript" contentStyleType="text/css" height="642px" preserveAspectRatio="none" style="width:1636px;height:642px;" version="1.1" viewBox="0 0 1636 642" width="1636px" zoomAndPan="magnify"><defs><filter height="300%" id="fbxukhbixpm9x" width="300%" x="-1" y="-1"><feGaussianBlur result="blurOut" stdDeviation="2.0"/><feColorMatrix in="blurOut" result="blurOut2" type="matrix" values="0 0 0 0 0 0 0 0 0 0 0 0 0 0 0 0 0 0 .4 0"/><feOffset dx="4.0" dy="4.0" in="blurOut2" result="blurOut3"/><feBlend in="SourceGraphic" in2="blurOut3" mode="normal"/></filter></defs><g><!--cluster IVV Plan--><rect fill="#FFFFFF" filter="url(#fbxukhbixpm9x)" height="88" style="stroke: #000000; stroke-width: 1.5;" width="135" x="341" y="308.5"/><polygon fill="#FFFFFF" points="459,313.5,459,327.5,471,327.5,471,319.5,465,313.5,459,313.5" style="stroke: #000000; stroke-width: 1.5;"/><line style="stroke: #000000; stroke-width: 1.5;" x1="465" x2="465" y1="313.5" y2="319.5"/><line style="stroke: #000000; stroke-width: 1.5;" x1="471" x2="465" y1="319.5" y2="319.5"/><text fill="#000000" font-family="Futura" font-size="14" font-weight="bold" lengthAdjust="spacingAndGlyphs" textLength="64" x="376.5" y="325.466">IVV Plan</text><!--cluster IVV Procedures--><rect fill="#FFFFFF" filter="url(#fbxukhbixpm9x)" height="88" style="stroke: #000000; stroke-width: 1.5;" width="135" x="670" y="16.5"/><polygon fill="#FFFFFF" points="788,21.5,788,35.5,800,35.5,800,27.5,794,21.5,788,21.5" style="stroke: #000000; stroke-width: 1.5;"/><line style="stroke: #000000; stroke-width: 1.5;" x1="794" x2="794" y1="21.5" y2="27.5"/><line style="stroke: #000000; stroke-width: 1.5;" x1="800" x2="794" y1="27.5" y2="27.5"/><text fill="#000000" font-family="Futura" font-size="14" font-weight="bold" lengthAdjust="spacingAndGlyphs" textLength="116" x="679.5" y="33.466">IVV Procedures</text><!--cluster System--><rect fill="#FFFFFF" filter="url(#fbxukhbixpm9x)" height="88" style="stroke: #000000; stroke-width: 1.5;" width="349" x="581" y="308.5"/><polygon fill="#FFFFFF" points="913,313.5,913,327.5,925,327.5,925,319.5,919,313.5,913,313.5" style="stroke: #000000; stroke-width: 1.5;"/><line style="stroke: #000000; stroke-width: 1.5;" x1="919" x2="919" y1="313.5" y2="319.5"/><line style="stroke: #000000; stroke-width: 1.5;" x1="925" x2="919" y1="319.5" y2="319.5"/><text fill="#000000" font-family="Futura" font-size="14" font-weight="bold" lengthAdjust="spacingAndGlyphs" textLength="54" x="728.5" y="325.466">System</text><!--cluster System Operation Guide--><rect fill="#FFFFFF" filter="url(#fbxukhbixpm9x)" height="88" style="stroke: #000000; stroke-width: 1.5;" width="201" x="778" y="543"/><polygon fill="#FFFFFF" points="962,548,962,562,974,562,974,554,968,548,962,548" style="stroke: #000000; stroke-width: 1.5;"/><line style="stroke: #000000; stroke-width: 1.5;" x1="968" x2="968" y1="548" y2="554"/><line style="stroke: #000000; stroke-width: 1.5;" x1="974" x2="968" y1="554" y2="554"/><text fill="#000000" font-family="Futura" font-size="14" font-weight="bold" lengthAdjust="spacingAndGlyphs" textLength="185" x="786" y="559.966">System Operation Guide</text><!--entity PROD_IVV_PLAN--><ellipse cx="449" cy="353.5" fill="#FEFECE" filter="url(#fbxukhbixpm9x)" rx="12" ry="12" style="stroke: #A80036; stroke-width: 2.0;"/><polygon fill="#A80036" points="445,341.5,451,336.5,449,341.5,451,346.5,445,341.5" style="stroke: #A80036; stroke-width: 1.0;"/><text fill="#000000" font-family="Futura" font-size="14" lengthAdjust="spacingAndGlyphs" textLength="37" x="430.5" y="384.457">active</text><!--entity PROD_IVV_PLAN_VERIFIED--><ellipse cx="372" cy="353.5" fill="#FEFECE" filter="url(#fbxukhbixpm9x)" rx="12" ry="12" style="stroke: #A80036; stroke-width: 2.0;"/><polygon fill="#A80036" points="368,341.5,374,336.5,372,341.5,374,346.5,368,341.5" style="stroke: #A80036; stroke-width: 1.0;"/><text fill="#000000" font-family="Futura" font-size="14" lengthAdjust="spacingAndGlyphs" textLength="46" x="349" y="384.457">verified</text><!--entity PROD_IVV_PROCEDURES--><ellipse cx="697" cy="61.5" fill="#FEFECE" filter="url(#fbxukhbixpm9x)" rx="12" ry="12" style="stroke: #A80036; stroke-width: 2.0;"/><polygon fill="#A80036" points="693,49.5,699,44.5,697,49.5,699,54.5,693,49.5" style="stroke: #A80036; stroke-width: 1.0;"/><text fill="#000000" font-family="Futura" font-size="14" lengthAdjust="spacingAndGlyphs" textLength="37" x="678.5" y="92.457">active</text><!--entity PROD_IVV_PROCEDURES_VERIFIED--><ellipse cx="774" cy="61.5" fill="#FEFECE" filter="url(#fbxukhbixpm9x)" rx="12" ry="12" style="stroke: #A80036; stroke-width: 2.0;"/><polygon fill="#A80036" points="770,49.5,776,44.5,774,49.5,776,54.5,770,49.5" style="stroke: #A80036; stroke-width: 1.0;"/><text fill="#000000" font-family="Futura" font-size="14" lengthAdjust="spacingAndGlyphs" textLength="46" x="751" y="92.457">verified</text><!--entity PROD_SYSTEM_INTEGRATED--><ellipse cx="621" cy="353.5" fill="#FEFECE" filter="url(#fbxukhbixpm9x)" rx="12" ry="12" style="stroke: #A80036; stroke-width: 2.0;"/><polygon fill="#A80036" points="617,341.5,623,336.5,621,341.5,623,346.5,617,341.5" style="stroke: #A80036; stroke-width: 1.0;"/><text fill="#000000" font-family="Futura" font-size="14" lengthAdjust="spacingAndGlyphs" textLength="64" x="589" y="384.457">integrated</text><!--entity PROD_SYSTEM_VERIFIED--><ellipse cx="711" cy="353.5" fill="#FEFECE" filter="url(#fbxukhbixpm9x)" rx="12" ry="12" style="stroke: #A80036; stroke-width: 2.0;"/><polygon fill="#A80036" points="707,341.5,713,336.5,711,341.5,713,346.5,707,341.5" style="stroke: #A80036; stroke-width: 1.0;"/><text fill="#000000" font-family="Futura" font-size="14" lengthAdjust="spacingAndGlyphs" textLength="46" x="688" y="384.457">verified</text><!--entity PROD_SYSTEM_VALIDATED--><ellipse cx="893" cy="353.5" fill="#FEFECE" filter="url(#fbxukhbixpm9x)" rx="12" ry="12" style="stroke: #A80036; stroke-width: 2.0;"/><polygon fill="#A80036" points="889,341.5,895,336.5,893,341.5,895,346.5,889,341.5" style="stroke: #A80036; stroke-width: 1.0;"/><text fill="#000000" font-family="Futura" font-size="14" lengthAdjust="spacingAndGlyphs" textLength="57" x="864.5" y="384.457">validated</text><!--entity PROD_SYSTEM_CORRECTED--><ellipse cx="799" cy="353.5" fill="#FEFECE" filter="url(#fbxukhbixpm9x)" rx="12" ry="12" style="stroke: #A80036; stroke-width: 2.0;"/><polygon fill="#A80036" points="795,341.5,801,336.5,799,341.5,801,346.5,795,341.5" style="stroke: #A80036; stroke-width: 1.0;"/><text fill="#000000" font-family="Futura" font-size="14" lengthAdjust="spacingAndGlyphs" textLength="60" x="769" y="384.457">corrected</text><!--entity PROD_SYSOP_GUIDE_PRELIM--><ellipse cx="838" cy="588" fill="#FEFECE" filter="url(#fbxukhbixpm9x)" rx="12" ry="12" style="stroke: #A80036; stroke-width: 2.0;"/><polygon fill="#A80036" points="834,576,840,571,838,576,840,581,834,576" style="stroke: #A80036; stroke-width: 1.0;"/><text fill="#000000" font-family="Futura" font-size="14" lengthAdjust="spacingAndGlyphs" textLength="70" x="803" y="618.957">preliminary</text><!--entity PROD_SYSOP_GUIDE_VERIFIED--><ellipse cx="940" cy="588" fill="#FEFECE" filter="url(#fbxukhbixpm9x)" rx="12" ry="12" style="stroke: #A80036; stroke-width: 2.0;"/><polygon fill="#A80036" points="936,576,942,571,940,576,942,581,936,576" style="stroke: #A80036; stroke-width: 1.0;"/><text fill="#000000" font-family="Futura" font-size="14" lengthAdjust="spacingAndGlyphs" textLength="46" x="917" y="618.957">verified</text><!--entity SYS--><ellipse cx="21" cy="38" fill="#FEFECE" filter="url(#fbxukhbixpm9x)" rx="8" ry="8" style="stroke: #A80036; stroke-width: 2.0;"/><path d="M21,46 L21,73 M8,54 L34,54 M21,73 L8,88 M21,73 L34,88 " fill="none" filter="url(#fbxukhbixpm9x)" style="stroke: #A80036; stroke-width: 2.0;"/><text fill="#000000" font-family="Futura" font-size="14" lengthAdjust="spacingAndGlyphs" textLength="24" x="9" y="109.957">SYS</text><!--entity DES--><ellipse cx="86" cy="38" fill="#FEFECE" filter="url(#fbxukhbixpm9x)" rx="8" ry="8" style="stroke: #A80036; stroke-width: 2.0;"/><path d="M86,46 L86,73 M73,54 L99,54 M86,73 L73,88 M86,73 L99,88 " fill="none" filter="url(#fbxukhbixpm9x)" style="stroke: #A80036; stroke-width: 2.0;"/><text fill="#000000" font-family="Futura" font-size="14" lengthAdjust="spacingAndGlyphs" textLength="26" x="73" y="109.957">DES</text><!--entity DEV--><ellipse cx="151" cy="38" fill="#FEFECE" filter="url(#fbxukhbixpm9x)" rx="8" ry="8" style="stroke: #A80036; stroke-width: 2.0;"/><path d="M151,46 L151,73 M138,54 L164,54 M151,73 L138,88 M151,73 L164,88 " fill="none" filter="url(#fbxukhbixpm9x)" style="stroke: #A80036; stroke-width: 2.0;"/><text fill="#000000" font-family="Futura" font-size="14" lengthAdjust="spacingAndGlyphs" textLength="27" x="137.5" y="109.957">DEV</text><!--entity IVV--><ellipse cx="21" cy="184" fill="#FEFECE" filter="url(#fbxukhbixpm9x)" rx="8" ry="8" style="stroke: #A80036; stroke-width: 2.0;"/><path d="M21,192 L21,219 M8,200 L34,200 M21,219 L8,234 M21,219 L34,234 " fill="none" filter="url(#fbxukhbixpm9x)" style="stroke: #A80036; stroke-width: 2.0;"/><text fill="#000000" font-family="Futura" font-size="14" lengthAdjust="spacingAndGlyphs" textLength="22" x="10" y="255.957">IVV</text><!--entity ACQ--><ellipse cx="88" cy="184" fill="#FEFECE" filter="url(#fbxukhbixpm9x)" rx="8" ry="8" style="stroke: #A80036; stroke-width: 2.0;"/><path d="M88,192 L88,219 M75,200 L101,200 M88,219 L75,234 M88,219 L101,234 " fill="none" filter="url(#fbxukhbixpm9x)" style="stroke: #A80036; stroke-width: 2.0;"/><text fill="#000000" font-family="Futura" font-size="14" lengthAdjust="spacingAndGlyphs" textLength="33" x="71.5" y="255.957">ACQ</text><!--entity WT--><ellipse cx="155" cy="184" fill="#FEFECE" filter="url(#fbxukhbixpm9x)" rx="8" ry="8" style="stroke: #A80036; stroke-width: 2.0;"/><path d="M155,192 L155,219 M142,200 L168,200 M155,219 L142,234 M155,219 L168,234 " fill="none" filter="url(#fbxukhbixpm9x)" style="stroke: #A80036; stroke-width: 2.0;"/><text fill="#000000" font-family="Futura" font-size="14" lengthAdjust="spacingAndGlyphs" textLength="22" x="144" y="255.957">WT</text><!--entity STK--><ellipse cx="21" cy="330" fill="#FEFECE" filter="url(#fbxukhbixpm9x)" rx="8" ry="8" style="stroke: #A80036; stroke-width: 2.0;"/><path d="M21,338 L21,365 M8,346 L34,346 M21,365 L8,380 M21,365 L34,380 " fill="none" filter="url(#fbxukhbixpm9x)" style="stroke: #A80036; stroke-width: 2.0;"/><text fill="#000000" font-family="Futura" font-size="14" lengthAdjust="spacingAndGlyphs" textLength="24" x="9" y="401.957">STK</text><!--entity PROD_PP--><rect fill="#FEFECE" filter="url(#fbxukhbixpm9x)" height="41.5938" style="stroke: #000000; stroke-width: 1.5;" width="104" x="201" y="50"/><polygon fill="#FEFECE" points="288,55,288,69,300,69,300,61,294,55,288,55" style="stroke: #000000; stroke-width: 1.5;"/><line style="stroke: #000000; stroke-width: 1.5;" x1="294" x2="294" y1="55" y2="61"/><line style="stroke: #000000; stroke-width: 1.5;" x1="300" x2="294" y1="61" y2="61"/><text fill="#000000" font-family="Futura" font-size="14" lengthAdjust="spacingAndGlyphs" textLength="74" x="211" y="77.957">Project Plan</text><!--entity PROD_SYSRS_VALIDATED--><rect fill="#FEFECE" filter="url(#fbxukhbixpm9x)" height="41.5938" style="stroke: #000000; stroke-width: 1.5;" width="139" x="340.5" y="50"/><polygon fill="#FEFECE" points="462.5,55,462.5,69,474.5,69,474.5,61,468.5,55,462.5,55" style="stroke: #000000; stroke-width: 1.5;"/><line style="stroke: #000000; stroke-width: 1.5;" x1="468.5" x2="468.5" y1="55" y2="61"/><line style="stroke: #000000; stroke-width: 1.5;" x1="474.5" x2="468.5" y1="61" y2="61"/><text fill="#000000" font-family="Futura" font-size="14" lengthAdjust="spacingAndGlyphs" textLength="109" x="350.5" y="77.957">SysRS (validated)</text><!--entity PROD_SDD_VALIDATED--><rect fill="#FEFECE" filter="url(#fbxukhbixpm9x)" height="41.5938" style="stroke: #000000; stroke-width: 1.5;" width="129" x="514.5" y="50"/><polygon fill="#FEFECE" points="626.5,55,626.5,69,638.5,69,638.5,61,632.5,55,626.5,55" style="stroke: #000000; stroke-width: 1.5;"/><line style="stroke: #000000; stroke-width: 1.5;" x1="632.5" x2="632.5" y1="55" y2="61"/><line style="stroke: #000000; stroke-width: 1.5;" x1="638.5" x2="632.5" y1="61" y2="61"/><text fill="#000000" font-family="Futura" font-size="14" lengthAdjust="spacingAndGlyphs" textLength="99" x="524.5" y="77.957">SDD (validated)</text><!--entity PROD_SERS_VALIDATED--><rect fill="#FEFECE" filter="url(#fbxukhbixpm9x)" height="41.5938" style="stroke: #000000; stroke-width: 1.5;" width="133" x="832.5" y="50"/><polygon fill="#FEFECE" points="948.5,55,948.5,69,960.5,69,960.5,61,954.5,55,948.5,55" style="stroke: #000000; stroke-width: 1.5;"/><line style="stroke: #000000; stroke-width: 1.5;" x1="954.5" x2="954.5" y1="55" y2="61"/><line style="stroke: #000000; stroke-width: 1.5;" x1="960.5" x2="954.5" y1="61" y2="61"/><text fill="#000000" font-family="Futura" font-size="14" lengthAdjust="spacingAndGlyphs" textLength="103" x="842.5" y="77.957">SERS (validated)</text><!--entity PROD_STRS_VALIDATED--><rect fill="#FEFECE" filter="url(#fbxukhbixpm9x)" height="41.5938" style="stroke: #000000; stroke-width: 1.5;" width="129" x="1490.5" y="50"/><polygon fill="#FEFECE" points="1602.5,55,1602.5,69,1614.5,69,1614.5,61,1608.5,55,1602.5,55" style="stroke: #000000; stroke-width: 1.5;"/><line style="stroke: #000000; stroke-width: 1.5;" x1="1608.5" x2="1608.5" y1="55" y2="61"/><line style="stroke: #000000; stroke-width: 1.5;" x1="1614.5" x2="1608.5" y1="61" y2="61"/><text fill="#000000" font-family="Futura" font-size="14" lengthAdjust="spacingAndGlyphs" textLength="99" x="1500.5" y="77.957">StRS (validated)</text><!--entity PROD_SE_SWHW_ACCEPTED--><rect fill="#FEFECE" filter="url(#fbxukhbixpm9x)" height="41.5938" style="stroke: #000000; stroke-width: 1.5;" width="272" x="1183" y="50"/><polygon fill="#FEFECE" points="1438,55,1438,69,1450,69,1450,61,1444,55,1438,55" style="stroke: #000000; stroke-width: 1.5;"/><line style="stroke: #000000; stroke-width: 1.5;" x1="1444" x2="1444" y1="55" y2="61"/><line style="stroke: #000000; stroke-width: 1.5;" x1="1450" x2="1444" y1="61" y2="61"/><text fill="#000000" font-family="Futura" font-size="14" lengthAdjust="spacingAndGlyphs" textLength="242" x="1193" y="77.957">System Elements (SW+HW, accepted)</text><!--entity META_TRACE_MATRIX--><rect fill="#FEFECE" filter="url(#fbxukhbixpm9x)" height="41.5938" style="stroke: #000000; stroke-width: 1.5;" width="147" x="1000.5" y="50"/><polygon fill="#FEFECE" points="1130.5,55,1130.5,69,1142.5,69,1142.5,61,1136.5,55,1130.5,55" style="stroke: #000000; stroke-width: 1.5;"/><line style="stroke: #000000; stroke-width: 1.5;" x1="1136.5" x2="1136.5" y1="55" y2="61"/><line style="stroke: #000000; stroke-width: 1.5;" x1="1142.5" x2="1136.5" y1="61" y2="61"/><text fill="#000000" font-family="Futura" font-size="14" lengthAdjust="spacingAndGlyphs" textLength="117" x="1010.5" y="77.957">Traceability Matrix</text><!--entity META_ACCEPTANCE_APPROVED--><rect fill="#FEFECE" filter="url(#fbxukhbixpm9x)" height="41.5938" style="stroke: #000000; stroke-width: 1.5;" width="279" x="1010.5" y="342"/><polygon fill="#FEFECE" points="1272.5,347,1272.5,361,1284.5,361,1284.5,353,1278.5,347,1272.5,347" style="stroke: #000000; stroke-width: 1.5;"/><line style="stroke: #000000; stroke-width: 1.5;" x1="1278.5" x2="1278.5" y1="347" y2="353"/><line style="stroke: #000000; stroke-width: 1.5;" x1="1284.5" x2="1278.5" y1="353" y2="353"/><text fill="#000000" font-family="Futura" font-size="14" lengthAdjust="spacingAndGlyphs" textLength="249" x="1020.5" y="369.957">Product Acceptance Record (approved)</text><ellipse cx="409.9176" cy="216.7835" fill="#FEFECE" filter="url(#fbxukhbixpm9x)" rx="111.9176" ry="24.7835" style="stroke: #A80036; stroke-width: 1.5;"/><text fill="#000000" font-family="Futura" font-size="14" lengthAdjust="spacingAndGlyphs" textLength="197" x="311.4176" y="222.5804">Verify IVV plan and procedures</text><ellipse cx="969.9968" cy="217.0994" fill="#FEFECE" filter="url(#fbxukhbixpm9x)" rx="73.4968" ry="17.0994" style="stroke: #A80036; stroke-width: 1.5;"/><text fill="#000000" font-family="Futura" font-size="14" lengthAdjust="spacingAndGlyphs" textLength="106" x="916.9968" y="222.8962">Integrate System</text><ellipse cx="620.8112" cy="217.1478" fill="#FEFECE" filter="url(#fbxukhbixpm9x)" rx="63.8112" ry="16.1478" style="stroke: #A80036; stroke-width: 1.5;"/><text fill="#000000" font-family="Futura" font-size="14" lengthAdjust="spacingAndGlyphs" textLength="86" x="577.8112" y="222.9446">Verify System</text><ellipse cx="1149.77" cy="217.154" fill="#FEFECE" filter="url(#fbxukhbixpm9x)" rx="71.27" ry="16.654" style="stroke: #A80036; stroke-width: 1.5;"/><text fill="#000000" font-family="Futura" font-size="14" lengthAdjust="spacingAndGlyphs" textLength="100" x="1099.77" y="222.9509">Validate System</text><ellipse cx="791.0411" cy="217.0082" fill="#FEFECE" filter="url(#fbxukhbixpm9x)" rx="70.5411" ry="16.5082" style="stroke: #A80036; stroke-width: 1.5;"/><text fill="#000000" font-family="Futura" font-size="14" lengthAdjust="spacingAndGlyphs" textLength="98" x="742.0411" y="222.8051">Correct Defects</text><ellipse cx="711.0228" cy="488.9046" fill="#FEFECE" filter="url(#fbxukhbixpm9x)" rx="102.5228" ry="22.9046" style="stroke: #A80036; stroke-width: 1.5;"/><text fill="#000000" font-family="Futura" font-size="14" lengthAdjust="spacingAndGlyphs" textLength="176" x="623.0228" y="494.7014">Document Operation Guide</text><ellipse cx="939.8126" cy="489.0625" fill="#FEFECE" filter="url(#fbxukhbixpm9x)" rx="90.8126" ry="20.5625" style="stroke: #A80036; stroke-width: 1.5;"/><text fill="#000000" font-family="Futura" font-size="14" lengthAdjust="spacingAndGlyphs" textLength="149" x="865.3126" y="494.8594">Verify Operation Guide</text><!--link PROD_PP to SR5_1--><path d="M275.8291,92.2297 C303.2582,117.7369 349.37,160.618 379.7434,188.8633 " fill="none" id="PROD_PP-SR5_1" style="stroke: #A80036; stroke-width: 2.0;"/><polygon fill="#A80036" points="383.7362,192.5764,379.8696,183.5183,380.0748,189.1714,374.4216,189.3765,383.7362,192.5764" style="stroke: #A80036; stroke-width: 1.0;"/><!--link PROD_IVV_PLAN to SR5_1--><path d="M442.1212,337.2486 C435.4037,312.1009 425.1826,273.8373 418.0811,247.2522 " fill="none" id="PROD_IVV_PLAN-SR5_1" style="stroke: #A80036; stroke-width: 2.0;"/><polygon fill="#A80036" points="416.7043,242.0983,415.1626,251.8257,417.9947,246.9289,422.8916,249.761,416.7043,242.0983" style="stroke: #A80036; stroke-width: 1.0;"/><!--link PROD_IVV_PROCEDURES to SR5_1--><path d="M679.0233,96.61 C673.7456,102.8817 667.6007,109.1713 661,114 C630.433,136.3613 539.2255,171.2725 475.6237,194.143 " fill="none" id="PROD_IVV_PROCEDURES-SR5_1" style="stroke: #A80036; stroke-width: 2.0;"/><polygon fill="#A80036" points="470.7106,195.9056,480.5327,196.6316,475.4169,194.2172,477.8312,189.1015,470.7106,195.9056" style="stroke: #A80036; stroke-width: 1.0;"/><!--link PROD_SYSRS_VALIDATED to SR5_1--><path d="M410,92.2297 C410,117.0971 410,158.4777 410,186.7107 " fill="none" id="PROD_SYSRS_VALIDATED-SR5_1" style="stroke: #A80036; stroke-width: 2.0;"/><polygon fill="#A80036" points="410,191.8225,414,182.8225,410,186.8225,406,182.8225,410,191.8225" style="stroke: #A80036; stroke-width: 1.0;"/><!--link PROD_SDD_VALIDATED to SR5_1--><path d="M554.4259,92.2297 C524.7799,117.841 474.8586,160.9683 442.1697,189.2084 " fill="none" id="PROD_SDD_VALIDATED-SR5_1" style="stroke: #A80036; stroke-width: 2.0;"/><polygon fill="#A80036" points="438.2712,192.5764,447.6966,189.7196,442.0548,189.3077,442.4667,183.6658,438.2712,192.5764" style="stroke: #A80036; stroke-width: 1.0;"/><!--link SR5_1 to PROD_IVV_PLAN_VERIFIED--><path d="M403.4676,242.0983 C396.9551,267.1198 386.9438,305.5842 379.9681,332.3858 " fill="none" id="SR5_1-PROD_IVV_PLAN_VERIFIED" style="stroke: #A80036; stroke-width: 2.0;"/><polygon fill="#A80036" points="378.7024,337.2486,384.8404,329.5463,379.9618,332.4098,377.0983,327.5313,378.7024,337.2486" style="stroke: #A80036; stroke-width: 1.0;"/><!--link SR5_1 to PROD_IVV_PROCEDURES_VERIFIED--><path d="M472.4122,196.1029 C493.8142,189.0043 517.9301,181.08 540,174 C625.5339,146.5611 656.6703,161.3572 733,114 C739.1245,110.2002 744.9602,105.2711 750.2085,100.1123 " fill="none" id="SR5_1-PROD_IVV_PROCEDURES_VERIFIED" style="stroke: #A80036; stroke-width: 2.0;"/><polygon fill="#A80036" points="753.7444,96.5152,744.5826,100.1293,750.2393,100.0809,750.2877,105.7375,753.7444,96.5152" style="stroke: #A80036; stroke-width: 1.0;"/><!--link PROD_SDD_VALIDATED to SR5_2--><path d="M615.829,92.1767 C629.9639,99.7417 646.4392,107.895 662,114 C755.1506,150.546 785.1968,139.1633 879,174 C898.1651,181.1176 918.82,190.711 935.5997,199.0304 " fill="none" id="PROD_SDD_VALIDATED-SR5_2" style="stroke: #A80036; stroke-width: 2.0;"/><polygon fill="#A80036" points="940.2252,201.34,933.9602,193.7406,935.7519,199.1063,930.3863,200.8979,940.2252,201.34" style="stroke: #A80036; stroke-width: 1.0;"/><!--link PROD_SERS_VALIDATED to SR5_2--><path d="M909.324,92.2297 C922.7034,119.7422 945.9124,167.4677 959.4171,195.2381 " fill="none" id="PROD_SERS_VALIDATED-SR5_2" style="stroke: #A80036; stroke-width: 2.0;"/><polygon fill="#A80036" points="961.6597,199.8496,961.3209,190.0066,959.473,195.3531,954.1265,193.5053,961.6597,199.8496" style="stroke: #A80036; stroke-width: 1.0;"/><!--link META_TRACE_MATRIX to SR5_2--><path d="M1058.8775,92.2297 C1039.1986,119.8559 1005.0021,167.8625 985.2572,195.5813 " fill="none" id="META_TRACE_MATRIX-SR5_2" style="stroke: #A80036; stroke-width: 2.0;"/><polygon fill="#A80036" points="982.2167,199.8496,990.6964,194.8401,985.1177,195.7772,984.1805,190.1985,982.2167,199.8496" style="stroke: #A80036; stroke-width: 1.0;"/><!--link PROD_SE_SWHW_ACCEPTED to SR5_2--><path d="M1263.4832,92.0257 C1210.9568,112.1865 1130.0935,143.9178 1061,174 C1042.6948,181.9698 1022.6022,191.3911 1005.9642,199.3806 " fill="none" id="PROD_SE_SWHW_ACCEPTED-SR5_2" style="stroke: #A80036; stroke-width: 2.0;"/><polygon fill="#A80036" points="1001.3673,201.5937,1011.2116,201.2935,1005.8723,199.4247,1007.7412,194.0854,1001.3673,201.5937" style="stroke: #A80036; stroke-width: 1.0;"/><!--link PROD_IVV_PROCEDURES_VERIFIED to SR5_2--><path d="M796.5252,96.5081 C802.3023,102.5098 808.6772,108.6975 815,114 C854.6407,147.244 905.3334,179.1978 937.7433,198.4692 " fill="none" id="PROD_IVV_PROCEDURES_VERIFIED-SR5_2" style="stroke: #A80036; stroke-width: 2.0;"/><polygon fill="#A80036" points="942.389,201.2191,936.6816,193.1926,938.0863,198.6722,932.6066,200.0769,942.389,201.2191" style="stroke: #A80036; stroke-width: 1.0;"/><!--link SR5_2 to PROD_SYSTEM_INTEGRATED--><path d="M940.7492,232.7725 C923.2266,241.7231 900.286,252.5838 879,260 C789.3605,291.231 752.9609,260.6145 671,308.5 C660.2318,314.7913 650.4374,324.1536 642.4279,333.351 " fill="none" id="SR5_2-PROD_SYSTEM_INTEGRATED" style="stroke: #A80036; stroke-width: 2.0;"/><polygon fill="#A80036" points="639.1068,337.2732,647.9753,332.9895,642.3378,333.4574,641.8699,327.8199,639.1068,337.2732" style="stroke: #A80036; stroke-width: 1.0;"/><!--link PROD_SYSTEM_INTEGRATED to SR5_3--><path d="M621,337.4383 C621,309.2674 621,264.4719 621,238.183 " fill="none" id="PROD_SYSTEM_INTEGRATED-SR5_3" style="stroke: #A80036; stroke-width: 2.0;"/><polygon fill="#A80036" points="621,233.1824,617,242.1824,621,238.1824,625,242.1824,621,233.1824" style="stroke: #A80036; stroke-width: 1.0;"/><!--link PROD_SYSRS_VALIDATED to SR5_3--><path d="M440.6812,92.2297 C482.2565,120.9974 555.77,171.8645 594.857,198.9105 " fill="none" id="PROD_SYSRS_VALIDATED-SR5_3" style="stroke: #A80036; stroke-width: 2.0;"/><polygon fill="#A80036" points="598.9894,201.7699,593.8643,193.3596,594.8777,198.9249,589.3124,199.9383,598.9894,201.7699" style="stroke: #A80036; stroke-width: 1.0;"/><!--link META_TRACE_MATRIX to SR5_3--><path d="M1034.508,92.0949 C1018.811,99.8292 1000.3794,108.1196 983,114 C862.4443,154.7904 822.6826,130.7147 703,174 C684.6429,180.6392 665.2499,190.6555 649.9346,199.351 " fill="none" id="META_TRACE_MATRIX-SR5_3" style="stroke: #A80036; stroke-width: 2.0;"/><polygon fill="#A80036" points="645.3181,202.0021,655.1147,200.9889,649.654,199.5121,651.1308,194.0515,645.3181,202.0021" style="stroke: #A80036; stroke-width: 1.0;"/><!--link PROD_IVV_PROCEDURES_VERIFIED to SR5_3--><path d="M750.8574,95.828 C745.099,101.8503 738.8874,108.2179 733,114 C702.3557,144.0967 665.4578,177.5121 642.6117,197.8898 " fill="none" id="PROD_IVV_PROCEDURES_VERIFIED-SR5_3" style="stroke: #A80036; stroke-width: 2.0;"/><polygon fill="#A80036" points="638.7917,201.2923,648.1727,198.2929,642.5253,197.9666,642.8516,192.3191,638.7917,201.2923" style="stroke: #A80036; stroke-width: 1.0;"/><!--link SR5_3 to PROD_SYSTEM_VERIFIED--><path d="M630.8029,232.9025 C645.5668,256.8527 673.769,302.603 692.4838,332.9626 " fill="none" id="SR5_3-PROD_SYSTEM_VERIFIED" style="stroke: #A80036; stroke-width: 2.0;"/><polygon fill="#A80036" points="695.1735,337.3258,693.8556,327.5655,692.5497,333.0696,687.0456,331.7636,695.1735,337.3258" style="stroke: #A80036; stroke-width: 1.0;"/><!--link PROD_STRS_VALIDATED to SR5_4--><path d="M1518.1035,92.0974 C1504.2191,99.5675 1488.1284,107.678 1473,114 C1380.2428,152.762 1267.4783,185.6504 1202.6937,203.2482 " fill="none" id="PROD_STRS_VALIDATED-SR5_4" style="stroke: #A80036; stroke-width: 2.0;"/><polygon fill="#A80036" points="1197.7293,204.5923,1207.4619,206.1012,1202.5555,203.2856,1205.3712,198.3793,1197.7293,204.5923" style="stroke: #A80036; stroke-width: 1.0;"/><!--link META_TRACE_MATRIX to SR5_4--><path d="M1085.0511,92.2297 C1099.4505,119.8917 1124.4864,167.987 1138.9066,195.6891 " fill="none" id="META_TRACE_MATRIX-SR5_4" style="stroke: #A80036; stroke-width: 2.0;"/><polygon fill="#A80036" points="1141.2986,200.2842,1140.691,190.4541,1138.9899,195.8491,1133.5949,194.148,1141.2986,200.2842" style="stroke: #A80036; stroke-width: 1.0;"/><!--link PROD_IVV_PROCEDURES_VERIFIED to SR5_4--><path d="M794.0681,96.8282 C800.1735,103.2502 807.3204,109.5598 815,114 C912.4263,170.3295 955.0797,135.9767 1061,174 C1080.3397,180.9426 1101.0592,190.7982 1117.6364,199.3228 " fill="none" id="PROD_IVV_PROCEDURES_VERIFIED-SR5_4" style="stroke: #A80036; stroke-width: 2.0;"/><polygon fill="#A80036" points="1122.1976,201.6883,1116.0498,193.9939,1117.759,199.3863,1112.3666,201.0956,1122.1976,201.6883" style="stroke: #A80036; stroke-width: 1.0;"/><!--link PROD_SYSTEM_VERIFIED to SR5_4--><path d="M724.3497,337.4292 C731.1969,326.8135 740.5295,315.3876 752,308.5 C871.1799,236.9371 928.3131,301.4641 1061,260 C1080.9122,253.7775 1101.9833,243.7678 1118.622,234.9711 " fill="none" id="PROD_SYSTEM_VERIFIED-SR5_4" style="stroke: #A80036; stroke-width: 2.0;"/><polygon fill="#A80036" points="1123.1928,232.5263,1113.3701,233.2441,1118.7839,234.8846,1117.1434,240.2984,1123.1928,232.5263" style="stroke: #A80036; stroke-width: 1.0;"/><!--link SR5_4 to PROD_SYSTEM_VALIDATED--><path d="M1122.9822,232.3486 C1075.5698,259.2833 977.5512,314.967 926.1319,344.178 " fill="none" id="SR5_4-PROD_SYSTEM_VALIDATED" style="stroke: #A80036; stroke-width: 2.0;"/><polygon fill="#A80036" points="921.6063,346.749,931.4075,345.7814,925.9538,344.2793,927.4559,338.8255,921.6063,346.749" style="stroke: #A80036; stroke-width: 1.0;"/><!--link SR5_4 to META_ACCEPTANCE_APPROVED--><path d="M1150,233.7481 C1150,258.8505 1150,306.4701 1150,336.3731 " fill="none" id="SR5_4-META_ACCEPTANCE_APPROVED" style="stroke: #A80036; stroke-width: 2.0;"/><polygon fill="#A80036" points="1150,341.7411,1154,332.7411,1150,336.7411,1146,332.7411,1150,341.7411" style="stroke: #A80036; stroke-width: 1.0;"/><!--link PROD_SYSTEM_VALIDATED to SR5_5--><path d="M875.0354,337.2859 C855.2556,308.9737 823.8386,264.0042 805.5414,237.8142 " fill="none" id="PROD_SYSTEM_VALIDATED-SR5_5" style="stroke: #A80036; stroke-width: 2.0;"/><polygon fill="#A80036" points="802.5024,233.4643,804.3777,243.133,805.3659,237.5631,810.9358,238.5513,802.5024,233.4643" style="stroke: #A80036; stroke-width: 1.0;"/><!--link PROD_IVV_PROCEDURES_VERIFIED to SR5_5--><path d="M777.0001,96.7658 C780.2529,124.7014 785.3888,168.81 788.4527,195.1231 " fill="none" id="PROD_IVV_PROCEDURES_VERIFIED-SR5_5" style="stroke: #A80036; stroke-width: 2.0;"/><polygon fill="#A80036" points="789.0367,200.1383,791.9687,190.736,788.4583,195.1719,784.0224,191.6615,789.0367,200.1383" style="stroke: #A80036; stroke-width: 1.0;"/><!--link SR5_5 to PROD_SYSTEM_CORRECTED--><path d="M791.9177,233.7481 C793.2329,257.751 795.6763,302.3416 797.3203,332.3451 " fill="none" id="SR5_5-PROD_SYSTEM_CORRECTED" style="stroke: #A80036; stroke-width: 2.0;"/><polygon fill="#A80036" points="797.5972,337.3991,801.0988,328.1937,797.3236,332.4066,793.1108,328.6314,797.5972,337.3991" style="stroke: #A80036; stroke-width: 1.0;"/><!--link PROD_SYSTEM_VERIFIED to SR5_6--><path d="M711,388.802 C711,409.7315 711,439.1944 711,460.754 " fill="none" id="PROD_SYSTEM_VERIFIED-SR5_6" style="stroke: #A80036; stroke-width: 2.0;"/><polygon fill="#A80036" points="711,465.7784,715,456.7784,711,460.7784,707,456.7784,711,465.7784" style="stroke: #A80036; stroke-width: 1.0;"/><!--link SR5_6 to PROD_SYSOP_GUIDE_PRELIM--><path d="M737.3145,511.4813 C756.6025,527.9596 782.958,550.4759 803.8662,568.3384 " fill="none" id="SR5_6-PROD_SYSOP_GUIDE_PRELIM" style="stroke: #A80036; stroke-width: 2.0;"/><polygon fill="#A80036" points="807.7039,571.6171,803.4592,562.7299,803.9023,568.3694,798.2628,568.8124,807.7039,571.6171" style="stroke: #A80036; stroke-width: 1.0;"/><!--link PROD_SYSOP_GUIDE_PRELIM to SR5_7--><path d="M862.2534,571.701 C878.9907,553.8971 901.0881,530.3916 917.4456,512.9917 " fill="none" id="PROD_SYSOP_GUIDE_PRELIM-SR5_7" style="stroke: #A80036; stroke-width: 2.0;"/><polygon fill="#A80036" points="921.0536,509.1537,911.9747,512.9713,917.6289,512.7967,917.8035,518.4508,921.0536,509.1537" style="stroke: #A80036; stroke-width: 1.0;"/><!--link SR5_7 to PROD_SYSOP_GUIDE_VERIFIED--><path d="M940,509.6634 C940,525.8493 940,548.6115 940,566.9085 " fill="none" id="SR5_7-PROD_SYSOP_GUIDE_VERIFIED" style="stroke: #A80036; stroke-width: 2.0;"/><polygon fill="#A80036" points="940,571.9416,944,562.9416,940,566.9416,936,562.9416,940,571.9416" style="stroke: #A80036; stroke-width: 1.0;"/><!--link SYS to DES--><!--link DES to DEV--><!--link SYS to IVV--><!--link IVV to ACQ--><!--link ACQ to WT--><!--link IVV to STK--><!--
@startuml



skinparam handwritten false
skinparam defaultFontName Futura


actor SYS
actor DES
actor DEV
actor IVV
actor ACQ
actor WT
actor STK

artifact "Project Plan" as PROD_PP
artifact "IVV Plan" {
control "active" as PROD_IVV_PLAN
control "verified" as PROD_IVV_PLAN_VERIFIED
}
artifact "IVV Procedures" {
control "active" as PROD_IVV_PROCEDURES
control "verified" as PROD_IVV_PROCEDURES_VERIFIED
}
artifact "SysRS (validated)" as PROD_SYSRS_VALIDATED
artifact "SDD (validated)" as PROD_SDD_VALIDATED
artifact "SERS (validated)" as PROD_SERS_VALIDATED
artifact "StRS (validated)" as PROD_STRS_VALIDATED
artifact "System" {
control "integrated" as PROD_SYSTEM_INTEGRATED
control "verified" as PROD_SYSTEM_VERIFIED
control "validated" as PROD_SYSTEM_VALIDATED
control "corrected" as PROD_SYSTEM_CORRECTED
}
artifact "System Elements (SW+HW, accepted)" as PROD_SE_SWHW_ACCEPTED
artifact "Traceability Matrix" as META_TRACE_MATRIX
artifact "Product Acceptance Record (approved)" as META_ACCEPTANCE_APPROVED
artifact "System Operation Guide" {
control "preliminary" as PROD_SYSOP_GUIDE_PRELIM
control "verified" as PROD_SYSOP_GUIDE_VERIFIED
}

usecase "Verify IVV plan and procedures" as SR5_1
PROD_PP ==> SR5_1
PROD_IVV_PLAN ==> SR5_1
PROD_IVV_PROCEDURES ==> SR5_1
PROD_SYSRS_VALIDATED ==> SR5_1
PROD_SDD_VALIDATED ==> SR5_1
SR5_1 ==> PROD_IVV_PLAN_VERIFIED
SR5_1 ==> PROD_IVV_PROCEDURES_VERIFIED

usecase "Integrate System" as SR5_2
PROD_SDD_VALIDATED ==> SR5_2
PROD_SERS_VALIDATED ==> SR5_2
META_TRACE_MATRIX ==> SR5_2
PROD_SE_SWHW_ACCEPTED ==> SR5_2
PROD_IVV_PROCEDURES_VERIFIED ==> SR5_2
SR5_2 ==> PROD_SYSTEM_INTEGRATED

usecase "Verify System" as SR5_3
PROD_SYSTEM_INTEGRATED ==> SR5_3
PROD_SYSRS_VALIDATED ==> SR5_3
META_TRACE_MATRIX ==> SR5_3
PROD_IVV_PROCEDURES_VERIFIED ==> SR5_3
SR5_3 ==> PROD_SYSTEM_VERIFIED

usecase "Validate System" as SR5_4
PROD_STRS_VALIDATED ==> SR5_4
META_TRACE_MATRIX ==> SR5_4
PROD_IVV_PROCEDURES_VERIFIED ==> SR5_4
PROD_SYSTEM_VERIFIED ==> SR5_4
SR5_4 ==> PROD_SYSTEM_VALIDATED
SR5_4 ==> META_ACCEPTANCE_APPROVED

usecase "Correct Defects" as SR5_5
PROD_SYSTEM_VALIDATED ==> SR5_5
PROD_IVV_PROCEDURES_VERIFIED ==> SR5_5
SR5_5 ==> PROD_SYSTEM_CORRECTED

usecase "Document Operation Guide" as SR5_6
PROD_SYSTEM_VERIFIED ==> SR5_6
SR5_6 ==> PROD_SYSOP_GUIDE_PRELIM

usecase "Verify Operation Guide" as SR5_7
PROD_SYSOP_GUIDE_PRELIM ==> SR5_7
SR5_7 ==> PROD_SYSOP_GUIDE_VERIFIED

@enduml

PlantUML version 1.2019.00(Sun Jan 13 07:46:42 PST 2019)
(GPL source distribution)
Java Runtime: Java(TM) SE Runtime Environment
JVM: Java HotSpot(TM) 64-Bit Server VM
Java Version: 10.0.1+10
Operating System: Mac OS X
OS Version: 10.14.3
Default Encoding: UTF-8
Language: en
Country: US
--></g></svg>