<svg xmlns="http://www.w3.org/2000/svg" height="312" preserveAspectRatio="none" style="width:356px;height:312px" width="356"><defs><filter height="300%" id="a" width="300%" x="-1" y="-1"><feGaussianBlur result="blurOut" stdDeviation="2"/><feColorMatrix in="blurOut" result="blurOut2" values="0 0 0 0 0 0 0 0 0 0 0 0 0 0 0 0 0 0 .4 0"/><feOffset dx="4" dy="4" in="blurOut2" result="blurOut3"/><feBlend in="SourceGraphic" in2="blurOut3"/></filter></defs><circle cx="21" cy="18" fill="#FEFECE" filter="url(#a)" stroke="#a80036" stroke-width="2" r="8"/><path d="M21 26v27M8 34h26M21 53L8 68m13-15l13 15" fill="none" filter="url(#a)" stroke="#a80036" stroke-width="2"/><text font-family="Futura" font-size="14" lengthAdjust="spacingAndGlyphs" textLength="24" x="9" y="89.957">SYS</text><circle cx="86" cy="18" fill="#FEFECE" filter="url(#a)" stroke="#a80036" stroke-width="2" r="8"/><path d="M86 26v27M73 34h26M86 53L73 68m13-15l13 15" fill="none" filter="url(#a)" stroke="#a80036" stroke-width="2"/><text font-family="Futura" font-size="14" lengthAdjust="spacingAndGlyphs" textLength="26" x="73" y="89.957">DES</text><path fill="#FEFECE" filter="url(#a)" stroke="#000" stroke-width="1.5" d="M136.5 30h135v41.594h-135z"/><path fill="#FEFECE" stroke="#000" stroke-width="1.5" d="M254.5 35v14h12v-8l-6-6h-6z"/><path stroke="#000" stroke-width="1.5" d="M260.5 35v6M266.5 41h-6"/><text font-family="Futura" font-size="14" lengthAdjust="spacingAndGlyphs" textLength="105" x="146.5" y="57.957">System (verified)</text><path fill="#FEFECE" filter="url(#a)" stroke="#000" stroke-width="1.5" d="M68.5 260h271v41.594h-271z"/><path fill="#FEFECE" stroke="#000" stroke-width="1.5" d="M322.5 265v14h12v-8l-6-6h-6z"/><path stroke="#000" stroke-width="1.5" d="M328.5 265v6M334.5 271h-6"/><text font-family="Futura" font-size="14" lengthAdjust="spacingAndGlyphs" textLength="241" x="78.5" y="287.957">System Operation Guide (preliminary)</text><ellipse cx="204.023" cy="176.905" fill="#FEFECE" filter="url(#a)" rx="102.523" ry="22.905" stroke="#a80036" stroke-width="1.5"/><text font-family="Futura" font-size="14" lengthAdjust="spacingAndGlyphs" textLength="176" x="116.023" y="182.701">Document Operation Guide</text><path d="M204 72.09v76.506" fill="none" stroke="#a80036" stroke-width="2"/><path fill="#A80036" stroke="#a80036" d="M204 153.7l4-9-4 4-4-4 4 9z"/><path d="M204 200.081v54.616" fill="none" stroke="#a80036" stroke-width="2"/><path fill="#A80036" stroke="#a80036" d="M204 259.754l4-9-4 4-4-4 4 9z"/></svg>