<?xml version="1.0" encoding="UTF-8" standalone="no"?><svg xmlns="http://www.w3.org/2000/svg" xmlns:xlink="http://www.w3.org/1999/xlink" contentScriptType="application/ecmascript" contentStyleType="text/css" height="370px" preserveAspectRatio="none" style="width:595px;height:370px;" version="1.1" viewBox="0 0 595 370" width="595px" zoomAndPan="magnify"><defs><filter height="300%" id="fv9qyafm1eb6i" width="300%" x="-1" y="-1"><feGaussianBlur result="blurOut" stdDeviation="2.0"/><feColorMatrix in="blurOut" result="blurOut2" type="matrix" values="0 0 0 0 0 0 0 0 0 0 0 0 0 0 0 0 0 0 .4 0"/><feOffset dx="4.0" dy="4.0" in="blurOut2" result="blurOut3"/><feBlend in="SourceGraphic" in2="blurOut3" mode="normal"/></filter></defs><g><!--cluster IVV Plan--><rect fill="#FFFFFF" filter="url(#fv9qyafm1eb6i)" height="88" style="stroke: #000000; stroke-width: 1.5;" width="135" x="199" y="271"/><polygon fill="#FFFFFF" points="317,276,317,290,329,290,329,282,323,276,317,276" style="stroke: #000000; stroke-width: 1.5;"/><line style="stroke: #000000; stroke-width: 1.5;" x1="323" x2="323" y1="276" y2="282"/><line style="stroke: #000000; stroke-width: 1.5;" x1="329" x2="323" y1="282" y2="282"/><text fill="#000000" font-family="Futura" font-size="14" font-weight="bold" lengthAdjust="spacingAndGlyphs" textLength="64" x="234.5" y="287.966">IVV Plan</text><!--cluster IVV Procedures--><rect fill="#FFFFFF" filter="url(#fv9qyafm1eb6i)" height="88" style="stroke: #000000; stroke-width: 1.5;" width="135" x="353" y="271"/><polygon fill="#FFFFFF" points="471,276,471,290,483,290,483,282,477,276,471,276" style="stroke: #000000; stroke-width: 1.5;"/><line style="stroke: #000000; stroke-width: 1.5;" x1="477" x2="477" y1="276" y2="282"/><line style="stroke: #000000; stroke-width: 1.5;" x1="483" x2="477" y1="282" y2="282"/><text fill="#000000" font-family="Futura" font-size="14" font-weight="bold" lengthAdjust="spacingAndGlyphs" textLength="116" x="362.5" y="287.966">IVV Procedures</text><!--entity PROD_IVV_PLAN--><ellipse cx="307" cy="316" fill="#FEFECE" filter="url(#fv9qyafm1eb6i)" rx="12" ry="12" style="stroke: #A80036; stroke-width: 2.0;"/><polygon fill="#A80036" points="303,304,309,299,307,304,309,309,303,304" style="stroke: #A80036; stroke-width: 1.0;"/><text fill="#000000" font-family="Futura" font-size="14" lengthAdjust="spacingAndGlyphs" textLength="37" x="288.5" y="346.957">active</text><!--entity PROD_IVV_PLAN_VERIFIED--><ellipse cx="230" cy="316" fill="#FEFECE" filter="url(#fv9qyafm1eb6i)" rx="12" ry="12" style="stroke: #A80036; stroke-width: 2.0;"/><polygon fill="#A80036" points="226,304,232,299,230,304,232,309,226,304" style="stroke: #A80036; stroke-width: 1.0;"/><text fill="#000000" font-family="Futura" font-size="14" lengthAdjust="spacingAndGlyphs" textLength="46" x="207" y="346.957">verified</text><!--entity PROD_IVV_PROCEDURES--><ellipse cx="461" cy="316" fill="#FEFECE" filter="url(#fv9qyafm1eb6i)" rx="12" ry="12" style="stroke: #A80036; stroke-width: 2.0;"/><polygon fill="#A80036" points="457,304,463,299,461,304,463,309,457,304" style="stroke: #A80036; stroke-width: 1.0;"/><text fill="#000000" font-family="Futura" font-size="14" lengthAdjust="spacingAndGlyphs" textLength="37" x="442.5" y="346.957">active</text><!--entity PROD_IVV_PROCEDURES_VERIFIED--><ellipse cx="384" cy="316" fill="#FEFECE" filter="url(#fv9qyafm1eb6i)" rx="12" ry="12" style="stroke: #A80036; stroke-width: 2.0;"/><polygon fill="#A80036" points="380,304,386,299,384,304,386,309,380,304" style="stroke: #A80036; stroke-width: 1.0;"/><text fill="#000000" font-family="Futura" font-size="14" lengthAdjust="spacingAndGlyphs" textLength="46" x="361" y="346.957">verified</text><!--entity SYS--><ellipse cx="21" cy="18" fill="#FEFECE" filter="url(#fv9qyafm1eb6i)" rx="8" ry="8" style="stroke: #A80036; stroke-width: 2.0;"/><path d="M21,26 L21,53 M8,34 L34,34 M21,53 L8,68 M21,53 L34,68 " fill="none" filter="url(#fv9qyafm1eb6i)" style="stroke: #A80036; stroke-width: 2.0;"/><text fill="#000000" font-family="Futura" font-size="14" lengthAdjust="spacingAndGlyphs" textLength="24" x="9" y="89.957">SYS</text><!--entity DES--><ellipse cx="86" cy="18" fill="#FEFECE" filter="url(#fv9qyafm1eb6i)" rx="8" ry="8" style="stroke: #A80036; stroke-width: 2.0;"/><path d="M86,26 L86,53 M73,34 L99,34 M86,53 L73,68 M86,53 L99,68 " fill="none" filter="url(#fv9qyafm1eb6i)" style="stroke: #A80036; stroke-width: 2.0;"/><text fill="#000000" font-family="Futura" font-size="14" lengthAdjust="spacingAndGlyphs" textLength="26" x="73" y="89.957">DES</text><!--entity DEV--><ellipse cx="21" cy="164" fill="#FEFECE" filter="url(#fv9qyafm1eb6i)" rx="8" ry="8" style="stroke: #A80036; stroke-width: 2.0;"/><path d="M21,172 L21,199 M8,180 L34,180 M21,199 L8,214 M21,199 L34,214 " fill="none" filter="url(#fv9qyafm1eb6i)" style="stroke: #A80036; stroke-width: 2.0;"/><text fill="#000000" font-family="Futura" font-size="14" lengthAdjust="spacingAndGlyphs" textLength="27" x="7.5" y="235.957">DEV</text><!--entity IVV--><ellipse cx="86" cy="164" fill="#FEFECE" filter="url(#fv9qyafm1eb6i)" rx="8" ry="8" style="stroke: #A80036; stroke-width: 2.0;"/><path d="M86,172 L86,199 M73,180 L99,180 M86,199 L73,214 M86,199 L99,214 " fill="none" filter="url(#fv9qyafm1eb6i)" style="stroke: #A80036; stroke-width: 2.0;"/><text fill="#000000" font-family="Futura" font-size="14" lengthAdjust="spacingAndGlyphs" textLength="22" x="75" y="235.957">IVV</text><!--entity PROD_PP--><rect fill="#FEFECE" filter="url(#fv9qyafm1eb6i)" height="41.5938" style="stroke: #000000; stroke-width: 1.5;" width="104" x="136" y="30"/><polygon fill="#FEFECE" points="223,35,223,49,235,49,235,41,229,35,223,35" style="stroke: #000000; stroke-width: 1.5;"/><line style="stroke: #000000; stroke-width: 1.5;" x1="229" x2="229" y1="35" y2="41"/><line style="stroke: #000000; stroke-width: 1.5;" x1="235" x2="229" y1="41" y2="41"/><text fill="#000000" font-family="Futura" font-size="14" lengthAdjust="spacingAndGlyphs" textLength="74" x="146" y="57.957">Project Plan</text><!--entity PROD_SYSRS_VALIDATED--><rect fill="#FEFECE" filter="url(#fv9qyafm1eb6i)" height="41.5938" style="stroke: #000000; stroke-width: 1.5;" width="139" x="275.5" y="30"/><polygon fill="#FEFECE" points="397.5,35,397.5,49,409.5,49,409.5,41,403.5,35,397.5,35" style="stroke: #000000; stroke-width: 1.5;"/><line style="stroke: #000000; stroke-width: 1.5;" x1="403.5" x2="403.5" y1="35" y2="41"/><line style="stroke: #000000; stroke-width: 1.5;" x1="409.5" x2="403.5" y1="41" y2="41"/><text fill="#000000" font-family="Futura" font-size="14" lengthAdjust="spacingAndGlyphs" textLength="109" x="285.5" y="57.957">SysRS (validated)</text><!--entity PROD_SDD_VALIDATED--><rect fill="#FEFECE" filter="url(#fv9qyafm1eb6i)" height="41.5938" style="stroke: #000000; stroke-width: 1.5;" width="129" x="449.5" y="30"/><polygon fill="#FEFECE" points="561.5,35,561.5,49,573.5,49,573.5,41,567.5,35,561.5,35" style="stroke: #000000; stroke-width: 1.5;"/><line style="stroke: #000000; stroke-width: 1.5;" x1="567.5" x2="567.5" y1="35" y2="41"/><line style="stroke: #000000; stroke-width: 1.5;" x1="573.5" x2="567.5" y1="41" y2="41"/><text fill="#000000" font-family="Futura" font-size="14" lengthAdjust="spacingAndGlyphs" textLength="99" x="459.5" y="57.957">SDD (validated)</text><ellipse cx="344.9176" cy="196.7835" fill="#FEFECE" filter="url(#fv9qyafm1eb6i)" rx="111.9176" ry="24.7835" style="stroke: #A80036; stroke-width: 1.5;"/><text fill="#000000" font-family="Futura" font-size="14" lengthAdjust="spacingAndGlyphs" textLength="197" x="246.4176" y="202.5804">Verify IVV plan and procedures</text><!--link PROD_PP to SR5_1--><path d="M210.8291,72.2297 C238.2582,97.7369 284.37,140.618 314.7434,168.8633 " fill="none" id="PROD_PP-SR5_1" style="stroke: #A80036; stroke-width: 2.0;"/><polygon fill="#A80036" points="318.7362,172.5764,314.8696,163.5183,315.0748,169.1714,309.4216,169.3765,318.7362,172.5764" style="stroke: #A80036; stroke-width: 1.0;"/><!--link PROD_IVV_PLAN to SR5_1--><path d="M314.6588,299.6012 C320.8707,278.595 329.6336,248.9626 336.1461,226.9402 " fill="none" id="PROD_IVV_PLAN-SR5_1" style="stroke: #A80036; stroke-width: 2.0;"/><polygon fill="#A80036" points="337.583,222.0811,331.1948,229.5772,336.165,226.8758,338.8664,231.846,337.583,222.0811" style="stroke: #A80036; stroke-width: 1.0;"/><!--link PROD_IVV_PROCEDURES to SR5_1--><path d="M445.8953,299.9081 C439.8648,290.464 432.5605,279.9027 425,271 C410.8874,254.382 393.2703,237.7307 378.1631,224.4432 " fill="none" id="PROD_IVV_PROCEDURES-SR5_1" style="stroke: #A80036; stroke-width: 2.0;"/><polygon fill="#A80036" points="374.3801,221.1396,378.528,230.0724,378.1462,224.4284,383.7902,224.0466,374.3801,221.1396" style="stroke: #A80036; stroke-width: 1.0;"/><!--link PROD_SYSRS_VALIDATED to SR5_1--><path d="M345,72.2297 C345,97.0971 345,138.4777 345,166.7107 " fill="none" id="PROD_SYSRS_VALIDATED-SR5_1" style="stroke: #A80036; stroke-width: 2.0;"/><polygon fill="#A80036" points="345,171.8225,349,162.8225,345,166.8225,341,162.8225,345,171.8225" style="stroke: #A80036; stroke-width: 1.0;"/><!--link PROD_SDD_VALIDATED to SR5_1--><path d="M489.4259,72.2297 C459.7799,97.841 409.8586,140.9683 377.1697,169.2084 " fill="none" id="PROD_SDD_VALIDATED-SR5_1" style="stroke: #A80036; stroke-width: 2.0;"/><polygon fill="#A80036" points="373.2712,172.5764,382.6966,169.7196,377.0548,169.3077,377.4667,163.6658,373.2712,172.5764" style="stroke: #A80036; stroke-width: 1.0;"/><!--link SR5_1 to PROD_IVV_PLAN_VERIFIED--><path d="M318.7464,221.4964 C304.1729,235.5203 286.0119,253.7167 271,271 C264.3178,278.6932 257.4947,287.3733 251.3807,295.5072 " fill="none" id="SR5_1-PROD_IVV_PLAN_VERIFIED" style="stroke: #A80036; stroke-width: 2.0;"/><polygon fill="#A80036" points="248.0624,299.9601,256.6477,295.1338,251.0501,295.9509,250.233,290.3534,248.0624,299.9601" style="stroke: #A80036; stroke-width: 1.0;"/><!--link SR5_1 to PROD_IVV_PROCEDURES_VERIFIED--><path d="M352.6122,222.0811 C358.9185,242.8595 367.9071,272.4759 374.6503,294.6941 " fill="none" id="SR5_1-PROD_IVV_PROCEDURES_VERIFIED" style="stroke: #A80036; stroke-width: 2.0;"/><polygon fill="#A80036" points="376.1397,299.6012,377.3532,289.8274,374.6875,294.8167,369.6981,292.151,376.1397,299.6012" style="stroke: #A80036; stroke-width: 1.0;"/><!--link SYS to DES--><!--link SYS to DEV--><!--link DEV to IVV--><!--
@startuml



skinparam handwritten false
skinparam defaultFontName Futura


actor SYS
actor DES
actor DEV
actor IVV

artifact "Project Plan" as PROD_PP
artifact "IVV Plan" {
control "active" as PROD_IVV_PLAN
control "verified" as PROD_IVV_PLAN_VERIFIED
}
artifact "IVV Procedures" {
control "active" as PROD_IVV_PROCEDURES
control "verified" as PROD_IVV_PROCEDURES_VERIFIED
}
artifact "SysRS (validated)" as PROD_SYSRS_VALIDATED
artifact "SDD (validated)" as PROD_SDD_VALIDATED

usecase "Verify IVV plan and procedures" as SR5_1
PROD_PP ==> SR5_1
PROD_IVV_PLAN ==> SR5_1
PROD_IVV_PROCEDURES ==> SR5_1
PROD_SYSRS_VALIDATED ==> SR5_1
PROD_SDD_VALIDATED ==> SR5_1
SR5_1 ==> PROD_IVV_PLAN_VERIFIED
SR5_1 ==> PROD_IVV_PROCEDURES_VERIFIED

@enduml

PlantUML version 1.2019.00(Sun Jan 13 07:46:42 PST 2019)
(GPL source distribution)
Java Runtime: Java(TM) SE Runtime Environment
JVM: Java HotSpot(TM) 64-Bit Server VM
Java Version: 10.0.1+10
Operating System: Mac OS X
OS Version: 10.14.3
Default Encoding: UTF-8
Language: en
Country: US
--></g></svg>