<svg xmlns="http://www.w3.org/2000/svg" height="352" preserveAspectRatio="none" style="width:1162px;height:352px" width="1162"><defs><filter height="300%" id="a" width="300%" x="-1" y="-1"><feGaussianBlur result="blurOut" stdDeviation="2"/><feColorMatrix in="blurOut" result="blurOut2" values="0 0 0 0 0 0 0 0 0 0 0 0 0 0 0 0 0 0 .4 0"/><feOffset dx="4" dy="4" in="blurOut2" result="blurOut3"/><feBlend in="SourceGraphic" in2="blurOut3"/></filter></defs><circle cx="21" cy="18" fill="#FEFECE" filter="url(#a)" stroke="#a80036" stroke-width="2" r="8"/><path d="M21 26v27M8 34h26M21 53L8 68m13-15l13 15" fill="none" filter="url(#a)" stroke="#a80036" stroke-width="2"/><text font-family="Futura" font-size="14" lengthAdjust="spacingAndGlyphs" textLength="26" x="8" y="89.957">DES</text><circle cx="86" cy="18" fill="#FEFECE" filter="url(#a)" stroke="#a80036" stroke-width="2" r="8"/><path d="M86 26v27M73 34h26M86 53L73 68m13-15l13 15" fill="none" filter="url(#a)" stroke="#a80036" stroke-width="2"/><text font-family="Futura" font-size="14" lengthAdjust="spacingAndGlyphs" textLength="27" x="72.5" y="89.957">DEV</text><circle cx="21" cy="164" fill="#FEFECE" filter="url(#a)" stroke="#a80036" stroke-width="2" r="8"/><path d="M21 172v27M8 180h26m-13 19L8 214m13-15l13 15" fill="none" filter="url(#a)" stroke="#a80036" stroke-width="2"/><text font-family="Futura" font-size="14" lengthAdjust="spacingAndGlyphs" textLength="22" x="10" y="235.957">IVV</text><path fill="#FEFECE" filter="url(#a)" stroke="#000" stroke-width="1.5" d="M136.5 30h187v41.594h-187z"/><path fill="#FEFECE" stroke="#000" stroke-width="1.5" d="M306.5 35v14h12v-8l-6-6h-6z"/><path stroke="#000" stroke-width="1.5" d="M312.5 35v6M318.5 41h-6"/><text font-family="Futura" font-size="14" lengthAdjust="spacingAndGlyphs" textLength="157" x="146.5" y="57.957">IVV Procedures (verified)</text><path fill="#FEFECE" filter="url(#a)" stroke="#000" stroke-width="1.5" d="M358.5 30h129v41.594h-129z"/><path fill="#FEFECE" stroke="#000" stroke-width="1.5" d="M470.5 35v14h12v-8l-6-6h-6z"/><path stroke="#000" stroke-width="1.5" d="M476.5 35v6M482.5 41h-6"/><text font-family="Futura" font-size="14" lengthAdjust="spacingAndGlyphs" textLength="99" x="368.5" y="57.957">SDD (validated)</text><path fill="#FEFECE" filter="url(#a)" stroke="#000" stroke-width="1.5" d="M522.5 30h133v41.594h-133z"/><path fill="#FEFECE" stroke="#000" stroke-width="1.5" d="M638.5 35v14h12v-8l-6-6h-6z"/><path stroke="#000" stroke-width="1.5" d="M644.5 35v6M650.5 41h-6"/><text font-family="Futura" font-size="14" lengthAdjust="spacingAndGlyphs" textLength="103" x="532.5" y="57.957">SERS (validated)</text><path fill="#FEFECE" filter="url(#a)" stroke="#000" stroke-width="1.5" d="M512.5 300h153v41.594h-153z"/><path fill="#FEFECE" stroke="#000" stroke-width="1.5" d="M648.5 305v14h12v-8l-6-6h-6z"/><path stroke="#000" stroke-width="1.5" d="M654.5 305v6M660.5 311h-6"/><text font-family="Futura" font-size="14" lengthAdjust="spacingAndGlyphs" textLength="123" x="522.5" y="327.957">System (integrated)</text><path fill="#FEFECE" filter="url(#a)" stroke="#000" stroke-width="1.5" d="M691 30h272v41.594H691z"/><path fill="#FEFECE" stroke="#000" stroke-width="1.5" d="M946 35v14h12v-8l-6-6h-6z"/><path stroke="#000" stroke-width="1.5" d="M952 35v6M958 41h-6"/><text font-family="Futura" font-size="14" lengthAdjust="spacingAndGlyphs" textLength="242" x="701" y="57.957">System Elements (SW+HW, accepted)</text><path fill="#FEFECE" filter="url(#a)" stroke="#000" stroke-width="1.5" d="M998.5 30h147v41.594h-147z"/><path fill="#FEFECE" stroke="#000" stroke-width="1.5" d="M1128.5 35v14h12v-8l-6-6h-6z"/><path stroke="#000" stroke-width="1.5" d="M1134.5 35v6M1140.5 41h-6"/><text font-family="Futura" font-size="14" lengthAdjust="spacingAndGlyphs" textLength="117" x="1008.5" y="57.957">Traceability Matrix</text><ellipse cx="588.997" cy="197.099" fill="#FEFECE" filter="url(#a)" rx="73.497" ry="17.099" stroke="#a80036" stroke-width="1.5"/><text font-family="Futura" font-size="14" lengthAdjust="spacingAndGlyphs" textLength="106" x="535.997" y="202.896">Integrate System</text><path d="M447.138 72.23L565.93 176.71" fill="none" stroke="#a80036" stroke-width="2"/><path fill="#A80036" stroke="#a80036" d="M569.994 180.284l-4.116-8.947.362 5.645-5.645.362 9.4 2.94z"/><path d="M589 72.23v102.316" fill="none" stroke="#a80036" stroke-width="2"/><path fill="#A80036" stroke="#a80036" d="M589 179.85l4-9-4 4-4-4 4 9z"/><path d="M1031.462 72.12C1015.946 79.68 997.912 87.842 981 94c-114.516 41.696-253.508 74.119-331.44 90.73" fill="none" stroke="#a80036" stroke-width="2"/><path fill="#A80036" stroke="#a80036" d="M644.516 185.802l9.635 2.042-4.744-3.081 3.082-4.744-7.973 5.782z"/><path d="M792.647 72.074l-172.94 106.089" fill="none" stroke="#a80036" stroke-width="2"/><path fill="#A80036" stroke="#a80036" d="M615.262 180.89l9.763-1.297-5.501-1.318 1.318-5.501-5.58 8.116z"/><path d="M281.818 72.074l265.65 108.035" fill="none" stroke="#a80036" stroke-width="2"/><path fill="#A80036" stroke="#a80036" d="M552.482 182.149l-6.83-7.096 2.199 5.212-5.212 2.199 9.843-.315z"/><path d="M589 214.242v80.511" fill="none" stroke="#a80036" stroke-width="2"/><path fill="#A80036" stroke="#a80036" d="M589 299.754l4-9-4 4-4-4 4 9z"/></svg>