<svg xmlns="http://www.w3.org/2000/svg" height="642" preserveAspectRatio="none" style="width:1636px;height:642px" width="1636"><defs><filter height="300%" id="a" width="300%" x="-1" y="-1"><feGaussianBlur result="blurOut" stdDeviation="2"/><feColorMatrix in="blurOut" result="blurOut2" values="0 0 0 0 0 0 0 0 0 0 0 0 0 0 0 0 0 0 .4 0"/><feOffset dx="4" dy="4" in="blurOut2" result="blurOut3"/><feBlend in="SourceGraphic" in2="blurOut3"/></filter></defs><path fill="#FFF" filter="url(#a)" stroke="#000" stroke-width="1.5" d="M341 308.5h135v88H341z"/><path fill="#FFF" stroke="#000" stroke-width="1.5" d="M459 313.5v14h12v-8l-6-6h-6z"/><path stroke="#000" stroke-width="1.5" d="M465 313.5v6M471 319.5h-6"/><text font-family="Futura" font-size="14" font-weight="bold" lengthAdjust="spacingAndGlyphs" textLength="64" x="376.5" y="325.466">IVV Plan</text><path fill="#FFF" filter="url(#a)" stroke="#000" stroke-width="1.5" d="M670 16.5h135v88H670z"/><path fill="#FFF" stroke="#000" stroke-width="1.5" d="M788 21.5v14h12v-8l-6-6h-6z"/><path stroke="#000" stroke-width="1.5" d="M794 21.5v6M800 27.5h-6"/><text font-family="Futura" font-size="14" font-weight="bold" lengthAdjust="spacingAndGlyphs" textLength="116" x="679.5" y="33.466">IVV Procedures</text><path fill="#FFF" filter="url(#a)" stroke="#000" stroke-width="1.5" d="M581 308.5h349v88H581z"/><path fill="#FFF" stroke="#000" stroke-width="1.5" d="M913 313.5v14h12v-8l-6-6h-6z"/><path stroke="#000" stroke-width="1.5" d="M919 313.5v6M925 319.5h-6"/><text font-family="Futura" font-size="14" font-weight="bold" lengthAdjust="spacingAndGlyphs" textLength="54" x="728.5" y="325.466">System</text><path fill="#FFF" filter="url(#a)" stroke="#000" stroke-width="1.5" d="M778 543h201v88H778z"/><path fill="#FFF" stroke="#000" stroke-width="1.5" d="M962 548v14h12v-8l-6-6h-6z"/><path stroke="#000" stroke-width="1.5" d="M968 548v6M974 554h-6"/><text font-family="Futura" font-size="14" font-weight="bold" lengthAdjust="spacingAndGlyphs" textLength="185" x="786" y="559.966">System Operation Guide</text><circle cx="449" cy="353.5" fill="#FEFECE" filter="url(#a)" stroke="#a80036" stroke-width="2" r="12"/><path fill="#A80036" stroke="#a80036" d="M445 341.5l6-5-2 5 2 5-6-5z"/><text font-family="Futura" font-size="14" lengthAdjust="spacingAndGlyphs" textLength="37" x="430.5" y="384.457">active</text><circle cx="372" cy="353.5" fill="#FEFECE" filter="url(#a)" stroke="#a80036" stroke-width="2" r="12"/><path fill="#A80036" stroke="#a80036" d="M368 341.5l6-5-2 5 2 5-6-5z"/><text font-family="Futura" font-size="14" lengthAdjust="spacingAndGlyphs" textLength="46" x="349" y="384.457">verified</text><circle cx="697" cy="61.5" fill="#FEFECE" filter="url(#a)" stroke="#a80036" stroke-width="2" r="12"/><path fill="#A80036" stroke="#a80036" d="M693 49.5l6-5-2 5 2 5-6-5z"/><text font-family="Futura" font-size="14" lengthAdjust="spacingAndGlyphs" textLength="37" x="678.5" y="92.457">active</text><circle cx="774" cy="61.5" fill="#FEFECE" filter="url(#a)" stroke="#a80036" stroke-width="2" r="12"/><path fill="#A80036" stroke="#a80036" d="M770 49.5l6-5-2 5 2 5-6-5z"/><text font-family="Futura" font-size="14" lengthAdjust="spacingAndGlyphs" textLength="46" x="751" y="92.457">verified</text><circle cx="621" cy="353.5" fill="#FEFECE" filter="url(#a)" stroke="#a80036" stroke-width="2" r="12"/><path fill="#A80036" stroke="#a80036" d="M617 341.5l6-5-2 5 2 5-6-5z"/><text font-family="Futura" font-size="14" lengthAdjust="spacingAndGlyphs" textLength="64" x="589" y="384.457">integrated</text><circle cx="711" cy="353.5" fill="#FEFECE" filter="url(#a)" stroke="#a80036" stroke-width="2" r="12"/><path fill="#A80036" stroke="#a80036" d="M707 341.5l6-5-2 5 2 5-6-5z"/><text font-family="Futura" font-size="14" lengthAdjust="spacingAndGlyphs" textLength="46" x="688" y="384.457">verified</text><circle cx="893" cy="353.5" fill="#FEFECE" filter="url(#a)" stroke="#a80036" stroke-width="2" r="12"/><path fill="#A80036" stroke="#a80036" d="M889 341.5l6-5-2 5 2 5-6-5z"/><text font-family="Futura" font-size="14" lengthAdjust="spacingAndGlyphs" textLength="57" x="864.5" y="384.457">validated</text><circle cx="799" cy="353.5" fill="#FEFECE" filter="url(#a)" stroke="#a80036" stroke-width="2" r="12"/><path fill="#A80036" stroke="#a80036" d="M795 341.5l6-5-2 5 2 5-6-5z"/><text font-family="Futura" font-size="14" lengthAdjust="spacingAndGlyphs" textLength="60" x="769" y="384.457">corrected</text><circle cx="838" cy="588" fill="#FEFECE" filter="url(#a)" stroke="#a80036" stroke-width="2" r="12"/><path fill="#A80036" stroke="#a80036" d="M834 576l6-5-2 5 2 5-6-5z"/><text font-family="Futura" font-size="14" lengthAdjust="spacingAndGlyphs" textLength="70" x="803" y="618.957">preliminary</text><circle cx="940" cy="588" fill="#FEFECE" filter="url(#a)" stroke="#a80036" stroke-width="2" r="12"/><path fill="#A80036" stroke="#a80036" d="M936 576l6-5-2 5 2 5-6-5z"/><text font-family="Futura" font-size="14" lengthAdjust="spacingAndGlyphs" textLength="46" x="917" y="618.957">verified</text><circle cx="21" cy="38" fill="#FEFECE" filter="url(#a)" stroke="#a80036" stroke-width="2" r="8"/><path d="M21 46v27M8 54h26M21 73L8 88m13-15l13 15" fill="none" filter="url(#a)" stroke="#a80036" stroke-width="2"/><text font-family="Futura" font-size="14" lengthAdjust="spacingAndGlyphs" textLength="24" x="9" y="109.957">SYS</text><circle cx="86" cy="38" fill="#FEFECE" filter="url(#a)" stroke="#a80036" stroke-width="2" r="8"/><path d="M86 46v27M73 54h26M86 73L73 88m13-15l13 15" fill="none" filter="url(#a)" stroke="#a80036" stroke-width="2"/><text font-family="Futura" font-size="14" lengthAdjust="spacingAndGlyphs" textLength="26" x="73" y="109.957">DES</text><circle cx="151" cy="38" fill="#FEFECE" filter="url(#a)" stroke="#a80036" stroke-width="2" r="8"/><path d="M151 46v27m-13-19h26m-13 19l-13 15m13-15l13 15" fill="none" filter="url(#a)" stroke="#a80036" stroke-width="2"/><text font-family="Futura" font-size="14" lengthAdjust="spacingAndGlyphs" textLength="27" x="137.5" y="109.957">DEV</text><circle cx="21" cy="184" fill="#FEFECE" filter="url(#a)" stroke="#a80036" stroke-width="2" r="8"/><path d="M21 192v27M8 200h26m-13 19L8 234m13-15l13 15" fill="none" filter="url(#a)" stroke="#a80036" stroke-width="2"/><text font-family="Futura" font-size="14" lengthAdjust="spacingAndGlyphs" textLength="22" x="10" y="255.957">IVV</text><circle cx="88" cy="184" fill="#FEFECE" filter="url(#a)" stroke="#a80036" stroke-width="2" r="8"/><path d="M88 192v27m-13-19h26m-13 19l-13 15m13-15l13 15" fill="none" filter="url(#a)" stroke="#a80036" stroke-width="2"/><text font-family="Futura" font-size="14" lengthAdjust="spacingAndGlyphs" textLength="33" x="71.5" y="255.957">ACQ</text><circle cx="155" cy="184" fill="#FEFECE" filter="url(#a)" stroke="#a80036" stroke-width="2" r="8"/><path d="M155 192v27m-13-19h26m-13 19l-13 15m13-15l13 15" fill="none" filter="url(#a)" stroke="#a80036" stroke-width="2"/><text font-family="Futura" font-size="14" lengthAdjust="spacingAndGlyphs" textLength="22" x="144" y="255.957">WT</text><circle cx="21" cy="330" fill="#FEFECE" filter="url(#a)" stroke="#a80036" stroke-width="2" r="8"/><path d="M21 338v27M8 346h26m-13 19L8 380m13-15l13 15" fill="none" filter="url(#a)" stroke="#a80036" stroke-width="2"/><text font-family="Futura" font-size="14" lengthAdjust="spacingAndGlyphs" textLength="24" x="9" y="401.957">STK</text><path fill="#FEFECE" filter="url(#a)" stroke="#000" stroke-width="1.5" d="M201 50h104v41.594H201z"/><path fill="#FEFECE" stroke="#000" stroke-width="1.5" d="M288 55v14h12v-8l-6-6h-6z"/><path stroke="#000" stroke-width="1.5" d="M294 55v6M300 61h-6"/><text font-family="Futura" font-size="14" lengthAdjust="spacingAndGlyphs" textLength="74" x="211" y="77.957">Project Plan</text><path fill="#FEFECE" filter="url(#a)" stroke="#000" stroke-width="1.5" d="M340.5 50h139v41.594h-139z"/><path fill="#FEFECE" stroke="#000" stroke-width="1.5" d="M462.5 55v14h12v-8l-6-6h-6z"/><path stroke="#000" stroke-width="1.5" d="M468.5 55v6M474.5 61h-6"/><text font-family="Futura" font-size="14" lengthAdjust="spacingAndGlyphs" textLength="109" x="350.5" y="77.957">SysRS (validated)</text><path fill="#FEFECE" filter="url(#a)" stroke="#000" stroke-width="1.5" d="M514.5 50h129v41.594h-129z"/><path fill="#FEFECE" stroke="#000" stroke-width="1.5" d="M626.5 55v14h12v-8l-6-6h-6z"/><path stroke="#000" stroke-width="1.5" d="M632.5 55v6M638.5 61h-6"/><text font-family="Futura" font-size="14" lengthAdjust="spacingAndGlyphs" textLength="99" x="524.5" y="77.957">SDD (validated)</text><path fill="#FEFECE" filter="url(#a)" stroke="#000" stroke-width="1.5" d="M832.5 50h133v41.594h-133z"/><path fill="#FEFECE" stroke="#000" stroke-width="1.5" d="M948.5 55v14h12v-8l-6-6h-6z"/><path stroke="#000" stroke-width="1.5" d="M954.5 55v6M960.5 61h-6"/><text font-family="Futura" font-size="14" lengthAdjust="spacingAndGlyphs" textLength="103" x="842.5" y="77.957">SERS (validated)</text><path fill="#FEFECE" filter="url(#a)" stroke="#000" stroke-width="1.5" d="M1490.5 50h129v41.594h-129z"/><path fill="#FEFECE" stroke="#000" stroke-width="1.5" d="M1602.5 55v14h12v-8l-6-6h-6z"/><path stroke="#000" stroke-width="1.5" d="M1608.5 55v6M1614.5 61h-6"/><text font-family="Futura" font-size="14" lengthAdjust="spacingAndGlyphs" textLength="99" x="1500.5" y="77.957">StRS (validated)</text><path fill="#FEFECE" filter="url(#a)" stroke="#000" stroke-width="1.5" d="M1183 50h272v41.594h-272z"/><path fill="#FEFECE" stroke="#000" stroke-width="1.5" d="M1438 55v14h12v-8l-6-6h-6z"/><path stroke="#000" stroke-width="1.5" d="M1444 55v6M1450 61h-6"/><text font-family="Futura" font-size="14" lengthAdjust="spacingAndGlyphs" textLength="242" x="1193" y="77.957">System Elements (SW+HW, accepted)</text><path fill="#FEFECE" filter="url(#a)" stroke="#000" stroke-width="1.5" d="M1000.5 50h147v41.594h-147z"/><path fill="#FEFECE" stroke="#000" stroke-width="1.5" d="M1130.5 55v14h12v-8l-6-6h-6z"/><path stroke="#000" stroke-width="1.5" d="M1136.5 55v6M1142.5 61h-6"/><text font-family="Futura" font-size="14" lengthAdjust="spacingAndGlyphs" textLength="117" x="1010.5" y="77.957">Traceability Matrix</text><path fill="#FEFECE" filter="url(#a)" stroke="#000" stroke-width="1.5" d="M1010.5 342h279v41.594h-279z"/><path fill="#FEFECE" stroke="#000" stroke-width="1.5" d="M1272.5 347v14h12v-8l-6-6h-6z"/><path stroke="#000" stroke-width="1.5" d="M1278.5 347v6M1284.5 353h-6"/><text font-family="Futura" font-size="14" lengthAdjust="spacingAndGlyphs" textLength="249" x="1020.5" y="369.957">Product Acceptance Record (approved)</text><ellipse cx="409.918" cy="216.784" fill="#FEFECE" filter="url(#a)" rx="111.918" ry="24.784" stroke="#a80036" stroke-width="1.5"/><text font-family="Futura" font-size="14" lengthAdjust="spacingAndGlyphs" textLength="197" x="311.418" y="222.58">Verify IVV plan and procedures</text><ellipse cx="969.997" cy="217.099" fill="#FEFECE" filter="url(#a)" rx="73.497" ry="17.099" stroke="#a80036" stroke-width="1.5"/><text font-family="Futura" font-size="14" lengthAdjust="spacingAndGlyphs" textLength="106" x="916.997" y="222.896">Integrate System</text><ellipse cx="620.811" cy="217.148" fill="#FEFECE" filter="url(#a)" rx="63.811" ry="16.148" stroke="#a80036" stroke-width="1.5"/><text font-family="Futura" font-size="14" lengthAdjust="spacingAndGlyphs" textLength="86" x="577.811" y="222.945">Verify System</text><ellipse cx="1149.77" cy="217.154" fill="#FEFECE" filter="url(#a)" rx="71.27" ry="16.654" stroke="#a80036" stroke-width="1.5"/><text font-family="Futura" font-size="14" lengthAdjust="spacingAndGlyphs" textLength="100" x="1099.77" y="222.951">Validate System</text><ellipse cx="791.041" cy="217.008" fill="#FEFECE" filter="url(#a)" rx="70.541" ry="16.508" stroke="#a80036" stroke-width="1.5"/><text font-family="Futura" font-size="14" lengthAdjust="spacingAndGlyphs" textLength="98" x="742.041" y="222.805">Correct Defects</text><ellipse cx="711.023" cy="488.905" fill="#FEFECE" filter="url(#a)" rx="102.523" ry="22.905" stroke="#a80036" stroke-width="1.5"/><text font-family="Futura" font-size="14" lengthAdjust="spacingAndGlyphs" textLength="176" x="623.023" y="494.701">Document Operation Guide</text><ellipse cx="939.813" cy="489.063" fill="#FEFECE" filter="url(#a)" rx="90.813" ry="20.563" stroke="#a80036" stroke-width="1.5"/><text font-family="Futura" font-size="14" lengthAdjust="spacingAndGlyphs" textLength="149" x="865.313" y="494.859">Verify Operation Guide</text><path d="M275.83 92.23l103.913 96.633" fill="none" stroke="#a80036" stroke-width="2"/><path fill="#A80036" stroke="#a80036" d="M383.736 192.576l-3.866-9.058.205 5.653-5.653.206 9.314 3.2z"/><path d="M442.121 337.249l-24.04-89.997" fill="none" stroke="#a80036" stroke-width="2"/><path fill="#A80036" stroke="#a80036" d="M416.704 242.098l-1.541 9.728 2.832-4.897 4.897 2.832-6.188-7.663z"/><path d="M679.023 96.61c-5.277 6.272-11.422 12.561-18.023 17.39-30.567 22.361-121.774 57.273-185.376 80.143" fill="none" stroke="#a80036" stroke-width="2"/><path fill="#A80036" stroke="#a80036" d="M470.71 195.906l9.823.726-5.116-2.415 2.414-5.116-7.12 6.805z"/><path d="M410 92.23v94.48" fill="none" stroke="#a80036" stroke-width="2"/><path fill="#A80036" stroke="#a80036" d="M410 191.822l4-9-4 4-4-4 4 9z"/><path d="M554.426 92.23L442.17 189.208" fill="none" stroke="#a80036" stroke-width="2"/><path fill="#A80036" stroke="#a80036" d="M438.271 192.576l9.426-2.856-5.642-.412.412-5.642-4.196 8.91z"/><path d="M403.468 242.098l-23.5 90.288" fill="none" stroke="#a80036" stroke-width="2"/><path fill="#A80036" stroke="#a80036" d="M378.702 337.249l6.138-7.703-4.878 2.864-2.864-4.879 1.604 9.718z"/><path d="M472.412 196.103C493.814 189.004 517.93 181.08 540 174c85.534-27.439 116.67-12.643 193-60 6.125-3.8 11.96-8.729 17.208-13.888" fill="none" stroke="#a80036" stroke-width="2"/><path fill="#A80036" stroke="#a80036" d="M753.744 96.515l-9.161 3.614 5.656-.048.049 5.656 3.456-9.222z"/><path d="M615.829 92.177C629.964 99.742 646.439 107.895 662 114c93.15 36.546 123.197 25.163 217 60 19.165 7.118 39.82 16.711 56.6 25.03" fill="none" stroke="#a80036" stroke-width="2"/><path fill="#A80036" stroke="#a80036" d="M940.225 201.34l-6.265-7.6 1.792 5.366-5.366 1.792 9.84.442z"/><path d="M909.324 92.23l50.093 103.008" fill="none" stroke="#a80036" stroke-width="2"/><path fill="#A80036" stroke="#a80036" d="M961.66 199.85l-.34-9.843-1.847 5.346-5.346-1.848 7.533 6.345z"/><path d="M1058.878 92.23l-73.62 103.351" fill="none" stroke="#a80036" stroke-width="2"/><path fill="#A80036" stroke="#a80036" d="M982.217 199.85l8.48-5.01-5.58.937-.936-5.578-1.964 9.65z"/><path d="M1263.483 92.026c-52.526 20.16-133.39 51.892-202.483 81.974-18.305 7.97-38.398 17.391-55.036 25.38" fill="none" stroke="#a80036" stroke-width="2"/><path fill="#A80036" stroke="#a80036" d="M1001.367 201.594l9.845-.3-5.34-1.87 1.87-5.339-6.375 7.509z"/><path d="M796.525 96.508c5.777 6.002 12.152 12.19 18.475 17.492 39.64 33.244 90.333 65.198 122.743 84.47" fill="none" stroke="#a80036" stroke-width="2"/><path fill="#A80036" stroke="#a80036" d="M942.389 201.22l-5.707-8.027 1.404 5.48-5.48 1.404 9.783 1.142z"/><path d="M940.75 232.773c-17.523 8.95-40.464 19.81-61.75 27.227-89.64 31.231-126.04.615-208 48.5-10.768 6.291-20.563 15.654-28.572 24.851" fill="none" stroke="#a80036" stroke-width="2"/><path fill="#A80036" stroke="#a80036" d="M639.107 337.273l8.868-4.284-5.637.468-.468-5.637-2.763 9.453z"/><path d="M621 337.438v-99.255" fill="none" stroke="#a80036" stroke-width="2"/><path fill="#A80036" stroke="#a80036" d="M621 233.182l-4 9 4-4 4 4-4-9z"/><path d="M440.681 92.23l154.176 106.68" fill="none" stroke="#a80036" stroke-width="2"/><path fill="#A80036" stroke="#a80036" d="M598.99 201.77l-5.126-8.41 1.014 5.565-5.566 1.013 9.677 1.832z"/><path d="M1034.508 92.095C1018.811 99.829 1000.379 108.12 983 114c-120.556 40.79-160.317 16.715-280 60-18.357 6.64-37.75 16.655-53.065 25.351" fill="none" stroke="#a80036" stroke-width="2"/><path fill="#A80036" stroke="#a80036" d="M645.318 202.002l9.797-1.013-5.461-1.477 1.477-5.46-5.813 7.95z"/><path d="M750.857 95.828C745.1 101.85 738.887 108.218 733 114c-30.644 30.097-67.542 63.512-90.388 83.89" fill="none" stroke="#a80036" stroke-width="2"/><path fill="#A80036" stroke="#a80036" d="M638.792 201.292l9.38-3-5.647-.325.327-5.648-4.06 8.973z"/><path d="M630.803 232.903l61.68 100.06" fill="none" stroke="#a80036" stroke-width="2"/><path fill="#A80036" stroke="#a80036" d="M695.173 337.326l-1.317-9.76-1.306 5.504-5.504-1.306 8.127 5.562z"/><path d="M1518.103 92.097c-13.884 7.47-29.975 15.581-45.103 21.903-92.757 38.762-205.522 71.65-270.306 89.248" fill="none" stroke="#a80036" stroke-width="2"/><path fill="#A80036" stroke="#a80036" d="M1197.73 204.592l9.732 1.51-4.907-2.816 2.816-4.907-7.642 6.213z"/><path d="M1085.051 92.23l53.856 103.46" fill="none" stroke="#a80036" stroke-width="2"/><path fill="#A80036" stroke="#a80036" d="M1141.299 200.284l-.608-9.83-1.701 5.395-5.395-1.701 7.704 6.136z"/><path d="M794.068 96.828C800.174 103.25 807.32 109.56 815 114c97.426 56.33 140.08 21.977 246 60 19.34 6.943 40.06 16.798 56.636 25.323" fill="none" stroke="#a80036" stroke-width="2"/><path fill="#A80036" stroke="#a80036" d="M1122.198 201.688l-6.148-7.694 1.709 5.392-5.392 1.71 9.83.592z"/><path d="M724.35 337.43c6.847-10.617 16.18-22.042 27.65-28.93 119.18-71.563 176.313-7.036 309-48.5 19.912-6.222 40.983-16.232 57.622-25.029" fill="none" stroke="#a80036" stroke-width="2"/><path fill="#A80036" stroke="#a80036" d="M1123.193 232.526l-9.823.718 5.414 1.64-1.64 5.414 6.049-7.772z"/><path d="M1122.982 232.349l-196.85 111.829" fill="none" stroke="#a80036" stroke-width="2"/><path fill="#A80036" stroke="#a80036" d="M921.606 346.749l9.802-.968-5.454-1.502 1.502-5.454-5.85 7.924z"/><path d="M1150 233.748v102.625" fill="none" stroke="#a80036" stroke-width="2"/><path fill="#A80036" stroke="#a80036" d="M1150 341.741l4-9-4 4-4-4 4 9z"/><path d="M875.035 337.286l-69.494-99.472" fill="none" stroke="#a80036" stroke-width="2"/><path fill="#A80036" stroke="#a80036" d="M802.502 233.464l1.876 9.669.988-5.57 5.57.988-8.434-5.087z"/><path d="M777 96.766l11.453 98.357" fill="none" stroke="#a80036" stroke-width="2"/><path fill="#A80036" stroke="#a80036" d="M789.037 200.138l2.932-9.402-3.51 4.436-4.437-3.51 5.015 8.476z"/><path d="M791.918 233.748l5.402 98.597" fill="none" stroke="#a80036" stroke-width="2"/><path fill="#A80036" stroke="#a80036" d="M797.597 337.4l3.502-9.206-3.775 4.213-4.213-3.776 4.486 8.768z"/><path d="M711 388.802v71.952" fill="none" stroke="#a80036" stroke-width="2"/><path fill="#A80036" stroke="#a80036" d="M711 465.778l4-9-4 4-4-4 4 9z"/><path d="M737.314 511.481l66.552 56.857" fill="none" stroke="#a80036" stroke-width="2"/><path fill="#A80036" stroke="#a80036" d="M807.704 571.617l-4.245-8.887.443 5.64-5.64.442 9.442 2.805z"/><path d="M862.253 571.701l55.193-58.71" fill="none" stroke="#a80036" stroke-width="2"/><path fill="#A80036" stroke="#a80036" d="M921.054 509.154l-9.08 3.817 5.655-.174.174 5.654 3.25-9.297z"/><path d="M940 509.663v57.245" fill="none" stroke="#a80036" stroke-width="2"/><path fill="#A80036" stroke="#a80036" d="M940 571.942l4-9-4 4-4-4 4 9z"/></svg>