<?xml version="1.0" encoding="UTF-8" standalone="no"?><svg xmlns="http://www.w3.org/2000/svg" xmlns:xlink="http://www.w3.org/1999/xlink" contentScriptType="application/ecmascript" contentStyleType="text/css" height="352px" preserveAspectRatio="none" style="width:1162px;height:352px;" version="1.1" viewBox="0 0 1162 352" width="1162px" zoomAndPan="magnify"><defs><filter height="300%" id="frsr1itdqblsn" width="300%" x="-1" y="-1"><feGaussianBlur result="blurOut" stdDeviation="2.0"/><feColorMatrix in="blurOut" result="blurOut2" type="matrix" values="0 0 0 0 0 0 0 0 0 0 0 0 0 0 0 0 0 0 .4 0"/><feOffset dx="4.0" dy="4.0" in="blurOut2" result="blurOut3"/><feBlend in="SourceGraphic" in2="blurOut3" mode="normal"/></filter></defs><g><!--entity DES--><ellipse cx="21" cy="18" fill="#FEFECE" filter="url(#frsr1itdqblsn)" rx="8" ry="8" style="stroke: #A80036; stroke-width: 2.0;"/><path d="M21,26 L21,53 M8,34 L34,34 M21,53 L8,68 M21,53 L34,68 " fill="none" filter="url(#frsr1itdqblsn)" style="stroke: #A80036; stroke-width: 2.0;"/><text fill="#000000" font-family="Futura" font-size="14" lengthAdjust="spacingAndGlyphs" textLength="26" x="8" y="89.957">DES</text><!--entity DEV--><ellipse cx="86" cy="18" fill="#FEFECE" filter="url(#frsr1itdqblsn)" rx="8" ry="8" style="stroke: #A80036; stroke-width: 2.0;"/><path d="M86,26 L86,53 M73,34 L99,34 M86,53 L73,68 M86,53 L99,68 " fill="none" filter="url(#frsr1itdqblsn)" style="stroke: #A80036; stroke-width: 2.0;"/><text fill="#000000" font-family="Futura" font-size="14" lengthAdjust="spacingAndGlyphs" textLength="27" x="72.5" y="89.957">DEV</text><!--entity IVV--><ellipse cx="21" cy="164" fill="#FEFECE" filter="url(#frsr1itdqblsn)" rx="8" ry="8" style="stroke: #A80036; stroke-width: 2.0;"/><path d="M21,172 L21,199 M8,180 L34,180 M21,199 L8,214 M21,199 L34,214 " fill="none" filter="url(#frsr1itdqblsn)" style="stroke: #A80036; stroke-width: 2.0;"/><text fill="#000000" font-family="Futura" font-size="14" lengthAdjust="spacingAndGlyphs" textLength="22" x="10" y="235.957">IVV</text><!--entity PROD_IVV_PROCEDURES_VERIFIED--><rect fill="#FEFECE" filter="url(#frsr1itdqblsn)" height="41.5938" style="stroke: #000000; stroke-width: 1.5;" width="187" x="136.5" y="30"/><polygon fill="#FEFECE" points="306.5,35,306.5,49,318.5,49,318.5,41,312.5,35,306.5,35" style="stroke: #000000; stroke-width: 1.5;"/><line style="stroke: #000000; stroke-width: 1.5;" x1="312.5" x2="312.5" y1="35" y2="41"/><line style="stroke: #000000; stroke-width: 1.5;" x1="318.5" x2="312.5" y1="41" y2="41"/><text fill="#000000" font-family="Futura" font-size="14" lengthAdjust="spacingAndGlyphs" textLength="157" x="146.5" y="57.957">IVV Procedures (verified)</text><!--entity PROD_SDD_VALIDATED--><rect fill="#FEFECE" filter="url(#frsr1itdqblsn)" height="41.5938" style="stroke: #000000; stroke-width: 1.5;" width="129" x="358.5" y="30"/><polygon fill="#FEFECE" points="470.5,35,470.5,49,482.5,49,482.5,41,476.5,35,470.5,35" style="stroke: #000000; stroke-width: 1.5;"/><line style="stroke: #000000; stroke-width: 1.5;" x1="476.5" x2="476.5" y1="35" y2="41"/><line style="stroke: #000000; stroke-width: 1.5;" x1="482.5" x2="476.5" y1="41" y2="41"/><text fill="#000000" font-family="Futura" font-size="14" lengthAdjust="spacingAndGlyphs" textLength="99" x="368.5" y="57.957">SDD (validated)</text><!--entity PROD_SERS_VALIDATED--><rect fill="#FEFECE" filter="url(#frsr1itdqblsn)" height="41.5938" style="stroke: #000000; stroke-width: 1.5;" width="133" x="522.5" y="30"/><polygon fill="#FEFECE" points="638.5,35,638.5,49,650.5,49,650.5,41,644.5,35,638.5,35" style="stroke: #000000; stroke-width: 1.5;"/><line style="stroke: #000000; stroke-width: 1.5;" x1="644.5" x2="644.5" y1="35" y2="41"/><line style="stroke: #000000; stroke-width: 1.5;" x1="650.5" x2="644.5" y1="41" y2="41"/><text fill="#000000" font-family="Futura" font-size="14" lengthAdjust="spacingAndGlyphs" textLength="103" x="532.5" y="57.957">SERS (validated)</text><!--entity PROD_SYSTEM_INTEGRATED--><rect fill="#FEFECE" filter="url(#frsr1itdqblsn)" height="41.5938" style="stroke: #000000; stroke-width: 1.5;" width="153" x="512.5" y="300"/><polygon fill="#FEFECE" points="648.5,305,648.5,319,660.5,319,660.5,311,654.5,305,648.5,305" style="stroke: #000000; stroke-width: 1.5;"/><line style="stroke: #000000; stroke-width: 1.5;" x1="654.5" x2="654.5" y1="305" y2="311"/><line style="stroke: #000000; stroke-width: 1.5;" x1="660.5" x2="654.5" y1="311" y2="311"/><text fill="#000000" font-family="Futura" font-size="14" lengthAdjust="spacingAndGlyphs" textLength="123" x="522.5" y="327.957">System (integrated)</text><!--entity PROD_SE_SWHW_ACCEPTED--><rect fill="#FEFECE" filter="url(#frsr1itdqblsn)" height="41.5938" style="stroke: #000000; stroke-width: 1.5;" width="272" x="691" y="30"/><polygon fill="#FEFECE" points="946,35,946,49,958,49,958,41,952,35,946,35" style="stroke: #000000; stroke-width: 1.5;"/><line style="stroke: #000000; stroke-width: 1.5;" x1="952" x2="952" y1="35" y2="41"/><line style="stroke: #000000; stroke-width: 1.5;" x1="958" x2="952" y1="41" y2="41"/><text fill="#000000" font-family="Futura" font-size="14" lengthAdjust="spacingAndGlyphs" textLength="242" x="701" y="57.957">System Elements (SW+HW, accepted)</text><!--entity META_TRACE_MATRIX--><rect fill="#FEFECE" filter="url(#frsr1itdqblsn)" height="41.5938" style="stroke: #000000; stroke-width: 1.5;" width="147" x="998.5" y="30"/><polygon fill="#FEFECE" points="1128.5,35,1128.5,49,1140.5,49,1140.5,41,1134.5,35,1128.5,35" style="stroke: #000000; stroke-width: 1.5;"/><line style="stroke: #000000; stroke-width: 1.5;" x1="1134.5" x2="1134.5" y1="35" y2="41"/><line style="stroke: #000000; stroke-width: 1.5;" x1="1140.5" x2="1134.5" y1="41" y2="41"/><text fill="#000000" font-family="Futura" font-size="14" lengthAdjust="spacingAndGlyphs" textLength="117" x="1008.5" y="57.957">Traceability Matrix</text><ellipse cx="588.9968" cy="197.0994" fill="#FEFECE" filter="url(#frsr1itdqblsn)" rx="73.4968" ry="17.0994" style="stroke: #A80036; stroke-width: 1.5;"/><text fill="#000000" font-family="Futura" font-size="14" lengthAdjust="spacingAndGlyphs" textLength="106" x="535.9968" y="202.8962">Integrate System</text><!--link PROD_SDD_VALIDATED to SR5_2--><path d="M447.1378,72.2297 C478.9791,100.2346 534.6323,149.1826 565.9303,176.7098 " fill="none" id="PROD_SDD_VALIDATED-SR5_2" style="stroke: #A80036; stroke-width: 2.0;"/><polygon fill="#A80036" points="569.9944,180.2842,565.8781,171.3368,566.24,176.982,560.5947,177.3439,569.9944,180.2842" style="stroke: #A80036; stroke-width: 1.0;"/><!--link PROD_SERS_VALIDATED to SR5_2--><path d="M589,72.2297 C589,99.5148 589,146.6802 589,174.5455 " fill="none" id="PROD_SERS_VALIDATED-SR5_2" style="stroke: #A80036; stroke-width: 2.0;"/><polygon fill="#A80036" points="589,179.8496,593,170.8496,589,174.8496,585,170.8496,589,179.8496" style="stroke: #A80036; stroke-width: 1.0;"/><!--link META_TRACE_MATRIX to SR5_2--><path d="M1031.4616,72.1203 C1015.9458,79.6788 997.9116,87.8423 981,94 C866.4835,135.6964 727.4925,168.1187 649.5603,184.7303 " fill="none" id="META_TRACE_MATRIX-SR5_2" style="stroke: #A80036; stroke-width: 2.0;"/><polygon fill="#A80036" points="644.5163,185.8015,654.151,187.8443,649.4072,184.7626,652.4888,180.0188,644.5163,185.8015" style="stroke: #A80036; stroke-width: 1.0;"/><!--link PROD_SE_SWHW_ACCEPTED to SR5_2--><path d="M792.6469,72.0737 C746.2251,100.551 664.1712,150.8866 619.7072,178.1628 " fill="none" id="PROD_SE_SWHW_ACCEPTED-SR5_2" style="stroke: #A80036; stroke-width: 2.0;"/><polygon fill="#A80036" points="615.262,180.8897,625.0251,179.5929,619.5239,178.2751,620.8418,172.7739,615.262,180.8897" style="stroke: #A80036; stroke-width: 1.0;"/><!--link PROD_IVV_PROCEDURES_VERIFIED to SR5_2--><path d="M281.8183,72.0737 C353.5424,101.2429 481.6577,153.3455 547.4679,180.1095 " fill="none" id="PROD_IVV_PROCEDURES_VERIFIED-SR5_2" style="stroke: #A80036; stroke-width: 2.0;"/><polygon fill="#A80036" points="552.4824,182.1488,545.6523,175.053,547.8508,180.2652,542.6386,182.4636,552.4824,182.1488" style="stroke: #A80036; stroke-width: 1.0;"/><!--link SR5_2 to PROD_SYSTEM_INTEGRATED--><path d="M589,214.2417 C589,235.1165 589,270.4859 589,294.7534 " fill="none" id="SR5_2-PROD_SYSTEM_INTEGRATED" style="stroke: #A80036; stroke-width: 2.0;"/><polygon fill="#A80036" points="589,299.7541,593,290.7541,589,294.7541,585,290.7541,589,299.7541" style="stroke: #A80036; stroke-width: 1.0;"/><!--link DES to DEV--><!--link DES to IVV--><!--
@startuml



skinparam handwritten false
skinparam defaultFontName Futura


actor DES
actor DEV
actor IVV

artifact "IVV Procedures (verified)" as PROD_IVV_PROCEDURES_VERIFIED
artifact "SDD (validated)" as PROD_SDD_VALIDATED
artifact "SERS (validated)" as PROD_SERS_VALIDATED
artifact "System (integrated)" as PROD_SYSTEM_INTEGRATED
artifact "System Elements (SW+HW, accepted)" as PROD_SE_SWHW_ACCEPTED
artifact "Traceability Matrix" as META_TRACE_MATRIX

usecase "Integrate System" as SR5_2
PROD_SDD_VALIDATED ==> SR5_2
PROD_SERS_VALIDATED ==> SR5_2
META_TRACE_MATRIX ==> SR5_2
PROD_SE_SWHW_ACCEPTED ==> SR5_2
PROD_IVV_PROCEDURES_VERIFIED ==> SR5_2
SR5_2 ==> PROD_SYSTEM_INTEGRATED

@enduml

PlantUML version 1.2019.00(Sun Jan 13 07:46:42 PST 2019)
(GPL source distribution)
Java Runtime: Java(TM) SE Runtime Environment
JVM: Java HotSpot(TM) 64-Bit Server VM
Java Version: 10.0.1+10
Operating System: Mac OS X
OS Version: 10.14.3
Default Encoding: UTF-8
Language: en
Country: US
--></g></svg>