<svg xmlns="http://www.w3.org/2000/svg" height="384" preserveAspectRatio="none" style="width:702px;height:384px" width="702"><defs><filter height="300%" id="a" width="300%" x="-1" y="-1"><feGaussianBlur result="blurOut" stdDeviation="2"/><feColorMatrix in="blurOut" result="blurOut2" values="0 0 0 0 0 0 0 0 0 0 0 0 0 0 0 0 0 0 .4 0"/><feOffset dx="4" dy="4" in="blurOut2" result="blurOut3"/><feBlend in="SourceGraphic" in2="blurOut3"/></filter></defs><path fill="#FFF" filter="url(#a)" stroke="#000" stroke-width="1.5" d="M300.5 277h155v88h-155z"/><path fill="#FFF" stroke="#000" stroke-width="1.5" d="M438.5 282v14h12v-8l-6-6h-6z"/><path stroke="#000" stroke-width="1.5" d="M444.5 282v6M450.5 288h-6"/><text font-family="Futura" font-size="14" font-weight="bold" lengthAdjust="spacingAndGlyphs" textLength="54" x="351" y="293.966">System</text><path fill="#FFF" filter="url(#a)" stroke="#000" stroke-width="1.5" d="M465.5 248h220v125h-220z"/><path fill="#FFF" stroke="#000" stroke-width="1.5" d="M668.5 253v14h12v-8l-6-6h-6z"/><path stroke="#000" stroke-width="1.5" d="M674.5 253v6M680.5 259h-6"/><text font-family="Futura" font-size="14" font-weight="bold" lengthAdjust="spacingAndGlyphs" textLength="204" x="473.5" y="264.966">Product Acceptance Record</text><path fill="#FFF" filter="url(#a)" stroke="#000" stroke-width="1.5" d="M474.5 277h76v88h-76z"/><path fill="#FFF" stroke="#000" stroke-width="1.5" d="M530.5 282h15v10h-15z"/><path fill="#FFF" stroke="#000" stroke-width="1.5" d="M528.5 284h4v2h-4zM528.5 288h4v2h-4z"/><text font-family="Futura" font-size="14" font-weight="bold" lengthAdjust="spacingAndGlyphs" textLength="54" x="485.5" y="304.966">System</text><circle cx="424.5" cy="322" fill="#FEFECE" filter="url(#a)" stroke="#a80036" stroke-width="2" r="12"/><path fill="#A80036" stroke="#a80036" d="M420.5 310l6-5-2 5 2 5-6-5z"/><text font-family="Futura" font-size="14" lengthAdjust="spacingAndGlyphs" textLength="46" x="401.5" y="352.957">verified</text><circle cx="337.5" cy="322" fill="#FEFECE" filter="url(#a)" stroke="#a80036" stroke-width="2" r="12"/><path fill="#A80036" stroke="#a80036" d="M333.5 310l6-5-2 5 2 5-6-5z"/><text font-family="Futura" font-size="14" lengthAdjust="spacingAndGlyphs" textLength="57" x="309" y="352.957">validated</text><circle cx="512.5" cy="322" fill="#FEFECE" filter="url(#a)" stroke="#a80036" stroke-width="2" r="12"/><path fill="#A80036" stroke="#a80036" d="M508.5 310l6-5-2 5 2 5-6-5z"/><text font-family="Futura" font-size="14" lengthAdjust="spacingAndGlyphs" textLength="60" x="482.5" y="352.957">approved</text><circle cx="22.5" cy="18" fill="#FEFECE" filter="url(#a)" stroke="#a80036" stroke-width="2" r="8"/><path d="M22.5 26v27m-13-19h26m-13 19l-13 15m13-15l13 15" fill="none" filter="url(#a)" stroke="#a80036" stroke-width="2"/><text font-family="Futura" font-size="14" lengthAdjust="spacingAndGlyphs" textLength="24" x="10.5" y="89.957">SYS</text><circle cx="87.5" cy="18" fill="#FEFECE" filter="url(#a)" stroke="#a80036" stroke-width="2" r="8"/><path d="M87.5 26v27m-13-19h26m-13 19l-13 15m13-15l13 15" fill="none" filter="url(#a)" stroke="#a80036" stroke-width="2"/><text font-family="Futura" font-size="14" lengthAdjust="spacingAndGlyphs" textLength="22" x="76.5" y="89.957">IVV</text><circle cx="22.5" cy="164" fill="#FEFECE" filter="url(#a)" stroke="#a80036" stroke-width="2" r="8"/><path d="M22.5 172v27m-13-19h26m-13 19l-13 15m13-15l13 15" fill="none" filter="url(#a)" stroke="#a80036" stroke-width="2"/><text font-family="Futura" font-size="14" lengthAdjust="spacingAndGlyphs" textLength="33" x="6" y="235.957">ACQ</text><path fill="#FEFECE" filter="url(#a)" stroke="#000" stroke-width="1.5" d="M138 30h187v41.594H138z"/><path fill="#FEFECE" stroke="#000" stroke-width="1.5" d="M308 35v14h12v-8l-6-6h-6z"/><path stroke="#000" stroke-width="1.5" d="M314 35v6M320 41h-6"/><text font-family="Futura" font-size="14" lengthAdjust="spacingAndGlyphs" textLength="157" x="148" y="57.957">IVV Procedures (verified)</text><path fill="#FEFECE" filter="url(#a)" stroke="#000" stroke-width="1.5" d="M360 30h129v41.594H360z"/><path fill="#FEFECE" stroke="#000" stroke-width="1.5" d="M472 35v14h12v-8l-6-6h-6z"/><path stroke="#000" stroke-width="1.5" d="M478 35v6M484 41h-6"/><text font-family="Futura" font-size="14" lengthAdjust="spacingAndGlyphs" textLength="99" x="370" y="57.957">StRS (validated)</text><path fill="#FEFECE" filter="url(#a)" stroke="#000" stroke-width="1.5" d="M524 30h147v41.594H524z"/><path fill="#FEFECE" stroke="#000" stroke-width="1.5" d="M654 35v14h12v-8l-6-6h-6z"/><path stroke="#000" stroke-width="1.5" d="M660 35v6M666 41h-6"/><text font-family="Futura" font-size="14" lengthAdjust="spacingAndGlyphs" textLength="117" x="534" y="57.957">Traceability Matrix</text><ellipse cx="424.27" cy="197.154" fill="#FEFECE" filter="url(#a)" rx="71.27" ry="16.654" stroke="#a80036" stroke-width="1.5"/><text font-family="Futura" font-size="14" lengthAdjust="spacingAndGlyphs" textLength="100" x="374.27" y="202.951">Validate System</text><path d="M424.5 72.23v102.768" fill="none" stroke="#a80036" stroke-width="2"/><path fill="#A80036" stroke="#a80036" d="M424.5 180.284l4-9-4 4-4-4 4 9z"/><path d="M572.344 72.23l-124.59 105.145" fill="none" stroke="#a80036" stroke-width="2"/><path fill="#A80036" stroke="#a80036" d="M443.545 180.928l9.457-2.748-5.636-.477.477-5.637-4.298 8.862z"/><path d="M259.564 72.23l139.725 105.699" fill="none" stroke="#a80036" stroke-width="2"/><path fill="#A80036" stroke="#a80036" d="M403.534 181.14l-4.764-8.62.777 5.603-5.603.777 9.59 2.24z"/><path d="M424.5 305.761v-86.86" fill="none" stroke="#a80036" stroke-width="2"/><path fill="#A80036" stroke="#a80036" d="M424.5 213.763l-4 9 4-4 4 4-4-9z"/><path d="M410.5 213.517c-8 9.756-18 22.506-26 34.483-11.402 17.07-22.732 37.085-31.41 53.24" fill="none" stroke="#a80036" stroke-width="2"/><path fill="#A80036" stroke="#a80036" d="M350.714 305.687l7.768-6.054-5.413 1.644-1.644-5.413-.71 9.823z"/><path d="M438.031 213.619c7.76 9.79 17.51 22.54 25.469 34.381 11.57 17.214 23.37 37.234 32.492 53.355" fill="none" stroke="#a80036" stroke-width="2"/><path fill="#A80036" stroke="#a80036" d="M498.491 305.793l-.93-9.805-1.523 5.449-5.448-1.523 7.901 5.88z"/></svg>