<svg xmlns="http://www.w3.org/2000/svg" height="370" preserveAspectRatio="none" style="width:595px;height:370px" width="595"><defs><filter height="300%" id="a" width="300%" x="-1" y="-1"><feGaussianBlur result="blurOut" stdDeviation="2"/><feColorMatrix in="blurOut" result="blurOut2" values="0 0 0 0 0 0 0 0 0 0 0 0 0 0 0 0 0 0 .4 0"/><feOffset dx="4" dy="4" in="blurOut2" result="blurOut3"/><feBlend in="SourceGraphic" in2="blurOut3"/></filter></defs><path fill="#FFF" filter="url(#a)" stroke="#000" stroke-width="1.5" d="M199 271h135v88H199z"/><path fill="#FFF" stroke="#000" stroke-width="1.5" d="M317 276v14h12v-8l-6-6h-6z"/><path stroke="#000" stroke-width="1.5" d="M323 276v6M329 282h-6"/><text font-family="Futura" font-size="14" font-weight="bold" lengthAdjust="spacingAndGlyphs" textLength="64" x="234.5" y="287.966">IVV Plan</text><path fill="#FFF" filter="url(#a)" stroke="#000" stroke-width="1.5" d="M353 271h135v88H353z"/><path fill="#FFF" stroke="#000" stroke-width="1.5" d="M471 276v14h12v-8l-6-6h-6z"/><path stroke="#000" stroke-width="1.5" d="M477 276v6M483 282h-6"/><text font-family="Futura" font-size="14" font-weight="bold" lengthAdjust="spacingAndGlyphs" textLength="116" x="362.5" y="287.966">IVV Procedures</text><circle cx="307" cy="316" fill="#FEFECE" filter="url(#a)" stroke="#a80036" stroke-width="2" r="12"/><path fill="#A80036" stroke="#a80036" d="M303 304l6-5-2 5 2 5-6-5z"/><text font-family="Futura" font-size="14" lengthAdjust="spacingAndGlyphs" textLength="37" x="288.5" y="346.957">active</text><circle cx="230" cy="316" fill="#FEFECE" filter="url(#a)" stroke="#a80036" stroke-width="2" r="12"/><path fill="#A80036" stroke="#a80036" d="M226 304l6-5-2 5 2 5-6-5z"/><text font-family="Futura" font-size="14" lengthAdjust="spacingAndGlyphs" textLength="46" x="207" y="346.957">verified</text><circle cx="461" cy="316" fill="#FEFECE" filter="url(#a)" stroke="#a80036" stroke-width="2" r="12"/><path fill="#A80036" stroke="#a80036" d="M457 304l6-5-2 5 2 5-6-5z"/><text font-family="Futura" font-size="14" lengthAdjust="spacingAndGlyphs" textLength="37" x="442.5" y="346.957">active</text><circle cx="384" cy="316" fill="#FEFECE" filter="url(#a)" stroke="#a80036" stroke-width="2" r="12"/><path fill="#A80036" stroke="#a80036" d="M380 304l6-5-2 5 2 5-6-5z"/><text font-family="Futura" font-size="14" lengthAdjust="spacingAndGlyphs" textLength="46" x="361" y="346.957">verified</text><circle cx="21" cy="18" fill="#FEFECE" filter="url(#a)" stroke="#a80036" stroke-width="2" r="8"/><path d="M21 26v27M8 34h26M21 53L8 68m13-15l13 15" fill="none" filter="url(#a)" stroke="#a80036" stroke-width="2"/><text font-family="Futura" font-size="14" lengthAdjust="spacingAndGlyphs" textLength="24" x="9" y="89.957">SYS</text><circle cx="86" cy="18" fill="#FEFECE" filter="url(#a)" stroke="#a80036" stroke-width="2" r="8"/><path d="M86 26v27M73 34h26M86 53L73 68m13-15l13 15" fill="none" filter="url(#a)" stroke="#a80036" stroke-width="2"/><text font-family="Futura" font-size="14" lengthAdjust="spacingAndGlyphs" textLength="26" x="73" y="89.957">DES</text><circle cx="21" cy="164" fill="#FEFECE" filter="url(#a)" stroke="#a80036" stroke-width="2" r="8"/><path d="M21 172v27M8 180h26m-13 19L8 214m13-15l13 15" fill="none" filter="url(#a)" stroke="#a80036" stroke-width="2"/><text font-family="Futura" font-size="14" lengthAdjust="spacingAndGlyphs" textLength="27" x="7.5" y="235.957">DEV</text><circle cx="86" cy="164" fill="#FEFECE" filter="url(#a)" stroke="#a80036" stroke-width="2" r="8"/><path d="M86 172v27m-13-19h26m-13 19l-13 15m13-15l13 15" fill="none" filter="url(#a)" stroke="#a80036" stroke-width="2"/><text font-family="Futura" font-size="14" lengthAdjust="spacingAndGlyphs" textLength="22" x="75" y="235.957">IVV</text><path fill="#FEFECE" filter="url(#a)" stroke="#000" stroke-width="1.5" d="M136 30h104v41.594H136z"/><path fill="#FEFECE" stroke="#000" stroke-width="1.5" d="M223 35v14h12v-8l-6-6h-6z"/><path stroke="#000" stroke-width="1.5" d="M229 35v6M235 41h-6"/><text font-family="Futura" font-size="14" lengthAdjust="spacingAndGlyphs" textLength="74" x="146" y="57.957">Project Plan</text><path fill="#FEFECE" filter="url(#a)" stroke="#000" stroke-width="1.5" d="M275.5 30h139v41.594h-139z"/><path fill="#FEFECE" stroke="#000" stroke-width="1.5" d="M397.5 35v14h12v-8l-6-6h-6z"/><path stroke="#000" stroke-width="1.5" d="M403.5 35v6M409.5 41h-6"/><text font-family="Futura" font-size="14" lengthAdjust="spacingAndGlyphs" textLength="109" x="285.5" y="57.957">SysRS (validated)</text><path fill="#FEFECE" filter="url(#a)" stroke="#000" stroke-width="1.5" d="M449.5 30h129v41.594h-129z"/><path fill="#FEFECE" stroke="#000" stroke-width="1.5" d="M561.5 35v14h12v-8l-6-6h-6z"/><path stroke="#000" stroke-width="1.5" d="M567.5 35v6M573.5 41h-6"/><text font-family="Futura" font-size="14" lengthAdjust="spacingAndGlyphs" textLength="99" x="459.5" y="57.957">SDD (validated)</text><ellipse cx="344.918" cy="196.784" fill="#FEFECE" filter="url(#a)" rx="111.918" ry="24.784" stroke="#a80036" stroke-width="1.5"/><text font-family="Futura" font-size="14" lengthAdjust="spacingAndGlyphs" textLength="197" x="246.418" y="202.58">Verify IVV plan and procedures</text><path d="M210.83 72.23l103.913 96.633" fill="none" stroke="#a80036" stroke-width="2"/><path fill="#A80036" stroke="#a80036" d="M318.736 172.576l-3.866-9.058.205 5.653-5.653.206 9.314 3.2z"/><path d="M314.659 299.601l21.487-72.66" fill="none" stroke="#a80036" stroke-width="2"/><path fill="#A80036" stroke="#a80036" d="M337.583 222.081l-6.388 7.496 4.97-2.701 2.701 4.97-1.283-9.765z"/><path d="M445.895 299.908c-6.03-9.444-13.334-20.005-20.895-28.908-14.113-16.618-31.73-33.27-46.837-46.557" fill="none" stroke="#a80036" stroke-width="2"/><path fill="#A80036" stroke="#a80036" d="M374.38 221.14l4.148 8.932-.382-5.644 5.644-.381-9.41-2.907z"/><path d="M345 72.23v94.48" fill="none" stroke="#a80036" stroke-width="2"/><path fill="#A80036" stroke="#a80036" d="M345 171.822l4-9-4 4-4-4 4 9z"/><path d="M489.426 72.23L377.17 169.208" fill="none" stroke="#a80036" stroke-width="2"/><path fill="#A80036" stroke="#a80036" d="M373.271 172.576l9.426-2.856-5.642-.412.412-5.642-4.196 8.91z"/><path d="M318.746 221.496C304.173 235.52 286.012 253.716 271 271c-6.682 7.693-13.505 16.373-19.62 24.507" fill="none" stroke="#a80036" stroke-width="2"/><path fill="#A80036" stroke="#a80036" d="M248.062 299.96l8.586-4.826-5.598.817-.817-5.598-2.17 9.607z"/><path d="M352.612 222.081l22.038 72.613" fill="none" stroke="#a80036" stroke-width="2"/><path fill="#A80036" stroke="#a80036" d="M376.14 299.601l1.213-9.774-2.666 4.99-4.989-2.666 6.442 7.45z"/></svg>