<svg xmlns="http://www.w3.org/2000/svg" height="317" preserveAspectRatio="none" style="width:275px;height:317px" width="275"><defs><filter height="300%" id="a" width="300%" x="-1" y="-1"><feGaussianBlur result="blurOut" stdDeviation="2"/><feColorMatrix in="blurOut" result="blurOut2" values="0 0 0 0 0 0 0 0 0 0 0 0 0 0 0 0 0 0 .4 0"/><feOffset dx="4" dy="4" in="blurOut2" result="blurOut3"/><feBlend in="SourceGraphic" in2="blurOut3"/></filter></defs><path fill="#FFF" filter="url(#a)" stroke="#000" stroke-width="1.5" d="M80 218h169v88H80z"/><path fill="#FFF" stroke="#000" stroke-width="1.5" d="M232 223v14h12v-8l-6-6h-6z"/><path stroke="#000" stroke-width="1.5" d="M238 223v6M244 229h-6"/><text font-family="Futura" font-size="14" font-weight="bold" lengthAdjust="spacingAndGlyphs" textLength="54" x="137.5" y="234.966">System</text><circle cx="212" cy="263" fill="#FEFECE" filter="url(#a)" stroke="#a80036" stroke-width="2" r="12"/><path fill="#A80036" stroke="#a80036" d="M208 251l6-5-2 5 2 5-6-5z"/><text font-family="Futura" font-size="14" lengthAdjust="spacingAndGlyphs" textLength="57" x="183.5" y="293.957">validated</text><circle cx="118" cy="263" fill="#FEFECE" filter="url(#a)" stroke="#a80036" stroke-width="2" r="12"/><path fill="#A80036" stroke="#a80036" d="M114 251l6-5-2 5 2 5-6-5z"/><text font-family="Futura" font-size="14" lengthAdjust="spacingAndGlyphs" textLength="60" x="88" y="293.957">corrected</text><circle cx="21" cy="18" fill="#FEFECE" filter="url(#a)" stroke="#a80036" stroke-width="2" r="8"/><path d="M21 26v27M8 34h26M21 53L8 68m13-15l13 15" fill="none" filter="url(#a)" stroke="#a80036" stroke-width="2"/><text font-family="Futura" font-size="14" lengthAdjust="spacingAndGlyphs" textLength="22" x="10" y="89.957">WT</text><path fill="#FEFECE" filter="url(#a)" stroke="#000" stroke-width="1.5" d="M71.5 30h187v41.594h-187z"/><path fill="#FEFECE" stroke="#000" stroke-width="1.5" d="M241.5 35v14h12v-8l-6-6h-6z"/><path stroke="#000" stroke-width="1.5" d="M247.5 35v6M253.5 41h-6"/><text font-family="Futura" font-size="14" lengthAdjust="spacingAndGlyphs" textLength="157" x="81.5" y="57.957">IVV Procedures (verified)</text><ellipse cx="165.041" cy="170.508" fill="#FEFECE" filter="url(#a)" rx="70.541" ry="16.508" stroke="#a80036" stroke-width="1.5"/><text font-family="Futura" font-size="14" lengthAdjust="spacingAndGlyphs" textLength="98" x="116.041" y="176.305">Correct Defects</text><path d="M200.172 246.831l-25.216-54.724" fill="none" stroke="#a80036" stroke-width="2"/><path fill="#A80036" stroke="#a80036" d="M172.761 187.343l.134 9.848 1.958-5.307 5.307 1.96-7.399-6.5z"/><path d="M165 72.09v76.76" fill="none" stroke="#a80036" stroke-width="2"/><path fill="#A80036" stroke="#a80036" d="M165 153.855l4-9-4 4-4-4 4 9z"/><path d="M157.239 187.343l-25.14 54.56" fill="none" stroke="#a80036" stroke-width="2"/><path fill="#A80036" stroke="#a80036" d="M129.828 246.831l7.4-6.5-5.308 1.959-1.959-5.307-.133 9.848z"/></svg>