<svg xmlns="http://www.w3.org/2000/svg" height="316" preserveAspectRatio="none" style="width:696px;height:316px" width="696"><defs><filter height="300%" id="a" width="300%" x="-1" y="-1"><feGaussianBlur result="blurOut" stdDeviation="2"/><feColorMatrix in="blurOut" result="blurOut2" values="0 0 0 0 0 0 0 0 0 0 0 0 0 0 0 0 0 0 .4 0"/><feOffset dx="4" dy="4" in="blurOut2" result="blurOut3"/><feBlend in="SourceGraphic" in2="blurOut3"/></filter></defs><path fill="#FFF" filter="url(#a)" stroke="#000" stroke-width="1.5" d="M352 217h161v88H352z"/><path fill="#FFF" stroke="#000" stroke-width="1.5" d="M496 222v14h12v-8l-6-6h-6z"/><path stroke="#000" stroke-width="1.5" d="M502 222v6M508 228h-6"/><text font-family="Futura" font-size="14" font-weight="bold" lengthAdjust="spacingAndGlyphs" textLength="54" x="405.5" y="233.966">System</text><circle cx="473" cy="262" fill="#FEFECE" filter="url(#a)" stroke="#a80036" stroke-width="2" r="12"/><path fill="#A80036" stroke="#a80036" d="M469 250l6-5-2 5 2 5-6-5z"/><text font-family="Futura" font-size="14" lengthAdjust="spacingAndGlyphs" textLength="64" x="441" y="292.957">integrated</text><circle cx="383" cy="262" fill="#FEFECE" filter="url(#a)" stroke="#a80036" stroke-width="2" r="12"/><path fill="#A80036" stroke="#a80036" d="M379 250l6-5-2 5 2 5-6-5z"/><text font-family="Futura" font-size="14" lengthAdjust="spacingAndGlyphs" textLength="46" x="360" y="292.957">verified</text><circle cx="21" cy="18" fill="#FEFECE" filter="url(#a)" stroke="#a80036" stroke-width="2" r="8"/><path d="M21 26v27M8 34h26M21 53L8 68m13-15l13 15" fill="none" filter="url(#a)" stroke="#a80036" stroke-width="2"/><text font-family="Futura" font-size="14" lengthAdjust="spacingAndGlyphs" textLength="24" x="9" y="89.957">SYS</text><circle cx="86" cy="18" fill="#FEFECE" filter="url(#a)" stroke="#a80036" stroke-width="2" r="8"/><path d="M86 26v27M73 34h26M86 53L73 68m13-15l13 15" fill="none" filter="url(#a)" stroke="#a80036" stroke-width="2"/><text font-family="Futura" font-size="14" lengthAdjust="spacingAndGlyphs" textLength="22" x="75" y="89.957">IVV</text><path fill="#FEFECE" filter="url(#a)" stroke="#000" stroke-width="1.5" d="M136.5 30h187v41.594h-187z"/><path fill="#FEFECE" stroke="#000" stroke-width="1.5" d="M306.5 35v14h12v-8l-6-6h-6z"/><path stroke="#000" stroke-width="1.5" d="M312.5 35v6M318.5 41h-6"/><text font-family="Futura" font-size="14" lengthAdjust="spacingAndGlyphs" textLength="157" x="146.5" y="57.957">IVV Procedures (verified)</text><path fill="#FEFECE" filter="url(#a)" stroke="#000" stroke-width="1.5" d="M358.5 30h139v41.594h-139z"/><path fill="#FEFECE" stroke="#000" stroke-width="1.5" d="M480.5 35v14h12v-8l-6-6h-6z"/><path stroke="#000" stroke-width="1.5" d="M486.5 35v6M492.5 41h-6"/><text font-family="Futura" font-size="14" lengthAdjust="spacingAndGlyphs" textLength="109" x="368.5" y="57.957">SysRS (validated)</text><path fill="#FEFECE" filter="url(#a)" stroke="#000" stroke-width="1.5" d="M532.5 30h147v41.594h-147z"/><path fill="#FEFECE" stroke="#000" stroke-width="1.5" d="M662.5 35v14h12v-8l-6-6h-6z"/><path stroke="#000" stroke-width="1.5" d="M668.5 35v6M674.5 41h-6"/><text font-family="Futura" font-size="14" lengthAdjust="spacingAndGlyphs" textLength="117" x="542.5" y="57.957">Traceability Matrix</text><ellipse cx="427.811" cy="170.148" fill="#FEFECE" filter="url(#a)" rx="63.811" ry="16.148" stroke="#a80036" stroke-width="1.5"/><text font-family="Futura" font-size="14" lengthAdjust="spacingAndGlyphs" textLength="86" x="384.811" y="175.945">Verify System</text><path d="M461.573 245.725l-24.248-54.693" fill="none" stroke="#a80036" stroke-width="2"/><path fill="#A80036" stroke="#a80036" d="M435.23 186.308l-.009 9.849 2.036-5.278 5.278 2.035-7.305-6.606z"/><path d="M428 72v76.538" fill="none" stroke="#a80036" stroke-width="2"/><path fill="#A80036" stroke="#a80036" d="M428 153.79l4-9-4 4-4-4 4 9z"/><path d="M574.587 72l-119.76 80.066" fill="none" stroke="#a80036" stroke-width="2"/><path fill="#A80036" stroke="#a80036" d="M450.637 154.866l9.705-1.677-5.548-1.102 1.102-5.548-5.259 8.327z"/><path d="M264.943 72l133.816 80.426" fill="none" stroke="#a80036" stroke-width="2"/><path fill="#A80036" stroke="#a80036" d="M403.406 155.219l-5.653-8.065 1.368 5.49-5.49 1.367 9.775 1.208z"/><path d="M420.77 186.308l-24.152 54.476" fill="none" stroke="#a80036" stroke-width="2"/><path fill="#A80036" stroke="#a80036" d="M394.427 245.725l7.305-6.606-5.278 2.035-2.036-5.278.01 9.85z"/></svg>