<?xml version="1.0" encoding="UTF-8" standalone="no"?><svg xmlns="http://www.w3.org/2000/svg" xmlns:xlink="http://www.w3.org/1999/xlink" contentScriptType="application/ecmascript" contentStyleType="text/css" height="307px" preserveAspectRatio="none" style="width:504px;height:307px;" version="1.1" viewBox="0 0 504 307" width="504px" zoomAndPan="magnify"><defs><filter height="300%" id="f1urnf1buv9yal" width="300%" x="-1" y="-1"><feGaussianBlur result="blurOut" stdDeviation="2.0"/><feColorMatrix in="blurOut" result="blurOut2" type="matrix" values="0 0 0 0 0 0 0 0 0 0 0 0 0 0 0 0 0 0 .4 0"/><feOffset dx="4.0" dy="4.0" in="blurOut2" result="blurOut3"/><feBlend in="SourceGraphic" in2="blurOut3" mode="normal"/></filter></defs><g><!--cluster Product Acceptance Record--><rect fill="#FFFFFF" filter="url(#f1urnf1buv9yal)" height="76" style="stroke: #000000; stroke-width: 1.5;" width="220" x="267" y="220"/><polygon fill="#FFFFFF" points="470,225,470,239,482,239,482,231,476,225,470,225" style="stroke: #000000; stroke-width: 1.5;"/><line style="stroke: #000000; stroke-width: 1.5;" x1="476" x2="476" y1="225" y2="231"/><line style="stroke: #000000; stroke-width: 1.5;" x1="482" x2="476" y1="231" y2="231"/><text fill="#000000" font-family="Futura" font-size="14" font-weight="bold" lengthAdjust="spacingAndGlyphs" textLength="204" x="275" y="236.966">Product Acceptance Record</text><!--entity PROD_ACCEPTANCE--><rect fill="#FEFECE" filter="url(#f1urnf1buv9yal)" height="38.5938" style="stroke: #A80036; stroke-width: 1.5;" width="68" x="285" y="249"/><rect fill="#FEFECE" height="5" style="stroke: #A80036; stroke-width: 1.5;" width="10" x="280" y="254"/><rect fill="#FEFECE" height="5" style="stroke: #A80036; stroke-width: 1.5;" width="10" x="280" y="277.5938"/><text fill="#000000" font-family="Futura" font-size="14" lengthAdjust="spacingAndGlyphs" textLength="48" x="295" y="273.957">Product</text><!--entity PJM--><ellipse cx="21" cy="18.5" fill="#FEFECE" filter="url(#f1urnf1buv9yal)" rx="8" ry="8" style="stroke: #A80036; stroke-width: 2.0;"/><path d="M21,26.5 L21,53.5 M8,34.5 L34,34.5 M21,53.5 L8,68.5 M21,53.5 L34,68.5 " fill="none" filter="url(#f1urnf1buv9yal)" style="stroke: #A80036; stroke-width: 2.0;"/><text fill="#000000" font-family="Futura" font-size="14" lengthAdjust="spacingAndGlyphs" textLength="27" x="7.5" y="90.457">PJM</text><!--entity WT--><ellipse cx="86" cy="18.5" fill="#FEFECE" filter="url(#f1urnf1buv9yal)" rx="8" ry="8" style="stroke: #A80036; stroke-width: 2.0;"/><path d="M86,26.5 L86,53.5 M73,34.5 L99,34.5 M86,53.5 L73,68.5 M86,53.5 L99,68.5 " fill="none" filter="url(#f1urnf1buv9yal)" style="stroke: #A80036; stroke-width: 2.0;"/><text fill="#000000" font-family="Futura" font-size="14" lengthAdjust="spacingAndGlyphs" textLength="22" x="75" y="90.457">WT</text><!--entity PROD_PP--><rect fill="#FEFECE" filter="url(#f1urnf1buv9yal)" height="41.5938" style="stroke: #000000; stroke-width: 1.5;" width="104" x="136" y="30.5"/><polygon fill="#FEFECE" points="223,35.5,223,49.5,235,49.5,235,41.5,229,35.5,223,35.5" style="stroke: #000000; stroke-width: 1.5;"/><line style="stroke: #000000; stroke-width: 1.5;" x1="229" x2="229" y1="35.5" y2="41.5"/><line style="stroke: #000000; stroke-width: 1.5;" x1="235" x2="229" y1="41.5" y2="41.5"/><text fill="#000000" font-family="Futura" font-size="14" lengthAdjust="spacingAndGlyphs" textLength="74" x="146" y="58.457">Project Plan</text><!--entity PROD_SE_ALL--><rect fill="#FEFECE" filter="url(#f1urnf1buv9yal)" height="41.5938" style="stroke: #000000; stroke-width: 1.5;" width="135" x="275.5" y="30.5"/><polygon fill="#FEFECE" points="393.5,35.5,393.5,49.5,405.5,49.5,405.5,41.5,399.5,35.5,393.5,35.5" style="stroke: #000000; stroke-width: 1.5;"/><line style="stroke: #000000; stroke-width: 1.5;" x1="399.5" x2="399.5" y1="35.5" y2="41.5"/><line style="stroke: #000000; stroke-width: 1.5;" x1="405.5" x2="399.5" y1="41.5" y2="41.5"/><text fill="#000000" font-family="Futura" font-size="14" lengthAdjust="spacingAndGlyphs" textLength="105" x="285.5" y="58.457">System Elements</text><!--entity PROD_PRODUCT--><rect fill="#FEFECE" filter="url(#f1urnf1buv9yal)" height="41.5938" style="stroke: #000000; stroke-width: 1.5;" width="78" x="172" y="247.5"/><polygon fill="#FEFECE" points="233,252.5,233,266.5,245,266.5,245,258.5,239,252.5,233,252.5" style="stroke: #000000; stroke-width: 1.5;"/><line style="stroke: #000000; stroke-width: 1.5;" x1="239" x2="239" y1="252.5" y2="258.5"/><line style="stroke: #000000; stroke-width: 1.5;" x1="245" x2="239" y1="258.5" y2="258.5"/><text fill="#000000" font-family="Futura" font-size="14" lengthAdjust="spacingAndGlyphs" textLength="48" x="182" y="275.457">Product</text><ellipse cx="265.1792" cy="170.9358" fill="#FEFECE" filter="url(#f1urnf1buv9yal)" rx="70.1792" ry="16.4358" style="stroke: #A80036; stroke-width: 1.5;"/><text fill="#000000" font-family="Futura" font-size="14" lengthAdjust="spacingAndGlyphs" textLength="97" x="216.6792" y="176.7327">Review Product</text><!--link PROD_SE_ALL to SR6_1--><path d="M329.2347,72.5891 C315.0257,94.3581 292.9849,128.1257 278.773,149.8991 " fill="none" id="PROD_SE_ALL-SR6_1" style="stroke: #A80036; stroke-width: 2.0;"/><polygon fill="#A80036" points="275.8648,154.3546,284.1338,149.0044,278.5978,150.1676,277.4346,144.6317,275.8648,154.3546" style="stroke: #A80036; stroke-width: 1.0;"/><!--link PROD_PP to SR6_1--><path d="M201.5888,72.5891 C215.6157,94.3581 237.3739,128.1257 251.4036,149.8991 " fill="none" id="PROD_PP-SR6_1" style="stroke: #A80036; stroke-width: 2.0;"/><polygon fill="#A80036" points="254.2745,154.3546,252.762,144.6226,251.5662,150.1516,246.0372,148.9558,254.2745,154.3546" style="stroke: #A80036; stroke-width: 1.0;"/><!--link SR6_1 to PROD_ACCEPTANCE--><path d="M274.1604,187.5395 C282.7419,203.0339 295.6752,226.3859 305.45,244.0347 " fill="none" id="SR6_1-PROD_ACCEPTANCE" style="stroke: #A80036; stroke-width: 2.0;"/><polygon fill="#A80036" points="308.117,248.8501,307.2556,239.039,305.6945,244.4762,300.2573,242.915,308.117,248.8501" style="stroke: #A80036; stroke-width: 1.0;"/><!--link SR6_1 to PROD_PRODUCT--><path d="M255.8396,187.5395 C247.4782,202.6366 234.9851,225.1935 225.308,242.6661 " fill="none" id="SR6_1-PROD_PRODUCT" style="stroke: #A80036; stroke-width: 2.0;"/><polygon fill="#A80036" points="222.659,247.449,230.5187,241.5139,225.0815,243.0751,223.5204,237.6379,222.659,247.449" style="stroke: #A80036; stroke-width: 1.0;"/><!--
@startuml



skinparam handwritten false
skinparam defaultFontName Futura


actor PJM
actor WT

artifact "Project Plan" as PROD_PP
artifact "System Elements" as PROD_SE_ALL
artifact "Product" as PROD_PRODUCT
artifact "Product Acceptance Record" {
  component "Product" as PROD_ACCEPTANCE
}

usecase "Review Product" as SR6_1
PROD_SE_ALL ==> SR6_1
PROD_PP ==> SR6_1
SR6_1 ==> PROD_ACCEPTANCE
SR6_1 ==> PROD_PRODUCT

@enduml

PlantUML version 1.2019.00(Sun Jan 13 07:46:42 PST 2019)
(GPL source distribution)
Java Runtime: Java(TM) SE Runtime Environment
JVM: Java HotSpot(TM) 64-Bit Server VM
Java Version: 10.0.1+10
Operating System: Mac OS X
OS Version: 10.14.3
Default Encoding: UTF-8
Language: en
Country: US
--></g></svg>