<svg xmlns="http://www.w3.org/2000/svg" height="300" preserveAspectRatio="none" style="width:442px;height:300px" width="442"><defs><filter height="300%" id="a" width="300%" x="-1" y="-1"><feGaussianBlur result="blurOut" stdDeviation="2"/><feColorMatrix in="blurOut" result="blurOut2" values="0 0 0 0 0 0 0 0 0 0 0 0 0 0 0 0 0 0 .4 0"/><feOffset dx="4" dy="4" in="blurOut2" result="blurOut3"/><feBlend in="SourceGraphic" in2="blurOut3"/></filter></defs><circle cx="21" cy="18" fill="#FEFECE" filter="url(#a)" stroke="#a80036" stroke-width="2" r="8"/><path d="M21 26v27M8 34h26M21 53L8 68m13-15l13 15" fill="none" filter="url(#a)" stroke="#a80036" stroke-width="2"/><text font-family="Futura" font-size="14" lengthAdjust="spacingAndGlyphs" textLength="27" x="7.5" y="89.957">PJM</text><circle cx="88" cy="18" fill="#FEFECE" filter="url(#a)" stroke="#a80036" stroke-width="2" r="8"/><path d="M88 26v27M75 34h26M88 53L75 68m13-15l13 15" fill="none" filter="url(#a)" stroke="#a80036" stroke-width="2"/><text font-family="Futura" font-size="14" lengthAdjust="spacingAndGlyphs" textLength="33" x="71.5" y="89.957">ACQ</text><path fill="#FEFECE" filter="url(#a)" stroke="#000" stroke-width="1.5" d="M140 30h104v41.594H140z"/><path fill="#FEFECE" stroke="#000" stroke-width="1.5" d="M227 35v14h12v-8l-6-6h-6z"/><path stroke="#000" stroke-width="1.5" d="M233 35v6M239 41h-6"/><text font-family="Futura" font-size="14" lengthAdjust="spacingAndGlyphs" textLength="74" x="150" y="57.957">Project Plan</text><path fill="#FEFECE" filter="url(#a)" stroke="#000" stroke-width="1.5" d="M279 30h146v41.594H279z"/><path fill="#FEFECE" stroke="#000" stroke-width="1.5" d="M408 35v14h12v-8l-6-6h-6z"/><path stroke="#000" stroke-width="1.5" d="M414 35v6M420 41h-6"/><text font-family="Futura" font-size="14" lengthAdjust="spacingAndGlyphs" textLength="116" x="289" y="57.957">System (validated)</text><path fill="#FEFECE" filter="url(#a)" stroke="#000" stroke-width="1.5" d="M197 248h150v41.594H197z"/><path fill="#FEFECE" stroke="#000" stroke-width="1.5" d="M330 253v14h12v-8l-6-6h-6z"/><path stroke="#000" stroke-width="1.5" d="M336 253v6M342 259h-6"/><text font-family="Futura" font-size="14" lengthAdjust="spacingAndGlyphs" textLength="120" x="207" y="275.957">Product (delivered)</text><ellipse cx="272.122" cy="171.024" fill="#FEFECE" filter="url(#a)" rx="73.122" ry="17.024" stroke="#a80036" stroke-width="1.5"/><text font-family="Futura" font-size="14" lengthAdjust="spacingAndGlyphs" textLength="105" x="219.622" y="176.821">Perform Delivery</text><path d="M206.118 72.177l51.686 77.53" fill="none" stroke="#a80036" stroke-width="2"/><path fill="#A80036" stroke="#a80036" d="M260.609 153.913l-1.664-9.707-1.11 5.547-5.546-1.11 8.32 5.27z"/><path d="M337.882 72.177l-51.686 77.53" fill="none" stroke="#a80036" stroke-width="2"/><path fill="#A80036" stroke="#a80036" d="M283.391 153.913l8.32-5.27-5.547 1.11-1.109-5.547-1.664 9.708z"/><path d="M272 188.07v54.407" fill="none" stroke="#a80036" stroke-width="2"/><path fill="#A80036" stroke="#a80036" d="M272 247.683l4-9-4 4-4-4 4 9z"/></svg>