<?xml version="1.0" encoding="UTF-8" standalone="no"?><svg xmlns="http://www.w3.org/2000/svg" xmlns:xlink="http://www.w3.org/1999/xlink" contentScriptType="application/ecmascript" contentStyleType="text/css" height="308px" preserveAspectRatio="none" style="width:498px;height:308px;" version="1.1" viewBox="0 0 498 308" width="498px" zoomAndPan="magnify"><defs><filter height="300%" id="f1vv1sbgczpvzs" width="300%" x="-1" y="-1"><feGaussianBlur result="blurOut" stdDeviation="2.0"/><feColorMatrix in="blurOut" result="blurOut2" type="matrix" values="0 0 0 0 0 0 0 0 0 0 0 0 0 0 0 0 0 0 .4 0"/><feOffset dx="4.0" dy="4.0" in="blurOut2" result="blurOut3"/><feBlend in="SourceGraphic" in2="blurOut3" mode="normal"/></filter></defs><g><!--entity SYS--><ellipse cx="21" cy="18" fill="#FEFECE" filter="url(#f1vv1sbgczpvzs)" rx="8" ry="8" style="stroke: #A80036; stroke-width: 2.0;"/><path d="M21,26 L21,53 M8,34 L34,34 M21,53 L8,68 M21,53 L34,68 " fill="none" filter="url(#f1vv1sbgczpvzs)" style="stroke: #A80036; stroke-width: 2.0;"/><text fill="#000000" font-family="Futura" font-size="14" lengthAdjust="spacingAndGlyphs" textLength="24" x="9" y="89.957">SYS</text><!--entity DES--><ellipse cx="86" cy="18" fill="#FEFECE" filter="url(#f1vv1sbgczpvzs)" rx="8" ry="8" style="stroke: #A80036; stroke-width: 2.0;"/><path d="M86,26 L86,53 M73,34 L99,34 M86,53 L73,68 M86,53 L99,68 " fill="none" filter="url(#f1vv1sbgczpvzs)" style="stroke: #A80036; stroke-width: 2.0;"/><text fill="#000000" font-family="Futura" font-size="14" lengthAdjust="spacingAndGlyphs" textLength="26" x="73" y="89.957">DES</text><!--entity PROD_TRAINING--><rect fill="#FEFECE" filter="url(#f1vv1sbgczpvzs)" height="41.5938" style="stroke: #000000; stroke-width: 1.5;" width="170" x="216" y="256"/><polygon fill="#FEFECE" points="369,261,369,275,381,275,381,267,375,261,369,261" style="stroke: #000000; stroke-width: 1.5;"/><line style="stroke: #000000; stroke-width: 1.5;" x1="375" x2="375" y1="261" y2="267"/><line style="stroke: #000000; stroke-width: 1.5;" x1="381" x2="375" y1="267" y2="267"/><text fill="#000000" font-family="Futura" font-size="14" lengthAdjust="spacingAndGlyphs" textLength="140" x="226" y="283.957">System Training Specs</text><!--entity PROD_SYSRS_VALIDATED--><rect fill="#FEFECE" filter="url(#f1vv1sbgczpvzs)" height="41.5938" style="stroke: #000000; stroke-width: 1.5;" width="139" x="136.5" y="30"/><polygon fill="#FEFECE" points="258.5,35,258.5,49,270.5,49,270.5,41,264.5,35,258.5,35" style="stroke: #000000; stroke-width: 1.5;"/><line style="stroke: #000000; stroke-width: 1.5;" x1="264.5" x2="264.5" y1="35" y2="41"/><line style="stroke: #000000; stroke-width: 1.5;" x1="270.5" x2="264.5" y1="41" y2="41"/><text fill="#000000" font-family="Futura" font-size="14" lengthAdjust="spacingAndGlyphs" textLength="109" x="146.5" y="57.957">SysSR (validated)</text><!--entity PROD_USERMANUAL_VERIFIED--><rect fill="#FEFECE" filter="url(#f1vv1sbgczpvzs)" height="41.5938" style="stroke: #000000; stroke-width: 1.5;" width="171" x="310.5" y="30"/><polygon fill="#FEFECE" points="464.5,35,464.5,49,476.5,49,476.5,41,470.5,35,464.5,35" style="stroke: #000000; stroke-width: 1.5;"/><line style="stroke: #000000; stroke-width: 1.5;" x1="470.5" x2="470.5" y1="35" y2="41"/><line style="stroke: #000000; stroke-width: 1.5;" x1="476.5" x2="470.5" y1="41" y2="41"/><text fill="#000000" font-family="Futura" font-size="14" lengthAdjust="spacingAndGlyphs" textLength="141" x="320.5" y="57.957">User Manual (verified)</text><ellipse cx="301.0156" cy="174.9031" fill="#FEFECE" filter="url(#f1vv1sbgczpvzs)" rx="92.5156" ry="20.9031" style="stroke: #A80036; stroke-width: 1.5;"/><text fill="#000000" font-family="Futura" font-size="14" lengthAdjust="spacingAndGlyphs" textLength="153" x="224.5156" y="180.7">Document Training Spec</text><!--link PROD_SYSRS_VALIDATED to SR6_3--><path d="M222.1155,72.0349 C238.6609,93.631 264.4018,127.2297 281.9461,150.1296 " fill="none" id="PROD_SYSRS_VALIDATED-SR6_3" style="stroke: #A80036; stroke-width: 2.0;"/><polygon fill="#A80036" points="285.1225,154.2757,282.8243,144.6987,282.0817,150.3066,276.4738,149.564,285.1225,154.2757" style="stroke: #A80036; stroke-width: 1.0;"/><!--link PROD_USERMANUAL_VERIFIED to SR6_3--><path d="M379.8845,72.0349 C363.3391,93.631 337.5982,127.2297 320.0539,150.1296 " fill="none" id="PROD_USERMANUAL_VERIFIED-SR6_3" style="stroke: #A80036; stroke-width: 2.0;"/><polygon fill="#A80036" points="316.8775,154.2757,325.5262,149.564,319.9183,150.3066,319.1757,144.6987,316.8775,154.2757" style="stroke: #A80036; stroke-width: 1.0;"/><!--link SR6_3 to PROD_TRAINING--><path d="M301,196.1345 C301,211.999 301,233.8167 301,250.7919 " fill="none" id="SR6_3-PROD_TRAINING" style="stroke: #A80036; stroke-width: 2.0;"/><polygon fill="#A80036" points="301,255.8926,305,246.8926,301,250.8926,297,246.8926,301,255.8926" style="stroke: #A80036; stroke-width: 1.0;"/><!--
@startuml



skinparam handwritten false
skinparam defaultFontName Futura


actor SYS
actor DES

artifact "System Training Specs" as PROD_TRAINING
artifact "SysSR (validated)" as PROD_SYSRS_VALIDATED
artifact "User Manual (verified)" as PROD_USERMANUAL_VERIFIED

usecase "Document Training Spec" as SR6_3
PROD_SYSRS_VALIDATED ==> SR6_3
PROD_USERMANUAL_VERIFIED ==> SR6_3
SR6_3 ==> PROD_TRAINING

@enduml

PlantUML version 1.2019.00(Sun Jan 13 07:46:42 PST 2019)
(GPL source distribution)
Java Runtime: Java(TM) SE Runtime Environment
JVM: Java HotSpot(TM) 64-Bit Server VM
Java Version: 10.0.1+10
Operating System: Mac OS X
OS Version: 10.14.3
Default Encoding: UTF-8
Language: en
Country: US
--></g></svg>