<?xml version="1.0" encoding="UTF-8" standalone="no"?><svg xmlns="http://www.w3.org/2000/svg" xmlns:xlink="http://www.w3.org/1999/xlink" contentScriptType="application/ecmascript" contentStyleType="text/css" height="650px" preserveAspectRatio="none" style="width:1194px;height:650px;" version="1.1" viewBox="0 0 1194 650" width="1194px" zoomAndPan="magnify"><defs><filter height="300%" id="f11tjxhjjmxr0v" width="300%" x="-1" y="-1"><feGaussianBlur result="blurOut" stdDeviation="2.0"/><feColorMatrix in="blurOut" result="blurOut2" type="matrix" values="0 0 0 0 0 0 0 0 0 0 0 0 0 0 0 0 0 0 .4 0"/><feOffset dx="4.0" dy="4.0" in="blurOut2" result="blurOut3"/><feBlend in="SourceGraphic" in2="blurOut3" mode="normal"/></filter></defs><g><!--cluster Product Acceptance Record--><rect fill="#FFFFFF" filter="url(#f11tjxhjjmxr0v)" height="125" style="stroke: #000000; stroke-width: 1.5;" width="220" x="411.5" y="514"/><polygon fill="#FFFFFF" points="614.5,519,614.5,533,626.5,533,626.5,525,620.5,519,614.5,519" style="stroke: #000000; stroke-width: 1.5;"/><line style="stroke: #000000; stroke-width: 1.5;" x1="620.5" x2="620.5" y1="519" y2="525"/><line style="stroke: #000000; stroke-width: 1.5;" x1="626.5" x2="620.5" y1="525" y2="525"/><text fill="#000000" font-family="Futura" font-size="14" font-weight="bold" lengthAdjust="spacingAndGlyphs" textLength="204" x="419.5" y="530.966">Product Acceptance Record</text><!--cluster PROD_ACCEPTANCE--><rect fill="#FFFFFF" filter="url(#f11tjxhjjmxr0v)" height="88" style="stroke: #000000; stroke-width: 1.5;" width="111" x="510.5" y="543"/><rect fill="#FFFFFF" height="10" style="stroke: #000000; stroke-width: 1.5;" width="15" x="601.5" y="548"/><rect fill="#FFFFFF" height="2" style="stroke: #000000; stroke-width: 1.5;" width="4" x="599.5" y="550"/><rect fill="#FFFFFF" height="2" style="stroke: #000000; stroke-width: 1.5;" width="4" x="599.5" y="554"/><text fill="#000000" font-family="Futura" font-size="14" font-weight="bold" lengthAdjust="spacingAndGlyphs" textLength="57" x="537.5" y="570.966">Product</text><!--cluster Product--><rect fill="#FFFFFF" filter="url(#f11tjxhjjmxr0v)" height="88" style="stroke: #000000; stroke-width: 1.5;" width="179" x="310.5" y="288.5"/><polygon fill="#FFFFFF" points="472.5,293.5,472.5,307.5,484.5,307.5,484.5,299.5,478.5,293.5,472.5,293.5" style="stroke: #000000; stroke-width: 1.5;"/><line style="stroke: #000000; stroke-width: 1.5;" x1="478.5" x2="478.5" y1="293.5" y2="299.5"/><line style="stroke: #000000; stroke-width: 1.5;" x1="484.5" x2="478.5" y1="299.5" y2="299.5"/><text fill="#000000" font-family="Futura" font-size="14" font-weight="bold" lengthAdjust="spacingAndGlyphs" textLength="57" x="371.5" y="305.466">Product</text><!--cluster System Maintenance Document--><rect fill="#FFFFFF" filter="url(#f11tjxhjjmxr0v)" height="88" style="stroke: #000000; stroke-width: 1.5;" width="249" x="543.5" y="288.5"/><polygon fill="#FFFFFF" points="775.5,293.5,775.5,307.5,787.5,307.5,787.5,299.5,781.5,293.5,775.5,293.5" style="stroke: #000000; stroke-width: 1.5;"/><line style="stroke: #000000; stroke-width: 1.5;" x1="781.5" x2="781.5" y1="293.5" y2="299.5"/><line style="stroke: #000000; stroke-width: 1.5;" x1="787.5" x2="781.5" y1="299.5" y2="299.5"/><text fill="#000000" font-family="Futura" font-size="14" font-weight="bold" lengthAdjust="spacingAndGlyphs" textLength="233" x="551.5" y="305.466">System Maintenance Document</text><!--cluster System Training Specs--><rect fill="#FFFFFF" filter="url(#f11tjxhjjmxr0v)" height="88" style="stroke: #000000; stroke-width: 1.5;" width="182" x="679.5" y="543"/><polygon fill="#FFFFFF" points="844.5,548,844.5,562,856.5,562,856.5,554,850.5,548,844.5,548" style="stroke: #000000; stroke-width: 1.5;"/><line style="stroke: #000000; stroke-width: 1.5;" x1="850.5" x2="850.5" y1="548" y2="554"/><line style="stroke: #000000; stroke-width: 1.5;" x1="856.5" x2="850.5" y1="554" y2="554"/><text fill="#000000" font-family="Futura" font-size="14" font-weight="bold" lengthAdjust="spacingAndGlyphs" textLength="166" x="687.5" y="559.966">System Training Specs</text><!--entity PROD_ACCEPTANCE_PUBLISHED--><ellipse cx="452.5" cy="588" fill="#FEFECE" filter="url(#f11tjxhjjmxr0v)" rx="12" ry="12" style="stroke: #A80036; stroke-width: 2.0;"/><polygon fill="#A80036" points="448.5,576,454.5,571,452.5,576,454.5,581,448.5,576" style="stroke: #A80036; stroke-width: 1.0;"/><text fill="#000000" font-family="Futura" font-size="14" lengthAdjust="spacingAndGlyphs" textLength="60" x="422.5" y="618.957">published</text><!--entity PROD_ACCEPTANCE_PRODUCT_APPROVED--><ellipse cx="583.5" cy="588" fill="#FEFECE" filter="url(#f11tjxhjjmxr0v)" rx="12" ry="12" style="stroke: #A80036; stroke-width: 2.0;"/><polygon fill="#A80036" points="579.5,576,585.5,571,583.5,576,585.5,581,579.5,576" style="stroke: #A80036; stroke-width: 1.0;"/><text fill="#000000" font-family="Futura" font-size="14" lengthAdjust="spacingAndGlyphs" textLength="60" x="553.5" y="618.957">approved</text><!--entity PROD_PRODUCT--><ellipse cx="353.5" cy="333.5" fill="#FEFECE" filter="url(#f11tjxhjjmxr0v)" rx="12" ry="12" style="stroke: #A80036; stroke-width: 2.0;"/><polygon fill="#A80036" points="349.5,321.5,355.5,316.5,353.5,321.5,355.5,326.5,349.5,321.5" style="stroke: #A80036; stroke-width: 1.0;"/><text fill="#000000" font-family="Futura" font-size="14" lengthAdjust="spacingAndGlyphs" textLength="70" x="318.5" y="364.457">preliminary</text><!--entity PROD_PRODUCT_DELIVERED--><ellipse cx="452.5" cy="333.5" fill="#FEFECE" filter="url(#f11tjxhjjmxr0v)" rx="12" ry="12" style="stroke: #A80036; stroke-width: 2.0;"/><polygon fill="#A80036" points="448.5,321.5,454.5,316.5,452.5,321.5,454.5,326.5,448.5,321.5" style="stroke: #A80036; stroke-width: 1.0;"/><text fill="#000000" font-family="Futura" font-size="14" lengthAdjust="spacingAndGlyphs" textLength="58" x="423.5" y="364.457">delivered</text><!--entity PROD_MAINTENANCE--><ellipse cx="736.5" cy="333.5" fill="#FEFECE" filter="url(#f11tjxhjjmxr0v)" rx="12" ry="12" style="stroke: #A80036; stroke-width: 2.0;"/><polygon fill="#A80036" points="732.5,321.5,738.5,316.5,736.5,321.5,738.5,326.5,732.5,321.5" style="stroke: #A80036; stroke-width: 1.0;"/><text fill="#000000" font-family="Futura" font-size="14" lengthAdjust="spacingAndGlyphs" textLength="32" x="720.5" y="364.457">initial</text><!--entity PROD_MAINTENANCE_VALIDATED--><ellipse cx="656.5" cy="333.5" fill="#FEFECE" filter="url(#f11tjxhjjmxr0v)" rx="12" ry="12" style="stroke: #A80036; stroke-width: 2.0;"/><polygon fill="#A80036" points="652.5,321.5,658.5,316.5,656.5,321.5,658.5,326.5,652.5,321.5" style="stroke: #A80036; stroke-width: 1.0;"/><text fill="#000000" font-family="Futura" font-size="14" lengthAdjust="spacingAndGlyphs" textLength="57" x="628" y="364.457">validated</text><!--entity PROD_TRAINING--><ellipse cx="826.5" cy="588" fill="#FEFECE" filter="url(#f11tjxhjjmxr0v)" rx="12" ry="12" style="stroke: #A80036; stroke-width: 2.0;"/><polygon fill="#A80036" points="822.5,576,828.5,571,826.5,576,828.5,581,822.5,576" style="stroke: #A80036; stroke-width: 1.0;"/><text fill="#000000" font-family="Futura" font-size="14" lengthAdjust="spacingAndGlyphs" textLength="32" x="810.5" y="618.957">initial</text><!--entity PROD_TRAINING_VALIDATED--><ellipse cx="736.5" cy="588" fill="#FEFECE" filter="url(#f11tjxhjjmxr0v)" rx="12" ry="12" style="stroke: #A80036; stroke-width: 2.0;"/><polygon fill="#A80036" points="732.5,576,738.5,571,736.5,576,738.5,581,732.5,576" style="stroke: #A80036; stroke-width: 1.0;"/><text fill="#000000" font-family="Futura" font-size="14" lengthAdjust="spacingAndGlyphs" textLength="57" x="708" y="618.957">validated</text><!--entity PJM--><ellipse cx="22.5" cy="18" fill="#FEFECE" filter="url(#f11tjxhjjmxr0v)" rx="8" ry="8" style="stroke: #A80036; stroke-width: 2.0;"/><path d="M22.5,26 L22.5,53 M9.5,34 L35.5,34 M22.5,53 L9.5,68 M22.5,53 L35.5,68 " fill="none" filter="url(#f11tjxhjjmxr0v)" style="stroke: #A80036; stroke-width: 2.0;"/><text fill="#000000" font-family="Futura" font-size="14" lengthAdjust="spacingAndGlyphs" textLength="27" x="9" y="89.957">PJM</text><!--entity WT--><ellipse cx="87.5" cy="18" fill="#FEFECE" filter="url(#f11tjxhjjmxr0v)" rx="8" ry="8" style="stroke: #A80036; stroke-width: 2.0;"/><path d="M87.5,26 L87.5,53 M74.5,34 L100.5,34 M87.5,53 L74.5,68 M87.5,53 L100.5,68 " fill="none" filter="url(#f11tjxhjjmxr0v)" style="stroke: #A80036; stroke-width: 2.0;"/><text fill="#000000" font-family="Futura" font-size="14" lengthAdjust="spacingAndGlyphs" textLength="22" x="76.5" y="89.957">WT</text><!--entity STK--><ellipse cx="152.5" cy="18" fill="#FEFECE" filter="url(#f11tjxhjjmxr0v)" rx="8" ry="8" style="stroke: #A80036; stroke-width: 2.0;"/><path d="M152.5,26 L152.5,53 M139.5,34 L165.5,34 M152.5,53 L139.5,68 M152.5,53 L165.5,68 " fill="none" filter="url(#f11tjxhjjmxr0v)" style="stroke: #A80036; stroke-width: 2.0;"/><text fill="#000000" font-family="Futura" font-size="14" lengthAdjust="spacingAndGlyphs" textLength="24" x="140.5" y="89.957">STK</text><!--entity ACQ--><ellipse cx="22.5" cy="164" fill="#FEFECE" filter="url(#f11tjxhjjmxr0v)" rx="8" ry="8" style="stroke: #A80036; stroke-width: 2.0;"/><path d="M22.5,172 L22.5,199 M9.5,180 L35.5,180 M22.5,199 L9.5,214 M22.5,199 L35.5,214 " fill="none" filter="url(#f11tjxhjjmxr0v)" style="stroke: #A80036; stroke-width: 2.0;"/><text fill="#000000" font-family="Futura" font-size="14" lengthAdjust="spacingAndGlyphs" textLength="33" x="6" y="235.957">ACQ</text><!--entity SYS--><ellipse cx="89.5" cy="164" fill="#FEFECE" filter="url(#f11tjxhjjmxr0v)" rx="8" ry="8" style="stroke: #A80036; stroke-width: 2.0;"/><path d="M89.5,172 L89.5,199 M76.5,180 L102.5,180 M89.5,199 L76.5,214 M89.5,199 L102.5,214 " fill="none" filter="url(#f11tjxhjjmxr0v)" style="stroke: #A80036; stroke-width: 2.0;"/><text fill="#000000" font-family="Futura" font-size="14" lengthAdjust="spacingAndGlyphs" textLength="24" x="77.5" y="235.957">SYS</text><!--entity DES--><ellipse cx="154.5" cy="164" fill="#FEFECE" filter="url(#f11tjxhjjmxr0v)" rx="8" ry="8" style="stroke: #A80036; stroke-width: 2.0;"/><path d="M154.5,172 L154.5,199 M141.5,180 L167.5,180 M154.5,199 L141.5,214 M154.5,199 L167.5,214 " fill="none" filter="url(#f11tjxhjjmxr0v)" style="stroke: #A80036; stroke-width: 2.0;"/><text fill="#000000" font-family="Futura" font-size="14" lengthAdjust="spacingAndGlyphs" textLength="26" x="141.5" y="235.957">DES</text><!--entity DEV--><ellipse cx="22.5" cy="310" fill="#FEFECE" filter="url(#f11tjxhjjmxr0v)" rx="8" ry="8" style="stroke: #A80036; stroke-width: 2.0;"/><path d="M22.5,318 L22.5,345 M9.5,326 L35.5,326 M22.5,345 L9.5,360 M22.5,345 L35.5,360 " fill="none" filter="url(#f11tjxhjjmxr0v)" style="stroke: #A80036; stroke-width: 2.0;"/><text fill="#000000" font-family="Futura" font-size="14" lengthAdjust="spacingAndGlyphs" textLength="27" x="9" y="381.957">DEV</text><!--entity IVV--><ellipse cx="87.5" cy="310" fill="#FEFECE" filter="url(#f11tjxhjjmxr0v)" rx="8" ry="8" style="stroke: #A80036; stroke-width: 2.0;"/><path d="M87.5,318 L87.5,345 M74.5,326 L100.5,326 M87.5,345 L74.5,360 M87.5,345 L100.5,360 " fill="none" filter="url(#f11tjxhjjmxr0v)" style="stroke: #A80036; stroke-width: 2.0;"/><text fill="#000000" font-family="Futura" font-size="14" lengthAdjust="spacingAndGlyphs" textLength="22" x="76.5" y="381.957">IVV</text><!--entity PROD_PP--><rect fill="#FEFECE" filter="url(#f11tjxhjjmxr0v)" height="41.5938" style="stroke: #000000; stroke-width: 1.5;" width="104" x="375.5" y="30"/><polygon fill="#FEFECE" points="462.5,35,462.5,49,474.5,49,474.5,41,468.5,35,462.5,35" style="stroke: #000000; stroke-width: 1.5;"/><line style="stroke: #000000; stroke-width: 1.5;" x1="468.5" x2="468.5" y1="35" y2="41"/><line style="stroke: #000000; stroke-width: 1.5;" x1="474.5" x2="468.5" y1="41" y2="41"/><text fill="#000000" font-family="Futura" font-size="14" lengthAdjust="spacingAndGlyphs" textLength="74" x="385.5" y="57.957">Project Plan</text><!--entity PROD_SE_ALL--><rect fill="#FEFECE" filter="url(#f11tjxhjjmxr0v)" height="41.5938" style="stroke: #000000; stroke-width: 1.5;" width="135" x="205" y="30"/><polygon fill="#FEFECE" points="323,35,323,49,335,49,335,41,329,35,323,35" style="stroke: #000000; stroke-width: 1.5;"/><line style="stroke: #000000; stroke-width: 1.5;" x1="329" x2="329" y1="35" y2="41"/><line style="stroke: #000000; stroke-width: 1.5;" x1="335" x2="329" y1="41" y2="41"/><text fill="#000000" font-family="Futura" font-size="14" lengthAdjust="spacingAndGlyphs" textLength="105" x="215" y="57.957">System Elements</text><!--entity PROD_SYSCONF--><rect fill="#FEFECE" filter="url(#f11tjxhjjmxr0v)" height="41.5938" style="stroke: #000000; stroke-width: 1.5;" width="164" x="514.5" y="30"/><polygon fill="#FEFECE" points="661.5,35,661.5,49,673.5,49,673.5,41,667.5,35,661.5,35" style="stroke: #000000; stroke-width: 1.5;"/><line style="stroke: #000000; stroke-width: 1.5;" x1="667.5" x2="667.5" y1="35" y2="41"/><line style="stroke: #000000; stroke-width: 1.5;" x1="673.5" x2="667.5" y1="41" y2="41"/><text fill="#000000" font-family="Futura" font-size="14" lengthAdjust="spacingAndGlyphs" textLength="134" x="524.5" y="57.957">System Configuration</text><!--entity PROD_SYSRS_VALIDATED--><rect fill="#FEFECE" filter="url(#f11tjxhjjmxr0v)" height="41.5938" style="stroke: #000000; stroke-width: 1.5;" width="139" x="832" y="322"/><polygon fill="#FEFECE" points="954,327,954,341,966,341,966,333,960,327,954,327" style="stroke: #000000; stroke-width: 1.5;"/><line style="stroke: #000000; stroke-width: 1.5;" x1="960" x2="960" y1="327" y2="333"/><line style="stroke: #000000; stroke-width: 1.5;" x1="966" x2="960" y1="333" y2="333"/><text fill="#000000" font-family="Futura" font-size="14" lengthAdjust="spacingAndGlyphs" textLength="109" x="842" y="349.957">SysSR (validated)</text><!--entity PROD_USERMANUAL_VERIFIED--><rect fill="#FEFECE" filter="url(#f11tjxhjjmxr0v)" height="41.5938" style="stroke: #000000; stroke-width: 1.5;" width="171" x="1006" y="322"/><polygon fill="#FEFECE" points="1160,327,1160,341,1172,341,1172,333,1166,327,1160,327" style="stroke: #000000; stroke-width: 1.5;"/><line style="stroke: #000000; stroke-width: 1.5;" x1="1166" x2="1166" y1="327" y2="333"/><line style="stroke: #000000; stroke-width: 1.5;" x1="1172" x2="1166" y1="333" y2="333"/><text fill="#000000" font-family="Futura" font-size="14" lengthAdjust="spacingAndGlyphs" textLength="141" x="1016" y="349.957">User Manual (verified)</text><!--entity PROD_SYSTEM_VALIDATED--><rect fill="#FEFECE" filter="url(#f11tjxhjjmxr0v)" height="41.5938" style="stroke: #000000; stroke-width: 1.5;" width="146" x="713.5" y="30"/><polygon fill="#FEFECE" points="842.5,35,842.5,49,854.5,49,854.5,41,848.5,35,842.5,35" style="stroke: #000000; stroke-width: 1.5;"/><line style="stroke: #000000; stroke-width: 1.5;" x1="848.5" x2="848.5" y1="35" y2="41"/><line style="stroke: #000000; stroke-width: 1.5;" x1="854.5" x2="848.5" y1="41" y2="41"/><text fill="#000000" font-family="Futura" font-size="14" lengthAdjust="spacingAndGlyphs" textLength="116" x="723.5" y="57.957">System (validated)</text><ellipse cx="308.6792" cy="196.9358" fill="#FEFECE" filter="url(#f11tjxhjjmxr0v)" rx="70.1792" ry="16.4358" style="stroke: #A80036; stroke-width: 1.5;"/><text fill="#000000" font-family="Futura" font-size="14" lengthAdjust="spacingAndGlyphs" textLength="97" x="260.1792" y="202.7327">Review Product</text><ellipse cx="545.638" cy="196.8276" fill="#FEFECE" filter="url(#f11tjxhjjmxr0v)" rx="114.638" ry="25.3276" style="stroke: #A80036; stroke-width: 1.5;"/><text fill="#000000" font-family="Futura" font-size="14" lengthAdjust="spacingAndGlyphs" textLength="203" x="444.138" y="202.6245">Document Maintenance Manual</text><ellipse cx="976.5156" cy="475.9031" fill="#FEFECE" filter="url(#f11tjxhjjmxr0v)" rx="92.5156" ry="20.9031" style="stroke: #A80036; stroke-width: 1.5;"/><text fill="#000000" font-family="Futura" font-size="14" lengthAdjust="spacingAndGlyphs" textLength="153" x="900.0156" y="481.7">Document Training Spec</text><ellipse cx="736.4176" cy="475.7835" fill="#FEFECE" filter="url(#f11tjxhjjmxr0v)" rx="111.9176" ry="24.7835" style="stroke: #A80036; stroke-width: 1.5;"/><text fill="#000000" font-family="Futura" font-size="14" lengthAdjust="spacingAndGlyphs" textLength="197" x="637.9176" y="481.5804">V&amp;V Maintenance and Training</text><ellipse cx="768.6217" cy="197.0243" fill="#FEFECE" filter="url(#f11tjxhjjmxr0v)" rx="73.1217" ry="17.0243" style="stroke: #A80036; stroke-width: 1.5;"/><text fill="#000000" font-family="Futura" font-size="14" lengthAdjust="spacingAndGlyphs" textLength="105" x="716.1217" y="202.8212">Perform Delivery</text><ellipse cx="452.3322" cy="475.7664" fill="#FEFECE" filter="url(#f11tjxhjjmxr0v)" rx="136.8322" ry="29.7664" style="stroke: #A80036; stroke-width: 1.5;"/><text fill="#000000" font-family="Futura" font-size="14" lengthAdjust="spacingAndGlyphs" textLength="251" x="326.8322" y="481.5633">Transition to Manufacturing and support</text><!--link PROD_SE_ALL to SR6_1--><path d="M277.7347,72.2297 C284.5273,99.7774 296.3167,147.5899 303.1603,175.3446 " fill="none" id="PROD_SE_ALL-SR6_1" style="stroke: #A80036; stroke-width: 2.0;"/><polygon fill="#A80036" points="304.3783,180.2842,306.1071,170.5883,303.1812,175.4296,298.3398,172.5037,304.3783,180.2842" style="stroke: #A80036; stroke-width: 1.0;"/><!--link PROD_PP to SR6_1--><path d="M410.1964,72.2297 C387.3407,100.2711 347.3705,149.3101 324.9504,176.8172 " fill="none" id="PROD_PP-SR6_1" style="stroke: #A80036; stroke-width: 2.0;"/><polygon fill="#A80036" points="321.7739,180.7143,330.5606,176.2653,324.9329,176.8386,324.3595,171.2109,321.7739,180.7143" style="stroke: #A80036; stroke-width: 1.0;"/><!--link SR6_1 to PROD_ACCEPTANCE--><path d="M300.8764,213.6195 C278.4937,265.1786 219.356,423.8705 298.5,506 C315.165,523.2936 497.4259,497.1102 514.5,514 C520.6907,520.1239 524.1993,527.9641 525.9429,536.3795 C526.3787,538.4834 526.7043,540.6232 526.9339,542.7812 " fill="none" id="SR6_1-PROD_ACCEPTANCE" style="stroke: #A80036; stroke-width: 2.0;"/><polygon fill="#A80036" points="526.9339,542.7812,529.9593,533.4085,526.4049,537.8092,522.0042,534.2549,526.9339,542.7812" style="stroke: #A80036; stroke-width: 1.0;"/><!--link SR6_1 to PROD_PRODUCT--><path d="M313.5746,213.4643 C320.9406,237.3628 334.7267,282.0909 344.0105,312.2119 " fill="none" id="SR6_1-PROD_PRODUCT" style="stroke: #A80036; stroke-width: 2.0;"/><polygon fill="#A80036" points="345.5744,317.2859,346.746,307.507,344.1017,312.5077,339.1009,309.8633,345.5744,317.2859" style="stroke: #A80036; stroke-width: 1.0;"/><!--link PROD_PP to SR6_2--><path d="M444.6582,72.2297 C465.0067,97.4066 499.0359,139.5105 521.8668,167.7589 " fill="none" id="PROD_PP-SR6_2" style="stroke: #A80036; stroke-width: 2.0;"/><polygon fill="#A80036" points="525.1511,171.8225,522.6047,162.3085,522.0081,167.9338,516.3828,167.3373,525.1511,171.8225" style="stroke: #A80036; stroke-width: 1.0;"/><!--link PROD_SYSCONF to SR6_2--><path d="M589.0842,72.2297 C580.3877,97.1255 565.9097,138.5723 556.0467,166.8075 " fill="none" id="PROD_SYSCONF-SR6_2" style="stroke: #A80036; stroke-width: 2.0;"/><polygon fill="#A80036" points="554.3833,171.5694,561.1275,164.3919,556.0322,166.8491,553.575,161.7538,554.3833,171.5694" style="stroke: #A80036; stroke-width: 1.0;"/><!--link SR6_2 to PROD_MAINTENANCE--><path d="M598.1805,219.6557 C630.8774,235.5476 672.2742,259.1704 702.5,288.5 C709.6581,295.4458 715.9645,304.1905 721.1407,312.6292 " fill="none" id="SR6_2-PROD_MAINTENANCE" style="stroke: #A80036; stroke-width: 2.0;"/><polygon fill="#A80036" points="723.8983,317.2726,722.7418,307.4919,721.3452,312.9736,715.8634,311.5769,723.8983,317.2726" style="stroke: #A80036; stroke-width: 1.0;"/><!--link PROD_SYSRS_VALIDATED to SR6_3--><path d="M913.384,364.0742 C926.6047,387.519 947.9622,425.393 962.1162,450.4927 " fill="none" id="PROD_SYSRS_VALIDATED-SR6_3" style="stroke: #A80036; stroke-width: 2.0;"/><polygon fill="#A80036" points="964.6716,455.0244,963.735,445.2202,962.2156,450.6692,956.7666,449.1497,964.6716,455.0244" style="stroke: #A80036; stroke-width: 1.0;"/><!--link PROD_USERMANUAL_VERIFIED to SR6_3--><path d="M1073.2779,364.0742 C1052.8379,387.7135 1019.7136,426.0226 998.0172,451.1149 " fill="none" id="PROD_USERMANUAL_VERIFIED-SR6_3" style="stroke: #A80036; stroke-width: 2.0;"/><polygon fill="#A80036" points="994.6368,455.0244,1003.5492,450.8327,997.9071,451.2422,997.4977,445.6002,994.6368,455.0244" style="stroke: #A80036; stroke-width: 1.0;"/><!--link SR6_3 to PROD_TRAINING--><path d="M951.3934,496.3364 C922.102,520.0624 874.2287,558.8397 847.0491,580.8552 " fill="none" id="SR6_3-PROD_TRAINING" style="stroke: #A80036; stroke-width: 2.0;"/><polygon fill="#A80036" points="842.8706,584.2398,852.3818,581.6832,846.7559,581.0927,847.3464,575.4667,842.8706,584.2398" style="stroke: #A80036; stroke-width: 1.0;"/><!--link PROD_MAINTENANCE to SR6_4--><path d="M736.5,368.6437 C736.5,390.6794 736.5,422.487 736.5,445.76 " fill="none" id="PROD_MAINTENANCE-SR6_4" style="stroke: #A80036; stroke-width: 2.0;"/><polygon fill="#A80036" points="736.5,450.886,740.5,441.886,736.5,445.886,732.5,441.886,736.5,450.886" style="stroke: #A80036; stroke-width: 1.0;"/><!--link PROD_TRAINING to SR6_4--><path d="M816.1655,571.8157 C808.4369,554.4386 796.7655,531.5451 782.5,514 C779.6818,510.5339 776.5078,507.1573 773.1777,503.9383 " fill="none" id="PROD_TRAINING-SR6_4" style="stroke: #A80036; stroke-width: 2.0;"/><polygon fill="#A80036" points="769.2088,500.236,773.0616,509.3,772.8651,503.6465,778.5185,503.45,769.2088,500.236" style="stroke: #A80036; stroke-width: 1.0;"/><!--link SR6_4 to PROD_MAINTENANCE_VALIDATED--><path d="M721.3939,450.886 C708.124,428.8249 688.787,396.6772 674.6743,373.2148 " fill="none" id="SR6_4-PROD_MAINTENANCE_VALIDATED" style="stroke: #A80036; stroke-width: 2.0;"/><polygon fill="#A80036" points="671.9248,368.6437,673.1361,378.4178,674.502,372.9283,679.9915,374.2942,671.9248,368.6437" style="stroke: #A80036; stroke-width: 1.0;"/><!--link SR6_4 to PROD_TRAINING_VALIDATED--><path d="M736.5,501.1749 C736.5,520.27 736.5,546.6055 736.5,566.9141 " fill="none" id="SR6_4-PROD_TRAINING_VALIDATED" style="stroke: #A80036; stroke-width: 2.0;"/><polygon fill="#A80036" points="736.5,571.9394,740.5,562.9394,736.5,566.9394,732.5,562.9394,736.5,571.9394" style="stroke: #A80036; stroke-width: 1.0;"/><!--link SR6_4 to PROD_ACCEPTANCE_PRODUCT_APPROVED--><path d="M693.6338,499.1642 C686.0607,503.7844 678.3987,508.8195 671.5,514 C649.8933,530.2252 627.8413,551.1595 611.217,568.0077 " fill="none" id="SR6_4-PROD_ACCEPTANCE_PRODUCT_APPROVED" style="stroke: #A80036; stroke-width: 2.0;"/><polygon fill="#A80036" points="607.5408,571.7565,616.6982,568.1313,611.0416,568.1866,610.9863,562.53,607.5408,571.7565" style="stroke: #A80036; stroke-width: 1.0;"/><!--link PROD_PP to SR6_5--><path d="M458.3563,72.0663 C470.2537,79.6186 484.1858,87.7919 497.5,94 C573.9276,129.6361 599.2379,122.5968 677.5,154 C696.1772,161.4944 716.4675,170.9487 733.1392,179.0826 " fill="none" id="PROD_PP-SR6_5" style="stroke: #A80036; stroke-width: 2.0;"/><polygon fill="#A80036" points="737.7412,181.339,731.4213,173.7852,733.2518,179.1377,727.8993,180.9682,737.7412,181.339" style="stroke: #A80036; stroke-width: 1.0;"/><!--link PROD_SYSTEM_VALIDATED to SR6_5--><path d="M783.8826,72.2297 C780.5187,99.5148 774.7038,146.6802 771.2684,174.5455 " fill="none" id="PROD_SYSTEM_VALIDATED-SR6_5" style="stroke: #A80036; stroke-width: 2.0;"/><polygon fill="#A80036" points="770.6144,179.8496,775.6857,171.4067,771.2263,174.8872,767.7458,170.4278,770.6144,179.8496" style="stroke: #A80036; stroke-width: 1.0;"/><!--link SR6_5 to PROD_PRODUCT_DELIVERED--><path d="M737.7177,212.6027 C720.2662,221.1798 697.9028,231.7257 677.5,240 C615.6981,265.0635 595.4035,259.1876 535.5,288.5 C518.5207,296.8084 500.8586,307.9987 486.214,318.0776 " fill="none" id="SR6_5-PROD_PRODUCT_DELIVERED" style="stroke: #A80036; stroke-width: 2.0;"/><polygon fill="#A80036" points="481.7701,321.1654,491.4435,319.3145,485.8761,318.3122,486.8784,312.7449,481.7701,321.1654" style="stroke: #A80036; stroke-width: 1.0;"/><!--link PROD_PRODUCT_DELIVERED to SR6_6--><path d="M452.5,368.6437 C452.5,389.1355 452.5,418.0779 452.5,440.7488 " fill="none" id="PROD_PRODUCT_DELIVERED-SR6_6" style="stroke: #A80036; stroke-width: 2.0;"/><polygon fill="#A80036" points="452.5,445.7787,456.5,436.7787,452.5,440.7787,448.5,436.7787,452.5,445.7787" style="stroke: #A80036; stroke-width: 1.0;"/><!--link SR6_6 to PROD_ACCEPTANCE_PUBLISHED--><path d="M452.5,506.0337 C452.5,524.533 452.5,548.1892 452.5,566.8088 " fill="none" id="SR6_6-PROD_ACCEPTANCE_PUBLISHED" style="stroke: #A80036; stroke-width: 2.0;"/><polygon fill="#A80036" points="452.5,571.9185,456.5,562.9185,452.5,566.9185,448.5,562.9185,452.5,571.9185" style="stroke: #A80036; stroke-width: 1.0;"/><!--link PJM to WT--><!--link WT to STK--><!--link PJM to ACQ--><!--link ACQ to SYS--><!--link SYS to DES--><!--link ACQ to DEV--><!--link DEV to IVV--><!--
@startuml



skinparam handwritten false
skinparam defaultFontName Futura


actor PJM
actor WT
actor STK
actor ACQ
actor SYS
actor DES
actor DEV
actor IVV

artifact "Project Plan" as PROD_PP
artifact "System Elements" as PROD_SE_ALL
artifact "Product Acceptance Record" {
component "Product" as PROD_ACCEPTANCE {
  control "approved" as PROD_ACCEPTANCE_PRODUCT_APPROVED
}
control "published" as PROD_ACCEPTANCE_PUBLISHED
}
artifact "Product" {
control "preliminary" as PROD_PRODUCT
control "delivered" as PROD_PRODUCT_DELIVERED
}
artifact "System Configuration" as PROD_SYSCONF
artifact "System Maintenance Document" {
control "initial" as PROD_MAINTENANCE
control "validated" as PROD_MAINTENANCE_VALIDATED
}
artifact "System Training Specs" {
control "initial" as PROD_TRAINING
control "validated" as PROD_TRAINING_VALIDATED
}
artifact "SysSR (validated)" as PROD_SYSRS_VALIDATED
artifact "User Manual (verified)" as PROD_USERMANUAL_VERIFIED
artifact "System (validated)" as PROD_SYSTEM_VALIDATED

usecase "Review Product" as SR6_1
PROD_SE_ALL ==> SR6_1
PROD_PP ==> SR6_1
SR6_1 ==> PROD_ACCEPTANCE
SR6_1 ==> PROD_PRODUCT

usecase "Document Maintenance Manual" as SR6_2
PROD_PP ==> SR6_2
PROD_SYSCONF ==> SR6_2
SR6_2 ==> PROD_MAINTENANCE

usecase "Document Training Spec" as SR6_3
PROD_SYSRS_VALIDATED ==> SR6_3
PROD_USERMANUAL_VERIFIED ==> SR6_3
SR6_3 ==> PROD_TRAINING

usecase "V&V Maintenance and Training" as SR6_4
PROD_MAINTENANCE ==> SR6_4
PROD_TRAINING ==> SR6_4
SR6_4 ==> PROD_MAINTENANCE_VALIDATED
SR6_4 ==> PROD_TRAINING_VALIDATED
SR6_4 ==> PROD_ACCEPTANCE_PRODUCT_APPROVED

usecase "Perform Delivery" as SR6_5
PROD_PP ==> SR6_5
PROD_SYSTEM_VALIDATED ==> SR6_5
SR6_5 ==> PROD_PRODUCT_DELIVERED

usecase "Transition to Manufacturing and support" as SR6_6
PROD_PRODUCT_DELIVERED ==> SR6_6
SR6_6 ==> PROD_ACCEPTANCE_PUBLISHED



@enduml

PlantUML version 1.2019.00(Sun Jan 13 07:46:42 PST 2019)
(GPL source distribution)
Java Runtime: Java(TM) SE Runtime Environment
JVM: Java HotSpot(TM) 64-Bit Server VM
Java Version: 10.0.1+10
Operating System: Mac OS X
OS Version: 10.14.3
Default Encoding: UTF-8
Language: en
Country: US
--></g></svg>