<?xml version="1.0" encoding="UTF-8" standalone="no"?><svg xmlns="http://www.w3.org/2000/svg" xmlns:xlink="http://www.w3.org/1999/xlink" contentScriptType="application/ecmascript" contentStyleType="text/css" height="317px" preserveAspectRatio="none" style="width:456px;height:317px;" version="1.1" viewBox="0 0 456 317" width="456px" zoomAndPan="magnify"><defs><filter height="300%" id="fsytfocj0obmk" width="300%" x="-1" y="-1"><feGaussianBlur result="blurOut" stdDeviation="2.0"/><feColorMatrix in="blurOut" result="blurOut2" type="matrix" values="0 0 0 0 0 0 0 0 0 0 0 0 0 0 0 0 0 0 .4 0"/><feOffset dx="4.0" dy="4.0" in="blurOut2" result="blurOut3"/><feBlend in="SourceGraphic" in2="blurOut3" mode="normal"/></filter></defs><g><!--entity SYS--><ellipse cx="21" cy="18" fill="#FEFECE" filter="url(#fsytfocj0obmk)" rx="8" ry="8" style="stroke: #A80036; stroke-width: 2.0;"/><path d="M21,26 L21,53 M8,34 L34,34 M21,53 L8,68 M21,53 L34,68 " fill="none" filter="url(#fsytfocj0obmk)" style="stroke: #A80036; stroke-width: 2.0;"/><text fill="#000000" font-family="Futura" font-size="14" lengthAdjust="spacingAndGlyphs" textLength="24" x="9" y="89.957">SYS</text><!--entity DES--><ellipse cx="86" cy="18" fill="#FEFECE" filter="url(#fsytfocj0obmk)" rx="8" ry="8" style="stroke: #A80036; stroke-width: 2.0;"/><path d="M86,26 L86,53 M73,34 L99,34 M86,53 L73,68 M86,53 L99,68 " fill="none" filter="url(#fsytfocj0obmk)" style="stroke: #A80036; stroke-width: 2.0;"/><text fill="#000000" font-family="Futura" font-size="14" lengthAdjust="spacingAndGlyphs" textLength="26" x="73" y="89.957">DES</text><!--entity PROD_PP--><rect fill="#FEFECE" filter="url(#fsytfocj0obmk)" height="41.5938" style="stroke: #000000; stroke-width: 1.5;" width="104" x="136" y="30"/><polygon fill="#FEFECE" points="223,35,223,49,235,49,235,41,229,35,223,35" style="stroke: #000000; stroke-width: 1.5;"/><line style="stroke: #000000; stroke-width: 1.5;" x1="229" x2="229" y1="35" y2="41"/><line style="stroke: #000000; stroke-width: 1.5;" x1="235" x2="229" y1="41" y2="41"/><text fill="#000000" font-family="Futura" font-size="14" lengthAdjust="spacingAndGlyphs" textLength="74" x="146" y="57.957">Project Plan</text><!--entity PROD_SYSCONF--><rect fill="#FEFECE" filter="url(#fsytfocj0obmk)" height="41.5938" style="stroke: #000000; stroke-width: 1.5;" width="164" x="275" y="30"/><polygon fill="#FEFECE" points="422,35,422,49,434,49,434,41,428,35,422,35" style="stroke: #000000; stroke-width: 1.5;"/><line style="stroke: #000000; stroke-width: 1.5;" x1="428" x2="428" y1="35" y2="41"/><line style="stroke: #000000; stroke-width: 1.5;" x1="434" x2="428" y1="41" y2="41"/><text fill="#000000" font-family="Futura" font-size="14" lengthAdjust="spacingAndGlyphs" textLength="134" x="285" y="57.957">System Configuration</text><!--entity PROD_MAINTENANCE--><rect fill="#FEFECE" filter="url(#fsytfocj0obmk)" height="41.5938" style="stroke: #000000; stroke-width: 1.5;" width="230" x="157" y="265"/><polygon fill="#FEFECE" points="370,270,370,284,382,284,382,276,376,270,370,270" style="stroke: #000000; stroke-width: 1.5;"/><line style="stroke: #000000; stroke-width: 1.5;" x1="376" x2="376" y1="270" y2="276"/><line style="stroke: #000000; stroke-width: 1.5;" x1="382" x2="376" y1="276" y2="276"/><text fill="#000000" font-family="Futura" font-size="14" lengthAdjust="spacingAndGlyphs" textLength="200" x="167" y="292.957">System Maintenance Document</text><ellipse cx="272.138" cy="179.3276" fill="#FEFECE" filter="url(#fsytfocj0obmk)" rx="114.638" ry="25.3276" style="stroke: #A80036; stroke-width: 1.5;"/><text fill="#000000" font-family="Futura" font-size="14" lengthAdjust="spacingAndGlyphs" textLength="203" x="170.638" y="185.1245">Document Maintenance Manual</text><!--link PROD_PP to SR6_2--><path d="M201.8709,72.2192 C215.6454,93.2909 236.8907,125.7911 252.3888,149.4996 " fill="none" id="PROD_PP-SR6_2" style="stroke: #A80036; stroke-width: 2.0;"/><polygon fill="#A80036" points="255.2127,153.8194,253.6363,144.0975,252.4769,149.6343,246.9401,148.4749,255.2127,153.8194" style="stroke: #A80036; stroke-width: 1.0;"/><!--link PROD_SYSCONF to SR6_2--><path d="M342.964,72.2192 C329.0255,93.2909 307.5273,125.7911 291.8447,149.4996 " fill="none" id="PROD_SYSCONF-SR6_2" style="stroke: #A80036; stroke-width: 2.0;"/><polygon fill="#A80036" points="288.9872,153.8194,297.2887,148.5198,291.7457,149.6492,290.6164,144.1062,288.9872,153.8194" style="stroke: #A80036; stroke-width: 1.0;"/><!--link SR6_2 to PROD_MAINTENANCE--><path d="M272,205.0094 C272,221.6283 272,243.2486 272,259.9705 " fill="none" id="SR6_2-PROD_MAINTENANCE" style="stroke: #A80036; stroke-width: 2.0;"/><polygon fill="#A80036" points="272,264.9918,276,255.9918,272,259.9918,268,255.9918,272,264.9918" style="stroke: #A80036; stroke-width: 1.0;"/><!--
@startuml



skinparam handwritten false
skinparam defaultFontName Futura


actor SYS
actor DES

artifact "Project Plan" as PROD_PP
artifact "System Configuration" as PROD_SYSCONF
artifact "System Maintenance Document" as PROD_MAINTENANCE

usecase "Document Maintenance Manual" as SR6_2
PROD_PP ==> SR6_2
PROD_SYSCONF ==> SR6_2
SR6_2 ==> PROD_MAINTENANCE

@enduml

PlantUML version 1.2019.00(Sun Jan 13 07:46:42 PST 2019)
(GPL source distribution)
Java Runtime: Java(TM) SE Runtime Environment
JVM: Java HotSpot(TM) 64-Bit Server VM
Java Version: 10.0.1+10
Operating System: Mac OS X
OS Version: 10.14.3
Default Encoding: UTF-8
Language: en
Country: US
--></g></svg>