<svg xmlns="http://www.w3.org/2000/svg" height="326" preserveAspectRatio="none" style="width:302px;height:326px" width="302"><defs><filter height="300%" id="a" width="300%" x="-1" y="-1"><feGaussianBlur result="blurOut" stdDeviation="2"/><feColorMatrix in="blurOut" result="blurOut2" values="0 0 0 0 0 0 0 0 0 0 0 0 0 0 0 0 0 0 .4 0"/><feOffset dx="4" dy="4" in="blurOut2" result="blurOut3"/><feBlend in="SourceGraphic" in2="blurOut3"/></filter></defs><circle cx="21" cy="18" fill="#FEFECE" filter="url(#a)" stroke="#a80036" stroke-width="2" r="8"/><path d="M21 26v27M8 34h26M21 53L8 68m13-15l13 15" fill="none" filter="url(#a)" stroke="#a80036" stroke-width="2"/><text font-family="Futura" font-size="14" lengthAdjust="spacingAndGlyphs" textLength="27" x="7.5" y="89.957">PJM</text><path fill="#FEFECE" filter="url(#a)" stroke="#000" stroke-width="1.5" d="M71 30h150v41.594H71z"/><path fill="#FEFECE" stroke="#000" stroke-width="1.5" d="M204 35v14h12v-8l-6-6h-6z"/><path stroke="#000" stroke-width="1.5" d="M210 35v6M216 41h-6"/><text font-family="Futura" font-size="14" lengthAdjust="spacingAndGlyphs" textLength="120" x="81" y="57.957">Product (delivered)</text><path fill="#FEFECE" filter="url(#a)" stroke="#000" stroke-width="1.5" d="M6.5 274h279v41.594H6.5z"/><path fill="#FEFECE" stroke="#000" stroke-width="1.5" d="M268.5 279v14h12v-8l-6-6h-6z"/><path stroke="#000" stroke-width="1.5" d="M274.5 279v6M280.5 285h-6"/><text font-family="Futura" font-size="14" lengthAdjust="spacingAndGlyphs" textLength="249" x="16.5" y="301.957">Product Acceptance Record (published)</text><ellipse cx="145.832" cy="183.766" fill="#FEFECE" filter="url(#a)" rx="136.832" ry="29.766" stroke="#a80036" stroke-width="1.5"/><text font-family="Futura" font-size="14" lengthAdjust="spacingAndGlyphs" textLength="251" x="20.332" y="189.563">Transition to Manufacturing and support</text><path d="M146 72.074v76.463" fill="none" stroke="#a80036" stroke-width="2"/><path fill="#A80036" stroke="#a80036" d="M146 153.625l4-9-4 4-4-4 4 9z"/><path d="M146 214.038v54.335" fill="none" stroke="#a80036" stroke-width="2"/><path fill="#A80036" stroke="#a80036" d="M146 273.733l4-9-4 4-4-4 4 9z"/></svg>