<svg xmlns="http://www.w3.org/2000/svg" height="250" preserveAspectRatio="none" style="width:793px;height:250px" width="793"><defs><filter height="300%" id="a" width="300%" x="-1" y="-1"><feGaussianBlur result="blurOut" stdDeviation="2"/><feColorMatrix in="blurOut" result="blurOut2" values="0 0 0 0 0 0 0 0 0 0 0 0 0 0 0 0 0 0 .4 0"/><feOffset dx="4" dy="4" in="blurOut2" result="blurOut3"/><feBlend in="SourceGraphic" in2="blurOut3"/></filter></defs><path fill="#FFF" filter="url(#a)" stroke="#000" stroke-width="1.5" d="M109 143h249v88H109z"/><path fill="#FFF" stroke="#000" stroke-width="1.5" d="M341 148v14h12v-8l-6-6h-6z"/><path stroke="#000" stroke-width="1.5" d="M347 148v6M353 154h-6"/><text font-family="Futura" font-size="14" font-weight="bold" lengthAdjust="spacingAndGlyphs" textLength="233" x="117" y="159.966">System Maintenance Document</text><path fill="#FFF" filter="url(#a)" stroke="#000" stroke-width="1.5" d="M366 143h182v88H366z"/><path fill="#FFF" stroke="#000" stroke-width="1.5" d="M531 148v14h12v-8l-6-6h-6z"/><path stroke="#000" stroke-width="1.5" d="M537 148v6M543 154h-6"/><text font-family="Futura" font-size="14" font-weight="bold" lengthAdjust="spacingAndGlyphs" textLength="166" x="374" y="159.966">System Training Specs</text><path fill="#FFF" filter="url(#a)" stroke="#000" stroke-width="1.5" d="M556 114h220v125H556z"/><path fill="#FFF" stroke="#000" stroke-width="1.5" d="M759 119v14h12v-8l-6-6h-6z"/><path stroke="#000" stroke-width="1.5" d="M765 119v6M771 125h-6"/><text font-family="Futura" font-size="14" font-weight="bold" lengthAdjust="spacingAndGlyphs" textLength="204" x="564" y="130.966">Product Acceptance Record</text><path fill="#FFF" filter="url(#a)" stroke="#000" stroke-width="1.5" d="M564 143h76v88h-76z"/><path fill="#FFF" stroke="#000" stroke-width="1.5" d="M620 148h15v10h-15z"/><path fill="#FFF" stroke="#000" stroke-width="1.5" d="M618 150h4v2h-4zM618 154h4v2h-4z"/><text font-family="Futura" font-size="14" font-weight="bold" lengthAdjust="spacingAndGlyphs" textLength="57" x="573.5" y="170.966">Product</text><circle cx="334" cy="188" fill="#FEFECE" filter="url(#a)" stroke="#a80036" stroke-width="2" r="12"/><path fill="#A80036" stroke="#a80036" d="M330 176l6-5-2 5 2 5-6-5z"/><text font-family="Futura" font-size="14" lengthAdjust="spacingAndGlyphs" textLength="32" x="318" y="218.957">initial</text><circle cx="254" cy="188" fill="#FEFECE" filter="url(#a)" stroke="#a80036" stroke-width="2" r="12"/><path fill="#A80036" stroke="#a80036" d="M250 176l6-5-2 5 2 5-6-5z"/><text font-family="Futura" font-size="14" lengthAdjust="spacingAndGlyphs" textLength="57" x="225.5" y="218.957">validated</text><circle cx="494" cy="188" fill="#FEFECE" filter="url(#a)" stroke="#a80036" stroke-width="2" r="12"/><path fill="#A80036" stroke="#a80036" d="M490 176l6-5-2 5 2 5-6-5z"/><text font-family="Futura" font-size="14" lengthAdjust="spacingAndGlyphs" textLength="32" x="478" y="218.957">initial</text><circle cx="414" cy="188" fill="#FEFECE" filter="url(#a)" stroke="#a80036" stroke-width="2" r="12"/><path fill="#A80036" stroke="#a80036" d="M410 176l6-5-2 5 2 5-6-5z"/><text font-family="Futura" font-size="14" lengthAdjust="spacingAndGlyphs" textLength="57" x="385.5" y="218.957">validated</text><circle cx="602" cy="188" fill="#FEFECE" filter="url(#a)" stroke="#a80036" stroke-width="2" r="12"/><path fill="#A80036" stroke="#a80036" d="M598 176l6-5-2 5 2 5-6-5z"/><text font-family="Futura" font-size="14" lengthAdjust="spacingAndGlyphs" textLength="60" x="572" y="218.957">approved</text><circle cx="21" cy="18.5" fill="#FEFECE" filter="url(#a)" stroke="#a80036" stroke-width="2" r="8"/><path d="M21 26.5v27m-13-19h26m-13 19l-13 15m13-15l13 15" fill="none" filter="url(#a)" stroke="#a80036" stroke-width="2"/><text font-family="Futura" font-size="14" lengthAdjust="spacingAndGlyphs" textLength="27" x="7.5" y="90.457">PJM</text><circle cx="86" cy="18.5" fill="#FEFECE" filter="url(#a)" stroke="#a80036" stroke-width="2" r="8"/><path d="M86 26.5v27m-13-19h26m-13 19l-13 15m13-15l13 15" fill="none" filter="url(#a)" stroke="#a80036" stroke-width="2"/><text font-family="Futura" font-size="14" lengthAdjust="spacingAndGlyphs" textLength="24" x="74" y="90.457">STK</text><circle cx="153" cy="18.5" fill="#FEFECE" filter="url(#a)" stroke="#a80036" stroke-width="2" r="8"/><path d="M153 26.5v27m-13-19h26m-13 19l-13 15m13-15l13 15" fill="none" filter="url(#a)" stroke="#a80036" stroke-width="2"/><text font-family="Futura" font-size="14" lengthAdjust="spacingAndGlyphs" textLength="33" x="136.5" y="90.457">ACQ</text><circle cx="21" cy="164.5" fill="#FEFECE" filter="url(#a)" stroke="#a80036" stroke-width="2" r="8"/><path d="M21 172.5v27m-13-19h26m-13 19l-13 15m13-15l13 15" fill="none" filter="url(#a)" stroke="#a80036" stroke-width="2"/><text font-family="Futura" font-size="14" lengthAdjust="spacingAndGlyphs" textLength="24" x="9" y="236.457">SYS</text><circle cx="86" cy="164.5" fill="#FEFECE" filter="url(#a)" stroke="#a80036" stroke-width="2" r="8"/><path d="M86 172.5v27m-13-19h26m-13 19l-13 15m13-15l13 15" fill="none" filter="url(#a)" stroke="#a80036" stroke-width="2"/><text font-family="Futura" font-size="14" lengthAdjust="spacingAndGlyphs" textLength="26" x="73" y="236.457">DES</text><ellipse cx="413.918" cy="51.283" fill="#FEFECE" filter="url(#a)" rx="111.918" ry="24.784" stroke="#a80036" stroke-width="1.5"/><text font-family="Futura" font-size="14" lengthAdjust="spacingAndGlyphs" textLength="197" x="315.418" y="57.08">V&amp;V Maintenance and Training</text><path d="M338.253 171.868c3.575-17.143 9.745-39.785 19.747-57.868 6.846-12.376 16.552-24.354 25.966-34.455" fill="none" stroke="#a80036" stroke-width="2"/><path fill="#A80036" stroke="#a80036" d="M387.415 75.911l-9.097 3.774 5.655-.147.147 5.654 3.295-9.281z"/><path d="M485.449 171.901c-6.1-16.924-15.046-39.329-25.449-57.901-6.452-11.518-14.704-23.376-22.434-33.626" fill="none" stroke="#a80036" stroke-width="2"/><path fill="#A80036" stroke="#a80036" d="M434.521 76.382l2.278 9.581.755-5.606 5.606.755-8.639-4.73z"/><path d="M360.449 73.485C340.139 83.666 317.866 97.259 301 114c-15.109 14.997-26.857 35.865-34.829 52.988" fill="none" stroke="#a80036" stroke-width="2"/><path fill="#A80036" stroke="#a80036" d="M264.024 171.71l7.367-6.536-5.297 1.984-1.985-5.297-.085 9.849z"/><path d="M414 76.598v89.954" fill="none" stroke="#a80036" stroke-width="2"/><path fill="#A80036" stroke="#a80036" d="M414 171.749l4-9-4 4-4-4 4 9z"/><path d="M482.513 71.298C507.758 81.098 535.233 95 556 114c15.739 14.398 27.29 35.463 34.88 52.832" fill="none" stroke="#a80036" stroke-width="2"/><path fill="#A80036" stroke="#a80036" d="M592.916 171.625l.162-9.848-2.117 5.246-5.246-2.118 7.2 6.72z"/></svg>