<svg xmlns="http://www.w3.org/2000/svg" height="650" preserveAspectRatio="none" style="width:1194px;height:650px" width="1194"><defs><filter height="300%" id="a" width="300%" x="-1" y="-1"><feGaussianBlur result="blurOut" stdDeviation="2"/><feColorMatrix in="blurOut" result="blurOut2" values="0 0 0 0 0 0 0 0 0 0 0 0 0 0 0 0 0 0 .4 0"/><feOffset dx="4" dy="4" in="blurOut2" result="blurOut3"/><feBlend in="SourceGraphic" in2="blurOut3"/></filter></defs><path fill="#FFF" filter="url(#a)" stroke="#000" stroke-width="1.5" d="M411.5 514h220v125h-220z"/><path fill="#FFF" stroke="#000" stroke-width="1.5" d="M614.5 519v14h12v-8l-6-6h-6z"/><path stroke="#000" stroke-width="1.5" d="M620.5 519v6M626.5 525h-6"/><text font-family="Futura" font-size="14" font-weight="bold" lengthAdjust="spacingAndGlyphs" textLength="204" x="419.5" y="530.966">Product Acceptance Record</text><path fill="#FFF" filter="url(#a)" stroke="#000" stroke-width="1.5" d="M510.5 543h111v88h-111z"/><path fill="#FFF" stroke="#000" stroke-width="1.5" d="M601.5 548h15v10h-15z"/><path fill="#FFF" stroke="#000" stroke-width="1.5" d="M599.5 550h4v2h-4zM599.5 554h4v2h-4z"/><text font-family="Futura" font-size="14" font-weight="bold" lengthAdjust="spacingAndGlyphs" textLength="57" x="537.5" y="570.966">Product</text><path fill="#FFF" filter="url(#a)" stroke="#000" stroke-width="1.5" d="M310.5 288.5h179v88h-179z"/><path fill="#FFF" stroke="#000" stroke-width="1.5" d="M472.5 293.5v14h12v-8l-6-6h-6z"/><path stroke="#000" stroke-width="1.5" d="M478.5 293.5v6M484.5 299.5h-6"/><text font-family="Futura" font-size="14" font-weight="bold" lengthAdjust="spacingAndGlyphs" textLength="57" x="371.5" y="305.466">Product</text><path fill="#FFF" filter="url(#a)" stroke="#000" stroke-width="1.5" d="M543.5 288.5h249v88h-249z"/><path fill="#FFF" stroke="#000" stroke-width="1.5" d="M775.5 293.5v14h12v-8l-6-6h-6z"/><path stroke="#000" stroke-width="1.5" d="M781.5 293.5v6M787.5 299.5h-6"/><text font-family="Futura" font-size="14" font-weight="bold" lengthAdjust="spacingAndGlyphs" textLength="233" x="551.5" y="305.466">System Maintenance Document</text><path fill="#FFF" filter="url(#a)" stroke="#000" stroke-width="1.5" d="M679.5 543h182v88h-182z"/><path fill="#FFF" stroke="#000" stroke-width="1.5" d="M844.5 548v14h12v-8l-6-6h-6z"/><path stroke="#000" stroke-width="1.5" d="M850.5 548v6M856.5 554h-6"/><text font-family="Futura" font-size="14" font-weight="bold" lengthAdjust="spacingAndGlyphs" textLength="166" x="687.5" y="559.966">System Training Specs</text><circle cx="452.5" cy="588" fill="#FEFECE" filter="url(#a)" stroke="#a80036" stroke-width="2" r="12"/><path fill="#A80036" stroke="#a80036" d="M448.5 576l6-5-2 5 2 5-6-5z"/><text font-family="Futura" font-size="14" lengthAdjust="spacingAndGlyphs" textLength="60" x="422.5" y="618.957">published</text><circle cx="583.5" cy="588" fill="#FEFECE" filter="url(#a)" stroke="#a80036" stroke-width="2" r="12"/><path fill="#A80036" stroke="#a80036" d="M579.5 576l6-5-2 5 2 5-6-5z"/><text font-family="Futura" font-size="14" lengthAdjust="spacingAndGlyphs" textLength="60" x="553.5" y="618.957">approved</text><circle cx="353.5" cy="333.5" fill="#FEFECE" filter="url(#a)" stroke="#a80036" stroke-width="2" r="12"/><path fill="#A80036" stroke="#a80036" d="M349.5 321.5l6-5-2 5 2 5-6-5z"/><text font-family="Futura" font-size="14" lengthAdjust="spacingAndGlyphs" textLength="70" x="318.5" y="364.457">preliminary</text><circle cx="452.5" cy="333.5" fill="#FEFECE" filter="url(#a)" stroke="#a80036" stroke-width="2" r="12"/><path fill="#A80036" stroke="#a80036" d="M448.5 321.5l6-5-2 5 2 5-6-5z"/><text font-family="Futura" font-size="14" lengthAdjust="spacingAndGlyphs" textLength="58" x="423.5" y="364.457">delivered</text><circle cx="736.5" cy="333.5" fill="#FEFECE" filter="url(#a)" stroke="#a80036" stroke-width="2" r="12"/><path fill="#A80036" stroke="#a80036" d="M732.5 321.5l6-5-2 5 2 5-6-5z"/><text font-family="Futura" font-size="14" lengthAdjust="spacingAndGlyphs" textLength="32" x="720.5" y="364.457">initial</text><circle cx="656.5" cy="333.5" fill="#FEFECE" filter="url(#a)" stroke="#a80036" stroke-width="2" r="12"/><path fill="#A80036" stroke="#a80036" d="M652.5 321.5l6-5-2 5 2 5-6-5z"/><text font-family="Futura" font-size="14" lengthAdjust="spacingAndGlyphs" textLength="57" x="628" y="364.457">validated</text><circle cx="826.5" cy="588" fill="#FEFECE" filter="url(#a)" stroke="#a80036" stroke-width="2" r="12"/><path fill="#A80036" stroke="#a80036" d="M822.5 576l6-5-2 5 2 5-6-5z"/><text font-family="Futura" font-size="14" lengthAdjust="spacingAndGlyphs" textLength="32" x="810.5" y="618.957">initial</text><circle cx="736.5" cy="588" fill="#FEFECE" filter="url(#a)" stroke="#a80036" stroke-width="2" r="12"/><path fill="#A80036" stroke="#a80036" d="M732.5 576l6-5-2 5 2 5-6-5z"/><text font-family="Futura" font-size="14" lengthAdjust="spacingAndGlyphs" textLength="57" x="708" y="618.957">validated</text><circle cx="22.5" cy="18" fill="#FEFECE" filter="url(#a)" stroke="#a80036" stroke-width="2" r="8"/><path d="M22.5 26v27m-13-19h26m-13 19l-13 15m13-15l13 15" fill="none" filter="url(#a)" stroke="#a80036" stroke-width="2"/><text font-family="Futura" font-size="14" lengthAdjust="spacingAndGlyphs" textLength="27" x="9" y="89.957">PJM</text><circle cx="87.5" cy="18" fill="#FEFECE" filter="url(#a)" stroke="#a80036" stroke-width="2" r="8"/><path d="M87.5 26v27m-13-19h26m-13 19l-13 15m13-15l13 15" fill="none" filter="url(#a)" stroke="#a80036" stroke-width="2"/><text font-family="Futura" font-size="14" lengthAdjust="spacingAndGlyphs" textLength="22" x="76.5" y="89.957">WT</text><circle cx="152.5" cy="18" fill="#FEFECE" filter="url(#a)" stroke="#a80036" stroke-width="2" r="8"/><path d="M152.5 26v27m-13-19h26m-13 19l-13 15m13-15l13 15" fill="none" filter="url(#a)" stroke="#a80036" stroke-width="2"/><text font-family="Futura" font-size="14" lengthAdjust="spacingAndGlyphs" textLength="24" x="140.5" y="89.957">STK</text><circle cx="22.5" cy="164" fill="#FEFECE" filter="url(#a)" stroke="#a80036" stroke-width="2" r="8"/><path d="M22.5 172v27m-13-19h26m-13 19l-13 15m13-15l13 15" fill="none" filter="url(#a)" stroke="#a80036" stroke-width="2"/><text font-family="Futura" font-size="14" lengthAdjust="spacingAndGlyphs" textLength="33" x="6" y="235.957">ACQ</text><circle cx="89.5" cy="164" fill="#FEFECE" filter="url(#a)" stroke="#a80036" stroke-width="2" r="8"/><path d="M89.5 172v27m-13-19h26m-13 19l-13 15m13-15l13 15" fill="none" filter="url(#a)" stroke="#a80036" stroke-width="2"/><text font-family="Futura" font-size="14" lengthAdjust="spacingAndGlyphs" textLength="24" x="77.5" y="235.957">SYS</text><circle cx="154.5" cy="164" fill="#FEFECE" filter="url(#a)" stroke="#a80036" stroke-width="2" r="8"/><path d="M154.5 172v27m-13-19h26m-13 19l-13 15m13-15l13 15" fill="none" filter="url(#a)" stroke="#a80036" stroke-width="2"/><text font-family="Futura" font-size="14" lengthAdjust="spacingAndGlyphs" textLength="26" x="141.5" y="235.957">DES</text><circle cx="22.5" cy="310" fill="#FEFECE" filter="url(#a)" stroke="#a80036" stroke-width="2" r="8"/><path d="M22.5 318v27m-13-19h26m-13 19l-13 15m13-15l13 15" fill="none" filter="url(#a)" stroke="#a80036" stroke-width="2"/><text font-family="Futura" font-size="14" lengthAdjust="spacingAndGlyphs" textLength="27" x="9" y="381.957">DEV</text><circle cx="87.5" cy="310" fill="#FEFECE" filter="url(#a)" stroke="#a80036" stroke-width="2" r="8"/><path d="M87.5 318v27m-13-19h26m-13 19l-13 15m13-15l13 15" fill="none" filter="url(#a)" stroke="#a80036" stroke-width="2"/><text font-family="Futura" font-size="14" lengthAdjust="spacingAndGlyphs" textLength="22" x="76.5" y="381.957">IVV</text><path fill="#FEFECE" filter="url(#a)" stroke="#000" stroke-width="1.5" d="M375.5 30h104v41.594h-104z"/><path fill="#FEFECE" stroke="#000" stroke-width="1.5" d="M462.5 35v14h12v-8l-6-6h-6z"/><path stroke="#000" stroke-width="1.5" d="M468.5 35v6M474.5 41h-6"/><text font-family="Futura" font-size="14" lengthAdjust="spacingAndGlyphs" textLength="74" x="385.5" y="57.957">Project Plan</text><path fill="#FEFECE" filter="url(#a)" stroke="#000" stroke-width="1.5" d="M205 30h135v41.594H205z"/><path fill="#FEFECE" stroke="#000" stroke-width="1.5" d="M323 35v14h12v-8l-6-6h-6z"/><path stroke="#000" stroke-width="1.5" d="M329 35v6M335 41h-6"/><text font-family="Futura" font-size="14" lengthAdjust="spacingAndGlyphs" textLength="105" x="215" y="57.957">System Elements</text><path fill="#FEFECE" filter="url(#a)" stroke="#000" stroke-width="1.5" d="M514.5 30h164v41.594h-164z"/><path fill="#FEFECE" stroke="#000" stroke-width="1.5" d="M661.5 35v14h12v-8l-6-6h-6z"/><path stroke="#000" stroke-width="1.5" d="M667.5 35v6M673.5 41h-6"/><text font-family="Futura" font-size="14" lengthAdjust="spacingAndGlyphs" textLength="134" x="524.5" y="57.957">System Configuration</text><path fill="#FEFECE" filter="url(#a)" stroke="#000" stroke-width="1.5" d="M832 322h139v41.594H832z"/><path fill="#FEFECE" stroke="#000" stroke-width="1.5" d="M954 327v14h12v-8l-6-6h-6z"/><path stroke="#000" stroke-width="1.5" d="M960 327v6M966 333h-6"/><text font-family="Futura" font-size="14" lengthAdjust="spacingAndGlyphs" textLength="109" x="842" y="349.957">SysSR (validated)</text><path fill="#FEFECE" filter="url(#a)" stroke="#000" stroke-width="1.5" d="M1006 322h171v41.594h-171z"/><path fill="#FEFECE" stroke="#000" stroke-width="1.5" d="M1160 327v14h12v-8l-6-6h-6z"/><path stroke="#000" stroke-width="1.5" d="M1166 327v6M1172 333h-6"/><text font-family="Futura" font-size="14" lengthAdjust="spacingAndGlyphs" textLength="141" x="1016" y="349.957">User Manual (verified)</text><path fill="#FEFECE" filter="url(#a)" stroke="#000" stroke-width="1.5" d="M713.5 30h146v41.594h-146z"/><path fill="#FEFECE" stroke="#000" stroke-width="1.5" d="M842.5 35v14h12v-8l-6-6h-6z"/><path stroke="#000" stroke-width="1.5" d="M848.5 35v6M854.5 41h-6"/><text font-family="Futura" font-size="14" lengthAdjust="spacingAndGlyphs" textLength="116" x="723.5" y="57.957">System (validated)</text><ellipse cx="308.679" cy="196.936" fill="#FEFECE" filter="url(#a)" rx="70.179" ry="16.436" stroke="#a80036" stroke-width="1.5"/><text font-family="Futura" font-size="14" lengthAdjust="spacingAndGlyphs" textLength="97" x="260.179" y="202.733">Review Product</text><ellipse cx="545.638" cy="196.828" fill="#FEFECE" filter="url(#a)" rx="114.638" ry="25.328" stroke="#a80036" stroke-width="1.5"/><text font-family="Futura" font-size="14" lengthAdjust="spacingAndGlyphs" textLength="203" x="444.138" y="202.625">Document Maintenance Manual</text><ellipse cx="976.516" cy="475.903" fill="#FEFECE" filter="url(#a)" rx="92.516" ry="20.903" stroke="#a80036" stroke-width="1.5"/><text font-family="Futura" font-size="14" lengthAdjust="spacingAndGlyphs" textLength="153" x="900.016" y="481.7">Document Training Spec</text><ellipse cx="736.418" cy="475.784" fill="#FEFECE" filter="url(#a)" rx="111.918" ry="24.784" stroke="#a80036" stroke-width="1.5"/><text font-family="Futura" font-size="14" lengthAdjust="spacingAndGlyphs" textLength="197" x="637.918" y="481.58">V&amp;V Maintenance and Training</text><ellipse cx="768.622" cy="197.024" fill="#FEFECE" filter="url(#a)" rx="73.122" ry="17.024" stroke="#a80036" stroke-width="1.5"/><text font-family="Futura" font-size="14" lengthAdjust="spacingAndGlyphs" textLength="105" x="716.122" y="202.821">Perform Delivery</text><ellipse cx="452.332" cy="475.766" fill="#FEFECE" filter="url(#a)" rx="136.832" ry="29.766" stroke="#a80036" stroke-width="1.5"/><text font-family="Futura" font-size="14" lengthAdjust="spacingAndGlyphs" textLength="251" x="326.832" y="481.563">Transition to Manufacturing and support</text><path d="M277.735 72.23l25.425 103.115" fill="none" stroke="#a80036" stroke-width="2"/><path fill="#A80036" stroke="#a80036" d="M304.378 180.284l1.73-9.696-2.927 4.842-4.841-2.926 6.038 7.78z"/><path d="M410.196 72.23L324.95 176.817" fill="none" stroke="#a80036" stroke-width="2"/><path fill="#A80036" stroke="#a80036" d="M321.774 180.714l8.787-4.449-5.628.574-.573-5.628-2.586 9.503z"/><path d="M300.876 213.62c-22.382 51.559-81.52 210.25-2.376 292.38 16.665 17.294 198.926-8.89 216 8 6.19 6.124 9.7 13.964 11.443 22.38.436 2.103.761 4.243.99 6.401" fill="none" stroke="#a80036" stroke-width="2"/><path fill="#A80036" stroke="#a80036" d="M526.934 542.781l3.025-9.372-3.554 4.4-4.4-3.554 4.929 8.526z"/><path d="M313.575 213.464l30.435 98.748" fill="none" stroke="#a80036" stroke-width="2"/><path fill="#A80036" stroke="#a80036" d="M345.574 317.286l1.172-9.779-2.644 5-5.001-2.644 6.473 7.423z"/><path d="M444.658 72.23l77.209 95.529" fill="none" stroke="#a80036" stroke-width="2"/><path fill="#A80036" stroke="#a80036" d="M525.151 171.822l-2.546-9.513-.597 5.625-5.625-.597 8.768 4.486z"/><path d="M589.084 72.23l-33.037 94.578" fill="none" stroke="#a80036" stroke-width="2"/><path fill="#A80036" stroke="#a80036" d="M554.383 171.57l6.745-7.178-5.096 2.457-2.457-5.095.808 9.815z"/><path d="M598.18 219.656c32.697 15.892 74.094 39.514 104.32 68.844 7.158 6.946 13.465 15.69 18.64 24.13" fill="none" stroke="#a80036" stroke-width="2"/><path fill="#A80036" stroke="#a80036" d="M723.898 317.273l-1.156-9.781-1.397 5.482-5.482-1.397 8.035 5.696z"/><path d="M913.384 364.074l48.732 86.419" fill="none" stroke="#a80036" stroke-width="2"/><path fill="#A80036" stroke="#a80036" d="M964.672 455.024l-.937-9.804-1.52 5.45-5.448-1.52 7.905 5.874z"/><path d="M1073.278 364.074l-75.26 87.04" fill="none" stroke="#a80036" stroke-width="2"/><path fill="#A80036" stroke="#a80036" d="M994.637 455.024l8.912-4.191-5.642.41-.41-5.643-2.86 9.424z"/><path d="M951.393 496.336l-104.344 84.52" fill="none" stroke="#a80036" stroke-width="2"/><path fill="#A80036" stroke="#a80036" d="M842.87 584.24l9.512-2.557-5.626-.59.59-5.626-4.475 8.773z"/><path d="M736.5 368.644v77.116" fill="none" stroke="#a80036" stroke-width="2"/><path fill="#A80036" stroke="#a80036" d="M736.5 450.886l4-9-4 4-4-4 4 9z"/><path d="M816.165 571.816c-7.728-17.377-19.4-40.27-33.665-57.816-2.818-3.466-5.992-6.843-9.322-10.062" fill="none" stroke="#a80036" stroke-width="2"/><path fill="#A80036" stroke="#a80036" d="M769.209 500.236l3.853 9.064-.197-5.654 5.654-.196-9.31-3.214z"/><path d="M721.394 450.886l-46.72-77.671" fill="none" stroke="#a80036" stroke-width="2"/><path fill="#A80036" stroke="#a80036" d="M671.925 368.644l1.211 9.774 1.366-5.49 5.49 1.366-8.067-5.65z"/><path d="M736.5 501.175v65.74" fill="none" stroke="#a80036" stroke-width="2"/><path fill="#A80036" stroke="#a80036" d="M736.5 571.94l4-9-4 4-4-4 4 9z"/><path d="M693.634 499.164c-7.573 4.62-15.235 9.656-22.134 14.836-21.607 16.225-43.659 37.16-60.283 54.008" fill="none" stroke="#a80036" stroke-width="2"/><path fill="#A80036" stroke="#a80036" d="M607.54 571.756l9.158-3.625-5.656.056-.056-5.657-3.445 9.226z"/><path d="M458.356 72.066C470.254 79.62 484.186 87.792 497.5 94c76.428 35.636 101.738 28.597 180 60 18.677 7.494 38.967 16.949 55.64 25.083" fill="none" stroke="#a80036" stroke-width="2"/><path fill="#A80036" stroke="#a80036" d="M737.741 181.339l-6.32-7.554 1.83 5.353-5.352 1.83 9.842.371z"/><path d="M783.883 72.23l-12.615 102.316" fill="none" stroke="#a80036" stroke-width="2"/><path fill="#A80036" stroke="#a80036" d="M770.614 179.85l5.072-8.443-4.46 3.48-3.48-4.46 2.868 9.423z"/><path d="M737.718 212.603C720.266 221.18 697.903 231.726 677.5 240c-61.802 25.063-82.096 19.188-142 48.5-16.98 8.308-34.641 19.499-49.286 29.578" fill="none" stroke="#a80036" stroke-width="2"/><path fill="#A80036" stroke="#a80036" d="M481.77 321.165l9.673-1.85-5.567-1.003 1.002-5.567-5.108 8.42z"/><path d="M452.5 368.644v72.105" fill="none" stroke="#a80036" stroke-width="2"/><path fill="#A80036" stroke="#a80036" d="M452.5 445.779l4-9-4 4-4-4 4 9z"/><path d="M452.5 506.034v60.775" fill="none" stroke="#a80036" stroke-width="2"/><path fill="#A80036" stroke="#a80036" d="M452.5 571.918l4-9-4 4-4-4 4 9z"/></svg>