<svg xmlns="http://www.w3.org/2000/svg" height="308" preserveAspectRatio="none" style="width:498px;height:308px" width="498"><defs><filter height="300%" id="a" width="300%" x="-1" y="-1"><feGaussianBlur result="blurOut" stdDeviation="2"/><feColorMatrix in="blurOut" result="blurOut2" values="0 0 0 0 0 0 0 0 0 0 0 0 0 0 0 0 0 0 .4 0"/><feOffset dx="4" dy="4" in="blurOut2" result="blurOut3"/><feBlend in="SourceGraphic" in2="blurOut3"/></filter></defs><circle cx="21" cy="18" fill="#FEFECE" filter="url(#a)" stroke="#a80036" stroke-width="2" r="8"/><path d="M21 26v27M8 34h26M21 53L8 68m13-15l13 15" fill="none" filter="url(#a)" stroke="#a80036" stroke-width="2"/><text font-family="Futura" font-size="14" lengthAdjust="spacingAndGlyphs" textLength="24" x="9" y="89.957">SYS</text><circle cx="86" cy="18" fill="#FEFECE" filter="url(#a)" stroke="#a80036" stroke-width="2" r="8"/><path d="M86 26v27M73 34h26M86 53L73 68m13-15l13 15" fill="none" filter="url(#a)" stroke="#a80036" stroke-width="2"/><text font-family="Futura" font-size="14" lengthAdjust="spacingAndGlyphs" textLength="26" x="73" y="89.957">DES</text><path fill="#FEFECE" filter="url(#a)" stroke="#000" stroke-width="1.5" d="M216 256h170v41.594H216z"/><path fill="#FEFECE" stroke="#000" stroke-width="1.5" d="M369 261v14h12v-8l-6-6h-6z"/><path stroke="#000" stroke-width="1.5" d="M375 261v6M381 267h-6"/><text font-family="Futura" font-size="14" lengthAdjust="spacingAndGlyphs" textLength="140" x="226" y="283.957">System Training Specs</text><path fill="#FEFECE" filter="url(#a)" stroke="#000" stroke-width="1.5" d="M136.5 30h139v41.594h-139z"/><path fill="#FEFECE" stroke="#000" stroke-width="1.5" d="M258.5 35v14h12v-8l-6-6h-6z"/><path stroke="#000" stroke-width="1.5" d="M264.5 35v6M270.5 41h-6"/><text font-family="Futura" font-size="14" lengthAdjust="spacingAndGlyphs" textLength="109" x="146.5" y="57.957">SysSR (validated)</text><path fill="#FEFECE" filter="url(#a)" stroke="#000" stroke-width="1.5" d="M310.5 30h171v41.594h-171z"/><path fill="#FEFECE" stroke="#000" stroke-width="1.5" d="M464.5 35v14h12v-8l-6-6h-6z"/><path stroke="#000" stroke-width="1.5" d="M470.5 35v6M476.5 41h-6"/><text font-family="Futura" font-size="14" lengthAdjust="spacingAndGlyphs" textLength="141" x="320.5" y="57.957">User Manual (verified)</text><ellipse cx="301.016" cy="174.903" fill="#FEFECE" filter="url(#a)" rx="92.516" ry="20.903" stroke="#a80036" stroke-width="1.5"/><text font-family="Futura" font-size="14" lengthAdjust="spacingAndGlyphs" textLength="153" x="224.516" y="180.7">Document Training Spec</text><path d="M222.115 72.035l59.831 78.095" fill="none" stroke="#a80036" stroke-width="2"/><path fill="#A80036" stroke="#a80036" d="M285.123 154.276l-2.299-9.577-.742 5.608-5.608-.743 8.649 4.712z"/><path d="M379.885 72.035l-59.831 78.095" fill="none" stroke="#a80036" stroke-width="2"/><path fill="#A80036" stroke="#a80036" d="M316.877 154.276l8.65-4.712-5.609.743-.742-5.608-2.298 9.577z"/><path d="M301 196.135v54.657" fill="none" stroke="#a80036" stroke-width="2"/><path fill="#A80036" stroke="#a80036" d="M301 255.893l4-9-4 4-4-4 4 9z"/></svg>