<svg xmlns="http://www.w3.org/2000/svg" height="307" preserveAspectRatio="none" style="width:504px;height:307px" width="504"><defs><filter height="300%" id="a" width="300%" x="-1" y="-1"><feGaussianBlur result="blurOut" stdDeviation="2"/><feColorMatrix in="blurOut" result="blurOut2" values="0 0 0 0 0 0 0 0 0 0 0 0 0 0 0 0 0 0 .4 0"/><feOffset dx="4" dy="4" in="blurOut2" result="blurOut3"/><feBlend in="SourceGraphic" in2="blurOut3"/></filter></defs><path fill="#FFF" filter="url(#a)" stroke="#000" stroke-width="1.5" d="M267 220h220v76H267z"/><path fill="#FFF" stroke="#000" stroke-width="1.5" d="M470 225v14h12v-8l-6-6h-6z"/><path stroke="#000" stroke-width="1.5" d="M476 225v6M482 231h-6"/><text font-family="Futura" font-size="14" font-weight="bold" lengthAdjust="spacingAndGlyphs" textLength="204" x="275" y="236.966">Product Acceptance Record</text><path fill="#FEFECE" filter="url(#a)" stroke="#a80036" stroke-width="1.5" d="M285 249h68v38.594h-68z"/><path fill="#FEFECE" stroke="#a80036" stroke-width="1.5" d="M280 254h10v5h-10zM280 277.594h10v5h-10z"/><text font-family="Futura" font-size="14" lengthAdjust="spacingAndGlyphs" textLength="48" x="295" y="273.957">Product</text><circle cx="21" cy="18.5" fill="#FEFECE" filter="url(#a)" stroke="#a80036" stroke-width="2" r="8"/><path d="M21 26.5v27m-13-19h26m-13 19l-13 15m13-15l13 15" fill="none" filter="url(#a)" stroke="#a80036" stroke-width="2"/><text font-family="Futura" font-size="14" lengthAdjust="spacingAndGlyphs" textLength="27" x="7.5" y="90.457">PJM</text><circle cx="86" cy="18.5" fill="#FEFECE" filter="url(#a)" stroke="#a80036" stroke-width="2" r="8"/><path d="M86 26.5v27m-13-19h26m-13 19l-13 15m13-15l13 15" fill="none" filter="url(#a)" stroke="#a80036" stroke-width="2"/><text font-family="Futura" font-size="14" lengthAdjust="spacingAndGlyphs" textLength="22" x="75" y="90.457">WT</text><path fill="#FEFECE" filter="url(#a)" stroke="#000" stroke-width="1.5" d="M136 30.5h104v41.594H136z"/><path fill="#FEFECE" stroke="#000" stroke-width="1.5" d="M223 35.5v14h12v-8l-6-6h-6z"/><path stroke="#000" stroke-width="1.5" d="M229 35.5v6M235 41.5h-6"/><text font-family="Futura" font-size="14" lengthAdjust="spacingAndGlyphs" textLength="74" x="146" y="58.457">Project Plan</text><path fill="#FEFECE" filter="url(#a)" stroke="#000" stroke-width="1.5" d="M275.5 30.5h135v41.594h-135z"/><path fill="#FEFECE" stroke="#000" stroke-width="1.5" d="M393.5 35.5v14h12v-8l-6-6h-6z"/><path stroke="#000" stroke-width="1.5" d="M399.5 35.5v6M405.5 41.5h-6"/><text font-family="Futura" font-size="14" lengthAdjust="spacingAndGlyphs" textLength="105" x="285.5" y="58.457">System Elements</text><path fill="#FEFECE" filter="url(#a)" stroke="#000" stroke-width="1.5" d="M172 247.5h78v41.594h-78z"/><path fill="#FEFECE" stroke="#000" stroke-width="1.5" d="M233 252.5v14h12v-8l-6-6h-6z"/><path stroke="#000" stroke-width="1.5" d="M239 252.5v6M245 258.5h-6"/><text font-family="Futura" font-size="14" lengthAdjust="spacingAndGlyphs" textLength="48" x="182" y="275.457">Product</text><ellipse cx="265.179" cy="170.936" fill="#FEFECE" filter="url(#a)" rx="70.179" ry="16.436" stroke="#a80036" stroke-width="1.5"/><text font-family="Futura" font-size="14" lengthAdjust="spacingAndGlyphs" textLength="97" x="216.679" y="176.733">Review Product</text><path d="M329.235 72.59c-14.21 21.768-36.25 55.536-50.462 77.31" fill="none" stroke="#a80036" stroke-width="2"/><path fill="#A80036" stroke="#a80036" d="M275.865 154.355l8.269-5.35-5.536 1.163-1.163-5.536-1.57 9.723z"/><path d="M201.589 72.59l49.815 77.31" fill="none" stroke="#a80036" stroke-width="2"/><path fill="#A80036" stroke="#a80036" d="M254.274 154.355l-1.512-9.732-1.196 5.529-5.529-1.196 8.237 5.399z"/><path d="M274.16 187.54l31.29 56.495" fill="none" stroke="#a80036" stroke-width="2"/><path fill="#A80036" stroke="#a80036" d="M308.117 248.85l-.861-9.811-1.561 5.437-5.438-1.561 7.86 5.935z"/><path d="M255.84 187.54l-30.532 55.126" fill="none" stroke="#a80036" stroke-width="2"/><path fill="#A80036" stroke="#a80036" d="M222.659 247.449l7.86-5.935-5.438 1.561-1.56-5.437-.862 9.811z"/></svg>