<svg xmlns="http://www.w3.org/2000/svg" height="317" preserveAspectRatio="none" style="width:456px;height:317px" width="456"><defs><filter height="300%" id="a" width="300%" x="-1" y="-1"><feGaussianBlur result="blurOut" stdDeviation="2"/><feColorMatrix in="blurOut" result="blurOut2" values="0 0 0 0 0 0 0 0 0 0 0 0 0 0 0 0 0 0 .4 0"/><feOffset dx="4" dy="4" in="blurOut2" result="blurOut3"/><feBlend in="SourceGraphic" in2="blurOut3"/></filter></defs><circle cx="21" cy="18" fill="#FEFECE" filter="url(#a)" stroke="#a80036" stroke-width="2" r="8"/><path d="M21 26v27M8 34h26M21 53L8 68m13-15l13 15" fill="none" filter="url(#a)" stroke="#a80036" stroke-width="2"/><text font-family="Futura" font-size="14" lengthAdjust="spacingAndGlyphs" textLength="24" x="9" y="89.957">SYS</text><circle cx="86" cy="18" fill="#FEFECE" filter="url(#a)" stroke="#a80036" stroke-width="2" r="8"/><path d="M86 26v27M73 34h26M86 53L73 68m13-15l13 15" fill="none" filter="url(#a)" stroke="#a80036" stroke-width="2"/><text font-family="Futura" font-size="14" lengthAdjust="spacingAndGlyphs" textLength="26" x="73" y="89.957">DES</text><path fill="#FEFECE" filter="url(#a)" stroke="#000" stroke-width="1.5" d="M136 30h104v41.594H136z"/><path fill="#FEFECE" stroke="#000" stroke-width="1.5" d="M223 35v14h12v-8l-6-6h-6z"/><path stroke="#000" stroke-width="1.5" d="M229 35v6M235 41h-6"/><text font-family="Futura" font-size="14" lengthAdjust="spacingAndGlyphs" textLength="74" x="146" y="57.957">Project Plan</text><path fill="#FEFECE" filter="url(#a)" stroke="#000" stroke-width="1.5" d="M275 30h164v41.594H275z"/><path fill="#FEFECE" stroke="#000" stroke-width="1.5" d="M422 35v14h12v-8l-6-6h-6z"/><path stroke="#000" stroke-width="1.5" d="M428 35v6M434 41h-6"/><text font-family="Futura" font-size="14" lengthAdjust="spacingAndGlyphs" textLength="134" x="285" y="57.957">System Configuration</text><path fill="#FEFECE" filter="url(#a)" stroke="#000" stroke-width="1.5" d="M157 265h230v41.594H157z"/><path fill="#FEFECE" stroke="#000" stroke-width="1.5" d="M370 270v14h12v-8l-6-6h-6z"/><path stroke="#000" stroke-width="1.5" d="M376 270v6M382 276h-6"/><text font-family="Futura" font-size="14" lengthAdjust="spacingAndGlyphs" textLength="200" x="167" y="292.957">System Maintenance Document</text><ellipse cx="272.138" cy="179.328" fill="#FEFECE" filter="url(#a)" rx="114.638" ry="25.328" stroke="#a80036" stroke-width="1.5"/><text font-family="Futura" font-size="14" lengthAdjust="spacingAndGlyphs" textLength="203" x="170.638" y="185.125">Document Maintenance Manual</text><path d="M201.87 72.22c13.775 21.07 35.02 53.571 50.519 77.28" fill="none" stroke="#a80036" stroke-width="2"/><path fill="#A80036" stroke="#a80036" d="M255.213 153.82l-1.577-9.722-1.16 5.536-5.536-1.16 8.273 5.345z"/><path d="M342.964 72.22l-51.12 77.28" fill="none" stroke="#a80036" stroke-width="2"/><path fill="#A80036" stroke="#a80036" d="M288.987 153.82l8.302-5.3-5.543 1.13-1.13-5.544-1.629 9.713z"/><path d="M272 205.01v54.96" fill="none" stroke="#a80036" stroke-width="2"/><path fill="#A80036" stroke="#a80036" d="M272 264.992l4-9-4 4-4-4 4 9z"/></svg>