<?xml version="1.0" encoding="UTF-8" standalone="no"?><svg xmlns="http://www.w3.org/2000/svg" xmlns:xlink="http://www.w3.org/1999/xlink" contentScriptType="application/ecmascript" contentStyleType="text/css" height="326px" preserveAspectRatio="none" style="width:302px;height:326px;" version="1.1" viewBox="0 0 302 326" width="302px" zoomAndPan="magnify"><defs><filter height="300%" id="f40tk3f1bogci" width="300%" x="-1" y="-1"><feGaussianBlur result="blurOut" stdDeviation="2.0"/><feColorMatrix in="blurOut" result="blurOut2" type="matrix" values="0 0 0 0 0 0 0 0 0 0 0 0 0 0 0 0 0 0 .4 0"/><feOffset dx="4.0" dy="4.0" in="blurOut2" result="blurOut3"/><feBlend in="SourceGraphic" in2="blurOut3" mode="normal"/></filter></defs><g><!--entity PJM--><ellipse cx="21" cy="18" fill="#FEFECE" filter="url(#f40tk3f1bogci)" rx="8" ry="8" style="stroke: #A80036; stroke-width: 2.0;"/><path d="M21,26 L21,53 M8,34 L34,34 M21,53 L8,68 M21,53 L34,68 " fill="none" filter="url(#f40tk3f1bogci)" style="stroke: #A80036; stroke-width: 2.0;"/><text fill="#000000" font-family="Futura" font-size="14" lengthAdjust="spacingAndGlyphs" textLength="27" x="7.5" y="89.957">PJM</text><!--entity PROD_PRODUCT_DELIVERED--><rect fill="#FEFECE" filter="url(#f40tk3f1bogci)" height="41.5938" style="stroke: #000000; stroke-width: 1.5;" width="150" x="71" y="30"/><polygon fill="#FEFECE" points="204,35,204,49,216,49,216,41,210,35,204,35" style="stroke: #000000; stroke-width: 1.5;"/><line style="stroke: #000000; stroke-width: 1.5;" x1="210" x2="210" y1="35" y2="41"/><line style="stroke: #000000; stroke-width: 1.5;" x1="216" x2="210" y1="41" y2="41"/><text fill="#000000" font-family="Futura" font-size="14" lengthAdjust="spacingAndGlyphs" textLength="120" x="81" y="57.957">Product (delivered)</text><!--entity PROD_ACCEPTANCE_PUBLISHED--><rect fill="#FEFECE" filter="url(#f40tk3f1bogci)" height="41.5938" style="stroke: #000000; stroke-width: 1.5;" width="279" x="6.5" y="274"/><polygon fill="#FEFECE" points="268.5,279,268.5,293,280.5,293,280.5,285,274.5,279,268.5,279" style="stroke: #000000; stroke-width: 1.5;"/><line style="stroke: #000000; stroke-width: 1.5;" x1="274.5" x2="274.5" y1="279" y2="285"/><line style="stroke: #000000; stroke-width: 1.5;" x1="280.5" x2="274.5" y1="285" y2="285"/><text fill="#000000" font-family="Futura" font-size="14" lengthAdjust="spacingAndGlyphs" textLength="249" x="16.5" y="301.957">Product Acceptance Record (published)</text><ellipse cx="145.8322" cy="183.7664" fill="#FEFECE" filter="url(#f40tk3f1bogci)" rx="136.8322" ry="29.7664" style="stroke: #A80036; stroke-width: 1.5;"/><text fill="#000000" font-family="Futura" font-size="14" lengthAdjust="spacingAndGlyphs" textLength="251" x="20.3322" y="189.5633">Transition to Manufacturing and support</text><!--link PROD_PRODUCT_DELIVERED to SR6_6--><path d="M146,72.0742 C146,92.5891 146,124.1521 146,148.5372 " fill="none" id="PROD_PRODUCT_DELIVERED-SR6_6" style="stroke: #A80036; stroke-width: 2.0;"/><polygon fill="#A80036" points="146,153.6252,150,144.6252,146,148.6252,142,144.6252,146,153.6252" style="stroke: #A80036; stroke-width: 1.0;"/><!--link SR6_6 to PROD_ACCEPTANCE_PUBLISHED--><path d="M146,214.0382 C146,230.9974 146,252.0063 146,268.3727 " fill="none" id="SR6_6-PROD_ACCEPTANCE_PUBLISHED" style="stroke: #A80036; stroke-width: 2.0;"/><polygon fill="#A80036" points="146,273.7325,150,264.7325,146,268.7325,142,264.7325,146,273.7325" style="stroke: #A80036; stroke-width: 1.0;"/><!--
@startuml



skinparam handwritten false
skinparam defaultFontName Futura


actor PJM

artifact "Product (delivered)" as PROD_PRODUCT_DELIVERED
artifact "Product Acceptance Record (published)" as PROD_ACCEPTANCE_PUBLISHED

usecase "Transition to Manufacturing and support" as SR6_6
PROD_PRODUCT_DELIVERED ==> SR6_6
SR6_6 ==> PROD_ACCEPTANCE_PUBLISHED

@enduml

PlantUML version 1.2019.00(Sun Jan 13 07:46:42 PST 2019)
(GPL source distribution)
Java Runtime: Java(TM) SE Runtime Environment
JVM: Java HotSpot(TM) 64-Bit Server VM
Java Version: 10.0.1+10
Operating System: Mac OS X
OS Version: 10.14.3
Default Encoding: UTF-8
Language: en
Country: US
--></g></svg>